<svg width="300" height="246" viewBox="0 0 300 246" fill="none" xmlns="http://www.w3.org/2000/svg">
<path d="M288 0H12C8.8174 0 5.76509 1.26421 3.51465 3.51465C1.26421 5.76509 0 8.8174 0 12V234C0 237.183 1.26421 240.235 3.51465 242.485C5.76509 244.736 8.8174 246 12 246H288C291.183 246 294.235 244.736 296.485 242.485C298.736 240.235 300 237.183 300 234V12C300 8.8174 298.736 5.76509 296.485 3.51465C294.235 1.26421 291.183 0 288 0Z" fill="#61707E"/>
<path d="M166.28 12.3098H15C14.2494 12.3098 13.5295 12.6082 12.9988 13.1389C12.4681 13.6696 12.1699 14.3893 12.1699 15.1399V159.8C12.1699 160.552 12.4678 161.272 12.9983 161.805C13.5287 162.337 14.2485 162.637 15 162.64H166.28C167.032 162.637 167.751 162.337 168.282 161.805C168.812 161.272 169.11 160.552 169.11 159.8V15.1399C169.11 14.3893 168.812 13.6696 168.281 13.1389C167.75 12.6082 167.031 12.3098 166.28 12.3098Z" fill="#D3E2E2"/>
<path d="M181.02 12.3098H285.02C285.771 12.3098 286.49 12.6082 287.021 13.1389C287.552 13.6696 287.85 14.3893 287.85 15.1399V162.64H181.02V12.3098Z" fill="#D63128"/>
<path d="M210.04 68.73L212.66 52.51H222.6L219.2 70.8298C218.333 77.4498 215.543 80.59 210.83 80.25H204.83V72.9299H207.18C208.567 73.1033 209.52 71.7033 210.04 68.73ZM208.47 38.3699L205.07 22.3699H214.75L217.63 35.1899C217.81 37.8099 218.77 38.9498 220.51 38.5898H223.13V46.1799H215.02C211.52 46.2066 209.337 43.6032 208.47 38.3699ZM220.24 79.46V72.1399H223.64C224.69 72.1399 225.38 71.14 225.74 69.26L229.4 36.02H222.07V28.6899H238.07L233.62 71.8699C232.907 76.7565 230.193 79.2866 225.48 79.46H220.24ZM239.08 21.3599H247.72V72.6599C247.367 77.5399 244.923 80.07 240.39 80.25H234.11V73.4399H237.51C238.51 73.6199 239.08 73.0099 239.08 71.6099V21.3599ZM248.24 32.0898H249.81L253.74 23.98H262.9L257.4 35.5L260.02 67.95C260.02 71.09 260.717 72.4866 262.11 72.1399H263.68V79.2H258.19C254.517 78.8466 252.517 75.9698 252.19 70.5698L249.83 39.4199H248.26L248.24 32.0898Z" fill="white"/>
<path d="M211.53 80.77C211.29 80.77 211.04 80.77 210.79 80.77H204.31V72.4399H207.16C208.3 72.5699 209.08 71.3099 209.55 68.6699L212.23 52.03H223.23L219.71 70.9399C218.83 77.4599 216.08 80.77 211.53 80.77ZM205.31 79.77H210.83C215.29 80.1 217.83 77.16 218.71 70.77L222 53.02H213.08L210.53 68.8298C209.96 72.0898 208.8 73.6399 207.1 73.4299H205.31V79.77ZM234.12 80.77H233.62V74.0898C232.45 77.8498 229.73 79.83 225.5 79.98H219.75V71.6599H223.65C224.42 71.6599 224.95 70.8299 225.25 69.1899L228.85 36.54H221.58V28.21H238.58V20.8799H248.22V31.6099H249.48L253.41 23.5H263.67L257.89 35.6099L260.5 67.9299C260.5 70.5699 261 71.3498 261.29 71.5798C261.387 71.6494 261.5 71.694 261.619 71.7097C261.737 71.7254 261.858 71.7118 261.97 71.6699H264.16V79.73H258.16C254.16 79.35 252 76.2899 251.64 70.6299L249.41 39.9299H248.28V72.6699C247.91 77.8599 245.28 80.57 240.47 80.76L234.12 80.77ZM234.62 79.77H240.41C244.67 79.6 246.91 77.2699 247.24 72.6399V21.8799H239.6V71.6299C239.642 71.9928 239.603 72.3606 239.486 72.7065C239.368 73.0525 239.175 73.3679 238.92 73.6299C238.716 73.7928 238.478 73.9072 238.223 73.9644C237.968 74.0215 237.704 74.0201 237.45 73.96H234.63L234.62 79.77ZM220.75 78.98H225.47C229.94 78.81 232.47 76.4698 233.1 71.8198L237.49 29.21H222.58V35.54H229.97L226.24 69.3298C225.84 71.5498 224.97 72.6599 223.65 72.6599H220.75V78.98ZM248.75 38.98H250.29L252.68 70.5898C253.01 75.7598 254.83 78.44 258.25 78.77H263.19V72.71H262.19C261.938 72.7773 261.675 72.7852 261.42 72.7332C261.165 72.6811 260.925 72.5704 260.72 72.4099C259.91 71.7899 259.54 70.41 259.54 68.02L256.91 35.47L256.97 35.3499L262.13 24.55H254.07L250.15 32.6599H248.76L248.75 38.98ZM233.91 72.98H237.52C238.05 73.06 238.21 72.9299 238.26 72.8899C238.394 72.7152 238.492 72.5158 238.549 72.303C238.605 72.0902 238.619 71.8681 238.59 71.6499V28.3098L234.1 71.97C234.052 72.2929 233.989 72.6132 233.91 72.9299V72.98ZM223.63 46.76H215.02C211.26 46.76 208.89 43.99 208.02 38.51L204.41 21.9299H215.11L218.11 35.1399C218.21 36.6199 218.53 37.54 219.11 37.96C219.303 38.0891 219.523 38.1739 219.753 38.2085C219.983 38.2431 220.217 38.2265 220.44 38.1599H223.66L223.63 46.76ZM205.69 22.9299L208.97 38.3098C209.8 43.3098 211.78 45.74 215.02 45.74H222.63V39.1599H220.51C220.167 39.2401 219.81 39.2449 219.465 39.1741C219.12 39.1033 218.794 38.9587 218.51 38.75C217.72 38.15 217.28 37.01 217.16 35.29L214.38 22.9299H205.69Z" fill="black"/>
<path d="M287.83 175.02V230.86C287.83 231.61 287.532 232.33 287.001 232.861C286.47 233.392 285.751 233.69 285 233.69H104.41V175.02H287.83Z" fill="#D63128"/>
<path d="M92.9399 233.69H15C14.2494 233.69 13.5295 233.392 12.9988 232.861C12.4681 232.33 12.1699 231.61 12.1699 230.86V175.02H92.9399V233.69Z" fill="#D63128"/>
<path d="M204.81 100.33V94.3298H263.41V100.33H238.55V102.16H263.41V122.31H254.52V108.18H238.52V122.83H228.84V108.18H213.13V122.31H204.5V102.16H228.84V100.33H204.81ZM223.39 123.33L222.87 124.33H263.41V139.25C263.24 143.79 260.41 146.06 255.04 146.06H251.41V140.3C253.683 140.653 254.643 140.13 254.29 138.73V129.57H218.96L217.13 131.4H250.89V139.78C251.41 143.96 249.49 145.703 245.13 145.01H216.87C216.52 146.76 217.13 147.54 218.7 147.37H262.93V153.37H212.93C208.037 154.41 205.943 151.617 206.65 144.99V132.69H204.56V125.93H207.17C207.966 126 208.766 125.869 209.499 125.55C210.231 125.23 210.871 124.731 211.36 124.1L212.15 123.32L223.39 123.33ZM215.28 122.33V117.88H217.41C217.931 118.002 218.478 117.938 218.957 117.699C219.435 117.459 219.815 117.06 220.03 116.57H227.36V119.19C227.36 121.463 226.223 122.51 223.95 122.33H215.28ZM215.54 109.77H223.65C223.77 110.158 224.014 110.497 224.344 110.733C224.675 110.97 225.074 111.091 225.48 111.08H227.58V115.53H220.51C217.203 115.337 215.546 113.41 215.54 109.75V109.77ZM241.19 136.99H216.85V139.87H238.85C240.557 140.21 241.337 139.23 241.19 136.93V136.99ZM240.14 115.53V110.53H243.02C243.574 110.468 244.108 110.291 244.59 110.01C244.791 109.996 244.978 109.902 245.11 109.75H252.41C252.23 113.59 249.44 115.51 244.04 115.51L240.14 115.53ZM252.44 122.33H246.44C242.253 122.33 240.16 121.02 240.16 118.4V116.57H249.32C249.49 117.8 250.54 118.32 252.46 118.14L252.44 122.33Z" fill="white"/>
<path d="M211.08 154.17C209.898 154.224 208.74 153.827 207.84 153.06C206.28 151.65 205.72 149.06 206.14 145.06V133.31H204.05V125.5H207.16C207.877 125.567 208.599 125.454 209.26 125.171C209.922 124.888 210.503 124.444 210.95 123.88L211.95 122.88H224.22L223.7 123.88H263.95V139.3C263.76 144.16 260.78 146.61 255.08 146.61H250.91V143.7C250.74 144.025 250.521 144.322 250.26 144.58C249.19 145.58 247.44 145.94 245.05 145.58H217.29C217.246 145.772 217.241 145.971 217.275 146.165C217.31 146.359 217.383 146.545 217.49 146.71C217.653 146.831 217.84 146.914 218.039 146.954C218.238 146.994 218.443 146.989 218.64 146.94H263.41V153.94H212.97C212.35 154.081 211.716 154.158 211.08 154.17ZM205.08 132.28H207.17V145.08C206.79 148.74 207.246 151.153 208.54 152.32C209.48 153.16 210.93 153.38 212.85 152.97H262.41V147.97H218.68C218.334 148.041 217.976 148.027 217.636 147.929C217.297 147.832 216.986 147.654 216.73 147.41C216.481 147.069 216.317 146.673 216.253 146.255C216.188 145.837 216.225 145.41 216.36 145.01L216.44 144.61H245.11C247.25 144.95 248.71 144.71 249.54 143.91C250.37 143.11 250.61 141.81 250.37 139.91V131.93H215.9L218.73 129.1H254.73V138.7C254.82 138.974 254.839 139.267 254.784 139.55C254.73 139.833 254.605 140.098 254.42 140.32C254.064 140.606 253.647 140.807 253.202 140.907C252.757 141.008 252.294 141.005 251.85 140.9V145.59H255.02C260.15 145.59 262.73 143.52 262.89 139.26V124.93H222.02L222.54 123.93H212.3L211.66 124.57C211.128 125.253 210.434 125.794 209.642 126.143C208.85 126.492 207.983 126.638 207.12 126.57H205.01L205.08 132.28ZM251.4 139.86H251.5C253.15 140.11 253.62 139.86 253.75 139.67C253.823 139.557 253.868 139.428 253.88 139.294C253.892 139.16 253.872 139.024 253.82 138.9V130.12H219.2L218.37 130.95H251.41V139.83L251.4 139.86ZM239.51 140.42C239.258 140.416 239.007 140.389 238.76 140.34H216.38V136.46H241.68V136.92C241.789 137.447 241.775 137.992 241.638 138.513C241.501 139.033 241.245 139.515 240.89 139.92C240.498 140.255 239.996 140.433 239.48 140.42H239.51ZM217.38 139.35H238.86C239.092 139.43 239.34 139.457 239.584 139.428C239.829 139.398 240.063 139.313 240.27 139.18C240.459 138.941 240.598 138.667 240.679 138.373C240.759 138.079 240.78 137.772 240.74 137.47H217.38V139.35ZM239.1 123.35H228.41V108.7H213.7V122.83H204.07V101.68H228.41V100.85H204.31V93.8499H263.93V100.85H239.07V101.68H263.93V122.83H254.03V108.7H239.03L239.1 123.35ZM229.42 122.35H238.1V107.7H255.1V121.83H263V102.68H238.14V99.8499H263V94.8499H205.31V99.8499H229.41V102.68H205.07V121.83H212.7V107.7H229.41L229.42 122.35ZM224.42 122.85H214.82V117.4H217.41C217.831 117.517 218.281 117.48 218.678 117.297C219.075 117.114 219.395 116.796 219.58 116.4L219.72 116.12H227.86V119.24C227.902 119.759 227.834 120.28 227.662 120.771C227.49 121.262 227.217 121.711 226.86 122.09C226.168 122.642 225.291 122.906 224.41 122.83L224.42 122.85ZM215.82 121.85H223.95C224.336 121.919 224.732 121.909 225.114 121.82C225.496 121.73 225.855 121.564 226.17 121.33C226.422 121.041 226.613 120.705 226.732 120.341C226.85 119.976 226.894 119.592 226.86 119.21V117.09H220.32C220.023 117.598 219.572 117.998 219.033 118.233C218.494 118.469 217.894 118.527 217.32 118.4H215.8L215.82 121.85ZM252.98 122.85H246.41C241.91 122.85 239.63 121.36 239.63 118.43V116.09H249.72L249.78 116.52C249.84 116.89 249.98 117.88 252.39 117.67H252.93L252.98 122.85ZM240.68 117.09V118.43C240.68 119.27 240.68 121.85 246.46 121.85H251.98V118.69C249.98 118.74 249.21 117.94 248.98 117.09H240.68ZM244.11 116.09H239.68V110.09H243.06C243.535 110.03 243.991 109.869 244.4 109.62L244.51 109.57H244.63C244.695 109.548 244.753 109.51 244.8 109.46L244.94 109.31H253V109.83C252.75 113.93 249.76 116.01 244.07 116.01L244.11 116.09ZM240.68 115.09H244.11C248.98 115.09 251.55 113.53 251.94 110.33H245.34C245.174 110.466 244.973 110.552 244.76 110.58C244.239 110.879 243.659 111.06 243.06 111.11H240.68V115.09ZM228.12 116.09H220.55C216.96 115.9 215.08 113.74 215.08 109.83V109.33H224.03L224.16 109.64C224.239 109.936 224.417 110.197 224.664 110.379C224.912 110.56 225.213 110.653 225.52 110.64H228.12V116.09ZM216.12 110.33C216.26 113.33 217.73 114.94 220.61 115.09H227.15V111.64H225.55C225.103 111.654 224.662 111.538 224.28 111.305C223.898 111.073 223.592 110.734 223.4 110.33H216.12Z" fill="black"/>
<path d="M32.73 225.02V219.51H49.0698V225.02H32.73ZM32.9099 194.73L39.9099 183.89H47.0698L38.99 196.56H41.4099L43.98 192.34H51.51L40.6799 209.6H49.1199V215.29H32.9099V210.15L38.7898 201.7H32.9099V194.73ZM58.7998 219.73V189.81H51.46V183.93H74.4099V189.81H65.96V219.73H74.5898V225.61H51.27V219.73H58.7998Z" fill="white"/>
<path d="M75.0898 226.07H50.77V219.19H58.2998V190.27H50.96V183.39H74.9099V190.27H66.46V219.19H75.0898V226.07ZM51.77 225.07H74.0898V220.19H65.46V189.27H73.9099V184.39H51.96V189.27H59.2998V220.19H51.77V225.07ZM49.5698 225.52H32.23V219.01H49.5698V225.52ZM33.23 224.52H48.5698V220.01H33.23V224.52ZM49.5698 215.79H32.4099V209.99L37.8298 202.2H32.4099V194.58L32.49 194.46L39.6199 183.39H47.96L39.8899 196.06H41.0798L43.6499 191.84H52.4099L41.5798 209.1H49.5798L49.5698 215.79ZM33.4099 214.79H48.5698V210.1H39.72L50.5498 192.84H44.21L41.6399 197.06H38.0598L46.1399 184.39H40.1399L33.3899 194.87V201.2H39.73L33.3899 210.3L33.4099 214.79Z" fill="black"/>
<path d="M163.7 189.47H169.27V199.99H175.41V189.47H181.01V219.53H175.41V207.37H169.32V219.53H163.75L163.7 189.47Z" fill="white"/>
<path d="M181.46 220.03H174.86V207.87H169.77V220.03H163.2V188.93H169.77V199.45H174.86V188.93H181.46V220.03ZM175.86 219.03H180.46V189.93H175.86V200.45H168.77V189.93H164.2V218.99H168.77V206.83H175.86V219.03Z" fill="black"/>
<path d="M195.75 214.57H189.41L188.53 219.57H182.84L189.62 189.51H195.7L202.47 219.57H196.64L195.75 214.57ZM194.6 208.07L192.6 197.26L190.6 208.07H194.6Z" fill="white"/>
<path d="M203.12 220.03H196.24L195.34 215.03H189.84L188.96 220.03H182.23L189.23 188.97H196.1L203.12 220.03ZM197.07 219.03H201.87L195.32 189.97H190.03L183.48 219.03H188.13L189.01 214.03H196.17L197.07 219.03ZM195.2 208.57H190.04L192.61 194.49L195.2 208.57ZM191.2 207.57H193.96L192.57 200.03L191.2 207.57Z" fill="black"/>
<path d="M204.49 189.47H210.07V219.53H204.49V189.47Z" fill="white"/>
<path d="M210.57 220.03H203.99V188.93H210.57V220.03ZM204.99 219.03H209.57V189.93H204.99V219.03Z" fill="black"/>
<path d="M214.07 189.47H219.65V212.13H228.35V219.53H214.07V189.47Z" fill="white"/>
<path d="M228.85 220.03H213.57V188.93H220.15V211.59H228.85V220.03ZM214.57 219.03H227.85V212.63H219.15V189.93H214.57V219.03Z" fill="black"/>
<path d="M90.3198 153.27C87.3898 153.27 84.7498 151.15 83.0698 147.44C81.6698 144.36 74.76 129.19 49.71 74.4399L48.49 71.77C47.6119 69.9567 47.0406 68.0103 46.7998 66.01L47.7998 65.9199C48.036 67.8045 48.5764 69.6383 49.3999 71.3499L50.6199 74.02C75.6699 128.82 82.62 144.02 83.98 147.02C85.49 150.35 87.7998 152.26 90.3298 152.26V153.26L90.3198 153.27Z" fill="#231F20"/>
<path d="M134.41 66.3298L133.41 66.21C133.577 65.2847 133.52 64.3328 133.246 63.4336C132.971 62.5344 132.485 61.714 131.83 61.04L95.95 25.1499C95.2594 24.399 94.4261 23.793 93.499 23.3672C92.5719 22.9414 91.5694 22.7044 90.5498 22.6699V21.6699C91.7012 21.7026 92.8347 21.9643 93.8838 22.4399C94.9329 22.9155 95.8765 23.5955 96.6599 24.4399L132.54 60.3298C133.306 61.1091 133.876 62.06 134.201 63.1035C134.526 64.1471 134.598 65.2531 134.41 66.3298Z" fill="#231F20"/>
<path d="M47.3398 66.27L90.6398 87.47L90.5898 22.1699C89.5011 22.2005 88.4297 22.4489 87.4387 22.9006C86.4476 23.3524 85.557 23.9984 84.8198 24.8C81.2998 28.31 51.8199 57.9399 48.9399 60.6799C48.2714 61.3636 47.7734 62.1955 47.4868 63.1077C47.2001 64.0199 47.1326 64.9867 47.2897 65.9299L47.3398 66.27Z" fill="#D63128"/>
<path d="M91.1398 88.27L46.8798 66.5999L46.7997 65.99C46.6301 64.9699 46.7049 63.9241 47.0178 62.9385C47.3307 61.9528 47.8729 61.0553 48.5998 60.3198C50.8798 58.1798 69.1699 39.8099 78.9999 29.9399L84.4699 24.4399C85.9437 22.8665 87.9431 21.8881 90.0898 21.6899H90.5998V22.1899H91.0898L91.1398 88.27ZM47.7997 65.9299L90.1398 86.6599L90.0898 22.6599C88.2111 22.8646 86.4686 23.7376 85.1799 25.1199L79.7099 30.6199C69.8799 40.4899 51.5797 58.87 49.2897 61.02C48.6747 61.6483 48.2186 62.4143 47.9594 63.2544C47.7002 64.0945 47.6455 64.9843 47.7997 65.8499V65.9299Z" fill="#231F20"/>
<path d="M90.4099 152.77C92.9899 152.77 95.57 150.87 97.25 147.23L132.25 71.52C133.09 69.869 133.67 68.0981 133.97 66.27L90.6599 87.47H90.6099V152.76L90.4099 152.77Z" fill="#D63128"/>
<path d="M90.4099 153.27V152.76H90.1299V86.9299H90.5698L133.93 65.71L134.55 65.8298L134.49 66.29C134.195 68.134 133.619 69.9214 132.78 71.5898V71.6899L97.77 147.4C96.21 150.78 93.8299 152.85 91.1799 153.19H90.9199L90.4099 153.27ZM91.1099 87.8098V152.22C93.3599 151.87 95.3998 150.02 96.7898 147.02L131.8 71.3098L131.85 71.21C132.489 69.9152 132.982 68.5535 133.32 67.1499L91.1099 87.8098Z" fill="#231F20"/>
</svg>
