<svg width="300" height="246" viewBox="0 0 300 246" fill="none" xmlns="http://www.w3.org/2000/svg">
<path d="M288 0H12C8.8174 0 5.76509 1.26421 3.51465 3.51465C1.26421 5.76509 0 8.8174 0 12V234C0 237.183 1.26421 240.235 3.51465 242.485C5.76509 244.736 8.8174 246 12 246H288C291.183 246 294.235 244.736 296.485 242.485C298.736 240.235 300 237.183 300 234V12C300 8.8174 298.736 5.76509 296.485 3.51465C294.235 1.26421 291.183 0 288 0Z" fill="#61707E"/>
<path d="M166.28 12.3098H15C14.2494 12.3098 13.5295 12.6082 12.9988 13.1389C12.4681 13.6696 12.1699 14.3893 12.1699 15.1399V159.8C12.1699 160.551 12.4678 161.272 12.9983 161.805C13.5287 162.337 14.2485 162.637 15 162.64H166.28C167.032 162.637 167.751 162.337 168.282 161.805C168.812 161.272 169.11 160.551 169.11 159.8V15.1399C169.11 14.3893 168.812 13.6696 168.281 13.1389C167.75 12.6082 167.031 12.3098 166.28 12.3098Z" fill="#D3E2E2"/>
<path d="M181.02 12.3098H285.02C285.771 12.3098 286.49 12.6082 287.021 13.1389C287.552 13.6696 287.85 14.3893 287.85 15.1399V162.64H181.02V12.3098Z" fill="#F78C21"/>
<path d="M210.04 68.73L212.66 52.51H222.6L219.2 70.8298C218.333 77.4632 215.543 80.6033 210.83 80.25H204.83V72.9199H207.18C208.567 73.0999 209.52 71.7033 210.04 68.73ZM208.47 38.3799L205.07 22.3799H214.75L217.63 35.2C217.81 37.82 218.77 38.9565 220.51 38.6099H223.13V46.2H215.02C211.52 46.22 209.337 43.6232 208.47 38.4099V38.3799ZM220.24 79.47V72.1399H223.64C224.69 72.1399 225.38 71.14 225.74 69.26L229.4 36.02H222.07V28.6899H238.07L233.62 71.8799C232.907 76.7599 230.193 79.29 225.48 79.47H220.24ZM239.08 21.3599H247.72V72.6599C247.367 77.5399 244.923 80.07 240.39 80.25H234.11V73.4099H237.51C238.51 73.5799 239.08 72.9698 239.08 71.5698V21.3599ZM248.24 32.0898H249.81L253.74 23.98H262.9L257.4 35.5L260.02 67.95C260.02 71.09 260.717 72.4866 262.11 72.1399H263.68V79.2H258.19C254.517 78.8533 252.517 75.9765 252.19 70.5698L249.83 39.4199H248.26L248.24 32.0898Z" fill="white"/>
<path d="M211.53 80.78H204.31V72.4099H207.16C208.3 72.5599 209.08 71.2799 209.55 68.6399L212.23 52H223.23L219.71 70.9099C218.83 77.4599 216.08 80.78 211.53 80.78ZM205.31 79.78H210.83C215.29 80.11 217.83 77.17 218.71 70.78L222 53.03H213.08L210.53 68.8398C209.96 72.0998 208.8 73.6399 207.1 73.4399H205.31V79.78ZM234.12 80.78H233.62V74.0999C232.45 77.8599 229.73 79.84 225.5 80H219.75V71.6699H223.65C224.42 71.6699 224.95 70.84 225.25 69.2L228.85 36.5498H221.58V28.22H238.58V20.8899H248.22V31.6199H249.48L253.41 23.51H263.67L257.89 35.6199L260.5 67.9399C260.5 70.5799 261 71.3598 261.29 71.5898C261.387 71.6594 261.5 71.704 261.619 71.7197C261.737 71.7354 261.858 71.7218 261.97 71.6799H264.16V79.74H258.16C254.16 79.36 252 76.2999 251.64 70.6399L249.32 39.96H248.19V72.7C247.82 77.89 245.19 80.5998 240.38 80.7898L234.12 80.78ZM234.62 79.78H240.41C244.67 79.62 246.91 77.2799 247.24 72.6499V21.8899H239.6V71.6399C239.639 72.0027 239.599 72.3698 239.481 72.7153C239.364 73.0608 239.172 73.3764 238.92 73.6399C238.714 73.7986 238.475 73.9095 238.221 73.9648C237.967 74.0202 237.703 74.0186 237.45 73.96H234.63L234.62 79.78ZM220.75 79H225.47C229.94 78.83 232.47 76.4798 233.1 71.8398L237.49 29.22H222.58V35.5498H229.97L226.24 69.3398C225.84 71.5598 224.97 72.6699 223.65 72.6699H220.75V79ZM248.75 39H250.29L252.68 70.6099C253.01 75.7899 254.83 78.4598 258.25 78.7898H263.19V72.73H262.19C261.939 72.7964 261.676 72.8046 261.421 72.7544C261.167 72.7041 260.927 72.5967 260.72 72.4399C259.91 71.8099 259.54 70.4398 259.54 68.0398L256.91 35.49L256.97 35.3699L262.13 24.5698H254.07L250.15 32.6799H248.76L248.75 39ZM233.91 73H237.52C238.05 73.07 238.21 72.9499 238.26 72.8999C238.394 72.7252 238.492 72.5258 238.549 72.313C238.605 72.1002 238.619 71.8782 238.59 71.6599V28.3198L234.1 71.98C234.05 72.28 233.99 72.6199 233.91 72.95V73ZM223.63 46.78H215.02C211.26 46.78 208.89 44 208.02 38.52L204.41 21.9099H215.11L218.11 35.1199C218.21 36.5999 218.53 37.5199 219.11 37.9399C219.303 38.0689 219.522 38.1544 219.752 38.1907C219.982 38.2269 220.216 38.213 220.44 38.1499H223.66L223.63 46.78ZM205.69 22.96L208.97 38.3398C209.8 43.3398 211.78 45.78 215.02 45.78H222.63V39.1899H220.51C220.167 39.2701 219.81 39.2749 219.465 39.2041C219.12 39.1333 218.794 38.9888 218.51 38.78C217.72 38.18 217.28 37.0398 217.16 35.3198L214.38 22.96H205.69Z" fill="black"/>
<path d="M287.83 175.02V230.86C287.83 231.611 287.532 232.332 287.002 232.865C286.471 233.397 285.751 233.697 285 233.7H104.41V175.02H287.83Z" fill="#F78C21"/>
<path d="M92.9399 233.7H15C14.2485 233.697 13.5287 233.397 12.9983 232.865C12.4678 232.332 12.1699 231.611 12.1699 230.86V175.02H92.9399V233.7Z" fill="#F78C21"/>
<path d="M204.81 100.33V94.3298H263.41V100.33H238.55V102.16H263.41V122.31H254.52V108.18H238.52V122.84H228.84V108.18H213.13V122.31H204.5V102.16H228.84V100.33H204.81ZM223.39 123.33L222.87 124.38H263.41V139.29C263.24 143.83 260.41 146.1 255.04 146.1H251.41V140.41C253.683 140.757 254.643 140.233 254.29 138.84V129.68H218.96L217.13 131.51H250.89V139.89C251.41 144.083 249.49 145.827 245.13 145.12H216.87C216.52 146.87 217.13 147.65 218.7 147.48H262.93V153.48H212.93C208.037 154.52 205.943 151.727 206.65 145.1V132.8H204.56V126H207.17C207.966 126.068 208.768 125.935 209.5 125.614C210.232 125.293 210.871 124.793 211.36 124.16L212.15 123.38L223.39 123.33ZM215.28 122.33V117.88H217.41C217.931 118.002 218.478 117.938 218.957 117.699C219.435 117.459 219.815 117.06 220.03 116.57H227.36V119.19C227.36 121.457 226.223 122.503 223.95 122.33H215.28ZM215.54 109.77H223.65C223.768 110.159 224.012 110.498 224.343 110.735C224.674 110.972 225.073 111.093 225.48 111.08H227.58V115.53H220.51C217.2 115.34 215.54 113.41 215.54 109.75V109.77ZM241.19 136.99H216.85V139.87H238.85C240.557 140.23 241.337 139.263 241.19 136.97V136.99ZM240.14 115.53V110.53H243.02C243.575 110.465 244.109 110.284 244.59 110C244.69 109.995 244.788 109.97 244.877 109.925C244.967 109.88 245.046 109.817 245.11 109.74H252.41C252.23 113.58 249.44 115.5 244.04 115.5L240.14 115.53ZM252.44 122.33H246.44C242.253 122.33 240.16 121.023 240.16 118.41V116.57H249.32C249.49 117.8 250.54 118.32 252.46 118.14L252.44 122.33Z" fill="white"/>
<path d="M211.08 154.17C209.898 154.224 208.74 153.827 207.84 153.06C206.28 151.65 205.72 149.06 206.14 145.06V133.31H204.05V125.51H207.16C207.878 125.578 208.601 125.464 209.263 125.179C209.925 124.894 210.506 124.448 210.95 123.88L211.95 122.88H224.22L223.7 123.93H263.95V139.35C263.76 144.2 260.78 146.65 255.08 146.65H250.91V143.74C250.743 144.067 250.523 144.364 250.26 144.62C249.19 145.62 247.43 145.98 245.05 145.62H217.29C217.245 145.812 217.24 146.011 217.274 146.205C217.309 146.4 217.382 146.585 217.49 146.75C217.651 146.874 217.839 146.96 218.038 147C218.238 147.04 218.443 147.033 218.64 146.98H263.41V153.98H212.97C212.348 154.108 211.715 154.172 211.08 154.17ZM205.08 132.28H207.17V145.08C206.79 148.74 207.25 151.16 208.54 152.32C209.48 153.16 210.93 153.38 212.85 152.97H262.41V147.97H218.68C218.334 148.04 217.976 148.026 217.636 147.928C217.297 147.831 216.986 147.653 216.73 147.41C216.481 147.069 216.317 146.673 216.253 146.255C216.188 145.837 216.225 145.41 216.36 145.01L216.44 144.61H245.11C247.25 144.95 248.71 144.71 249.54 143.91C250.37 143.11 250.61 141.81 250.37 139.91V131.97H215.9L218.73 129.14H254.73V138.74C254.819 139.016 254.837 139.31 254.783 139.594C254.729 139.879 254.604 140.146 254.42 140.37C254.063 140.654 253.646 140.853 253.201 140.952C252.755 141.051 252.293 141.047 251.85 140.94V145.63H255.02C260.15 145.63 262.73 143.56 262.89 139.31V124.91H222.02L222.54 123.86H212.3L211.66 124.5C211.128 125.183 210.434 125.723 209.642 126.073C208.85 126.422 207.983 126.569 207.12 126.5H205.01L205.08 132.28ZM251.4 139.86H251.5C253.15 140.11 253.62 139.86 253.75 139.67C253.88 139.48 253.91 139.27 253.82 138.9V130.12H219.2L218.37 130.95H251.41V139.83L251.4 139.86ZM239.51 140.42C239.258 140.416 239.007 140.389 238.76 140.34H216.38V136.46H241.68V136.92C241.79 138.38 241.53 139.36 240.89 139.92C240.496 140.251 239.994 140.426 239.48 140.41L239.51 140.42ZM217.38 139.35H238.86C239.092 139.43 239.34 139.457 239.584 139.428C239.829 139.398 240.063 139.313 240.27 139.18C240.46 138.941 240.599 138.667 240.68 138.373C240.76 138.079 240.781 137.772 240.74 137.47H217.38V139.35ZM239.1 123.35H228.41V108.69H213.7V122.82H204.07V101.67H228.41V100.84H204.31V93.8398H263.93V100.84H239.07V101.67H263.93V122.82H254.03V108.69H239.03L239.1 123.35ZM229.42 122.35H238.1V107.69H255.1V121.82H263V102.67H238.14V99.8398H263V94.8398H205.31V99.8398H229.41V102.67H205.07V121.82H212.7V107.69H229.41L229.42 122.35ZM224.42 122.84H214.82V117.41H217.41C217.831 117.529 218.281 117.493 218.679 117.31C219.077 117.127 219.396 116.808 219.58 116.41L219.72 116.13H227.86V119.25C227.902 119.769 227.834 120.29 227.662 120.781C227.49 121.272 227.217 121.721 226.86 122.1C226.167 122.648 225.29 122.909 224.41 122.83L224.42 122.84ZM215.82 121.84H223.95C224.336 121.909 224.732 121.899 225.114 121.81C225.496 121.72 225.855 121.554 226.17 121.32C226.423 121.032 226.615 120.696 226.733 120.331C226.852 119.967 226.895 119.582 226.86 119.2V117.08H220.32C220.024 117.589 219.574 117.99 219.034 118.226C218.495 118.461 217.894 118.519 217.32 118.39H215.8L215.82 121.84ZM252.98 122.84H246.41C241.91 122.84 239.63 121.35 239.63 118.42V116.08H249.72L249.78 116.51C249.84 116.89 249.98 117.87 252.39 117.66H252.93L252.98 122.84ZM240.68 117.08V118.41C240.68 119.25 240.68 121.83 246.46 121.83H251.98V118.68C249.98 118.68 249.21 117.92 248.98 117.07L240.68 117.08ZM244.11 116.08H239.68V110.08H243.06C243.533 110.014 243.989 109.854 244.4 109.61L244.51 109.55H244.63C244.695 109.528 244.753 109.49 244.8 109.44L244.94 109.29H253V109.81C252.75 113.91 249.76 116.01 244.07 116.01L244.11 116.08ZM240.68 115.08H244.11C248.98 115.08 251.55 113.52 251.94 110.32H245.34C245.174 110.456 244.973 110.542 244.76 110.57C244.239 110.87 243.659 111.054 243.06 111.11H240.68V115.08ZM228.12 116.08H220.55C216.96 115.89 215.08 113.73 215.08 109.82V109.32H224.03L224.16 109.64C224.239 109.936 224.417 110.197 224.664 110.379C224.912 110.56 225.213 110.653 225.52 110.64H228.12V116.08ZM216.12 110.32C216.26 113.32 217.73 114.93 220.61 115.08H227.15V111.63H225.55C225.103 111.644 224.662 111.528 224.28 111.295C223.898 111.063 223.592 110.724 223.4 110.32H216.12Z" fill="black"/>
<path d="M31.6299 188.3H39.1599V183.9H45.22V188.3H46.6799V193.41H45.22V195.07H46.3198V200.41H45.22V225.41H38.97V200.41H38.24L37.51 220.05C37.51 222.5 36.34 223.73 34.02 223.73H31.4099V219.32C31.8999 219.44 32.1399 219.2 32.1399 218.59L32.8799 195.09H38.8799V193.62H31.5398V188.29L31.6299 188.3ZM73.3098 208.68V215.47C73.4298 218.17 72.31 219.39 70 219.15L69.6299 221.15H73.3098V224.82H46.5V221.15H50.4099L49.8499 219.15H47.4099V208.68H73.3098ZM47.23 207.21V202.81H73.2998V207.21H47.23ZM54.03 188.85H47.7898V184.26H60.27L59.5398 195.46C59.5398 200.127 57.3965 202.207 53.1099 201.7H47.97V197.11H52.1899C52.7999 197.24 53.1898 196.87 53.2898 196.01L53.48 195.46H50.5398C48.6998 195.34 47.7898 194.18 47.7898 191.97V190.32H51.6399C51.5199 190.93 51.7599 191.18 52.3699 191.05H53.8398L54.03 188.85ZM53.2898 213.27V214.74H66.2898C66.7798 214.86 67.02 214.62 67.02 214.01V213.27H53.2898ZM63.5698 219.15H56.5698V221.15H63.5698V219.15ZM61.74 197.15L60.8198 184.3H73.2998V189.41H67.6099L67.98 191.25H68.8999C69.5099 191.37 69.8198 191.13 69.8198 190.52H73.49L73.2998 192.72C73.1798 194.8 72.2631 195.656 70.5498 195.29H68.1599L68.3499 196.02C68.2199 196.88 68.6499 197.25 69.6299 197.12H73.1199V201.53H66.51C63.45 201.777 61.86 200.303 61.74 197.11V197.15Z" fill="white"/>
<path d="M45.71 225.89H38.47V207.53L38 220.08C38 222.79 36.63 224.24 34 224.24H30.9299V218.69L31.5498 218.85H31.6399C31.6463 218.763 31.6463 218.676 31.6399 218.59L32.3899 194.59H38.3899V194.12H31.0498V187.79H38.5798V183.41H45.6299V187.81H47.0999V193.95H45.6299V194.61H46.74V200.93H45.6299L45.71 225.89ZM39.47 224.89H44.71V199.89H45.8198V195.57H44.71V192.91H46.1799V188.77H44.71V184.41H39.6599V188.81H32.1299V193.14H39.47V195.61H33.4099L32.6899 218.61C32.7063 218.806 32.678 219.003 32.6069 219.187C32.5359 219.371 32.4242 219.536 32.28 219.67C32.1832 219.741 32.0749 219.795 31.96 219.83V223.24H34.03C36.03 223.24 37.03 222.24 37.03 220.06L37.7898 199.92H39.5L39.47 224.89ZM73.8098 225.34H46V220.67H49.7L49.4199 219.67H46.9199V208.2H73.8098V215.49C73.8987 216.1 73.8556 216.722 73.6831 217.314C73.5106 217.906 73.2126 218.453 72.8098 218.92C72.487 219.204 72.1094 219.42 71.7 219.552C71.2905 219.685 70.8582 219.732 70.4299 219.69L70.25 220.69H73.8298L73.8098 225.34ZM47 224.34H72.8098V221.67H69.03L69.5898 218.6H70.0498C70.4058 218.676 70.7743 218.672 71.1287 218.589C71.4831 218.506 71.8146 218.346 72.0999 218.12C72.399 217.75 72.6169 217.321 72.7393 216.861C72.8616 216.401 72.8856 215.92 72.8098 215.45V209.13H47.9199V218.6H50.1899L51.01 221.6H47.01L47 224.34ZM64.0698 221.67H56.0698V218.67H64.0698V221.67ZM57.0698 220.67H63.0698V219.67H57.0698V220.67ZM52.76 215.27V212.8H67.53V214.04C67.5472 214.238 67.519 214.437 67.448 214.622C67.377 214.807 67.2648 214.974 67.1199 215.11C66.9504 215.22 66.7516 215.275 66.5498 215.27H52.76ZM53.76 214.27H66.51C66.51 214.27 66.51 214.17 66.51 214.01V213.77H53.74L53.76 214.27ZM73.76 207.74H46.6899V202.34H73.76V207.74ZM47.6899 206.74H72.76V203.34H47.6899V206.74ZM54.22 202.3C53.8156 202.3 53.4116 202.277 53.01 202.23H47.4299V196.64H52.1499C52.4199 196.69 52.48 196.64 52.5 196.64C52.52 196.64 52.68 196.47 52.75 196H50.5C49 195.9 47.25 195.13 47.25 192V189.85H52.25L52.1299 190.45C52.1299 190.52 52.1299 190.58 52.1299 190.61C52.1863 190.618 52.2434 190.618 52.2998 190.61H53.3999L53.5 189.4H47.3098V183.81H73.8198V189.95H68.24L68.4099 190.79H68.9199C69.0453 190.816 69.1745 190.816 69.2998 190.79C69.321 190.708 69.321 190.622 69.2998 190.54V190.04H74.01L73.78 192.78C73.8038 193.277 73.7175 193.773 73.5273 194.233C73.3372 194.693 73.0478 195.105 72.6799 195.44C72.3628 195.659 72.0013 195.806 71.6211 195.87C71.2409 195.934 70.8514 195.913 70.48 195.81H68.78L68.8398 196.02V196.11C68.7986 196.264 68.8164 196.428 68.8899 196.57C68.9599 196.64 69.1698 196.7 69.5698 196.65H73.6199V202.05H66.51C65.8451 202.146 65.1675 202.107 64.5181 201.935C63.8686 201.763 63.2606 201.462 62.73 201.05C62.2316 200.538 61.8423 199.93 61.5862 199.263C61.33 198.596 61.2124 197.884 61.24 197.17L60.5498 187.59L60.03 195.52C60.03 198.04 59.3999 199.91 58.1399 201.03C57.0471 201.914 55.6629 202.356 54.26 202.27L54.22 202.3ZM48.4299 201.23H53.0698C55.0698 201.45 56.4799 201.13 57.4299 200.28C58.3799 199.43 58.99 197.75 58.99 195.49L59.7 184.79H48.25V188.38H54.53L54.26 191.58H52.4099C52.238 191.635 52.0542 191.644 51.8782 191.603C51.7021 191.563 51.5403 191.475 51.4099 191.35C51.2767 191.213 51.1894 191.038 51.1599 190.85H48.3198V192C48.3198 194.55 49.6199 194.93 50.5999 195H54.2L53.7998 196.21C53.784 196.452 53.7181 196.688 53.6062 196.903C53.4943 197.118 53.339 197.308 53.1499 197.46C53.0041 197.556 52.8404 197.622 52.6685 197.653C52.4966 197.684 52.3201 197.679 52.1499 197.64H48.53L48.4299 201.23ZM61.3198 184.79L62.2 197.13C62.1665 197.709 62.2522 198.29 62.4517 198.835C62.6512 199.38 62.9602 199.879 63.3599 200.3C63.7938 200.627 64.2898 200.862 64.8176 200.991C65.3455 201.12 65.8941 201.14 66.4299 201.05H72.5798V197.65H69.5798C69.3253 197.705 69.0615 197.699 68.8096 197.633C68.5577 197.567 68.3248 197.443 68.1299 197.27C67.9856 197.109 67.88 196.917 67.821 196.709C67.7621 196.501 67.7514 196.283 67.7898 196.07L67.47 194.81H70.6099C70.8477 194.889 71.1 194.914 71.3489 194.885C71.5977 194.856 71.8369 194.772 72.0498 194.64C72.2949 194.383 72.4845 194.077 72.6067 193.744C72.7288 193.41 72.7811 193.055 72.76 192.7L72.8999 191.03H70.2C70.1389 191.232 70.0208 191.413 69.8599 191.55C69.7035 191.668 69.5217 191.747 69.3289 191.782C69.136 191.817 68.9378 191.806 68.75 191.75H67.52L66.95 188.91H72.75V184.77L61.3198 184.79Z" fill="black"/>
<path d="M163.7 189.47H169.27V199.99H175.41V189.47H181.01V219.53H175.41V207.41H169.32V219.57H163.75L163.7 189.47Z" fill="white"/>
<path d="M181.46 220.03H174.86V207.87H169.77V220.03H163.2V188.97H169.77V199.49H174.86V188.97H181.46V220.03ZM175.86 219.03H180.46V189.97H175.86V200.49H168.77V189.97H164.2V219.03H168.77V206.87H175.86V219.03Z" fill="black"/>
<path d="M195.75 214.57H189.41L188.53 219.57H182.84L189.62 189.51H195.7L202.47 219.57H196.64L195.75 214.57ZM194.6 208.07L192.6 197.26L190.6 208.07H194.6Z" fill="white"/>
<path d="M203.12 220.03H196.24L195.34 215.03H189.84L188.96 220.03H182.23L189.23 188.97H196.1L203.12 220.03ZM197.07 219.03H201.87L195.32 189.97H190.03L183.48 219.03H188.13L189.01 214.03H196.17L197.07 219.03ZM195.2 208.57H190.04L192.61 194.49L195.2 208.57ZM191.2 207.57H193.96L192.57 200.04L191.2 207.57Z" fill="black"/>
<path d="M204.49 189.47H210.07V219.53H204.49V189.47Z" fill="white"/>
<path d="M210.57 220.03H203.99V188.97H210.57V220.03ZM204.99 219.03H209.57V189.97H204.99V219.03Z" fill="black"/>
<path d="M214.07 189.47H219.65V212.13H228.35V219.53H214.07V189.47Z" fill="white"/>
<path d="M228.85 220.03H213.57V188.97H220.15V211.63H228.85V220.03ZM214.57 219.03H227.85V212.63H219.15V189.97H214.57V219.03Z" fill="black"/>
<path d="M90.3198 153.28C87.3898 153.28 84.7498 151.15 83.0698 147.44C81.6698 144.36 74.7499 129.17 49.6899 74.3398L48.49 71.73C47.6133 69.9197 47.0421 67.9768 46.7998 65.98L47.7998 65.8799C48.036 67.7645 48.5764 69.5983 49.3999 71.3098L50.5898 73.9299C75.6598 128.76 82.59 143.93 83.98 147.03C85.49 150.37 87.7998 152.28 90.3298 152.28V153.28H90.3198Z" fill="#231F20"/>
<path d="M134.41 66.3298L133.41 66.21C133.576 65.2847 133.519 64.3331 133.245 63.4341C132.97 62.535 132.485 61.7142 131.83 61.0398L124.48 53.6799C114.62 43.8199 98.4799 27.6799 95.95 25.1599C95.2599 24.4076 94.427 23.8 93.5 23.3726C92.573 22.9451 91.57 22.7063 90.5498 22.6699V21.6699C91.7018 21.7045 92.8355 21.968 93.8845 22.4453C94.9336 22.9226 95.877 23.6041 96.6599 24.45L132.54 60.3298C133.306 61.1091 133.876 62.06 134.201 63.1035C134.526 64.1471 134.598 65.2531 134.41 66.3298Z" fill="#231F20"/>
<path d="M47.3398 66.27L90.6398 87.47L90.5898 22.1699C89.5011 22.2005 88.4297 22.4489 87.4387 22.9006C86.4476 23.3524 85.557 23.9981 84.8198 24.7998C81.2998 28.3198 51.8199 57.9499 48.9399 60.6799C48.2714 61.3636 47.7734 62.1955 47.4868 63.1077C47.2001 64.0199 47.1326 64.9867 47.2897 65.9299L47.3398 66.27Z" fill="#F78C21"/>
<path d="M91.1398 88.27L46.8798 66.5999L46.7997 65.99C46.6301 64.9699 46.7049 63.9241 47.0178 62.9385C47.3307 61.9528 47.8729 61.0553 48.5998 60.3198C50.8798 58.1798 69.1699 39.8099 78.9999 29.9399L84.4699 24.45C85.9398 22.8698 87.9407 21.8871 90.0898 21.6899H90.5998V22.1899H91.0898L91.1398 88.27ZM47.7997 65.9399L90.1398 86.6699L90.0898 22.6699C88.2111 22.8746 86.4686 23.7476 85.1799 25.1299L79.7099 30.6299C69.8799 40.4999 51.5797 58.88 49.2897 61.03C48.6754 61.6587 48.2198 62.4247 47.9606 63.2646C47.7015 64.1046 47.6463 64.9943 47.7997 65.8599V65.9399Z" fill="#231F20"/>
<path d="M90.4099 152.78C92.9899 152.78 95.57 150.88 97.25 147.24L132.25 71.52C133.09 69.869 133.67 68.0981 133.97 66.27L90.6599 87.47H90.6099V152.77L90.4099 152.78Z" fill="#F78C21"/>
<path d="M90.4099 153.28V152.77H90.1299V86.97H90.5698L133.93 65.75L134.55 65.8699L134.49 66.3298C134.197 68.1742 133.62 69.9621 132.78 71.6299V71.73L105.78 130.21L97.78 147.45C96.22 150.83 93.8399 152.89 91.1899 153.23H90.9299L90.4099 153.28ZM91.1099 87.8098V152.22C93.3599 151.87 95.3998 150.02 96.7898 147.03L104.79 129.79L131.79 71.3098L131.84 71.21C132.479 69.9152 132.972 68.5535 133.31 67.1499L91.1099 87.8098Z" fill="#231F20"/>
</svg>
