<svg width="300" height="246" viewBox="0 0 300 246" fill="none" xmlns="http://www.w3.org/2000/svg">
<path d="M288 0H12C8.8174 0 5.76509 1.26428 3.51465 3.51472C1.26421 5.76515 0 8.8174 0 12V234C0 237.183 1.26421 240.235 3.51465 242.485C5.76509 244.736 8.8174 246 12 246H288C291.183 246 294.235 244.736 296.485 242.485C298.736 240.235 300 237.183 300 234V12C300 8.8174 298.736 5.76515 296.485 3.51472C294.235 1.26428 291.183 0 288 0ZM90.6899 104C87.3277 104 84.0409 103.003 81.2452 101.135C78.4496 99.267 76.2707 96.612 74.984 93.5056C73.6973 90.3993 73.3606 86.9811 74.0166 83.6835C74.6726 80.3858 76.2916 77.3567 78.6691 74.9792C81.0466 72.6017 84.0757 70.9826 87.3734 70.3267C90.6711 69.6707 94.0892 70.0074 97.1956 71.294C100.302 72.5807 102.957 74.7597 104.825 77.5553C106.693 80.3509 107.69 83.6377 107.69 87C107.687 91.507 105.895 95.8284 102.707 99.0144C99.5194 102.2 95.1969 103.99 90.6899 103.99V104Z" fill="#61707E"/>
<path d="M90.6999 103.99C100.078 103.99 107.68 96.3878 107.68 87.01C107.68 77.6322 100.078 70.03 90.6999 70.03C81.3221 70.03 73.7199 77.6322 73.7199 87.01C73.7199 96.3878 81.3221 103.99 90.6999 103.99Z" fill="#61707E"/>
<path d="M90.69 104.49C87.2328 104.49 83.8531 103.465 80.9786 101.544C78.104 99.6234 75.8636 96.8934 74.5406 93.6993C73.2176 90.5052 72.8714 86.9906 73.5458 83.5998C74.2203 80.209 75.8852 77.0944 78.3298 74.6498C80.7744 72.2052 83.8891 70.5403 87.2798 69.8659C90.6706 69.1914 94.1853 69.5376 97.3793 70.8606C100.573 72.1836 103.303 74.4241 105.224 77.2986C107.145 80.1732 108.17 83.5528 108.17 87.01C108.165 91.6444 106.321 96.0874 103.044 99.3644C99.7674 102.641 95.3244 104.485 90.69 104.49ZM90.69 70.49C87.4306 70.49 84.2444 71.4565 81.5342 73.2674C78.8241 75.0782 76.7117 77.652 75.4644 80.6634C74.2171 83.6747 73.8908 86.9883 74.5267 90.1851C75.1626 93.3819 76.7322 96.3183 79.0369 98.6231C81.3417 100.928 84.2781 102.497 87.4749 103.133C90.6717 103.769 93.9853 103.443 96.9966 102.196C100.008 100.948 102.582 98.8359 104.393 96.1258C106.203 93.4157 107.17 90.2294 107.17 86.97C107.157 82.607 105.415 78.427 102.326 75.3456C99.2372 72.2643 95.053 70.5326 90.69 70.53V70.49Z" fill="black"/>
<path d="M166.27 12.31H15C14.2494 12.31 13.5295 12.6082 12.9988 13.1389C12.4681 13.6696 12.1699 14.3894 12.1699 15.14V159.8C12.1699 160.551 12.4677 161.272 12.9982 161.805C13.5286 162.337 14.2485 162.637 15 162.64H166.27C167.023 162.64 167.745 162.341 168.278 161.808C168.811 161.276 169.11 160.553 169.11 159.8V15.14C169.107 14.3885 168.807 13.6687 168.275 13.1383C167.742 12.6078 167.021 12.31 166.27 12.31ZM90.6899 103.99C87.3277 103.99 84.0409 102.993 81.2452 101.125C78.4496 99.257 76.2707 96.602 74.984 93.4956C73.6973 90.3893 73.3606 86.9711 74.0166 83.6735C74.6726 80.3758 76.2916 77.3467 78.6691 74.9692C81.0466 72.5917 84.0757 70.9726 87.3734 70.3167C90.6711 69.6607 94.0892 69.9974 97.1956 71.284C100.302 72.5707 102.957 74.7497 104.825 77.5453C106.693 80.3409 107.69 83.6277 107.69 86.99C107.69 91.4987 105.899 95.8227 102.711 99.0108C99.5227 102.199 95.1986 103.99 90.6899 103.99Z" fill="#D3E2E2"/>
<path d="M90.6999 103.99C100.078 103.99 107.68 96.3878 107.68 87.01C107.68 77.6322 100.078 70.03 90.6999 70.03C81.3221 70.03 73.7199 77.6322 73.7199 87.01C73.7199 96.3878 81.3221 103.99 90.6999 103.99Z" fill="#D3E2E2"/>
<path d="M90.69 104.49C87.2328 104.49 83.8531 103.465 80.9786 101.544C78.104 99.6234 75.8636 96.8934 74.5406 93.6993C73.2176 90.5052 72.8714 86.9906 73.5458 83.5998C74.2203 80.209 75.8852 77.0944 78.3298 74.6498C80.7744 72.2052 83.8891 70.5403 87.2798 69.8659C90.6706 69.1914 94.1853 69.5376 97.3793 70.8606C100.573 72.1836 103.303 74.4241 105.224 77.2986C107.145 80.1732 108.17 83.5528 108.17 87.01C108.165 91.6444 106.321 96.0874 103.044 99.3644C99.7674 102.641 95.3244 104.485 90.69 104.49ZM90.69 70.49C87.4306 70.49 84.2444 71.4565 81.5342 73.2674C78.8241 75.0782 76.7117 77.652 75.4644 80.6634C74.2171 83.6747 73.8908 86.9883 74.5267 90.1851C75.1626 93.3819 76.7322 96.3183 79.0369 98.6231C81.3417 100.928 84.2781 102.497 87.4749 103.133C90.6717 103.769 93.9853 103.443 96.9966 102.196C100.008 100.948 102.582 98.8359 104.393 96.1258C106.203 93.4157 107.17 90.2294 107.17 86.97C107.157 82.607 105.415 78.427 102.326 75.3456C99.2372 72.2643 95.053 70.5326 90.69 70.53V70.49Z" fill="black"/>
<path d="M181.01 12.31H285.01C285.761 12.31 286.482 12.6078 287.015 13.1383C287.547 13.6687 287.847 14.3885 287.85 15.14V162.64H181.01V12.31Z" fill="#F68C1F"/>
<path d="M204.8 38.11L216.58 22.11H227.84L216.06 38.6H252.44C253.44 38.95 254.01 38.25 254.01 36.51V29.21H263.17V39.7C263.69 45.1067 261.42 47.4633 256.36 46.77H204.8V38.11ZM205.07 82.11V50.7H262.91V74C263.25 79.9333 260.283 82.6367 254.01 82.11H205.07ZM253.75 58.82H214.49V74.23H251.44C253.01 74.4 253.79 73.53 253.79 71.61V58.79L253.75 58.82Z" fill="white"/>
<path d="M255.44 82.64C254.97 82.64 254.44 82.64 253.96 82.58H204.55V50.17H263.44V73.97C263.61 76.97 262.94 79.22 261.44 80.68C260.08 81.98 258.08 82.64 255.44 82.64ZM205.55 81.58H254C257.11 81.84 259.35 81.29 260.71 79.96C262.07 78.63 262.56 76.71 262.4 73.96V51.17H205.55V81.58ZM213.98 74.75V58.29H254.23V71.61C254.276 72.0786 254.222 72.5517 254.072 72.998C253.922 73.4444 253.679 73.854 253.36 74.2C252.916 74.5733 252.35 74.7692 251.77 74.75H213.98ZM214.98 73.75H251.44C251.666 73.8008 251.899 73.802 252.126 73.7537C252.352 73.7054 252.565 73.6086 252.75 73.47C252.96 73.216 253.116 72.9218 253.209 72.6055C253.302 72.2892 253.329 71.9573 253.29 71.63V59.29H215.04L214.98 73.75ZM257.98 47.38C257.415 47.3774 256.85 47.3373 256.29 47.26H204.29V37.96L216.29 21.65H228.77L216.99 38.14H252.56C252.642 38.1806 252.733 38.2017 252.825 38.2017C252.917 38.2017 253.008 38.1806 253.09 38.14C253.2 38.06 253.47 37.74 253.47 36.52V28.7H263.63V39.7C263.91 42.59 263.38 44.7 262.06 45.99C260.93 46.9604 259.466 47.4519 257.98 47.36V47.38ZM205.3 46.27H256.36C258.71 46.59 260.36 46.27 261.36 45.27C262.36 44.27 262.88 42.36 262.63 39.75V29.7H254.47V36.53C254.47 37.78 254.21 38.58 253.67 38.96C253.475 39.095 253.25 39.1801 253.015 39.208C252.78 39.2359 252.541 39.2057 252.32 39.12H215.05L226.82 22.63H216.82L205.29 38.26L205.3 46.27Z" fill="black"/>
<path d="M287.83 175.01V230.86C287.827 231.611 287.527 232.331 286.995 232.862C286.462 233.392 285.741 233.69 284.99 233.69H104.36V175.01H287.83Z" fill="#F68C1F"/>
<path d="M92.9299 233.7H15C14.2494 233.7 13.5295 233.402 12.9988 232.871C12.4681 232.34 12.1699 231.621 12.1699 230.87V175.01H92.9299V233.7Z" fill="#F68C1F"/>
<path d="M206.64 144.29V93.78H262.91V144.78C262.73 145.78 263.34 146.52 264.74 146.87V153.41H256.89C256.178 153.443 255.472 153.262 254.864 152.889C254.256 152.516 253.774 151.97 253.48 151.32H243.28C241.18 151.32 239.88 150.53 239.35 148.96L234.64 140.59L230.45 147.92C230.072 148.936 229.388 149.808 228.492 150.418C227.596 151.027 226.533 151.342 225.45 151.32H216.03C215.838 152.04 215.378 152.658 214.743 153.047C214.108 153.436 213.348 153.566 212.62 153.41H204.51V146.09C206.11 146.3 206.81 145.7 206.64 144.29ZM252.7 144.03V101.89H216.58V144.03H220.51C221.73 144.21 222.43 143.86 222.6 142.98L229.41 130.98L216.84 106.61H227.31L234.9 121.26L242.49 106.61H252.18L239.88 130.7L246.16 142.22C246.68 143.62 247.47 144.22 248.51 144.05L252.7 144.03Z" fill="white"/>
<path d="M213.15 153.98C212.97 153.99 212.79 153.99 212.61 153.98H204.04V145.6L204.6 145.66C204.828 145.716 205.065 145.724 205.296 145.683C205.526 145.641 205.746 145.552 205.94 145.42C206.044 145.278 206.116 145.115 206.15 144.942C206.185 144.769 206.181 144.591 206.14 144.42V93.28H263.44V144.82C263.37 145.23 263.24 146.01 264.89 146.43L265.27 146.52V153.95H256.92C256.167 153.986 255.42 153.809 254.764 153.44C254.107 153.07 253.569 152.522 253.21 151.86H243.31C240.98 151.86 239.5 150.95 238.91 149.16L234.67 141.64L230.92 148.21C230.504 149.302 229.761 150.238 228.793 150.891C227.824 151.545 226.678 151.883 225.51 151.86H216.44C216.192 152.52 215.738 153.083 215.146 153.464C214.553 153.846 213.853 154.027 213.15 153.98ZM205.04 152.98H212.65C213.27 153.135 213.927 153.037 214.476 152.709C215.025 152.382 215.422 151.85 215.58 151.23L215.69 150.89H225.44C226.424 150.909 227.389 150.619 228.2 150.061C229.01 149.503 229.626 148.706 229.96 147.78L234.6 139.65L239.75 148.79C240.24 150.23 241.37 150.89 243.24 150.89H253.75L253.89 151.17C254.143 151.743 254.567 152.225 255.104 152.549C255.641 152.873 256.264 153.023 256.89 152.98H264.24V147.32C262.39 146.71 262.24 145.47 262.41 144.76V94.28H207.14V144.28C207.222 144.584 207.227 144.904 207.156 145.21C207.085 145.517 206.938 145.801 206.731 146.038C206.523 146.275 206.26 146.456 205.965 146.566C205.67 146.677 205.352 146.712 205.04 146.67V152.98ZM221.04 144.6C220.83 144.619 220.619 144.619 220.41 144.6H216.05V106.22L215.99 106.11H216.05V101.39H253.17V144.53H248.48C247.67 144.68 246.48 144.43 245.66 142.38L239.31 130.7L251.36 107.12H242.8L234.9 122.36L227.01 107.12H217.66L229.98 130.97L223.07 143.17C222.969 143.61 222.709 143.996 222.339 144.255C221.97 144.514 221.518 144.626 221.07 144.57L221.04 144.6ZM217.04 143.6H220.47C221.9 143.8 222.02 143.23 222.07 142.96L222.13 142.81L228.8 131L217.04 108.22V143.6ZM240.44 130.7L246.6 141.98C247.2 143.58 247.93 143.64 248.43 143.56H252.2V107.7L240.44 130.7ZM217.08 106.13H227.62L234.9 120.19L242.19 106.13H252.19V102.39H217.07L217.08 106.13Z" fill="black"/>
<path d="M31.62 188.3H39.1499V183.89H45.21V188.3H46.6799V193.44H45.21V195.09H46.3099V200.42H45.21V225.42H38.97V200.42H38.23L37.5 220.06C37.5 222.507 36.3366 223.73 34.0099 223.73H31.4399V219.33C31.9299 219.45 32.1799 219.21 32.1799 218.59L32.9099 195.09H38.97V193.62H31.6299V188.3H31.62ZM47.4399 208.7H73.33V215.49C73.45 218.18 72.3299 219.41 70.0299 219.16L69.6599 221.16H73.33V224.84H46.5299V221.16H50.3799L49.83 219.16H47.4399V208.7ZM47.2599 207.23V202.8H73.33V207.21L47.2599 207.23ZM54.0499 188.87H47.8099V184.28H60.2999L59.5599 195.48C59.5599 200.147 57.4199 202.227 53.1399 201.72H47.99V197.13H52.22C52.83 197.25 53.2199 196.89 53.3199 196.03L53.5 195.48H50.5699C48.7299 195.353 47.8099 194.19 47.8099 191.99V190.34H51.6699C51.5399 190.95 51.7899 191.19 52.3999 191.07H53.87L54.0499 188.87ZM53.3199 213.29V214.7H66.3199C66.8099 214.82 67.0599 214.58 67.0599 213.96V213.23L53.3199 213.29ZM63.6 219.16H56.6V221.16H63.6V219.16ZM61.7599 197.16L60.85 184.31H73.33V189.45H67.6399L68.0099 191.29H68.9199C69.5399 191.41 69.84 191.17 69.84 190.55H73.4399L73.2599 192.76C73.1399 194.84 72.2232 195.693 70.5099 195.32H68.12L68.2999 196.06C68.1799 196.92 68.61 197.28 69.59 197.16H73.08V201.57H66.47C63.44 201.76 61.85 200.29 61.73 197.11L61.7599 197.16Z" fill="white"/>
<path d="M45.71 225.88H38.4399V207.54L37.97 220.08C37.97 222.79 36.59 224.23 33.97 224.23H30.8999V218.7L31.5199 218.85H31.62C31.6261 218.76 31.6261 218.67 31.62 218.58L32.37 194.58H38.37V194.11H31.0299V187.8H38.5599V183.39H45.62V187.8H47.09V193.94H45.62V194.59H46.72V200.92H45.62L45.71 225.88ZM39.47 224.88H44.71V199.88H45.8099V195.55H44.71V192.9H46.1799V188.8H44.71V184.39H39.6499V188.8H32.12V193.12H39.4399V195.59H33.4399L32.72 218.59C32.7382 218.786 32.7096 218.983 32.6366 219.166C32.5636 219.348 32.4482 219.511 32.2999 219.64C32.208 219.719 32.0981 219.774 31.98 219.8V223.21H34.0499C36.0499 223.21 37.0499 222.21 37.0499 220.04L37.7999 199.9H39.4399L39.47 224.88ZM73.7999 225.34H46V220.7H49.7L49.4199 219.7H46.9099V208.18H73.7999V215.47C73.8915 216.08 73.8495 216.703 73.6769 217.295C73.5042 217.887 73.205 218.435 72.7999 218.9C72.4762 219.18 72.0998 219.392 71.6927 219.524C71.2857 219.657 70.8564 219.706 70.4299 219.67L70.25 220.67H73.8199L73.7999 225.34ZM47 224.34H72.7999V221.7H69.0299L69.59 218.64H70.0499C70.4061 218.711 70.7733 218.704 71.1268 218.621C71.4804 218.539 71.8121 218.381 72.1 218.16C72.3982 217.787 72.6146 217.356 72.7352 216.895C72.8558 216.433 72.8779 215.951 72.7999 215.48V209.17H47.9099V218.63H50.1799L51 221.63H47V224.34ZM64.0699 221.66H56.0699V218.66H64.0699V221.66ZM57.0699 220.66H63.0699V219.66H57.0699V220.66ZM52.7699 215.27V212.8H67.5399V214.03C67.5598 214.229 67.5321 214.43 67.4591 214.616C67.3861 214.802 67.2699 214.968 67.12 215.1C66.9541 215.218 66.7535 215.278 66.5499 215.27H52.7699ZM53.7699 214.27H66.5399C66.5399 214.27 66.5399 214.16 66.5399 214V213.77H53.7699V214.27ZM73.7699 207.74H46.7V202.3H73.7699V207.74ZM47.7 206.74H72.7699V203.3H47.7V206.74ZM54.23 202.3C53.85 202.3 53.4399 202.3 53.0199 202.23H47.4399V196.64H52.1699C52.4399 196.64 52.4999 196.64 52.5199 196.64C52.5399 196.64 52.6999 196.46 52.7699 196H50.5199C49.0099 195.9 47.2599 195.13 47.2599 192V189.85H52.2599L52.1399 190.45C52.1318 190.503 52.1318 190.557 52.1399 190.61H53.4099L53.5099 189.41H47.3099V183.82H73.83V189.96H68.25L68.4199 190.8H68.9199C69.2299 190.85 69.2999 190.8 69.2999 190.8C69.2999 190.8 69.2999 190.75 69.2999 190.55V190.05H74.0199L73.7899 192.8C73.8069 193.296 73.7176 193.79 73.5278 194.249C73.3381 194.708 73.0524 195.121 72.6899 195.46C72.3714 195.68 72.0077 195.827 71.6255 195.889C71.2432 195.951 70.852 195.928 70.48 195.82H68.7899L68.84 196.03V196.13C68.84 196.35 68.84 196.52 68.84 196.59C68.84 196.66 69.1199 196.71 69.5199 196.66H73.5199V202.07H66.4099C65.7449 202.172 65.0662 202.135 64.4159 201.963C63.7656 201.791 63.1576 201.487 62.6299 201.07C62.13 200.561 61.7392 199.955 61.4813 199.29C61.2234 198.624 61.1038 197.913 61.1299 197.2L60.45 187.62L59.9299 195.55C59.9299 198.07 59.2899 199.93 58.0299 201.05C56.9644 201.903 55.6234 202.337 54.2599 202.27L54.23 202.3ZM48.4299 201.23H53.08C53.8326 201.389 54.6103 201.386 55.3618 201.223C56.1134 201.059 56.8217 200.738 57.4399 200.28C58.4399 199.35 59 197.74 59 195.49L59.7 184.79H48.25V188.38H54.5399L54.2699 191.58H52.34C52.1672 191.634 51.9829 191.641 51.8068 191.598C51.6306 191.556 51.4693 191.467 51.34 191.34C51.2125 191.203 51.1259 191.033 51.09 190.85H48.25V192C48.25 194.54 49.5599 194.92 50.5399 195H54.1399L53.73 196.21C53.7148 196.452 53.6491 196.688 53.5371 196.904C53.4252 197.119 53.2695 197.308 53.08 197.46C52.9339 197.556 52.7701 197.621 52.5983 197.652C52.4265 197.683 52.2502 197.679 52.08 197.64H48.4399L48.4299 201.23ZM61.3199 184.79L62.2 197.12C62.1721 197.701 62.2604 198.281 62.4596 198.827C62.6588 199.373 62.9649 199.874 63.36 200.3C63.7968 200.625 64.2946 200.859 64.8237 200.988C65.3529 201.117 65.9025 201.138 66.4399 201.05H72.59V197.64H69.59C69.3346 197.695 69.0697 197.691 68.8164 197.627C68.5631 197.562 68.3281 197.44 68.1299 197.27C67.9874 197.108 67.8836 196.916 67.8264 196.708C67.7692 196.5 67.7602 196.282 67.7999 196.07L67.48 194.8H70.61C70.8485 194.874 71.0999 194.898 71.348 194.868C71.5961 194.839 71.8353 194.758 72.0499 194.63C72.2941 194.372 72.483 194.067 72.6051 193.733C72.7272 193.4 72.7798 193.045 72.7599 192.69L72.8999 191.01H70.2C70.1466 191.219 70.0274 191.405 69.86 191.54C69.7034 191.654 69.5232 191.731 69.3328 191.765C69.1423 191.8 68.9465 191.791 68.7599 191.74H67.5299L66.96 188.9H72.7599V184.76L61.3199 184.79Z" fill="black"/>
<path d="M128 189.47H144.94V196.89H139.26V219.53H133.68V196.89H128V189.47Z" fill="white"/>
<path d="M139.76 220.03H133.18V197.39H127.5V188.97H145.44V197.39H139.76V220.03ZM134.18 219.03H138.76V196.39H144.44V189.97H128.5V196.39H134.18V219.03Z" fill="black"/>
<path d="M145.65 189.47H151.84L155.47 199.61L159.12 189.47H165.27L158.27 206.94V219.53H152.68V206.94L145.65 189.47Z" fill="white"/>
<path d="M158.76 220.03H152.17V207.03L144.9 188.96H152.19L155.47 198.12L158.76 188.96H166.01L158.76 207.03V220.03ZM153.17 219.03H157.76V206.75L164.5 189.97H159.44L155.44 201.09L151.44 189.97H146.44L153.22 206.97L153.17 219.03Z" fill="black"/>
<path d="M167.04 189.47H176.31C177.21 189.423 178.107 189.62 178.904 190.041C179.702 190.462 180.371 191.09 180.84 191.86C181.966 193.953 182.489 196.317 182.35 198.69C182.485 201.17 181.916 203.638 180.71 205.81C180.18 206.643 179.437 207.319 178.558 207.769C177.679 208.219 176.696 208.427 175.71 208.37H172.71V219.53H167.11V189.47H167.04ZM172.64 202.28H174.01C174.434 202.326 174.863 202.265 175.258 202.102C175.653 201.94 176.001 201.681 176.27 201.35C176.734 200.642 176.962 199.805 176.92 198.96C176.948 198.125 176.755 197.297 176.36 196.56C176.133 196.212 175.813 195.934 175.437 195.758C175.061 195.581 174.643 195.513 174.23 195.56H172.64V202.28Z" fill="white"/>
<path d="M173.14 220.03H166.54V188.97H176.31C177.303 188.914 178.294 189.129 179.174 189.592C180.055 190.056 180.793 190.75 181.31 191.6C182.479 193.773 183.026 196.226 182.89 198.69C183.024 201.266 182.428 203.828 181.17 206.08C180.593 206.986 179.784 207.722 178.828 208.213C177.872 208.703 176.803 208.93 175.73 208.87H173.18L173.14 220.03ZM167.54 219.03H172.14V207.87H175.69C176.596 207.936 177.503 207.754 178.313 207.344C179.124 206.933 179.807 206.31 180.29 205.54C181.439 203.447 181.98 201.074 181.85 198.69C181.983 196.414 181.488 194.144 180.42 192.13C179.997 191.43 179.39 190.858 178.666 190.478C177.941 190.097 177.127 189.921 176.31 189.97H167.54V219.03ZM174.01 202.78H172.14V195.08H174.23C174.729 195.027 175.233 195.114 175.685 195.331C176.137 195.548 176.52 195.887 176.79 196.31C177.229 197.123 177.447 198.037 177.42 198.96C177.454 199.908 177.195 200.844 176.68 201.64C176.368 202.04 175.959 202.355 175.492 202.554C175.025 202.754 174.515 202.831 174.01 202.78ZM173.14 201.78H174.01C174.354 201.825 174.704 201.782 175.027 201.656C175.35 201.53 175.637 201.325 175.86 201.06C176.257 200.434 176.453 199.701 176.42 198.96C176.449 198.211 176.277 197.469 175.92 196.81C175.733 196.544 175.476 196.335 175.178 196.206C174.88 196.078 174.552 196.034 174.23 196.08H173.14V201.78Z" fill="black"/>
<path d="M185.29 189.47H190.87V199.99H196.96V189.47H202.56V219.53H196.96V207.37H190.87V219.53H185.29V189.47Z" fill="white"/>
<path d="M203.06 220.03H196.44V207.87H191.34V220.03H184.77V188.97H191.34V199.49H196.44V188.97H203.04L203.06 220.03ZM197.46 219.03H202.06V189.97H197.44V200.49H190.34V189.97H185.77V219.03H190.34V206.87H197.44L197.46 219.03Z" fill="black"/>
<path d="M205.56 204.52C205.56 199.607 206.38 195.783 208.02 193.05C208.695 191.815 209.689 190.783 210.898 190.062C212.107 189.341 213.487 188.957 214.894 188.95C216.302 188.943 217.686 189.313 218.902 190.021C220.118 190.73 221.122 191.752 221.81 192.98C223.443 195.647 224.257 199.41 224.25 204.27C224.324 207.19 223.967 210.104 223.19 212.92C222.632 214.906 221.571 216.714 220.11 218.17C218.752 219.423 216.957 220.094 215.11 220.04C213.289 220.108 211.502 219.535 210.06 218.42C208.532 217.037 207.412 215.263 206.82 213.29C205.91 210.458 205.484 207.493 205.56 204.52ZM211.13 204.52C211.13 207.547 211.463 209.727 212.13 211.06C212.341 211.629 212.716 212.122 213.207 212.478C213.698 212.834 214.284 213.037 214.89 213.06C215.496 213.054 216.086 212.864 216.582 212.516C217.079 212.168 217.458 211.678 217.67 211.11C218.33 209.81 218.67 207.48 218.67 204.11C218.807 201.994 218.465 199.875 217.67 197.91C217.453 197.34 217.072 196.846 216.576 196.49C216.08 196.135 215.49 195.933 214.88 195.91C214.282 195.943 213.708 196.15 213.226 196.505C212.745 196.861 212.378 197.349 212.17 197.91C211.44 199.3 211.13 201.5 211.13 204.56V204.52Z" fill="white"/>
<path d="M215.09 220.54C213.156 220.608 211.259 219.996 209.73 218.81C208.13 217.37 206.954 215.52 206.33 213.46C205.413 210.571 204.984 207.55 205.06 204.52C205.06 199.52 205.91 195.6 207.59 192.8C208.309 191.49 209.365 190.396 210.648 189.631C211.932 188.866 213.397 188.459 214.891 188.45C216.386 188.442 217.855 188.834 219.147 189.584C220.439 190.335 221.507 191.418 222.24 192.72C223.9 195.48 224.75 199.36 224.75 204.27C224.825 207.241 224.457 210.207 223.66 213.07C223.082 215.138 221.976 217.019 220.45 218.53C218.996 219.877 217.071 220.598 215.09 220.54ZM214.87 189.45C213.546 189.431 212.244 189.782 211.109 190.464C209.975 191.146 209.054 192.132 208.45 193.31C206.86 195.95 206.06 199.73 206.06 204.52C205.984 207.437 206.393 210.347 207.27 213.13C207.834 215.014 208.903 216.709 210.36 218.03C211.712 219.07 213.385 219.604 215.09 219.54C216.818 219.6 218.5 218.974 219.77 217.8C221.163 216.414 222.176 214.692 222.71 212.8C223.462 210.035 223.799 207.174 223.71 204.31C223.71 199.59 222.91 195.88 221.34 193.31C220.728 192.128 219.798 191.141 218.655 190.459C217.511 189.777 216.201 189.427 214.87 189.45ZM214.87 213.59C214.172 213.569 213.496 213.344 212.925 212.942C212.355 212.541 211.914 211.98 211.66 211.33C210.94 209.92 210.59 207.7 210.59 204.56C210.59 201.42 210.94 199.16 211.67 197.75C211.916 197.106 212.346 196.549 212.906 196.147C213.466 195.746 214.131 195.517 214.82 195.49C215.516 195.506 216.192 195.724 216.766 196.119C217.339 196.513 217.786 197.066 218.05 197.71C218.78 199.11 219.13 201.21 219.13 204.15C219.13 207.62 218.79 209.98 218.13 211.37C217.872 212.016 217.428 212.572 216.855 212.967C216.283 213.362 215.606 213.579 214.91 213.59H214.87ZM214.87 196.49C214.367 196.522 213.885 196.701 213.483 197.005C213.081 197.309 212.778 197.725 212.61 198.2C211.97 199.45 211.61 201.59 211.61 204.56C211.61 207.53 211.93 209.63 212.61 210.87C212.783 211.354 213.096 211.776 213.509 212.082C213.922 212.388 214.417 212.565 214.93 212.59C215.441 212.576 215.935 212.409 216.351 212.112C216.766 211.814 217.082 211.399 217.26 210.92C217.88 209.69 218.19 207.42 218.19 204.15C218.314 202.1 217.972 200.049 217.19 198.15C217.005 197.676 216.686 197.267 216.273 196.972C215.859 196.677 215.368 196.51 214.86 196.49H214.87Z" fill="black"/>
<path d="M226.55 204.52C226.55 199.607 227.37 195.783 229.01 193.05C229.685 191.815 230.679 190.783 231.888 190.062C233.097 189.341 234.477 188.957 235.884 188.95C237.292 188.943 238.676 189.313 239.892 190.021C241.108 190.73 242.112 191.752 242.8 192.98C244.433 195.647 245.247 199.41 245.24 204.27C245.319 207.19 244.962 210.105 244.18 212.92C243.622 214.906 242.561 216.714 241.1 218.17C239.742 219.424 237.947 220.095 236.1 220.04C234.279 220.111 232.49 219.537 231.05 218.42C229.516 217.041 228.392 215.266 227.8 213.29C226.894 210.458 226.471 207.493 226.55 204.52ZM232.12 204.52C232.12 207.547 232.453 209.727 233.12 211.06C233.332 211.628 233.707 212.121 234.198 212.477C234.689 212.832 235.274 213.035 235.88 213.06C236.486 213.054 237.076 212.864 237.572 212.516C238.069 212.168 238.448 211.678 238.66 211.11C239.327 209.777 239.66 207.443 239.66 204.11C239.798 201.994 239.456 199.875 238.66 197.91C238.444 197.339 238.063 196.844 237.567 196.489C237.071 196.133 236.48 195.931 235.87 195.91C235.272 195.936 234.695 196.14 234.214 196.497C233.732 196.853 233.369 197.345 233.17 197.91C232.44 199.3 232.12 201.5 232.12 204.56V204.52Z" fill="white"/>
<path d="M236.09 220.54C234.153 220.61 232.252 219.998 230.72 218.81C229.119 217.37 227.944 215.52 227.32 213.46C226.403 210.571 225.974 207.55 226.05 204.52C226.05 199.52 226.9 195.6 228.58 192.8C229.299 191.49 230.355 190.396 231.638 189.631C232.922 188.866 234.387 188.459 235.881 188.45C237.376 188.442 238.845 188.834 240.137 189.584C241.429 190.335 242.497 191.418 243.23 192.72C244.9 195.48 245.74 199.36 245.74 204.27C245.815 207.241 245.447 210.207 244.65 213.07C244.072 215.138 242.966 217.019 241.44 218.53C239.989 219.875 238.068 220.597 236.09 220.54ZM235.86 189.45C234.536 189.431 233.234 189.782 232.099 190.464C230.965 191.146 230.044 192.132 229.44 193.31C227.85 195.95 227.05 199.72 227.05 204.52C226.974 207.437 227.383 210.347 228.26 213.13C228.828 215.013 229.896 216.706 231.35 218.03C232.705 219.071 234.382 219.605 236.09 219.54C237.815 219.598 239.493 218.973 240.76 217.8C242.151 216.412 243.163 214.69 243.7 212.8C244.452 210.035 244.789 207.174 244.7 204.31C244.7 199.59 243.9 195.88 242.34 193.31C241.724 192.129 240.792 191.142 239.648 190.461C238.503 189.779 237.192 189.429 235.86 189.45ZM235.86 213.59C235.162 213.569 234.486 213.344 233.915 212.942C233.345 212.541 232.904 211.98 232.65 211.33C231.93 209.92 231.58 207.7 231.58 204.56C231.58 201.42 231.94 199.16 232.66 197.75C232.906 197.106 233.336 196.549 233.896 196.147C234.456 195.746 235.121 195.517 235.81 195.49C236.506 195.506 237.182 195.724 237.756 196.119C238.329 196.513 238.776 197.066 239.04 197.71C239.892 199.745 240.265 201.948 240.13 204.15C240.13 207.62 239.79 209.99 239.13 211.37C238.871 212.018 238.426 212.574 237.851 212.969C237.276 213.365 236.597 213.581 235.9 213.59H235.86ZM235.86 196.49C235.357 196.522 234.875 196.701 234.473 197.005C234.071 197.309 233.768 197.725 233.6 198.2C232.96 199.45 232.6 201.59 232.6 204.56C232.6 207.53 232.93 209.62 233.6 210.87C233.755 211.364 234.062 211.796 234.477 212.105C234.892 212.413 235.394 212.582 235.912 212.588C236.429 212.594 236.935 212.435 237.357 212.135C237.779 211.836 238.095 211.41 238.26 210.92C238.87 209.7 239.19 207.42 239.19 204.15C239.309 202.1 238.967 200.05 238.19 198.15C238.003 197.676 237.682 197.268 237.266 196.973C236.851 196.678 236.359 196.51 235.85 196.49H235.86Z" fill="black"/>
<path d="M248.28 189.47H253.48L260.27 206.1V189.47H265.53V219.53H260.27L253.52 203.02V219.53H248.28V189.47Z" fill="white"/>
<path d="M266.03 220.03H259.94L254.02 205.56V220.03H247.78V188.97H253.78L259.73 203.55V188.97H265.99L266.03 220.03ZM260.61 219.03H265.03V189.97H260.77V208.7L253.15 190.02H248.78V219.08H253.02V200.48L260.61 219.03Z" fill="black"/>
<path d="M162.24 87.47C162.24 54.96 137.55 28.72 104.36 28.72C64.6199 28.72 41.11 59.63 41.11 87.01C41.1068 95.8335 43.4593 104.498 47.9245 112.108C52.3898 119.718 58.8058 125.999 66.5099 130.3C37.9799 128.86 18.6699 108.51 19.7899 86.3C18.1499 118.77 41.4999 146.22 74.6399 147.88C114.33 149.88 139.36 120.2 140.74 92.88C141.224 83.2445 138.888 73.677 134.018 65.3488C129.147 57.0206 121.955 50.2931 113.32 45.99C141.88 45.92 162.24 65.2 162.24 87.47ZM90.6899 103.99C87.3277 103.99 84.0409 102.993 81.2452 101.125C78.4496 99.257 76.2707 96.602 74.984 93.4956C73.6973 90.3893 73.3606 86.9711 74.0166 83.6735C74.6726 80.3758 76.2916 77.3467 78.6691 74.9692C81.0466 72.5917 84.0757 70.9726 87.3734 70.3167C90.6711 69.6607 94.0892 69.9974 97.1956 71.284C100.302 72.5707 102.957 74.7497 104.825 77.5453C106.693 80.3409 107.69 83.6277 107.69 86.99C107.69 89.2225 107.25 91.4331 106.396 93.4956C105.542 95.5582 104.289 97.4322 102.711 99.0108C101.132 100.589 99.2581 101.842 97.1955 102.696C95.133 103.55 92.9224 103.99 90.6899 103.99Z" fill="#F68C1F"/>
<path d="M78.37 148.44C77.13 148.44 75.88 148.44 74.61 148.34C41.93 146.7 17.6099 119.43 19.2899 86.26H20.2899C19.1599 108.7 38.4399 127.44 64.4399 129.7C57.1664 125.207 51.1606 118.932 46.9921 111.468C42.8235 104.004 40.6302 95.5991 40.62 87.05C40.62 58.78 64.99 28.26 104.37 28.26C137.1 28.26 162.75 54.26 162.75 87.51H161.75C161.75 65.09 141.57 47.4 115.43 46.51C123.643 51.0461 130.417 57.7978 134.98 65.996C139.544 74.1943 141.713 83.5093 141.24 92.88C139.86 120.16 115.58 148.44 78.37 148.44ZM21.0799 99.8C23.203 112.67 29.6868 124.419 39.444 133.077C49.2011 141.734 61.6383 146.774 74.6699 147.35C113.36 149.35 138.84 120.54 140.24 92.78C140.718 83.2433 138.405 73.774 133.585 65.5313C128.765 57.2885 121.646 50.6298 113.1 46.37L111.2 45.37H113.32C135.51 45.37 153.85 57.22 160.32 74.05C157.569 61.2858 150.509 49.8573 140.326 41.6846C130.143 33.5118 117.457 29.0928 104.4 29.17C65.6399 29.17 41.6499 59.17 41.6499 86.96C41.6574 95.6915 43.9904 104.263 48.4088 111.794C52.8272 119.325 59.1717 125.544 66.7899 129.81L68.6499 130.81L66.5199 130.71C44.3599 129.7 26.6699 116.94 21.0799 99.8ZM90.69 104.49C87.2328 104.49 83.8531 103.465 80.9786 101.544C78.104 99.6234 75.8636 96.8934 74.5406 93.6993C73.2176 90.5052 72.8714 86.9906 73.5458 83.5998C74.2203 80.209 75.8852 77.0944 78.3298 74.6498C80.7744 72.2052 83.8891 70.5403 87.2798 69.8659C90.6706 69.1914 94.1853 69.5376 97.3793 70.8606C100.573 72.1836 103.303 74.4241 105.224 77.2986C107.145 80.1732 108.17 83.5528 108.17 87.01C108.165 91.6444 106.321 96.0874 103.044 99.3644C99.7674 102.641 95.3244 104.485 90.69 104.49ZM90.69 70.49C87.4306 70.49 84.2444 71.4565 81.5342 73.2674C78.8241 75.0782 76.7117 77.652 75.4644 80.6634C74.2171 83.6747 73.8908 86.9883 74.5267 90.1851C75.1626 93.3819 76.7322 96.3183 79.0369 98.6231C81.3417 100.928 84.2781 102.497 87.4749 103.133C90.6717 103.769 93.9853 103.443 96.9966 102.196C100.008 100.948 102.582 98.8359 104.393 96.1258C106.203 93.4157 107.17 90.2294 107.17 86.97C107.157 82.607 105.415 78.427 102.326 75.3456C99.2372 72.2643 95.053 70.5326 90.69 70.53V70.49Z" fill="black"/>
</svg>
