<svg width="300" height="246" viewBox="0 0 300 246" fill="none" xmlns="http://www.w3.org/2000/svg">
<path d="M288 0H12C8.8174 0 5.76521 1.26427 3.51477 3.51471C1.26433 5.76515 0 8.8174 0 12V234C0 237.183 1.26433 240.235 3.51477 242.485C5.76521 244.736 8.8174 246 12 246H288C291.183 246 294.235 244.736 296.485 242.485C298.736 240.235 300 237.183 300 234V12C300 8.8174 298.736 5.76515 296.485 3.51471C294.235 1.26427 291.183 0 288 0ZM90.6901 104C87.3278 104 84.041 103.003 81.2454 101.135C78.4497 99.267 76.2707 96.612 74.984 93.5056C73.6973 90.3993 73.3608 86.9811 74.0167 83.6835C74.6727 80.3858 76.2917 77.3567 78.6692 74.9792C81.0467 72.6017 84.0759 70.9826 87.3735 70.3267C90.6712 69.6707 94.0893 70.0074 97.1957 71.2941C100.302 72.5808 102.957 74.7597 104.825 77.5553C106.693 80.3509 107.69 83.6377 107.69 87C107.685 91.5052 105.891 95.8241 102.704 99.0079C99.5162 102.192 95.1953 103.98 90.6901 103.98V104Z" fill="#61707E"/>
<path d="M90.7 103.99C100.078 103.99 107.68 96.3878 107.68 87.01C107.68 77.6322 100.078 70.03 90.7 70.03C81.3222 70.03 73.72 77.6322 73.72 87.01C73.72 96.3878 81.3222 103.99 90.7 103.99Z" fill="#61707E"/>
<path d="M90.6901 104.48C87.2325 104.48 83.8525 103.455 80.9777 101.533C78.1029 99.6122 75.8625 96.8817 74.5397 93.687C73.217 90.4924 72.8714 86.9772 73.5467 83.5861C74.222 80.1951 75.8878 77.0805 78.3334 74.6362C80.7791 72.192 83.8946 70.528 87.2861 69.8547C90.6775 69.1814 94.1924 69.5289 97.3863 70.8535C100.58 72.178 103.31 74.42 105.229 77.2959C107.149 80.1718 108.172 83.5524 108.17 87.01C108.165 91.6435 106.321 96.0855 103.044 99.3609C99.7666 102.636 95.3236 104.477 90.6901 104.48ZM90.6901 70.48C87.4307 70.48 84.2444 71.4466 81.5342 73.2574C78.8241 75.0682 76.7119 77.6421 75.4645 80.6534C74.2172 83.6647 73.8909 86.9783 74.5268 90.1751C75.1627 93.3719 76.7321 96.3083 79.0369 98.6131C81.3417 100.918 84.2782 102.487 87.475 103.123C90.6718 103.759 93.9853 103.433 96.9966 102.186C100.008 100.938 102.582 98.8259 104.393 96.1158C106.203 93.4057 107.17 90.2195 107.17 86.96C107.154 82.5988 105.411 78.4213 102.323 75.3421C99.2341 72.2629 95.0514 70.5326 90.6901 70.53V70.48Z" fill="black"/>
<path d="M166.28 12.3H15C14.2485 12.3026 13.5287 12.603 12.9983 13.1353C12.4678 13.6676 12.17 14.3885 12.17 15.14V159.8C12.17 160.551 12.4682 161.27 12.9989 161.801C13.5296 162.332 14.2494 162.63 15 162.63H166.27C167.021 162.63 167.742 162.332 168.275 161.802C168.807 161.271 169.107 160.551 169.11 159.8V15.14C169.11 14.3885 168.812 13.6676 168.282 13.1353C167.751 12.603 167.032 12.3026 166.28 12.3ZM90.6901 103.98C87.3278 103.98 84.041 102.983 81.2454 101.115C78.4497 99.247 76.2707 96.5919 74.984 93.4856C73.6973 90.3792 73.3608 86.9611 74.0167 83.6635C74.6727 80.3658 76.2917 77.3367 78.6692 74.9592C81.0467 72.5817 84.0759 70.9626 87.3735 70.3066C90.6712 69.6507 94.0893 69.9874 97.1957 71.274C100.302 72.5607 102.957 74.7396 104.825 77.5353C106.693 80.3309 107.69 83.6177 107.69 86.98C107.69 89.2125 107.25 91.4231 106.396 93.4856C105.542 95.5481 104.289 97.4222 102.711 99.0008C101.132 100.579 99.2582 101.832 97.1957 102.686C95.1331 103.54 92.9225 103.98 90.6901 103.98Z" fill="#D2E1E1"/>
<path d="M90.7 103.99C100.078 103.99 107.68 96.3878 107.68 87.01C107.68 77.6322 100.078 70.03 90.7 70.03C81.3222 70.03 73.72 77.6322 73.72 87.01C73.72 96.3878 81.3222 103.99 90.7 103.99Z" fill="#D2E1E1"/>
<path d="M90.6901 104.48C87.2325 104.48 83.8525 103.455 80.9777 101.533C78.1029 99.6122 75.8625 96.8817 74.5397 93.687C73.217 90.4924 72.8714 86.9772 73.5467 83.5861C74.222 80.1951 75.8878 77.0805 78.3334 74.6362C80.7791 72.192 83.8946 70.528 87.2861 69.8547C90.6775 69.1814 94.1924 69.5289 97.3863 70.8535C100.58 72.178 103.31 74.42 105.229 77.2959C107.149 80.1718 108.172 83.5524 108.17 87.01C108.165 91.6435 106.321 96.0855 103.044 99.3609C99.7666 102.636 95.3236 104.477 90.6901 104.48ZM90.6901 70.48C87.4307 70.48 84.2444 71.4466 81.5342 73.2574C78.8241 75.0682 76.7119 77.6421 75.4645 80.6534C74.2172 83.6647 73.8909 86.9783 74.5268 90.1751C75.1627 93.3719 76.7321 96.3083 79.0369 98.6131C81.3417 100.918 84.2782 102.487 87.475 103.123C90.6718 103.759 93.9853 103.433 96.9966 102.186C100.008 100.938 102.582 98.8259 104.393 96.1158C106.203 93.4057 107.17 90.2195 107.17 86.96C107.154 82.5988 105.411 78.4213 102.323 75.3421C99.2341 72.2629 95.0514 70.5326 90.6901 70.53V70.48Z" fill="black"/>
<path d="M181.01 12.3H285.01C285.763 12.3 286.486 12.5992 287.018 13.1318C287.551 13.6644 287.85 14.3868 287.85 15.14V162.62H181.01V12.3Z" fill="#F9EC23"/>
<path d="M204.77 38.11L216.54 22.11H227.8L216.06 38.62H252.44C253.44 38.97 254.01 38.27 254.01 36.53V29.2H263.17V39.67C263.69 45.0833 261.42 47.4366 256.36 46.73H204.77V38.1V38.11ZM205.03 82.11V50.67H262.87V73.96C263.217 79.8867 260.25 82.5934 253.97 82.08L205.03 82.11ZM253.71 58.81H214.45V74.22H251.35C252.92 74.4 253.71 73.53 253.71 71.61V58.78V58.81Z" fill="white"/>
<path d="M255.45 82.62C254.98 82.62 254.45 82.62 253.97 82.55H204.57V50.17H263.41V73.96C263.58 76.96 262.92 79.22 261.41 80.68C260.08 81.98 258.08 82.62 255.45 82.62ZM205.57 81.62H254.01C257.117 81.8733 259.353 81.3333 260.72 80C262 78.75 262.57 76.75 262.41 74V51.17H205.57V81.62ZM251.77 74.79H213.99V58.28H254.25V71.62C254.293 72.0893 254.237 72.5624 254.086 73.0086C253.934 73.4548 253.69 73.8642 253.37 74.21C252.922 74.582 252.352 74.7745 251.77 74.75V74.79ZM214.99 73.79H251.39C251.615 73.8428 251.849 73.8461 252.075 73.7994C252.301 73.7528 252.514 73.6575 252.7 73.52C252.912 73.2668 253.07 72.973 253.165 72.6566C253.259 72.3403 253.288 72.008 253.25 71.68V59.28H214.99V73.79ZM257.99 47.43C257.425 47.4274 256.86 47.3873 256.3 47.31H204.3V38.01L204.4 37.88L216.33 21.62H228.77L216.99 38.11H252.56C252.643 38.1506 252.733 38.1717 252.825 38.1717C252.917 38.1717 253.008 38.1506 253.09 38.11C253.2 38.03 253.47 37.7 253.47 36.49V28.66H263.63V39.66C263.91 42.55 263.38 44.66 262.06 45.95C260.936 46.9349 259.472 47.4409 257.98 47.36L257.99 47.43ZM205.31 46.31H256.37C258.723 46.63 260.39 46.2967 261.37 45.31C262.47 44.31 262.89 42.4 262.64 39.78V29.78H254.48V36.61C254.48 37.86 254.22 38.66 253.68 39.04C253.485 39.1749 253.26 39.2601 253.025 39.288C252.79 39.3159 252.551 39.2857 252.33 39.2H215.06L226.86 22.62H216.86L205.33 38.25L205.31 46.31Z" fill="black"/>
<path d="M287.83 175.01V230.86C287.827 231.611 287.527 232.331 286.995 232.862C286.462 233.392 285.741 233.69 284.99 233.69H104.36V175.01H287.83Z" fill="#F9EC23"/>
<path d="M92.9301 233.69H15C14.2485 233.687 13.5287 233.387 12.9983 232.855C12.4678 232.322 12.17 231.601 12.17 230.85V175.01H92.9301V233.69Z" fill="#F9EC23"/>
<path d="M206.64 144.29V93.78H262.91V144.78C262.73 145.827 263.34 146.527 264.74 146.88V153.42H256.89C256.179 153.454 255.474 153.273 254.867 152.9C254.261 152.527 253.781 151.98 253.49 151.33H243.28C241.18 151.33 239.88 150.54 239.35 148.97L234.64 140.6L230.45 147.92C230.078 148.94 229.395 149.818 228.499 150.429C227.602 151.041 226.535 151.356 225.45 151.33H216.03C215.839 152.047 215.379 152.664 214.747 153.053C214.114 153.442 213.357 153.573 212.63 153.42H204.51V146.12C206.103 146.3 206.813 145.69 206.64 144.29ZM252.7 144.03V101.89H216.58V144.03H220.51C221.73 144.2 222.43 143.86 222.6 143.03L229.41 131.03L216.84 106.62H227.31L234.9 121.28L242.49 106.62H252.18L239.88 130.7L246.16 142.22C246.68 143.61 247.47 144.22 248.51 144.05L252.7 144.03Z" fill="white"/>
<path d="M213.15 153.98H204.04V145.59L204.6 145.66C204.828 145.717 205.065 145.725 205.296 145.684C205.527 145.642 205.746 145.552 205.94 145.42C206.044 145.278 206.116 145.115 206.151 144.942C206.185 144.769 206.181 144.591 206.14 144.42V93.28H263.41V144.81C263.34 145.23 263.21 146.01 264.86 146.42L265.24 146.52V153.95H256.89C256.139 153.984 255.394 153.807 254.74 153.437C254.085 153.067 253.548 152.521 253.19 151.86H243.28C240.96 151.86 239.48 150.95 238.88 149.16L234.64 141.64L230.89 148.2C230.476 149.293 229.734 150.232 228.765 150.887C227.797 151.542 226.649 151.882 225.48 151.86H216.4C216.156 152.514 215.708 153.073 215.123 153.454C214.539 153.836 213.847 154.02 213.15 153.98ZM205.04 152.98H212.66C213.279 153.132 213.933 153.033 214.48 152.705C215.026 152.378 215.422 151.847 215.58 151.23L215.7 150.89H225.48C226.465 150.908 227.431 150.617 228.242 150.057C229.053 149.497 229.668 148.697 230 147.77L234.65 139.64L239.79 148.79C240.28 150.23 241.41 150.89 243.28 150.89H253.77L253.91 151.16C254.156 151.74 254.578 152.228 255.116 152.554C255.655 152.881 256.282 153.03 256.91 152.98H264.26V147.32C262.41 146.71 262.26 145.47 262.43 144.76V94.28H207.16V144.28C207.226 144.601 207.216 144.934 207.133 145.251C207.05 145.568 206.895 145.862 206.68 146.11C206.461 146.307 206.205 146.458 205.927 146.554C205.648 146.65 205.354 146.69 205.06 146.67L205.04 152.98ZM221.04 144.6C220.829 144.602 220.618 144.585 220.41 144.55H216.05V106.22L215.99 106.1H216.05V101.39H253.17V144.53H248.48C247.67 144.68 246.48 144.43 245.66 142.37L239.28 130.69L251.28 107.1H242.77L234.87 122.35L226.98 107.1H217.63L229.95 130.95L223.04 143.16C222.953 143.605 222.702 144.001 222.338 144.272C221.973 144.542 221.521 144.666 221.07 144.62L221.04 144.6ZM217.04 143.6H220.47C221.91 143.8 222.02 143.23 222.07 142.95L222.13 142.81L228.8 131L217.04 108.22V143.6ZM240.4 130.74L246.56 142.03C247.16 143.62 247.89 143.69 248.39 143.61H252.16V107.62L240.4 130.74ZM217.04 106.17H227.58L234.86 120.24L242.15 106.17H252.15V102.46H217.03L217.04 106.17Z" fill="black"/>
<path d="M32.91 190.13V185.13H37.5V183.3H43.9301V185.13H62.47V183.13H68.71V185.13H73.85V190.13H68.71V192.33H74.04V197.48H56.59V199.68H73.3V212.53C73.9134 217.197 71.58 219.217 66.3 218.59H64.1L64.84 219.51C64.8445 219.579 64.8629 219.646 64.8938 219.708C64.9247 219.77 64.9676 219.825 65.02 219.87C65.2857 220.123 65.6 220.319 65.9438 220.446C66.2877 220.573 66.6539 220.629 67.02 220.61H74.02V225.2H63.5701C61.5701 224.95 60.33 224.46 59.72 223.73L55.49 218.59H52.01L47.01 223.36C46.3532 224.115 45.5296 224.707 44.6045 225.089C43.6794 225.471 42.6783 225.632 41.6801 225.56H33.0601V220.79H40.5801C41.0029 220.762 41.416 220.65 41.7954 220.462C42.1748 220.273 42.5129 220.011 42.79 219.69L43.7001 218.59H33.61V199.68H49.9501V197.47H32.87V192.33H37.46V190.13H32.91ZM49.77 206.62V204.62H40.04V206.62H49.77ZM49.77 211.62H40.04V213.82H49.77V211.62ZM43.9 192.34H62.26V190.14H43.9V192.34ZM56.59 206.62H67.0601V204.62H56.59V206.62ZM67.24 211.62H56.77V213.82H66.6801C67.0501 213.82 67.23 213.58 67.23 213.09L67.24 211.62Z" fill="white"/>
<path d="M42.15 226.08H32.6V220.3H40.6C40.9557 220.271 41.3023 220.173 41.6198 220.01C41.9372 219.846 42.2195 219.622 42.4501 219.35L42.66 219.1H33.13V199.18H49.46V197.97H32.39V191.83H36.98V190.62H32.39V184.62H36.98V182.79H44.41V184.62H61.9501V182.62H69.1901V184.62H74.3301V190.62H69.1901V191.82H74.52V197.97H57.0701V199.17H73.77V212.52C74.07 214.79 73.66 216.52 72.54 217.68C71.42 218.84 69.18 219.42 66.24 219.08H65.13L65.3201 219.32V219.5C66.2501 220.14 66.71 220.16 66.91 220.11H74.51V225.7H63.51C61.34 225.43 59.97 224.89 59.27 224.05L55.2001 219.05H52.2001L47.38 223.68C46.7327 224.433 45.9303 225.038 45.0276 225.452C44.1249 225.866 43.1432 226.081 42.15 226.08ZM33.6 225.08H41.77C42.7057 225.153 43.6455 225.006 44.5139 224.65C45.3823 224.294 46.155 223.739 46.77 223.03L51.89 218.1H55.77L60.14 223.42C60.66 224.05 61.85 224.48 63.67 224.71H73.5801V221.12H67.15C66.7209 221.149 66.2904 221.09 65.8846 220.948C65.4789 220.805 65.1065 220.581 64.79 220.29C64.6133 220.145 64.4844 219.95 64.42 219.73L63.12 218.1H66.36C69.04 218.41 70.88 218.04 71.9 217C72.92 215.96 73.11 214.62 72.9 212.61V200.18H56.1901V196.98H73.64V192.83H68.3101V189.62H73.4501V185.62H68.3101V183.62H63.0701V185.62H43.53V183.79H38.1V185.62H33.51V189.62H38.1V192.82H33.51V196.96H50.5801V200.17H34.25V218.08H44.77L43.17 220C42.8463 220.376 42.4501 220.683 42.0051 220.903C41.5602 221.123 41.0756 221.251 40.5801 221.28H33.5801L33.6 225.08ZM66.6901 214.33H56.28V211.12H67.77V213.12C67.77 213.99 67.2001 214.32 66.6901 214.32V214.33ZM57.28 213.33H66.6901C66.6901 213.33 66.6901 213.28 66.6901 213.09V212.09H57.23L57.28 213.33ZM50.28 214.33H39.5701V211.12H50.3L50.28 214.33ZM40.55 213.33H49.28V212.12H40.55V213.33ZM67.55 207.17H56.0801V204.17H67.55V207.17ZM57.0801 206.17H66.55V205.17H57.0801V206.17ZM50.29 207.17H39.5701V204.17H50.3L50.29 207.17ZM40.5601 206.17H49.29V205.17H40.5601V206.17ZM62.77 192.83H43.41V189.62H62.77V192.83ZM44.41 191.83H61.77V190.62H44.41V191.83Z" fill="black"/>
<path d="M128 189.46H145V196.89H139.31V219.53H133.74V196.89H128.05L128 189.46Z" fill="white"/>
<path d="M139.77 220.03H133.2V197.39H127.51V188.96H145.45V197.39H139.77V220.03ZM134.2 219.03H138.77V196.39H144.45V189.96H128.51V196.39H134.2V219.03Z" fill="black"/>
<path d="M145.65 189.46H151.84L155.47 199.62L159.12 189.47H165.27L158.27 206.95V219.54H152.68V206.94L145.65 189.46Z" fill="white"/>
<path d="M158.77 220.03H152.18V207.03L144.92 188.96H152.2L155.48 198.12L158.77 188.96H166.02L158.77 207.03V220.03ZM153.18 219.03H157.77V206.75L164.5 189.96H159.44L155.44 201.09L151.44 189.96H146.34L153.12 206.96L153.18 219.03Z" fill="black"/>
<path d="M167.04 189.46H176.31C177.211 189.414 178.108 189.613 178.906 190.035C179.704 190.458 180.372 191.088 180.84 191.86C181.966 193.953 182.489 196.317 182.35 198.69C182.485 201.17 181.916 203.638 180.71 205.81C180.18 206.643 179.437 207.319 178.558 207.769C177.679 208.219 176.696 208.427 175.71 208.37H172.66V219.53H167.06V189.46H167.04ZM172.64 202.28H174.01C174.434 202.326 174.863 202.265 175.258 202.102C175.653 201.94 176.001 201.681 176.27 201.35C176.734 200.642 176.965 199.806 176.93 198.96C176.958 198.123 176.761 197.295 176.36 196.56C176.133 196.212 175.813 195.934 175.437 195.758C175.061 195.581 174.643 195.513 174.23 195.56H172.64V202.28Z" fill="white"/>
<path d="M173.14 220.03H166.54V188.96H176.31C177.304 188.906 178.295 189.123 179.175 189.588C180.056 190.053 180.794 190.748 181.31 191.6C182.479 193.773 183.026 196.226 182.89 198.69C183.023 201.266 182.427 203.827 181.17 206.08C180.593 206.986 179.784 207.722 178.828 208.213C177.872 208.703 176.803 208.93 175.73 208.87H173.18L173.14 220.03ZM167.54 219.03H172.14V207.87H175.69C176.596 207.936 177.503 207.754 178.314 207.344C179.124 206.933 179.807 206.31 180.29 205.54C181.439 203.447 181.98 201.074 181.85 198.69C181.983 196.414 181.488 194.144 180.42 192.13C179.999 191.427 179.393 190.853 178.668 190.47C177.944 190.088 177.128 189.911 176.31 189.96H167.54V219.03ZM174.01 202.78H172.14V195.07H174.23C174.73 195.019 175.234 195.108 175.686 195.327C176.138 195.546 176.52 195.886 176.79 196.31C177.233 197.122 177.454 198.036 177.43 198.96C177.467 199.907 177.205 200.841 176.68 201.63C176.369 202.032 175.961 202.349 175.494 202.55C175.027 202.751 174.516 202.83 174.01 202.78ZM173.14 201.78H174.01C174.354 201.822 174.703 201.778 175.026 201.652C175.348 201.527 175.635 201.323 175.86 201.06C176.265 200.437 176.465 199.702 176.43 198.96C176.455 198.212 176.282 197.47 175.93 196.81C175.743 196.542 175.485 196.33 175.185 196.2C174.885 196.069 174.554 196.024 174.23 196.07H173.14V201.78Z" fill="black"/>
<path d="M185.29 189.46H190.87V199.98H196.96V189.46H202.56V219.53H196.96V207.37H190.87V219.53H185.29V189.46Z" fill="white"/>
<path d="M203.06 220.03H196.46V207.87H191.37V220.03H184.77V188.96H191.35V199.48H196.44V188.96H203.04L203.06 220.03ZM197.46 219.03H202.06V189.96H197.46V200.48H190.37V189.96H185.77V219.03H190.35V206.87H197.44L197.46 219.03Z" fill="black"/>
<path d="M205.56 204.52C205.56 199.613 206.38 195.79 208.02 193.05C208.695 191.815 209.689 190.783 210.898 190.062C212.107 189.341 213.487 188.957 214.894 188.95C216.302 188.943 217.686 189.313 218.902 190.021C220.118 190.73 221.122 191.752 221.81 192.98C223.443 195.647 224.257 199.41 224.25 204.27C224.329 207.187 223.972 210.099 223.19 212.91C222.635 214.897 221.574 216.706 220.11 218.16C218.753 219.416 216.958 220.091 215.11 220.04C213.286 220.11 211.495 219.536 210.05 218.42C208.523 217.037 207.402 215.263 206.81 213.29C205.904 210.457 205.482 207.493 205.56 204.52ZM211.13 204.52C211.13 207.547 211.463 209.727 212.13 211.06C212.342 211.628 212.717 212.121 213.208 212.477C213.699 212.832 214.284 213.035 214.89 213.06C215.502 213.05 216.096 212.853 216.593 212.496C217.09 212.138 217.466 211.637 217.67 211.06C218.337 209.76 218.67 207.427 218.67 204.06C218.807 201.941 218.465 199.819 217.67 197.85C217.45 197.281 217.069 196.789 216.574 196.433C216.078 196.078 215.489 195.875 214.88 195.85C214.283 195.884 213.709 196.092 213.227 196.447C212.746 196.802 212.379 197.289 212.17 197.85C211.47 199.3 211.13 201.49 211.13 204.56V204.52Z" fill="white"/>
<path d="M215.1 220.54C213.163 220.61 211.262 219.997 209.73 218.81C208.134 217.367 206.959 215.518 206.33 213.46C205.413 210.571 204.984 207.55 205.06 204.52C205.06 199.52 205.91 195.6 207.59 192.79C208.31 191.48 209.366 190.387 210.651 189.623C211.935 188.859 213.4 188.452 214.894 188.445C216.389 188.438 217.858 188.831 219.149 189.582C220.441 190.334 221.508 191.417 222.24 192.72C223.91 195.48 224.75 199.36 224.75 204.27C224.825 207.238 224.458 210.2 223.66 213.06C223.084 215.131 221.978 217.017 220.45 218.53C218.997 219.871 217.077 220.593 215.1 220.54ZM214.87 189.45C213.546 189.431 212.244 189.782 211.109 190.464C209.975 191.146 209.054 192.132 208.45 193.31C206.86 195.95 206.06 199.72 206.06 204.52C205.985 207.437 206.393 210.347 207.27 213.13C207.839 215.012 208.907 216.705 210.36 218.03C211.715 219.071 213.392 219.605 215.1 219.54C216.825 219.598 218.503 218.973 219.77 217.8C221.161 216.412 222.173 214.69 222.71 212.8C223.461 210.035 223.798 207.174 223.71 204.31C223.71 199.58 222.91 195.87 221.35 193.31C220.734 192.129 219.802 191.142 218.658 190.461C217.513 189.779 216.202 189.429 214.87 189.45ZM214.87 213.59C214.172 213.569 213.496 213.344 212.925 212.942C212.355 212.541 211.915 211.98 211.66 211.33C210.94 209.92 210.59 207.7 210.59 204.56C210.59 201.42 210.94 199.15 211.67 197.74C211.917 197.097 212.347 196.542 212.907 196.141C213.467 195.741 214.132 195.515 214.82 195.49C215.517 195.503 216.194 195.721 216.768 196.115C217.342 196.51 217.788 197.064 218.05 197.71C218.904 199.744 219.277 201.948 219.14 204.15C219.14 207.62 218.8 209.98 218.14 211.37C217.886 212.023 217.443 212.586 216.868 212.987C216.293 213.388 215.611 213.608 214.91 213.62L214.87 213.59ZM214.82 196.49C214.317 196.522 213.835 196.701 213.433 197.005C213.031 197.309 212.728 197.725 212.56 198.2C211.92 199.45 211.56 201.59 211.56 204.56C211.56 207.53 211.89 209.62 212.56 210.87C212.733 211.354 213.046 211.776 213.459 212.082C213.872 212.388 214.367 212.565 214.88 212.59C215.392 212.576 215.888 212.409 216.304 212.109C216.72 211.81 217.035 211.392 217.21 210.91C217.83 209.69 218.15 207.41 218.15 204.15C218.271 202.1 217.929 200.05 217.15 198.15C216.966 197.684 216.653 197.28 216.247 196.986C215.841 196.692 215.36 196.52 214.86 196.49H214.82Z" fill="black"/>
<path d="M226.55 204.52C226.55 199.613 227.37 195.79 229.01 193.05C229.687 191.815 230.681 190.784 231.891 190.063C233.101 189.342 234.481 188.959 235.889 188.951C237.298 188.944 238.682 189.314 239.899 190.022C241.116 190.731 242.121 191.752 242.81 192.98C244.43 195.647 245.24 199.41 245.24 204.27C245.319 207.187 244.962 210.099 244.18 212.91C243.625 214.897 242.564 216.706 241.1 218.16C239.743 219.416 237.948 220.091 236.1 220.04C234.296 220.099 232.527 219.526 231.1 218.42C229.566 217.041 228.442 215.266 227.85 213.29C226.927 210.46 226.488 207.496 226.55 204.52ZM232.12 204.52C232.12 207.547 232.453 209.727 233.12 211.06C233.333 211.627 233.709 212.119 234.199 212.475C234.69 212.831 235.275 213.034 235.88 213.06C236.492 213.05 237.087 212.853 237.584 212.496C238.08 212.138 238.456 211.637 238.66 211.06C239.327 209.76 239.66 207.427 239.66 204.06C239.797 201.941 239.455 199.819 238.66 197.85C238.442 197.28 238.061 196.787 237.565 196.432C237.069 196.076 236.48 195.874 235.87 195.85C235.274 195.884 234.701 196.091 234.221 196.446C233.741 196.802 233.376 197.29 233.17 197.85C232.46 199.3 232.12 201.49 232.12 204.56V204.52Z" fill="white"/>
<path d="M236.09 220.54C234.153 220.61 232.252 219.997 230.72 218.81C229.124 217.367 227.949 215.518 227.32 213.46C226.403 210.571 225.974 207.55 226.05 204.52C226.05 199.52 226.9 195.6 228.58 192.79C229.3 191.48 230.356 190.387 231.641 189.623C232.925 188.859 234.39 188.452 235.884 188.445C237.379 188.438 238.848 188.831 240.139 189.582C241.431 190.334 242.498 191.417 243.23 192.72C244.9 195.47 245.74 199.36 245.74 204.27C245.82 207.238 245.453 210.201 244.65 213.06C244.072 215.131 242.966 217.015 241.44 218.53C239.987 219.871 238.067 220.593 236.09 220.54ZM235.86 189.45C234.536 189.431 233.234 189.782 232.099 190.464C230.965 191.146 230.044 192.132 229.44 193.31C227.85 195.95 227.05 199.72 227.05 204.52C226.972 207.438 227.385 210.348 228.27 213.13C228.836 215.011 229.9 216.704 231.35 218.03C232.706 219.07 234.382 219.605 236.09 219.54C237.815 219.6 239.495 218.975 240.76 217.8C242.151 216.412 243.163 214.69 243.7 212.8C244.452 210.035 244.789 207.174 244.7 204.31C244.7 199.58 243.91 195.87 242.34 193.31C241.725 192.128 240.793 191.141 239.649 190.459C238.504 189.777 237.192 189.428 235.86 189.45ZM235.86 213.59C235.162 213.569 234.486 213.344 233.915 212.942C233.345 212.541 232.905 211.98 232.65 211.33C231.93 209.92 231.58 207.7 231.58 204.56C231.58 201.42 231.94 199.15 232.66 197.74C232.907 197.097 233.337 196.542 233.897 196.141C234.457 195.741 235.122 195.515 235.81 195.49C236.507 195.503 237.184 195.721 237.758 196.115C238.332 196.51 238.778 197.064 239.04 197.71C239.893 199.745 240.265 201.948 240.13 204.15C240.13 207.62 239.79 209.98 239.13 211.37C238.876 212.023 238.433 212.586 237.858 212.987C237.283 213.388 236.601 213.608 235.9 213.62L235.86 213.59ZM235.81 196.49C235.308 196.525 234.827 196.705 234.425 197.008C234.024 197.312 233.72 197.726 233.55 198.2C232.91 199.45 232.55 201.59 232.55 204.56C232.55 207.53 232.88 209.62 233.55 210.87C233.71 211.362 234.022 211.791 234.44 212.095C234.859 212.399 235.363 212.563 235.88 212.563C236.397 212.563 236.901 212.399 237.32 212.095C237.738 211.791 238.05 211.362 238.21 210.87C238.82 209.65 239.14 207.37 239.14 204.11C239.26 202.06 238.918 200.01 238.14 198.11C237.95 197.651 237.634 197.256 237.229 196.969C236.824 196.682 236.346 196.516 235.85 196.49H235.81Z" fill="black"/>
<path d="M248.28 189.46H253.48L260.28 206.1V189.46H265.53V219.53H260.28L253.52 203.02V219.53H248.28V189.46Z" fill="white"/>
<path d="M266.03 220.03H259.94L254.02 205.56V220.03H247.77V188.96H253.77L259.77 203.55V188.96H266.02L266.03 220.03ZM260.61 219.03H265.03V189.96H260.77V208.62L253.14 189.94H248.77V219.01H253.01V200.48L260.61 219.03Z" fill="black"/>
<path d="M162.24 87.47C162.24 54.95 137.55 28.72 104.36 28.72C64.6199 28.72 41.11 59.62 41.11 87.01C41.1096 95.8316 43.4635 104.494 47.9286 112.102C52.3936 119.71 58.8081 125.989 66.51 130.29C37.98 128.86 18.67 108.5 19.79 86.29C18.15 118.76 41.5 146.2 74.64 147.87C114.33 149.87 139.36 120.18 140.74 92.87C141.226 83.2355 138.89 73.6686 134.02 65.3416C129.149 57.0147 121.956 50.2894 113.32 45.99C141.88 45.92 162.24 65.19 162.24 87.47ZM90.6901 103.98C87.3278 103.98 84.041 102.983 81.2454 101.115C78.4497 99.247 76.2707 96.5919 74.984 93.4856C73.6973 90.3792 73.3608 86.9611 74.0167 83.6635C74.6727 80.3658 76.2917 77.3367 78.6692 74.9592C81.0467 72.5817 84.0759 70.9626 87.3735 70.3066C90.6712 69.6507 94.0893 69.9874 97.1957 71.274C100.302 72.5607 102.957 74.7396 104.825 77.5353C106.693 80.3309 107.69 83.6177 107.69 86.98C107.69 91.4887 105.899 95.8127 102.711 99.0008C99.5227 102.189 95.1987 103.98 90.6901 103.98Z" fill="#FBED25"/>
<path d="M78.3101 148.43C77.0768 148.43 75.8467 148.4 74.62 148.34C66.8536 148.029 59.2305 146.149 52.21 142.813C45.1895 139.477 38.9169 134.755 33.7701 128.93C23.53 117.145 18.3204 101.814 19.2601 86.23H20.2601C19.7101 97.08 24.01 107.54 32.35 115.67C40.51 123.67 51.8301 128.54 64.4001 129.6C57.126 125.11 51.1196 118.837 46.9509 111.374C42.7821 103.912 40.5892 95.508 40.5801 86.96C40.5801 58.68 64.9501 28.17 104.33 28.17C137.07 28.17 162.71 54.17 162.71 87.42H161.71C161.71 65 141.53 47.31 115.39 46.42C123.605 50.9547 130.381 57.7059 134.946 65.9042C139.511 74.1025 141.682 83.4183 141.21 92.79C140.49 107.02 133.62 121.19 122.37 131.65C110.71 142.56 95.1701 148.43 78.3101 148.43ZM21.0301 99.55C22.7594 110.2 27.4438 120.151 34.5501 128.27C39.6043 133.992 45.7645 138.631 52.6596 141.909C59.5547 145.186 67.0419 147.034 74.6701 147.34C92.6701 148.24 109.38 142.43 121.67 130.96C132.73 120.67 139.48 106.75 140.19 92.78C140.671 83.2428 138.359 73.7725 133.538 65.5293C128.718 57.286 121.598 50.6278 113.05 46.37L111.15 45.37H113.27C135.46 45.37 153.8 57.22 160.27 74.04C157.521 61.2759 150.461 49.8475 140.277 41.6761C130.093 33.5047 117.407 29.0886 104.35 29.17C65.59 29.17 41.6 59.17 41.6 86.96C41.6037 95.7025 43.9379 104.286 48.362 111.826C52.7861 119.367 59.1402 125.592 66.7701 129.86L68.6301 130.86L66.5 130.75C52.85 130.07 40.5001 124.97 31.7001 116.4C26.8187 111.741 23.1549 105.955 21.0301 99.55ZM90.6901 104.48C87.2325 104.48 83.8525 103.455 80.9777 101.533C78.1029 99.6122 75.8625 96.8817 74.5397 93.687C73.217 90.4924 72.8714 86.9772 73.5467 83.5861C74.222 80.1951 75.8878 77.0805 78.3334 74.6362C80.7791 72.192 83.8946 70.528 87.2861 69.8547C90.6775 69.1814 94.1924 69.5289 97.3863 70.8535C100.58 72.178 103.31 74.42 105.229 77.2959C107.149 80.1718 108.172 83.5524 108.17 87.01C108.165 91.6435 106.321 96.0855 103.044 99.3609C99.7666 102.636 95.3236 104.477 90.6901 104.48ZM90.6901 70.48C87.4307 70.48 84.2444 71.4466 81.5342 73.2574C78.8241 75.0682 76.7119 77.6421 75.4645 80.6534C74.2172 83.6647 73.8909 86.9783 74.5268 90.1751C75.1627 93.3719 76.7321 96.3083 79.0369 98.6131C81.3417 100.918 84.2782 102.487 87.475 103.123C90.6718 103.759 93.9853 103.433 96.9966 102.186C100.008 100.938 102.582 98.8259 104.393 96.1158C106.203 93.4057 107.17 90.2195 107.17 86.96C107.154 82.5988 105.411 78.4213 102.323 75.3421C99.2341 72.2629 95.0514 70.5326 90.6901 70.53V70.48Z" fill="black"/>
</svg>
