<svg width="300" height="246" viewBox="0 0 300 246" fill="none" xmlns="http://www.w3.org/2000/svg">
<path d="M287.964 0.000372478H11.9985C10.4302 -0.00710184 8.87582 0.297361 7.42409 0.896374C5.97235 1.49539 4.65169 2.37722 3.53753 3.49152C2.42336 4.60583 1.5375 5.93079 0.930532 7.39073C0.323559 8.85068 0.00736856 10.417 0 12.0004V234C0.00736856 235.583 0.323559 237.149 0.930532 238.609C1.5375 240.069 2.42336 241.394 3.53753 242.508C4.65169 243.623 5.97235 244.505 7.42409 245.104C8.87582 245.703 10.4302 246.007 11.9985 246H287.964C289.535 246.012 291.094 245.711 292.55 245.115C294.006 244.518 295.331 243.637 296.449 242.522C297.567 241.407 298.457 240.081 299.066 238.618C299.675 237.156 299.993 235.586 300 234V12.0004C299.993 10.4138 299.675 8.84435 299.066 7.38193C298.457 5.9195 297.567 4.59287 296.449 3.47807C295.331 2.36327 294.006 1.48223 292.55 0.885457C291.094 0.288684 289.535 -0.0120981 287.964 0.000372478ZM90.6824 104.006C86.2075 104.006 81.9158 102.212 78.7515 99.017C75.5872 95.8224 73.8095 91.4896 73.8095 86.9717C73.8095 82.4539 75.5872 78.121 78.7515 74.9264C81.9158 71.7318 86.2075 69.9371 90.6824 69.9371C92.9077 69.9221 95.1138 70.3517 97.1739 71.201C99.234 72.0504 101.107 73.3028 102.686 74.8861C104.265 76.4694 105.518 78.3523 106.373 80.4265C107.228 82.5007 107.668 84.7251 107.668 86.9717C107.668 89.2184 107.228 91.4428 106.373 93.5169C105.518 95.5911 104.265 97.4741 102.686 99.0574C101.107 100.641 99.234 101.893 97.1739 102.742C95.1138 103.592 92.9077 104.021 90.6824 104.006Z" fill="#61707E"/>
<path d="M90.6824 104.006C100.053 104.006 107.649 96.4051 107.649 87.0285C107.649 77.6519 100.053 70.0506 90.6824 70.0506C81.312 70.0506 73.7158 77.6519 73.7158 87.0285C73.7158 96.4051 81.312 104.006 90.6824 104.006Z" fill="#61707E"/>
<path d="M90.6824 104.517C86.0697 104.533 81.6395 102.7 78.3637 99.4209C75.088 96.1421 73.2344 91.6854 73.2096 87.0285C73.2344 82.3734 75.0886 77.9185 78.3649 74.6428C81.6411 71.3671 86.0715 69.5384 90.6824 69.5585C95.2934 69.5384 99.7237 71.3671 103 74.6428C106.276 77.9185 108.13 82.3734 108.155 87.0285C108.13 91.6854 106.277 96.1421 103.001 99.4209C99.7254 102.7 95.2951 104.533 90.6824 104.517ZM90.6824 70.4481C86.3333 70.433 82.1557 72.1602 79.0663 75.2508C75.9769 78.3414 74.228 82.543 74.2032 86.9339C74.228 91.3247 75.9769 95.5263 79.0663 98.6169C82.1557 101.708 86.3333 103.435 90.6824 103.42C95.0316 103.435 99.2091 101.708 102.299 98.6169C105.388 95.5263 107.137 91.3247 107.162 86.9339C107.112 82.5595 105.352 78.3821 102.266 75.3119C99.179 72.2417 95.0155 70.5275 90.6824 70.5427V70.4481Z" fill="black"/>
<path d="M166.254 12.3032H15.0356C14.2881 12.3032 13.5708 12.6017 13.0405 13.1336C12.5101 13.6655 12.2097 14.3876 12.2047 15.1423V159.842C12.2097 160.597 12.5101 161.319 13.0405 161.851C13.5708 162.383 14.2881 162.681 15.0356 162.681H166.292C166.663 162.684 167.03 162.612 167.374 162.471C167.717 162.329 168.029 162.12 168.292 161.856C168.555 161.593 168.764 161.279 168.907 160.933C169.049 160.587 169.123 160.217 169.123 159.842V15.1423C169.12 14.7653 169.044 14.3926 168.898 14.0456C168.752 13.6985 168.54 13.384 168.274 13.1201C168.007 12.8562 167.691 12.6482 167.345 12.508C166.998 12.3678 166.628 12.2982 166.254 12.3032ZM90.6824 104.006C86.2075 104.006 81.9158 102.212 78.7515 99.017C75.5872 95.8224 73.8095 91.4896 73.8095 86.9717C73.8095 82.4539 75.5872 78.121 78.7515 74.9264C81.9158 71.7318 86.2075 69.9371 90.6824 69.9371C92.9077 69.9221 95.1138 70.3517 97.1739 71.201C99.234 72.0504 101.107 73.3028 102.686 74.8861C104.265 76.4694 105.518 78.3523 106.373 80.4265C107.228 82.5007 107.668 84.7251 107.668 86.9717C107.668 89.2184 107.228 91.4428 106.373 93.5169C105.518 95.5911 104.265 97.4741 102.686 99.0574C101.107 100.641 99.234 101.893 97.1739 102.742C95.1138 103.592 92.9077 104.021 90.6824 104.006Z" fill="#D2E1E1"/>
<path d="M90.6824 104.006C100.053 104.006 107.649 96.4051 107.649 87.0285C107.649 77.6519 100.053 70.0506 90.6824 70.0506C81.312 70.0506 73.7158 77.6519 73.7158 87.0285C73.7158 96.4051 81.312 104.006 90.6824 104.006Z" fill="#D2E1E1"/>
<path d="M90.6824 104.517C86.0697 104.533 81.6395 102.7 78.3637 99.4209C75.088 96.1421 73.2344 91.6854 73.2096 87.0285C73.2344 82.3734 75.0886 77.9185 78.3649 74.6428C81.6411 71.3671 86.0715 69.5384 90.6824 69.5585C95.2934 69.5384 99.7237 71.3671 103 74.6428C106.276 77.9185 108.13 82.3734 108.155 87.0285C108.13 91.6854 106.277 96.1421 103.001 99.4209C99.7254 102.7 95.2951 104.533 90.6824 104.517ZM90.6824 70.4481C86.3333 70.433 82.1557 72.1602 79.0663 75.2508C75.9769 78.3414 74.228 82.543 74.2032 86.9339C74.228 91.3247 75.9769 95.5263 79.0663 98.6169C82.1557 101.708 86.3333 103.435 90.6824 103.42C95.0316 103.435 99.2091 101.708 102.299 98.6169C105.388 95.5263 107.137 91.3247 107.162 86.9339C107.112 82.5595 105.352 78.3821 102.266 75.3119C99.179 72.2417 95.0155 70.5275 90.6824 70.5427V70.4481Z" fill="black"/>
<path d="M180.99 12.3032H285.002C285.749 12.3032 286.467 12.6017 286.997 13.1336C287.527 13.6655 287.828 14.3876 287.833 15.1423V162.681H180.971L180.99 12.3032Z" fill="#3265FE"/>
<path d="M204.781 38.1201L216.554 22.1454H227.803L216.029 38.6501H252.4C253.45 38.9908 253.974 38.2905 253.974 36.5492V29.2243H263.142V39.6911C263.648 45.1043 261.399 47.4514 256.337 46.751H204.781V38.1201ZM205.043 82.1074V50.6879H262.88V73.9875C263.217 79.9055 260.249 82.6121 253.974 82.1074H205.043ZM253.787 58.8078H214.454V74.2525H251.369C252.925 74.4229 253.712 73.5522 253.712 71.6216V58.8078H253.787Z" fill="white"/>
<path d="M255.418 82.5806H204.537V50.1769H263.367V73.9686C263.545 75.1658 263.461 76.3877 263.121 77.5485C262.78 78.7093 262.193 79.7809 261.399 80.6878C259.725 82.0795 257.579 82.7584 255.418 82.5806ZM205.549 81.5206H253.974C255.142 81.7487 256.345 81.7232 257.502 81.4458C258.659 81.1684 259.745 80.6455 260.686 79.9118C261.382 79.0988 261.893 78.1425 262.184 77.1094C262.476 76.0764 262.54 74.9916 262.373 73.9307V51.1043H205.549V81.5206ZM251.744 74.6879H213.967V58.24H254.218V71.4891C254.264 71.9599 254.21 72.4351 254.058 72.8826C253.906 73.3301 253.66 73.7392 253.337 74.0822C253.129 74.2963 252.881 74.4668 252.608 74.5838C252.334 74.7007 252.041 74.7618 251.744 74.7635V74.6879ZM214.961 73.6658H251.369C251.593 73.719 251.827 73.723 252.053 73.6773C252.28 73.6315 252.494 73.5372 252.681 73.4008C252.893 73.1386 253.048 72.8353 253.139 72.5096C253.229 72.184 253.252 71.843 253.206 71.508V59.1863H214.961V73.6658ZM257.949 47.2999C257.385 47.2973 256.821 47.2594 256.262 47.1864H204.274V37.8741L216.31 21.5776H228.759L216.985 38.0634H252.606C252.688 38.1022 252.778 38.1224 252.868 38.1224C252.959 38.1224 253.049 38.1022 253.131 38.0634C253.243 38.0634 253.506 37.6659 253.506 36.4356V28.5997H263.667V39.5775C263.897 40.6798 263.875 41.8206 263.602 42.9129C263.329 44.0051 262.813 45.0201 262.092 45.8804C261.534 46.3935 260.88 46.7898 260.169 47.0464C259.458 47.3031 258.703 47.415 257.949 47.3756V47.2999ZM205.287 46.1832H256.337C257.197 46.405 258.096 46.4317 258.967 46.2616C259.839 46.0914 260.663 45.7285 261.38 45.199C261.985 44.431 262.412 43.5359 262.629 42.5795C262.846 41.6231 262.849 40.6296 262.636 39.6722V29.6407H254.481V36.4735C254.545 36.9157 254.505 37.367 254.365 37.7911C254.225 38.2151 253.989 38.6001 253.675 38.9151C253.479 39.0502 253.254 39.1347 253.018 39.1611C252.783 39.1875 252.545 39.155 252.325 39.0665H215.054L226.828 22.5808H216.817L205.287 38.2148V46.1832Z" fill="black"/>
<path d="M287.795 175.06V230.915C287.79 231.669 287.49 232.391 286.96 232.923C286.429 233.455 285.712 233.754 284.964 233.754H104.349V175.079L287.795 175.06Z" fill="#3265FE"/>
<path d="M92.9134 233.754H15.0356C14.2881 233.754 13.5708 233.455 13.0405 232.923C12.5101 232.391 12.2097 231.669 12.2047 230.915V175.06H92.9509L92.9134 233.754Z" fill="#3265FE"/>
<path d="M206.618 144.322V93.8045H262.861V144.908C262.673 145.949 263.292 146.65 264.736 147.009V153.539H256.88C256.17 153.581 255.464 153.404 254.855 153.032C254.246 152.661 253.762 152.112 253.468 151.457H243.27C242.444 151.579 241.602 151.41 240.886 150.979C240.169 150.548 239.621 149.882 239.333 149.091L234.627 140.726L230.446 148.05C230.067 149.066 229.387 149.939 228.497 150.549C227.608 151.159 226.553 151.476 225.478 151.457H216.104C215.914 152.179 215.454 152.799 214.822 153.187C214.19 153.575 213.433 153.701 212.711 153.539H204.593V146.214C206.093 146.347 206.787 145.722 206.618 144.322ZM252.662 144.076V101.924H216.554V144.076H220.491C221.71 144.246 222.366 143.886 222.572 143.016L229.378 130.978L216.817 106.637H227.278L234.777 121.287L242.37 106.637H252.062L239.764 130.713L246.026 142.24C246.55 143.64 247.338 144.246 248.388 144.132L252.662 144.076Z" fill="white"/>
<path d="M213.123 154.013H204.012V145.628H204.574C204.803 145.686 205.041 145.696 205.273 145.657C205.505 145.618 205.727 145.53 205.924 145.401C206.026 145.25 206.095 145.079 206.127 144.9C206.159 144.721 206.154 144.537 206.112 144.36V93.2556H263.367V144.795C263.367 145.211 263.18 145.987 264.829 146.404L265.204 146.498V153.937H256.88C256.123 153.981 255.368 153.806 254.704 153.435C254.041 153.063 253.495 152.508 253.131 151.836H243.232C242.304 151.962 241.362 151.764 240.56 151.276C239.759 150.787 239.147 150.036 238.826 149.148L234.589 141.577L230.84 148.145C230.425 149.243 229.683 150.184 228.716 150.839C227.749 151.493 226.604 151.828 225.441 151.798H216.385C216.149 152.472 215.704 153.05 215.117 153.449C214.529 153.848 213.83 154.046 213.123 154.013ZM205.024 152.99H212.636C213.255 153.146 213.909 153.048 214.457 152.718C215.005 152.388 215.401 151.854 215.561 151.23L215.673 150.89H225.459C226.439 150.911 227.401 150.624 228.21 150.068C229.02 149.511 229.638 148.713 229.977 147.785L234.608 139.647L239.764 148.789C240.251 150.246 241.376 150.89 243.251 150.89H253.768L253.9 151.173C254.141 151.758 254.555 152.253 255.085 152.591C255.615 152.93 256.235 153.096 256.862 153.066H264.211V147.388C262.336 146.782 262.336 145.495 262.336 144.833V94.3155H207.105V144.303C207.183 144.633 207.181 144.977 207.1 145.307C207.018 145.636 206.859 145.941 206.637 146.196C206.19 146.583 205.612 146.78 205.024 146.744V152.99ZM221.035 144.606H216.067V101.508H253.131V144.662H248.444C247.638 144.814 246.382 144.568 245.632 142.505L239.239 130.826L251.256 107.186H242.688L234.871 122.328L226.978 107.186H217.604L229.903 131.054L223.135 143.148C223.031 143.614 222.757 144.022 222.368 144.292C221.978 144.563 221.502 144.674 221.035 144.606ZM217.06 143.565H220.491C221.916 143.773 222.029 143.205 222.085 142.921V142.77L228.759 130.959L217.004 108.246L217.06 143.565ZM240.42 130.713L246.569 142.069C247.169 143.678 247.9 143.735 248.444 143.659H252.193V107.792L240.42 130.713ZM217.06 106.107H227.597L234.871 120.189L242.163 106.107H252.175V102.322H217.06V106.107Z" fill="black"/>
<path d="M73.4721 225.804V220.845H71.8223V208.542H32.9021V220.845H31.6273V225.804H73.4721ZM31.8148 186.057H36.033L35.3018 183.861H43.3633L44.282 186.057H61.1549L61.886 183.861H69.9663L69.2351 186.057H73.4533V191.394H31.9085L31.8148 186.057ZM32.7147 206.877V193.287H38.9576V206.877H32.7147ZM38.9576 220.826V213.842H44.282V220.826H38.9576ZM42.4447 206.877V193.287H48.069V206.877H42.4447ZM49.7938 195.52H52.5309C52.923 195.61 53.334 195.546 53.6816 195.343C54.0293 195.139 54.2879 194.81 54.4057 194.423L55.3243 192.53H61.5673L61.3798 193.079H73.4908V197.678H60.03L59.4863 198.776C59.3502 199.195 59.0734 199.553 58.7038 199.788C58.3341 200.023 57.8947 200.12 57.4616 200.063H49.7563V195.464L49.7938 195.52ZM49.7938 213.88H54.9306V220.864H49.7938V213.88ZM52.3622 205.249L49.9812 200.858H57.3116L57.874 201.577C57.9865 202.315 58.5489 202.618 59.5238 202.505H73.4721V206.915H56.4117C54.087 207.009 52.7372 206.46 52.3622 205.23V205.249ZM60.8174 220.864V213.88H66.1417V220.864H60.8174Z" fill="white"/>
<path d="M73.9783 226.315H31.1211V220.353H32.4147V208.05H72.3285V220.353H73.9783V226.315ZM32.1147 225.312H72.9846V221.356H71.2786V209.053H33.4083V221.356H32.1147V225.312ZM66.6292 221.356H60.3112V213.369H66.6292V221.356ZM61.3048 220.353H65.6543V214.372H61.3236L61.3048 220.353ZM55.4368 221.356H49.2876V213.369H55.4368V221.356ZM50.3 220.353H54.4057V214.372H50.2625L50.3 220.353ZM44.7881 221.356H38.4702V213.369H44.7881V221.356ZM39.4638 220.353H43.7945V214.372H39.4076L39.4638 220.353ZM55.7743 207.407C53.637 207.407 52.3247 206.744 51.8935 205.514L49.1376 200.404H49.2876V195.085H52.5309C52.8165 195.155 53.1181 195.112 53.3729 194.964C53.6278 194.816 53.8163 194.575 53.8995 194.29L54.9681 192.151H62.2235L62.036 192.7H73.9595V198.378H60.3674L59.955 199.211C59.7845 199.663 59.485 200.053 59.0945 200.333C58.704 200.612 58.2401 200.769 57.7615 200.782L58.324 201.539V201.653C58.324 201.88 58.4364 202.277 59.4301 202.164H73.9408V207.577H55.7368L55.7743 207.407ZM50.8249 201.331L52.8496 205.116C53.1309 206.082 54.312 206.517 56.3742 206.404H72.9659V202.997H59.5238C57.9677 203.205 57.5366 202.315 57.4053 201.804L57.0679 201.35L50.8249 201.331ZM50.3 199.59H57.4991C57.9677 199.59 58.5677 199.59 59.0739 198.587L59.7675 197.205H72.8909V193.628H60.5924L60.7799 193.06H55.5306L54.7619 194.631C54.5925 195.104 54.2618 195.501 53.829 195.751C53.3962 196 52.8896 196.086 52.3997 195.993H50.225L50.3 199.59ZM48.6502 207.388H41.9573V192.795H48.6502V207.388ZM43.0259 206.385H47.7128V193.798H43.0259V206.385ZM39.5388 207.388H32.3022V192.795H39.4076L39.5388 207.388ZM33.2958 206.385H38.5452V193.798H33.2958V206.385ZM74.0532 191.962H31.3086V185.64H35.3393L34.6082 183.445H43.7008L44.6194 185.64H60.8174L61.5485 183.445H70.6786L69.9475 185.64H73.9783L74.0532 191.962ZM32.3772 190.959H73.0596V186.681H68.6352L69.3663 184.467H62.2797L61.5298 186.681H43.9632L43.0446 184.467H35.9955L36.7267 186.681H32.3022L32.3772 190.959Z" fill="black"/>
<path d="M127.99 189.52H144.863V196.94H139.239V219.653H133.615V196.94H127.99V189.52Z" fill="white"/>
<path d="M139.745 220.088H133.146V197.375H127.522V188.952H145.463V197.375H139.839L139.745 220.088ZM134.121 219.085H138.77V196.372H144.394V189.937H128.44V196.353H134.064L134.121 219.085Z" fill="black"/>
<path d="M145.632 189.52H151.894L155.531 199.665L159.168 189.52H165.336L158.305 206.99V219.577H152.681V206.99L145.632 189.52Z" fill="white"/>
<path d="M158.736 220.088H152.156V207.085L144.882 189.009H152.175L155.456 198.17L158.736 189.009H165.992L158.736 207.085V220.088ZM153.112 219.085H157.705V206.801L164.436 190.012H159.393L155.399 201.142L151.406 190.012H146.307L153.093 207.047L153.112 219.085Z" fill="black"/>
<path d="M176.265 189.52C177.164 189.471 178.059 189.667 178.857 190.086C179.655 190.506 180.327 191.134 180.802 191.905C181.924 193.997 182.444 196.364 182.302 198.738C182.44 201.219 181.874 203.687 180.671 205.855C180.132 206.692 179.383 207.371 178.501 207.823C177.619 208.275 176.635 208.484 175.647 208.429H172.61V219.577H166.985V189.52H176.265ZM172.647 202.334H173.997C174.421 202.379 174.85 202.318 175.246 202.156C175.641 201.994 175.991 201.737 176.265 201.407C176.734 200.697 176.964 199.855 176.922 199.003C176.949 198.171 176.755 197.348 176.359 196.618C176.129 196.27 175.807 195.993 175.429 195.819C175.052 195.645 174.634 195.581 174.222 195.634H172.647V202.334Z" fill="white"/>
<path d="M173.116 220.088H166.517V189.009H176.265C177.249 188.97 178.226 189.193 179.098 189.655C179.969 190.116 180.706 190.801 181.234 191.64C182.398 193.814 182.944 196.271 182.808 198.738C182.941 201.32 182.342 203.887 181.084 206.139C180.503 207.048 179.694 207.784 178.739 208.273C177.783 208.762 176.716 208.986 175.647 208.921H173.097L173.116 220.088ZM167.492 219.085H172.085V207.918H175.628C176.53 207.983 177.433 207.801 178.242 207.391C179.05 206.982 179.734 206.359 180.221 205.59C181.383 203.504 181.93 201.127 181.796 198.738C181.928 196.456 181.428 194.182 180.352 192.17C179.929 191.466 179.322 190.892 178.598 190.512C177.874 190.131 177.061 189.959 176.247 190.012H167.492V219.085ZM172.066 202.826V195.123H174.147C174.646 195.069 175.15 195.155 175.603 195.372C176.057 195.589 176.441 195.929 176.715 196.353C177.152 197.166 177.371 198.079 177.353 199.003C177.385 199.956 177.123 200.895 176.603 201.691C176.29 202.081 175.887 202.389 175.43 202.587C174.973 202.785 174.474 202.867 173.978 202.826H172.066ZM173.078 201.842H173.941C174.29 201.889 174.645 201.846 174.972 201.717C175.3 201.588 175.59 201.377 175.816 201.104C176.217 200.481 176.414 199.745 176.378 199.003C176.401 198.26 176.233 197.523 175.891 196.864C175.694 196.602 175.433 196.396 175.134 196.267C174.835 196.138 174.508 196.089 174.184 196.126H173.097L173.078 201.842Z" fill="black"/>
<path d="M185.264 189.52H190.889V200.044H196.888V189.52H202.512V219.577H196.888V207.501H190.795V219.653H185.171L185.264 189.52Z" fill="white"/>
<path d="M203.037 220.088H196.438V207.918H191.264V220.088H184.702V189.009H191.264V199.533H196.363V189.009H202.962L203.037 220.088ZM197.413 219.085H202.006V190.012H197.413V200.536H190.326V190.012H185.752V219.085H190.326V206.915H197.413V219.085Z" fill="black"/>
<path d="M205.531 204.568C205.322 200.592 206.17 196.632 207.987 193.098C208.649 191.845 209.638 190.799 210.848 190.075C212.058 189.351 213.442 188.976 214.848 188.99C216.259 188.956 217.652 189.315 218.876 190.025C220.099 190.736 221.105 191.773 221.785 193.022C223.606 196.513 224.449 200.439 224.222 204.378C224.3 207.299 223.94 210.216 223.153 213.028C222.602 215.018 221.542 216.826 220.079 218.271C218.72 219.539 216.923 220.219 215.073 220.164C213.252 220.24 211.461 219.671 210.011 218.555C208.492 217.172 207.371 215.399 206.768 213.426C205.861 210.565 205.443 207.57 205.531 204.568ZM211.155 204.568C211.008 206.801 211.361 209.039 212.186 211.116C212.417 211.666 212.799 212.137 213.288 212.473C213.777 212.808 214.351 212.995 214.942 213.009C215.538 213.005 216.119 212.824 216.613 212.487C217.107 212.15 217.491 211.673 217.717 211.116C218.527 208.884 218.865 206.505 218.71 204.132C218.836 202.011 218.483 199.888 217.679 197.924C217.44 197.373 217.05 196.902 216.556 196.567C216.061 196.231 215.481 196.046 214.886 196.031C214.303 196.052 213.739 196.242 213.26 196.577C212.782 196.913 212.409 197.38 212.186 197.924C211.336 200.042 210.965 202.324 211.099 204.605L211.155 204.568Z" fill="white"/>
<path d="M215.073 220.599C213.139 220.672 211.241 220.055 209.711 218.858C208.113 217.426 206.933 215.58 206.299 213.52C205.379 210.63 204.947 207.603 205.024 204.568C204.819 200.502 205.7 196.456 207.574 192.852C208.273 191.521 209.322 190.411 210.605 189.643C211.889 188.875 213.357 188.479 214.848 188.498C216.346 188.465 217.824 188.846 219.123 189.6C220.422 190.354 221.491 191.452 222.216 192.776C224.071 196.325 224.939 200.315 224.728 204.322C224.799 207.293 224.432 210.259 223.641 213.123C223.058 215.194 221.946 217.074 220.416 218.574C218.969 219.934 217.049 220.661 215.073 220.599ZM214.848 189.501C213.535 189.475 212.24 189.814 211.106 190.482C209.971 191.149 209.041 192.12 208.418 193.287C206.653 196.742 205.831 200.61 206.037 204.492C205.96 207.411 206.372 210.323 207.255 213.104C207.813 214.993 208.877 216.689 210.33 218.006C211.689 219.051 213.366 219.586 215.073 219.52C216.794 219.571 218.467 218.947 219.741 217.779C221.141 216.389 222.156 214.653 222.685 212.744C223.447 209.979 223.795 207.115 223.716 204.246C223.927 200.42 223.111 196.607 221.354 193.211C220.714 192.047 219.768 191.084 218.62 190.429C217.471 189.774 216.166 189.453 214.848 189.501ZM214.848 213.634C214.154 213.617 213.48 213.394 212.91 212.994C212.34 212.593 211.899 212.033 211.642 211.381C210.787 209.232 210.422 206.916 210.574 204.605C210.43 202.282 210.795 199.956 211.642 197.792C211.893 197.148 212.325 196.591 212.885 196.191C213.444 195.791 214.107 195.565 214.792 195.539C215.487 195.553 216.162 195.769 216.738 196.162C217.313 196.555 217.764 197.108 218.035 197.754C218.871 199.796 219.236 202.003 219.104 204.208C219.27 206.658 218.919 209.116 218.073 211.419C217.813 212.062 217.373 212.614 216.807 213.008C216.241 213.401 215.573 213.619 214.886 213.634H214.848ZM214.848 196.599C214.349 196.629 213.87 196.807 213.47 197.109C213.07 197.412 212.767 197.827 212.598 198.303C211.812 200.324 211.479 202.496 211.624 204.662C211.486 206.814 211.812 208.971 212.58 210.984C212.758 211.469 213.074 211.89 213.487 212.196C213.9 212.502 214.393 212.68 214.904 212.706C215.414 212.693 215.908 212.525 216.323 212.224C216.737 211.924 217.053 211.505 217.229 211.022C218.002 208.859 218.321 206.558 218.167 204.265C218.298 202.222 217.965 200.176 217.192 198.284C217.018 197.787 216.699 197.354 216.278 197.044C215.856 196.733 215.351 196.558 214.829 196.542L214.848 196.599Z" fill="black"/>
<path d="M226.528 204.568C226.31 200.591 227.158 196.628 228.984 193.098C229.643 191.842 230.632 190.794 231.842 190.069C233.053 189.345 234.438 188.971 235.846 188.99C237.257 188.956 238.65 189.315 239.873 190.025C241.096 190.736 242.103 191.773 242.782 193.022C244.594 196.516 245.437 200.44 245.219 204.378C245.297 207.299 244.937 210.216 244.151 213.028C243.592 215.015 242.533 216.821 241.076 218.271C239.708 219.537 237.906 220.216 236.052 220.164C234.236 220.237 232.453 219.668 231.009 218.555C229.485 217.175 228.364 215.401 227.765 213.426C226.859 210.565 226.44 207.57 226.528 204.568ZM232.152 204.568C232.011 206.799 232.356 209.035 233.165 211.116C233.396 211.669 233.782 212.142 234.274 212.478C234.767 212.814 235.345 212.998 235.939 213.009C236.535 213.003 237.115 212.82 237.608 212.484C238.102 212.147 238.486 211.672 238.714 211.116C239.518 208.883 239.85 206.503 239.689 204.132C239.823 202.01 239.471 199.886 238.658 197.924C238.424 197.373 238.038 196.902 237.546 196.566C237.054 196.23 236.477 196.045 235.883 196.031C235.298 196.053 234.732 196.243 234.251 196.578C233.769 196.913 233.392 197.38 233.165 197.924C232.323 200.044 231.958 202.326 232.096 204.605L232.152 204.568Z" fill="white"/>
<path d="M236.052 220.599C234.099 220.679 232.181 220.062 230.634 218.858C229.042 217.424 227.868 215.578 227.24 213.52C226.32 210.63 225.889 207.603 225.965 204.568C225.754 200.504 226.628 196.457 228.496 192.852C229.199 191.52 230.251 190.409 231.537 189.641C232.824 188.873 234.295 188.478 235.789 188.498C237.285 188.464 238.761 188.845 240.056 189.599C241.352 190.353 242.418 191.452 243.138 192.776C244.995 196.324 245.863 200.314 245.651 204.322C245.73 207.294 245.364 210.261 244.563 213.123C243.982 215.19 242.877 217.069 241.357 218.574C239.92 219.924 238.015 220.651 236.052 220.599ZM235.846 189.501C234.532 189.472 233.236 189.811 232.102 190.479C230.967 191.147 230.037 192.119 229.415 193.287C227.634 196.737 226.805 200.607 227.015 204.492C226.938 207.411 227.35 210.323 228.234 213.104C228.798 214.994 229.868 216.691 231.327 218.006C232.681 219.048 234.351 219.583 236.052 219.52C237.778 219.574 239.458 218.95 240.739 217.779C242.125 216.381 243.132 214.648 243.663 212.744C244.433 209.98 244.787 207.116 244.713 204.246C244.924 200.42 244.108 196.607 242.351 193.211C241.711 192.047 240.765 191.084 239.617 190.429C238.469 189.774 237.163 189.453 235.846 189.501ZM235.846 213.634C235.152 213.614 234.479 213.391 233.91 212.991C233.34 212.591 232.899 212.031 232.64 211.381C231.793 209.23 231.428 206.916 231.571 204.605C231.422 202.281 231.793 199.951 232.658 197.792C232.908 197.146 233.339 196.589 233.899 196.188C234.458 195.788 235.122 195.562 235.808 195.539C236.501 195.552 237.174 195.768 237.747 196.161C238.32 196.555 238.767 197.108 239.033 197.754C239.885 199.791 240.257 202.001 240.12 204.208C240.286 206.658 239.935 209.116 239.089 211.419C238.827 212.068 238.381 212.624 237.808 213.018C237.234 213.412 236.558 213.626 235.864 213.634H235.846ZM235.846 196.599C235.344 196.628 234.861 196.805 234.458 197.107C234.055 197.41 233.749 197.826 233.577 198.303C232.811 200.329 232.485 202.498 232.621 204.662C232.483 206.814 232.809 208.971 233.577 210.984C233.75 211.469 234.062 211.891 234.472 212.197C234.882 212.504 235.373 212.681 235.883 212.706C236.396 212.696 236.894 212.53 237.313 212.23C237.731 211.929 238.049 211.508 238.226 211.022C238.999 208.859 239.318 206.558 239.164 204.265C239.286 202.223 238.953 200.179 238.189 198.284C238.011 197.79 237.691 197.36 237.27 197.05C236.85 196.74 236.347 196.563 235.827 196.542L235.846 196.599Z" fill="black"/>
<path d="M248.256 189.52H253.45L260.255 206.157V189.52H265.504V219.577H260.255L253.487 203.072V219.577H248.256V189.52Z" fill="white"/>
<path d="M265.992 220.088H259.918L253.993 205.609V220.088H247.75V189.009H253.787L259.749 203.602V189.009H265.992V220.088ZM260.574 219.085H264.998V190.012H260.742V208.694L253.131 190.012H248.763V219.085H253.018V200.536L260.574 219.085Z" fill="black"/>
<path d="M162.223 87.5017C162.223 54.9655 137.533 28.8268 104.349 28.8268C64.6232 28.8268 41.1136 59.7352 41.1136 87.1231C41.1232 95.9735 43.4833 104.659 47.9478 112.276C52.4124 119.893 58.8182 126.161 66.4979 130.429C37.9827 128.991 18.6727 108.625 19.7788 86.385C18.1477 118.864 41.4885 146.309 74.6344 147.975C114.323 149.981 139.351 120.284 140.72 92.9339C141.189 83.2676 138.843 73.6742 133.972 65.3389C129.101 57.0036 121.918 50.2915 113.311 46.0318C141.864 45.9372 162.223 65.2052 162.223 87.5017ZM90.6824 104.006C86.2075 104.006 81.9158 102.212 78.7515 99.017C75.5872 95.8224 73.8095 91.4896 73.8095 86.9717C73.8095 82.4539 75.5872 78.121 78.7515 74.9264C81.9158 71.7318 86.2075 69.9371 90.6824 69.9371C92.9077 69.9221 95.1138 70.3517 97.1739 71.201C99.234 72.0504 101.107 73.3028 102.686 74.8861C104.265 76.4694 105.518 78.3523 106.373 80.4265C107.228 82.5007 107.668 84.7251 107.668 86.9717C107.668 89.2184 107.228 91.4428 106.373 93.5169C105.518 95.5911 104.265 97.4741 102.686 99.0574C101.107 100.641 99.234 101.893 97.1739 102.742C95.1138 103.592 92.9077 104.021 90.6824 104.006Z" fill="#3265FE"/>
<path d="M78.309 148.467C77.0716 148.467 75.853 148.467 74.5594 148.372C66.8208 148.067 59.2222 146.193 52.2167 142.859C45.2111 139.526 38.9421 134.803 33.7833 128.972C23.5582 117.219 18.3432 101.867 19.2726 86.2525H20.2662C19.1414 108.681 38.3764 127.401 64.3982 129.615C57.1454 125.155 51.1477 118.89 46.979 111.421C42.8103 103.951 40.61 95.5265 40.5887 86.9528C40.5887 58.6753 64.9606 28.1454 104.331 28.1454C112.043 28.0842 119.689 29.5783 126.822 32.54C133.954 35.5017 140.429 39.8715 145.867 45.393C151.304 50.9145 155.595 57.4766 158.488 64.6944C161.38 71.9122 162.816 79.6405 162.711 87.426H161.699C161.699 64.997 141.526 47.2999 115.392 46.3914C123.581 50.8906 130.347 57.63 134.913 65.8358C139.479 74.0417 141.661 83.3813 141.207 92.7824C140.183 107.758 133.434 121.746 122.385 131.792C110.305 142.769 94.5593 148.726 78.309 148.467ZM21.0536 99.7477C22.8156 110.356 27.4925 120.252 34.5519 128.309C39.6274 134.042 45.7932 138.685 52.6823 141.962C59.5715 145.24 67.0433 147.085 74.6532 147.388C83.1839 147.972 91.7439 146.822 99.8266 144.006C107.909 141.191 115.35 136.767 121.71 130.997C132.545 121.165 139.178 107.472 140.214 92.8013C140.681 83.2351 138.361 73.7404 133.539 65.4917C128.718 57.2431 121.607 50.6025 113.086 46.3914L111.211 45.445H113.33C135.508 45.445 153.862 57.2936 160.199 74.12C157.392 61.2994 150.306 49.8424 140.128 41.6687C129.949 33.495 117.298 29.1014 104.293 29.2243C65.5418 29.2243 41.5448 59.2242 41.5448 87.0285C41.5833 95.7921 43.939 104.386 48.3687 111.923C52.7984 119.46 59.1412 125.666 66.7417 129.899L68.6164 130.94L66.4792 130.826C44.3195 129.71 26.6029 116.915 21.0536 99.7477ZM90.6824 104.517C86.0697 104.533 81.6395 102.7 78.3637 99.4209C75.088 96.1421 73.2344 91.6854 73.2096 87.0285C73.2344 82.3734 75.0886 77.9185 78.3649 74.6428C81.6411 71.3671 86.0715 69.5384 90.6824 69.5585C95.2934 69.5384 99.7237 71.3671 103 74.6428C106.276 77.9185 108.13 82.3734 108.155 87.0285C108.13 91.6854 106.277 96.1421 103.001 99.4209C99.7254 102.7 95.2951 104.533 90.6824 104.517ZM90.6824 70.4481C86.3333 70.433 82.1557 72.1602 79.0663 75.2508C75.9769 78.3414 74.228 82.543 74.2032 86.9339C74.228 91.3247 75.9769 95.5263 79.0663 98.6169C82.1557 101.708 86.3333 103.435 90.6824 103.42C95.0316 103.435 99.2091 101.708 102.299 98.6169C105.388 95.5263 107.137 91.3247 107.162 86.9339C107.112 82.5595 105.352 78.3821 102.266 75.3119C99.179 72.2417 95.0155 70.5275 90.6824 70.5427V70.4481Z" fill="black"/>
</svg>
