<svg width="300" height="246" viewBox="0 0 300 246" fill="none" xmlns="http://www.w3.org/2000/svg">
<path d="M288 0H12C8.8174 0 5.76521 1.26429 3.51477 3.51472C1.26433 5.76516 0 8.8174 0 12V234C0 237.183 1.26433 240.235 3.51477 242.485C5.76521 244.736 8.8174 246 12 246H288C291.183 246 294.235 244.736 296.485 242.485C298.736 240.235 300 237.183 300 234V12C300 8.8174 298.736 5.76516 296.485 3.51472C294.235 1.26429 291.183 0 288 0ZM90.67 103.94C87.3078 103.94 84.021 102.943 81.2253 101.075C78.4297 99.207 76.2507 96.552 74.964 93.4456C73.6773 90.3393 73.3408 86.9212 73.9967 83.6235C74.6527 80.3258 76.2717 77.2967 78.6492 74.9192C81.0267 72.5417 84.0558 70.9226 87.3535 70.2666C90.6512 69.6107 94.0693 69.9474 97.1757 71.2341C100.282 72.5207 102.937 74.6997 104.805 77.4953C106.673 80.291 107.67 83.5777 107.67 86.94C107.67 91.4487 105.879 95.7727 102.691 98.9608C99.5027 102.149 95.1787 103.94 90.67 103.94Z" fill="#61707E"/>
<path d="M90.68 103.99C100.058 103.99 107.66 96.3878 107.66 87.01C107.66 77.6322 100.058 70.03 90.68 70.03C81.3022 70.03 73.7 77.6322 73.7 87.01C73.7 96.3878 81.3022 103.99 90.68 103.99Z" fill="#61707E"/>
<path d="M90.6701 104.48C87.2125 104.48 83.8325 103.455 80.9577 101.533C78.0829 99.6122 75.8424 96.8816 74.5197 93.687C73.197 90.4924 72.8514 86.9772 73.5267 83.5862C74.202 80.1951 75.8678 77.0805 78.3134 74.6362C80.759 72.192 83.8746 70.528 87.2661 69.8547C90.6575 69.1813 94.1724 69.5289 97.3663 70.8535C100.56 72.178 103.29 74.42 105.209 77.2959C107.129 80.1718 108.152 83.5524 108.15 87.01C108.145 91.6434 106.301 96.0854 103.024 99.3608C99.7466 102.636 95.3035 104.477 90.6701 104.48ZM90.6701 70.53C87.4107 70.53 84.2243 71.4965 81.5142 73.3074C78.8041 75.1182 76.6918 77.6921 75.4445 80.7034C74.1972 83.7147 73.8709 87.0283 74.5068 90.2251C75.1427 93.4219 76.7121 96.3583 79.0169 98.6631C81.3217 100.968 84.2582 102.537 87.455 103.173C90.6518 103.809 93.9653 103.483 96.9766 102.236C99.988 100.988 102.562 98.8759 104.373 96.1658C106.183 93.4557 107.15 90.2694 107.15 87.01C107.147 82.6401 105.41 78.4498 102.32 75.3598C99.2302 72.2698 95.0401 70.5326 90.6701 70.53Z" fill="black"/>
<path d="M166.26 12.3H15C14.2485 12.3027 13.5287 12.603 12.9983 13.1353C12.4678 13.6677 12.17 14.3885 12.17 15.14V159.8C12.17 160.551 12.4682 161.27 12.9989 161.801C13.5296 162.332 14.2494 162.63 15 162.63H166.27C167.021 162.63 167.742 162.332 168.275 161.802C168.807 161.271 169.107 160.551 169.11 159.8V15.14C169.11 14.7662 169.036 14.3961 168.893 14.0509C168.749 13.7056 168.539 13.3921 168.275 13.1283C168.01 12.8644 167.696 12.6554 167.35 12.5133C167.004 12.3712 166.634 12.2987 166.26 12.3ZM90.67 103.94C87.3078 103.94 84.021 102.943 81.2253 101.075C78.4297 99.207 76.2507 96.552 74.964 93.4456C73.6773 90.3393 73.3408 86.9212 73.9967 83.6235C74.6527 80.3258 76.2717 77.2967 78.6492 74.9192C81.0267 72.5417 84.0558 70.9226 87.3535 70.2666C90.6512 69.6107 94.0693 69.9474 97.1757 71.2341C100.282 72.5207 102.937 74.6997 104.805 77.4953C106.673 80.291 107.67 83.5777 107.67 86.94C107.67 91.4487 105.879 95.7727 102.691 98.9608C99.5027 102.149 95.1787 103.94 90.67 103.94Z" fill="#D3E2E2"/>
<path d="M90.68 103.99C100.058 103.99 107.66 96.3878 107.66 87.01C107.66 77.6322 100.058 70.03 90.68 70.03C81.3022 70.03 73.7 77.6322 73.7 87.01C73.7 96.3878 81.3022 103.99 90.68 103.99Z" fill="#D3E2E2"/>
<path d="M90.6701 104.48C87.2125 104.48 83.8325 103.455 80.9577 101.533C78.0829 99.6122 75.8424 96.8816 74.5197 93.687C73.197 90.4924 72.8514 86.9772 73.5267 83.5862C74.202 80.1951 75.8678 77.0805 78.3134 74.6362C80.759 72.192 83.8746 70.528 87.2661 69.8547C90.6575 69.1813 94.1724 69.5289 97.3663 70.8535C100.56 72.178 103.29 74.42 105.209 77.2959C107.129 80.1718 108.152 83.5524 108.15 87.01C108.145 91.6434 106.301 96.0854 103.024 99.3608C99.7466 102.636 95.3035 104.477 90.6701 104.48ZM90.6701 70.53C87.4107 70.53 84.2243 71.4965 81.5142 73.3074C78.8041 75.1182 76.6918 77.6921 75.4445 80.7034C74.1972 83.7147 73.8709 87.0283 74.5068 90.2251C75.1427 93.4219 76.7121 96.3583 79.0169 98.6631C81.3217 100.968 84.2582 102.537 87.455 103.173C90.6518 103.809 93.9653 103.483 96.9766 102.236C99.988 100.988 102.562 98.8759 104.373 96.1658C106.183 93.4557 107.15 90.2694 107.15 87.01C107.147 82.6401 105.41 78.4498 102.32 75.3598C99.2302 72.2698 95.0401 70.5326 90.6701 70.53Z" fill="black"/>
<path d="M181 12.3H285C285.753 12.3 286.476 12.5992 287.008 13.1318C287.541 13.6644 287.84 14.3868 287.84 15.14V162.63H181V12.3Z" fill="#D62F28"/>
<path d="M204.78 38.11L216.56 22.11H227.82L216 38.63H252.38C253.38 38.98 253.95 38.28 253.95 36.54V29.21H263.11V39.68C263.63 45.0933 261.36 47.4467 256.3 46.74H204.74V38.11H204.78ZM205.05 82.11V50.67H262.89V73.94C263.23 79.8667 260.263 82.5733 253.99 82.06L205.05 82.11ZM253.73 58.81H214.47V74.25H251.37C252.94 74.43 253.73 73.56 253.73 71.64V58.78V58.81Z" fill="white"/>
<path d="M255.43 82.64C254.96 82.64 254.43 82.64 253.95 82.57H204.55V50.17H263.39V73.94C263.56 76.94 262.9 79.2 261.39 80.66C260.07 81.94 258.06 82.64 255.43 82.64ZM205.55 81.58H254C257.11 81.84 259.35 81.29 260.71 79.96C262.07 78.63 262.56 76.71 262.4 73.96V51.17H205.56L205.55 81.58ZM251.75 74.75C251.607 74.7599 251.463 74.7599 251.32 74.75H214V58.28H254.26V71.61C254.303 72.0777 254.247 72.5493 254.095 72.9939C253.944 73.4384 253.7 73.846 253.38 74.19C252.929 74.58 252.345 74.7806 251.75 74.75ZM214.97 73.75H251.37C251.595 73.8022 251.828 73.8051 252.055 73.7585C252.281 73.7118 252.494 73.6169 252.68 73.48C252.892 73.2268 253.05 72.933 253.145 72.6166C253.239 72.3003 253.268 71.968 253.23 71.64V59.28H215L214.97 73.75ZM257.97 47.39C257.405 47.3874 256.84 47.3473 256.28 47.27H204.28V37.94L216.28 21.64H228.76L217 38.13H252.57C252.652 38.1706 252.743 38.1917 252.835 38.1917C252.927 38.1917 253.018 38.1706 253.1 38.13C253.21 38.05 253.48 37.72 253.48 36.51V28.68H263.64V39.68C263.92 42.56 263.39 44.68 262.07 45.97C260.946 46.9451 259.486 47.4438 258 47.36L257.97 47.39ZM205.29 46.27H256.35C258.7 46.59 260.35 46.27 261.35 45.27C262.35 44.27 262.87 42.36 262.62 39.74V29.74H254.46V36.57C254.46 37.82 254.2 38.62 253.66 39C253.465 39.135 253.24 39.2201 253.005 39.248C252.77 39.2759 252.531 39.2457 252.31 39.16H215.04L226.81 22.67H216.81L205.28 38.3L205.29 46.27Z" fill="black"/>
<path d="M287.81 175.01V230.86C287.807 231.611 287.507 232.331 286.975 232.862C286.442 233.392 285.721 233.69 284.97 233.69H104.34V175.01H287.81Z" fill="#D62F28"/>
<path d="M92.91 233.69H15C14.2485 233.687 13.5287 233.387 12.9983 232.855C12.4678 232.322 12.17 231.601 12.17 230.85V175.01H92.9301L92.91 233.69Z" fill="#D62F28"/>
<path d="M206.62 144.29V93.78H262.89V144.78C262.71 145.827 263.32 146.527 264.72 146.88V153.42H256.87C256.159 153.454 255.454 153.273 254.847 152.9C254.241 152.527 253.761 151.98 253.47 151.33H243.26C241.16 151.33 239.86 150.54 239.33 148.97L234.62 140.6L230.43 147.92C230.058 148.94 229.375 149.818 228.479 150.429C227.582 151.041 226.515 151.356 225.43 151.33H216C215.809 152.047 215.349 152.664 214.717 153.053C214.084 153.442 213.327 153.573 212.6 153.42H204.49V146.09C206.09 146.3 206.79 145.69 206.62 144.29ZM252.68 144.03V101.94H216.56V144.08H220.49C221.71 144.25 222.41 143.91 222.58 143.03L229.39 131.03L216.83 106.69H227.29L234.88 121.35L242.47 106.69H252.16L239.86 130.77L246.14 142.29C246.66 143.68 247.45 144.29 248.49 144.12L252.68 144.03Z" fill="white"/>
<path d="M213.13 153.94C212.95 153.95 212.77 153.95 212.59 153.94H204V145.55L204.55 145.62C204.779 145.676 205.018 145.683 205.25 145.642C205.483 145.601 205.704 145.512 205.9 145.38C206 145.236 206.069 145.073 206.101 144.9C206.134 144.728 206.13 144.551 206.09 144.38V93.28H263.36V144.81C263.29 145.23 263.16 146.01 264.81 146.42L265.19 146.52V153.94H256.84C256.089 153.974 255.344 153.797 254.689 153.427C254.035 153.057 253.498 152.511 253.14 151.85H243.23C240.91 151.85 239.43 150.94 238.83 149.15L234.59 141.63L230.84 148.19C230.426 149.283 229.683 150.222 228.715 150.877C227.746 151.532 226.599 151.872 225.43 151.85H216.36C216.109 152.493 215.662 153.041 215.082 153.416C214.503 153.791 213.82 153.975 213.13 153.94ZM205.03 152.94H212.64C213.259 153.089 213.912 152.989 214.458 152.662C215.004 152.335 215.4 151.806 215.56 151.19L215.68 150.85H225.46C226.445 150.868 227.411 150.577 228.222 150.017C229.033 149.457 229.648 148.657 229.98 147.73L234.63 139.6L239.77 148.75C240.26 150.19 241.39 150.85 243.26 150.85H253.78L253.91 151.12C254.156 151.7 254.578 152.188 255.116 152.514C255.655 152.841 256.282 152.99 256.91 152.94H264.26V147.27C262.41 146.67 262.32 145.43 262.43 144.72V94.28H207.16V144.28C207.226 144.601 207.216 144.934 207.133 145.251C207.05 145.568 206.895 145.862 206.68 146.11C206.463 146.306 206.208 146.457 205.932 146.553C205.655 146.649 205.362 146.689 205.07 146.67L205.03 152.94ZM221.03 144.56C220.82 144.578 220.61 144.578 220.4 144.56H216.04V101.39H253.16V144.53H248.47C247.65 144.68 246.47 144.42 245.65 142.37L239.27 130.69L251.27 107.1H242.71L234.81 122.35L227 107.1H217.66L230 130.94L223.1 143.15C223.001 143.602 222.735 144 222.354 144.263C221.974 144.527 221.508 144.636 221.05 144.57L221.03 144.56ZM217.03 143.56H220.46C221.89 143.76 222.01 143.19 222.06 142.91L222.12 142.76L228.79 130.96L217.03 108.18V143.56ZM240.4 130.7L246.55 141.99C247.15 143.59 247.88 143.65 248.38 143.57H252.15V107.67L240.4 130.7ZM217.03 106.13H227.57L234.85 120.2L242.14 106.13H252.14V102.42H217.02L217.03 106.13Z" fill="black"/>
<path d="M32.71 225.01V219.51H49.05V225.01H32.71ZM32.89 194.72L39.89 183.89H47L39 196.56H41.39L43.96 192.33H51.48L40.65 209.59H49.1V215.28H32.9399V210.14L38.8199 201.7H32.9399L32.89 194.72ZM58.78 219.72V189.76H51.4301V183.94H74.4301V189.81H65.99V219.74H74.62V225.61H51.3V219.74L58.78 219.72Z" fill="white"/>
<path d="M75.0699 226.06H50.75V219.19H58.28V190.26H50.9301V183.39H74.9301V190.26H66.49V219.19H75.12L75.0699 226.06ZM51.75 225.06H74.0699V220.19H65.4399V189.26H73.88V184.39H51.88V189.26H59.23V220.19H51.7L51.75 225.06ZM49.55 225.51H32.21V219.01H49.55V225.51ZM33.21 224.51H48.55V220.01H33.21V224.51ZM49.55 215.78H32.39V209.99L37.8101 202.2H32.39V194.57L39.6 183.39H47.9399L39.86 196.06H41.0601L43.63 191.83H52.34L41.51 209.09H49.51L49.55 215.78ZM33.39 214.78H48.55V210.09H39.7L50.53 192.83H44.1899L41.62 197.06H38L46.08 184.39H40.08L33.33 194.87V201.2H39.66L33.33 210.3L33.39 214.78Z" fill="black"/>
<path d="M128 189.46H144.94V196.94H139.26V219.58H133.68V196.94H128V189.46Z" fill="white"/>
<path d="M139.74 220.03H133.16V197.39H127.48V188.94H145.42V197.37H139.74V220.03ZM134.16 219.03H138.74V196.39H144.42V189.94H128.48V196.37H134.16V219.03Z" fill="black"/>
<path d="M145.63 189.46H151.82L155.45 199.61L159.1 189.46H165.25L158.25 206.94V219.53H152.66V206.94L145.63 189.46Z" fill="white"/>
<path d="M158.74 220.03H152.15V207.03L144.89 188.94H152.17L155.45 198.11L158.74 188.94H166L158.75 207.01L158.74 220.03ZM153.15 219.03H157.74V206.75L164.47 189.96H159.41L155.41 201.09L151.41 189.96H146.31L153.09 206.96L153.15 219.03Z" fill="black"/>
<path d="M167 189.46H176.27C177.171 189.414 178.068 189.613 178.866 190.035C179.664 190.458 180.332 191.088 180.8 191.86C181.926 193.953 182.449 196.317 182.31 198.69C182.444 201.17 181.875 203.638 180.67 205.81C180.14 206.643 179.397 207.319 178.518 207.769C177.639 208.219 176.656 208.427 175.67 208.37H172.62V219.53H167V189.46ZM172.6 202.28H174C174.424 202.326 174.853 202.264 175.248 202.102C175.643 201.94 175.991 201.681 176.26 201.35C176.725 200.639 176.956 199.799 176.92 198.95C176.947 198.117 176.75 197.291 176.35 196.56C176.123 196.212 175.803 195.934 175.427 195.758C175.051 195.581 174.633 195.513 174.22 195.56H172.63L172.6 202.28Z" fill="white"/>
<path d="M173.12 220.03H166.52V188.94H176.29C177.284 188.886 178.275 189.103 179.155 189.568C180.036 190.033 180.774 190.729 181.29 191.58C182.46 193.752 183.007 196.206 182.87 198.67C183.003 201.246 182.407 203.807 181.15 206.06C180.573 206.966 179.764 207.702 178.808 208.193C177.852 208.683 176.783 208.91 175.71 208.85H173.16L173.12 220.03ZM167.52 219.03H172.12V207.87H175.67C176.576 207.936 177.483 207.754 178.294 207.344C179.104 206.933 179.787 206.31 180.27 205.54C181.418 203.447 181.958 201.074 181.83 198.69C181.963 196.414 181.468 194.144 180.4 192.13C179.979 191.427 179.373 190.853 178.648 190.47C177.924 190.088 177.108 189.911 176.29 189.96H167.52V219.03ZM172.12 202.78V195.07H174.21C174.71 195.019 175.214 195.108 175.666 195.327C176.118 195.546 176.5 195.886 176.77 196.31C177.213 197.118 177.434 198.029 177.41 198.95C177.449 199.9 177.186 200.838 176.66 201.63C176.35 202.031 175.943 202.346 175.478 202.548C175.013 202.749 174.504 202.829 174 202.78H172.12ZM173.12 201.78H173.99C174.334 201.823 174.683 201.779 175.006 201.654C175.329 201.528 175.615 201.324 175.84 201.06C176.247 200.434 176.446 199.696 176.41 198.95C176.435 198.205 176.262 197.467 175.91 196.81C175.723 196.542 175.465 196.33 175.165 196.2C174.865 196.069 174.534 196.024 174.21 196.07H173.12V201.78Z" fill="black"/>
<path d="M185.27 189.46H190.84V199.94H196.94V189.46H202.54V219.53H196.94V207.37H190.84V219.53H185.27V189.46Z" fill="white"/>
<path d="M203 220.03H196.4V207.87H191.3V220.03H184.73V188.94H191.3V199.46H196.4V188.94H203V220.03ZM197.4 219.03H202V189.94H197.4V200.46H190.3V189.94H185.73V219.01H190.3V206.87H197.4V219.03Z" fill="black"/>
<path d="M205.54 204.52C205.54 199.613 206.36 195.79 208 193.05C208.675 191.815 209.669 190.783 210.878 190.062C212.087 189.341 213.467 188.957 214.874 188.95C216.282 188.943 217.666 189.313 218.882 190.021C220.098 190.73 221.102 191.752 221.79 192.98C223.423 195.647 224.237 199.41 224.23 204.27C224.309 207.187 223.952 210.099 223.17 212.91C222.615 214.897 221.554 216.706 220.09 218.16C218.733 219.416 216.938 220.091 215.09 220.04C213.266 220.11 211.475 219.536 210.03 218.42C208.503 217.037 207.382 215.263 206.79 213.29C205.884 210.457 205.462 207.493 205.54 204.52ZM211.11 204.52C211.11 207.547 211.443 209.727 212.11 211.06C212.322 211.628 212.697 212.121 213.188 212.477C213.679 212.832 214.264 213.035 214.87 213.06C215.476 213.054 216.066 212.864 216.563 212.516C217.059 212.168 217.438 211.678 217.65 211.11C218.317 209.81 218.65 207.477 218.65 204.11C218.788 201.994 218.446 199.875 217.65 197.91C217.433 197.34 217.052 196.846 216.556 196.49C216.06 196.135 215.47 195.933 214.86 195.91C214.263 195.943 213.688 196.15 213.206 196.505C212.725 196.861 212.358 197.349 212.15 197.91C211.45 199.3 211.11 201.49 211.11 204.56V204.52Z" fill="white"/>
<path d="M215.08 220.54C213.143 220.61 211.242 219.998 209.71 218.81C208.114 217.367 206.939 215.518 206.31 213.46C205.393 210.571 204.964 207.55 205.04 204.52C205.04 199.52 205.89 195.6 207.57 192.79C208.29 191.48 209.346 190.387 210.631 189.623C211.915 188.859 213.38 188.453 214.874 188.445C216.369 188.438 217.838 188.831 219.129 189.582C220.421 190.334 221.488 191.417 222.22 192.72C223.89 195.48 224.73 199.36 224.73 204.27C224.805 207.238 224.438 210.2 223.64 213.06C223.062 215.131 221.956 217.015 220.43 218.53C218.977 219.871 217.057 220.593 215.08 220.54ZM214.85 189.45C213.526 189.431 212.224 189.782 211.089 190.464C209.955 191.146 209.034 192.132 208.43 193.31C206.84 195.95 206.04 199.72 206.04 204.52C205.965 207.437 206.373 210.347 207.25 213.13C207.824 215.01 208.891 216.702 210.34 218.03C211.695 219.071 213.372 219.605 215.08 219.54C216.805 219.598 218.483 218.973 219.75 217.8C221.141 216.412 222.153 214.69 222.69 212.8C223.441 210.035 223.778 207.174 223.69 204.31C223.69 199.59 222.89 195.88 221.32 193.31C220.708 192.128 219.778 191.141 218.635 190.459C217.492 189.777 216.181 189.427 214.85 189.45ZM214.85 213.59C214.152 213.569 213.476 213.344 212.905 212.942C212.335 212.541 211.895 211.98 211.64 211.33C210.92 209.92 210.57 207.7 210.57 204.56C210.57 201.42 210.93 199.15 211.65 197.75C211.896 197.106 212.326 196.549 212.886 196.147C213.446 195.746 214.111 195.517 214.8 195.49C215.496 195.506 216.172 195.724 216.746 196.119C217.319 196.513 217.766 197.066 218.03 197.71C218.883 199.745 219.255 201.948 219.12 204.15C219.12 207.62 218.78 209.98 218.12 211.37C217.861 212.018 217.416 212.574 216.841 212.969C216.267 213.365 215.588 213.581 214.89 213.59H214.85ZM214.8 196.49C214.297 196.522 213.815 196.701 213.413 197.005C213.011 197.309 212.708 197.725 212.54 198.2C211.9 199.45 211.54 201.59 211.54 204.56C211.54 207.53 211.87 209.62 212.54 210.87C212.7 211.362 213.012 211.791 213.43 212.095C213.849 212.399 214.353 212.563 214.87 212.563C215.387 212.563 215.891 212.399 216.31 212.095C216.728 211.791 217.04 211.362 217.2 210.87C217.81 209.65 218.13 207.38 218.13 204.11C218.25 202.06 217.908 200.01 217.13 198.11C216.94 197.651 216.624 197.256 216.219 196.969C215.814 196.683 215.336 196.516 214.84 196.49H214.8Z" fill="black"/>
<path d="M226.53 204.52C226.53 199.613 227.35 195.79 228.99 193.05C229.667 191.815 230.661 190.784 231.871 190.063C233.081 189.342 234.461 188.959 235.869 188.951C237.277 188.944 238.662 189.314 239.879 190.022C241.096 190.731 242.101 191.752 242.79 192.98C244.41 195.647 245.22 199.41 245.22 204.27C245.299 207.187 244.942 210.099 244.16 212.91C243.605 214.897 242.544 216.706 241.08 218.16C239.723 219.416 237.928 220.091 236.08 220.04C234.256 220.11 232.465 219.536 231.02 218.42C229.493 217.037 228.372 215.263 227.78 213.29C226.874 210.457 226.452 207.493 226.53 204.52ZM232.1 204.52C232.1 207.547 232.433 209.727 233.1 211.06C233.313 211.627 233.689 212.119 234.179 212.475C234.67 212.831 235.255 213.034 235.86 213.06C236.466 213.054 237.056 212.864 237.553 212.516C238.049 212.168 238.428 211.678 238.64 211.11C239.307 209.81 239.64 207.477 239.64 204.11C239.778 201.994 239.436 199.875 238.64 197.91C238.424 197.339 238.044 196.844 237.547 196.489C237.051 196.133 236.46 195.931 235.85 195.91C235.252 195.936 234.675 196.14 234.194 196.497C233.713 196.853 233.349 197.345 233.15 197.91C232.44 199.3 232.1 201.49 232.1 204.56V204.52Z" fill="white"/>
<path d="M236.07 220.54C234.133 220.61 232.232 219.998 230.7 218.81C229.101 217.369 227.926 215.519 227.3 213.46C226.383 210.571 225.954 207.55 226.03 204.52C226.03 199.52 226.88 195.59 228.56 192.79C229.28 191.48 230.336 190.387 231.621 189.623C232.905 188.859 234.37 188.453 235.864 188.445C237.359 188.438 238.828 188.831 240.119 189.582C241.411 190.334 242.478 191.417 243.21 192.72C244.88 195.47 245.72 199.36 245.72 204.27C245.798 207.237 245.434 210.2 244.64 213.06C244.054 215.13 242.945 217.014 241.42 218.53C239.967 219.871 238.047 220.593 236.07 220.54ZM235.85 189.45C234.525 189.429 233.22 189.78 232.084 190.462C230.947 191.144 230.025 192.131 229.42 193.31C227.83 195.95 227.03 199.72 227.03 204.52C226.952 207.438 227.365 210.348 228.25 213.13C228.811 215.014 229.876 216.708 231.33 218.03C232.685 219.071 234.362 219.605 236.07 219.54C237.795 219.6 239.475 218.975 240.74 217.8C242.131 216.412 243.143 214.69 243.68 212.8C244.431 210.035 244.768 207.174 244.68 204.31C244.68 199.58 243.89 195.87 242.32 193.31C241.708 192.128 240.778 191.141 239.635 190.459C238.492 189.777 237.181 189.427 235.85 189.45ZM235.85 213.59C235.152 213.569 234.476 213.344 233.905 212.942C233.335 212.541 232.895 211.98 232.64 211.33C231.92 209.92 231.58 207.7 231.58 204.56C231.58 201.42 231.93 199.15 232.65 197.75C232.896 197.106 233.326 196.549 233.886 196.147C234.446 195.746 235.111 195.517 235.8 195.49C236.496 195.506 237.172 195.724 237.746 196.119C238.319 196.513 238.766 197.066 239.03 197.71C239.875 199.747 240.247 201.949 240.12 204.15C240.12 207.62 239.78 209.98 239.12 211.37C238.861 212.019 238.414 212.577 237.837 212.972C237.26 213.367 236.579 213.582 235.88 213.59H235.85ZM235.8 196.49C235.297 196.522 234.815 196.701 234.413 197.005C234.011 197.309 233.708 197.725 233.54 198.2C232.9 199.45 232.54 201.59 232.54 204.56C232.54 207.53 232.86 209.62 233.54 210.87C233.697 211.363 234.007 211.794 234.425 212.099C234.843 212.405 235.347 212.57 235.865 212.57C236.383 212.57 236.887 212.405 237.305 212.099C237.723 211.794 238.033 211.363 238.19 210.87C238.8 209.65 239.12 207.38 239.12 204.11C239.239 202.06 238.897 200.01 238.12 198.11C237.93 197.651 237.614 197.256 237.209 196.969C236.804 196.683 236.326 196.516 235.83 196.49H235.8Z" fill="black"/>
<path d="M248.26 189.46H253.46L260.26 206.1V189.46H265.51V219.53H260.26L253.5 203.02V219.53H248.26V189.46Z" fill="white"/>
<path d="M266 220.03H259.91L254 205.56V220.03H247.76V188.94H253.76L259.76 203.53V188.94H266V220.03ZM260.58 219.03H265V189.94H260.75V208.64L253.13 189.94H248.76V219.01H253V200.48L260.58 219.03Z" fill="black"/>
<path d="M162.22 87.47C162.22 54.95 137.53 28.72 104.34 28.72C64.6099 28.72 41.0899 59.62 41.0899 87.01C41.0865 95.8323 43.439 104.495 47.9044 112.104C52.3698 119.713 58.786 125.991 66.49 130.29C37.96 128.86 18.65 108.5 19.77 86.29C18.13 118.76 41.48 146.2 74.62 147.87C114.31 149.87 139.34 120.18 140.72 92.87C141.216 83.2272 138.885 73.6496 134.014 65.3127C129.143 56.9759 121.944 50.2428 113.3 45.94C141.86 45.94 162.22 65.19 162.22 87.47ZM90.67 103.94C87.3078 103.94 84.021 102.943 81.2253 101.075C78.4297 99.207 76.2507 96.552 74.964 93.4456C73.6773 90.3393 73.3408 86.9212 73.9967 83.6235C74.6527 80.3258 76.2717 77.2967 78.6492 74.9192C81.0267 72.5417 84.0558 70.9226 87.3535 70.2666C90.6512 69.6107 94.0693 69.9474 97.1757 71.2341C100.282 72.5207 102.937 74.6997 104.805 77.4953C106.673 80.291 107.67 83.5777 107.67 86.94C107.67 91.4487 105.879 95.7727 102.691 98.9608C99.5027 102.149 95.1787 103.94 90.67 103.94Z" fill="#D62F28"/>
<path d="M78.2901 148.43C77.0568 148.43 75.8267 148.4 74.6 148.34C66.8394 148.026 59.2225 146.146 52.2074 142.812C45.1924 139.478 38.9243 134.759 33.7801 128.94C23.5401 117.155 18.3304 101.824 19.2701 86.24L20.2701 86.29C19.1601 108.72 38.4001 127.42 64.4201 129.64C57.146 125.15 51.1397 118.877 46.9709 111.414C42.8021 103.952 40.6091 95.548 40.6 87C40.6 58.72 64.97 28.21 104.35 28.21C137.09 28.21 162.73 54.21 162.73 87.46H161.73C161.73 65.04 141.55 47.35 115.41 46.46C123.625 50.9948 130.401 57.7459 134.966 65.9442C139.531 74.1425 141.702 83.4583 141.23 92.83C140.51 107.06 133.64 121.23 122.39 131.69C110.69 142.56 95.1501 148.43 78.2901 148.43ZM21 99.71C22.7461 110.301 27.4187 120.194 34.49 128.27C39.5442 133.992 45.7044 138.631 52.5995 141.909C59.4946 145.186 66.9818 147.034 74.61 147.34C92.61 148.25 109.32 142.43 121.61 130.96C132.67 120.67 139.42 106.75 140.13 92.78C140.61 83.2428 138.299 73.7726 133.478 65.5293C128.658 57.2861 121.538 50.6278 112.99 46.37L111.09 45.37H113.21C135.4 45.37 153.74 57.22 160.21 74.04C157.461 61.2759 150.401 49.8476 140.217 41.6762C130.033 33.5048 117.347 29.0886 104.29 29.17C65.5301 29.17 41.5401 59.17 41.5401 86.96C41.5497 95.6911 43.8833 104.262 48.3016 111.793C52.7198 119.323 59.0632 125.542 66.6801 129.81L68.5501 130.81L66.4101 130.7C44.3001 129.68 26.59 116.94 21 99.71ZM90.6301 104.48C87.1724 104.48 83.7924 103.455 80.9176 101.533C78.0429 99.6122 75.8024 96.8816 74.4797 93.687C73.1569 90.4924 72.8113 86.9772 73.4866 83.5862C74.1619 80.1951 75.8277 77.0805 78.2734 74.6362C80.719 72.192 83.8345 70.528 87.226 69.8547C90.6174 69.1813 94.1325 69.5289 97.3263 70.8535C100.52 72.178 103.249 74.42 105.169 77.2959C107.089 80.1718 108.112 83.5524 108.11 87.01C108.105 91.6365 106.267 96.0725 102.998 99.3467C99.7293 102.621 95.2966 104.467 90.6701 104.48L90.6301 104.48ZM90.6301 70.53C87.3706 70.53 84.1844 71.4965 81.4743 73.3074C78.7642 75.1182 76.6518 77.6921 75.4045 80.7034C74.1571 83.7147 73.8308 87.0283 74.4667 90.2251C75.1026 93.4219 76.6722 96.3583 78.977 98.6631C81.2817 100.968 84.2182 102.537 87.415 103.173C90.6118 103.809 93.9254 103.483 96.9367 102.236C99.948 100.988 102.522 98.8759 104.333 96.1658C106.144 93.4557 107.11 90.2694 107.11 87.01C107.107 82.647 105.376 78.4628 102.294 75.3739C99.213 72.285 95.0331 70.5432 90.6701 70.53H90.6301Z" fill="black"/>
</svg>
