<svg width="300" height="246" viewBox="0 0 300 246" fill="none" xmlns="http://www.w3.org/2000/svg">
<path d="M288 0H12C8.8174 0 5.76509 1.26421 3.51465 3.51465C1.26421 5.76509 0 8.8174 0 12V234C0 237.183 1.26421 240.235 3.51465 242.485C5.76509 244.736 8.8174 246 12 246H288C291.183 246 294.235 244.736 296.485 242.485C298.736 240.235 300 237.183 300 234V12C300 8.8174 298.736 5.76509 296.485 3.51465C294.235 1.26421 291.183 0 288 0Z" fill="#61707E"/>
<path d="M166.28 12.29H15C14.2485 12.2927 13.5287 12.5929 12.9983 13.1252C12.4678 13.6576 12.1699 14.3784 12.1699 15.1299V159.79C12.1699 160.541 12.4681 161.26 12.9988 161.791C13.5295 162.322 14.2494 162.62 15 162.62H166.28C167.031 162.62 167.75 162.322 168.281 161.791C168.812 161.26 169.11 160.541 169.11 159.79V15.1299C169.11 14.3784 168.812 13.6576 168.282 13.1252C167.751 12.5929 167.032 12.2927 166.28 12.29Z" fill="#D3E2E2"/>
<path d="M181.02 12.29H285.02C285.772 12.2927 286.491 12.5929 287.022 13.1252C287.552 13.6576 287.85 14.3784 287.85 15.1299V162.62H181.02V12.29Z" fill="#D63128"/>
<path d="M203.76 31.29H227.84V21.3501H239.09V31.29H263.41V39.3999H240.41L256.9 70.29C257.6 72.03 258.99 72.8199 261.09 72.6399H263.41V81H258.7C253.987 81.1733 250.847 79.6034 249.28 76.29L233.58 47.5L218.41 76C217.357 78.1 216.133 79.3233 214.74 79.6699C213.74 80.3599 211.25 80.6699 207.42 80.6699H203.75V72.8201H206.41C208.33 73.1734 209.813 72.39 210.86 70.47L226.86 39.3201H203.86V31.21L203.76 31.29Z" fill="white"/>
<path d="M258.03 81.53C253.52 81.53 250.42 79.85 248.85 76.53L233.6 48.5801L218.86 76.29C217.78 78.46 216.46 79.7699 214.96 80.1799C213.78 80.9099 211.31 81.26 207.42 81.26H203.26V72.4099H206.41C207.216 72.5895 208.06 72.4782 208.792 72.0957C209.524 71.7132 210.097 71.0844 210.41 70.3201L225.99 39.9099H203.28V30.8H227.36V20.8601H239.61V30.8H263.95V39.9099H241.26L257.35 70.0601C257.611 70.7978 258.131 71.4159 258.813 71.8C259.495 72.1842 260.293 72.3085 261.06 72.1499H263.95V81.53H258.03ZM233.59 46.46L249.74 76.0701C251.24 79.2301 254.18 80.69 258.74 80.52H262.97V73.1399H261.12C260.155 73.3126 259.159 73.1397 258.309 72.6514C257.458 72.1631 256.807 71.3907 256.47 70.47L239.61 38.8999H262.97V31.79H238.63V21.8501H228.38V31.79H204.3V38.8999H227.65L211.31 70.78C210.15 72.91 208.48 73.7799 206.31 73.3899H204.31V80.24H207.41C212.04 80.24 213.8 79.72 214.47 79.24L214.62 79.1699C215.86 78.8599 216.99 77.71 217.96 75.77L233.59 46.46Z" fill="black"/>
<path d="M287.83 175V230.84C287.83 231.592 287.532 232.312 287.002 232.845C286.471 233.377 285.751 233.677 285 233.68H104.41V175H287.83Z" fill="#D63128"/>
<path d="M92.9399 233.68H15C14.2485 233.677 13.5287 233.377 12.9983 232.845C12.4678 232.312 12.1699 231.592 12.1699 230.84V175H92.9399V233.68Z" fill="#D63128"/>
<path d="M204.55 94.29H262.41V99.79H237.8V102.14H262.14V116.8H253.51V106.59H237.8V117.06H229.41V106.85H213.71V117.58H205.07V102.4H229.41V99.79H204.55V94.29ZM204.81 125.96V120.96H209.52C209.869 121.075 210.248 121.058 210.585 120.913C210.923 120.767 211.195 120.503 211.35 120.17L212.66 118.86H220.25L219.47 119.65H262.41V125.4L243.56 131.16C243.91 131.51 245.04 131.6 246.97 131.42H262.67V136.66H243.82C240.16 136.83 237.82 136.57 236.76 135.87L233.36 134.56L229.95 135.87C228.015 136.517 225.99 136.854 223.95 136.87H228.67L227.88 139.49H262.41V148.65C262.41 151.79 261.013 153.36 258.22 153.36H237.54V147.86H251.68C252.9 147.86 253.51 147.43 253.51 146.55V145.24H226.51L224.94 150.24C224.24 152.68 222.757 153.9 220.49 153.9H204.49V148.41H214.96C215.354 148.373 215.731 148.233 216.052 148.003C216.374 147.772 216.628 147.461 216.79 147.1L217.57 145.26H205.01V139.51H218.62L219.4 137.15H204.81V132H218.94C219.805 132.17 220.695 132.17 221.56 132C222.43 131.83 223.56 131.56 224.96 131.21L216.85 126.76H230.98L233.33 128.07L243.28 124.67H217.11C216.23 125.67 214.84 126.15 212.92 125.98L204.81 125.96ZM226.81 112.87H220.81C220.185 113.024 219.527 112.95 218.951 112.662C218.376 112.374 217.922 111.892 217.67 111.3L215.32 108.16H222.12L222.64 108.95C222.741 109.122 222.888 109.262 223.065 109.354C223.242 109.446 223.441 109.486 223.64 109.47H226.78V112.87H226.81ZM222.89 117.58H216.08V114.7H219.22C219.92 114.88 220.36 114.7 220.53 114.18L221.06 113.66H227.06L225.49 116.28C225.13 117.32 224.26 117.76 222.87 117.58H222.89ZM239.89 112.35V109.21H244.89C245.278 109.173 245.637 108.987 245.89 108.69L246.15 107.9H252.41L250.58 111.04C250.23 112.09 249.36 112.53 247.96 112.35H239.89ZM251.4 117.35H245.4C243.83 117.53 242.87 117.18 242.53 116.35L239.91 113.47H246.19L246.71 113.99C246.827 114.222 247.024 114.403 247.266 114.499C247.507 114.595 247.776 114.599 248.02 114.51H251.42V117.39L251.4 117.35Z" fill="white"/>
<path d="M220.51 154.46H204.05V148H215.05C215.55 148 216.05 147.64 216.45 146.93L216.91 145.85H204.6V139.1H218.35L218.8 137.74H204.31V131.51H218.94C219.772 131.675 220.628 131.675 221.46 131.51C222.04 131.39 222.76 131.23 223.59 131.03L215.1 126.38C214.365 126.522 213.614 126.556 212.87 126.48H204.31V120.48H209.52C210.43 120.65 210.73 120.32 210.91 119.96L211 119.84L212.45 118.38H221.45L220.66 119.17H262.88V125.79L245.77 131.02C246.08 131.02 246.46 131.02 246.89 130.95H263.14V137.19H243.79C240.06 137.37 237.67 137.09 236.5 136.35L233.33 135.13L230.1 136.37C229.814 136.493 229.52 136.597 229.22 136.68L228.5 139.07H262.88V148.73C262.88 153.03 260.33 153.94 258.19 153.94H237.01V147.44H251.65C252.98 147.44 252.98 146.9 252.98 146.63V145.82H226.89L225.43 150.45C224.68 153.11 223.02 154.46 220.51 154.46ZM205.05 153.46H220.51C222.51 153.46 223.84 152.38 224.51 150.16L226.19 144.82H254.02V146.63C254.02 147.31 253.72 148.44 251.69 148.44H238.05V152.94H258.23C260.75 152.94 261.92 151.6 261.92 148.73V140.07H227.2L227.98 137.45H222.64V136.45H223.94C225.923 136.421 227.89 136.084 229.77 135.45L233.37 134.07L237.05 135.5C237.7 135.93 239.4 136.4 243.81 136.2H262.18V132H246.98C244.27 132.25 243.56 131.94 243.22 131.59L242.64 131.01L261.92 125.11V120.23H218.29L219.07 119.44H212.9L211.79 120.55C211.576 120.962 211.227 121.288 210.8 121.47C210.373 121.653 209.895 121.681 209.45 121.55H205.34V125.55H212.95C214.76 125.71 215.95 125.34 216.75 124.42L216.9 124.24H246.32L233.32 128.69L230.88 127.33H218.83L226.35 131.46L225.11 131.77C223.71 132.12 222.56 132.39 221.68 132.56C220.753 132.75 219.797 132.75 218.87 132.56H205.31V136.79H220.16L219.04 140.15H205.57V144.9H218.41L217.33 147.43C217.13 147.882 216.812 148.271 216.409 148.557C216.006 148.842 215.532 149.012 215.04 149.05H205.04L205.05 153.46ZM215.54 126.24H231.11L233.38 127.51L240.27 125.15H217.33C216.839 125.664 216.222 126.04 215.54 126.24ZM223.43 118.12C223.234 118.134 223.036 118.134 222.84 118.12H215.56V114.24H219.33C219.92 114.39 219.99 114.18 220.04 114.04V113.93L220.56 113.41C219.87 113.533 219.159 113.419 218.542 113.086C217.924 112.754 217.438 112.224 217.16 111.58L214.24 107.68H222.31L222.98 108.68C223.05 108.8 223.13 108.98 223.61 108.98H227.25V113.17H227.9L225.9 116.5C225.725 117.009 225.385 117.446 224.934 117.739C224.483 118.033 223.946 118.167 223.41 118.12H223.43ZM216.56 117.12H222.93C224.44 117.31 224.84 116.65 225.01 116.12L225.06 116.02L226.17 114.16H221.24L220.94 114.46C220.794 114.793 220.525 115.056 220.189 115.194C219.854 115.332 219.477 115.334 219.14 115.2H216.56V117.12ZM216.28 108.7L218.09 111.15C218.304 111.641 218.687 112.039 219.169 112.272C219.652 112.505 220.202 112.558 220.72 112.42H226.29V110H223.65C223.35 110.032 223.047 109.973 222.781 109.83C222.516 109.687 222.299 109.468 222.16 109.2L221.82 108.69L216.28 108.7ZM214.21 118.12H204.57V101.9H228.91V100.29H204.05V93.79H262.89V100.29H238.28V101.64H262.62V117.3H252.99V108L251.07 111.29C250.75 112.17 249.96 113.14 247.93 112.89H239.41V108.75H244.88C245.114 108.73 245.331 108.623 245.49 108.45L245.83 107.45H253.02V107.14H238.31V117.61H228.94V107.4H214.24L214.21 118.12ZM205.57 117.12H213.21V106.39H229.91V116.6H237.28V106.13H253.99V116.34H261.62V102.68H237.28V99.3301H261.89V94.8301H205.05V99.3301H229.91V102.94H205.57V117.12ZM240.38 111.89H247.99C249.56 112.08 249.99 111.43 250.14 110.89V110.8L251.53 108.41H246.53L246.34 108.97L246.26 109.05C246.083 109.249 245.868 109.411 245.627 109.526C245.387 109.641 245.126 109.707 244.86 109.72H240.41L240.38 111.89ZM244.61 117.89C244.102 117.958 243.586 117.868 243.131 117.632C242.677 117.395 242.306 117.025 242.07 116.57L238.75 112.92H246.41L247.08 113.59C247.43 114.09 247.67 114.05 247.87 113.99H251.93V117.87H245.41C245.143 117.886 244.876 117.886 244.61 117.87V117.89ZM241.01 113.89L243.01 116.08C243.26 116.72 244.01 116.96 245.37 116.82H250.94V114.94H248.12C247.781 115.043 247.416 115.025 247.088 114.89C246.76 114.756 246.489 114.512 246.32 114.2L246.01 113.9L241.01 113.89Z" fill="black"/>
<path d="M32.73 225V219.49H49.0698V225H32.73ZM32.9099 194.71L39.9099 183.88H47.0698L38.99 196.55H41.4099L43.98 192.32H51.51L40.6799 209.58H49.1199V215.27H32.9099V210.13L38.7898 201.69H32.9099V194.71ZM58.7998 219.71V189.78H51.46V183.91H74.4099V189.78H65.96V219.71H74.5898V225.58H51.27V219.71H58.7998Z" fill="white"/>
<path d="M75.0898 226.05H50.77V219.18H58.2998V190.25H50.96V183.38H74.9099V190.25H66.46V219.18H75.0898V226.05ZM51.77 225.05H74.0898V220.18H65.46V189.25H73.9099V184.38H51.96V189.25H59.2998V220.18H51.77V225.05ZM49.5698 225.5H32.23V219H49.5698V225.5ZM33.23 224.5H48.5698V220H33.23V224.5ZM49.5698 215.77H32.4099V210L37.8298 202.22H32.4099V194.59L32.49 194.47L39.6199 183.41H47.96L39.8899 196.08H41.0798L43.6499 191.85H52.4099L41.5798 209.11H49.5798L49.5698 215.77ZM33.4099 214.77H48.5698V210.08H39.72L50.5498 192.82H44.21L41.6399 197.05H38.0598L46.1399 184.38H40.1399L33.3899 194.86V201.19H39.73L33.3899 210.29L33.4099 214.77Z" fill="black"/>
<path d="M115.41 189.45H120.99V200H127.08V189.48H132.68V219.55H127.08V207.38H120.99V219.55H115.41V189.45Z" fill="white"/>
<path d="M133.16 220H126.57V207.83H121.48V220H114.9V189H121.48V199.52H126.57V189H133.16V220ZM127.57 219H132.16V190H127.57V200.52H120.48V190H115.9V219H120.48V206.83H127.57V219Z" fill="black"/>
<path d="M136.41 189.45H151.34V195.87H141.99V200.65H150.67V206.78H141.99V212.71H151.62V219.52H136.41V189.45Z" fill="white"/>
<path d="M152.07 220H135.86V189H151.79V196.42H142.41V200.2H151.09V207.33H142.41V212.26H152.04L152.07 220ZM136.86 219H151.07V213.19H141.41V206.26H150.09V201.13H141.41V195.35H150.76V190H136.83L136.86 219Z" fill="black"/>
<path d="M165.66 214.55H159.33L158.45 219.55H152.76L159.54 189.48H165.62L172.4 219.55H166.56L165.66 214.55ZM164.5 208.05L162.5 197.24L160.5 208.05H164.5Z" fill="white"/>
<path d="M173.02 220H166.14L165.24 215H159.75L158.87 220H152.13L159.13 188.93H166.01L173.02 220ZM167.02 219H171.81L165.26 189.93H159.98L153.41 219H158.06L158.94 214H166.1L167.02 219ZM165.14 208.53H159.98L162.55 194.45L165.14 208.53ZM161.14 207.53H163.9L162.51 200L161.14 207.53Z" fill="black"/>
<path d="M171.01 189.45H176.83L180.89 211.09L184.89 189.45H190.55L183.85 219.52H177.85L171.01 189.45Z" fill="white"/>
<path d="M184.26 220H177.41L170.41 188.93H177.28L180.92 208.34L184.52 188.93H191.21L184.26 220ZM178.26 219H183.5L189.97 189.93H185.36L180.94 213.8L176.41 190H171.62L178.26 219Z" fill="black"/>
<path d="M190.56 189.45H196.75L200.38 199.59L204.03 189.45H210.18L203.18 206.92V219.52H197.59V206.92L190.56 189.45Z" fill="white"/>
<path d="M203.67 220H197.08V207L189.82 188.93H197.1L200.38 198.09L203.67 188.93H210.92L203.67 207V220ZM198.08 219H202.67V206.72L209.41 190H204.41L200.41 201.13L196.41 190H191.31L198.09 207L198.08 219Z" fill="black"/>
<path d="M220.41 189.45H234.19V195.91H226.01V201.16H233.01V207.23H226.01V219.52H220.41V189.45Z" fill="white"/>
<path d="M226.51 220H219.91V189H234.69V196.46H226.51V200.71H233.51V207.78H226.51V220ZM220.91 219H225.51V206.71H232.51V201.64H225.51V195.39H233.69V190H220.91V219Z" fill="black"/>
<path d="M236.49 204.5C236.49 199.6 237.31 195.77 238.95 193.04C239.627 191.805 240.621 190.774 241.831 190.053C243.041 189.332 244.421 188.949 245.829 188.941C247.237 188.934 248.622 189.304 249.839 190.013C251.056 190.721 252.061 191.742 252.75 192.97C254.37 195.637 255.18 199.4 255.18 204.26C255.259 207.177 254.901 210.089 254.12 212.9C253.565 214.887 252.504 216.696 251.04 218.15C249.683 219.406 247.888 220.081 246.04 220.03C244.235 220.089 242.467 219.516 241.04 218.41C239.506 217.033 238.384 215.257 237.8 213.28C236.873 210.448 236.43 207.48 236.49 204.5ZM242.07 204.5C242.07 207.5 242.4 209.72 243.07 211.05C243.283 211.617 243.658 212.11 244.149 212.465C244.64 212.821 245.224 213.024 245.83 213.05C246.436 213.044 247.026 212.854 247.522 212.506C248.019 212.158 248.398 211.668 248.61 211.1C249.277 209.767 249.61 207.434 249.61 204.1C249.75 201.984 249.408 199.864 248.61 197.9C248.392 197.33 248.012 196.836 247.516 196.48C247.02 196.125 246.43 195.923 245.82 195.9C245.224 195.934 244.651 196.141 244.171 196.496C243.691 196.852 243.326 197.34 243.12 197.9C242.42 199.3 242.07 201.513 242.07 204.54V204.5Z" fill="white"/>
<path d="M246.03 220.53C244.094 220.594 242.195 219.982 240.66 218.8C239.064 217.357 237.889 215.508 237.26 213.45C236.343 210.558 235.914 207.533 235.99 204.5C235.99 199.5 236.84 195.58 238.52 192.78C239.24 191.47 240.296 190.377 241.581 189.613C242.865 188.849 244.33 188.443 245.824 188.435C247.319 188.428 248.788 188.821 250.079 189.573C251.371 190.324 252.438 191.407 253.17 192.71C254.84 195.46 255.68 199.35 255.68 204.26C255.758 207.227 255.394 210.19 254.6 213.05C254.012 215.119 252.903 217.002 251.38 218.52C249.927 219.862 248.007 220.583 246.03 220.53ZM245.81 189.44C244.485 189.419 243.18 189.77 242.044 190.452C240.907 191.134 239.985 192.121 239.38 193.3C237.8 195.94 236.99 199.71 236.99 204.5C236.912 207.418 237.324 210.329 238.21 213.11C238.773 214.995 239.838 216.692 241.29 218.02C242.646 219.061 244.322 219.595 246.03 219.53C247.756 219.591 249.435 218.966 250.7 217.79C252.091 216.402 253.103 214.681 253.64 212.79C254.391 210.025 254.728 207.164 254.64 204.3C254.64 199.57 253.85 195.86 252.28 193.3C251.668 192.118 250.738 191.131 249.595 190.449C248.452 189.767 247.141 189.417 245.81 189.44ZM245.81 213.58C245.112 213.558 244.437 213.331 243.868 212.927C243.299 212.524 242.861 211.961 242.61 211.31C241.88 209.9 241.54 207.69 241.54 204.54C241.54 201.39 241.89 199.14 242.61 197.73C242.856 197.086 243.286 196.529 243.846 196.127C244.406 195.726 245.071 195.497 245.76 195.47C246.458 195.486 247.135 195.705 247.709 196.101C248.283 196.498 248.728 197.053 248.99 197.7C249.843 199.731 250.216 201.931 250.08 204.13C250.08 207.61 249.74 209.97 249.08 211.35C248.824 212.003 248.379 212.564 247.802 212.962C247.224 213.359 246.541 213.575 245.84 213.58H245.81ZM245.81 196.47C244.89 196.47 244.15 197.03 243.55 198.19C242.95 199.35 242.55 201.58 242.55 204.54C242.55 207.5 242.87 209.61 243.55 210.86C243.723 211.343 244.034 211.763 244.445 212.069C244.856 212.375 245.348 212.553 245.86 212.58C246.374 212.567 246.871 212.4 247.289 212.1C247.706 211.801 248.024 211.382 248.2 210.9C248.81 209.68 249.13 207.4 249.13 204.13C249.249 202.08 248.907 200.03 248.13 198.13C247.942 197.657 247.62 197.249 247.205 196.954C246.79 196.66 246.298 196.492 245.79 196.47H245.81Z" fill="black"/>
<path d="M267.25 208.63V202.37H275.87V215.19C274.64 216.705 273.159 217.998 271.49 219.01C270.093 219.713 268.543 220.057 266.98 220.01C265.067 220.09 263.196 219.435 261.75 218.18C260.233 216.686 259.148 214.81 258.61 212.75C257.831 210.057 257.457 207.263 257.5 204.46C257.443 201.56 257.852 198.67 258.71 195.9C259.345 193.753 260.585 191.833 262.28 190.37C263.713 189.337 265.456 188.825 267.22 188.92C268.763 188.822 270.305 189.133 271.69 189.82C272.757 190.504 273.609 191.474 274.15 192.62C274.88 194.14 275.376 195.762 275.62 197.43L270.24 199.03C270.102 198.077 269.716 197.177 269.12 196.42C268.873 196.133 268.566 195.903 268.22 195.748C267.875 195.592 267.499 195.515 267.12 195.52C266.478 195.55 265.859 195.768 265.34 196.147C264.821 196.525 264.425 197.048 264.2 197.65C263.48 199.06 263.11 201.3 263.11 204.36C263.11 207.62 263.477 209.954 264.21 211.36C264.461 211.971 264.886 212.496 265.431 212.869C265.977 213.242 266.619 213.447 267.28 213.46C267.905 213.461 268.52 213.306 269.07 213.01C269.782 212.585 270.434 212.067 271.01 211.47V208.64L267.25 208.63Z" fill="white"/>
<path d="M266.98 220.53C264.936 220.6 262.943 219.884 261.41 218.53C259.831 216.974 258.698 215.023 258.13 212.88C257.337 210.138 256.953 207.294 256.99 204.44C256.936 201.485 257.358 198.541 258.24 195.72C258.899 193.479 260.195 191.478 261.97 189.96C263.491 188.856 265.343 188.305 267.22 188.4C268.857 188.307 270.49 188.652 271.95 189.4C273.089 190.138 274.002 191.176 274.59 192.4C275.354 193.977 275.867 195.664 276.11 197.4L276.19 197.83L269.86 199.72L269.75 199.17C269.629 198.306 269.284 197.489 268.75 196.8C268.547 196.562 268.294 196.373 268.008 196.247C267.723 196.12 267.412 196.06 267.1 196.07C266.553 196.104 266.027 196.297 265.588 196.625C265.149 196.954 264.816 197.404 264.63 197.92C263.824 199.984 263.483 202.199 263.63 204.41C263.63 207.57 263.98 209.84 264.63 211.15C264.837 211.679 265.197 212.136 265.663 212.462C266.129 212.787 266.681 212.968 267.25 212.98C267.792 212.977 268.324 212.839 268.8 212.58C269.419 212.229 269.985 211.791 270.48 211.28V209.16H266.75V201.9H276.41V215.41L276.28 215.55C275.012 217.107 273.486 218.436 271.77 219.48C270.286 220.226 268.639 220.587 266.98 220.53ZM267.22 189.44C265.568 189.348 263.934 189.825 262.59 190.79C260.969 192.187 259.788 194.025 259.19 196.08C258.344 198.798 257.939 201.634 257.99 204.48C257.948 207.233 258.319 209.977 259.09 212.62C259.603 214.595 260.639 216.395 262.09 217.83C263.448 218.998 265.2 219.605 266.99 219.53C268.477 219.555 269.948 219.212 271.27 218.53C272.833 217.587 274.232 216.394 275.41 215V202.87H267.79V208.13H271.52V211.67L271.37 211.81C270.763 212.447 270.07 212.996 269.31 213.44C268.694 213.769 268.008 213.944 267.31 213.95C266.559 213.941 265.826 213.713 265.203 213.293C264.579 212.874 264.092 212.282 263.8 211.59C263.02 210.11 262.64 207.75 262.64 204.38C262.64 201.21 263.02 198.94 263.79 197.44C264.053 196.755 264.513 196.162 265.11 195.736C265.707 195.309 266.416 195.067 267.15 195.04C267.604 195.029 268.056 195.119 268.471 195.304C268.886 195.489 269.254 195.765 269.55 196.11C270.102 196.779 270.487 197.571 270.67 198.42L275.11 197.1C274.862 195.635 274.411 194.211 273.77 192.87C273.263 191.81 272.474 190.911 271.49 190.27C270.165 189.622 268.692 189.335 267.22 189.44Z" fill="black"/>
<path d="M140.55 62.76H41.3298C38.5451 62.76 35.8744 61.6537 33.9053 59.6846C31.9361 57.7154 30.8298 55.0448 30.8298 52.26C30.8298 49.4752 31.9361 46.8046 33.9053 44.8354C35.8744 42.8663 38.5451 41.76 41.3298 41.76H140.55C143.335 41.76 146.005 42.8663 147.975 44.8354C149.944 46.8046 151.05 49.4752 151.05 52.26C151.05 55.0448 149.944 57.7154 147.975 59.6846C146.005 61.6537 143.335 62.76 140.55 62.76Z" fill="#D63128"/>
<path d="M140.55 63.26H41.3298C38.4125 63.26 35.6147 62.101 33.5518 60.0381C31.4889 57.9752 30.3298 55.1774 30.3298 52.26C30.3298 49.3426 31.4889 46.5448 33.5518 44.4819C35.6147 42.419 38.4125 41.26 41.3298 41.26H140.55C143.467 41.26 146.265 42.419 148.328 44.4819C150.391 46.5448 151.55 49.3426 151.55 52.26C151.55 55.1774 150.391 57.9752 148.328 60.0381C146.265 62.101 143.467 63.26 140.55 63.26ZM41.3298 42.26C38.6777 42.26 36.1342 43.3136 34.2588 45.189C32.3834 47.0643 31.3298 49.6078 31.3298 52.26C31.3298 54.9122 32.3834 57.4557 34.2588 59.3311C36.1342 61.2064 38.6777 62.26 41.3298 62.26H140.55C143.202 62.26 145.746 61.2064 147.621 59.3311C149.496 57.4557 150.55 54.9122 150.55 52.26C150.55 49.6078 149.496 47.0643 147.621 45.189C145.746 43.3136 143.202 42.26 140.55 42.26H41.3298Z" fill="#010101"/>
<path d="M140.55 98H41.3298C38.5451 98 35.8744 96.8937 33.9053 94.9246C31.9361 92.9554 30.8298 90.2848 30.8298 87.5C30.8298 84.7152 31.9361 82.0446 33.9053 80.0754C35.8744 78.1063 38.5451 77 41.3298 77H140.55C143.335 77 146.005 78.1063 147.975 80.0754C149.944 82.0446 151.05 84.7152 151.05 87.5C151.05 90.2848 149.944 92.9554 147.975 94.9246C146.005 96.8937 143.335 98 140.55 98Z" fill="#D63128"/>
<path d="M140.55 98.46H41.3298C38.4125 98.46 35.6147 97.3012 33.5518 95.2383C31.4889 93.1754 30.3298 90.3773 30.3298 87.46C30.3298 84.5426 31.4889 81.7448 33.5518 79.6819C35.6147 77.619 38.4125 76.46 41.3298 76.46H140.55C143.467 76.46 146.265 77.619 148.328 79.6819C150.391 81.7448 151.55 84.5426 151.55 87.46C151.55 90.3773 150.391 93.1754 148.328 95.2383C146.265 97.3012 143.467 98.46 140.55 98.46ZM41.3298 77.46C38.6777 77.46 36.1342 78.5135 34.2588 80.3889C32.3834 82.2643 31.3298 84.8078 31.3298 87.46C31.3298 90.1121 32.3834 92.6556 34.2588 94.531C36.1342 96.4064 38.6777 97.46 41.3298 97.46H140.55C143.202 97.46 145.746 96.4064 147.621 94.531C149.496 92.6556 150.55 90.1121 150.55 87.46C150.55 84.8078 149.496 82.2643 147.621 80.3889C145.746 78.5135 143.202 77.46 140.55 77.46H41.3298Z" fill="#010101"/>
<path d="M140.55 133.15H41.3298C38.5451 133.15 35.8744 132.044 33.9053 130.075C31.9361 128.106 30.8298 125.435 30.8298 122.65C30.8298 119.865 31.9361 117.194 33.9053 115.225C35.8744 113.256 38.5451 112.15 41.3298 112.15H140.55C143.335 112.15 146.005 113.256 147.975 115.225C149.944 117.194 151.05 119.865 151.05 122.65C151.05 125.435 149.944 128.106 147.975 130.075C146.005 132.044 143.335 133.15 140.55 133.15Z" fill="#D63128"/>
<path d="M140.55 133.65H41.3298C38.4125 133.65 35.6147 132.491 33.5518 130.428C31.4889 128.365 30.3298 125.567 30.3298 122.65C30.3298 119.733 31.4889 116.935 33.5518 114.872C35.6147 112.809 38.4125 111.65 41.3298 111.65H140.55C143.467 111.65 146.265 112.809 148.328 114.872C150.391 116.935 151.55 119.733 151.55 122.65C151.55 125.567 150.391 128.365 148.328 130.428C146.265 132.491 143.467 133.65 140.55 133.65ZM41.3298 112.65C38.6777 112.65 36.1342 113.703 34.2588 115.579C32.3834 117.454 31.3298 119.998 31.3298 122.65C31.3298 125.302 32.3834 127.846 34.2588 129.721C36.1342 131.596 38.6777 132.65 41.3298 132.65H140.55C143.202 132.65 145.746 131.596 147.621 129.721C149.496 127.846 150.55 125.302 150.55 122.65C150.55 119.998 149.496 117.454 147.621 115.579C145.746 113.703 143.202 112.65 140.55 112.65H41.3298Z" fill="#010101"/>
</svg>
