<svg width="300" height="246" viewBox="0 0 300 246" fill="none" xmlns="http://www.w3.org/2000/svg">
<path d="M288 0H12C8.8174 0 5.76515 1.26427 3.51471 3.51471C1.26427 5.76514 0 8.81746 0 12.0001V234C0 237.183 1.26427 240.235 3.51471 242.485C5.76515 244.736 8.8174 246 12 246H288C291.183 246 294.235 244.736 296.485 242.485C298.736 240.235 300 237.183 300 234V12.0001C300 8.81746 298.736 5.76514 296.485 3.51471C294.235 1.26427 291.183 0 288 0Z" fill="#61707E"/>
<path d="M166.28 12.31H15C14.2494 12.31 13.5296 12.6081 12.9988 13.1389C12.4681 13.6696 12.17 14.3894 12.17 15.1399V159.8C12.17 160.551 12.4678 161.272 12.9982 161.805C13.5287 162.337 14.2485 162.637 15 162.64H166.28C167.031 162.637 167.751 162.337 168.282 161.805C168.812 161.272 169.11 160.551 169.11 159.8V15.1399C169.11 14.3894 168.812 13.6696 168.281 13.1389C167.75 12.6081 167.031 12.31 166.28 12.31Z" fill="#D3E2E2"/>
<path d="M181.01 12.31H285.01C285.761 12.31 286.482 12.6078 287.015 13.1382C287.547 13.6687 287.847 14.3885 287.85 15.1399V162.64H181.01V12.31Z" fill="#3265FE"/>
<path d="M203.76 31.31H227.84V21.31H239.09V31.31H263.41V39.42H240.41L256.9 70.3C257.59 72.05 258.99 72.83 261.09 72.66H263.41V81.0299H258.7C253.993 81.2033 250.853 79.6333 249.28 76.32L233.6 47.57L218.41 76.06C217.363 78.1466 216.14 79.3667 214.74 79.72C213.687 80.3867 211.243 80.72 207.41 80.72H203.75V72.87H206.41C208.32 73.22 209.81 72.4299 210.86 70.5099L226.86 39.37H203.86V31.2599L203.76 31.31Z" fill="white"/>
<path d="M258.02 81.57C253.51 81.57 250.42 79.88 248.85 76.57L233.6 48.57L218.86 76.2699C217.77 78.4399 216.46 79.75 214.95 80.17C213.78 80.9 211.31 81.25 207.42 81.25H203.26V72.3999H206.41C207.217 72.5768 208.061 72.4632 208.793 72.079C209.524 71.6949 210.097 71.0649 210.41 70.3L225.99 39.9H203.26V30.79H227.34V20.79H239.59V30.79H263.93V39.9H241.23L257.33 70.05C257.591 70.7857 258.11 71.4023 258.789 71.7863C259.469 72.1703 260.265 72.2958 261.03 72.1399H263.93V81.57H258.02ZM233.59 46.5L249.74 76.1C251.24 79.27 254.18 80.71 258.74 80.55H262.97V73.18H261.12C260.154 73.3492 259.159 73.1749 258.307 72.6872C257.456 72.1995 256.803 71.4291 256.46 70.5099L239.61 38.94H262.97V31.83H238.59V21.83H228.34V31.83H204.26V38.94H227.61L211.27 70.81C210.11 72.95 208.42 73.81 206.27 73.43H204.27V80.2799H207.41C212.04 80.2799 213.8 79.7599 214.41 79.28L214.57 79.21C215.81 78.9 216.93 77.75 217.91 75.81L233.59 46.5Z" fill="black"/>
<path d="M287.83 175.02V230.86C287.83 231.611 287.532 232.33 287.001 232.861C286.47 233.392 285.751 233.69 285 233.69H104.41V175.02H287.83Z" fill="#3265FE"/>
<path d="M92.93 233.69H15C14.2494 233.69 13.5296 233.392 12.9988 232.861C12.4681 232.33 12.17 231.611 12.17 230.86V175.02H92.94L92.93 233.69Z" fill="#3265FE"/>
<path d="M206.64 144.3V93.7799H262.91V144.78C262.73 145.78 263.34 146.52 264.74 146.87V153.42H256.89C256.177 153.454 255.471 153.272 254.864 152.897C254.257 152.522 253.778 151.973 253.49 151.32H243.28C241.187 151.32 239.877 150.537 239.35 148.97L234.64 140.59L230.45 147.92C230.078 148.939 229.395 149.815 228.498 150.425C227.6 151.035 226.534 151.348 225.45 151.32H216.03C215.838 152.038 215.38 152.655 214.747 153.046C214.115 153.436 213.358 153.57 212.63 153.42H204.51V146.09C206.12 146.3 206.81 145.69 206.64 144.3ZM252.7 144.03V101.9H216.58V144.03H220.51C221.73 144.21 222.43 143.86 222.6 143.03L229.41 131.03L216.85 106.57H227.32L234.91 121.22L242.5 106.57H252.18L239.88 130.65L246.16 142.16C246.68 143.56 247.47 144.16 248.51 143.99L252.7 144.03Z" fill="white"/>
<path d="M213.15 153.98H204.04V145.57L204.6 145.63C204.829 145.685 205.066 145.693 205.299 145.653C205.531 145.614 205.752 145.528 205.95 145.4C206.049 145.255 206.117 145.092 206.15 144.92C206.182 144.748 206.179 144.571 206.14 144.4V93.32H263.41V144.86C263.35 145.27 263.21 146.06 264.86 146.47L265.24 146.56V154H256.89C256.138 154.033 255.392 153.854 254.738 153.483C254.083 153.111 253.547 152.563 253.19 151.9H243.28C240.96 151.9 239.48 150.99 238.88 149.2L234.64 141.68L230.89 148.25C230.475 149.342 229.733 150.28 228.764 150.933C227.795 151.587 226.648 151.924 225.48 151.9H216.41C216.157 152.547 215.705 153.098 215.119 153.471C214.533 153.845 213.844 154.023 213.15 153.98ZM205.04 152.98H212.66C213.28 153.129 213.934 153.027 214.48 152.698C215.027 152.369 215.422 151.838 215.58 151.22L215.7 150.88H225.48C226.464 150.899 227.429 150.609 228.24 150.051C229.05 149.493 229.666 148.696 230 147.77L234.65 139.64L239.79 148.78C240.28 150.22 241.41 150.88 243.28 150.88H253.8L253.93 151.16C254.183 151.734 254.607 152.217 255.143 152.543C255.68 152.868 256.304 153.021 256.93 152.98H264.28V147.31C262.43 146.7 262.34 145.47 262.45 144.76V94.3H207.14V144.3C207.205 144.621 207.195 144.953 207.112 145.271C207.029 145.588 206.874 145.882 206.66 146.13C206.216 146.524 205.633 146.725 205.04 146.69V152.98ZM221.04 144.6C220.83 144.613 220.62 144.613 220.41 144.6H216.05V101.47H253.17V144.57H248.51C247.69 144.72 246.46 144.47 245.69 142.42L239.31 130.73L251.41 107.11H242.85L234.96 122.35L227.06 107.11H217.72L230.03 130.96L223.13 143.17C223.027 143.62 222.757 144.015 222.375 144.274C221.993 144.534 221.527 144.64 221.07 144.57L221.04 144.6ZM217.04 143.6H220.47C221.91 143.81 222.02 143.23 222.07 142.96L222.13 142.81L228.8 131.01L217.04 108.23V143.6ZM240.41 130.68L246.57 141.96C247.17 143.56 247.9 143.62 248.4 143.54H252.17V107.67L240.41 130.68ZM217.05 106.11H227.59L234.88 120.18L242.16 106.11H252.16V102.4H217.08L217.05 106.11Z" fill="black"/>
<path d="M73.49 225.75H31.6299V220.75H32.91V208.45H71.83V220.75H73.49V225.75ZM31.81 186.1H36.03L35.3 183.89H43.41L44.33 186.1H61.22L61.95 183.89H70.03L69.29 186.1H73.52V191.42H31.81V186.1ZM32.73 206.84V193.26H38.97V206.84H32.73ZM38.97 220.84H44.3V213.84H38.97V220.84ZM42.46 206.84V193.26H48.15V206.84H42.46ZM49.8 195.46H52.56C52.9469 195.534 53.3476 195.463 53.6853 195.26C54.023 195.057 54.2739 194.736 54.39 194.36L55.31 192.52H61.55L61.37 193.07H73.49V197.66H60.08L59.53 198.77C59.3931 199.18 59.12 199.53 58.7561 199.763C58.3922 199.996 57.9594 200.097 57.53 200.05H49.8199V195.46H49.8ZM49.8 213.82V220.82H54.94V213.82H49.8ZM52.37 205.19L49.99 200.78H57.33L57.8799 201.52C57.9999 202.25 58.55 202.52 59.53 202.44H73.53V206.84H56.41C54.09 206.973 52.7566 206.423 52.41 205.19H52.37ZM60.8199 220.8H66.14V213.8H60.8199V220.8Z" fill="white"/>
<path d="M73.99 226.25H31.1299V220.25H32.41V207.95H72.33V220.25H73.99V226.25ZM32.1299 225.25H72.99V221.25H71.33V208.95H33.41V221.25H32.1299V225.25ZM66.64 221.25H60.3199V213.25H66.64V221.25ZM61.3199 220.25H65.64V214.25H61.3199V220.25ZM55.44 221.25H49.3V213.25H55.41L55.44 221.25ZM50.3 220.25H54.41V214.25H50.27L50.3 220.25ZM44.8 221.25H38.47V213.25H44.8V221.25ZM39.47 220.25H43.8V214.25H39.47V220.25ZM55.79 207.31C53.64 207.31 52.33 206.65 51.91 205.31L49.15 200.2H49.3V194.88H52.56C52.8475 194.951 53.1513 194.907 53.407 194.757C53.6627 194.608 53.8502 194.365 53.93 194.08L55 191.94H62.25L62.06 192.49H73.99V198.08H60.41L60 198.91C59.8345 199.362 59.5373 199.754 59.147 200.036C58.7567 200.317 58.2911 200.475 57.81 200.49L58.37 201.24V201.36C58.37 201.58 58.47 201.99 59.47 201.86H73.99V207.26H56.41L55.79 207.31ZM50.79 201.23L52.79 205C53.08 206 54.27 206.4 56.33 206.29H72.93V202.89H59.53C58.02 203.08 57.53 202.27 57.41 201.68L57.08 201.23H50.79ZM50.2599 199.5H57.47C57.94 199.56 58.53 199.5 59.05 198.5L59.74 197.12H72.95V193.57H60.67L60.86 193.02H55.62L54.84 194.58C54.6764 195.052 54.3499 195.45 53.9193 195.703C53.4886 195.956 52.9818 196.047 52.49 195.96H50.3L50.2599 199.5ZM48.61 207.29H41.92V192.71H48.61V207.29ZM42.92 206.29H47.61V193.71H42.92V206.29ZM39.43 207.29H32.19V192.71H39.43V207.29ZM33.19 206.29H38.43V193.71H33.19V206.29ZM73.95 191.87H31.31V185.57H35.31L34.58 183.36H43.68L44.6 185.57H60.8L61.53 183.36H70.66L69.93 185.57H73.93L73.95 191.87ZM32.27 190.87H72.95V186.57H68.53L69.2599 184.36H62.2599L61.53 186.57H43.96L43.04 184.36H36.04L36.78 186.57H32.31L32.27 190.87Z" fill="black"/>
<path d="M168.54 208.64V202.39H177.16V215.2C175.93 216.718 174.448 218.013 172.78 219.03C171.383 219.733 169.833 220.077 168.27 220.03C166.358 220.114 164.487 219.463 163.04 218.21C161.522 216.713 160.437 214.833 159.9 212.77C159.12 210.081 158.746 207.29 158.79 204.49C158.732 201.59 159.141 198.7 160 195.93C160.635 193.783 161.874 191.863 163.57 190.4C165.001 189.363 166.745 188.848 168.51 188.94C170.054 188.839 171.598 189.154 172.98 189.85C174.047 190.534 174.899 191.504 175.44 192.65C176.17 194.166 176.666 195.785 176.91 197.45L171.53 199.05C171.392 198.1 171.006 197.203 170.41 196.45C170.163 196.163 169.856 195.933 169.51 195.778C169.164 195.622 168.789 195.545 168.41 195.55C167.769 195.579 167.151 195.796 166.632 196.172C166.113 196.549 165.716 197.07 165.49 197.67C164.636 199.802 164.264 202.097 164.4 204.39C164.4 207.64 164.77 209.97 165.5 211.39C165.752 212 166.177 212.523 166.722 212.894C167.268 213.266 167.91 213.469 168.57 213.48C169.195 213.481 169.81 213.326 170.36 213.03C171.076 212.611 171.73 212.093 172.3 211.49V208.66L168.54 208.64Z" fill="white"/>
<path d="M168.27 220.57C166.226 220.64 164.233 219.924 162.7 218.57C161.121 217.01 159.988 215.056 159.42 212.91C158.629 210.171 158.248 207.33 158.29 204.48C158.232 201.526 158.651 198.581 159.53 195.76C160.189 193.519 161.485 191.518 163.26 190C164.779 188.892 166.632 188.338 168.51 188.43C170.148 188.332 171.782 188.677 173.24 189.43C174.379 190.168 175.293 191.206 175.88 192.43C176.645 194.007 177.158 195.694 177.4 197.43L177.48 197.87L171.15 199.75L171.04 199.21C170.919 198.346 170.574 197.529 170.04 196.84C169.837 196.602 169.584 196.413 169.298 196.287C169.013 196.16 168.702 196.1 168.39 196.11C167.842 196.141 167.315 196.333 166.876 196.662C166.437 196.991 166.104 197.443 165.92 197.96C165.23 199.3 164.92 201.48 164.92 204.45C164.92 207.6 165.27 209.87 165.92 211.19C166.128 211.719 166.487 212.174 166.954 212.498C167.42 212.822 167.972 213 168.54 213.01C169.081 213.01 169.614 212.876 170.09 212.62C170.707 212.261 171.272 211.82 171.77 211.31V209.19H168.04V201.94H177.66V215.44L177.53 215.58C176.261 217.14 174.736 218.472 173.02 219.52C171.547 220.256 169.916 220.616 168.27 220.57ZM168.51 189.48C166.858 189.393 165.226 189.869 163.88 190.83C162.261 192.233 161.081 194.073 160.48 196.13C159.637 198.848 159.235 201.684 159.29 204.53C159.246 207.282 159.613 210.026 160.38 212.67C160.895 214.644 161.931 216.443 163.38 217.88C164.742 219.041 166.492 219.644 168.28 219.57C169.767 219.593 171.237 219.249 172.56 218.57C174.118 217.611 175.506 216.402 176.67 214.99V202.87H169.05V208.12H172.78V211.66L172.63 211.81C172.023 212.445 171.33 212.99 170.57 213.43C169.956 213.763 169.269 213.939 168.57 213.94C167.818 213.933 167.085 213.706 166.461 213.287C165.837 212.867 165.35 212.274 165.06 211.58C164.28 210.1 163.9 207.75 163.9 204.38C163.9 201.21 164.28 198.93 165.05 197.43C165.314 196.746 165.773 196.155 166.371 195.73C166.968 195.305 167.677 195.065 168.41 195.04C168.864 195.029 169.316 195.119 169.731 195.304C170.146 195.489 170.515 195.765 170.81 196.11C171.363 196.775 171.747 197.564 171.93 198.41L176.37 197.09C176.122 195.625 175.671 194.201 175.03 192.86C174.52 191.802 173.732 190.903 172.75 190.26C171.432 189.624 169.97 189.345 168.51 189.45V189.48Z" fill="black"/>
<path d="M191.56 214.57H185.23L184.35 219.57H178.66L185.41 189.47H191.49L198.27 219.53H192.43L191.56 214.57ZM190.4 208.07L188.4 197.26L186.4 208.07H190.4Z" fill="white"/>
<path d="M198.92 220.03H192.04L191.14 215.03H185.65L184.77 220.03H178.03L185.03 188.97H191.91L198.92 220.03ZM192.92 219.03H197.72L191.17 189.97H185.89L179.33 219.03H183.98L184.86 214.03H192.02L192.92 219.03ZM191 208.57H185.84L188.41 194.49L191 208.57ZM187 207.57H189.76L188.37 200.03L187 207.57Z" fill="black"/>
<path d="M200.07 189.47H205.64V212.13H214.34V219.53H200.07V189.47Z" fill="white"/>
<path d="M214.84 220.03H199.57V188.97H206.14V211.63H214.84V220.03ZM200.57 219.03H213.84V212.63H205.14V189.97H200.57V219.03Z" fill="black"/>
<path d="M216.86 189.47H231.8V195.89H222.41V200.66H231.09V206.8H222.41V212.72H232.03V219.57H216.86V189.47Z" fill="white"/>
<path d="M232.57 220.03H216.41V188.97H232.35V196.39H223V200.16H231.67V207.3H223V212.22H232.62L232.57 220.03ZM217.36 219.03H231.57V213.22H221.95V206.3H230.62V201.16H221.95V195.39H231.3V189.97H217.41L217.36 219.03Z" fill="black"/>
<path d="M77.04 29.57L37.04 140.81L47.18 145.41L71.02 80.41L144.13 65.18V54.73L77.04 29.57ZM75.73 67.7599L84.11 44.94L121.29 58.46L75.73 67.7599Z" fill="#3265FE"/>
<path d="M47.52 146.07L36.47 141.07L76.74 28.92L144.68 54.42V65.57L144.29 65.6499L71.41 80.86L47.52 146.07ZM37.72 140.52L46.95 144.72L70.7 80L143.7 64.79V55.09L77.36 30.2L37.72 140.52ZM74.95 68.41L83.81 44.28L123.12 58.57L74.95 68.41ZM84.41 45.57L76.5099 67.08L119.45 58.31L84.41 45.57Z" fill="black"/>
</svg>
