<svg width="300" height="246" viewBox="0 0 300 246" fill="none" xmlns="http://www.w3.org/2000/svg">
<path d="M288 0H12C8.8174 0 5.76515 1.26421 3.51471 3.51465C1.26427 5.76509 0 8.8174 0 12V234C0 237.183 1.26427 240.235 3.51471 242.485C5.76515 244.736 8.8174 246 12 246H288C291.183 246 294.235 244.736 296.485 242.485C298.736 240.235 300 237.183 300 234V12C300 8.8174 298.736 5.76509 296.485 3.51465C294.235 1.26421 291.183 0 288 0Z" fill="#61707E"/>
<path d="M166.28 12.3099H15C14.2494 12.3099 13.5296 12.6081 12.9988 13.1388C12.4681 13.6695 12.17 14.3895 12.17 15.14V159.8C12.17 160.551 12.4678 161.272 12.9982 161.805C13.5287 162.337 14.2485 162.637 15 162.64H166.28C167.031 162.637 167.751 162.337 168.282 161.805C168.812 161.272 169.11 160.551 169.11 159.8V15.14C169.11 14.3895 168.812 13.6695 168.281 13.1388C167.75 12.6081 167.031 12.3099 166.28 12.3099Z" fill="#D3E2E2"/>
<path d="M181.01 12.3099H285.01C285.761 12.3099 286.482 12.6077 287.015 13.1382C287.547 13.6686 287.847 14.3885 287.85 15.14V162.64H181.01V12.3099Z" fill="#D63128"/>
<path d="M203.76 31.3099H227.84V21.3099H239.09V31.3099H263.41V39.4199H240.41L256.9 70.2999C257.59 72.0499 258.99 72.8299 261.09 72.6599H263.41V81.08H258.7C253.993 81.2466 250.853 79.6767 249.28 76.37L233.58 47.58L218.41 76.08C217.363 78.1666 216.14 79.3867 214.74 79.74C213.687 80.4067 211.243 80.74 207.41 80.74H203.75V72.89H206.41C208.32 73.24 209.81 72.4499 210.86 70.5299L226.86 39.39H203.86V31.2799L203.76 31.3099Z" fill="white"/>
<path d="M258.02 81.5499C253.51 81.5499 250.42 79.8599 248.85 76.5499L233.6 48.5499L218.86 76.25C217.77 78.42 216.46 79.7299 214.95 80.1499C213.78 80.8799 211.31 81.23 207.42 81.23H203.26V72.38H206.41C207.217 72.5569 208.061 72.4432 208.793 72.0591C209.524 71.6749 210.097 71.0448 210.41 70.2799L225.99 39.88H203.26V30.7699H227.34V20.7699H239.59V30.7699H263.93V39.88H241.23L257.33 70.0299C257.591 70.7656 258.11 71.3822 258.789 71.7662C259.469 72.1502 260.265 72.2759 261.03 72.12H263.93V81.49H258.72L258.02 81.5499ZM233.59 46.48L249.74 76.08C251.24 79.25 254.18 80.6899 258.74 80.5299H262.97V73.1599H261.12C260.154 73.3291 259.159 73.1548 258.307 72.6671C257.456 72.1794 256.803 71.4092 256.46 70.49L239.61 38.9199H262.97V31.8099H238.59V21.8099H228.34V31.8099H204.26V38.9199H227.61L211.27 70.7899C210.11 72.9299 208.42 73.7899 206.27 73.4099H204.27V80.26H207.41C212.04 80.26 213.8 79.74 214.41 79.26L214.57 79.1899C215.81 78.8799 216.93 77.7299 217.91 75.7899L233.59 46.48Z" fill="black"/>
<path d="M287.83 175.02V230.86C287.83 231.611 287.532 232.33 287.001 232.861C286.47 233.392 285.751 233.69 285 233.69H104.41V175.02H287.83Z" fill="#D63128"/>
<path d="M92.93 233.69H15C14.2494 233.69 13.5296 233.392 12.9988 232.861C12.4681 232.33 12.17 231.611 12.17 230.86V175.02H92.94L92.93 233.69Z" fill="#D63128"/>
<path d="M206.64 144.3V93.7799H262.91V144.78C262.73 145.78 263.34 146.52 264.74 146.87V153.42H256.89C256.177 153.454 255.471 153.272 254.864 152.897C254.257 152.523 253.778 151.973 253.49 151.32H243.28C241.187 151.32 239.877 150.537 239.35 148.97L234.64 140.59L230.45 147.92C230.078 148.939 229.395 149.815 228.498 150.425C227.6 151.035 226.534 151.348 225.45 151.32H216.03C215.838 152.038 215.38 152.655 214.747 153.046C214.115 153.436 213.358 153.57 212.63 153.42H204.51V146.09C206.12 146.3 206.81 145.69 206.64 144.3ZM252.7 144.03V101.9H216.58V144.08H220.51C221.73 144.26 222.43 143.91 222.6 143.08L229.41 131.08L216.85 106.74H227.32L234.91 121.39L242.5 106.74H252.18L239.88 130.82L246.16 142.33C246.68 143.73 247.47 144.33 248.51 144.16L252.7 144.03Z" fill="white"/>
<path d="M213.15 153.98C212.97 153.99 212.79 153.99 212.61 153.98H204.04V145.59L204.6 145.65C204.829 145.705 205.066 145.713 205.299 145.673C205.531 145.634 205.752 145.548 205.95 145.42C206.049 145.275 206.117 145.112 206.15 144.94C206.182 144.768 206.179 144.591 206.14 144.42V93.2799H263.41V144.82C263.35 145.24 263.21 146.02 264.86 146.43L265.24 146.52V153.96H256.89C256.138 153.993 255.392 153.814 254.738 153.443C254.083 153.071 253.547 152.523 253.19 151.86H243.28C240.96 151.86 239.48 150.95 238.88 149.16L234.64 141.64L230.89 148.21C230.475 149.302 229.733 150.24 228.764 150.893C227.795 151.547 226.648 151.884 225.48 151.86H216.41C216.164 152.515 215.715 153.074 215.128 153.455C214.542 153.837 213.848 154.02 213.15 153.98ZM205.04 152.98H212.66C213.28 153.129 213.934 153.027 214.48 152.698C215.027 152.369 215.422 151.838 215.58 151.22L215.7 150.88H225.48C226.464 150.899 227.429 150.609 228.24 150.051C229.05 149.493 229.666 148.695 230 147.77L234.65 139.64L239.79 148.78C240.28 150.22 241.41 150.88 243.28 150.88H253.8L253.93 151.16C254.183 151.734 254.607 152.217 255.143 152.543C255.68 152.868 256.304 153.021 256.93 152.98H264.28V147.31C262.43 146.7 262.34 145.47 262.45 144.76V94.2799H207.14V144.28C207.205 144.601 207.195 144.933 207.112 145.251C207.029 145.568 206.874 145.862 206.66 146.11C206.216 146.504 205.633 146.705 205.04 146.67V152.98ZM221.04 144.6C220.83 144.613 220.62 144.613 220.41 144.6H216.05V101.47H253.17V144.6H248.51C247.69 144.75 246.46 144.5 245.69 142.45L239.31 130.76L251.41 107.08H242.85L234.96 122.32L227.01 107.08H217.67L229.98 130.93L223.08 143.14C222.986 143.588 222.727 143.984 222.355 144.251C221.983 144.517 221.524 144.635 221.07 144.58L221.04 144.6ZM217.04 143.6H220.47C221.91 143.81 222.02 143.23 222.07 142.96L222.13 142.81L228.8 131.01L217.04 108.23V143.6ZM240.41 130.68L246.57 141.96C247.17 143.56 247.9 143.62 248.4 143.54H252.17V107.67L240.41 130.68ZM217.08 106.08H227.62L234.91 120.15L242.19 106.08H252.19V102.37H217.08V106.08Z" fill="black"/>
<path d="M32.73 225.02V219.51H49.0699V225.02H32.73ZM32.91 194.73L39.91 183.89H47.0699L38.99 196.56H41.41L43.98 192.34H51.5099L40.67 209.6H49.12V215.29H32.91V210.15L38.79 201.7H32.91V194.73ZM58.8 219.73V189.81H51.46V183.93H74.41V189.81H65.97V219.73H74.6V225.61H51.27V219.73H58.8Z" fill="white"/>
<path d="M75.09 226.08H50.77V219.2H58.3V190.28H50.95V183.4H74.95V190.28H66.5099V219.2H75.14L75.09 226.08ZM51.77 225.08H74.09V220.2H65.46V189.28H73.9V184.4H51.9V189.28H59.25V220.2H51.72L51.77 225.08ZM49.5699 225.53H32.23V219.02H49.5699V225.53ZM33.23 224.53H48.5699V220.02H33.23V224.53ZM49.5699 215.8H32.41V210L37.83 202.21H32.41V194.59L39.62 183.4H47.96L39.8799 196.08H41.08L43.65 191.86H52.41L41.53 209.08H49.53L49.5699 215.8ZM33.41 214.8H48.5699V210.08H39.72L50.55 192.82H44.21L41.64 197.04H38.06L46.14 184.37H40.14L33.41 194.87V201.2H39.74L33.41 210.3V214.8Z" fill="black"/>
<path d="M168.54 208.64V202.39H177.16V215.2C175.93 216.718 174.448 218.013 172.78 219.03C171.383 219.733 169.833 220.077 168.27 220.03C166.358 220.114 164.487 219.463 163.04 218.21C161.522 216.713 160.437 214.833 159.9 212.77C159.12 210.081 158.746 207.29 158.79 204.49C158.732 201.59 159.141 198.7 160 195.93C160.635 193.783 161.874 191.863 163.57 190.4C165.001 189.363 166.745 188.848 168.51 188.94C170.054 188.839 171.598 189.154 172.98 189.85C174.047 190.534 174.899 191.504 175.44 192.65C176.17 194.166 176.666 195.785 176.91 197.45L171.53 199.05C171.392 198.1 171.006 197.203 170.41 196.45C170.163 196.163 169.856 195.933 169.51 195.778C169.164 195.622 168.789 195.545 168.41 195.55C167.769 195.579 167.151 195.796 166.632 196.172C166.113 196.549 165.716 197.07 165.49 197.67C164.636 199.802 164.264 202.097 164.4 204.39C164.4 207.64 164.77 209.97 165.5 211.39C165.752 212 166.177 212.523 166.722 212.894C167.268 213.266 167.91 213.469 168.57 213.48C169.195 213.481 169.81 213.326 170.36 213.03C171.076 212.611 171.73 212.093 172.3 211.49V208.66L168.54 208.64Z" fill="white"/>
<path d="M168.27 220.54C166.226 220.61 164.233 219.894 162.7 218.54C161.121 216.98 159.988 215.026 159.42 212.88C158.629 210.141 158.248 207.3 158.29 204.45C158.232 201.496 158.651 198.551 159.53 195.73C160.189 193.489 161.485 191.488 163.26 189.97C164.779 188.862 166.632 188.308 168.51 188.4C170.148 188.302 171.782 188.647 173.24 189.4C174.384 190.133 175.298 191.172 175.88 192.4C176.645 193.977 177.158 195.664 177.4 197.4L177.48 197.84L171.15 199.72L171.04 199.18C170.919 198.316 170.574 197.499 170.04 196.81C169.84 196.575 169.589 196.387 169.307 196.261C169.025 196.135 168.719 196.073 168.41 196.08C167.862 196.111 167.335 196.303 166.896 196.632C166.457 196.961 166.124 197.413 165.94 197.93C165.25 199.27 164.94 201.45 164.94 204.42C164.94 207.57 165.29 209.84 165.94 211.16C166.148 211.688 166.507 212.144 166.974 212.468C167.44 212.792 167.992 212.97 168.56 212.98C169.101 212.98 169.634 212.846 170.11 212.59C170.727 212.231 171.292 211.79 171.79 211.28V209.16H168.06V201.91H177.68V215.41L177.55 215.55C176.281 217.11 174.756 218.442 173.04 219.49C171.561 220.229 169.922 220.59 168.27 220.54ZM168.51 189.45C166.858 189.363 165.226 189.839 163.88 190.8C162.261 192.203 161.081 194.043 160.48 196.1C159.638 198.819 159.236 201.654 159.29 204.5C159.246 207.253 159.613 209.996 160.38 212.64C160.895 214.614 161.931 216.413 163.38 217.85C164.742 219.011 166.492 219.614 168.28 219.54C169.767 219.563 171.237 219.219 172.56 218.54C174.12 217.584 175.509 216.374 176.67 214.96V202.84H169.05V208.09H172.78V211.63L172.63 211.78C172.026 212.418 171.332 212.963 170.57 213.4C169.956 213.733 169.269 213.909 168.57 213.91C167.819 213.901 167.086 213.673 166.463 213.254C165.839 212.834 165.352 212.242 165.06 211.55C164.28 210.07 163.9 207.72 163.9 204.35C163.9 201.17 164.28 198.9 165.05 197.35C165.333 196.689 165.8 196.123 166.396 195.72C166.992 195.318 167.691 195.095 168.41 195.08C168.864 195.069 169.316 195.159 169.731 195.344C170.146 195.529 170.515 195.805 170.81 196.15C171.363 196.815 171.747 197.604 171.93 198.45L176.37 197.13C176.122 195.665 175.671 194.241 175.03 192.9C174.52 191.842 173.732 190.943 172.75 190.3C171.436 189.65 169.973 189.357 168.51 189.45Z" fill="black"/>
<path d="M191.56 214.57H185.23L184.35 219.57H178.66L185.44 189.51H191.52L198.3 219.57H192.46L191.56 214.57ZM190.41 208.08L188.41 197.27L186.41 208.08H190.41Z" fill="white"/>
<path d="M198.92 220.08H192.04L191.14 215.08H185.65L184.77 220.08H178.03L185.03 189.02H191.91L198.92 220.08ZM192.92 219.08H197.71L191.16 190.02H185.88L179.28 219.08H183.93L184.81 214.08H191.97L192.92 219.08ZM191.04 208.62H185.88L188.45 194.54L191.04 208.62ZM187.04 207.62H189.8L188.41 200.08L187.04 207.62Z" fill="black"/>
<path d="M200.07 189.47H205.64V212.13H214.34V219.53H200.07V189.47Z" fill="white"/>
<path d="M214.84 220.08H199.57V189.02H206.14V211.68H214.84V220.08ZM200.57 219.08H213.84V212.68H205.14V190.02H200.57V219.08Z" fill="black"/>
<path d="M216.86 189.47H231.8V195.89H222.41V200.66H231.09V206.8H222.41V212.72H232.03V219.53H216.86V189.47Z" fill="white"/>
<path d="M232.57 220.08H216.41V189.02H232.35V196.44H223V200.21H231.67V207.35H223V212.27H232.62L232.57 220.08ZM217.41 219.08H231.62V213.27H222V206.35H230.67V201.21H222V195.44H231.35V190.02H217.41V219.08Z" fill="black"/>
<path d="M77.04 29.5499L37.04 140.79L47.18 145.39L71.02 80.39L144.13 65.1599V54.71L77.04 29.5499ZM75.73 67.74L84.11 44.9199L121.29 58.4399L75.73 67.74Z" fill="#D63128"/>
<path d="M47.52 146.08L36.47 141.08L76.74 28.9399L144.68 54.4299V65.63L144.29 65.71L71.41 80.86L47.52 146.08ZM37.72 140.53L46.95 144.73L70.7 80.01L143.7 64.7999V55.08L77.36 30.1799L37.72 140.53ZM74.95 68.4199L83.81 44.2899L123.12 58.58L74.95 68.4199ZM84.41 45.5699L76.5099 67.08L119.45 58.3099L84.41 45.5699Z" fill="black"/>
</svg>
