<svg width="300" height="246" viewBox="0 0 300 246" fill="none" xmlns="http://www.w3.org/2000/svg">
<path d="M288 0H12C8.8174 0 5.76515 1.26421 3.51471 3.51465C1.26427 5.76509 0 8.8174 0 12V234C0 237.183 1.26427 240.235 3.51471 242.485C5.76515 244.736 8.8174 246 12 246H288C291.183 246 294.235 244.736 296.485 242.485C298.736 240.235 300 237.183 300 234V12C300 8.8174 298.736 5.76509 296.485 3.51465C294.235 1.26421 291.183 0 288 0Z" fill="#61707E"/>
<path d="M166.28 12.2999H15C14.2485 12.3026 13.5287 12.6029 12.9982 13.1353C12.4678 13.6676 12.17 14.3884 12.17 15.1399V159.82C12.17 160.571 12.4681 161.29 12.9988 161.821C13.5296 162.352 14.2494 162.65 15 162.65H166.28C167.031 162.65 167.75 162.352 168.281 161.821C168.812 161.29 169.11 160.571 169.11 159.82V15.1399C169.11 14.3884 168.812 13.6676 168.282 13.1353C167.751 12.6029 167.031 12.3026 166.28 12.2999Z" fill="#D3E2E2"/>
<path d="M181.01 12.2999H285.01C285.763 12.2999 286.486 12.5991 287.018 13.1317C287.551 13.6643 287.85 14.3867 287.85 15.1399V162.63H181.01V12.2999Z" fill="#FAED26"/>
<path d="M203.76 31.2999H227.84V21.36H239.09V31.2999H263.41V39.4099H240.41L256.9 70.2999C257.59 72.0399 258.99 72.8299 261.09 72.6499H263.41V81.0299H258.7C253.993 81.2032 250.853 79.6333 249.28 76.3199L233.58 47.5299L218.41 76.0499C217.363 78.1499 216.14 79.3733 214.74 79.72C213.69 80.41 211.25 80.72 207.41 80.72H203.75V72.86H206.41C208.32 73.22 209.81 72.4299 210.86 70.5099L226.86 39.36H203.86V31.25L203.76 31.2999Z" fill="white"/>
<path d="M258.02 81.5399C253.51 81.5399 250.42 79.8599 248.85 76.5399L233.6 48.5399L218.86 76.25C217.77 78.42 216.46 79.7299 214.95 80.1399C213.78 80.8699 211.31 81.23 207.42 81.23H203.26V72.37H206.41C207.216 72.5496 208.06 72.4383 208.792 72.0558C209.524 71.6733 210.097 71.0442 210.41 70.2799L225.99 39.87H203.26V30.8199H227.34V20.8199H239.59V30.8199H263.93V39.9299H241.23L257.33 70.08C257.59 70.8169 258.108 71.4348 258.788 71.8191C259.468 72.2034 260.265 72.328 261.03 72.1699H263.93V81.5499H258.02V81.5399ZM233.59 46.47L249.74 76.08C251.24 79.25 254.18 80.6899 258.74 80.5299H262.97V73.1499H261.12C260.154 73.3191 259.159 73.1448 258.307 72.6571C257.456 72.1694 256.803 71.3992 256.46 70.48L239.61 38.9099H262.97V31.8199H238.59V21.8199H228.34V31.8199H204.26V38.9299H227.61L211.27 70.8199C210.11 72.9499 208.42 73.8199 206.27 73.4399H204.27V80.2999H207.41C212.04 80.2999 213.8 79.7699 214.41 79.2999L214.57 79.23C215.81 78.92 216.93 77.78 217.91 75.83L233.59 46.47Z" fill="black"/>
<path d="M287.83 175.01V230.82C287.83 231.571 287.532 232.292 287.002 232.825C286.471 233.357 285.751 233.657 285 233.66H104.41V174.98L287.83 175.01Z" fill="#FAED26"/>
<path d="M92.93 233.69H15C14.2485 233.687 13.5287 233.387 12.9982 232.855C12.4678 232.322 12.17 231.601 12.17 230.85V175.01H92.94L92.93 233.69Z" fill="#FAED26"/>
<path d="M206.64 144.29V93.8199H262.91V144.82C262.73 145.873 263.34 146.573 264.74 146.92V153.46H256.89C256.179 153.494 255.474 153.313 254.867 152.94C254.261 152.567 253.781 152.02 253.49 151.37H243.28C241.187 151.37 239.877 150.583 239.35 149.01L234.64 140.64L230.45 147.96C230.078 148.98 229.395 149.858 228.498 150.469C227.602 151.081 226.535 151.396 225.45 151.37H216.03C215.839 152.087 215.379 152.704 214.747 153.093C214.114 153.482 213.356 153.613 212.63 153.46H204.51V146.13C206.12 146.3 206.81 145.69 206.64 144.29ZM252.7 144.03V101.89H216.58V144.03H220.51C221.73 144.2 222.43 143.86 222.6 143.03L229.41 131.03L216.85 106.69H227.32L234.91 121.35L242.5 106.69H252.18L239.88 130.77L246.16 142.29C246.68 143.68 247.47 144.29 248.51 144.12L252.7 144.03Z" fill="white"/>
<path d="M213.15 153.98H204.04V145.59L204.6 145.66C204.829 145.716 205.068 145.723 205.3 145.682C205.533 145.641 205.754 145.551 205.95 145.42C206.05 145.276 206.119 145.112 206.151 144.94C206.184 144.768 206.18 144.591 206.14 144.42V93.35H263.41V144.82C263.35 145.24 263.21 146.02 264.86 146.43L265.24 146.53V153.96H256.89C256.139 153.994 255.394 153.817 254.74 153.447C254.085 153.077 253.548 152.531 253.19 151.87H243.28C240.96 151.87 239.48 150.96 238.88 149.17L234.64 141.65L230.89 148.21C230.476 149.303 229.733 150.242 228.765 150.897C227.796 151.552 226.649 151.892 225.48 151.87H216.41C216.161 152.522 215.71 153.078 215.124 153.457C214.538 153.837 213.847 154.02 213.15 153.98ZM205.04 152.98H212.66C213.279 153.132 213.933 153.033 214.48 152.705C215.026 152.378 215.422 151.847 215.58 151.23L215.7 150.89H225.48C226.464 150.909 227.429 150.619 228.24 150.061C229.05 149.503 229.666 148.706 230 147.78L234.65 139.64L239.79 148.79C240.28 150.23 241.41 150.89 243.28 150.89H253.8L253.93 151.16C254.176 151.74 254.598 152.228 255.136 152.554C255.675 152.881 256.302 153.03 256.93 152.98H264.28V147.31C262.43 146.71 262.34 145.47 262.45 144.76V94.3099H207.14V144.31C207.206 144.631 207.196 144.964 207.113 145.281C207.03 145.598 206.875 145.892 206.66 146.14C206.441 146.337 206.185 146.488 205.907 146.584C205.628 146.68 205.334 146.72 205.04 146.7V152.98ZM221.04 144.6C220.83 144.618 220.62 144.618 220.41 144.6H216.05V101.46H253.17V144.6H248.51C247.69 144.74 246.46 144.49 245.69 142.44L239.31 130.76L251.41 107.1H242.85L234.96 122.35L227.06 107.1H217.72L230.03 130.95L223.13 143.16C223.031 143.613 222.763 144.012 222.38 144.274C221.997 144.536 221.528 144.642 221.07 144.57L221.04 144.6ZM217.04 143.6H220.47C221.91 143.8 222.02 143.23 222.07 142.95L222.13 142.81L228.8 131L217.04 108.22V143.6ZM240.41 130.67L246.57 141.96C247.17 143.56 247.9 143.62 248.4 143.54H252.17V107.67L240.41 130.67ZM217.05 106.1H227.59L234.88 120.17L242.16 106.1H252.16V102.39H217.08L217.05 106.1Z" fill="black"/>
<path d="M32.91 190.13V185.13H37.5V183.3H43.93V185.13H62.47V183.13H68.71V185.13H73.85V190.13H68.71V192.33H74.04V197.47H56.6V199.68H73.3V212.53C73.9133 217.197 71.58 219.217 66.3 218.59H64.09L64.83 219.51C64.8345 219.579 64.8528 219.646 64.8837 219.708C64.9146 219.77 64.9575 219.825 65.0099 219.87C65.2759 220.122 65.5904 220.318 65.9341 220.445C66.2779 220.572 66.6439 220.628 67.0099 220.61H74.0099V225.2H63.5699C61.5699 224.95 60.33 224.46 59.72 223.73L55.49 218.59H52.0099L47.0099 223.36C46.3546 224.114 45.5328 224.706 44.6095 225.088C43.6862 225.469 42.6866 225.631 41.69 225.56H33.06V220.82H40.58C41.0028 220.792 41.4159 220.68 41.7953 220.492C42.1747 220.303 42.5128 220.041 42.79 219.72L43.7 218.62H33.65V199.71H49.99V197.5H32.91V192.36H37.5V190.16L32.91 190.13ZM49.8 206.65V204.65H40.0699V206.65H49.8ZM49.8 211.65H40.0699V213.85H49.8V211.65ZM43.93 192.37H62.29V190.17H43.93V192.37ZM56.6 206.69H67.06V204.69H56.6V206.69ZM67.24 211.69H56.78V213.89H66.69C67.06 213.89 67.24 213.65 67.24 213.16V211.69Z" fill="white"/>
<path d="M42.16 226.08H32.6V220.31H40.6C40.9594 220.275 41.3082 220.168 41.6259 219.997C41.9436 219.825 42.2238 219.591 42.45 219.31L42.66 219.06H33.1299V199.15H49.47V197.94H32.41V191.82H37V190.62H32.41V184.62H37V182.82H44.41V184.65H61.95V182.65H69.19V184.65H74.33V190.65H69.21V191.85H74.54V197.99H57.1V199.2H73.8V212.55C74.11 214.82 73.69 216.55 72.58 217.71C71.47 218.87 69.21 219.45 66.27 219.11H65.16L65.36 219.35V219.53C66.28 220.17 66.75 220.19 66.94 220.14H74.54V225.73H63.54C61.37 225.46 60 224.92 59.3 224.08L55.23 219.08H52.21L47.41 223.72C46.7555 224.467 45.9479 225.064 45.042 225.472C44.1361 225.879 43.1532 226.086 42.16 226.08ZM33.6 225.08H41.72C42.6524 225.168 43.5923 225.033 44.4619 224.685C45.3315 224.337 46.1056 223.787 46.72 223.08L51.84 218.15H55.77L60.14 223.47C60.66 224.1 61.85 224.53 63.67 224.76H73.58V221.17H67.16C66.7295 221.197 66.298 221.137 65.891 220.995C65.4839 220.852 65.1096 220.63 64.79 220.34C64.6221 220.187 64.495 219.994 64.42 219.78L63.12 218.15H66.37C69.0367 218.457 70.88 218.09 71.9 217.05C72.79 216.15 73.11 214.67 72.85 212.65V200.24H56.15V197.03H73.59V192.82H68.21V189.62H73.35V185.62H68.21V183.62H62.97V185.62H43.41V183.82H37.98V185.65H33.41V189.65H38V192.85H33.41V196.99H50.49V200.2H34.15V218.11H44.81L43.21 220.03C42.8862 220.406 42.49 220.713 42.045 220.933C41.6001 221.153 41.1155 221.281 40.62 221.31H33.62L33.6 225.08ZM66.69 214.33H56.28V211.13H67.74V213.13C67.74 213.99 67.2 214.31 66.69 214.31V214.33ZM57.28 213.33H66.69C66.69 213.33 66.74 213.33 66.74 213.1V212.1H57.28V213.33ZM50.28 214.33H39.5699V211.13H50.3L50.28 214.33ZM40.55 213.33H49.28V212.13H40.55V213.33ZM67.55 207.17H56.1V204.17H67.56L67.55 207.17ZM57.09 206.17H66.55V205.17H57.09V206.17ZM50.29 207.17H39.5699V204.17H50.3L50.29 207.17ZM40.56 206.17H49.29V205.17H40.56V206.17ZM62.79 192.82H43.41V189.62H62.77L62.79 192.82ZM44.41 191.82H61.77V190.62H44.41V191.82Z" fill="black"/>
<path d="M168.54 208.64V202.38H177.16V215.2C175.93 216.715 174.448 218.007 172.78 219.02C171.383 219.723 169.833 220.066 168.27 220.02C166.357 220.1 164.486 219.445 163.04 218.19C161.52 216.698 160.435 214.821 159.9 212.76C159.121 210.067 158.747 207.273 158.79 204.47C158.733 201.57 159.142 198.68 160 195.91C160.635 193.762 161.874 191.843 163.57 190.38C165.003 189.346 166.746 188.835 168.51 188.93C170.053 188.832 171.595 189.142 172.98 189.83C174.044 190.516 174.896 191.486 175.44 192.63C176.169 194.15 176.664 195.772 176.91 197.44L171.53 199.04C171.394 198.089 171.008 197.192 170.41 196.44C170.165 196.15 169.858 195.918 169.512 195.76C169.166 195.603 168.79 195.524 168.41 195.53C167.768 195.56 167.149 195.778 166.63 196.156C166.111 196.535 165.715 197.058 165.49 197.66C164.77 199.07 164.4 201.31 164.4 204.37C164.4 207.63 164.77 209.95 165.5 211.37C165.753 211.979 166.178 212.502 166.723 212.873C167.269 213.244 167.91 213.448 168.57 213.46C169.195 213.461 169.81 213.306 170.36 213.01C171.074 212.588 171.727 212.07 172.3 211.47V208.64H168.54Z" fill="white"/>
<path d="M168.27 220.54C166.226 220.61 164.233 219.894 162.7 218.54C161.121 216.984 159.988 215.033 159.42 212.89C158.629 210.148 158.248 207.304 158.29 204.45C158.233 201.496 158.652 198.551 159.53 195.73C160.192 193.491 161.487 191.49 163.26 189.97C164.782 188.87 166.634 188.319 168.51 188.41C170.147 188.317 171.78 188.662 173.24 189.41C174.379 190.148 175.293 191.186 175.88 192.41C176.644 193.987 177.157 195.674 177.4 197.41L177.48 197.84L171.15 199.73L171.04 199.19C170.923 198.325 170.578 197.507 170.04 196.82C169.839 196.579 169.587 196.387 169.301 196.259C169.015 196.131 168.703 196.07 168.39 196.08C167.841 196.113 167.314 196.307 166.875 196.638C166.436 196.969 166.104 197.422 165.92 197.94C165.23 199.27 164.92 201.45 164.92 204.42C164.92 207.58 165.27 209.85 165.92 211.16C166.127 211.69 166.487 212.146 166.953 212.472C167.419 212.797 167.971 212.978 168.54 212.99C169.081 212.99 169.614 212.856 170.09 212.6C170.707 212.241 171.272 211.8 171.77 211.29V209.17H168.04V201.91H177.66V215.42L177.53 215.56C176.262 217.117 174.736 218.447 173.02 219.49C171.548 220.229 169.916 220.59 168.27 220.54ZM168.51 189.45C166.858 189.358 165.224 189.835 163.88 190.8C162.261 192.199 161.08 194.036 160.48 196.09C159.638 198.809 159.236 201.644 159.29 204.49C159.245 207.243 159.612 209.986 160.38 212.63C160.893 214.605 161.929 216.405 163.38 217.84C164.738 219.008 166.49 219.615 168.28 219.54C169.767 219.565 171.238 219.222 172.56 218.54C174.118 217.585 175.506 216.379 176.67 214.97V202.84H169.05V208.1H172.78V211.64L172.63 211.78C172.026 212.42 171.332 212.97 170.57 213.41C169.956 213.743 169.269 213.919 168.57 213.92C167.819 213.908 167.088 213.679 166.465 213.26C165.842 212.841 165.354 212.251 165.06 211.56C164.28 210.08 163.9 207.72 163.9 204.35C163.9 201.18 164.28 198.91 165.05 197.41C165.314 196.725 165.773 196.132 166.37 195.706C166.967 195.279 167.677 195.037 168.41 195.01C168.866 194.996 169.319 195.086 169.735 195.273C170.151 195.46 170.518 195.739 170.81 196.09C171.365 196.754 171.749 197.544 171.93 198.39L176.37 197.07C176.122 195.605 175.671 194.181 175.03 192.84C174.523 191.78 173.735 190.881 172.75 190.24C171.43 189.611 169.968 189.338 168.51 189.45Z" fill="black"/>
<path d="M191.56 214.56H185.23L184.35 219.56H178.66L185.44 189.49H191.52L198.3 219.56H192.46L191.56 214.56ZM190.4 208.06L188.4 197.25L186.4 208.06H190.4Z" fill="white"/>
<path d="M198.92 220.03H192.04L191.14 215.03H185.65L184.77 220.03H178.03L185.03 188.96H191.91L198.92 220.03ZM192.92 219.03H197.71L191.16 189.96H185.88L179.32 219.03H183.97L184.85 214.03H192.01L192.92 219.03ZM191.04 208.56H185.88L188.45 194.48L191.04 208.56ZM187.04 207.56H189.8L188.41 200.03L187.04 207.56Z" fill="black"/>
<path d="M200.07 189.46H205.64V212.12H214.34V219.53H200.07V189.46Z" fill="white"/>
<path d="M214.84 220.03H199.57V188.96H206.14V211.62H214.84V220.03ZM200.57 219.03H213.84V212.62H205.14V189.96H200.57V219.03Z" fill="black"/>
<path d="M216.86 189.46H231.8V195.88H222.41V200.66H231.09V206.82H222.41V212.75H232.03V219.56H216.86V189.46Z" fill="white"/>
<path d="M232.57 220.03H216.41V188.96H232.35V196.38H223V200.16H231.67V207.29H223V212.22H232.62L232.57 220.03ZM217.36 219.03H231.57V213.22H221.95V206.29H230.62V201.16H221.95V195.38H231.3V189.96H217.41L217.36 219.03Z" fill="black"/>
<path d="M77.04 29.5499L37.04 140.78L47.18 145.39L71.02 80.3899L144.13 65.1499V54.7L77.04 29.5499ZM75.73 67.73L84.11 44.9099L121.29 58.4299L75.73 67.73Z" fill="#FAED26"/>
<path d="M47.52 146.07L36.47 141.07L76.74 28.9299L144.68 54.4299V65.63L144.29 65.71L71.41 80.8199L47.52 146.07ZM37.72 140.52L46.95 144.71L70.7 79.99L143.7 64.7799V55.09L77.36 30.1899L37.72 140.52ZM74.95 68.3999L83.81 44.2699L123.12 58.5699L74.95 68.3999ZM84.41 45.5499L76.5099 67.0599L119.45 58.2999L84.41 45.5499Z" fill="black"/>
</svg>
