<svg width="300" height="246" viewBox="0 0 300 246" fill="none" xmlns="http://www.w3.org/2000/svg">
<path d="M288 0H12C8.8174 0 5.76509 1.26421 3.51465 3.51465C1.26421 5.76509 0 8.8174 0 12V234C0 237.183 1.26421 240.235 3.51465 242.485C5.76509 244.736 8.8174 246 12 246H288C291.183 246 294.235 244.736 296.485 242.485C298.736 240.235 300 237.183 300 234V12C300 8.8174 298.736 5.76509 296.485 3.51465C294.235 1.26421 291.183 0 288 0Z" fill="#61707E"/>
<path d="M166.28 12.3301H15C14.2485 12.3327 13.5287 12.633 12.9983 13.1653C12.4678 13.6976 12.1699 14.4184 12.1699 15.1699V159.83C12.1699 160.581 12.4681 161.3 12.9988 161.831C13.5295 162.362 14.2494 162.66 15 162.66H166.28C167.031 162.66 167.75 162.362 168.281 161.831C168.812 161.3 169.11 160.581 169.11 159.83V15.1699C169.11 14.4184 168.812 13.6976 168.282 13.1653C167.751 12.633 167.032 12.3327 166.28 12.3301Z" fill="#D3E2E2"/>
<path d="M181.02 12.3301H285.02C285.772 12.3327 286.491 12.633 287.022 13.1653C287.552 13.6976 287.85 14.4184 287.85 15.1699V162.66H181.02V12.3301Z" fill="#FAED26"/>
<path d="M203.76 31.3301H227.84V21.3899H239.09V31.3301H263.41V39.45H240.41L256.9 70.3301C257.6 72.0801 258.99 72.8599 261.09 72.6799H263.41V81.0601H258.7C253.987 81.2334 250.847 79.6634 249.28 76.3501L233.58 47.5601L218.41 76.0901C217.357 78.1768 216.133 79.3967 214.74 79.75C213.74 80.45 211.25 80.8 207.42 80.8H203.75V73H206.41C208.33 73.3533 209.813 72.5666 210.86 70.6399L226.86 39.5H203.86V31.3799L203.76 31.3301Z" fill="white"/>
<path d="M258.03 81.5701C253.52 81.5701 250.42 79.8901 248.85 76.5701L233.6 48.6201L218.86 76.3301C217.78 78.5001 216.46 79.81 214.96 80.22C213.78 80.95 211.31 81.3101 207.42 81.3101H203.26V72.46H206.41C207.217 72.6389 208.062 72.5262 208.794 72.1418C209.526 71.7574 210.099 71.1263 210.41 70.3601L225.99 39.96H203.28V30.8401H227.36V20.8999H239.61V30.8401H263.95V40H241.26L257.35 70.1399C257.611 70.8783 258.131 71.4974 258.812 71.8833C259.494 72.2692 260.292 72.3958 261.06 72.24H263.95V81.6201H258.05L258.03 81.5701ZM233.59 46.51L249.74 76.1101C251.24 79.2801 254.18 80.7201 258.74 80.5601H262.97V73.1799H261.12C260.155 73.3527 259.159 73.1797 258.309 72.6914C257.458 72.2031 256.807 71.4308 256.47 70.51L239.57 39H262.93V31.8799H238.59V21.9399H228.34V31.8799H204.26V39H227.61L211.27 70.8701C210.11 73.0101 208.44 73.87 206.27 73.49H204.27V80.3501H207.41C212.04 80.3501 213.8 79.8201 214.47 79.3501L214.62 79.29C215.86 78.97 216.99 77.8299 217.96 75.8799L233.59 46.51Z" fill="black"/>
<path d="M287.83 175V230.85C287.83 231.601 287.532 232.32 287.001 232.851C286.47 233.382 285.751 233.68 285 233.68H104.41V175H287.83Z" fill="#FAED26"/>
<path d="M92.9399 233.72H15C14.2494 233.72 13.5295 233.422 12.9988 232.891C12.4681 232.36 12.1699 231.64 12.1699 230.89V175H92.9399V233.72Z" fill="#FAED26"/>
<path d="M204.55 94.3301H262.41V99.8301H237.8V102.18H262.14V116.84H253.51V106.63H237.8V117.1H229.41V106.9H213.71V117.63H205.07V102.45H229.41V99.8301H204.55V94.3301ZM204.81 126V121H209.52C209.869 121.115 210.248 121.098 210.585 120.953C210.923 120.807 211.195 120.543 211.35 120.21L212.66 118.9H220.25L219.47 119.69H262.41V125.45L243.56 131.21C243.91 131.56 245.04 131.64 246.97 131.47H262.67V136.7H243.82C240.16 136.88 237.82 136.62 236.76 135.92L233.36 134.61L229.95 135.92C228.014 136.561 225.99 136.898 223.95 136.92H228.67L227.88 139.54H262.41V148.7C262.41 151.84 261.013 153.41 258.22 153.41H237.54V148H251.68C252.9 148 253.51 147.56 253.51 146.69V145.38H226.51L224.94 150.38C224.24 152.82 222.757 154.04 220.49 154.04H204.49V148.55H214.96C215.354 148.514 215.731 148.373 216.052 148.143C216.374 147.913 216.628 147.601 216.79 147.24L217.57 145.41H205.01V139.65H218.62L219.4 137.29H204.81V132H218.94C219.804 132.18 220.696 132.18 221.56 132C222.43 131.83 223.56 131.57 224.96 131.22L216.85 126.77H230.98L233.33 128.08L243.28 124.67H217.11C216.23 125.67 214.84 126.16 212.92 125.98L204.81 126ZM226.81 112.92H220.81C220.185 113.071 219.527 112.997 218.953 112.709C218.378 112.422 217.924 111.941 217.67 111.35L215.32 108.2H222.12L222.64 108.99C222.741 109.162 222.888 109.302 223.065 109.394C223.242 109.486 223.441 109.526 223.64 109.51H226.78V112.92H226.81ZM222.89 117.63H216.08V114.75H219.22C219.92 114.92 220.36 114.75 220.53 114.22L221.06 113.7H227.06L225.49 116.32C225.13 117.37 224.26 117.8 222.87 117.63H222.89ZM239.89 112.39V109.25H244.89C245.278 109.213 245.637 109.027 245.89 108.73L246.15 107.94H252.41L250.58 111.08C250.23 112.13 249.36 112.57 247.96 112.39H239.89ZM251.4 117.39H245.4C243.83 117.56 242.87 117.21 242.53 116.39L239.91 113.51H246.19L246.71 114.03C246.827 114.262 247.024 114.444 247.265 114.542C247.506 114.64 247.775 114.646 248.02 114.56H251.42V117.44L251.4 117.39Z" fill="white"/>
<path d="M220.51 154.5H204.05V148H215.05C215.55 148 216.05 147.64 216.45 146.93L216.91 145.86H204.6V139.1H218.35L218.8 137.74H204.31V131.51H218.94C219.772 131.675 220.628 131.675 221.46 131.51C222.04 131.4 222.76 131.24 223.59 131.04L215.1 126.38C214.366 126.527 213.614 126.561 212.87 126.48H204.31V120.48H209.52C210.44 120.65 210.73 120.32 210.91 119.97L211 119.84L212.45 118.38H221.45L220.66 119.17H262.88V125.8L245.77 131.03L246.89 130.95H263.14V137.18H243.79C240.06 137.37 237.67 137.09 236.5 136.34L233.33 135.12L230.1 136.36C229.812 136.482 229.519 136.589 229.22 136.68L228.5 139.06H262.88V148.72C262.88 153.03 260.33 153.93 258.19 153.93H237.01V147.44H251.65C252.98 147.44 252.98 146.89 252.98 146.63V145.82H226.89L225.43 150.44C224.68 153.15 223.02 154.5 220.51 154.5ZM205.05 153.5H220.51C222.51 153.5 223.84 152.42 224.51 150.2L226.19 144.87H254.02V146.68C254.02 147.35 253.72 148.49 251.69 148.49H238.05V153H258.23C260.75 153 261.92 151.66 261.92 148.79V140.13H227.2L227.98 137.51H222.64V136.51H223.94C225.923 136.48 227.89 136.143 229.77 135.51L233.37 134.12L237.05 135.55C237.7 135.99 239.41 136.46 243.81 136.25H262.18V132H246.98C244.27 132.25 243.56 131.93 243.22 131.59L242.64 131L261.92 125.11V120.22H218.29L219.07 119.43H212.9L211.79 120.54C211.576 120.952 211.227 121.278 210.8 121.46C210.373 121.643 209.895 121.671 209.45 121.54H205.34V125.54H212.95C214.75 125.7 215.95 125.34 216.75 124.41L216.9 124.23H246.32L233.32 128.68L230.88 127.33H218.83L226.35 131.45L225.11 131.76C223.71 132.11 222.56 132.38 221.68 132.55C220.753 132.74 219.797 132.74 218.87 132.55H205.31V136.78H220.16L219.04 140.14H205.57V144.9H218.41L217.33 147.43C217.131 147.881 216.812 148.27 216.409 148.553C216.005 148.837 215.532 149.006 215.04 149.04H205.04L205.05 153.5ZM215.54 126.29H231.11L233.38 127.55L240.27 125.19H217.33C216.84 125.707 216.222 126.086 215.54 126.29ZM223.43 118.16H215.56V114.28H219.33C219.92 114.43 219.99 114.22 220.04 114.08V113.97L220.56 113.45C219.87 113.571 219.159 113.456 218.543 113.124C217.926 112.792 217.439 112.263 217.16 111.62L214.24 107.73H222.31L222.98 108.73C223.05 108.86 223.13 109.03 223.61 109.03H227.25V113.22H227.9L225.9 116.55C225.724 117.058 225.383 117.492 224.932 117.783C224.481 118.075 223.945 118.207 223.41 118.16H223.43ZM216.56 117.16H222.93C224.42 117.34 224.83 116.74 225.01 116.16L225.06 116.06L226.17 114.2H221.24L220.94 114.5C220.798 114.836 220.53 115.103 220.194 115.244C219.857 115.384 219.478 115.386 219.14 115.25H216.56V117.16ZM216.28 108.74L218.09 111.18C218.3 111.674 218.683 112.075 219.167 112.308C219.65 112.542 220.202 112.592 220.72 112.45H226.29V110H223.65C223.35 110.035 223.046 109.977 222.779 109.834C222.513 109.691 222.297 109.47 222.16 109.2L221.82 108.7L216.28 108.74ZM214.21 118.16H204.57V102H228.91V100.38H204.05V93.8799H262.89V100.38H238.28V101.73H262.62V117.39H252.99V108L251.07 111.29C250.75 112.17 249.96 113.15 247.93 112.89H239.41V108.75H244.88C245.114 108.73 245.331 108.623 245.49 108.45L245.83 107.45H253.02V107.14H238.31V117.61H228.94V107.41H214.24L214.21 118.16ZM205.57 117.16H213.21V106.4H229.91V116.6H237.28V106.13H253.99V116.34H261.62V102.68H237.28V99.3301H261.89V94.8301H205.05V99.3301H229.91V103H205.57V117.16ZM240.38 111.92H247.99C249.56 112.11 249.99 111.46 250.14 110.92V110.82L251.53 108.43H246.53L246.34 108.99L246.26 109.07C246.083 109.269 245.868 109.431 245.627 109.546C245.387 109.661 245.126 109.727 244.86 109.74H240.41L240.38 111.92ZM244.61 117.92C244.102 117.988 243.586 117.898 243.131 117.661C242.677 117.425 242.306 117.055 242.07 116.6L238.75 112.95H246.41L247.08 113.62C247.43 114.13 247.67 114.09 247.87 114.02H251.93V117.9H245.41C245.144 117.919 244.876 117.923 244.61 117.91V117.92ZM241.01 113.92L243.01 116.11C243.1 116.35 243.4 117.11 245.37 116.85H250.94V115H248.12C247.779 115.1 247.415 115.08 247.087 114.944C246.76 114.807 246.489 114.562 246.32 114.25L246.01 113.95L241.01 113.92Z" fill="black"/>
<path d="M32.9099 190.16V185.21H37.5V183.37H43.9299V185.21H62.47V183.21H68.72V185.21H73.8599V190.16H68.72V192.37H74.0398V197.51H56.5999V199.71H73.3098V212.56C73.9231 217.227 71.5898 219.247 66.3098 218.62H64.1099L64.8398 219.54C64.8507 219.682 64.9152 219.814 65.02 219.91C65.2878 220.159 65.6026 220.352 65.946 220.477C66.2895 220.603 66.6548 220.658 67.02 220.64H74.02V225.23H63.5498C61.5998 224.98 60.31 224.5 59.7 223.76L55.48 218.62H51.99L46.99 223.39C46.3357 224.146 45.5142 224.739 44.5908 225.123C43.6674 225.507 42.6674 225.67 41.6699 225.6H33.0398V220.82H40.5698C40.9914 220.793 41.4034 220.682 41.7812 220.493C42.1591 220.304 42.4955 220.041 42.77 219.72L43.6899 218.62H33.5898V199.71H49.9299V197.51H32.9099V192.36H37.5V190.16H32.9099ZM49.8098 206.69V204.69H40.0798V206.69H49.8098ZM49.8098 211.64H40.0798V213.85H49.8098V211.64ZM43.9299 192.37H62.2898V190.16H43.9299V192.37ZM56.5999 206.69H67.0598V204.69H56.5999V206.69ZM67.25 211.64H56.78V213.85H66.7C67.06 213.85 67.25 213.6 67.25 213.11V211.64Z" fill="white"/>
<path d="M42.1599 226.11H32.5999V220.33H40.5999C40.9593 220.295 41.3083 220.189 41.626 220.017C41.9437 219.845 42.2238 219.612 42.45 219.33L42.6599 219.08H33.1299V199.17H49.47V198H32.4099V191.86H37V190.65H32.4099V184.7H37V182.86H44.4099V184.7H61.95V182.7H69.1899V184.7H74.4099V190.65H69.26V191.86H74.5898V198H57.1499V199.2H73.8599V212.55C74.1599 214.82 73.7499 216.55 72.6299 217.72C71.5099 218.89 69.2498 219.45 66.3198 219.11H65.21L65.4099 219.35V219.53C66.3399 220.17 66.8 220.2 66.99 220.14H74.5898V225.73H63.5898C61.4198 225.46 60.0499 224.92 59.3499 224.08L55.28 219.08H52.28L47.47 223.71C46.8126 224.472 45.9969 225.082 45.0798 225.496C44.1627 225.911 43.1663 226.12 42.1599 226.11ZM33.5999 225.11H41.73C42.6541 225.188 43.5833 225.047 44.4431 224.7C45.3029 224.352 46.0691 223.808 46.6799 223.11L51.8098 218.18H55.73L60.1099 223.5C60.6199 224.13 61.8099 224.56 63.6399 224.79H73.5398V221.2H67.1199C66.6892 221.229 66.2572 221.171 65.8499 221.028C65.4425 220.885 65.0683 220.662 64.75 220.37C64.5787 220.222 64.4537 220.027 64.3899 219.81L63.0798 218.18H66.3298C68.9965 218.493 70.8432 218.127 71.8699 217.08C72.7599 216.18 73.0698 214.7 72.8098 212.69V200.27H56.0999V197H73.5398V192.86H68.21V189.65H73.4099V185.7H68.26V183.7H63.02V185.7H43.4099V183.86H37.98V185.7H33.4099V189.65H38V192.86H33.4099V197H50.49V200.2H34.1499V218.11H44.8098L43.21 220.03C42.8869 220.407 42.4908 220.715 42.0457 220.935C41.6005 221.155 41.1156 221.282 40.6199 221.31H33.6199L33.5999 225.11ZM66.7 214.36H56.28V211.15H67.75V213.15C67.75 214 67.2 214.35 66.7 214.35V214.36ZM57.28 213.36H66.7C66.7 213.36 66.75 213.36 66.75 213.12V212.12H57.28V213.36ZM50.28 214.36H39.5498V211.15H50.28V214.36ZM40.5498 213.36H49.28V212.15H40.5498V213.36ZM67.5498 207.2H56.0898V204.2H67.5498V207.2ZM57.0898 206.2H66.5498V205.2H57.0898V206.2ZM50.2998 207.2H39.5698V204.2H50.2998V207.2ZM40.5698 206.2H49.2998V205.2H40.5698V206.2ZM62.78 192.88H43.4099V189.67H62.77L62.78 192.88ZM44.4199 191.88H61.78V190.67H44.4099L44.4199 191.88Z" fill="black"/>
<path d="M115.41 189.49H120.99V200H127.08V189.47H132.68V219.54H127.08V207.4H120.99V219.56H115.41V189.49Z" fill="white"/>
<path d="M133.16 220.06H126.57V207.9H121.48V220.06H114.9V189H121.48V199.52H126.57V189H133.16V220.06ZM127.57 219.06H132.16V190H127.57V200.52H120.48V190H115.9V219.06H120.48V206.9H127.57V219.06Z" fill="black"/>
<path d="M136.41 189.49H151.34V195.91H141.99V200.69H150.67V206.82H141.99V212.75H151.62V219.56H136.41V189.49Z" fill="white"/>
<path d="M152.07 220.06H135.86V189H151.79V196.41H142.41V200.19H151.09V207.32H142.41V212.25H152.04L152.07 220.06ZM136.86 219.06H151.07V213.25H141.41V206.32H150.09V201.19H141.41V195.41H150.76V190H136.83L136.86 219.06Z" fill="black"/>
<path d="M165.66 214.6H159.33L158.45 219.6H152.76L159.54 189.53H165.62L172.4 219.6H166.56L165.66 214.6ZM164.5 208.09L162.5 197.29L160.5 208.09H164.5Z" fill="white"/>
<path d="M173.02 220.06H166.14L165.24 215.06H159.75L158.87 220.06H152.13L159.13 189H166.01L173.02 220.06ZM167.02 219.06H171.81L165.26 190H159.98L153.42 219.06H158.07L158.95 214.06H166.11L167.02 219.06ZM165.14 208.59H159.98L162.55 194.51L165.14 208.59ZM161.14 207.59H163.9L162.51 200.06L161.14 207.59Z" fill="black"/>
<path d="M171.01 189.49H176.83L180.89 211.13L184.89 189.49H190.55L183.85 219.56H177.85L171.01 189.49Z" fill="white"/>
<path d="M184.26 220.06H177.41L170.41 189H177.28L180.92 208.4L184.52 189H191.21L184.26 220.06ZM178.26 219.06H183.5L189.97 190H185.36L180.94 213.86L176.41 190H171.62L178.26 219.06Z" fill="black"/>
<path d="M190.56 189.49H196.75L200.38 199.64L204.03 189.49H210.18L203.18 206.97V219.56H197.59V207L190.56 189.49Z" fill="white"/>
<path d="M203.67 220.06H197.08V207.06L189.82 189H197.1L200.38 198.16L203.67 189H210.92L203.67 207.06V220.06ZM198.08 219.06H202.67V206.78L209.41 190H204.41L200.41 201.12L196.41 190H191.31L198.09 207L198.08 219.06Z" fill="black"/>
<path d="M220.41 189.49H234.19V196H226.01V201.25H233.01V207.32H226.01V219.61H220.41V189.49Z" fill="white"/>
<path d="M226.51 220.06H219.91V189H234.69V196.46H226.51V200.71H233.51V207.77H226.51V220.06ZM220.91 219.06H225.51V206.77H232.51V201.71H225.51V195.46H233.69V190H220.91V219.06Z" fill="black"/>
<path d="M236.49 204.55C236.49 199.637 237.31 195.814 238.95 193.08C239.627 191.845 240.621 190.814 241.831 190.093C243.041 189.372 244.421 188.989 245.829 188.982C247.237 188.974 248.622 189.344 249.839 190.053C251.056 190.761 252.061 191.782 252.75 193.01C254.37 195.677 255.18 199.44 255.18 204.3C255.26 207.217 254.902 210.129 254.12 212.94C253.565 214.927 252.504 216.736 251.04 218.19C249.687 219.453 247.889 220.129 246.04 220.07C244.235 220.129 242.467 219.556 241.04 218.45C239.506 217.073 238.384 215.297 237.8 213.32C236.873 210.491 236.43 207.526 236.49 204.55ZM242.07 204.55C242.07 207.55 242.4 209.76 243.07 211.09C243.282 211.658 243.657 212.151 244.148 212.507C244.639 212.862 245.224 213.066 245.83 213.09C246.436 213.084 247.026 212.894 247.522 212.546C248.019 212.198 248.398 211.708 248.61 211.14C249.277 209.807 249.61 207.473 249.61 204.14C249.752 202.021 249.41 199.897 248.61 197.93C248.386 197.368 248.002 196.884 247.507 196.538C247.011 196.191 246.424 195.998 245.82 195.98C245.222 196.006 244.645 196.21 244.164 196.567C243.682 196.923 243.319 197.415 243.12 197.98C242.42 199.327 242.07 201.53 242.07 204.59V204.55Z" fill="white"/>
<path d="M246.03 220.57C244.093 220.638 242.193 220.026 240.66 218.84C239.059 217.4 237.884 215.55 237.26 213.49C236.343 210.601 235.913 207.58 235.99 204.55C235.99 199.55 236.84 195.62 238.52 192.83C239.239 191.52 240.294 190.426 241.578 189.661C242.862 188.896 244.327 188.488 245.821 188.48C247.315 188.472 248.785 188.864 250.077 189.614C251.369 190.365 252.437 191.448 253.17 192.75C254.84 195.51 255.68 199.39 255.68 204.3C255.758 207.267 255.393 210.23 254.6 213.09C254.014 215.16 252.905 217.043 251.38 218.56C249.926 219.901 248.007 220.623 246.03 220.57ZM245.81 189.48C244.484 189.459 243.18 189.809 242.044 190.492C240.907 191.174 239.984 192.161 239.38 193.34C237.8 195.98 236.99 199.75 236.99 204.55C236.913 207.468 237.325 210.378 238.21 213.16C238.771 215.043 239.836 216.738 241.29 218.06C242.645 219.1 244.322 219.635 246.03 219.57C247.756 219.631 249.435 219.005 250.7 217.83C252.091 216.442 253.103 214.72 253.64 212.83C254.392 210.065 254.729 207.204 254.64 204.34C254.64 199.62 253.85 195.91 252.28 193.34C251.668 192.158 250.737 191.171 249.594 190.489C248.451 189.807 247.141 189.457 245.81 189.48ZM245.81 213.62C245.113 213.6 244.438 213.375 243.869 212.973C243.3 212.571 242.861 212.01 242.61 211.36C241.88 209.95 241.54 207.73 241.54 204.59C241.54 201.45 241.89 199.19 242.61 197.78C242.856 197.136 243.286 196.579 243.846 196.177C244.406 195.775 245.071 195.547 245.76 195.52C246.456 195.533 247.134 195.751 247.708 196.145C248.282 196.54 248.728 197.094 248.99 197.74C249.842 199.775 250.215 201.978 250.08 204.18C250.08 207.65 249.74 210.01 249.08 211.4C248.821 212.05 248.375 212.608 247.798 213.004C247.221 213.399 246.539 213.614 245.84 213.62H245.81ZM245.81 196.52C245.308 196.555 244.827 196.735 244.425 197.038C244.024 197.342 243.719 197.756 243.55 198.23C242.91 199.48 242.55 201.62 242.55 204.59C242.55 207.56 242.87 209.65 243.55 210.9C243.707 211.393 244.017 211.824 244.435 212.129C244.853 212.435 245.357 212.6 245.875 212.6C246.393 212.6 246.897 212.435 247.315 212.129C247.733 211.824 248.043 211.393 248.2 210.9C248.81 209.67 249.13 207.4 249.13 204.13C249.25 202.08 248.908 200.03 248.13 198.13C247.936 197.665 247.612 197.266 247.197 196.98C246.782 196.695 246.293 196.535 245.79 196.52H245.81Z" fill="black"/>
<path d="M267.25 208.67V202.41H275.87V215.23C274.637 216.745 273.156 218.04 271.49 219.06C270.091 219.758 268.543 220.102 266.98 220.06C265.069 220.139 263.199 219.488 261.75 218.24C260.232 216.743 259.147 214.863 258.61 212.8C257.831 210.11 257.457 207.32 257.5 204.52C257.442 201.617 257.851 198.724 258.71 195.95C259.345 193.805 260.585 191.889 262.28 190.43C263.711 189.393 265.455 188.878 267.22 188.97C268.763 188.872 270.305 189.183 271.69 189.87C272.754 190.557 273.606 191.526 274.15 192.67C274.879 194.19 275.374 195.812 275.62 197.48L270.24 199.08C270.102 198.13 269.716 197.233 269.12 196.48C268.873 196.193 268.566 195.963 268.22 195.808C267.874 195.652 267.499 195.575 267.12 195.58C266.479 195.608 265.86 195.824 265.341 196.201C264.822 196.578 264.425 197.099 264.2 197.7C263.48 199.11 263.11 201.35 263.11 204.41C263.11 207.67 263.48 209.99 264.21 211.41C264.463 212.019 264.888 212.542 265.433 212.913C265.979 213.284 266.62 213.488 267.28 213.5C267.905 213.501 268.52 213.346 269.07 213.05C269.786 212.631 270.44 212.113 271.01 211.51V208.68L267.25 208.67Z" fill="white"/>
<path d="M266.98 220.57C264.937 220.634 262.946 219.919 261.41 218.57C259.833 217.009 258.701 215.055 258.13 212.91C257.336 210.172 256.952 207.331 256.99 204.48C256.935 201.522 257.357 198.574 258.24 195.75C258.898 193.511 260.194 191.513 261.97 190C263.489 188.892 265.342 188.338 267.22 188.43C268.858 188.332 270.492 188.677 271.95 189.43C273.093 190.164 274.007 191.203 274.59 192.43C275.353 194.008 275.866 195.695 276.11 197.43L276.19 197.87L269.86 199.75L269.75 199.21C269.629 198.346 269.284 197.529 268.75 196.84C268.548 196.602 268.294 196.413 268.008 196.287C267.723 196.161 267.412 196.1 267.1 196.11C266.552 196.141 266.025 196.333 265.586 196.662C265.147 196.991 264.814 197.443 264.63 197.96C263.94 199.29 263.63 201.48 263.63 204.44C263.63 207.6 263.98 209.87 264.63 211.18C264.837 211.71 265.197 212.166 265.663 212.492C266.129 212.817 266.681 212.998 267.25 213.01C267.791 213.01 268.323 212.876 268.8 212.62C269.416 212.261 269.982 211.821 270.48 211.31V209.19H266.75V201.93H276.41V215.44L276.28 215.58C275.009 217.137 273.484 218.469 271.77 219.52C270.285 220.262 268.639 220.623 266.98 220.57ZM267.22 189.48C265.568 189.388 263.934 189.865 262.59 190.83C260.971 192.229 259.79 194.066 259.19 196.12C258.343 198.841 257.938 201.681 257.99 204.53C257.948 207.28 258.319 210.02 259.09 212.66C259.605 214.637 260.641 216.439 262.09 217.88C263.452 219.041 265.202 219.644 266.99 219.57C268.477 219.596 269.948 219.252 271.27 218.57C272.839 217.618 274.238 216.412 275.41 215V202.87H267.79V208.13H271.52V211.67L271.37 211.82C270.763 212.455 270.07 213 269.31 213.44C268.696 213.773 268.009 213.949 267.31 213.95C266.558 213.943 265.825 213.716 265.201 213.297C264.577 212.877 264.09 212.284 263.8 211.59C263.02 210.11 262.64 207.75 262.64 204.38C262.64 201.21 263.02 198.94 263.79 197.44C264.054 196.756 264.514 196.165 265.111 195.74C265.708 195.315 266.417 195.075 267.15 195.05C267.604 195.039 268.056 195.129 268.471 195.314C268.886 195.499 269.254 195.775 269.55 196.12C270.104 196.785 270.489 197.574 270.67 198.42L275.11 197.1C274.862 195.635 274.411 194.211 273.77 192.87C273.26 191.812 272.472 190.913 271.49 190.27C270.161 189.637 268.688 189.365 267.22 189.48Z" fill="black"/>
<path d="M140.55 62.8101H41.3298C38.5451 62.8101 35.8744 61.7038 33.9053 59.7346C31.9361 57.7655 30.8298 55.0948 30.8298 52.3101C30.8298 49.5253 31.9361 46.8546 33.9053 44.8855C35.8744 42.9164 38.5451 41.8101 41.3298 41.8101H140.55C143.335 41.8101 146.005 42.9164 147.975 44.8855C149.944 46.8546 151.05 49.5253 151.05 52.3101C151.05 55.0948 149.944 57.7655 147.975 59.7346C146.005 61.7038 143.335 62.8101 140.55 62.8101Z" fill="#FAED26"/>
<path d="M140.55 63.3101H41.3298C38.4125 63.3101 35.6147 62.151 33.5518 60.0881C31.4889 58.0252 30.3298 55.2274 30.3298 52.3101C30.3298 49.3927 31.4889 46.5946 33.5518 44.5317C35.6147 42.4688 38.4125 41.3101 41.3298 41.3101H140.55C143.467 41.3101 146.265 42.4688 148.328 44.5317C150.391 46.5946 151.55 49.3927 151.55 52.3101C151.55 55.2274 150.391 58.0252 148.328 60.0881C146.265 62.151 143.467 63.3101 140.55 63.3101ZM41.3298 42.3101C38.6777 42.3101 36.1342 43.3637 34.2588 45.239C32.3834 47.1144 31.3298 49.6579 31.3298 52.3101C31.3298 54.9622 32.3834 57.5057 34.2588 59.3811C36.1342 61.2565 38.6777 62.3101 41.3298 62.3101H140.55C143.202 62.3101 145.746 61.2565 147.621 59.3811C149.496 57.5057 150.55 54.9622 150.55 52.3101C150.55 49.6579 149.496 47.1144 147.621 45.239C145.746 43.3637 143.202 42.3101 140.55 42.3101H41.3298Z" fill="#010101"/>
<path d="M140.55 98H41.3298C38.5451 98 35.8744 96.8937 33.9053 94.9246C31.9361 92.9554 30.8298 90.2848 30.8298 87.5C30.8298 84.7152 31.9361 82.0446 33.9053 80.0754C35.8744 78.1063 38.5451 77 41.3298 77H140.55C143.335 77 146.005 78.1063 147.975 80.0754C149.944 82.0446 151.05 84.7152 151.05 87.5C151.05 90.2848 149.944 92.9554 147.975 94.9246C146.005 96.8937 143.335 98 140.55 98Z" fill="#FAED26"/>
<path d="M140.55 98.5H41.3298C38.4125 98.5 35.6147 97.341 33.5518 95.2781C31.4889 93.2152 30.3298 90.4174 30.3298 87.5C30.3298 84.5826 31.4889 81.7848 33.5518 79.7219C35.6147 77.659 38.4125 76.5 41.3298 76.5H140.55C143.467 76.5 146.265 77.659 148.328 79.7219C150.391 81.7848 151.55 84.5826 151.55 87.5C151.55 90.4174 150.391 93.2152 148.328 95.2781C146.265 97.341 143.467 98.5 140.55 98.5ZM41.3298 77.5C38.6777 77.5 36.1342 78.5536 34.2588 80.429C32.3834 82.3043 31.3298 84.8478 31.3298 87.5C31.3298 90.1522 32.3834 92.6957 34.2588 94.571C36.1342 96.4464 38.6777 97.5 41.3298 97.5H140.55C143.202 97.5 145.746 96.4464 147.621 94.571C149.496 92.6957 150.55 90.1522 150.55 87.5C150.55 84.8478 149.496 82.3043 147.621 80.429C145.746 78.5536 143.202 77.5 140.55 77.5H41.3298Z" fill="#010101"/>
<path d="M140.55 133.19H41.3298C38.5451 133.19 35.8744 132.084 33.9053 130.115C31.9361 128.145 30.8298 125.475 30.8298 122.69C30.8298 119.905 31.9361 117.235 33.9053 115.265C35.8744 113.296 38.5451 112.19 41.3298 112.19H140.55C143.335 112.19 146.005 113.296 147.975 115.265C149.944 117.235 151.05 119.905 151.05 122.69C151.05 125.475 149.944 128.145 147.975 130.115C146.005 132.084 143.335 133.19 140.55 133.19Z" fill="#FAED26"/>
<path d="M140.55 133.69H41.3298C38.4125 133.69 35.6147 132.531 33.5518 130.468C31.4889 128.405 30.3298 125.607 30.3298 122.69C30.3298 119.773 31.4889 116.975 33.5518 114.912C35.6147 112.849 38.4125 111.69 41.3298 111.69H140.55C143.467 111.69 146.265 112.849 148.328 114.912C150.391 116.975 151.55 119.773 151.55 122.69C151.55 125.607 150.391 128.405 148.328 130.468C146.265 132.531 143.467 133.69 140.55 133.69ZM41.3298 112.69C38.6777 112.69 36.1342 113.744 34.2588 115.619C32.3834 117.494 31.3298 120.038 31.3298 122.69C31.3298 125.342 32.3834 127.886 34.2588 129.761C36.1342 131.636 38.6777 132.69 41.3298 132.69H140.55C143.202 132.69 145.746 131.636 147.621 129.761C149.496 127.886 150.55 125.342 150.55 122.69C150.55 120.038 149.496 117.494 147.621 115.619C145.746 113.744 143.202 112.69 140.55 112.69H41.3298Z" fill="#010101"/>
</svg>
