<svg width="300" height="246" viewBox="0 0 300 246" fill="none" xmlns="http://www.w3.org/2000/svg">
<path d="M288 0H12C8.8174 0 5.76515 1.2643 3.51471 3.51474C1.26427 5.76518 0 8.8174 0 12V234C0 237.183 1.26427 240.235 3.51471 242.485C5.76515 244.736 8.8174 246 12 246H288C291.183 246 294.235 244.736 296.485 242.485C298.736 240.235 300 237.183 300 234V12C300 8.8174 298.736 5.76518 296.485 3.51474C294.235 1.2643 291.183 0 288 0Z" fill="#61707E"/>
<path d="M166.28 12.29H15C14.2485 12.2927 13.5287 12.593 12.9982 13.1254C12.4678 13.6577 12.17 14.3785 12.17 15.13V159.79C12.17 160.541 12.4681 161.26 12.9988 161.791C13.5296 162.322 14.2494 162.62 15 162.62H166.28C167.031 162.62 167.75 162.322 168.281 161.791C168.812 161.26 169.11 160.541 169.11 159.79V15.14C169.111 14.7671 169.039 14.3975 168.898 14.0524C168.756 13.7074 168.548 13.3936 168.285 13.1289C168.022 12.8643 167.71 12.6539 167.366 12.51C167.022 12.3661 166.653 12.2913 166.28 12.29Z" fill="#D3E2E2"/>
<path d="M181.01 12.29H285.01C285.763 12.29 286.486 12.5892 287.018 13.1218C287.551 13.6544 287.85 14.3768 287.85 15.13V162.62H181.01V12.29Z" fill="#F78C21"/>
<path d="M203.76 31.29H227.84V21.35H239.09V31.29H263.41V39.4H240.41L256.89 70.29C257.58 72.03 258.98 72.82 261.08 72.64H263.41V81.02H258.7C253.993 81.1867 250.853 79.6167 249.28 76.31L233.58 47.52L218.41 76.05C217.363 78.15 216.14 79.3733 214.74 79.72C213.687 80.3867 211.243 80.72 207.41 80.72H203.75V72.87H206.41C208.32 73.22 209.81 72.44 210.86 70.52L226.86 39.37H203.86V31.29H203.76Z" fill="white"/>
<path d="M258.02 81.54C253.51 81.54 250.42 79.86 248.85 76.54L233.6 48.59L218.86 76.29C217.77 78.46 216.46 79.77 214.95 80.18C213.78 80.91 211.31 81.27 207.42 81.27H203.26V72.41H206.41C207.216 72.5896 208.06 72.4783 208.792 72.0958C209.524 71.7133 210.097 71.0843 210.41 70.32L225.99 39.91H203.26V30.8H227.34V20.86H239.59V30.8H263.93V39.91H241.23L257.33 70.06C257.591 70.7957 258.11 71.4123 258.789 71.7963C259.469 72.1803 260.265 72.3059 261.03 72.15H263.93V81.53H258.02V81.54ZM233.59 46.47L249.74 76.08C251.24 79.25 254.18 80.69 258.74 80.53H262.97V73.15H261.12C260.154 73.3192 259.159 73.1449 258.307 72.6572C257.456 72.1695 256.803 71.3992 256.46 70.48L239.61 38.91H262.97V31.8H238.59V21.86H228.34V31.8H204.26V38.91H227.61L211.27 70.79C210.11 72.92 208.42 73.79 206.27 73.4H204.27V80.29H207.41C212.04 80.29 213.8 79.76 214.41 79.29L214.57 79.22C215.81 78.91 216.93 77.77 217.91 75.82L233.59 46.47Z" fill="black"/>
<path d="M287.83 175.01V230.85C287.83 231.601 287.532 232.322 287.002 232.855C286.471 233.387 285.751 233.687 285 233.69H104.41V175.01H287.83Z" fill="#F78C21"/>
<path d="M92.93 233.69H15C14.2485 233.687 13.5287 233.387 12.9982 232.855C12.4678 232.322 12.17 231.601 12.17 230.85V175.01H92.94L92.93 233.69Z" fill="#F78C21"/>
<path d="M206.64 144.29V93.78H262.91V144.78C262.73 145.833 263.34 146.533 264.74 146.88V153.42H256.89C256.179 153.454 255.474 153.273 254.867 152.9C254.261 152.527 253.781 151.98 253.49 151.33H243.28C241.187 151.33 239.877 150.543 239.35 148.97L234.64 140.6L230.41 147.95C230.038 148.97 229.355 149.848 228.458 150.459C227.562 151.071 226.495 151.386 225.41 151.36H215.99C215.799 152.077 215.339 152.694 214.707 153.083C214.074 153.472 213.317 153.603 212.59 153.45H204.47V146.12C206.12 146.29 206.81 145.69 206.64 144.29ZM252.7 144.03V101.89H216.58V144.03H220.51C221.73 144.2 222.43 143.86 222.6 142.98L229.41 130.98L216.85 106.64H227.32L234.91 121.29L242.5 106.63H252.18L239.88 130.71L246.16 142.23C246.68 143.62 247.47 144.23 248.51 144.06L252.7 144.03Z" fill="white"/>
<path d="M213.15 153.98H204.04V145.59L204.6 145.65C204.828 145.71 205.067 145.72 205.3 145.681C205.533 145.641 205.754 145.552 205.95 145.42C206.05 145.276 206.119 145.113 206.151 144.94C206.184 144.768 206.18 144.591 206.14 144.42V93.29H263.41V144.82C263.35 145.24 263.21 146.02 264.86 146.43L265.24 146.53V153.96H256.89C256.139 153.994 255.394 153.817 254.74 153.447C254.085 153.077 253.548 152.531 253.19 151.87H243.28C240.96 151.87 239.48 150.96 238.88 149.17L234.64 141.65L230.89 148.21C230.476 149.303 229.733 150.242 228.765 150.897C227.796 151.552 226.649 151.892 225.48 151.87H216.41C216.161 152.522 215.71 153.078 215.124 153.457C214.538 153.837 213.847 154.02 213.15 153.98ZM205.04 152.98H212.66C213.279 153.129 213.932 153.029 214.478 152.702C215.024 152.375 215.419 151.846 215.58 151.23L215.7 150.89H225.48C226.465 150.908 227.431 150.617 228.242 150.057C229.053 149.497 229.668 148.697 230 147.77L234.65 139.64L239.79 148.79C240.28 150.23 241.41 150.89 243.28 150.89H253.8L253.93 151.16C254.176 151.74 254.598 152.228 255.136 152.554C255.675 152.881 256.302 153.03 256.93 152.98H264.28V147.29C262.43 146.69 262.34 145.45 262.45 144.74V94.29H207.14V144.29C207.206 144.611 207.196 144.944 207.113 145.261C207.03 145.578 206.875 145.872 206.66 146.12C206.441 146.317 206.185 146.468 205.907 146.564C205.628 146.66 205.334 146.7 205.04 146.68V152.98ZM221.04 144.6C220.83 144.618 220.62 144.618 220.41 144.6H216.05V101.46H253.17V144.6H248.51C247.69 144.74 246.46 144.49 245.69 142.44L239.31 130.69L251.41 107.1H242.85L234.96 122.35L227.06 107.1H217.72L230.03 130.95L223.13 143.16C223.031 143.613 222.763 144.012 222.38 144.274C221.997 144.536 221.528 144.642 221.07 144.57L221.04 144.6ZM217.04 143.6H220.47C221.91 143.8 222.02 143.23 222.07 142.95L222.13 142.8L228.8 131L217.04 108.22V143.6ZM240.41 130.67L246.57 141.96C247.17 143.56 247.9 143.62 248.4 143.53H252.17V107.66L240.41 130.67ZM217.05 106.1H227.59L234.88 120.17L242.16 106.1H252.16V102.39H217.08L217.05 106.1Z" fill="black"/>
<path d="M39.15 188.29V183.89H45.21V188.29H46.68V193.44H45.21V195.09H46.3199V200.41H45.21V225.41H38.97V200.41H38.24L37.5 220.06C37.5 222.5 36.34 223.73 34.02 223.73H31.41V219.29C31.89 219.42 32.14 219.17 32.14 218.56L32.87 195.06H38.93V193.59H31.59V188.29H39.15ZM47.41 208.67H73.29V215.47C73.41 218.137 72.31 219.36 69.99 219.14L69.62 221.14H73.29V224.81H46.49V221.14H50.34L49.79 219.14H47.41V208.67ZM47.22 207.2V202.8H73.29V207.2H47.22ZM54.02 188.84H47.77V184.29H60.2599L59.52 195.49C59.52 200.157 57.38 202.24 53.1 201.74H47.96V197.15H52.18C52.79 197.27 53.18 196.9 53.28 196.04L53.47 195.49H50.53C48.69 195.37 47.77 194.207 47.77 192V190.29H51.6299C51.4999 190.91 51.75 191.15 52.36 191.03H53.83L54.02 188.84ZM53.29 213.29V214.76H66.29C66.77 214.88 67.02 214.64 67.02 214.03V213.29H53.29ZM63.5699 219.17H56.5699V221.17H63.5699V219.17ZM61.74 197.17L60.8199 184.29H73.3V189.44H67.61L67.98 191.27H68.9C69.51 191.39 69.81 191.15 69.81 190.54H73.49L73.3 192.74C73.18 194.82 72.2633 195.677 70.55 195.31H68.16L68.35 196.04C68.22 196.9 68.6499 197.27 69.6299 197.15H73.12V201.55H66.5099C63.4499 201.777 61.86 200.297 61.74 197.11V197.17Z" fill="white"/>
<path d="M45.71 225.88H38.47V207.54L38 220.08C38 222.79 36.62 224.23 34 224.23H30.94V218.68L31.56 218.84H31.65C31.6563 218.753 31.6563 218.667 31.65 218.58L32.4 194.58H38.4V194.11H31.06V187.78H38.58V183.38H45.64V187.78H47.11V193.93H45.71V194.58H46.8199V200.9H45.71V225.88ZM39.47 224.88H44.71V199.88H45.8199V195.56H44.71V192.91H46.18V188.76H44.71V184.36H39.65V188.76H32.1299V193.09H39.47V195.56H33.41L32.69 218.56C32.7064 218.756 32.678 218.954 32.6069 219.137C32.5359 219.321 32.4241 219.486 32.28 219.62C32.1831 219.691 32.0749 219.745 31.96 219.78V223.19H34.02C36.02 223.19 37.02 222.19 37.02 220.02L37.78 199.87H39.49L39.47 224.88ZM73.8 225.33H46V220.66H49.7L49.42 219.66H46.92V208.19H73.8V215.49C73.8881 216.098 73.8443 216.719 73.6718 217.309C73.4993 217.899 73.202 218.445 72.8 218.91C72.4771 219.195 72.0994 219.411 71.6902 219.545C71.2811 219.679 70.8489 219.728 70.42 219.69L70.24 220.69H73.81L73.8 225.33ZM47 224.33H72.8V221.66H69.03L69.59 218.59L70.05 218.64C70.4054 218.714 70.7725 218.71 71.1263 218.629C71.4802 218.548 71.8123 218.391 72.1 218.17C72.3988 217.798 72.6156 217.367 72.7362 216.905C72.8568 216.443 72.8786 215.961 72.8 215.49V209.17H47.92V218.64H50.18L51.0099 221.64H47.0099L47 224.33ZM64.0699 221.66H56.0699V218.66H64.0699V221.66ZM57.0699 220.66H63.0699V219.66H57.0699V220.66ZM66.52 215.26H52.79V212.79H67.56V214.03C67.5772 214.228 67.5492 214.427 67.4781 214.612C67.4071 214.798 67.2949 214.964 67.15 215.1C66.9756 215.226 66.7652 215.293 66.55 215.29L66.52 215.26ZM53.7599 214.26L66.41 214.29H66.5C66.5064 214.203 66.5064 214.117 66.5 214.03V213.79H53.79L53.7599 214.26ZM73.7599 207.74H46.73V202.29H73.8L73.7599 207.74ZM47.69 206.74H72.7599V203.29H47.73L47.69 206.74ZM54.22 202.3C53.8154 202.297 53.4114 202.27 53.0099 202.22H47.43V196.63H52.15C52.42 196.63 52.48 196.63 52.5 196.63C52.52 196.63 52.68 196.46 52.75 195.99H50.5C48.99 195.89 47.24 195.12 47.24 191.99V189.84H52.24L52.12 190.44C52.1122 190.496 52.1122 190.554 52.12 190.61H53.41L53.5099 189.41H47.31V183.81H73.83V189.96H68.25L68.42 190.79H68.93C69.0519 190.817 69.1781 190.817 69.3 190.79C69.3212 190.708 69.3212 190.622 69.3 190.54V190.04H74.02L73.79 192.78C73.8078 193.278 73.7188 193.774 73.5291 194.234C73.3393 194.695 73.0533 195.109 72.69 195.45C72.3709 195.665 72.0091 195.808 71.6293 195.871C71.2496 195.933 70.861 195.912 70.49 195.81H68.79L68.84 196.02V196.12C68.8006 196.274 68.8183 196.438 68.89 196.58C69.1014 196.683 69.3421 196.707 69.5699 196.65H73.62V202.05H66.5099C65.845 202.152 65.1663 202.115 64.5159 201.943C63.8656 201.771 63.2577 201.467 62.73 201.05C62.2316 200.538 61.8424 199.93 61.5863 199.263C61.3302 198.596 61.2124 197.884 61.24 197.17L60.55 187.59L60.03 195.53C60.03 198.05 59.39 199.91 58.14 201.03C57.0501 201.921 55.6654 202.371 54.2599 202.29L54.22 202.3ZM48.43 201.23H53.0699C55.0699 201.45 56.48 201.13 57.43 200.23C58.38 199.33 58.99 197.69 58.99 195.43L59.69 184.73H48.28V188.33H54.5699L54.3 191.53H52.41C52.2365 191.577 52.054 191.58 51.8793 191.538C51.7045 191.496 51.5431 191.411 51.41 191.29C51.2776 191.154 51.1933 190.978 51.17 190.79H48.3199V191.94C48.3199 194.49 49.63 194.87 50.61 194.94H54.21L53.81 196.15C53.7918 196.391 53.7248 196.627 53.6131 196.842C53.5014 197.057 53.3472 197.246 53.16 197.4C53.0149 197.498 52.8514 197.565 52.6795 197.598C52.5076 197.63 52.3308 197.628 52.16 197.59H48.54L48.43 201.23ZM61.41 184.75L62.29 197.09C62.2471 197.672 62.3244 198.256 62.5171 198.807C62.7098 199.357 63.0137 199.862 63.41 200.29C63.8439 200.617 64.3399 200.852 64.8677 200.981C65.3956 201.11 65.9442 201.13 66.48 201.04H72.6299V197.64H69.6299C69.3762 197.696 69.1128 197.692 68.8609 197.628C68.609 197.563 68.3758 197.441 68.18 197.27C68.0351 197.109 67.929 196.918 67.8701 196.71C67.8111 196.502 67.8008 196.283 67.84 196.07L67.52 194.8H70.65C70.8878 194.879 71.14 194.905 71.3889 194.875C71.6377 194.846 71.8771 194.762 72.09 194.63C72.3381 194.375 72.5296 194.07 72.652 193.736C72.7743 193.401 72.8248 193.045 72.8 192.69L72.94 191.02H70.25C70.1911 191.223 70.0727 191.405 69.91 191.54C69.7525 191.656 69.5706 191.734 69.3782 191.769C69.1858 191.804 68.988 191.794 68.8 191.74H67.5699L67 188.91H72.8V184.76L61.41 184.75Z" fill="black"/>
<path d="M168.54 208.64V202.38H177.16V215.2C175.93 216.715 174.448 218.008 172.78 219.02C171.383 219.723 169.833 220.067 168.27 220.02C166.357 220.1 164.486 219.445 163.04 218.19C161.523 216.696 160.438 214.82 159.9 212.76C159.121 210.067 158.747 207.273 158.79 204.47C158.733 201.57 159.142 198.68 160 195.91C160.635 193.763 161.874 191.843 163.57 190.38C165.003 189.346 166.746 188.835 168.51 188.93C170.053 188.832 171.595 189.143 172.98 189.83C174.046 190.514 174.899 191.484 175.44 192.63C176.17 194.15 176.666 195.772 176.91 197.44L171.53 199.04C171.392 198.087 171.006 197.187 170.41 196.43C170.163 196.143 169.855 195.913 169.51 195.758C169.164 195.602 168.789 195.525 168.41 195.53C167.768 195.56 167.149 195.778 166.63 196.157C166.111 196.535 165.715 197.058 165.49 197.66C164.77 199.07 164.4 201.31 164.4 204.37C164.4 207.63 164.767 209.963 165.5 211.37C165.751 211.981 166.176 212.506 166.721 212.879C167.267 213.252 167.909 213.457 168.57 213.47C169.195 213.471 169.81 213.316 170.36 213.02C171.072 212.595 171.724 212.077 172.3 211.48V208.65L168.54 208.64Z" fill="white"/>
<path d="M168.27 220.54C166.226 220.61 164.233 219.894 162.7 218.54C161.121 216.984 159.988 215.033 159.42 212.89C158.63 210.148 158.249 207.304 158.29 204.45C158.233 201.496 158.652 198.551 159.53 195.73C160.192 193.491 161.487 191.49 163.26 189.97C164.781 188.866 166.633 188.315 168.51 188.41C170.147 188.317 171.78 188.662 173.24 189.41C174.379 190.148 175.293 191.186 175.88 192.41C176.644 193.987 177.157 195.674 177.4 197.41L177.48 197.84L171.15 199.73L171.04 199.19C170.923 198.325 170.578 197.507 170.04 196.82C169.839 196.579 169.587 196.388 169.301 196.259C169.015 196.131 168.703 196.07 168.39 196.08C167.843 196.114 167.317 196.307 166.878 196.636C166.439 196.964 166.106 197.414 165.92 197.93C165.23 199.27 164.92 201.45 164.92 204.42C164.92 207.58 165.27 209.85 165.92 211.16C166.127 211.69 166.487 212.146 166.953 212.472C167.419 212.797 167.971 212.978 168.54 212.99C169.082 212.991 169.616 212.854 170.09 212.59C170.709 212.239 171.275 211.801 171.77 211.29V209.17H168.04V201.91H177.66V215.42L177.53 215.56C176.262 217.117 174.736 218.447 173.02 219.49C171.548 220.229 169.916 220.59 168.27 220.54ZM168.51 189.45C166.858 189.358 165.224 189.835 163.88 190.8C162.261 192.199 161.08 194.036 160.48 196.09C159.638 198.809 159.236 201.644 159.29 204.49C159.246 207.243 159.613 209.986 160.38 212.63C160.893 214.605 161.929 216.405 163.38 217.84C164.738 219.008 166.49 219.616 168.28 219.54C169.767 219.566 171.238 219.222 172.56 218.54C174.118 217.585 175.506 216.379 176.67 214.97V202.84H169.05V208.1H172.78V211.64L172.63 211.78C172.026 212.421 171.332 212.97 170.57 213.41C169.956 213.743 169.269 213.919 168.57 213.92C167.819 213.908 167.088 213.679 166.465 213.26C165.842 212.841 165.354 212.251 165.06 211.56C164.28 210.08 163.9 207.72 163.9 204.35C163.9 201.18 164.28 198.91 165.05 197.41C165.314 196.725 165.773 196.133 166.37 195.706C166.967 195.279 167.677 195.037 168.41 195.01C168.866 194.996 169.319 195.086 169.735 195.273C170.151 195.46 170.518 195.739 170.81 196.09C171.365 196.754 171.749 197.544 171.93 198.39L176.37 197.07C176.122 195.605 175.671 194.181 175.03 192.84C174.523 191.78 173.735 190.881 172.75 190.24C171.43 189.611 169.968 189.338 168.51 189.45Z" fill="black"/>
<path d="M191.56 214.56H185.23L184.35 219.56H178.66L185.41 189.46H191.49L198.27 219.53H192.43L191.56 214.56ZM190.4 208.06L188.41 197.29L186.41 208.1L190.4 208.06Z" fill="white"/>
<path d="M198.92 220.03H192.04L191.14 215.03H185.65L184.77 220.03H178.03L185.03 188.96H191.91L198.92 220.03ZM192.92 219.03H197.71L191.16 189.96H185.88L179.32 219.03H183.97L184.85 214.03H192.01L192.92 219.03ZM191.04 208.56H185.88L188.41 194.48L191.04 208.56ZM187.04 207.56H189.8L188.41 200.03L187.04 207.56Z" fill="black"/>
<path d="M200.07 189.46H205.64V212.12H214.34V219.53H200.07V189.46Z" fill="white"/>
<path d="M214.84 220.03H199.57V188.96H206.14V211.62H214.84V220.03ZM200.57 219.03H213.84V212.62H205.14V189.96H200.57V219.03Z" fill="black"/>
<path d="M216.86 189.46H231.8V195.88H222.41V200.66H231.09V206.79H222.41V212.72H232.03V219.53H216.86V189.46Z" fill="white"/>
<path d="M232.57 220.03H216.41V188.96H232.35V196.38H223V200.16H231.67V207.29H223V212.22H232.62L232.57 220.03ZM217.36 219.03H231.57V213.22H221.95V206.29H230.62V201.16H221.95V195.38H231.3V189.96H217.41L217.36 219.03Z" fill="black"/>
<path d="M77.04 29.55L37.04 140.78L47.18 145.39L71.02 80.39L144.13 65.16V54.71L77.04 29.55ZM75.73 67.73L84.11 44.91L121.29 58.43L75.73 67.73Z" fill="#F78C21"/>
<path d="M47.52 146.07L36.47 141.07L76.74 28.93L144.68 54.43V65.63L144.29 65.71L71.41 80.86L47.52 146.07ZM37.72 140.52L46.95 144.71L70.7 79.99L143.7 64.78V55.09L77.36 30.19L37.72 140.52ZM74.95 68.4L83.81 44.29L123.12 58.59L74.95 68.4ZM84.41 45.55L76.5099 67.06L119.41 58.29L84.41 45.55Z" fill="black"/>
</svg>
