<svg width="300" height="246" viewBox="0 0 300 246" fill="none" xmlns="http://www.w3.org/2000/svg">
<path d="M288 0H12C8.8174 0 5.76509 1.26421 3.51465 3.51465C1.26421 5.76509 0 8.8174 0 12V234C0 237.183 1.26421 240.235 3.51465 242.485C5.76509 244.736 8.8174 246 12 246H288C291.183 246 294.235 244.736 296.485 242.485C298.736 240.235 300 237.183 300 234V12C300 8.8174 298.736 5.76509 296.485 3.51465C294.235 1.26421 291.183 0 288 0Z" fill="#61707E"/>
<path d="M166.28 12.3H15C14.2485 12.3027 13.5287 12.6029 12.9983 13.1353C12.4678 13.6676 12.1699 14.3884 12.1699 15.1399V159.8C12.1699 160.551 12.4681 161.27 12.9988 161.801C13.5295 162.332 14.2494 162.63 15 162.63H166.28C167.031 162.63 167.75 162.332 168.281 161.801C168.812 161.27 169.11 160.551 169.11 159.8V15.1399C169.11 14.3884 168.812 13.6676 168.282 13.1353C167.751 12.6029 167.032 12.3027 166.28 12.3Z" fill="#D3E2E2"/>
<path d="M181.02 12.3H285.02C285.772 12.3027 286.491 12.6029 287.022 13.1353C287.552 13.6676 287.85 14.3884 287.85 15.1399V162.63H181.02V12.3Z" fill="#F78C21"/>
<path d="M203.76 31.3H227.84V21.3601H239.09V31.3H263.41V39.4199H240.41L256.9 70.3C257.6 72.04 258.99 72.8299 261.09 72.6499H263.41V81.03H258.7C253.987 81.2034 250.847 79.6334 249.28 76.3201L233.58 47.53L218.41 76.0601C217.357 78.1467 216.133 79.3666 214.74 79.72C213.74 80.41 211.25 80.77 207.42 80.77H203.75V72.9099H206.41C208.33 73.2699 209.81 72.4801 210.86 70.5601L226.86 39.4099H203.86V31.3H203.76Z" fill="white"/>
<path d="M258.03 81.54C253.52 81.54 250.42 79.86 248.85 76.54L233.6 48.5901L218.86 76.3C217.78 78.47 216.46 79.7799 214.96 80.1899C213.78 80.9199 211.31 81.28 207.42 81.28H203.26V72.4199H206.41C207.216 72.5995 208.06 72.4882 208.792 72.1057C209.524 71.7232 210.097 71.0944 210.41 70.3301L225.99 39.9199H203.28V30.8101H227.36V20.8699H239.61V30.8101H263.95V39.9199H241.26L257.35 70.0701C257.613 70.8072 258.133 71.425 258.814 71.8105C259.495 72.1961 260.292 72.3236 261.06 72.1699H263.95V81.49H258.05L258.03 81.54ZM233.59 46.49L249.74 76.1001C251.24 79.2701 254.18 80.72 258.74 80.55H262.97V73.1699H261.12C260.144 73.3554 259.135 73.1876 258.272 72.6965C257.409 72.2055 256.749 71.4233 256.41 70.49L239.55 38.9199H262.91V31.8101H238.57V21.8699H228.32V31.8101H204.24V38.9199H227.59L211.25 70.8C210.09 72.93 208.42 73.7999 206.25 73.4199H204.25V80.28H207.41C212.04 80.28 213.8 79.75 214.47 79.28L214.62 79.22C215.86 78.9 216.99 77.7601 217.96 75.8101L233.59 46.49Z" fill="black"/>
<path d="M287.83 175.01V230.86C287.83 231.611 287.532 232.33 287.001 232.861C286.47 233.392 285.751 233.69 285 233.69H104.41V175.01H287.83Z" fill="#F78C21"/>
<path d="M92.9399 233.69H15C14.2494 233.69 13.5295 233.392 12.9988 232.861C12.4681 232.33 12.1699 231.611 12.1699 230.86V175.01H92.9399V233.69Z" fill="#F78C21"/>
<path d="M204.55 94.3H262.41V99.8H237.8V102.15H262.14V116.81H253.51V106.6H237.8V117.07H229.41V106.86H213.71V117.59H205.07V102.41H229.41V99.8H204.55V94.3ZM204.81 125.97V120.97H209.52C209.869 121.085 210.248 121.068 210.585 120.923C210.923 120.777 211.195 120.513 211.35 120.18L212.66 118.87H220.25L219.47 119.66H262.41V125.49L243.56 131.24C243.91 131.6 245.04 131.68 246.97 131.51H262.67V136.74H243.82C240.16 136.92 237.82 136.65 236.76 135.96L233.36 134.65L229.95 135.96C228.014 136.601 225.99 136.938 223.95 136.96H228.67L227.88 139.58H262.41V148.74C262.41 151.88 261.013 153.45 258.22 153.45H237.54V147.95H251.68C252.9 147.95 253.51 147.52 253.51 146.65V145.34H226.51L224.94 150.34C224.24 152.78 222.757 154 220.49 154H204.49V148.49H214.96C215.354 148.454 215.731 148.313 216.052 148.083C216.374 147.853 216.628 147.541 216.79 147.18L217.57 145.35H205.01V139.59H218.62L219.4 137.23H204.81V132H218.94C219.804 132.18 220.696 132.18 221.56 132C222.43 131.83 223.56 131.57 224.96 131.21L216.85 126.77H230.98L233.33 128.07L243.28 124.67H217.11C216.23 125.67 214.84 126.16 212.92 125.98L204.81 125.97ZM226.81 112.88H220.81C220.185 113.035 219.526 112.963 218.95 112.675C218.374 112.387 217.92 111.903 217.67 111.31L215.32 108.17H222.12L222.64 108.96C222.741 109.132 222.888 109.272 223.065 109.364C223.242 109.456 223.441 109.496 223.64 109.48H226.78V112.88H226.81ZM222.89 117.6H216.08V114.72H219.22C219.92 114.89 220.36 114.72 220.53 114.19L221.06 113.67H227.06L225.49 116.29C225.13 117.33 224.26 117.77 222.87 117.6H222.89ZM239.89 112.36V109.22H244.89C245.278 109.183 245.637 108.997 245.89 108.7L246.15 107.91H252.41L250.58 111.05C250.23 112.1 249.36 112.54 247.96 112.36H239.89ZM251.4 117.36H245.4C243.83 117.54 242.87 117.19 242.53 116.36L239.91 113.48H246.19L246.71 114C246.827 114.232 247.024 114.413 247.266 114.509C247.507 114.605 247.776 114.609 248.02 114.52H251.42V117.4L251.4 117.36Z" fill="white"/>
<path d="M220.51 154.49H204.05V148H215.05C215.55 148 216.05 147.64 216.45 146.93L216.91 145.86H204.6V139.1H218.35L218.8 137.74H204.31V131.49H218.94C219.772 131.655 220.628 131.655 221.46 131.49C222.04 131.37 222.76 131.22 223.59 131.02L215.1 126.36C214.366 126.507 213.614 126.541 212.87 126.46H204.31V120.46H209.52C210.44 120.63 210.73 120.3 210.91 119.95L211 119.82L212.45 118.36H221.45L220.66 119.15H262.88V125.78L245.77 131C246.08 131 246.46 131 246.89 130.93H263.14V137.16H243.79C240.06 137.34 237.67 137.07 236.5 136.32L233.33 135.1L230.1 136.34C229.814 136.463 229.52 136.567 229.22 136.65L228.5 139.04H262.88V148.7C262.88 153.01 260.33 153.91 258.19 153.91H237.01V147.49H251.65C252.98 147.49 252.98 146.95 252.98 146.69V145.88H226.89L225.41 150.49C224.68 153.12 223.02 154.49 220.51 154.49ZM205.05 153.49H220.51C222.51 153.49 223.84 152.41 224.51 150.19L226.19 144.86H254.02V146.67C254.02 147.34 253.72 148.47 251.69 148.47H238.05V152.97H258.23C260.75 152.97 261.92 151.63 261.92 148.76V140.1H227.2L227.98 137.48H222.64V136.48H223.94C225.924 136.457 227.892 136.119 229.77 135.48L233.37 134.1L237.05 135.53C237.7 135.97 239.4 136.44 243.81 136.23H262.18V132H246.98C244.27 132.25 243.56 131.93 243.22 131.59L242.64 131L261.92 125.11V120.22H218.29L219.07 119.43H212.9L211.79 120.54C211.576 120.952 211.227 121.278 210.8 121.46C210.373 121.643 209.895 121.671 209.45 121.54H205.34V125.54H212.95C214.76 125.7 215.95 125.33 216.75 124.41L216.9 124.23H246.32L233.32 128.68L230.88 127.33H218.83L226.35 131.45L225.11 131.76C223.71 132.11 222.56 132.38 221.68 132.55C220.753 132.74 219.797 132.74 218.87 132.55H205.31V136.78H220.16L219.04 140.14H205.57V144.9H218.41L217.33 147.42C217.13 147.872 216.812 148.261 216.409 148.547C216.006 148.832 215.532 149.002 215.04 149.04H205.04L205.05 153.49ZM215.54 126.28H231.11L233.41 127.49L240.3 125.13H217.36C216.862 125.659 216.235 126.049 215.54 126.26V126.28ZM223.43 118.15H215.56V114.27H219.33C219.92 114.42 219.99 114.21 220.04 114.07V113.96L220.56 113.44C219.87 113.563 219.159 113.449 218.542 113.116C217.924 112.784 217.438 112.254 217.16 111.61L214.24 107.71H222.31L222.98 108.71C223.05 108.84 223.13 109.01 223.61 109.01H227.25V113.2H227.9L225.9 116.53C225.722 117.036 225.38 117.468 224.929 117.757C224.478 118.047 223.944 118.178 223.41 118.13L223.43 118.15ZM216.56 117.15H222.93C224.44 117.34 224.84 116.69 225.01 116.15L225.06 116.05L226.17 114.19H221.24L220.94 114.49C220.796 114.824 220.528 115.09 220.192 115.23C219.856 115.37 219.479 115.374 219.14 115.24H216.56V117.15ZM216.28 108.72L218.09 111.17C218.3 111.664 218.683 112.065 219.167 112.298C219.65 112.532 220.202 112.582 220.72 112.44H226.29V110.04H223.65C223.35 110.072 223.047 110.013 222.781 109.87C222.516 109.727 222.299 109.508 222.16 109.24L221.82 108.73L216.28 108.72ZM214.21 118.14H204.57V101.96H228.91V100.35H204.05V93.8501H262.89V100.35H238.28V101.7H262.62V117.36H252.99V108.02L251.07 111.31C250.75 112.19 249.96 113.17 247.93 112.91H239.41V108.77H244.88C245.114 108.75 245.331 108.643 245.49 108.47L245.83 107.47H253.02V107.16H238.31V117.63H228.94V107.42H214.24L214.21 118.14ZM205.57 117.14H213.21V106.41H229.91V116.62H237.28V106.15H253.99V116.36H261.62V102.7H237.28V99.3501H261.89V94.8501H205.05V99.3501H229.91V102.96H205.57V117.14ZM240.38 111.91H247.99C249.56 112.1 249.99 111.45 250.14 110.91V110.82L251.53 108.43H246.53L246.34 108.99L246.26 109.07C246.083 109.269 245.868 109.431 245.627 109.546C245.387 109.661 245.126 109.727 244.86 109.74H240.41L240.38 111.91ZM244.61 117.91C244.102 117.978 243.586 117.888 243.131 117.651C242.677 117.415 242.306 117.045 242.07 116.59L238.75 112.94H246.41L247.08 113.61C247.43 114.12 247.67 114.08 247.87 114.01H251.93V117.89H245.41C245.143 117.908 244.876 117.904 244.61 117.88V117.91ZM241.01 113.91L243.01 116.1C243.26 116.74 244.01 116.99 245.37 116.84H250.94V114.96H248.12C247.781 115.065 247.416 115.048 247.087 114.913C246.759 114.778 246.487 114.533 246.32 114.22L246.01 113.92L241.01 113.91Z" fill="black"/>
<path d="M31.6299 188.3H39.1599V183.89H45.22V188.3H46.6799V193.49H45.22V195.14H46.3198V200.46H45.22V225.46H38.97V200.46H38.24L37.51 220.11C37.51 222.55 36.34 223.78 34.02 223.78H31.4099V219.37C31.8999 219.5 32.1399 219.25 32.1399 218.64L32.8799 195.14H38.8799V193.67H31.5398V188.35L31.6299 188.3ZM73.3098 208.67V215.47C73.4298 218.16 72.31 219.39 70 219.14L69.6299 221.14H73.3098V224.81H46.5V221.14H50.4099L49.8499 219.14H47.4099V208.67H73.3098ZM47.23 207.21V202.8H73.2998V207.21H47.23ZM54.03 188.85H47.7898V184.26H60.27L59.5398 195.46C59.5398 200.127 57.3965 202.207 53.1099 201.7H47.97V197.11H52.1899C52.7999 197.23 53.1898 196.86 53.2898 196.01L53.48 195.45H50.5398C48.6998 195.33 47.7898 194.17 47.7898 191.97V190.31H51.6399C51.5199 190.93 51.7599 191.17 52.3699 191.05H53.8398L54.03 188.85ZM53.2898 213.26V214.73H66.2898C66.7798 214.86 67.02 214.61 67.02 214V213.27H53.25L53.2898 213.26ZM63.5698 219.14H56.5698V221.14H63.5698V219.14ZM61.74 197.14L60.8198 184.29H73.2998V189.43H67.6099L67.98 191.26H68.8999C69.5099 191.39 69.8198 191.14 69.8198 190.53H73.49L73.2998 192.73C73.1798 194.81 72.2631 195.667 70.5498 195.3H68.1599L68.3499 196.04C68.2199 196.89 68.6499 197.26 69.6299 197.14H73.1199V201.54H66.51C63.45 201.773 61.86 200.297 61.74 197.11V197.14Z" fill="white"/>
<path d="M45.71 225.88H38.47V207.49L38 220.04C38 222.75 36.63 224.19 34 224.19H30.9299V218.64L31.5498 218.8H31.6399C31.6463 218.714 31.6463 218.627 31.6399 218.54L32.3899 194.54H38.3899V194.07H31.0498V187.75H38.5798V183.34H45.6299V187.75H47.0999V193.89H45.6299V194.54H46.74V200.86H45.6299L45.71 225.88ZM39.47 224.88H44.71V199.88H45.8198V195.56H44.71V192.91H46.1799V188.77H44.71V184.36H39.6599V188.77H32.1299V193.09H39.47V195.56H33.4099L32.6899 218.56C32.707 218.755 32.6788 218.951 32.6077 219.133C32.5365 219.315 32.4246 219.478 32.28 219.61C32.1832 219.681 32.0749 219.735 31.96 219.77V223.18H34.03C36.03 223.18 37.03 222.18 37.03 220.01L37.7898 199.86H39.5L39.47 224.88ZM73.8098 225.33H46V220.66H49.7L49.4199 219.66H46.9199V208.19H73.8098V215.49C73.8974 216.1 73.8536 216.722 73.6812 217.313C73.5087 217.905 73.2115 218.453 72.8098 218.92C72.4858 219.202 72.1078 219.416 71.6987 219.549C71.2897 219.681 70.8581 219.729 70.4299 219.69L70.25 220.69H73.8298L73.8098 225.33ZM47 224.33H72.8098V221.66H69.03L69.5898 218.59L70.0498 218.64C70.4052 218.714 70.7724 218.71 71.1262 218.629C71.48 218.548 71.8122 218.391 72.0999 218.17C72.3982 217.797 72.6155 217.367 72.7378 216.905C72.8601 216.444 72.8845 215.962 72.8098 215.49V209.17H47.9199V218.64H50.1899L51.01 221.64H47.01L47 224.33ZM64.0698 221.66H56.0698V218.66H64.0698V221.66ZM57.0698 220.66H63.0698V219.66H57.0698V220.66ZM52.76 215.26V212.79H67.53V214.02C67.548 214.218 67.5203 214.417 67.4492 214.603C67.3781 214.788 67.2654 214.955 67.1199 215.09C66.9515 215.203 66.7526 215.262 66.5498 215.26H52.76ZM53.76 214.26H66.51C66.5164 214.173 66.5164 214.087 66.51 214V213.77H53.74L53.76 214.26ZM73.76 207.74H46.6899V202.33H73.76V207.74ZM47.6899 206.74H72.76V203.33H47.6899V206.74ZM54.23 202.3C53.8221 202.297 53.4148 202.27 53.01 202.22H47.4299V196.63H52.1499C52.4199 196.63 52.48 196.63 52.5 196.63C52.52 196.63 52.68 196.45 52.75 195.98H50.5C49 195.89 47.25 195.12 47.25 191.98V189.82H52.25L52.1299 190.42C52.1299 190.5 52.1299 190.55 52.1299 190.59H53.3999L53.5 189.39H47.3098V183.8H73.8198V189.94H68.24L68.4099 190.77H68.9199C69.0452 190.796 69.1745 190.796 69.2998 190.77C69.3142 190.687 69.3142 190.603 69.2998 190.52V190.02H74.01L73.78 192.76C73.8025 193.258 73.7157 193.756 73.5256 194.217C73.3356 194.678 73.0469 195.092 72.6799 195.43C72.3608 195.645 71.9991 195.788 71.6194 195.851C71.2397 195.913 70.851 195.892 70.48 195.79H68.78L68.8398 196V196.1C68.8005 196.254 68.8183 196.418 68.8899 196.56C68.9599 196.63 69.1698 196.68 69.5698 196.63H73.6199V202.03H66.51C65.845 202.134 65.1656 202.099 64.5149 201.927C63.8642 201.755 63.2565 201.449 62.73 201.03C62.2319 200.52 61.8428 199.914 61.5867 199.248C61.3305 198.583 61.2126 197.872 61.24 197.16L60.5498 187.57L60.03 195.51C60.03 198.03 59.3999 199.89 58.1399 201.01C57.0531 201.9 55.6723 202.349 54.27 202.27L54.23 202.3ZM48.4299 201.23H53.0698C55.0698 201.44 56.4799 201.13 57.4299 200.28C58.3799 199.43 58.99 197.74 58.99 195.48L59.7 184.79H48.25V188.38H54.53L54.26 191.58H52.4099C52.2371 191.634 52.0528 191.641 51.8767 191.598C51.7006 191.556 51.5392 191.467 51.4099 191.34C51.2744 191.205 51.1867 191.029 51.1599 190.84H48.3198V192C48.3198 194.54 49.6199 194.92 50.5999 195H54.2L53.7998 196.21C53.784 196.452 53.7181 196.688 53.6062 196.903C53.4943 197.118 53.339 197.308 53.1499 197.46C52.8549 197.653 52.4952 197.722 52.1499 197.65H48.53L48.4299 201.23ZM61.3198 184.79L62.2 197.12C62.1665 197.699 62.2522 198.28 62.4517 198.825C62.6512 199.37 62.9602 199.869 63.3599 200.29C63.7931 200.619 64.2888 200.856 64.8167 200.986C65.3445 201.117 65.8934 201.139 66.4299 201.05H72.5798V197.65H69.5798C69.326 197.706 69.0626 197.702 68.8108 197.638C68.5589 197.573 68.3257 197.451 68.1299 197.28C67.9869 197.118 67.8821 196.926 67.8232 196.719C67.7644 196.511 67.7529 196.293 67.7898 196.08L67.47 194.81H70.6099C70.8478 194.888 71.0999 194.913 71.3486 194.884C71.5974 194.855 71.8366 194.771 72.0498 194.64C72.2959 194.383 72.4862 194.078 72.6084 193.744C72.7306 193.41 72.7823 193.055 72.76 192.7L72.8999 191.03H70.2C70.1391 191.235 70.0211 191.419 69.8599 191.56C69.7016 191.674 69.5193 191.751 69.3269 191.784C69.1345 191.817 68.9373 191.805 68.75 191.75H67.52L66.95 188.92H72.75V184.78L61.3198 184.79Z" fill="black"/>
<path d="M115.41 189.49H120.99V200.01H127.08V189.49H132.68V219.49H127.08V207.33H120.99V219.49H115.41V189.49Z" fill="white"/>
<path d="M133.16 220.03H126.57V207.87H121.48V220.03H114.9V188.96H121.48V199.49H126.57V188.97H133.16V220.03ZM127.57 219.03H132.16V189.96H127.57V200.49H120.48V189.97H115.9V219.04H120.48V206.88H127.57V219.03Z" fill="black"/>
<path d="M136.41 189.49H151.34V195.91H141.99V200.69H150.67V206.82H141.99V212.75H151.62V219.49H136.41V189.49Z" fill="white"/>
<path d="M152.07 220.03H135.86V188.96H151.79V196.38H142.41V200.16H151.09V207.29H142.41V212.22H152.04L152.07 220.03ZM136.86 219.03H151.07V213.22H141.41V206.29H150.09V201.16H141.41V195.38H150.76V189.96H136.83L136.86 219.03Z" fill="black"/>
<path d="M165.66 214.56H159.33L158.45 219.56H152.76L159.54 189.49H165.62L172.41 219.49H166.57L165.66 214.56ZM164.5 208.06L162.5 197.26L160.5 208.06H164.5Z" fill="white"/>
<path d="M173.02 220.03H166.14L165.24 215.03H159.75L158.87 220.03H152.13L159.13 188.96H166.01L173.02 220.03ZM167.02 219.03H171.81L165.26 189.96H159.98L153.42 219.03H158.07L158.95 214.03H166.11L167.02 219.03ZM165.14 208.56H159.98L162.55 194.48L165.14 208.56ZM161.14 207.56H163.9L162.51 200.03L161.14 207.56Z" fill="black"/>
<path d="M171.01 189.49H176.83L180.89 211.13L184.89 189.49H190.55L183.85 219.56H177.85L171.01 189.49Z" fill="white"/>
<path d="M184.26 220.03H177.41L170.41 188.96H177.28L180.92 208.37L184.52 188.96H191.21L184.26 220.03ZM178.26 219.03H183.5L189.97 189.96H185.36L180.94 213.83L176.46 189.96H171.67L178.26 219.03Z" fill="black"/>
<path d="M190.56 189.49H196.75L200.38 199.64L204.03 189.49H210.18L203.18 206.97V219.49H197.59V206.9L190.56 189.49Z" fill="white"/>
<path d="M203.67 220.03H197.08V207.03L189.82 188.96H197.1L200.38 198.13L203.67 188.96H210.92L203.67 207.03V220.03ZM198.08 219.03H202.67V206.75L209.41 189.96H204.41L200.41 201.09L196.41 189.96H191.31L198.09 206.96L198.08 219.03Z" fill="black"/>
<path d="M220.41 189.49H234.19V195.95H226.01V201.2H233.01V207.27H226.01V219.49H220.41V189.49Z" fill="white"/>
<path d="M226.51 220.03H219.91V188.96H234.69V196.42H226.51V200.67H233.51V207.74H226.51V220.03ZM220.91 219.03H225.51V206.74H232.51V201.67H225.51V195.42H233.69V189.96H220.91V219.03Z" fill="black"/>
<path d="M236.49 204.49C236.49 199.577 237.31 195.753 238.95 193.02C239.627 191.785 240.621 190.754 241.831 190.033C243.041 189.312 244.421 188.929 245.829 188.921C247.238 188.914 248.622 189.284 249.839 189.993C251.056 190.701 252.061 191.722 252.75 192.95C254.37 195.617 255.18 199.38 255.18 204.24C255.259 207.157 254.902 210.069 254.12 212.88C253.565 214.867 252.504 216.676 251.04 218.13C249.683 219.386 247.888 220.061 246.04 220.01C244.235 220.069 242.467 219.496 241.04 218.39C239.506 217.013 238.384 215.237 237.8 213.26C236.874 210.431 236.431 207.466 236.49 204.49ZM242.07 204.49C242.07 207.49 242.4 209.7 243.07 211.03C243.283 211.597 243.659 212.09 244.149 212.445C244.64 212.801 245.224 213.004 245.83 213.03C246.436 213.024 247.026 212.834 247.523 212.486C248.019 212.138 248.398 211.648 248.61 211.08C249.277 209.747 249.61 207.414 249.61 204.08C249.752 201.961 249.41 199.837 248.61 197.87C248.393 197.3 248.012 196.806 247.516 196.45C247.02 196.095 246.43 195.893 245.82 195.87C245.224 195.904 244.651 196.111 244.171 196.466C243.691 196.822 243.326 197.31 243.12 197.87C242.41 199.3 242.07 201.49 242.07 204.56V204.49Z" fill="white"/>
<path d="M246.03 220.54C244.093 220.608 242.193 219.996 240.66 218.81C239.064 217.367 237.889 215.518 237.26 213.46C236.343 210.571 235.913 207.55 235.99 204.52C235.99 199.52 236.84 195.59 238.52 192.79C239.239 191.48 240.296 190.387 241.58 189.623C242.865 188.859 244.33 188.453 245.824 188.445C247.318 188.438 248.787 188.831 250.079 189.582C251.371 190.334 252.438 191.417 253.17 192.72C254.84 195.47 255.68 199.36 255.68 204.27C255.758 207.237 255.393 210.2 254.6 213.06C254.016 215.112 252.918 216.981 251.41 218.49C249.955 219.853 248.023 220.59 246.03 220.54ZM245.81 189.45C244.484 189.429 243.18 189.78 242.044 190.462C240.907 191.144 239.984 192.131 239.38 193.31C237.8 195.95 236.99 199.72 236.99 204.52C236.911 207.435 237.324 210.342 238.21 213.12C238.773 215.005 239.838 216.702 241.29 218.03C242.645 219.071 244.322 219.605 246.03 219.54C247.756 219.601 249.435 218.976 250.7 217.8C252.091 216.412 253.103 214.691 253.64 212.8C254.391 210.035 254.728 207.174 254.64 204.31C254.64 199.58 253.85 195.87 252.28 193.31C251.662 192.136 250.73 191.156 249.587 190.482C248.444 189.807 247.136 189.464 245.81 189.49V189.45ZM245.81 213.59C245.113 213.57 244.438 213.345 243.869 212.943C243.3 212.541 242.861 211.98 242.61 211.33C241.88 209.91 241.54 207.7 241.54 204.56C241.54 201.42 241.89 199.16 242.61 197.74C242.856 197.096 243.286 196.539 243.846 196.137C244.406 195.736 245.071 195.507 245.76 195.48C246.457 195.496 247.135 195.715 247.709 196.111C248.283 196.508 248.728 197.063 248.99 197.71C249.843 199.744 250.216 201.948 250.08 204.15C250.08 207.62 249.74 209.98 249.08 211.37C248.821 212.02 248.375 212.579 247.798 212.974C247.221 213.369 246.539 213.584 245.84 213.59H245.81ZM245.81 196.48C245.307 196.517 244.825 196.699 244.424 197.004C244.023 197.31 243.719 197.725 243.55 198.2C242.91 199.45 242.55 201.59 242.55 204.56C242.55 207.53 242.87 209.62 243.55 210.87C243.707 211.363 244.017 211.794 244.435 212.099C244.853 212.405 245.357 212.57 245.875 212.57C246.393 212.57 246.897 212.405 247.315 212.099C247.733 211.794 248.043 211.363 248.2 210.87C248.81 209.65 249.13 207.37 249.13 204.11C249.251 202.061 248.909 200.01 248.13 198.11C247.936 197.644 247.613 197.243 247.198 196.956C246.783 196.669 246.294 196.507 245.79 196.49L245.81 196.48Z" fill="black"/>
<path d="M267.25 208.64V202.38H275.87V215.2C274.64 216.715 273.159 218.008 271.49 219.02C270.093 219.723 268.543 220.067 266.98 220.02C265.067 220.1 263.196 219.445 261.75 218.19C260.23 216.698 259.145 214.821 258.61 212.76C257.831 210.067 257.457 207.273 257.5 204.47C257.443 201.57 257.852 198.68 258.71 195.91C259.346 193.765 260.585 191.849 262.28 190.39C263.709 189.348 265.454 188.833 267.22 188.93C268.763 188.832 270.305 189.143 271.69 189.83C272.754 190.517 273.606 191.486 274.15 192.63C274.879 194.15 275.374 195.772 275.62 197.44L270.24 199.04C270.102 198.09 269.716 197.193 269.12 196.44C268.875 196.15 268.568 195.918 268.222 195.761C267.876 195.603 267.5 195.525 267.12 195.53C266.478 195.56 265.859 195.778 265.34 196.157C264.821 196.535 264.425 197.058 264.2 197.66C263.48 199.07 263.11 201.31 263.11 204.37C263.11 207.63 263.48 209.95 264.21 211.37C264.463 211.979 264.888 212.502 265.433 212.873C265.979 213.244 266.621 213.448 267.28 213.46C267.905 213.461 268.52 213.306 269.07 213.01C269.784 212.588 270.437 212.07 271.01 211.47V208.64H267.25Z" fill="white"/>
<path d="M266.98 220.54C264.937 220.604 262.946 219.889 261.41 218.54C259.833 216.978 258.7 215.025 258.13 212.88C257.335 210.138 256.951 207.294 256.99 204.44C256.936 201.485 257.358 198.541 258.24 195.72C258.898 193.481 260.194 191.483 261.97 189.97C263.489 188.862 265.342 188.308 267.22 188.4C268.857 188.307 270.49 188.652 271.95 189.4C273.089 190.138 274.002 191.176 274.59 192.4C275.354 193.977 275.867 195.664 276.11 197.4L276.19 197.83L269.86 199.72L269.75 199.18C269.633 198.315 269.288 197.497 268.75 196.81C268.549 196.569 268.296 196.377 268.01 196.249C267.725 196.121 267.413 196.06 267.1 196.07C266.551 196.103 266.024 196.297 265.585 196.628C265.146 196.959 264.813 197.412 264.63 197.93C263.94 199.26 263.63 201.45 263.63 204.41C263.63 207.57 263.98 209.84 264.63 211.15C264.837 211.679 265.197 212.136 265.663 212.462C266.129 212.787 266.681 212.968 267.25 212.98C267.791 212.98 268.323 212.846 268.8 212.59C269.416 212.231 269.982 211.79 270.48 211.28V209.16H266.75V201.9H276.41V215.41L276.28 215.55C275.008 217.107 273.484 218.439 271.77 219.49C270.285 220.232 268.639 220.593 266.98 220.54ZM267.22 189.45C265.568 189.358 263.934 189.835 262.59 190.8C260.971 192.199 259.79 194.036 259.19 196.09C258.344 198.808 257.939 201.644 257.99 204.49C257.948 207.243 258.318 209.987 259.09 212.63C259.603 214.605 260.639 216.405 262.09 217.84C263.448 219.008 265.2 219.615 266.99 219.54C268.477 219.565 269.948 219.222 271.27 218.54C272.826 217.582 274.214 216.376 275.38 214.97V202.84H267.76V208.1H271.49V211.64L271.34 211.78C270.735 212.42 270.042 212.969 269.28 213.41C268.666 213.743 267.979 213.918 267.28 213.92C266.529 213.911 265.796 213.683 265.173 213.263C264.549 212.844 264.062 212.252 263.77 211.56C262.99 210.08 262.61 207.72 262.61 204.35C262.61 201.18 262.99 198.91 263.76 197.41C264.024 196.725 264.483 196.132 265.08 195.706C265.677 195.279 266.386 195.037 267.12 195.01C267.576 194.996 268.029 195.085 268.445 195.273C268.86 195.46 269.228 195.739 269.52 196.09C270.074 196.754 270.459 197.544 270.64 198.39L275.08 197.07C274.832 195.605 274.381 194.181 273.74 192.84C273.233 191.78 272.444 190.881 271.46 190.24C270.136 189.624 268.674 189.366 267.22 189.49V189.45Z" fill="black"/>
<path d="M140.55 62.78H41.3298C38.5451 62.78 35.8744 61.6737 33.9053 59.7046C31.9361 57.7355 30.8298 55.0648 30.8298 52.28C30.8298 49.4953 31.9361 46.8246 33.9053 44.8555C35.8744 42.8863 38.5451 41.78 41.3298 41.78H140.55C143.335 41.78 146.005 42.8863 147.975 44.8555C149.944 46.8246 151.05 49.4953 151.05 52.28C151.05 55.0648 149.944 57.7355 147.975 59.7046C146.005 61.6737 143.335 62.78 140.55 62.78Z" fill="#F78C21"/>
<path d="M140.55 63.28H41.3298C38.4125 63.28 35.6147 62.121 33.5518 60.0581C31.4889 57.9952 30.3298 55.1974 30.3298 52.28C30.3298 49.3626 31.4889 46.5646 33.5518 44.5017C35.6147 42.4388 38.4125 41.28 41.3298 41.28H140.55C143.467 41.28 146.265 42.4388 148.328 44.5017C150.391 46.5646 151.55 49.3626 151.55 52.28C151.55 55.1974 150.391 57.9952 148.328 60.0581C146.265 62.121 143.467 63.28 140.55 63.28ZM41.3298 42.28C38.6777 42.28 36.1342 43.3336 34.2588 45.209C32.3834 47.0843 31.3298 49.6279 31.3298 52.28C31.3298 54.9322 32.3834 57.4757 34.2588 59.3511C36.1342 61.2264 38.6777 62.28 41.3298 62.28H140.55C143.202 62.28 145.746 61.2264 147.621 59.3511C149.496 57.4757 150.55 54.9322 150.55 52.28C150.55 49.6279 149.496 47.0843 147.621 45.209C145.746 43.3336 143.202 42.28 140.55 42.28H41.3298Z" fill="#010101"/>
<path d="M140.55 97.97H41.3298C38.5451 97.97 35.8744 96.8637 33.9053 94.8945C31.9361 92.9254 30.8298 90.2547 30.8298 87.47C30.8298 84.6852 31.9361 82.0145 33.9053 80.0454C35.8744 78.0763 38.5451 76.97 41.3298 76.97H140.55C143.335 76.97 146.005 78.0763 147.975 80.0454C149.944 82.0145 151.05 84.6852 151.05 87.47C151.05 90.2547 149.944 92.9254 147.975 94.8945C146.005 96.8637 143.335 97.97 140.55 97.97Z" fill="#F78C21"/>
<path d="M140.55 98.49H41.3298C38.4125 98.49 35.6147 97.331 33.5518 95.2681C31.4889 93.2052 30.3298 90.4074 30.3298 87.49C30.3298 84.5726 31.4889 81.7748 33.5518 79.7119C35.6147 77.649 38.4125 76.49 41.3298 76.49H140.55C143.467 76.49 146.265 77.649 148.328 79.7119C150.391 81.7748 151.55 84.5726 151.55 87.49C151.55 90.4074 150.391 93.2052 148.328 95.2681C146.265 97.331 143.467 98.49 140.55 98.49ZM41.3298 77.49C38.6777 77.49 36.1342 78.5436 34.2588 80.4189C32.3834 82.2943 31.3298 84.8378 31.3298 87.49C31.3298 90.1422 32.3834 92.6857 34.2588 94.561C36.1342 96.4364 38.6777 97.49 41.3298 97.49H140.55C143.202 97.49 145.746 96.4364 147.621 94.561C149.496 92.6857 150.55 90.1422 150.55 87.49C150.55 84.8378 149.496 82.2943 147.621 80.4189C145.746 78.5436 143.202 77.49 140.55 77.49H41.3298Z" fill="#010101"/>
<path d="M140.55 133.16H41.3298C38.5451 133.16 35.8744 132.054 33.9053 130.085C31.9361 128.116 30.8298 125.445 30.8298 122.66C30.8298 119.875 31.9361 117.204 33.9053 115.235C35.8744 113.266 38.5451 112.16 41.3298 112.16H140.55C143.335 112.16 146.005 113.266 147.975 115.235C149.944 117.204 151.05 119.875 151.05 122.66C151.05 125.445 149.944 128.116 147.975 130.085C146.005 132.054 143.335 133.16 140.55 133.16Z" fill="#F78C21"/>
<path d="M140.55 133.66H41.3298C38.4125 133.66 35.6147 132.501 33.5518 130.438C31.4889 128.375 30.3298 125.577 30.3298 122.66C30.3298 119.743 31.4889 116.945 33.5518 114.882C35.6147 112.819 38.4125 111.66 41.3298 111.66H140.55C143.467 111.66 146.265 112.819 148.328 114.882C150.391 116.945 151.55 119.743 151.55 122.66C151.55 125.577 150.391 128.375 148.328 130.438C146.265 132.501 143.467 133.66 140.55 133.66ZM41.3298 112.66C38.6777 112.66 36.1342 113.714 34.2588 115.589C32.3834 117.464 31.3298 120.008 31.3298 122.66C31.3298 125.312 32.3834 127.856 34.2588 129.731C36.1342 131.606 38.6777 132.66 41.3298 132.66H140.55C143.202 132.66 145.746 131.606 147.621 129.731C149.496 127.856 150.55 125.312 150.55 122.66C150.55 120.008 149.496 117.464 147.621 115.589C145.746 113.714 143.202 112.66 140.55 112.66H41.3298Z" fill="#010101"/>
</svg>
