<svg width="300" height="246" viewBox="0 0 300 246" fill="none" xmlns="http://www.w3.org/2000/svg">
<path d="M288 0H12C8.8174 0 5.76515 1.26429 3.51471 3.51472C1.26427 5.76516 0 8.8174 0 12V234C0 237.183 1.26427 240.235 3.51471 242.485C5.76515 244.736 8.8174 246 12 246H288C291.183 246 294.235 244.736 296.485 242.485C298.736 240.235 300 237.183 300 234V12C300 8.8174 298.736 5.76516 296.485 3.51472C294.235 1.26429 291.183 0 288 0Z" fill="#61707E"/>
<path d="M166.28 12.31H15C14.6284 12.31 14.2603 12.3832 13.917 12.5254C13.5736 12.6676 13.2616 12.8761 12.9988 13.1389C12.7361 13.4017 12.5276 13.7137 12.3854 14.057C12.2432 14.4004 12.17 14.7684 12.17 15.14V159.8C12.17 160.551 12.4678 161.272 12.9982 161.805C13.5287 162.337 14.2485 162.637 15 162.64H166.28C167.031 162.637 167.751 162.337 168.282 161.805C168.812 161.272 169.11 160.551 169.11 159.8V15.14C169.11 14.7684 169.037 14.4004 168.895 14.057C168.752 13.7137 168.544 13.4017 168.281 13.1389C168.018 12.8761 167.706 12.6676 167.363 12.5254C167.02 12.3832 166.652 12.31 166.28 12.31Z" fill="#D3E2E2"/>
<path d="M181.01 12.31H285.01C285.761 12.31 286.482 12.6078 287.015 13.1383C287.547 13.6687 287.847 14.3885 287.85 15.14V162.64H181.01V12.31Z" fill="#3265FE"/>
<path d="M204.28 23.72H229.67V21.36H238.57V23.46H263.96V31.83H255.84V29.48H212.66V32.09H222.08V34.97H245.9V32.62H255.32V34.97H263.17V40.73H255.32V43.61H262.91V49.61H255.32V52.75H263.69V58.55H252.69L254.79 61.16C255.074 61.6485 255.503 62.0369 256.017 62.2715C256.531 62.5062 257.105 62.5755 257.66 62.47H263.95V67.97H251.41V72.42H229.15C228.085 72.5357 227.012 72.2887 226.104 71.7189C225.197 71.149 224.508 70.2897 224.15 69.28L221.54 64.28L218.66 66.9C217.09 67.95 214.66 68.39 211.33 68.21H204.26V62.45H208.45C209.347 62.5598 210.257 62.4766 211.12 62.2058C211.982 61.935 212.777 61.483 213.45 60.88L215.81 58.53H204.28V52.77H212.66V49.63H205.59V43.63H212.66V40.75H205.59V34.99H212.66V32.11H204.28V23.72ZM212.41 77.11L208.22 70.04H218.69L220.52 73.18C220.753 73.7994 221.193 74.3195 221.765 74.6528C222.337 74.9861 223.006 75.1123 223.66 75.01H260.81V80.51H217.89C215.1 80.55 213.27 79.37 212.41 77.11ZM222.09 43.61H245.91V40.73H222.08L222.09 43.61ZM245.91 52.77V49.63H222.34V52.77H245.91ZM246.69 65.33L241.69 58.53H227.84L222.34 63.24H229.93L232.29 66.12C232.633 66.5492 233.073 66.8908 233.573 67.1168C234.074 67.3428 234.621 67.4467 235.17 67.42H249.3C248.41 67.6 247.55 66.9 246.68 65.33H246.69Z" fill="white"/>
<path d="M261.31 81.01H217.89C214.89 81.01 212.89 79.77 211.95 77.33L207.33 69.55H218.96L220.96 72.94C221.145 73.4736 221.512 73.9251 221.997 74.2157C222.481 74.5063 223.052 74.6175 223.61 74.53H261.31V81.01ZM209.09 70.55L212.86 76.94C213.66 79.01 215.31 80.02 217.86 80.02H260.31V75.55H223.65C222.902 75.6513 222.141 75.4985 221.49 75.1158C220.839 74.7332 220.335 74.1431 220.06 73.44L218.41 70.55H209.09ZM228.63 72.93C226.44 72.93 224.78 71.77 223.72 69.48L221.41 65.09L219.01 67.27C217.3 68.42 214.74 68.89 211.32 68.71H203.78V61.95H208.47C209.304 62.0546 210.15 61.9792 210.952 61.7291C211.754 61.479 212.494 61.0599 213.12 60.5L214.59 59.03H203.78V52.27H212.16V50.13H205.09V43.13H212.16V41.25H205.09V34.49H212.16V32.55H203.78V23.18H229.17V20.82H239.07V22.92H264.41V32.29H255.78V34.43H263.63V41.19H255.78V43.07H263.41V50.07H255.82V52.21H264.19V58.97H253.74L255.19 60.77C255.424 61.186 255.782 61.5185 256.214 61.7211C256.646 61.9237 257.131 61.9863 257.6 61.9H264.41V68.4H251.89V72.85H229.15L228.63 72.93ZM221.83 63.75L224.62 69.03C225.62 71.14 227.06 72.03 229.11 71.91H250.89V67.46H263.41V62.96H257.63C256.991 63.0652 256.336 62.9754 255.749 62.7025C255.162 62.4296 254.671 61.9861 254.34 61.43L251.62 58.04H263.15V53.28H254.78V49.14H262.41V44.14H254.82V40.26H262.67V35.5H254.82V33.15H246.41V35.5H221.58V32.55H213.16V35.43H206.09V40.19H213.16V44.07H206.09V49.07H213.16V53.21H204.78V57.97H217.01L213.8 61.17C213.08 61.8336 212.227 62.3357 211.297 62.6427C210.368 62.9497 209.383 63.0545 208.41 62.95H204.76V67.71H211.33C214.54 67.87 216.91 67.47 218.33 66.49L221.33 63.74H220.9L227.56 58.03H241.87L247.03 65.09C247.46 65.87 248.09 66.76 248.75 66.92H249.21L249.31 67.92C249.079 67.9701 248.841 67.9701 248.61 67.92H235.16C234.536 67.9439 233.916 67.8216 233.348 67.5629C232.78 67.3042 232.281 66.9162 231.89 66.43L229.69 63.74L221.83 63.75ZM223.69 62.75H230.17L232.67 65.81C232.967 66.1803 233.347 66.475 233.78 66.6697C234.213 66.8644 234.686 66.9536 235.16 66.93H247.16C246.819 66.5197 246.517 66.0777 246.26 65.61L241.41 59.03H228.02L223.69 62.75ZM222.58 34.48H245.41V32.13H255.35V29.99H213.16V31.55H222.58V34.48ZM204.78 31.55H212.16V28.94H256.34V31.29H263.41V23.92H238.07V21.82H230.17V24.18H204.78V31.55ZM246.41 53.27H221.84V49.13H246.41V53.27ZM222.85 52.27H245.41V50.13H222.84L222.85 52.27ZM246.41 44.11H221.58V40.23H246.41V44.11ZM222.59 43.11H245.41V41.23H222.58L222.59 43.11Z" fill="black"/>
<path d="M287.83 175.02V230.86C287.83 231.611 287.532 232.33 287.001 232.861C286.47 233.392 285.751 233.69 285 233.69H104.41V175.02H287.83Z" fill="#3265FE"/>
<path d="M92.93 233.69H15C14.2494 233.69 13.5296 233.392 12.9988 232.861C12.4681 232.33 12.17 231.611 12.17 230.86V175.02H92.94L92.93 233.69Z" fill="#3265FE"/>
<path d="M208.73 106.61L206.41 94.04H216.09L217.66 102.42C217.83 103.64 218.36 104.17 219.23 103.99H220.02V111.55H214.26C210.753 112.09 208.91 110.443 208.73 106.61ZM211.09 153.72H206.64V146.91H207.64C208.64 147.09 209.29 146.56 209.47 145.34L212.61 132.78H220.72L217.06 148.78C216.913 152.627 214.923 154.273 211.09 153.72ZM208.21 125.19L206.9 114.19H216.06L217.11 120.99C217.11 122.39 217.63 122.99 218.68 122.82H219.68V130.15H213.41C209.943 130.857 208.21 129.203 208.21 125.19ZM227.84 96.4V93.78H236.47V96.4H243.8V103.47H236.47V106.61H242.47V136.18C242.817 140.18 241.073 141.927 237.24 141.42H236.46V144.29H243V146.39H244C244.52 146.56 244.78 146.22 244.78 145.34V93.78H265.46V147.7C265.98 152.06 264.147 153.98 259.96 153.46H254.2V145.87H255.2C255.89 146.04 256.25 145.69 256.25 144.87V136.76H253.37V148.01C253.72 152.2 251.97 154.11 248.13 153.77H242.9V151.41H236.36V153.77H227.46V151.41H220.13V144.35H227.46V141.47H221.18V106.61H227.72V103.47H221.18V96.4H227.84ZM230.72 120.22H233.86V113.94H230.72V120.22ZM233.86 132.55V127.84H230.72V134.12H232.03C233.24 134.26 233.86 133.74 233.86 132.55ZM253.49 111.35H256.41V101.35H253.53V111.35H253.49ZM253.49 128.35H256.41V118.93H253.53V128.35H253.49Z" fill="white"/>
<path d="M212.41 154.31C211.965 154.308 211.521 154.278 211.08 154.22H206.17V146.41H207.72C207.865 146.452 208.017 146.464 208.166 146.445C208.316 146.427 208.46 146.377 208.59 146.3C208.868 146.039 209.033 145.681 209.05 145.3L212.3 132.3H220.83V106.11H227.37V103.97H220.83V96.4H221.32V95.9H227.32V93.28H236.95V95.9H244.28V103.97H236.95V106.11H242.95V136.18C243.14 138.33 242.72 139.94 241.7 140.91C240.68 141.88 239.18 142.19 237.15 141.91H236.94V143.79H243.48V145.89H244.19C244.19 145.89 244.31 145.82 244.31 145.32V93.26H265.99V147.68C266.27 149.99 265.87 151.74 264.8 152.8C263.73 153.86 262.13 154.21 259.93 153.93H253.73V151.03C253.549 151.781 253.173 152.471 252.64 153.03C252.03 153.549 251.313 153.926 250.54 154.135C249.768 154.345 248.958 154.38 248.17 154.24H242.48V151.88H236.94V154.24H227.04V151.88H219.71V143.82H227.04V141.94H220.76V134.94L217.55 148.94C217.578 149.755 217.433 150.567 217.125 151.322C216.816 152.077 216.351 152.758 215.76 153.32C214.792 154.028 213.608 154.378 212.41 154.31ZM207.17 153.22H211.17C211.852 153.379 212.56 153.394 213.249 153.265C213.937 153.136 214.591 152.865 215.17 152.47C215.658 151.979 216.039 151.393 216.289 150.747C216.538 150.102 216.651 149.411 216.62 148.72L220.15 133.28H213.06L210.06 145.46C210.04 145.779 209.953 146.09 209.807 146.374C209.661 146.658 209.458 146.908 209.21 147.11C208.985 147.263 208.732 147.368 208.466 147.419C208.199 147.471 207.925 147.468 207.66 147.41H207.2L207.17 153.22ZM243.55 153.22H248.28C248.93 153.348 249.599 153.332 250.242 153.173C250.885 153.014 251.485 152.716 252 152.3C252.84 151.47 253.19 150.02 253 148V136.21H256.88V144.82C256.906 145.071 256.873 145.324 256.785 145.56C256.696 145.796 256.554 146.008 256.37 146.18C256.212 146.291 256.031 146.365 255.841 146.396C255.65 146.427 255.455 146.415 255.27 146.36H254.78V152.96H260.04C261.98 153.19 263.34 152.96 264.14 152.11C264.94 151.26 265.29 149.81 265.04 147.76V94.28H245.35V145.34C245.382 145.599 245.354 145.862 245.267 146.109C245.18 146.355 245.037 146.578 244.85 146.76C244.726 146.845 244.584 146.901 244.435 146.923C244.286 146.946 244.134 146.934 243.99 146.89H242.52V144.79H235.98V140.92H237.26C239.04 141.16 240.26 140.92 241.05 140.19C241.84 139.46 242.16 138.1 242.05 136.19V107.11H236.05V102.97H243.38V96.9H236.05V94.28H228.42V96.9H221.88V102.97H228.42V107.11H221.88V140.92H228.16V144.8H220.83V150.86H228.16V153.22H236.06V150.86H243.6L243.55 153.22ZM254.02 145.36H255.47C255.65 145.36 255.74 145.36 255.77 145.36C255.8 145.36 255.9 145.16 255.9 144.79V137.18H254.02V145.36ZM232.41 134.62C232.244 134.634 232.076 134.634 231.91 134.62H230.18V127.34H234.41V132.55C234.435 132.859 234.391 133.17 234.282 133.46C234.174 133.751 234.002 134.013 233.78 134.23C233.392 134.535 232.9 134.675 232.41 134.62ZM231.18 133.62H231.99C232.158 133.663 232.333 133.671 232.505 133.645C232.677 133.62 232.842 133.56 232.99 133.47C233.122 133.356 233.227 133.214 233.3 133.056C233.372 132.897 233.41 132.724 233.41 132.55V128.34H231.27L231.18 133.62ZM211.95 130.85C211 130.888 210.068 130.587 209.32 130C208.23 129.11 207.67 127.51 207.67 125.25L206.3 113.73H216.45L217.56 120.96C217.56 121.65 217.68 122.09 217.9 122.27C217.95 122.27 218.11 122.45 218.55 122.37H220.18V130.7H213.41C212.942 130.789 212.466 130.83 211.99 130.82L211.95 130.85ZM207.42 114.73L208.67 125.22C208.67 127.22 209.1 128.53 209.95 129.22C210.438 129.542 210.992 129.752 211.572 129.833C212.151 129.914 212.742 129.865 213.3 129.69H219.18V123.36H218.64C218.398 123.415 218.148 123.414 217.907 123.356C217.666 123.299 217.441 123.188 217.25 123.03C216.996 122.767 216.804 122.452 216.686 122.106C216.569 121.76 216.529 121.393 216.57 121.03L215.57 114.73H207.42ZM256.83 128.86H252.95V118.41H256.83V128.86ZM253.95 127.86H255.83V119.44H253.95V127.86ZM234.41 120.72H230.27V113.44H234.41V120.72ZM231.27 119.72H233.41V114.44H231.27V119.72ZM213.08 112.17C211.993 112.201 210.931 111.847 210.08 111.17C208.99 110.27 208.38 108.74 208.28 106.62L205.77 93.55H216.48L218.12 102.34C218.125 102.752 218.29 103.147 218.58 103.44C218.58 103.44 218.77 103.57 219.1 103.51H220.49V112.1H214.23C213.832 112.152 213.431 112.175 213.03 112.17H213.08ZM207.08 94.54L209.33 106.54C209.41 108.39 209.9 109.69 210.77 110.41C211.273 110.755 211.843 110.989 212.443 111.097C213.042 111.206 213.658 111.186 214.25 111.04H219.59V104.45H219.3C219.094 104.495 218.881 104.497 218.675 104.456C218.468 104.415 218.272 104.331 218.1 104.21C217.842 103.993 217.632 103.724 217.484 103.421C217.336 103.118 217.253 102.787 217.24 102.45L215.75 94.45L207.08 94.54ZM256.97 111.82H253.09V100.82H256.97V111.82ZM254.09 110.82H255.97V101.82H254.09V110.82Z" fill="black"/>
<path d="M73.49 225.75H31.6299V220.8H32.91V208.55H71.83V220.85H73.49V225.75ZM31.81 186.1H36.03L35.3 183.89H43.41L44.33 186.1H61.22L61.95 183.89H70.03L69.29 186.1H73.52V191.42H31.81V186.1ZM32.73 206.84V193.26H38.97V206.84H32.73ZM38.97 220.84H44.3V213.84H38.97V220.84ZM42.46 206.84V193.26H48.15V206.84H42.46ZM49.8 195.46H52.56C52.9499 195.54 53.3555 195.471 53.6976 195.268C54.0396 195.064 54.2936 194.741 54.41 194.36L55.31 192.55H61.55L61.37 193.1H73.49V197.66H60.08L59.53 198.77C59.3931 199.18 59.12 199.53 58.7561 199.763C58.3922 199.996 57.9594 200.097 57.53 200.05H49.8199V195.46H49.8ZM49.8 213.82V220.82H54.94V213.82H49.8ZM52.41 205.19L50.03 200.78H57.37L57.92 201.52C58.04 202.25 58.5899 202.52 59.5699 202.44H73.5699V206.84H56.41C54.09 206.973 52.7566 206.423 52.41 205.19ZM60.86 220.8H66.18V213.8H60.86V220.8Z" fill="white"/>
<path d="M73.99 226.25H31.1299V220.3H32.41V208H72.33V220.3H73.99V226.25ZM32.1299 225.25H72.99V221.3H71.33V209H33.41V221.3H32.1299V225.25ZM66.64 221.3H60.3199V213.3H66.64V221.3ZM61.3199 220.3H65.64V214.3H61.3199V220.3ZM55.44 221.3H49.3V213.3H55.41L55.44 221.3ZM50.3 220.3H54.41V214.3H50.27L50.3 220.3ZM44.8 221.3H38.47V213.3H44.8V221.3ZM39.47 220.3H43.8V214.3H39.47V220.3ZM55.79 207.36C53.64 207.36 52.33 206.7 51.91 205.36L49.15 200.25H49.3V194.96H52.56C52.8475 195.031 53.1513 194.987 53.407 194.837C53.6627 194.688 53.8502 194.445 53.93 194.16L55 192.02H62.25L62.06 192.57H73.99V198.16H60.41L60 198.99C59.83 199.441 59.5285 199.831 59.1345 200.109C58.7405 200.387 58.2721 200.541 57.79 200.55L58.35 201.3V201.42C58.35 201.64 58.45 202.05 59.45 201.92H73.97V207.32H56.41L55.79 207.36ZM50.79 201.28L52.79 205.05C53.08 206.05 54.27 206.45 56.33 206.34H72.93V202.94H59.53C58.02 203.13 57.53 202.32 57.41 201.73L57.08 201.28H50.79ZM50.3 199.55H57.5099C57.9799 199.61 58.57 199.55 59.09 198.55L59.78 197.17H72.99V193.55H60.67L60.86 193H55.62L54.84 194.55C54.6764 195.022 54.3499 195.42 53.9193 195.673C53.4886 195.926 52.9818 196.017 52.49 195.93H50.3V199.55ZM48.65 207.34H41.96V192.76H48.65V207.34ZM42.96 206.34H47.65V193.76H42.96V206.34ZM39.47 207.34H32.23V192.76H39.47V207.34ZM33.23 206.34H38.47V193.76H33.23V206.34ZM73.99 191.92H31.31V185.6H35.31L34.58 183.39H43.68L44.6 185.6H60.8L61.53 183.39H70.66L69.93 185.6H73.93L73.99 191.92ZM32.31 190.92H72.99V186.6H68.5699L69.3 184.39H62.3L61.5699 186.6H43.96L43.04 184.39H36.04L36.78 186.6H32.31V190.92Z" fill="black"/>
<path d="M125.98 207.23L130.86 209.69C130.619 211.661 130.097 213.587 129.31 215.41C128.737 216.768 127.833 217.961 126.68 218.88C125.509 219.693 124.104 220.1 122.68 220.04C120.963 220.115 119.271 219.615 117.87 218.62C116.366 217.275 115.257 215.547 114.66 213.62C113.663 210.666 113.202 207.557 113.3 204.44C113.3 199.46 114.093 195.637 115.68 192.97C116.323 191.744 117.293 190.721 118.483 190.015C119.673 189.309 121.036 188.947 122.42 188.97C123.429 188.922 124.436 189.105 125.365 189.503C126.293 189.902 127.119 190.506 127.78 191.27C129.313 193.349 130.31 195.774 130.68 198.33L125.75 200.15C125.644 199.466 125.463 198.795 125.21 198.15C124.96 197.524 124.57 196.963 124.07 196.51C123.649 196.142 123.109 195.939 122.55 195.94C121.29 195.94 120.32 196.78 119.65 198.48C119.046 200.392 118.788 202.397 118.89 204.4C118.89 207.733 119.193 210.017 119.8 211.25C120.001 211.781 120.358 212.239 120.824 212.563C121.289 212.888 121.842 213.065 122.41 213.07C122.915 213.08 123.412 212.944 123.841 212.677C124.271 212.411 124.614 212.027 124.83 211.57C125.465 210.202 125.855 208.733 125.98 207.23Z" fill="white"/>
<path d="M122.69 220.55C120.865 220.623 119.068 220.088 117.58 219.03C116.003 217.623 114.835 215.816 114.2 213.8C113.189 210.786 112.719 207.618 112.81 204.44C112.81 199.44 113.64 195.44 115.26 192.71C115.946 191.412 116.976 190.328 118.237 189.577C119.499 188.826 120.942 188.436 122.41 188.45C123.492 188.402 124.571 188.601 125.565 189.03C126.559 189.46 127.443 190.109 128.15 190.93C129.737 193.071 130.768 195.573 131.15 198.21L131.23 198.63L125.41 200.8L125.3 200.22C125.2 199.571 125.032 198.934 124.8 198.32C124.577 197.766 124.236 197.268 123.8 196.86C123.474 196.564 123.05 196.4 122.61 196.4C121.61 196.4 120.77 197.13 120.17 198.63C119.584 200.481 119.327 202.42 119.41 204.36C119.41 207.6 119.7 209.84 120.27 211C120.428 211.445 120.717 211.831 121.099 212.108C121.481 212.384 121.938 212.539 122.41 212.55C122.828 212.563 123.241 212.452 123.597 212.231C123.952 212.011 124.235 211.69 124.41 211.31C125.026 209.996 125.409 208.585 125.54 207.14L125.63 206.44L131.41 209.4V209.76C131.153 211.778 130.614 213.751 129.81 215.62C129.205 217.054 128.249 218.313 127.03 219.28C125.764 220.172 124.237 220.618 122.69 220.55ZM122.41 189.45C121.111 189.423 119.83 189.763 118.714 190.429C117.598 191.096 116.692 192.063 116.1 193.22C114.59 195.8 113.81 199.55 113.81 204.43C113.72 207.484 114.167 210.53 115.13 213.43C115.701 215.273 116.758 216.927 118.19 218.22C119.501 219.148 121.085 219.613 122.69 219.54C124.014 219.604 125.322 219.228 126.41 218.47C127.499 217.608 128.349 216.483 128.88 215.2C129.606 213.532 130.097 211.772 130.34 209.97L126.4 207.97C126.232 209.299 125.844 210.59 125.25 211.79C124.997 212.326 124.594 212.778 124.09 213.09C123.586 213.402 123.003 213.562 122.41 213.55C121.755 213.533 121.12 213.321 120.586 212.942C120.051 212.563 119.642 212.033 119.41 211.42C118.76 210.1 118.41 207.79 118.41 204.34C118.305 202.275 118.577 200.208 119.21 198.24C119.96 196.35 121.09 195.38 122.57 195.38C123.248 195.381 123.903 195.63 124.41 196.08C124.97 196.587 125.404 197.217 125.68 197.92C125.881 198.418 126.035 198.933 126.14 199.46L130.14 197.99C129.761 195.655 128.825 193.446 127.41 191.55C126.793 190.841 126.021 190.283 125.154 189.919C124.287 189.555 123.348 189.395 122.41 189.45Z" fill="black"/>
<path d="M132.87 204.55C132.87 199.643 133.69 195.823 135.33 193.09C135.98 191.838 136.964 190.791 138.173 190.065C139.383 189.34 140.77 188.964 142.18 188.98C143.593 188.945 144.988 189.299 146.212 190.005C147.436 190.711 148.442 191.74 149.12 192.98C150.747 195.647 151.56 199.41 151.56 204.27C151.637 207.191 151.276 210.106 150.49 212.92C149.936 214.907 148.874 216.717 147.41 218.17C146.051 219.422 144.257 220.093 142.41 220.04C140.606 220.096 138.838 219.524 137.41 218.42C135.885 217.039 134.765 215.269 134.17 213.3C133.251 210.476 132.812 207.519 132.87 204.55ZM138.41 204.55C138.41 207.59 138.743 209.77 139.41 211.09C139.611 211.665 139.987 212.164 140.484 212.517C140.981 212.869 141.575 213.059 142.185 213.059C142.795 213.059 143.389 212.869 143.886 212.517C144.383 212.164 144.759 211.665 144.96 211.09C145.627 209.757 145.96 207.423 145.96 204.09C146.097 201.974 145.755 199.855 144.96 197.89C144.743 197.32 144.362 196.826 143.866 196.47C143.37 196.115 142.78 195.913 142.17 195.89C141.57 195.914 140.991 196.117 140.508 196.474C140.025 196.83 139.66 197.324 139.46 197.89C138.78 199.3 138.41 201.55 138.41 204.55Z" fill="white"/>
<path d="M142.41 220.55C140.476 220.618 138.579 220.006 137.05 218.82C135.446 217.384 134.269 215.532 133.65 213.47C132.739 210.587 132.319 207.572 132.41 204.55C132.41 199.55 133.26 195.63 134.94 192.83C135.635 191.504 136.682 190.397 137.967 189.629C139.252 188.861 140.723 188.464 142.22 188.48C143.722 188.448 145.203 188.83 146.503 189.583C147.803 190.336 148.87 191.432 149.59 192.75C151.25 195.51 152.1 199.39 152.1 204.3C152.175 207.271 151.807 210.237 151.01 213.1C150.419 215.168 149.299 217.047 147.76 218.55C146.307 219.891 144.386 220.609 142.41 220.55ZM142.18 189.45C140.857 189.432 139.555 189.784 138.42 190.466C137.286 191.148 136.365 192.133 135.76 193.31C134.17 195.96 133.41 199.73 133.41 204.55C133.329 207.467 133.738 210.378 134.62 213.16C135.18 215.046 136.249 216.742 137.71 218.06C139.054 219.091 140.717 219.618 142.41 219.55C144.138 219.61 145.82 218.984 147.09 217.81C148.482 216.423 149.495 214.701 150.03 212.81C150.782 210.042 151.119 207.177 151.03 204.31C151.03 199.59 150.23 195.88 148.66 193.31C148.047 192.127 147.115 191.138 145.97 190.456C144.825 189.774 143.512 189.426 142.18 189.45ZM142.18 213.59C141.482 213.571 140.805 213.346 140.234 212.944C139.663 212.542 139.223 211.981 138.97 211.33C138.25 209.92 137.9 207.71 137.9 204.56C137.9 201.41 138.25 199.16 138.98 197.75C139.226 197.106 139.656 196.549 140.216 196.147C140.776 195.746 141.441 195.517 142.13 195.49C142.834 195.498 143.521 195.712 144.104 196.107C144.687 196.501 145.141 197.059 145.41 197.71C146.14 199.11 146.49 201.21 146.49 204.15C146.49 207.62 146.15 209.99 145.49 211.37C145.223 212.017 144.77 212.571 144.188 212.959C143.605 213.347 142.92 213.553 142.22 213.55L142.18 213.59ZM142.18 196.49C141.674 196.521 141.189 196.701 140.785 197.007C140.381 197.313 140.077 197.731 139.91 198.21C139.26 199.45 138.91 201.59 138.91 204.56C138.91 207.53 139.23 209.63 139.91 210.88C140.091 211.353 140.405 211.763 140.816 212.06C141.226 212.356 141.714 212.527 142.22 212.55C142.73 212.535 143.224 212.367 143.639 212.07C144.054 211.773 144.371 211.358 144.55 210.88C145.17 209.66 145.48 207.38 145.48 204.11C145.604 202.06 145.262 200.009 144.48 198.11C144.291 197.647 143.972 197.248 143.563 196.961C143.153 196.674 142.67 196.51 142.17 196.49H142.18Z" fill="black"/>
<path d="M154.56 189.47H160.13V212.13H168.83V219.55H154.56V189.47Z" fill="white"/>
<path d="M169.33 220.03H154.06V188.97H160.63V211.63H169.33V220.03ZM155.06 219.03H168.33V212.63H159.63V189.97H155.06V219.03Z" fill="black"/>
<path d="M171.41 189.47H179.69C181.107 189.398 182.509 189.784 183.69 190.57C184.769 191.409 185.624 192.501 186.18 193.75C186.872 195.277 187.35 196.892 187.6 198.55C187.899 200.479 188.046 202.428 188.04 204.38C188.108 206.887 187.886 209.394 187.38 211.85C187.023 213.425 186.404 214.929 185.55 216.3C184.962 217.322 184.09 218.152 183.04 218.69C182.003 219.194 180.872 219.474 179.72 219.51H171.41V189.47ZM176.98 196.28V212.7H178.41C179.289 212.781 180.169 212.555 180.9 212.06C181.492 211.433 181.892 210.648 182.05 209.8C182.371 208.07 182.492 206.308 182.41 204.55C182.41 201.363 182.097 199.183 181.47 198.01C181.184 197.454 180.742 196.994 180.199 196.685C179.655 196.376 179.034 196.232 178.41 196.27H177.01L176.98 196.28Z" fill="white"/>
<path d="M179.72 220.03H170.94V188.97H179.72C181.229 188.901 182.72 189.322 183.97 190.17C185.122 191.058 186.033 192.22 186.62 193.55C187.342 195.119 187.837 196.782 188.09 198.49C188.398 200.445 188.548 202.421 188.54 204.4C188.604 206.947 188.379 209.493 187.87 211.99C187.496 213.618 186.854 215.173 185.97 216.59C185.329 217.696 184.38 218.592 183.24 219.17C182.14 219.699 180.94 219.992 179.72 220.03ZM171.94 219.03H179.72C180.803 218.992 181.866 218.726 182.84 218.25C183.8 217.75 184.598 216.987 185.14 216.05C185.955 214.721 186.549 213.269 186.9 211.75C187.388 209.332 187.603 206.866 187.54 204.4C187.547 202.475 187.399 200.552 187.1 198.65C186.864 197.033 186.399 195.457 185.72 193.97C185.201 192.791 184.397 191.76 183.38 190.97C182.298 190.253 181.016 189.903 179.72 189.97H171.94V219.03ZM178.41 213.2H176.51V195.78H178.41C179.132 195.734 179.851 195.899 180.481 196.254C181.111 196.609 181.625 197.139 181.96 197.78C182.63 199.05 182.96 201.26 182.96 204.56C183.025 206.354 182.877 208.15 182.52 209.91C182.347 210.857 181.89 211.729 181.21 212.41C180.402 213.002 179.408 213.282 178.41 213.2ZM177.54 212.2H178.41C179.168 212.277 179.93 212.093 180.57 211.68C181.087 211.122 181.434 210.428 181.57 209.68C181.891 208.003 182.025 206.296 181.97 204.59C181.97 201.5 181.67 199.38 181.09 198.28C180.846 197.789 180.46 197.383 179.982 197.113C179.504 196.844 178.956 196.725 178.41 196.77H177.52L177.54 212.2Z" fill="black"/>
<path d="M197.51 189.47H202.81L204.71 206.3L207.5 189.47H212.78L215.58 206.28L217.48 189.47H222.75L218.75 219.53H213.31L210.15 200.6L206.99 219.55H201.53L197.51 189.47Z" fill="white"/>
<path d="M219.21 220.03H212.88L210.15 203.64L207.41 220.03H201.08L196.94 188.97H203.25L204.81 202.68L207.08 188.97H213.2L215.48 202.67L217.04 188.97H223.32L219.21 220.03ZM213.73 219.03H218.34L222.18 189.97H217.93L215.67 209.88L212.35 189.97H207.93L204.62 209.97L202.41 189.97H198.14L202.01 219.03H206.62L210.14 197.55L213.73 219.03Z" fill="black"/>
<path d="M235.66 214.55H229.33L228.46 219.55H222.76L229.54 189.49H235.62L242.41 219.55H236.58L235.66 214.55ZM234.51 208.05L232.51 197.24L230.51 208.05H234.51Z" fill="white"/>
<path d="M243.03 220.03H236.15L235.24 215.03H229.75L228.87 220.03H222.14L229.14 188.97H236.02L243.03 220.03ZM237.03 219.03H241.83L235.22 189.97H229.94L223.41 219.03H228.06L228.93 214.03H236.1L237.03 219.03ZM235.11 208.55H229.94L232.51 194.49L235.11 208.55ZM231.11 207.55H233.87L232.49 200.01L231.11 207.55Z" fill="black"/>
<path d="M241.01 189.47H246.84L250.9 211.1L254.9 189.47H260.55L253.87 219.55H247.82L241.01 189.47Z" fill="white"/>
<path d="M254.27 220.03H247.41L240.41 188.97H247.27L250.92 208.38L254.51 188.97H261.21L254.27 220.03ZM248.22 219.03H253.47L259.94 189.97H255.32L250.9 213.83L246.41 189.97H241.63L248.22 219.03Z" fill="black"/>
<path d="M262.41 189.47H277.31V195.89H267.96V200.66H276.63V206.8H267.96V212.72H277.58V219.55H262.41V189.47Z" fill="white"/>
<path d="M278.08 220.03H261.87V188.97H277.81V196.39H268.46V200.16H277.13V207.3H268.46V212.22H278.08V220.03ZM262.87 219.03H277.08V213.22H267.46V206.3H276.13V201.16H267.46V195.39H276.81V189.97H262.87V219.03Z" fill="black"/>
<path d="M92.94 156.13L30.91 81.98H43.81V18.81H142.07V81.98H154.96L92.94 156.13Z" fill="#3265FE"/>
<path d="M92.93 156.91L29.84 81.48H43.31V18.31H142.56V81.48H156.03L92.93 156.91ZM31.98 82.48L92.93 155.35L153.93 82.48H141.56V19.31H44.31V82.48H31.98Z" fill="black"/>
<path d="M90.6 45.82C90.0133 50.94 87.16 53.7167 82.04 54.15C76.92 53.7167 74.1433 50.94 73.71 45.82C74.15 40.8467 76.9266 38.07 82.04 37.49C87.16 38.07 90.0133 40.8467 90.6 45.82ZM87.09 45.82C86.79 42.9 85.1233 41.2933 82.09 41C80.8149 41.0105 79.595 41.5216 78.6933 42.4233C77.7916 43.325 77.2804 44.5449 77.27 45.82C77.41 49.04 79.0166 50.7067 82.09 50.82C85.13 50.7067 86.7966 49.04 87.09 45.82ZM114.5 55.47H109.68C109.533 49.47 107.047 46.4 102.22 46.26C96.3733 46.26 93.5966 51.9633 93.89 63.37C93.3033 75.65 96.08 81.79 102.22 81.79C106.46 81.9433 108.873 78.8733 109.46 72.58C109.608 71.6373 109.682 70.6843 109.68 69.73H114.5C114.214 70.5757 114.138 71.4785 114.28 72.36C114.161 72.7878 114.087 73.2269 114.06 73.67C113.773 77.0367 112.97 79.5967 111.65 81.35C110.546 82.6608 109.168 83.7136 107.613 84.4341C106.058 85.1545 104.364 85.5252 102.65 85.52C92.85 85.66 88.3167 78.2767 89.05 63.37C88.7633 49.19 93.2233 42.0967 102.43 42.09C110.19 42.53 114.213 46.99 114.5 55.47Z" fill="white"/>
<path d="M102.41 86.02C100.706 86.1048 99.0034 85.8348 97.4094 85.2271C95.8154 84.6195 94.365 83.6874 93.15 82.49C89.67 78.89 88.15 72.49 88.58 63.34C88.4 54.68 90.03 48.51 93.43 45.04C94.6141 43.8795 96.0238 42.9745 97.572 42.381C99.1201 41.7876 100.774 41.5183 102.43 41.59C110.43 42.05 114.69 46.71 114.99 55.45V55.97H109.16V55.48C109.02 49.75 106.74 46.9 102.16 46.76C101.324 46.7305 100.49 46.8762 99.7135 47.188C98.9368 47.4997 98.2339 47.9705 97.65 48.57C95.27 51.02 94.16 55.99 94.35 63.35C93.96 71.35 95.03 76.79 97.52 79.35C98.1185 79.9771 98.8435 80.4699 99.6469 80.7957C100.45 81.1216 101.314 81.273 102.18 81.24C106.18 81.37 108.36 78.51 108.92 72.48C109.072 71.5545 109.145 70.6179 109.14 69.68V69.18H115.14L114.92 69.83C114.651 70.6001 114.582 71.426 114.72 72.23V72.43C114.606 72.8176 114.535 73.2168 114.51 73.62C114.21 77.11 113.37 79.78 112 81.62C110.85 82.9858 109.416 84.0844 107.797 84.8392C106.179 85.5939 104.416 85.9866 102.63 85.99L102.41 86.02ZM102.41 42.55C100.886 42.4801 99.3643 42.7235 97.9384 43.2654C96.5124 43.8072 95.2128 44.6358 94.12 45.7C90.92 48.97 89.39 54.9 89.56 63.32C89.13 72.17 90.56 78.32 93.85 81.76C95.97 83.95 98.94 85.03 102.65 84.98C104.291 84.9819 105.914 84.6249 107.403 83.9339C108.892 83.2429 110.212 82.2348 111.27 80.98C112.5 79.33 113.27 76.83 113.57 73.58C113.583 73.1434 113.651 72.7102 113.77 72.29C113.666 71.5877 113.694 70.8724 113.85 70.18H110.17C110.155 70.9942 110.082 71.8064 109.95 72.61C109.34 79.14 106.75 82.42 102.2 82.24C101.202 82.2695 100.209 82.0889 99.2861 81.7099C98.3627 81.3309 97.5293 80.7619 96.84 80.04C94.12 77.18 92.99 71.7 93.39 63.29C93.19 55.58 94.39 50.51 96.97 47.83C97.6492 47.1305 98.467 46.5806 99.3711 46.2155C100.275 45.8504 101.245 45.6783 102.22 45.71C107.22 45.86 109.88 48.96 110.16 54.92H113.98C113.55 47.06 109.77 43.01 102.41 42.55ZM82.08 54.65C76.63 54.19 73.67 51.23 73.21 45.86C73.67 40.56 76.62 37.6 81.99 36.99H82.1C87.45 37.6 90.48 40.55 91.1 45.76V45.88C90.48 51.24 87.41 54.19 82.08 54.65ZM82.08 37.99C77.23 38.56 74.66 41.14 74.25 45.86C74.66 50.66 77.25 53.24 82.12 53.66C86.91 53.24 89.56 50.66 90.12 45.82C89.52 41.12 86.89 38.55 82.04 37.99H82.08ZM82.08 51.36C78.72 51.21 76.88 49.3 76.73 45.84C77.05 42.59 78.82 40.84 82 40.5C85.42 40.82 87.27 42.59 87.59 45.77V45.87C87.26 49.36 85.4099 51.21 82.0699 51.36H82.08ZM82 41.49C79.42 41.76 78 43.19 77.72 45.87C77.86 48.74 79.28 50.23 82.08 50.36C84.82 50.23 86.31 48.75 86.59 45.82C86.3 43.18 84.8 41.76 81.99 41.49H82Z" fill="black"/>
</svg>
