<svg width="300" height="246" viewBox="0 0 300 246" fill="none" xmlns="http://www.w3.org/2000/svg">
<path d="M288 0H12C8.8174 0 5.76515 1.26427 3.51471 3.51471C1.26427 5.76515 0 8.8174 0 12V234C0 237.183 1.26427 240.235 3.51471 242.485C5.76515 244.736 8.8174 246 12 246H288C291.183 246 294.235 244.736 296.485 242.485C298.736 240.235 300 237.183 300 234V12C300 8.8174 298.736 5.76515 296.485 3.51471C294.235 1.26427 291.183 0 288 0Z" fill="#61707E"/>
<path d="M166.28 12.31H15C14.2485 12.3126 13.5287 12.613 12.9982 13.1453C12.4678 13.6776 12.17 14.3985 12.17 15.15V159.8C12.17 160.551 12.4681 161.27 12.9988 161.801C13.5296 162.332 14.2494 162.63 15 162.63H166.28C167.031 162.63 167.75 162.332 168.281 161.801C168.812 161.27 169.11 160.551 169.11 159.8V15.14C169.107 14.3903 168.808 13.6719 168.278 13.1418C167.748 12.6116 167.03 12.3126 166.28 12.31Z" fill="#D3E2E2"/>
<path d="M181.01 12.31H285.01C285.763 12.31 286.486 12.6092 287.018 13.1418C287.551 13.6744 287.85 14.3968 287.85 15.15V162.63H181.01V12.31Z" fill="#D63128"/>
<path d="M204.28 23.71H229.67V21.36H238.57V23.45H263.96V31.83H255.84V29.47H212.66V32.09H222.08V34.97H245.9V32.61H255.32V34.97H263.17V40.72H255.32V43.6H262.91V49.6H255.32V52.74H263.69V58.5H252.69L254.79 61.12C255.075 61.6075 255.504 61.995 256.018 62.2295C256.531 62.464 257.105 62.534 257.66 62.43H263.95V67.92H251.41V72.37H229.15C226.883 72.55 225.217 71.5033 224.15 69.23L221.54 64.23L218.66 66.85C217.09 67.85 214.66 68.33 211.33 68.16H204.26V62.4H208.45C209.347 62.5073 210.257 62.4228 211.119 62.1521C211.981 61.8814 212.775 61.4308 213.45 60.83L215.81 58.47H204.28V52.71H212.66V49.57H205.59V43.57H212.66V40.69H205.59V34.94H212.66V32.06H204.28V23.71ZM212.41 77.1L208.22 70.04H218.69L220.52 73.18C220.753 73.7994 221.193 74.3195 221.765 74.6528C222.337 74.9861 223.006 75.1123 223.66 75.01H260.81V80.51H217.89C215.103 80.51 213.277 79.3733 212.41 77.1ZM222.09 43.6H245.91V40.72H222.08L222.09 43.6ZM245.91 52.76V49.62H222.34V52.76H245.91ZM246.69 65.33L241.69 58.52H227.84L222.34 63.23H229.93L232.29 66.11C232.631 66.5422 233.07 66.8867 233.571 67.1146C234.072 67.3425 234.62 67.4472 235.17 67.42H249.3C248.41 67.59 247.55 66.9 246.68 65.31L246.69 65.33Z" fill="white"/>
<path d="M261.31 81.01H217.89C214.89 81.01 212.89 79.77 211.95 77.32L207.33 69.54H218.96L220.96 72.93C221.145 73.4628 221.513 73.9133 221.997 74.2022C222.482 74.4911 223.053 74.6002 223.61 74.51H261.31V81.01ZM209.09 70.54L212.86 76.92C213.66 79 215.31 80.01 217.86 80.01H260.31V75.51H223.65C222.902 75.6114 222.141 75.4584 221.49 75.0758C220.839 74.6932 220.335 74.1031 220.06 73.4L218.41 70.54H209.09ZM228.63 72.91C226.44 72.91 224.78 71.76 223.72 69.46L221.41 65.08L219.01 67.31C217.3 68.46 214.74 68.92 211.32 68.74H203.78V61.98H208.47C209.304 62.0826 210.149 62.0064 210.951 61.7563C211.753 61.5063 212.492 61.0882 213.12 60.53L214.59 59.05H203.78V52.31H212.16V50.17H205.09V43.17H212.16V41.29H205.09V34.54H212.16V32.66H203.78V23.21H229.17V20.86H239.07V22.95H264.41V32.31H255.78V34.45H263.63V41.2H255.78V43.08H263.41V50.08H255.82V52.31H264.19V59.07H253.74L255.19 60.88C255.425 61.2942 255.784 61.6246 256.216 61.8254C256.648 62.0261 257.132 62.0872 257.6 62H264.41V68.49H251.89V72.94H229.15C228.976 72.9398 228.803 72.9298 228.63 72.91ZM221.83 63.73L224.62 69.02C225.62 71.12 227.06 72.02 229.11 71.89H250.89V67.44H263.41V62.95H257.63C256.991 63.0538 256.336 62.9634 255.75 62.6906C255.163 62.4178 254.672 61.9752 254.34 61.42L251.62 58.02H263.15V53.31H254.78V49.17H262.41V44.17H254.82V40.29H262.67V35.54H254.82V33.11H246.41V35.47H221.58V32.59H213.16V35.47H206.09V40.22H213.16V44.1H206.09V49.1H213.16V53.31H204.78V58.07H217.01L213.8 61.28C213.076 61.9269 212.223 62.4136 211.297 62.7083C210.372 63.0029 209.395 63.0989 208.43 62.99H204.78V67.75H211.35C214.56 67.91 216.93 67.5 218.35 66.52L221.35 63.77H220.92L227.58 58.06H241.89L247.05 65.12C247.48 65.91 248.11 66.8 248.77 66.96H249.23L249.33 67.96C249.099 68.0051 248.861 68.0051 248.63 67.96H235.16C234.536 67.9827 233.915 67.8589 233.347 67.5984C232.779 67.3379 232.28 66.948 231.89 66.46L229.69 63.77L221.83 63.73ZM223.69 62.73H230.17L232.67 65.79C232.966 66.1622 233.346 66.4587 233.779 66.6552C234.212 66.8517 234.685 66.9424 235.16 66.92H247.16C246.819 66.5097 246.517 66.0677 246.26 65.6L241.41 59.02H228.02L223.69 62.73ZM222.58 34.47H245.41V32.11H255.35V29.97H213.16V31.59H222.58V34.47ZM204.78 31.59H212.16V28.97H256.34V31.31H263.41V23.93H238.07V21.84H230.17V24.19H204.78V31.59ZM246.41 53.31H221.84V49.17H246.41V53.31ZM222.85 52.31H245.41V50.17H222.84L222.85 52.31ZM246.41 44.1H221.58V40.22H246.41V44.1ZM222.59 43.1H245.41V41.22H222.58L222.59 43.1Z" fill="black"/>
<path d="M287.83 175.01V230.85C287.83 231.601 287.532 232.322 287.002 232.855C286.471 233.387 285.751 233.687 285 233.69H104.41V175.01H287.83Z" fill="#D63128"/>
<path d="M92.93 233.69H15C14.2485 233.687 13.5287 233.387 12.9982 232.855C12.4678 232.322 12.17 231.601 12.17 230.85V175.01H92.94L92.93 233.69Z" fill="#D63128"/>
<path d="M208.73 106.6L206.41 94.04H216.09L217.66 102.41C217.83 103.64 218.36 104.16 219.23 103.98H220.02V111.57H214.26C210.753 112.103 208.91 110.447 208.73 106.6ZM211.09 153.71H206.64V146.91H207.64C208.64 147.08 209.29 146.56 209.47 145.34L212.61 132.77H220.72L217.06 148.77C216.913 152.59 214.923 154.237 211.09 153.71ZM208.21 125.18L206.9 114.18H216.06L217.11 120.99C217.11 122.39 217.63 122.99 218.68 122.82H219.68V130.15H213.41C209.943 130.857 208.21 129.2 208.21 125.18ZM227.84 96.4V93.78H236.47V96.4H243.8V103.46H236.47V106.6H242.47V136.18C242.817 140.18 241.073 141.923 237.24 141.41H236.46V144.31H243V146.4H244C244.52 146.58 244.78 146.23 244.78 145.4V93.78H265.46V147.69C265.98 152.05 264.147 153.97 259.96 153.45H254.2V145.86H255.2C255.89 146.04 256.25 145.69 256.25 144.86V136.75H253.37V148C253.717 152.193 251.97 154.113 248.13 153.76H242.9V151.41H236.36V153.76H227.46V151.41H220.13V144.31H227.46V141.41H221.18V106.6H227.72V103.46H221.18V96.4H227.84ZM230.72 120.21H233.86V113.93H230.72V120.21ZM233.86 132.51V127.8H230.72V134.08H232.03C233.24 134.31 233.86 133.74 233.86 132.51ZM253.49 111.31H256.41V101.37H253.53V111.31H253.49ZM253.49 128.31H256.41V118.88H253.53V128.31H253.49Z" fill="white"/>
<path d="M212.41 154.31C211.965 154.305 211.521 154.271 211.08 154.21H206.17V146.41H207.72C207.865 146.45 208.017 146.461 208.166 146.442C208.315 146.423 208.459 146.375 208.59 146.3C208.864 146.036 209.028 145.679 209.05 145.3L212.3 132.3H220.83V106.1H227.37V103.96H220.83V96.4H221.32V95.9H227.32V93.31H236.95V95.93H244.28V103.99H236.95V106.13H242.95V136.21C243.14 138.36 242.72 139.97 241.7 140.94C240.68 141.91 239.18 142.21 237.15 141.94H236.94V143.82H243.48V145.91H244.19C244.19 145.91 244.31 145.84 244.31 145.34V93.31H265.99V147.72C266.27 150.04 265.87 151.78 264.8 152.84C263.73 153.9 262.13 154.25 259.93 153.98H253.73V151.08C253.548 151.831 253.172 152.52 252.64 153.08C252.031 153.599 251.314 153.977 250.54 154.184C249.767 154.392 248.957 154.424 248.17 154.28H242.48V151.93H236.94V154.28H227.04V151.93H219.71V143.86H227.04V141.91H220.76V134.91L217.55 148.86C217.579 149.675 217.435 150.488 217.126 151.243C216.818 151.998 216.352 152.679 215.76 153.24C214.804 153.98 213.618 154.359 212.41 154.31ZM207.17 153.21H211.17C211.852 153.366 212.56 153.38 213.248 153.251C213.936 153.122 214.59 152.853 215.17 152.46C215.658 151.969 216.039 151.383 216.289 150.737C216.538 150.092 216.651 149.401 216.62 148.71L220.14 133.31H213.05L210.05 145.5C210.027 145.818 209.94 146.128 209.794 146.412C209.648 146.696 209.446 146.947 209.2 147.15C208.975 147.301 208.721 147.404 208.455 147.454C208.188 147.504 207.914 147.499 207.65 147.44H207.19L207.17 153.21ZM243.55 153.21H248.28C248.929 153.342 249.599 153.329 250.242 153.172C250.885 153.014 251.485 152.717 252 152.3C252.84 151.46 253.19 150.02 253 148V136.2H256.88V144.81C256.907 145.061 256.874 145.314 256.786 145.55C256.697 145.786 256.555 145.999 256.37 146.17C256.214 146.285 256.033 146.362 255.842 146.395C255.651 146.428 255.455 146.416 255.27 146.36H254.78V152.95H260.04C261.98 153.19 263.34 152.95 264.14 152.11C264.94 151.27 265.29 149.81 265.04 147.75V94.31H245.35V145.31C245.381 145.569 245.351 145.832 245.265 146.078C245.178 146.324 245.036 146.547 244.85 146.73C244.725 146.813 244.583 146.867 244.434 146.888C244.285 146.909 244.133 146.896 243.99 146.85H242.52V144.76H235.98V140.91H237.26C239.04 141.15 240.26 140.91 241.05 140.18C241.84 139.45 242.16 138.1 242.05 136.18V107.1H236.05V102.96H243.38V96.9H236.05V94.31H228.42V96.93H221.88V102.99H228.42V107.13H221.88V140.91H228.16V144.79H220.83V150.86H228.16V153.21H236.06V150.86H243.6L243.55 153.21ZM254.02 145.36H255.47C255.65 145.36 255.74 145.36 255.77 145.36C255.8 145.36 255.9 145.17 255.9 144.79V137.18H254.02V145.36ZM232.41 134.62C232.243 134.629 232.077 134.629 231.91 134.62H230.18V127.31H234.41V132.52C234.436 132.831 234.393 133.143 234.284 133.435C234.175 133.727 234.003 133.992 233.78 134.21C233.393 134.517 232.902 134.664 232.41 134.62ZM231.18 133.62H231.99C232.329 133.703 232.687 133.653 232.99 133.48C233.097 133.352 233.178 133.204 233.226 133.044C233.274 132.884 233.289 132.716 233.27 132.55V128.31H231.13L231.18 133.62ZM211.95 130.85C211.002 130.886 210.072 130.589 209.32 130.01C208.23 129.11 207.67 127.51 207.67 125.25L206.3 113.73H216.45L217.56 120.96C217.56 121.66 217.68 122.1 217.9 122.28C217.95 122.28 218.11 122.45 218.55 122.38H220.18V130.71H213.41C212.941 130.788 212.465 130.822 211.99 130.81L211.95 130.85ZM207.42 114.73L208.67 125.22C208.67 127.22 209.1 128.54 209.95 129.22C210.44 129.538 210.994 129.745 211.573 129.827C212.152 129.908 212.741 129.861 213.3 129.69H219.18V123.31H218.64C218.398 123.361 218.148 123.357 217.908 123.3C217.668 123.243 217.443 123.134 217.25 122.98C216.997 122.717 216.805 122.401 216.687 122.056C216.57 121.71 216.53 121.343 216.57 120.98L215.57 114.67L207.42 114.73ZM256.83 128.87H252.95V118.4H256.83V128.87ZM253.95 127.87H255.83V119.44H253.95V127.87ZM234.41 120.71H230.27V113.43H234.41V120.71ZM231.27 119.71H233.41V114.43H231.27V119.71ZM213.08 112.17C211.993 112.201 210.931 111.847 210.08 111.17C208.99 110.27 208.38 108.74 208.28 106.62L205.82 93.5H216.53L218.17 102.28C218.175 102.695 218.34 103.093 218.63 103.39C218.707 103.438 218.793 103.468 218.883 103.479C218.973 103.489 219.064 103.479 219.15 103.45H220.54V112.04H214.28C213.868 112.119 213.45 112.163 213.03 112.17H213.08ZM207.08 94.54L209.33 106.54C209.29 107.248 209.397 107.957 209.645 108.621C209.892 109.286 210.276 109.891 210.77 110.4C211.272 110.746 211.842 110.982 212.441 111.093C213.041 111.203 213.658 111.185 214.25 111.04H219.59V104.44H219.3C219.094 104.488 218.881 104.491 218.674 104.45C218.467 104.408 218.271 104.323 218.1 104.2C217.841 103.984 217.63 103.715 217.482 103.412C217.334 103.108 217.252 102.777 217.24 102.44L215.75 94.5L207.08 94.54ZM256.97 111.81H253.09V100.87H256.97V111.81ZM254.09 110.81H255.97V101.87H254.09V110.81Z" fill="black"/>
<path d="M32.73 225.01V219.51H49.0699V225.01H32.73ZM32.91 194.72L39.91 183.89H47.0699L38.99 196.56H41.41L43.98 192.33H51.5099L40.67 209.59H49.12V215.31H32.91V210.17L38.79 201.73H32.91V194.72ZM58.8 219.72V189.76H51.46V183.89H74.41V189.76H65.97V219.69H74.6V225.56H51.27V219.69L58.8 219.72Z" fill="white"/>
<path d="M75.09 226.06H50.77V219.19H58.3V190.31H50.95V183.44H74.95V190.31H66.5099V219.24H75.14L75.09 226.06ZM51.77 225.06H74.09V220.19H65.46V189.31H73.9V184.44H51.9V189.31H59.25V220.24H51.72L51.77 225.06ZM49.5699 225.51H32.23V219.01H49.5699V225.51ZM33.23 224.51H48.5699V220.01H33.23V224.51ZM49.5699 215.78H32.41V209.98L37.83 202.2H32.41V194.57L39.62 183.39H47.96L39.8799 196.06H41.08L43.65 191.83H52.41L41.58 209.09H49.58L49.5699 215.78ZM33.41 214.78H48.5699V210.09H39.72L50.55 192.83H44.21L41.64 197.06H38.06L46.14 184.39H40.14L33.41 194.87V201.2H39.74L33.41 210.31V214.78Z" fill="black"/>
<path d="M125.98 207.22L130.86 209.68C130.621 211.651 130.099 213.578 129.31 215.4C128.74 216.76 127.835 217.953 126.68 218.87C125.512 219.69 124.106 220.102 122.68 220.04C120.964 220.111 119.273 219.611 117.87 218.62C116.366 217.276 115.256 215.547 114.66 213.62C113.663 210.666 113.202 207.557 113.3 204.44C113.3 199.467 114.093 195.647 115.68 192.98C116.321 191.753 117.291 190.729 118.481 190.022C119.672 189.315 121.036 188.955 122.42 188.98C123.43 188.93 124.437 189.111 125.366 189.51C126.295 189.909 127.121 190.514 127.78 191.28C129.304 193.341 130.3 195.745 130.68 198.28L125.75 200.11C125.644 199.425 125.463 198.755 125.21 198.11C124.96 197.481 124.57 196.916 124.07 196.46C123.649 196.092 123.109 195.889 122.55 195.89C121.29 195.89 120.32 196.74 119.65 198.43C119.047 200.343 118.79 202.347 118.89 204.35C118.89 207.68 119.19 209.97 119.8 211.2C119.991 211.731 120.337 212.193 120.793 212.525C121.25 212.856 121.796 213.043 122.36 213.06C122.865 213.07 123.362 212.934 123.792 212.667C124.221 212.401 124.564 212.017 124.78 211.56C125.429 210.194 125.835 208.725 125.98 207.22Z" fill="white"/>
<path d="M122.69 220.54C120.864 220.615 119.065 220.076 117.58 219.01C115.998 217.607 114.829 215.799 114.2 213.78C113.189 210.766 112.719 207.598 112.81 204.42C112.81 199.42 113.64 195.42 115.26 192.7C115.949 191.401 116.983 190.317 118.248 189.567C119.513 188.818 120.96 188.431 122.43 188.45C123.511 188.4 124.59 188.597 125.584 189.025C126.578 189.453 127.463 190.101 128.17 190.92C129.753 193.063 130.784 195.564 131.17 198.2L131.25 198.62L125.41 200.8L125.3 200.22C125.2 199.571 125.032 198.934 124.8 198.32C124.577 197.766 124.236 197.268 123.8 196.86C123.474 196.564 123.05 196.4 122.61 196.4C121.61 196.4 120.77 197.13 120.17 198.62C119.599 200.477 119.355 202.419 119.45 204.36C119.45 207.6 119.74 209.83 120.31 210.99C120.462 211.435 120.745 211.824 121.121 212.105C121.498 212.387 121.95 212.549 122.42 212.57C122.838 212.58 123.25 212.468 123.605 212.248C123.96 212.028 124.243 211.709 124.42 211.33C125.035 210.016 125.417 208.605 125.55 207.16L125.64 206.46L131.48 209.4V209.75C131.226 211.769 130.687 213.742 129.88 215.61C129.278 217.046 128.321 218.305 127.1 219.27C125.814 220.177 124.261 220.624 122.69 220.54ZM122.41 189.45C121.112 189.424 119.832 189.762 118.717 190.427C117.601 191.091 116.695 192.056 116.1 193.21C114.57 195.79 113.79 199.56 113.79 204.42C113.702 207.474 114.149 210.52 115.11 213.42C115.684 215.261 116.74 216.916 118.17 218.21C119.481 219.139 121.065 219.603 122.67 219.53C123.984 219.587 125.281 219.212 126.36 218.46C127.444 217.594 128.294 216.47 128.83 215.19C129.556 213.522 130.047 211.762 130.29 209.96L126.35 207.96C126.184 209.292 125.795 210.587 125.2 211.79C124.945 212.327 124.541 212.779 124.035 213.091C123.529 213.404 122.944 213.563 122.35 213.55C121.693 213.533 121.057 213.321 120.522 212.939C119.988 212.558 119.579 212.025 119.35 211.41C118.7 210.09 118.35 207.78 118.35 204.34C118.246 202.272 118.517 200.202 119.15 198.23C119.9 196.34 121.03 195.38 122.51 195.38C123.187 195.377 123.842 195.623 124.35 196.07C124.908 196.573 125.345 197.195 125.63 197.89C125.828 198.389 125.982 198.904 126.09 199.43L130.09 197.96C129.715 195.638 128.789 193.44 127.39 191.55C126.776 190.842 126.008 190.285 125.144 189.92C124.281 189.556 123.345 189.395 122.41 189.45Z" fill="black"/>
<path d="M132.87 204.51C132.87 199.61 133.69 195.79 135.33 193.05C136.005 191.815 136.999 190.783 138.208 190.062C139.417 189.341 140.797 188.957 142.204 188.95C143.612 188.943 144.996 189.313 146.212 190.021C147.428 190.73 148.432 191.752 149.12 192.98C150.747 195.647 151.56 199.41 151.56 204.27C151.636 207.187 151.276 210.099 150.49 212.91C149.939 214.896 148.881 216.705 147.42 218.16C146.062 219.415 144.268 220.089 142.42 220.04C140.616 220.096 138.848 219.524 137.42 218.42C135.87 217.052 134.725 215.284 134.11 213.31C133.205 210.467 132.786 207.492 132.87 204.51ZM138.44 204.51C138.44 207.537 138.773 209.717 139.44 211.05C139.654 211.619 140.031 212.112 140.523 212.468C141.016 212.823 141.603 213.026 142.21 213.05C142.814 213.037 143.401 212.845 143.896 212.498C144.391 212.15 144.772 211.664 144.99 211.1C145.657 209.767 145.99 207.433 145.99 204.1C146.126 201.981 145.784 199.859 144.99 197.89C144.77 197.321 144.389 196.829 143.894 196.473C143.398 196.118 142.809 195.915 142.2 195.89C141.602 195.922 141.027 196.128 140.545 196.484C140.063 196.839 139.697 197.328 139.49 197.89C138.78 199.31 138.41 201.49 138.41 204.56L138.44 204.51Z" fill="white"/>
<path d="M142.41 220.54C140.476 220.608 138.579 219.996 137.05 218.81C135.45 217.37 134.275 215.52 133.65 213.46C132.737 210.567 132.318 207.542 132.41 204.51C132.41 199.51 133.26 195.59 134.94 192.79C135.66 191.48 136.716 190.387 138.001 189.623C139.285 188.859 140.75 188.452 142.244 188.445C143.739 188.438 145.208 188.831 146.499 189.582C147.791 190.334 148.858 191.417 149.59 192.72C151.25 195.47 152.1 199.36 152.1 204.27C152.175 207.238 151.808 210.2 151.01 213.06C150.429 215.129 149.324 217.014 147.8 218.53C146.336 219.88 144.401 220.602 142.41 220.54ZM142.19 189.45C140.866 189.43 139.563 189.781 138.429 190.463C137.294 191.145 136.373 192.131 135.77 193.31C134.18 195.95 133.38 199.72 133.38 204.51C133.297 207.428 133.706 210.338 134.59 213.12C135.153 215.008 136.221 216.706 137.68 218.03C139.032 219.07 140.705 219.604 142.41 219.54C144.138 219.6 145.82 218.974 147.09 217.8C148.481 216.412 149.493 214.69 150.03 212.8C150.781 210.035 151.118 207.174 151.03 204.31C151.03 199.58 150.23 195.87 148.66 193.31C148.047 192.127 147.115 191.138 145.97 190.456C144.825 189.774 143.513 189.426 142.18 189.45H142.19ZM142.19 213.59C141.495 213.563 140.823 213.333 140.258 212.928C139.692 212.522 139.258 211.96 139.01 211.31C138.29 209.89 137.94 207.68 137.94 204.54C137.94 201.4 138.29 199.13 139.02 197.72C139.266 197.076 139.696 196.519 140.256 196.117C140.816 195.715 141.481 195.487 142.17 195.46C142.871 195.476 143.552 195.698 144.128 196.098C144.704 196.498 145.15 197.059 145.41 197.71C146.14 199.1 146.49 201.21 146.49 204.15C146.49 207.62 146.15 209.98 145.49 211.36C145.232 212.017 144.783 212.582 144.199 212.98C143.616 213.378 142.926 213.59 142.22 213.59H142.19ZM142.19 196.48C141.686 196.514 141.204 196.695 140.802 197.001C140.4 197.307 140.097 197.724 139.93 198.2C139.28 199.45 138.93 201.59 138.93 204.56C138.93 207.53 139.25 209.62 139.93 210.87C140.104 211.353 140.418 211.774 140.83 212.08C141.243 212.386 141.737 212.563 142.25 212.59C142.762 212.575 143.257 212.407 143.673 212.108C144.088 211.808 144.404 211.391 144.58 210.91C145.2 209.69 145.51 207.41 145.51 204.15C145.633 202.1 145.291 200.049 144.51 198.15C144.324 197.675 144.004 197.263 143.588 196.967C143.173 196.67 142.68 196.501 142.17 196.48H142.19Z" fill="black"/>
<path d="M154.56 189.46H160.13V212.12H168.83V219.53H154.56V189.46Z" fill="white"/>
<path d="M169.33 220.03H154.06V188.96H160.63V211.62H169.33V220.03ZM155.06 219.03H168.33V212.62H159.63V189.96H155.06V219.03Z" fill="black"/>
<path d="M171.41 189.46H179.69C181.109 189.386 182.513 189.775 183.69 190.57C184.769 191.409 185.624 192.501 186.18 193.75C186.877 195.283 187.358 196.905 187.61 198.57C187.909 200.495 188.056 202.441 188.05 204.39C188.118 206.9 187.896 209.41 187.39 211.87C187.031 213.445 186.412 214.948 185.56 216.32C184.968 217.34 184.097 218.169 183.05 218.71C182.012 219.209 180.881 219.489 179.73 219.53H171.41V189.46ZM177.01 196.31V212.74H178.41C179.29 212.819 180.17 212.589 180.9 212.09C181.492 211.467 181.892 210.685 182.05 209.84C182.388 208.122 182.529 206.37 182.47 204.62C182.47 201.433 182.157 199.25 181.53 198.07C181.242 197.502 180.792 197.031 180.236 196.718C179.681 196.405 179.046 196.263 178.41 196.31H177.01Z" fill="white"/>
<path d="M179.72 220.03H170.94V188.96H179.72C181.23 188.894 182.721 189.318 183.97 190.17C185.12 191.051 186.031 192.206 186.62 193.53C187.346 195.118 187.841 196.802 188.09 198.53C188.398 200.481 188.548 202.454 188.54 204.43C188.604 206.98 188.379 209.53 187.87 212.03C187.496 213.658 186.854 215.213 185.97 216.63C185.328 217.733 184.38 218.626 183.24 219.2C182.139 219.723 180.939 220.006 179.72 220.03ZM171.94 219.03H179.72C180.803 218.992 181.866 218.726 182.84 218.25C183.798 217.743 184.595 216.977 185.14 216.04C185.955 214.715 186.549 213.266 186.9 211.75C187.388 209.328 187.603 206.86 187.54 204.39C187.547 202.468 187.4 200.549 187.1 198.65C186.862 197.03 186.398 195.451 185.72 193.96C185.198 192.783 184.394 191.753 183.38 190.96C182.298 190.243 181.016 189.893 179.72 189.96H171.94V219.03ZM176.51 213.2V195.77H178.41C179.132 195.723 179.852 195.887 180.482 196.242C181.112 196.598 181.626 197.128 181.96 197.77C182.63 199.03 182.96 201.25 182.96 204.55C183.025 206.341 182.878 208.134 182.52 209.89C182.344 210.839 181.888 211.713 181.21 212.4C180.403 212.995 179.409 213.279 178.41 213.2H176.51ZM177.51 212.2H178.41C179.168 212.271 179.928 212.088 180.57 211.68C181.083 211.12 181.43 210.427 181.57 209.68C181.89 208.003 182.025 206.296 181.97 204.59C181.97 201.5 181.67 199.38 181.09 198.28C180.845 197.794 180.462 197.392 179.988 197.125C179.515 196.858 178.972 196.738 178.43 196.78H177.54L177.51 212.2Z" fill="black"/>
<path d="M197.51 189.46H202.81L204.71 206.31L207.5 189.48H212.78L215.58 206.29L217.48 189.48H222.75L218.75 219.55H213.31L210.15 200.62L206.99 219.55H201.53L197.51 189.46Z" fill="white"/>
<path d="M219.21 220.03H212.88L210.15 203.64L207.41 220.03H201.08L196.93 188.96H203.24L204.8 202.67L207.07 188.96H213.19L215.47 202.66L217.03 188.96H223.31L219.21 220.03ZM213.73 219.03H218.34L222.18 189.96H217.93L215.67 209.88L212.35 189.96H207.93L204.62 209.96L202.36 189.96H198.09L201.96 219.03H206.57L210.14 197.56L213.73 219.03Z" fill="black"/>
<path d="M235.66 214.56H229.33L228.46 219.56H222.76L229.54 189.49H235.62L242.41 219.53H236.58L235.66 214.56ZM234.51 208.06L232.51 197.25L230.51 208.06H234.51Z" fill="white"/>
<path d="M243.03 220.03H236.15L235.24 215.03H229.75L228.87 220.03H222.14L229.14 188.96H236.02L243.03 220.03ZM237.03 219.03H241.83L235.27 189.96H229.99L223.41 219.03H228.06L228.93 214.03H236.1L237.03 219.03ZM235.16 208.56H229.99L232.56 194.48L235.16 208.56ZM231.16 207.56H233.92L232.54 200.03L231.16 207.56Z" fill="black"/>
<path d="M241.01 189.46H246.84L250.9 211.1L254.9 189.46H260.55L253.86 219.53H247.81L241.01 189.46Z" fill="white"/>
<path d="M254.27 220.03H247.41L240.41 188.96H247.27L250.92 208.37L254.51 188.96H261.21L254.27 220.03ZM248.22 219.03H253.47L259.94 189.96H255.32L250.9 213.83L246.41 189.96H241.63L248.22 219.03Z" fill="black"/>
<path d="M262.41 189.46H277.31V195.88H267.96V200.66H276.63V206.79H267.96V212.72H277.58V219.53H262.41V189.46Z" fill="white"/>
<path d="M278.08 220.03H261.87V188.96H277.81V196.38H268.46V200.16H277.13V207.31H268.46V212.24H278.08V220.03ZM262.87 219.03H277.08V213.22H267.46V206.31H276.13V201.18H267.46V195.4H276.81V189.98H262.87V219.03Z" fill="black"/>
<path d="M92.94 156.13L30.91 81.98H43.81V18.81H142.07V81.98H154.96L92.94 156.13Z" fill="#D63128"/>
<path d="M92.93 156.91L29.84 81.47H43.31V18.31H142.56V81.47H156.03L92.93 156.91ZM31.98 82.47L92.93 155.31L153.93 82.43H141.56V19.31H44.31V82.47H31.98Z" fill="black"/>
<path d="M90.6 45.82C90.0133 50.94 87.16 53.7167 82.04 54.15C76.92 53.71 74.1433 50.9333 73.71 45.82C74.15 40.8467 76.9266 38.0666 82.04 37.48C87.16 38.0733 90.0133 40.8533 90.6 45.82ZM87.09 45.82C86.79 42.89 85.09 41.29 82.09 40.99C80.8139 41.003 79.594 41.5164 78.6926 42.4197C77.7912 43.3229 77.2804 44.544 77.27 45.82C77.41 49.03 79.02 50.72 82.09 50.82C85.11 50.72 86.79 49.03 87.09 45.82ZM114.5 55.47H109.68C109.533 49.47 107.047 46.3967 102.22 46.25C96.3733 46.25 93.5966 51.9533 93.89 63.36C93.3033 75.64 96.08 81.7833 102.22 81.79C106.46 81.93 108.873 78.8567 109.46 72.57C109.609 71.6274 109.683 70.6743 109.68 69.72H114.5C114.215 70.5659 114.139 71.4684 114.28 72.35C114.162 72.7813 114.088 73.2236 114.06 73.67C113.773 77.0033 112.97 79.5633 111.65 81.35C110.547 82.6611 109.169 83.7134 107.613 84.4324C106.058 85.1513 104.363 85.5192 102.65 85.51C92.85 85.6567 88.3167 78.2733 89.05 63.36C88.7633 49.18 93.2233 42.09 102.43 42.09C110.19 42.53 114.213 46.99 114.5 55.47Z" fill="white"/>
<path d="M102.41 86.02C100.706 86.1048 99.0034 85.8348 97.4094 85.2271C95.8154 84.6195 94.365 83.6874 93.15 82.49C89.67 78.88 88.15 72.49 88.58 63.34C88.4 54.67 90.03 48.51 93.43 45.04C94.6141 43.8795 96.0238 42.9745 97.572 42.381C99.1201 41.7876 100.774 41.5184 102.43 41.59C110.43 42.04 114.69 46.7 114.99 55.45V55.97H109.16V55.48C109.02 49.75 106.74 46.89 102.16 46.75C101.323 46.7218 100.489 46.8691 99.7123 47.1826C98.9355 47.496 98.233 47.9686 97.65 48.57C95.27 51.01 94.16 55.99 94.35 63.35C93.96 71.4 95.03 76.78 97.52 79.4C98.1185 80.0271 98.8435 80.5199 99.6469 80.8457C100.45 81.1715 101.314 81.323 102.18 81.29C106.18 81.42 108.36 78.56 108.92 72.53C109.072 71.6011 109.145 70.6611 109.14 69.72V69.22H115.14L114.92 69.88C114.651 70.6466 114.582 71.4693 114.72 72.27V72.48C114.605 72.8674 114.535 73.2666 114.51 73.67C114.21 77.16 113.37 79.83 112 81.67C110.851 83.0361 109.416 84.1343 107.798 84.8875C106.179 85.6406 104.415 86.0305 102.63 86.03L102.41 86.02ZM102.41 42.59C100.886 42.5201 99.3643 42.7635 97.9384 43.3054C96.5124 43.8472 95.2128 44.6758 94.12 45.74C90.92 49.01 89.39 54.93 89.56 63.35C89.13 72.2 90.56 78.35 93.85 81.79C95.97 83.98 98.94 85.06 102.65 85.01C104.291 85.0099 105.913 84.6519 107.401 83.9611C108.89 83.2703 110.21 82.2632 111.27 81.01C112.5 79.36 113.27 76.86 113.57 73.61C113.583 73.1701 113.65 72.7335 113.77 72.31C113.667 71.6077 113.694 70.8924 113.85 70.2H110.17C110.156 71.0176 110.082 71.8331 109.95 72.64C109.34 79.17 106.75 82.44 102.2 82.27C101.202 82.2995 100.209 82.1189 99.2861 81.7399C98.3627 81.3609 97.5293 80.7919 96.84 80.07C94.12 77.21 92.99 71.73 93.39 63.32C93.19 55.6 94.39 50.53 96.97 47.85C97.6521 47.1544 98.4705 46.6072 99.3738 46.2424C100.277 45.8776 101.246 45.7031 102.22 45.73C107.22 45.89 109.88 48.98 110.16 54.95H113.98C113.55 47.05 109.77 43 102.41 42.59ZM82.08 54.65C76.63 54.19 73.67 51.23 73.21 45.86C73.67 40.55 76.62 37.6 81.99 36.98H82.1C87.45 37.6 90.48 40.55 91.1 45.76V45.87C90.48 51.24 87.41 54.19 82.08 54.65ZM82.08 37.98C77.23 38.56 74.66 41.13 74.25 45.86C74.66 50.66 77.25 53.23 82.12 53.65C86.91 53.23 89.56 50.65 90.12 45.82C89.52 41.12 86.89 38.56 82.04 37.98H82.08ZM82.08 51.36C78.72 51.2 76.88 49.29 76.73 45.84C77.05 42.59 78.82 40.84 82 40.49C85.42 40.81 87.27 42.59 87.59 45.77V45.86C87.26 49.31 85.4099 51.2 82.0699 51.36H82.08ZM82 41.49C80.8567 41.5135 79.7681 41.9843 78.968 42.8013C78.1678 43.6183 77.7197 44.7164 77.72 45.86C77.86 48.73 79.28 50.23 82.08 50.36C84.82 50.23 86.31 48.74 86.59 45.82C86.3 43.17 84.8 41.76 81.99 41.49H82Z" fill="black"/>
</svg>
