<svg width="300" height="246" viewBox="0 0 300 246" fill="none" xmlns="http://www.w3.org/2000/svg">
<path d="M288 0H12C8.8174 0 5.76515 1.26429 3.51471 3.51472C1.26427 5.76516 0 8.8174 0 12V234C0 237.183 1.26427 240.235 3.51471 242.485C5.76515 244.736 8.8174 246 12 246H288C291.183 246 294.235 244.736 296.485 242.485C298.736 240.235 300 237.183 300 234V12C300 8.8174 298.736 5.76516 296.485 3.51472C294.235 1.26429 291.183 0 288 0Z" fill="#61707E"/>
<path d="M166.28 12.3H15C14.2485 12.3026 13.5287 12.603 12.9982 13.1353C12.4678 13.6677 12.17 14.3885 12.17 15.14V159.8C12.17 160.551 12.4681 161.27 12.9988 161.801C13.5296 162.332 14.2494 162.63 15 162.63H166.28C167.031 162.63 167.75 162.332 168.281 161.801C168.812 161.27 169.11 160.551 169.11 159.8V15.14C169.11 14.3885 168.812 13.6677 168.282 13.1353C167.751 12.603 167.031 12.3026 166.28 12.3Z" fill="#D3E2E2"/>
<path d="M181.01 12.3H285.01C285.763 12.3 286.486 12.5992 287.018 13.1318C287.551 13.6644 287.85 14.3868 287.85 15.14V162.63H181.01V12.3Z" fill="#FAED26"/>
<path d="M204.28 23.71H229.67V21.36H238.57V23.45H263.96V31.8H255.84V29.44H212.66V32.06H222.08V34.94H245.9V32.58H255.32V34.94H263.17V40.69H255.32V43.57H262.91V49.57H255.32V52.8H263.69V58.56H252.69L254.79 61.18C255.075 61.6675 255.504 62.055 256.018 62.2895C256.531 62.524 257.105 62.594 257.66 62.49H263.95V67.98H251.41V72.43H229.15C226.883 72.61 225.217 71.5633 224.15 69.29L221.54 64.29L218.66 66.91C217.09 67.91 214.66 68.39 211.33 68.22H204.26V62.46H208.45C209.347 62.5672 210.257 62.4827 211.119 62.2121C211.981 61.9414 212.775 61.4908 213.45 60.89L215.81 58.53H204.28V52.8H212.66V49.66H205.59V43.66H212.66V40.78H205.59V35.03H212.66V32.15H204.28V23.71ZM212.41 77.1L208.22 70.04H218.69L220.52 73.18C220.753 73.7994 221.193 74.3195 221.765 74.6528C222.337 74.9861 223.006 75.1123 223.66 75.01H260.81V80.51H217.89C215.103 80.51 213.277 79.3733 212.41 77.1ZM222.09 43.6H245.91V40.72H222.08L222.09 43.6ZM245.9 52.8V49.66H222.34V52.8H245.9ZM246.68 65.37L241.68 58.56H227.84L222.34 63.27H229.93L232.29 66.15C232.631 66.5823 233.07 66.9267 233.571 67.1546C234.072 67.3825 234.62 67.4872 235.17 67.46H249.3C248.41 67.59 247.55 66.9 246.68 65.33V65.37Z" fill="white"/>
<path d="M261.31 81.01H217.89C214.89 81.01 212.89 79.77 211.95 77.32L207.33 69.54H218.96L220.96 72.92C221.144 73.4547 221.51 73.9074 221.995 74.1983C222.48 74.4892 223.052 74.5996 223.61 74.51H261.31V81.01ZM209.09 70.54L212.86 76.92C213.66 79 215.31 80.01 217.86 80.01H260.31V75.51H223.65C222.902 75.6114 222.141 75.4585 221.49 75.0758C220.839 74.6932 220.335 74.1031 220.06 73.4L218.41 70.54H209.09ZM228.63 72.91C226.44 72.91 224.78 71.76 223.72 69.46L221.41 65.08L219.01 67.27C217.3 68.42 214.74 68.88 211.32 68.7H203.78V61.94H208.47C209.304 62.0426 210.149 61.9664 210.951 61.7163C211.753 61.4663 212.492 61.0482 213.12 60.49L214.59 59.01H203.78V52.25H212.16V50.11H205.09V43.11H212.16V41.23H205.09V34.48H212.16V32.6H203.78V23.22H229.17V20.87H239.07V22.96H264.41V32.34H255.78V34.48H263.63V41.23H255.78V43.11H263.41V50.11H255.82V52.25H264.19V59.01H253.74L255.19 60.82C255.425 61.2341 255.784 61.5646 256.216 61.7653C256.648 61.9661 257.132 62.0271 257.6 61.94H264.41V68.43H251.89V72.88H229.15C228.977 72.8998 228.804 72.9098 228.63 72.91ZM221.83 63.73L224.62 69.02C225.62 71.12 227.06 72.02 229.11 71.89H250.89V67.44H263.41V62.95H257.63C256.991 63.0538 256.336 62.9634 255.75 62.6906C255.163 62.4178 254.672 61.9752 254.34 61.42L251.62 58.02H263.15V53.26H254.78V49.12H262.41V44.12H254.82V40.24H262.67V35.49H254.82V33.13H246.41V35.49H221.58V32.61H213.16V35.49H206.09V40.24H213.16V44.12H206.09V49.12H213.16V53.26H204.78V58.02H217.01L213.8 61.23C213.076 61.8769 212.223 62.3636 211.297 62.6582C210.372 62.9529 209.395 63.0489 208.43 62.94H204.78V67.7H211.35C214.56 67.86 216.93 67.45 218.35 66.47L221.35 63.72H220.92L227.58 58.01H241.89L247.05 65.07C247.48 65.86 248.11 66.75 248.77 66.91H249.23L249.33 67.91C249.099 67.955 248.861 67.955 248.63 67.91H235.16C234.536 67.9327 233.915 67.8089 233.347 67.5484C232.779 67.2879 232.28 66.898 231.89 66.41L229.69 63.72L221.83 63.73ZM223.69 62.73H230.17L232.67 65.79C232.966 66.1622 233.346 66.4587 233.779 66.6552C234.212 66.8517 234.685 66.9424 235.16 66.92H247.16C246.819 66.5097 246.517 66.0677 246.26 65.6L241.41 59.02H228.02L223.69 62.73ZM222.58 34.47H245.41V32.11H255.35V29.97H213.16V31.59H222.58V34.47ZM204.78 31.59H212.16V28.97H256.34V31.33H263.41V23.95H238.07V21.86H230.17V24.21H204.78V31.59ZM246.41 53.26H221.84V49.12H246.41V53.26ZM222.85 52.26H245.41V50.12H222.84L222.85 52.26ZM246.41 44.1H221.58V40.22H246.41V44.1ZM222.59 43.1H245.41V41.22H222.58L222.59 43.1Z" fill="black"/>
<path d="M287.83 175.01V230.85C287.83 231.601 287.532 232.322 287.002 232.855C286.471 233.387 285.751 233.687 285 233.69H104.41V175.01H287.83Z" fill="#FAED26"/>
<path d="M92.93 233.69H15C14.2485 233.687 13.5287 233.387 12.9982 232.855C12.4678 232.322 12.17 231.601 12.17 230.85V175.01H92.94L92.93 233.69Z" fill="#FAED26"/>
<path d="M208.73 106.6L206.41 94.04H216.09L217.66 102.41C217.83 103.64 218.36 104.16 219.23 103.98H220.02V111.57H214.26C210.753 112.103 208.91 110.447 208.73 106.6ZM211.09 153.71H206.64V146.91H207.64C208.64 147.08 209.29 146.56 209.47 145.34L212.66 132.8H220.77L217.11 148.8C216.93 152.6 214.923 154.237 211.09 153.71ZM208.21 125.18L206.9 114.18H216.06L217.11 120.99C217.11 122.39 217.63 122.99 218.68 122.82H219.68V130.15H213.41C209.943 130.857 208.21 129.2 208.21 125.18ZM227.84 96.4V93.8H236.47V96.42H243.8V103.48H236.47V106.62H242.47V136.2C242.817 140.2 241.073 141.943 237.24 141.43H236.46V144.31H243V146.4H244C244.52 146.58 244.78 146.23 244.78 145.4V93.8H265.46V147.71C265.98 152.07 264.147 153.99 259.96 153.47H254.2V145.88H255.2C255.89 146.06 256.25 145.71 256.25 144.83V136.7H253.37V147.95C253.717 152.137 251.97 154.057 248.13 153.71H242.9V151.36H236.36V153.71H227.46V151.36H220.13V144.29H227.46V141.41H221.18V106.6H227.72V103.46H221.18V96.4H227.84ZM230.72 120.21H233.86V113.93H230.72V120.21ZM233.86 132.51V127.8H230.72V134.08H232.03C233.24 134.26 233.86 133.74 233.86 132.51ZM253.49 111.31H256.41V101.37H253.53V111.31H253.49ZM253.49 128.31H256.41V118.9H253.53V128.33L253.49 128.31Z" fill="white"/>
<path d="M212.41 154.3C211.965 154.298 211.521 154.268 211.08 154.21H206.17V146.41H207.72C207.865 146.45 208.017 146.461 208.166 146.442C208.315 146.423 208.459 146.375 208.59 146.3C208.864 146.036 209.028 145.679 209.05 145.3L212.3 132.3H220.83V106.1H227.37V103.96H220.83V96.4H221.32V95.9H227.32V93.28H236.95V95.9H244.28V103.96H236.95V106.1H242.95V136.18C243.14 138.33 242.72 139.94 241.7 140.91C240.68 141.88 239.18 142.18 237.15 141.91H236.94V143.8H243.48V145.89H244.19C244.19 145.89 244.31 145.82 244.31 145.32V93.28H265.99V147.69C266.27 150.01 265.87 151.75 264.8 152.81C263.73 153.87 262.13 154.22 259.93 153.95H253.73V151.05C253.548 151.801 253.172 152.49 252.64 153.05C252.031 153.569 251.314 153.947 250.54 154.154C249.767 154.362 248.957 154.395 248.17 154.25H242.48V151.9H236.94V154.25H227.04V151.9H219.71V143.8H227.04V141.92H220.76V134.92L217.55 148.92C217.579 149.735 217.435 150.547 217.126 151.303C216.818 152.058 216.352 152.739 215.76 153.3C214.795 154.015 213.609 154.369 212.41 154.3ZM207.17 153.21H211.17C211.852 153.366 212.56 153.38 213.248 153.251C213.936 153.122 214.59 152.853 215.17 152.46C215.658 151.969 216.039 151.383 216.289 150.737C216.538 150.092 216.651 149.401 216.62 148.71L220.15 133.26H213.06L210.06 145.45C210.037 145.768 209.95 146.078 209.804 146.362C209.658 146.646 209.456 146.897 209.21 147.1C208.985 147.251 208.731 147.354 208.465 147.404C208.198 147.454 207.924 147.449 207.66 147.39H207.2L207.17 153.21ZM243.55 153.21H248.28C248.929 153.342 249.599 153.329 250.242 153.171C250.885 153.014 251.485 152.717 252 152.3C252.84 151.46 253.19 150.01 253 148V136.2H256.88V144.8C256.907 145.051 256.874 145.304 256.786 145.54C256.697 145.776 256.555 145.989 256.37 146.16C256.214 146.275 256.033 146.352 255.842 146.385C255.651 146.418 255.455 146.406 255.27 146.35H254.78V152.94H260.04C261.98 153.18 263.34 152.94 264.14 152.1C264.94 151.26 265.29 149.79 265.04 147.74V94.28H245.35V145.34C245.381 145.599 245.351 145.862 245.265 146.108C245.178 146.354 245.036 146.577 244.85 146.76C244.725 146.843 244.583 146.897 244.434 146.918C244.285 146.939 244.133 146.926 243.99 146.88H242.52V144.8H235.98V140.92H237.26C239.04 141.16 240.26 140.92 241.05 140.19C241.84 139.46 242.16 138.11 242.05 136.19V107.1H236.05V102.96H243.38V96.9H236.05V94.28H228.42V96.9H221.88V102.96H228.42V107.1H221.88V140.91H228.16V144.8H220.83V150.87H228.16V153.22H236.06V150.87H243.6L243.55 153.21ZM254.02 145.36H255.47C255.65 145.36 255.74 145.36 255.77 145.36C255.8 145.36 255.9 145.17 255.9 144.79V137.2H254.02V145.36ZM232.41 134.61H230.18V127.3H234.41V132.51C234.436 132.821 234.393 133.133 234.284 133.425C234.175 133.717 234.003 133.982 233.78 134.2C233.393 134.507 232.902 134.654 232.41 134.61ZM231.18 133.61H231.99C232.329 133.693 232.687 133.643 232.99 133.47C233.097 133.342 233.178 133.194 233.226 133.034C233.274 132.874 233.289 132.706 233.27 132.54V128.3H231.13L231.18 133.61ZM211.99 130.8C211.042 130.836 210.112 130.539 209.36 129.96C208.27 129.06 207.71 127.46 207.71 125.2L206.34 113.68H216.49L217.6 120.91C217.6 121.61 217.72 122.05 217.94 122.23C217.99 122.23 218.15 122.4 218.59 122.33H220.22V130.66H213.41C212.942 130.752 212.467 130.798 211.99 130.8ZM207.46 114.68L208.71 125.17C208.71 127.17 209.14 128.49 209.99 129.17C210.478 129.494 211.031 129.705 211.611 129.788C212.19 129.871 212.781 129.824 213.34 129.65H219.22V123.32H218.68C218.438 123.371 218.188 123.367 217.948 123.31C217.708 123.253 217.483 123.144 217.29 122.99C217.037 122.727 216.845 122.411 216.727 122.066C216.61 121.72 216.57 121.353 216.61 120.99L215.61 114.68H207.46ZM256.87 128.8H252.99V118.4H256.87V128.8ZM253.99 127.8H255.87V119.4H253.99V127.8ZM234.41 120.71H230.27V113.43H234.41V120.71ZM231.27 119.71H233.41V114.43H231.27V119.71ZM213.08 112.17C211.993 112.201 210.931 111.847 210.08 111.17C208.99 110.27 208.38 108.74 208.28 106.62L205.82 93.5H216.53L218.17 102.28C218.175 102.695 218.34 103.093 218.63 103.39C218.707 103.438 218.793 103.468 218.883 103.479C218.973 103.489 219.064 103.479 219.15 103.45H220.54V112.04H214.28C213.868 112.119 213.45 112.163 213.03 112.17H213.08ZM207.08 94.54L209.33 106.54C209.29 107.248 209.397 107.957 209.645 108.621C209.892 109.286 210.276 109.891 210.77 110.4C211.272 110.746 211.842 110.982 212.441 111.093C213.041 111.203 213.658 111.185 214.25 111.04H219.59V104.45H219.3C219.094 104.498 218.881 104.501 218.674 104.46C218.467 104.418 218.271 104.333 218.1 104.21C217.842 103.993 217.632 103.724 217.484 103.421C217.336 103.118 217.253 102.787 217.24 102.45L215.75 94.51L207.08 94.54ZM256.87 111.8H252.99V100.87H256.87V111.8ZM253.99 110.8H255.87V101.86H253.99V110.8Z" fill="black"/>
<path d="M32.91 190.13V185.13H37.5V183.3H43.93V185.13H62.47V183.13H68.71V185.13H73.85V190.13H68.71V192.33H74.04V197.47H56.6V199.68H73.3V212.53C73.9133 217.197 71.58 219.217 66.3 218.59H64.09L64.83 219.51C64.8345 219.579 64.8528 219.646 64.8837 219.708C64.9146 219.77 64.9575 219.825 65.0099 219.87C65.2759 220.122 65.5904 220.318 65.9341 220.445C66.2779 220.572 66.6439 220.628 67.0099 220.61H74.0099V225.2H63.5699C61.5699 224.95 60.33 224.46 59.72 223.73L55.49 218.59H52.0099L47.0099 223.36C46.3546 224.114 45.5328 224.706 44.6095 225.088C43.6862 225.469 42.6866 225.631 41.69 225.56H33.06V220.8H40.58C41.0028 220.772 41.4159 220.661 41.7953 220.472C42.1747 220.283 42.5128 220.021 42.79 219.7L43.7 218.6H33.65V199.68H49.99V197.47H32.91V192.33H37.5V190.13H32.91ZM49.8 206.65V204.65H40.0699V206.65H49.8ZM49.8 211.65H40.0699V213.8H49.8V211.65ZM43.93 192.37H62.29V190.17H43.93V192.37ZM56.6 206.69H67.06V204.69H56.6V206.69ZM67.24 211.69H56.78V213.8H66.69C67.06 213.8 67.24 213.56 67.24 213.07V211.69Z" fill="white"/>
<path d="M42.16 226.08H32.6V220.31H40.6C40.9598 220.277 41.3092 220.171 41.6271 219.999C41.9451 219.827 42.2249 219.593 42.45 219.31L42.66 219.07H33.1299V199.18H49.47V197.97H32.41V191.8H37V190.6H32.41V184.6H37V182.8H44.41V184.63H61.95V182.63H69.19V184.63H74.33V190.63H69.21V191.8H74.54V197.94H57.1V199.15H73.8V212.5C74.11 214.77 73.69 216.5 72.58 217.66C71.47 218.82 69.21 219.4 66.27 219.05H65.16L65.36 219.29V219.47C66.28 220.11 66.75 220.13 66.94 220.08H74.54V225.67H63.54C61.37 225.4 60 224.86 59.3 224.02L55.23 219.02H52.21L47.41 223.72C46.7555 224.467 45.9479 225.065 45.042 225.472C44.1361 225.879 43.1532 226.086 42.16 226.08ZM33.6 225.08H41.72C42.6524 225.168 43.5923 225.033 44.4619 224.685C45.3315 224.337 46.1056 223.787 46.72 223.08L51.84 218.15H55.77L60.14 223.47C60.66 224.1 61.85 224.53 63.67 224.76H73.58V221.17H67.16C66.7295 221.197 66.298 221.137 65.891 220.995C65.4839 220.852 65.1096 220.63 64.79 220.34C64.6221 220.187 64.495 219.994 64.42 219.78L63.12 218.15H66.37C69.0367 218.457 70.88 218.09 71.9 217.05C72.79 216.15 73.11 214.67 72.85 212.65V200.18H56.15V196.97H73.59V192.8H68.21V189.6H73.35V185.6H68.21V183.6H62.97V185.6H43.41V183.8H37.98V185.63H33.41V189.63H38V192.8H33.41V196.94H50.49V200.15H34.15V218.06H44.81L43.21 219.98C42.8862 220.356 42.49 220.663 42.045 220.883C41.6001 221.103 41.1155 221.231 40.62 221.26H33.62L33.6 225.08ZM66.69 214.33H56.28V211.13H67.74V213.13C67.74 213.99 67.2 214.31 66.69 214.31V214.33ZM57.28 213.33H66.69C66.69 213.33 66.74 213.33 66.74 213.1V212.1H57.28V213.33ZM50.28 214.33H39.5699V211.13H50.3L50.28 214.33ZM40.55 213.33H49.28V212.13H40.55V213.33ZM67.55 207.17H56.1V204.17H67.56L67.55 207.17ZM57.09 206.17H66.55V205.17H57.09V206.17ZM50.29 207.17H39.5699V204.17H50.3L50.29 207.17ZM40.56 206.17H49.29V205.17H40.56V206.17ZM62.79 192.8H43.41V189.6H62.77L62.79 192.8ZM44.41 191.8H61.77V190.6H44.41V191.8Z" fill="black"/>
<path d="M125.98 207.22L130.86 209.68C130.621 211.651 130.099 213.578 129.31 215.4C128.74 216.76 127.835 217.953 126.68 218.87C125.512 219.691 124.106 220.102 122.68 220.04C120.964 220.111 119.273 219.611 117.87 218.62C116.366 217.276 115.256 215.547 114.66 213.62C113.663 210.666 113.202 207.557 113.3 204.44C113.3 199.467 114.093 195.647 115.68 192.98C116.321 191.753 117.291 190.729 118.481 190.022C119.672 189.315 121.036 188.955 122.42 188.98C123.43 188.93 124.437 189.111 125.366 189.51C126.295 189.909 127.121 190.514 127.78 191.28C129.312 193.356 130.308 195.777 130.68 198.33L125.75 200.16C125.644 199.475 125.463 198.805 125.21 198.16C124.96 197.531 124.57 196.966 124.07 196.51C123.649 196.142 123.109 195.939 122.55 195.94C121.29 195.94 120.32 196.79 119.65 198.48C119.047 200.393 118.79 202.397 118.89 204.4C118.89 207.73 119.19 210.02 119.8 211.25C119.991 211.781 120.337 212.243 120.793 212.575C121.25 212.906 121.796 213.093 122.36 213.11C122.865 213.12 123.362 212.984 123.792 212.717C124.221 212.451 124.564 212.067 124.78 211.61C125.435 210.229 125.841 208.743 125.98 207.22Z" fill="white"/>
<path d="M122.69 220.54C120.864 220.614 119.065 220.076 117.58 219.01C115.998 217.607 114.829 215.799 114.2 213.78C113.189 210.766 112.719 207.597 112.81 204.42C112.81 199.42 113.64 195.42 115.26 192.7C115.949 191.401 116.983 190.317 118.248 189.567C119.513 188.818 120.96 188.431 122.43 188.45C123.511 188.4 124.59 188.597 125.584 189.025C126.578 189.453 127.463 190.101 128.17 190.92C129.753 193.063 130.784 195.564 131.17 198.2L131.25 198.62L125.41 200.8L125.3 200.22C125.2 199.571 125.032 198.934 124.8 198.32C124.577 197.766 124.236 197.268 123.8 196.86C123.474 196.564 123.05 196.4 122.61 196.4C121.61 196.4 120.77 197.13 120.17 198.62C119.599 200.477 119.355 202.419 119.45 204.36C119.45 207.6 119.74 209.83 120.31 210.99C120.462 211.435 120.745 211.824 121.121 212.105C121.498 212.387 121.95 212.549 122.42 212.57C122.838 212.58 123.25 212.468 123.605 212.248C123.96 212.028 124.243 211.709 124.42 211.33C125.035 210.016 125.417 208.605 125.55 207.16L125.64 206.46L131.41 209.4V209.75C131.156 211.769 130.617 213.742 129.81 215.61C129.208 217.046 128.251 218.305 127.03 219.27C125.764 220.162 124.237 220.608 122.69 220.54ZM122.41 189.45C121.112 189.424 119.832 189.762 118.717 190.427C117.601 191.091 116.695 192.056 116.1 193.21C114.57 195.79 113.79 199.56 113.79 204.42C113.702 207.474 114.149 210.52 115.11 213.42C115.684 215.261 116.74 216.915 118.17 218.21C119.484 219.134 121.066 219.598 122.67 219.53C123.984 219.587 125.281 219.211 126.36 218.46C127.447 217.592 128.296 216.464 128.83 215.18C129.557 213.516 130.048 211.759 130.29 209.96L126.35 207.96C126.182 209.292 125.793 210.586 125.2 211.79C124.945 212.327 124.541 212.779 124.035 213.091C123.529 213.404 122.944 213.563 122.35 213.55C121.693 213.533 121.057 213.321 120.522 212.939C119.988 212.558 119.579 212.025 119.35 211.41C118.7 210.09 118.35 207.78 118.35 204.34C118.246 202.272 118.517 200.202 119.15 198.23C119.9 196.34 121.03 195.38 122.51 195.38C123.187 195.377 123.842 195.623 124.35 196.07C124.908 196.573 125.345 197.195 125.63 197.89C125.828 198.389 125.982 198.904 126.09 199.43L130.09 197.96C129.715 195.638 128.789 193.44 127.39 191.55C126.776 190.842 126.008 190.285 125.144 189.92C124.281 189.556 123.345 189.395 122.41 189.45Z" fill="black"/>
<path d="M132.87 204.51C132.87 199.61 133.69 195.79 135.33 193.05C136.005 191.815 136.999 190.783 138.208 190.062C139.417 189.341 140.797 188.957 142.204 188.95C143.612 188.943 144.996 189.313 146.212 190.021C147.428 190.73 148.432 191.752 149.12 192.98C150.747 195.647 151.56 199.41 151.56 204.27C151.636 207.187 151.276 210.099 150.49 212.91C149.939 214.896 148.881 216.705 147.42 218.16C146.062 219.415 144.268 220.089 142.42 220.04C140.616 220.096 138.848 219.524 137.42 218.42C135.893 217.037 134.772 215.263 134.18 213.29C133.254 210.458 132.811 207.489 132.87 204.51ZM138.44 204.56C138.44 207.593 138.773 209.773 139.44 211.1C139.654 211.669 140.031 212.162 140.523 212.518C141.016 212.873 141.603 213.076 142.21 213.1C142.82 213.083 143.412 212.884 143.907 212.527C144.403 212.17 144.78 211.673 144.99 211.1C145.657 209.8 145.99 207.467 145.99 204.1C146.126 201.981 145.784 199.859 144.99 197.89C144.77 197.321 144.389 196.829 143.894 196.473C143.398 196.118 142.809 195.915 142.2 195.89C141.602 195.922 141.027 196.128 140.545 196.484C140.063 196.839 139.697 197.328 139.49 197.89C138.78 199.3 138.41 201.49 138.41 204.56H138.44Z" fill="white"/>
<path d="M142.41 220.54C140.476 220.608 138.579 219.996 137.05 218.81C135.45 217.37 134.275 215.52 133.65 213.46C132.721 210.553 132.292 207.51 132.38 204.46C132.38 199.46 133.23 195.54 134.91 192.74C135.63 191.43 136.686 190.337 137.971 189.573C139.255 188.809 140.72 188.402 142.214 188.395C143.709 188.388 145.178 188.781 146.469 189.532C147.761 190.284 148.828 191.367 149.56 192.67C151.22 195.42 152.07 199.31 152.07 204.22C152.145 207.188 151.778 210.15 150.98 213.01C150.399 215.079 149.294 216.964 147.77 218.48C146.321 219.841 144.397 220.581 142.41 220.54ZM142.19 189.45C140.866 189.43 139.563 189.781 138.429 190.463C137.294 191.145 136.373 192.131 135.77 193.31C134.18 195.95 133.38 199.72 133.38 204.51C133.297 207.428 133.706 210.338 134.59 213.12C135.153 215.008 136.221 216.706 137.68 218.03C139.032 219.07 140.705 219.604 142.41 219.54C144.138 219.6 145.82 218.974 147.09 217.8C148.481 216.412 149.493 214.69 150.03 212.8C150.781 210.035 151.118 207.174 151.03 204.31C151.03 199.58 150.23 195.87 148.66 193.31C148.047 192.127 147.115 191.138 145.97 190.456C144.825 189.774 143.513 189.426 142.18 189.45H142.19ZM142.19 213.59C141.491 213.571 140.812 213.346 140.241 212.942C139.67 212.538 139.231 211.973 138.98 211.32C138.26 209.91 137.91 207.7 137.91 204.56C137.91 201.42 138.26 199.15 138.99 197.74C139.236 197.096 139.666 196.539 140.226 196.137C140.786 195.735 141.451 195.507 142.14 195.48C142.837 195.497 143.514 195.717 144.088 196.113C144.662 196.509 145.107 197.064 145.37 197.71C146.1 199.1 146.45 201.21 146.45 204.15C146.45 207.62 146.11 209.98 145.45 211.36C145.195 212.011 144.751 212.571 144.176 212.969C143.6 213.366 142.919 213.582 142.22 213.59H142.19ZM142.19 196.48C141.686 196.514 141.204 196.695 140.802 197.001C140.4 197.307 140.097 197.724 139.93 198.2C139.28 199.45 138.93 201.59 138.93 204.56C138.93 207.53 139.25 209.62 139.93 210.87C140.105 211.353 140.418 211.774 140.83 212.08C141.243 212.386 141.737 212.563 142.25 212.59C142.762 212.575 143.257 212.407 143.673 212.108C144.088 211.808 144.404 211.391 144.58 210.91C145.2 209.69 145.51 207.41 145.51 204.15C145.633 202.1 145.291 200.049 144.51 198.15C144.324 197.675 144.004 197.264 143.588 196.967C143.173 196.67 142.68 196.501 142.17 196.48H142.19Z" fill="black"/>
<path d="M154.56 189.46H160.13V212.12H168.83V219.53H154.56V189.46Z" fill="white"/>
<path d="M169.33 220.03H154.06V188.96H160.63V211.62H169.33V220.03ZM155.06 219.03H168.33V212.62H159.63V189.96H155.06V219.03Z" fill="black"/>
<path d="M171.41 189.46H179.69C181.109 189.386 182.513 189.775 183.69 190.57C184.769 191.409 185.624 192.501 186.18 193.75C186.877 195.283 187.358 196.905 187.61 198.57C187.909 200.495 188.056 202.441 188.05 204.39C188.118 206.9 187.896 209.41 187.39 211.87C187.031 213.445 186.412 214.948 185.56 216.32C184.968 217.34 184.097 218.169 183.05 218.71C182.012 219.209 180.881 219.489 179.73 219.53H171.41V189.46ZM176.98 196.27V212.7H178.41C179.29 212.779 180.17 212.549 180.9 212.05C181.492 211.427 181.892 210.645 182.05 209.8C182.388 208.082 182.529 206.33 182.47 204.58C182.47 201.393 182.157 199.21 181.53 198.03C181.243 197.465 180.796 196.997 180.245 196.684C179.694 196.371 179.062 196.227 178.43 196.27H176.98Z" fill="white"/>
<path d="M179.72 220.03H170.94V188.96H179.72C181.23 188.894 182.721 189.318 183.97 190.17C185.12 191.051 186.031 192.206 186.62 193.53C187.346 195.118 187.841 196.802 188.09 198.53C188.398 200.481 188.548 202.454 188.54 204.43C188.604 206.98 188.379 209.53 187.87 212.03C187.496 213.658 186.854 215.213 185.97 216.63C185.328 217.733 184.38 218.626 183.24 219.2C182.139 219.723 180.939 220.006 179.72 220.03ZM171.94 219.03H179.72C180.802 218.987 181.865 218.721 182.84 218.25C183.798 217.743 184.595 216.977 185.14 216.04C185.955 214.715 186.549 213.266 186.9 211.75C187.388 209.328 187.603 206.86 187.54 204.39C187.547 202.468 187.4 200.549 187.1 198.65C186.862 197.03 186.398 195.451 185.72 193.96C185.198 192.783 184.394 191.753 183.38 190.96C182.298 190.243 181.016 189.893 179.72 189.96H171.94V219.03ZM178.41 213.2H176.51V195.8H178.41C179.132 195.753 179.852 195.917 180.482 196.272C181.112 196.628 181.626 197.158 181.96 197.8C182.63 199.06 182.96 201.28 182.96 204.58C183.025 206.371 182.878 208.164 182.52 209.92C182.344 210.869 181.888 211.743 181.21 212.43C180.397 213.011 179.405 213.284 178.41 213.2ZM177.54 212.2H178.41C179.169 212.274 179.931 212.087 180.57 211.67C181.087 211.112 181.434 210.418 181.57 209.67C181.89 207.993 182.025 206.286 181.97 204.58C181.97 201.49 181.67 199.37 181.09 198.27C180.84 197.786 180.451 197.388 179.974 197.127C179.497 196.865 178.952 196.751 178.41 196.8H177.52L177.54 212.2Z" fill="black"/>
<path d="M197.51 189.46H202.81L204.71 206.29L207.5 189.46H212.78L215.58 206.27L217.48 189.46H222.75L218.75 219.53H213.31L210.15 200.6L206.99 219.53H201.53L197.51 189.46Z" fill="white"/>
<path d="M219.21 220.03H212.88L210.15 203.64L207.41 220.03H201.08L196.93 188.96H203.24L204.8 202.67L207.07 188.96H213.19L215.47 202.66L217.03 188.96H223.31L219.21 220.03ZM213.73 219.03H218.34L222.18 189.96H217.93L215.67 209.88L212.35 189.96H207.93L204.62 209.91L202.41 189.96H198.14L202.01 219.03H206.62L210.19 197.56L213.73 219.03Z" fill="black"/>
<path d="M235.66 214.56H229.33L228.46 219.56H222.76L229.54 189.49H235.62L242.41 219.53H236.58L235.66 214.56ZM234.51 208.06L232.51 197.25L230.51 208.06H234.51Z" fill="white"/>
<path d="M243.03 220.03H236.15L235.24 215.03H229.75L228.87 220.03H222.14L229.14 188.96H236.02L243.03 220.03ZM237.03 219.03H241.83L235.27 189.96H229.99L223.41 219.03H228.06L228.93 214.03H236.1L237.03 219.03ZM235.16 208.56H229.99L232.56 194.48L235.16 208.56ZM231.16 207.56H233.92L232.54 200.03L231.16 207.56Z" fill="black"/>
<path d="M241.01 189.46H246.84L250.9 211.1L254.9 189.46H260.55L253.86 219.53H247.81L241.01 189.46Z" fill="white"/>
<path d="M254.27 220.03H247.41L240.41 188.96H247.27L250.92 208.37L254.51 188.96H261.21L254.27 220.03ZM248.22 219.03H253.47L259.94 189.96H255.32L250.9 213.8L246.41 189.96H241.63L248.22 219.03Z" fill="black"/>
<path d="M262.41 189.46H277.31V195.88H267.96V200.66H276.63V206.8H267.96V212.73H277.58V219.54H262.41V189.46Z" fill="white"/>
<path d="M278.08 220.03H261.87V188.96H277.81V196.38H268.46V200.16H277.13V207.29H268.46V212.22H278.08V220.03ZM262.87 219.03H277.08V213.22H267.46V206.29H276.13V201.16H267.46V195.38H276.81V189.96H262.87V219.03Z" fill="black"/>
<path d="M92.94 156.13L30.91 81.98H43.81V18.81H142.07V81.98H154.96L92.94 156.13Z" fill="#FAED26"/>
<path d="M92.93 156.91L29.84 81.47H43.31V18.31H142.56V81.47H156.03L92.93 156.91ZM31.98 82.47L92.93 155.35L153.93 82.47H141.56V19.31H44.31V82.47H31.98Z" fill="black"/>
<path d="M90.6 45.8C90.0133 50.92 87.16 53.6967 82.04 54.13C76.92 53.69 74.1433 50.9133 73.71 45.8C74.15 40.8267 76.9266 38.0467 82.04 37.46C87.16 38.0667 90.0133 40.8467 90.6 45.8ZM87.09 45.8C86.79 42.87 85.09 41.27 82.09 40.97C80.8139 40.9831 79.594 41.4964 78.6926 42.3997C77.7912 43.303 77.2804 44.524 77.27 45.8C77.41 49.01 79.02 50.7 82.09 50.8C85.11 50.72 86.79 49.03 87.09 45.8ZM114.5 55.45H109.68C109.533 49.45 107.047 46.3767 102.22 46.23C96.3733 46.23 93.5966 51.9333 93.89 63.34C93.3033 75.6467 96.08 81.8 102.22 81.8C106.46 81.94 108.873 78.8667 109.46 72.58C109.609 71.6374 109.683 70.6843 109.68 69.73H114.5C114.215 70.5759 114.139 71.4785 114.28 72.36C114.162 72.7913 114.088 73.2336 114.06 73.68C113.773 77.0133 112.97 79.5733 111.65 81.36C110.547 82.6711 109.169 83.7234 107.613 84.4424C106.058 85.1613 104.363 85.5292 102.65 85.52C92.85 85.6667 88.3167 78.2833 89.05 63.37C88.7633 49.19 93.2233 42.1 102.43 42.1C110.19 42.5667 114.213 47.0233 114.5 55.47V55.45Z" fill="white"/>
<path d="M102.41 86.02C100.706 86.1048 99.0034 85.8348 97.4094 85.2271C95.8154 84.6195 94.365 83.6874 93.15 82.49C89.67 78.88 88.15 72.44 88.58 63.34C88.4 54.67 90.03 48.51 93.43 45.04C94.6141 43.8795 96.0238 42.9745 97.572 42.381C99.1201 41.7876 100.774 41.5183 102.43 41.59C110.43 42.04 114.69 46.7 114.99 55.45V55.97H109.16V55.48C109.02 49.75 106.74 46.89 102.16 46.75C101.323 46.7218 100.489 46.8691 99.7123 47.1826C98.9355 47.496 98.233 47.9686 97.65 48.57C95.27 51.01 94.16 55.99 94.35 63.35C93.96 71.35 95.03 76.78 97.52 79.35C98.1185 79.9771 98.8435 80.4699 99.6469 80.7957C100.45 81.1216 101.314 81.273 102.18 81.24C106.18 81.37 108.36 78.51 108.92 72.48C109.072 71.5511 109.145 70.6112 109.14 69.67V69.17H115.14L114.92 69.83C114.651 70.5966 114.582 71.4193 114.72 72.22V72.43C114.605 72.8174 114.535 73.2167 114.51 73.62C114.21 77.1133 113.373 79.78 112 81.62C110.851 82.9861 109.416 84.0843 107.798 84.8374C106.179 85.5906 104.415 85.9806 102.63 85.98L102.41 86.02ZM102.41 42.59C100.886 42.5201 99.3643 42.7635 97.9384 43.3054C96.5124 43.8472 95.2128 44.6758 94.12 45.74C90.92 49.01 89.39 54.93 89.56 63.35C89.13 72.2 90.56 78.35 93.85 81.79C95.97 83.98 98.94 85.06 102.65 85.01C104.291 85.0099 105.913 84.6519 107.401 83.9611C108.89 83.2703 110.21 82.2632 111.27 81.01C112.5 79.36 113.27 76.86 113.57 73.61C113.583 73.1701 113.65 72.7335 113.77 72.31C113.667 71.6077 113.694 70.8924 113.85 70.2H110.17C110.156 71.0143 110.083 71.8265 109.95 72.63C109.34 79.17 106.75 82.44 102.2 82.26C101.203 82.2914 100.21 82.1126 99.2869 81.7353C98.3635 81.358 97.5298 80.7906 96.84 80.07C94.12 77.21 92.99 71.73 93.39 63.32C93.19 55.6 94.39 50.53 96.97 47.85C97.6521 47.1544 98.4705 46.6071 99.3738 46.2424C100.277 45.8776 101.246 45.7031 102.22 45.73C107.22 45.89 109.88 48.98 110.16 54.95H113.98C113.55 47.05 109.77 43 102.41 42.59ZM82.08 54.65C76.63 54.19 73.67 51.23 73.21 45.86C73.67 40.55 76.62 37.6 81.99 36.98H82.1C87.45 37.6 90.48 40.55 91.1 45.76V45.87C90.48 51.24 87.41 54.19 82.08 54.65ZM82.08 37.98C77.23 38.56 74.66 41.13 74.25 45.86C74.66 50.65 77.25 53.23 82.12 53.65C86.91 53.23 89.56 50.65 90.12 45.82C89.52 41.12 86.89 38.56 82.04 37.98H82.08ZM82.08 51.36C78.72 51.2 76.88 49.29 76.73 45.84C77.05 42.59 78.82 40.84 82 40.49C85.42 40.81 87.27 42.59 87.59 45.76V45.86C87.26 49.35 85.4099 51.2 82.0699 51.36H82.08ZM82 41.49C80.8567 41.5136 79.7681 41.9843 78.968 42.8013C78.1678 43.6183 77.7197 44.7164 77.72 45.86C77.86 48.73 79.28 50.23 82.08 50.36C84.82 50.23 86.31 48.74 86.59 45.82C86.3 43.17 84.8 41.8 81.99 41.49H82Z" fill="black"/>
</svg>
