<svg width="300" height="246" viewBox="0 0 300 246" fill="none" xmlns="http://www.w3.org/2000/svg">
<path d="M288 0H12C8.8174 0 5.76515 1.26427 3.51471 3.51471C1.26427 5.76515 0 8.8174 0 12V234C0 237.183 1.26427 240.235 3.51471 242.485C5.76515 244.736 8.8174 246 12 246H288C291.183 246 294.235 244.736 296.485 242.485C298.736 240.235 300 237.183 300 234V12C300 8.8174 298.736 5.76515 296.485 3.51471C294.235 1.26427 291.183 0 288 0Z" fill="#61707E"/>
<path d="M166.28 12.31H15C14.2494 12.31 13.5296 12.6082 12.9988 13.1389C12.4681 13.6696 12.17 14.3894 12.17 15.14V159.8C12.17 160.551 12.4678 161.272 12.9982 161.805C13.5287 162.337 14.2485 162.637 15 162.64H166.28C167.031 162.637 167.751 162.337 168.282 161.805C168.812 161.272 169.11 160.551 169.11 159.8V15.14C169.11 14.3894 168.812 13.6696 168.281 13.1389C167.75 12.6082 167.031 12.31 166.28 12.31Z" fill="#D3E2E2"/>
<path d="M181.01 12.31H285.01C285.761 12.31 286.482 12.6078 287.015 13.1383C287.547 13.6687 287.847 14.3885 287.85 15.14V162.64H181.01V12.31Z" fill="#F78C21"/>
<path d="M204.28 23.72H229.67V21.36H238.57V23.46H263.96V31.83H255.84V29.48H212.66V32.06H222.08V34.94H245.9V32.59H255.32V34.94H263.17V40.7H255.32V43.58H262.91V49.58H255.32V52.72H263.69V58.48H252.69L254.79 61.09C255.074 61.5785 255.503 61.9669 256.017 62.2015C256.531 62.4362 257.105 62.5055 257.66 62.4H263.95V67.9H251.41V72.35H229.15C228.085 72.4657 227.012 72.2187 226.104 71.6489C225.197 71.079 224.508 70.2197 224.15 69.21L221.54 64.21L218.66 66.83C217.09 67.88 214.66 68.32 211.33 68.14H204.26V62.38H208.45C209.347 62.4898 210.257 62.4066 211.12 62.1358C211.982 61.865 212.777 61.413 213.45 60.81L215.81 58.46H204.28V52.7H212.66V49.56H205.59V43.56H212.66V40.68H205.59V34.92H212.66V32.06H204.28V23.69V23.72ZM212.41 77.11L208.21 70.06H218.68L220.51 73.2C220.743 73.8194 221.183 74.3395 221.755 74.6728C222.327 75.0061 222.996 75.1323 223.65 75.03H260.81V80.53H217.89C215.1 80.51 213.27 79.37 212.41 77.11ZM222.09 43.61H245.91V40.73H222.08L222.09 43.61ZM245.91 52.77V49.63H222.34V52.77H245.91ZM246.69 65.33L241.69 58.53H227.84L222.34 63.24H229.93L232.29 66.12C232.633 66.5492 233.073 66.8908 233.573 67.1168C234.074 67.3428 234.621 67.4467 235.17 67.42H249.3C248.41 67.6 247.55 66.9 246.68 65.33H246.69Z" fill="white"/>
<path d="M261.31 81.06H217.89C214.89 81.06 212.89 79.82 211.95 77.38L207.33 69.59H218.96L220.96 72.98C221.145 73.5136 221.512 73.9651 221.997 74.2557C222.481 74.5463 223.052 74.6575 223.61 74.57H261.31V81.06ZM209.09 70.59L212.86 76.98C213.66 79.05 215.31 80.06 217.86 80.06H260.31V75.56H223.65C222.902 75.6613 222.141 75.5084 221.49 75.1258C220.839 74.7432 220.335 74.1531 220.06 73.45L218.41 70.54L209.09 70.59ZM228.63 72.97C226.44 72.97 224.78 71.81 223.72 69.52L221.41 65.06L219.01 67.24C217.3 68.39 214.74 68.86 211.32 68.68H203.78V61.92H208.47C209.304 62.0245 210.15 61.9492 210.952 61.6991C211.754 61.449 212.494 61.0299 213.12 60.47L214.59 59H203.78V52.24H212.16V50.1H205.09V43.1H212.16V41.22H205.09V34.46H212.16V32.58H203.78V23.21H229.17V20.86H239.07V22.96H264.41V32.33H255.78V34.47H263.63V41.23H255.78V43.11H263.41V50.11H255.82V52.25H264.19V59.06H253.74L255.19 60.86C255.424 61.276 255.782 61.6085 256.214 61.8111C256.646 62.0137 257.131 62.0762 257.6 61.99H264.41V68.49H251.89V72.94H229.15L228.63 72.97ZM221.83 63.79L224.62 69.07C225.62 71.18 227.06 72.07 229.11 71.95H250.89V67.5H263.41V63H257.63C256.991 63.1052 256.336 63.0154 255.749 62.7425C255.162 62.4696 254.671 62.0261 254.34 61.47L251.66 58.06H263.19V53.3H254.82V49.16H262.41V44.16H254.82V40.28H262.67V35.52H254.82V33.17H246.41V35.52H221.58V32.64H213.16V35.52H206.09V40.28H213.16V44.16H206.09V49.16H213.16V53.3H204.78V58.06H217.01L213.8 61.26C213.078 61.9103 212.225 62.3998 211.3 62.6963C210.374 62.9928 209.396 63.0895 208.43 62.98H204.78V67.74H211.35C214.56 67.9 216.93 67.5 218.35 66.52L221.35 63.77H220.92L227.58 58.06H241.89L247.05 65.12C247.48 65.9 248.11 66.79 248.77 66.95H249.23L249.33 67.95C249.099 68.0001 248.861 68.0001 248.63 67.95H235.16C234.536 67.9739 233.916 67.8516 233.348 67.5929C232.78 67.3341 232.281 66.9462 231.89 66.46L229.69 63.77L221.83 63.79ZM223.69 62.79H230.17L232.67 65.85C232.967 66.2204 233.347 66.515 233.78 66.7097C234.213 66.9044 234.686 66.9936 235.16 66.97H247.16C246.819 66.5597 246.517 66.1177 246.26 65.65L241.41 59.06H228.02L223.69 62.79ZM222.58 34.52H245.41V32.17H255.35V30.03H213.16V31.64H222.58V34.52ZM204.78 31.64H212.16V29.03H256.34V31.38H263.41V23.96H238.07V21.86H230.17V24.22H204.78V31.64ZM246.41 53.27H221.84V49.13H246.41V53.27ZM222.85 52.27H245.41V50.13H222.84L222.85 52.27ZM246.41 44.11H221.58V40.23H246.41V44.11ZM222.59 43.11H245.41V41.23H222.58L222.59 43.11Z" fill="black"/>
<path d="M287.83 175.06V230.86C287.83 231.611 287.532 232.33 287.001 232.861C286.47 233.392 285.751 233.69 285 233.69H104.41V175.06H287.83Z" fill="#F78C21"/>
<path d="M92.93 233.69H15C14.2494 233.69 13.5296 233.392 12.9988 232.861C12.4681 232.33 12.17 231.611 12.17 230.86V175.06H92.94L92.93 233.69Z" fill="#F78C21"/>
<path d="M208.73 106.61L206.41 94.06H216.09L217.66 102.44C217.83 103.66 218.36 104.19 219.23 104.01H220.02V111.6H214.26C210.753 112.107 208.91 110.443 208.73 106.61ZM211.09 153.72H206.64V146.91H207.64C208.64 147.09 209.29 146.56 209.47 145.34L212.61 132.78H220.72L217.06 148.78C216.913 152.593 214.923 154.24 211.09 153.72ZM208.21 125.19L206.9 114.19H216.06L217.11 120.99C217.11 122.39 217.63 122.99 218.68 122.82H219.68V130.15H213.41C209.943 130.857 208.21 129.203 208.21 125.19ZM227.84 96.4V93.78H236.47V96.4H243.8V103.47H236.47V106.61H242.47V136.18C242.817 140.18 241.073 141.927 237.24 141.42H236.46V144.29H243V146.39H244C244.52 146.56 244.78 146.22 244.78 145.34V93.78H265.46V147.7C265.98 152.06 264.147 153.98 259.96 153.46H254.2V145.87H255.2C255.89 146.04 256.25 145.69 256.25 144.87V136.76H253.37V147.96C253.72 152.15 251.97 154.06 248.13 153.72H242.9V151.36H236.36V153.72H227.46V151.36H220.13V144.3H227.46V141.42H221.18V106.61H227.72V103.47H221.18V96.4H227.84ZM230.72 120.22H233.86V113.94H230.72V120.22ZM233.86 132.52V127.81H230.72V134.06H232.03C233.24 134.26 233.86 133.74 233.86 132.52ZM253.49 111.32H256.41V101.32H253.53V111.32H253.49ZM253.49 128.32H256.41V118.9H253.53V128.32H253.49Z" fill="white"/>
<path d="M212.41 154.31C211.965 154.308 211.521 154.278 211.08 154.22H206.17V146.41H207.72C208.012 146.493 208.325 146.457 208.59 146.31C208.864 146.046 209.028 145.689 209.05 145.31L212.3 132.31H220.83V106.11H227.37V103.97H220.83V96.4H221.32V95.9H227.32V93.28H236.95V95.9H244.28V103.97H236.95V106.11H242.95V136.18C243.14 138.33 242.72 139.94 241.7 140.91C240.68 141.88 239.18 142.19 237.15 141.91H236.94V143.79H243.48V145.89H244.19C244.19 145.89 244.31 145.82 244.31 145.32V93.28H265.99V147.7C266.27 150.01 265.87 151.76 264.8 152.82C263.73 153.88 262.13 154.23 259.93 153.95H253.73V151.06C253.549 151.811 253.173 152.501 252.64 153.06C252.03 153.579 251.313 153.956 250.54 154.165C249.768 154.375 248.958 154.41 248.17 154.27H242.48V151.86H236.94V154.22H227.04V151.86H219.71V143.8H227.04V141.92H220.76V134.92L217.55 148.92C217.578 149.735 217.433 150.547 217.125 151.302C216.816 152.057 216.351 152.738 215.76 153.3C214.794 154.015 213.61 154.372 212.41 154.31ZM207.17 153.22H211.17C211.852 153.379 212.56 153.394 213.249 153.265C213.937 153.136 214.591 152.865 215.17 152.47C215.658 151.979 216.039 151.393 216.289 150.747C216.538 150.102 216.651 149.411 216.62 148.72L220.15 133.28H213.06L210.06 145.46C210.04 145.779 209.953 146.09 209.807 146.374C209.661 146.658 209.458 146.908 209.21 147.11C208.985 147.263 208.732 147.368 208.466 147.419C208.199 147.471 207.925 147.468 207.66 147.41H207.2L207.17 153.22ZM243.55 153.22H248.28C248.93 153.348 249.599 153.332 250.242 153.173C250.885 153.014 251.485 152.716 252 152.3C252.84 151.47 253.19 150.02 253 148V136.21H256.88V144.82C256.906 145.071 256.873 145.324 256.785 145.56C256.696 145.796 256.554 146.008 256.37 146.18C256.212 146.291 256.031 146.365 255.841 146.398C255.651 146.431 255.456 146.421 255.27 146.37H254.78V152.96H260.04C261.98 153.19 263.34 152.96 264.14 152.11C264.94 151.26 265.29 149.81 265.04 147.76V94.28H245.35V145.34C245.382 145.599 245.354 145.862 245.267 146.109C245.18 146.355 245.037 146.578 244.85 146.76C244.726 146.845 244.584 146.901 244.435 146.923C244.286 146.946 244.134 146.935 243.99 146.89H242.52V144.79H235.98V140.92H237.26C239.04 141.16 240.26 140.92 241.05 140.19C241.84 139.46 242.16 138.1 242.05 136.19V107.11H236.05V102.97H243.38V96.9H236.05V94.28H228.42V96.9H221.88V102.97H228.42V107.11H221.88V140.92H228.16V144.8H220.83V150.86H228.16V153.22H236.06V150.86H243.6L243.55 153.22ZM254.02 145.37H255.41C255.59 145.37 255.68 145.37 255.71 145.37C255.74 145.37 255.84 145.17 255.84 144.8V137.19H253.96L254.02 145.37ZM232.41 134.62C232.244 134.634 232.076 134.634 231.91 134.62H230.18V127.34H234.41V132.55C234.435 132.859 234.391 133.17 234.282 133.46C234.174 133.751 234.002 134.013 233.78 134.23C233.392 134.535 232.9 134.675 232.41 134.62ZM231.18 133.62H231.99C232.158 133.662 232.333 133.671 232.505 133.645C232.677 133.62 232.842 133.56 232.99 133.47C233.097 133.344 233.176 133.197 233.224 133.039C233.273 132.881 233.288 132.714 233.27 132.55V128.34H231.13L231.18 133.62ZM211.95 130.85C211 130.888 210.068 130.587 209.32 130C208.23 129.11 207.67 127.51 207.67 125.25L206.3 113.73H216.45L217.56 120.96C217.56 121.65 217.68 122.09 217.9 122.27C217.95 122.27 218.11 122.45 218.55 122.37H220.18V130.7H213.41C212.942 130.789 212.466 130.83 211.99 130.82L211.95 130.85ZM207.42 114.73L208.67 125.22C208.67 127.22 209.1 128.53 209.95 129.22C210.438 129.542 210.992 129.752 211.572 129.833C212.151 129.914 212.742 129.865 213.3 129.69H219.18V123.36H218.64C218.398 123.415 218.148 123.414 217.907 123.357C217.666 123.299 217.441 123.188 217.25 123.03C216.996 122.767 216.804 122.452 216.686 122.106C216.569 121.76 216.529 121.393 216.57 121.03L215.57 114.73H207.42ZM256.83 128.86H252.95V118.41H256.83V128.86ZM253.95 127.86H255.83V119.44H253.95V127.86ZM234.41 120.72H230.27V113.44H234.41V120.72ZM231.27 119.72H233.41V114.44H231.27V119.72ZM213.08 112.18C211.993 112.211 210.931 111.857 210.08 111.18C208.99 110.28 208.38 108.75 208.28 106.63L205.82 93.5H216.53L218.17 102.29C218.175 102.702 218.34 103.097 218.63 103.39C218.63 103.39 218.82 103.52 219.15 103.46H220.54V112.06H214.28C213.867 112.131 213.449 112.171 213.03 112.18H213.08ZM207.08 94.54L209.33 106.54C209.41 108.39 209.9 109.69 210.77 110.41C211.273 110.755 211.843 110.989 212.443 111.097C213.042 111.206 213.658 111.186 214.25 111.04H219.59V104.45H219.3C219.094 104.495 218.881 104.497 218.675 104.456C218.468 104.415 218.272 104.331 218.1 104.21C217.842 103.993 217.632 103.724 217.484 103.421C217.336 103.118 217.253 102.787 217.24 102.45L215.75 94.5L207.08 94.54ZM256.97 111.82H253.09V100.82H256.97V111.82ZM254.09 110.82H255.97V101.82H254.09V110.82Z" fill="black"/>
<path d="M39.15 188.3V183.89H45.21V188.3H46.68V193.44H45.21V195.06H46.3199V200.39H45.21V225.39H38.97V200.39H38.24L37.5 220.06C37.5 222.513 36.34 223.737 34.02 223.73H31.41V219.33C31.89 219.45 32.14 219.21 32.14 218.59L32.87 195.09H38.93V193.63H31.59V188.3H39.15ZM47.41 208.68H73.29V215.47C73.41 218.16 72.29 219.39 69.99 219.14L69.62 221.14H73.29V224.82H46.49V221.16H50.34L49.79 219.16H47.41V208.68ZM47.22 207.21V202.8H73.29V207.21H47.22ZM54.02 188.85H47.77V184.26H60.2599L59.52 195.46C59.52 200.127 57.38 202.207 53.1 201.7H47.96V197.11H52.18C52.79 197.23 53.18 196.87 53.28 196.01L53.47 195.46H50.53C48.69 195.34 47.77 194.17 47.77 191.97V190.32H51.6299C51.4999 190.93 51.75 191.18 52.36 191.05H53.83L54.02 188.85ZM53.28 213.27V214.74H66.28C66.76 214.86 67.0099 214.62 67.0099 214V213.27H53.28ZM63.56 219.14H56.56V221.14H63.56V219.14ZM61.73 197.14L60.81 184.29H73.29V189.43H67.61L67.98 191.27H68.9C69.51 191.39 69.81 191.15 69.81 190.53H73.49L73.3 192.74C73.18 194.82 72.3 195.67 70.55 195.31H68.16L68.35 196.04C68.22 196.9 68.6499 197.27 69.6299 197.14H73.12V201.55H66.5099C63.41 201.76 61.86 200.3 61.74 197.11L61.73 197.14Z" fill="white"/>
<path d="M45.71 225.89H38.47V207.55L38 220.06C38 222.77 36.62 224.21 34 224.21H30.94V218.67L31.56 218.82H31.65C31.6566 218.73 31.6566 218.64 31.65 218.55L32.4 194.55H38.4V194.09H31.06V187.76H38.58V183.35H45.64V187.76H47.11V193.9H45.71V194.55H46.8199V200.88H45.71V225.89ZM39.47 224.89H44.71V199.89H45.8199V195.56H44.71V192.91H46.18V188.77H44.71V184.36H39.65V188.77H32.1299V193.1H39.47V195.56H33.41L32.69 218.56C32.7071 218.755 32.679 218.951 32.6078 219.133C32.5367 219.315 32.4245 219.478 32.28 219.61C32.1855 219.685 32.0766 219.739 31.96 219.77V223.18H34.02C36.02 223.18 37.02 222.18 37.02 220.01L37.78 199.87H39.49L39.47 224.89ZM73.8 225.34H46V220.66H49.7L49.42 219.66H46.92V208.18H73.8V215.47C73.8889 216.08 73.8456 216.702 73.6731 217.294C73.5006 217.886 73.2028 218.433 72.8 218.9C72.4766 219.184 72.0986 219.398 71.6894 219.531C71.2802 219.663 70.8482 219.71 70.42 219.67L70.24 220.67H73.81L73.8 225.34ZM47 224.34H72.8V221.66H69.03L69.59 218.6L70.05 218.65C70.4062 218.721 70.7733 218.714 71.1268 218.631C71.4804 218.549 71.8121 218.391 72.1 218.17C72.3999 217.798 72.6174 217.367 72.738 216.905C72.8587 216.443 72.8799 215.961 72.8 215.49V209.18H47.92V218.64H50.18L51.0099 221.64H47.0099L47 224.34ZM64.0699 221.66H56.0699V218.66H64.0699V221.66ZM57.0699 220.66H63.0699V219.66H57.0699V220.66ZM52.79 215.27V212.8H67.56V214.03C67.5795 214.228 67.5526 214.428 67.4814 214.613C67.4102 214.799 67.2967 214.966 67.15 215.1C66.9732 215.219 66.763 215.279 66.55 215.27H52.79ZM53.7599 214.27H66.5C66.5061 214.18 66.5061 214.09 66.5 214V213.77H53.79L53.7599 214.27ZM73.7599 207.74H46.73V202.33H73.8L73.7599 207.74ZM47.69 206.74H72.7599V203.33H47.73L47.69 206.74ZM54.22 202.3C53.8156 202.3 53.4116 202.277 53.0099 202.23H47.43V196.64H52.15C52.42 196.69 52.48 196.64 52.5 196.64C52.52 196.64 52.68 196.47 52.75 196H50.5C48.99 195.9 47.24 195.13 47.24 192V189.85H52.24L52.12 190.45C52.1085 190.459 52.099 190.47 52.0922 190.482C52.0853 190.495 52.0812 190.509 52.0802 190.523C52.0792 190.537 52.0813 190.552 52.0863 190.565C52.0913 190.578 52.0991 190.591 52.1093 190.601C52.1194 190.611 52.1316 190.619 52.145 190.624C52.1584 190.629 52.1728 190.631 52.1871 190.63C52.2014 190.629 52.2153 190.625 52.2278 190.618C52.2404 190.611 52.2514 190.601 52.2599 190.59H53.41L53.5099 189.38H47.31V183.76H73.83V189.9H68.25L68.42 190.74H68.93C69.23 190.79 69.3 190.74 69.3 190.74C69.3 190.74 69.3 190.69 69.3 190.49V189.99H74.02L73.79 192.74C73.807 193.236 73.7176 193.73 73.5279 194.189C73.3382 194.648 73.0525 195.061 72.69 195.4C72.3728 195.619 72.0113 195.766 71.6312 195.83C71.251 195.894 70.8614 195.873 70.49 195.77H68.79L68.84 195.97V196.07C68.7996 196.224 68.8174 196.388 68.89 196.53C68.96 196.6 69.1699 196.66 69.5699 196.61H73.62V202.06H66.5099C65.845 202.159 65.1668 202.122 64.5168 201.95C63.8669 201.778 63.2588 201.475 62.73 201.06C62.2325 200.547 61.844 199.939 61.588 199.272C61.3319 198.606 61.2135 197.894 61.24 197.18L60.55 187.59L60.03 195.53C60.03 198.05 59.39 199.91 58.14 201.04C57.0434 201.916 55.6609 202.354 54.2599 202.27L54.22 202.3ZM48.43 201.23H53.0699C55.0699 201.45 56.48 201.13 57.43 200.28C58.38 199.43 58.99 197.74 58.99 195.49L59.69 184.79H48.28V188.38H54.5699L54.3 191.58H52.41C52.2372 191.634 52.0529 191.641 51.8768 191.598C51.7006 191.556 51.5393 191.467 51.41 191.34C51.2777 191.208 51.1932 191.035 51.17 190.85H48.3199V192C48.3199 194.54 49.63 194.92 50.61 195H54.21L53.81 196.21C53.7907 196.451 53.7232 196.686 53.6116 196.901C53.4999 197.116 53.3464 197.306 53.16 197.46C53.0142 197.556 52.8504 197.622 52.6785 197.653C52.5066 197.684 52.3302 197.679 52.16 197.64H48.54L48.43 201.23ZM61.41 184.76L62.29 197.09C62.2575 197.671 62.3437 198.253 62.5431 198.799C62.7425 199.346 63.051 199.846 63.45 200.27C63.8839 200.597 64.38 200.832 64.9078 200.961C65.4356 201.09 65.9841 201.11 66.52 201.02H72.67V197.61H69.67C69.4162 197.666 69.1528 197.662 68.9009 197.598C68.6491 197.533 68.4158 197.411 68.22 197.24C68.0744 197.08 67.9679 196.888 67.9089 196.68C67.8499 196.472 67.84 196.253 67.8799 196.04L67.56 194.78H70.69C70.9281 194.857 71.18 194.882 71.4285 194.852C71.677 194.823 71.9163 194.74 72.1299 194.61C72.3761 194.353 72.5663 194.048 72.6885 193.714C72.8107 193.381 72.8623 193.025 72.84 192.67L72.98 190.99H70.29C70.2313 191.196 70.113 191.381 69.95 191.52C69.7915 191.634 69.6096 191.711 69.4176 191.746C69.2256 191.78 69.0282 191.771 68.84 191.72H67.61L67.04 188.88H72.84V184.76H61.41Z" fill="black"/>
<path d="M125.98 207.23L130.86 209.69C130.619 211.661 130.097 213.587 129.31 215.41C128.737 216.768 127.833 217.961 126.68 218.88C125.509 219.693 124.104 220.1 122.68 220.04C120.963 220.115 119.271 219.615 117.87 218.62C116.366 217.275 115.257 215.547 114.66 213.62C113.663 210.666 113.202 207.557 113.3 204.44C113.3 199.46 114.093 195.637 115.68 192.97C116.323 191.744 117.293 190.721 118.483 190.015C119.673 189.309 121.036 188.947 122.42 188.97C123.429 188.922 124.436 189.105 125.365 189.503C126.293 189.901 127.119 190.506 127.78 191.27C129.313 193.349 130.31 195.774 130.68 198.33L125.75 200.15C125.644 199.466 125.463 198.795 125.21 198.15C124.96 197.524 124.57 196.963 124.07 196.51C123.649 196.142 123.109 195.939 122.55 195.94C121.29 195.94 120.32 196.78 119.65 198.48C119.046 200.392 118.788 202.397 118.89 204.4C118.89 207.733 119.193 210.017 119.8 211.25C120.003 211.779 120.36 212.234 120.826 212.557C121.291 212.88 121.843 213.055 122.41 213.06C122.915 213.07 123.412 212.934 123.841 212.667C124.271 212.401 124.614 212.017 124.83 211.56C125.464 210.195 125.853 208.73 125.98 207.23Z" fill="white"/>
<path d="M122.69 220.54C120.865 220.613 119.068 220.078 117.58 219.02C116 217.615 114.832 215.807 114.2 213.79C113.189 210.776 112.719 207.607 112.81 204.43C112.81 199.43 113.64 195.43 115.26 192.7C115.949 191.401 116.983 190.317 118.248 189.567C119.513 188.818 120.96 188.431 122.43 188.45C123.512 188.402 124.591 188.601 125.585 189.03C126.579 189.46 127.463 190.109 128.17 190.93C129.755 193.072 130.786 195.573 131.17 198.21L131.25 198.63L125.41 200.81L125.3 200.22C125.2 199.571 125.032 198.934 124.8 198.32C124.577 197.766 124.236 197.268 123.8 196.86C123.474 196.566 123.049 196.405 122.61 196.41C121.61 196.41 120.77 197.13 120.17 198.63C119.597 200.487 119.353 202.429 119.45 204.37C119.45 207.6 119.74 209.84 120.31 211C120.463 211.444 120.746 211.831 121.122 212.111C121.499 212.391 121.951 212.551 122.42 212.57C122.838 212.583 123.251 212.472 123.607 212.251C123.962 212.031 124.245 211.71 124.42 211.33C125.036 210.016 125.419 208.605 125.55 207.16L125.64 206.46L131.48 209.4V209.76C131.223 211.778 130.684 213.751 129.88 215.62C129.275 217.054 128.319 218.313 127.1 219.28C125.813 220.183 124.26 220.627 122.69 220.54ZM122.41 189.45C121.111 189.423 119.83 189.763 118.714 190.429C117.598 191.096 116.692 192.063 116.1 193.22C114.57 195.8 113.79 199.57 113.79 204.43C113.7 207.484 114.147 210.53 115.11 213.43C115.681 215.273 116.738 216.927 118.17 218.22C119.481 219.148 121.065 219.613 122.67 219.54C123.984 219.597 125.281 219.221 126.36 218.47C127.449 217.608 128.299 216.483 128.83 215.2C129.556 213.532 130.047 211.772 130.29 209.97L126.35 207.97C126.182 209.299 125.794 210.59 125.2 211.79C124.946 212.328 124.542 212.781 124.036 213.093C123.53 213.405 122.944 213.564 122.35 213.55C121.695 213.533 121.06 213.321 120.526 212.942C119.991 212.563 119.582 212.033 119.35 211.42C118.7 210.1 118.35 207.79 118.35 204.35C118.245 202.282 118.516 200.211 119.15 198.24C119.9 196.35 121.03 195.39 122.51 195.39C123.205 195.367 123.883 195.606 124.41 196.06C124.971 196.56 125.409 197.183 125.69 197.88C125.891 198.378 126.045 198.893 126.15 199.42L130.15 197.95C129.777 195.625 128.851 193.423 127.45 191.53C126.826 190.819 126.047 190.262 125.173 189.901C124.299 189.54 123.353 189.386 122.41 189.45Z" fill="black"/>
<path d="M132.87 204.52C132.87 199.607 133.69 195.787 135.33 193.06C136.004 191.824 136.997 190.792 138.206 190.07C139.414 189.348 140.794 188.963 142.201 188.955C143.609 188.947 144.993 189.316 146.21 190.024C147.427 190.731 148.431 191.752 149.12 192.98C150.747 195.647 151.56 199.41 151.56 204.27C151.637 207.191 151.276 210.106 150.49 212.92C149.939 214.906 148.881 216.715 147.42 218.17C146.061 219.422 144.267 220.093 142.42 220.04C140.616 220.096 138.848 219.524 137.42 218.42C135.895 217.039 134.775 215.269 134.18 213.3C133.254 210.467 132.811 207.499 132.87 204.52ZM138.44 204.52C138.44 207.56 138.773 209.74 139.44 211.06C139.641 211.635 140.017 212.134 140.514 212.487C141.011 212.839 141.605 213.029 142.215 213.029C142.825 213.029 143.419 212.839 143.916 212.487C144.413 212.134 144.789 211.635 144.99 211.06C145.657 209.727 145.99 207.393 145.99 204.06C146.127 201.944 145.785 199.825 144.99 197.86C144.773 197.29 144.392 196.796 143.896 196.44C143.4 196.085 142.81 195.883 142.2 195.86C141.6 195.884 141.021 196.087 140.538 196.444C140.055 196.8 139.69 197.294 139.49 197.86C138.78 199.3 138.41 201.5 138.41 204.56L138.44 204.52Z" fill="white"/>
<path d="M142.41 220.54C140.476 220.608 138.579 219.996 137.05 218.81C135.446 217.374 134.269 215.522 133.65 213.46C132.726 210.573 132.297 207.55 132.38 204.52C132.38 199.52 133.23 195.6 134.91 192.8C135.629 191.49 136.685 190.396 137.968 189.631C139.252 188.866 140.717 188.458 142.211 188.45C143.706 188.442 145.175 188.834 146.467 189.584C147.759 190.335 148.827 191.418 149.56 192.72C151.22 195.48 152.07 199.36 152.07 204.27C152.144 207.241 151.777 210.207 150.98 213.07C150.402 215.138 149.296 217.019 147.77 218.53C146.316 219.877 144.391 220.598 142.41 220.54ZM142.19 189.45C140.867 189.432 139.565 189.784 138.43 190.466C137.296 191.148 136.375 192.133 135.77 193.31C134.18 195.96 133.38 199.73 133.38 204.52C133.299 207.438 133.708 210.348 134.59 213.13C135.15 215.016 136.219 216.711 137.68 218.03C139.03 219.074 140.705 219.609 142.41 219.54C144.138 219.6 145.82 218.974 147.09 217.8C148.482 216.413 149.495 214.691 150.03 212.8C150.782 210.032 151.119 207.167 151.03 204.3C151.03 199.58 150.23 195.87 148.66 193.3C148.046 192.118 147.113 191.132 145.968 190.452C144.824 189.772 143.511 189.425 142.18 189.45H142.19ZM142.19 213.59C141.492 213.571 140.815 213.346 140.244 212.944C139.673 212.542 139.233 211.981 138.98 211.33C138.26 209.92 137.91 207.71 137.91 204.56C137.91 201.41 138.26 199.16 138.99 197.75C139.236 197.106 139.666 196.549 140.226 196.147C140.786 195.746 141.451 195.517 142.14 195.49C142.836 195.507 143.511 195.726 144.085 196.12C144.658 196.514 145.105 197.067 145.37 197.71C146.1 199.11 146.45 201.21 146.45 204.15C146.45 207.62 146.11 209.99 145.45 211.37C145.192 212.019 144.748 212.576 144.173 212.971C143.597 213.366 142.918 213.582 142.22 213.59H142.19ZM142.19 196.49C141.686 196.523 141.203 196.704 140.801 197.009C140.399 197.315 140.096 197.733 139.93 198.21C139.28 199.45 138.93 201.59 138.93 204.56C138.93 207.53 139.25 209.63 139.93 210.88C140.105 211.362 140.419 211.782 140.831 212.086C141.244 212.39 141.738 212.566 142.25 212.59C142.76 212.575 143.254 212.407 143.669 212.11C144.084 211.813 144.401 211.398 144.58 210.92C145.2 209.7 145.51 207.42 145.51 204.15C145.634 202.1 145.292 200.049 144.51 198.15C144.325 197.675 144.004 197.265 143.588 196.97C143.173 196.675 142.68 196.508 142.17 196.49H142.19Z" fill="black"/>
<path d="M154.56 189.47H160.13V212.13H168.83V219.53H154.56V189.47Z" fill="white"/>
<path d="M169.33 220.06H154.06V188.97H160.63V211.63H169.33V220.06ZM155.06 219.06H168.33V212.66H159.63V189.97H155.06V219.06Z" fill="black"/>
<path d="M171.41 189.47H179.69C181.107 189.398 182.509 189.784 183.69 190.57C184.769 191.409 185.624 192.501 186.18 193.75C186.877 195.283 187.358 196.905 187.61 198.57C187.909 200.499 188.056 202.448 188.05 204.4C188.118 206.907 187.896 209.414 187.39 211.87C187.033 213.445 186.414 214.949 185.56 216.32C184.972 217.342 184.1 218.172 183.05 218.71C182.013 219.214 180.882 219.494 179.73 219.53H171.41V189.47ZM176.98 196.28V212.7H178.41C179.289 212.782 180.17 212.556 180.9 212.06C181.492 211.433 181.892 210.648 182.05 209.8C182.389 208.082 182.53 206.33 182.47 204.58C182.47 201.393 182.16 199.213 181.54 198.04C181.252 197.473 180.803 197.003 180.25 196.688C179.698 196.374 179.065 196.228 178.43 196.27H177.01L176.98 196.28Z" fill="white"/>
<path d="M179.72 220.06H170.94V188.97H179.72C181.229 188.901 182.72 189.322 183.97 190.17C185.118 191.057 186.029 192.215 186.62 193.54C187.343 195.112 187.838 196.779 188.09 198.49C188.398 200.445 188.548 202.421 188.54 204.4C188.604 206.947 188.379 209.493 187.87 211.99C187.497 213.618 186.855 215.173 185.97 216.59C185.329 217.696 184.38 218.592 183.24 219.17C182.142 219.71 180.943 220.013 179.72 220.06ZM171.94 219.06H179.72C180.803 219.022 181.866 218.756 182.84 218.28C183.8 217.78 184.598 217.017 185.14 216.08C185.955 214.751 186.549 213.299 186.9 211.78C187.388 209.362 187.603 206.896 187.54 204.43C187.547 202.505 187.399 200.582 187.1 198.68C186.864 197.063 186.399 195.487 185.72 194C185.201 192.821 184.397 191.79 183.38 191C182.298 190.283 181.016 189.933 179.72 190H171.94V219.06ZM178.38 213.23H176.51V195.78H178.41C179.132 195.734 179.851 195.899 180.481 196.254C181.111 196.609 181.625 197.139 181.96 197.78C182.63 199.05 182.96 201.26 182.96 204.56C183.025 206.354 182.877 208.15 182.52 209.91C182.347 210.857 181.89 211.729 181.21 212.41C180.402 213.002 179.408 213.282 178.41 213.2L178.38 213.23ZM177.51 212.23H178.41C179.168 212.307 179.93 212.123 180.57 211.71C181.087 211.152 181.434 210.458 181.57 209.71C181.891 208.033 182.025 206.326 181.97 204.62C181.97 201.53 181.68 199.41 181.09 198.31C180.845 197.824 180.462 197.422 179.988 197.155C179.515 196.888 178.972 196.768 178.43 196.81H177.54L177.51 212.23Z" fill="black"/>
<path d="M197.51 189.47H202.81L204.71 206.3L207.5 189.47H212.78L215.58 206.28L217.48 189.47H222.75L218.75 219.53H213.31L210.15 200.6L206.99 219.53H201.53L197.51 189.47Z" fill="white"/>
<path d="M219.21 220.06H212.89L210.15 203.67L207.41 220.06H201.08L196.93 189H203.24L204.8 202.71L207.07 189H213.19L215.47 202.7L217.03 189H223.31L219.21 220.06ZM213.73 219.06H218.34L222.18 190H217.93L215.67 209.92L212.41 189.97H207.98L204.67 209.97L202.41 189.97H198.14L201.97 219.06H206.57L210.14 197.59L213.73 219.06Z" fill="black"/>
<path d="M235.66 214.57H229.33L228.46 219.57H222.76L229.54 189.51H235.62L242.41 219.53H236.58L235.66 214.57ZM234.51 208.06L232.51 197.25L230.51 208.06H234.51Z" fill="white"/>
<path d="M243.03 220.06H236.15L235.24 215.06H229.75L228.87 220.06H222.14L229.14 189H236.02L243.03 220.06ZM237.03 219.06H241.83L235.27 190H229.99L223.41 219.06H228.06L228.93 214.06H236.1L237.03 219.06ZM235.16 208.6H229.99L232.56 194.52L235.16 208.6ZM231.16 207.6H233.92L232.52 200.06L231.16 207.6Z" fill="black"/>
<path d="M241.01 189.47H246.84L250.9 211.06L254.9 189.43H260.55L253.86 219.49H247.81L241.01 189.47Z" fill="white"/>
<path d="M254.27 220.06H247.41L240.41 189H247.27L250.92 208.41L254.51 189H261.21L254.27 220.06ZM248.22 219.06H253.47L259.94 190H255.32L250.9 213.86L246.41 189.97H241.63L248.22 219.06Z" fill="black"/>
<path d="M262.41 189.47H277.31V195.89H267.96V200.66H276.63V206.8H267.96V212.72H277.58V219.53H262.41V189.47Z" fill="white"/>
<path d="M278.08 220.06H261.87V188.97H277.81V196.39H268.46V200.16H277.13V207.3H268.46V212.22H278.08V220.06ZM262.87 219.06H277.08V213.25H267.46V206.33H276.13V201.16H267.46V195.39H276.81V189.97H262.87V219.06Z" fill="black"/>
<path d="M92.94 156.13L30.91 81.98H43.81V18.81H142.07V81.98H154.96L92.94 156.13Z" fill="#F78C21"/>
<path d="M92.93 156.91L29.84 81.48H43.31V18.31H142.56V81.48H156.03L92.93 156.91ZM31.98 82.48L92.93 155.35L153.93 82.48H141.56V19.31H44.31V82.48H31.98Z" fill="black"/>
<path d="M90.6 45.82C90.0133 50.94 87.16 53.7167 82.04 54.15C76.92 53.7233 74.1433 50.9467 73.71 45.82C74.15 40.8533 76.9266 38.0767 82.04 37.49C87.16 38.07 90.0133 40.8467 90.6 45.82ZM87.09 45.82C86.79 42.9 85.1233 41.2933 82.09 41C80.8149 41.0105 79.595 41.5216 78.6933 42.4233C77.7916 43.325 77.2804 44.5449 77.27 45.82C77.41 49.04 79.0166 50.7067 82.09 50.82C85.13 50.7067 86.7966 49.04 87.09 45.82ZM114.5 55.47H109.68C109.533 49.47 107.047 46.4 102.22 46.26C96.3733 46.26 93.5966 51.9633 93.89 63.37C93.3033 75.65 96.08 81.79 102.22 81.79C106.46 81.9367 108.873 78.8667 109.46 72.58C109.608 71.6373 109.682 70.6843 109.68 69.73H114.5C114.214 70.5757 114.138 71.4785 114.28 72.36C114.161 72.7878 114.087 73.2268 114.06 73.67C113.773 77.0433 112.97 79.6033 111.65 81.35C110.546 82.6608 109.168 83.7136 107.613 84.4341C106.058 85.1545 104.364 85.5252 102.65 85.52C92.85 85.66 88.3167 78.2767 89.05 63.37C88.77 49.1633 93.2233 42.06 102.41 42.06C110.183 42.52 114.213 46.99 114.5 55.47Z" fill="white"/>
<path d="M102.41 86.06C100.706 86.1448 99.0034 85.8748 97.4094 85.2671C95.8154 84.6595 94.365 83.7274 93.15 82.53C89.67 78.93 88.15 72.53 88.58 63.38C88.4 54.72 90.03 48.55 93.43 45.08C94.6141 43.9195 96.0238 43.0145 97.572 42.421C99.1201 41.8276 100.774 41.5583 102.43 41.63C110.43 42.09 114.69 46.75 114.99 55.49V56.01H109.16V55.52C109.02 49.79 106.74 46.94 102.16 46.8C101.324 46.7705 100.49 46.9162 99.7135 47.228C98.9368 47.5397 98.2339 48.0104 97.65 48.61C95.27 51.06 94.16 56.03 94.35 63.39C93.96 71.39 95.03 76.83 97.52 79.39C98.1185 80.0171 98.8435 80.5099 99.6469 80.8357C100.45 81.1616 101.314 81.313 102.18 81.28C106.18 81.41 108.36 78.55 108.92 72.52C109.072 71.5945 109.145 70.6579 109.14 69.72V69.22H115.14L114.92 69.87C114.651 70.6401 114.582 71.466 114.72 72.27V72.47C114.606 72.8576 114.535 73.2568 114.51 73.66C114.21 77.15 113.37 79.82 112 81.66C110.851 83.0274 109.417 84.1271 107.799 84.882C106.18 85.6368 104.416 86.0287 102.63 86.03L102.41 86.06ZM102.41 42.63C100.886 42.5601 99.3643 42.8036 97.9384 43.3454C96.5124 43.8872 95.2128 44.7158 94.12 45.78C90.92 49.05 89.39 54.98 89.56 63.4C89.13 72.25 90.56 78.4 93.85 81.84C95.97 84.03 98.94 85.11 102.65 85.06C104.291 85.0619 105.914 84.7048 107.403 84.0139C108.892 83.3229 110.212 82.3148 111.27 81.06C112.5 79.41 113.27 76.92 113.57 73.66C113.583 73.2234 113.651 72.7902 113.77 72.37C113.666 71.6677 113.694 70.9524 113.85 70.26H110.17C110.155 71.0743 110.082 71.8864 109.95 72.69C109.34 79.22 106.75 82.5 102.2 82.32C101.202 82.3495 100.209 82.1689 99.2861 81.7899C98.3627 81.4109 97.5293 80.8419 96.84 80.12C94.12 77.26 92.99 71.78 93.39 63.37C93.19 55.66 94.39 50.59 96.97 47.91C97.6492 47.2105 98.467 46.6606 99.3711 46.2955C100.275 45.9304 101.245 45.7583 102.22 45.79C107.22 45.94 109.88 49.04 110.16 55H113.98C113.55 47.06 109.77 43.06 102.41 42.59V42.63ZM82.08 54.69C76.63 54.23 73.67 51.27 73.21 45.9C73.67 40.6 76.62 37.64 81.99 37.03H82.1C87.45 37.64 90.48 40.59 91.1 45.8V45.92C90.48 51.24 87.41 54.19 82.08 54.65V54.69ZM82.08 38.03C77.23 38.6 74.66 41.18 74.25 45.9C74.66 50.7 77.25 53.28 82.12 53.7C86.91 53.28 89.56 50.7 90.12 45.86C89.52 41.12 86.89 38.56 82.04 37.99L82.08 38.03ZM82.08 51.4C78.72 51.25 76.88 49.34 76.73 45.88C77.05 42.63 78.82 40.88 82 40.54C85.42 40.86 87.27 42.63 87.59 45.81V45.91C87.26 49.36 85.4099 51.21 82.0699 51.36L82.08 51.4ZM82 41.53C79.42 41.8 78 43.23 77.72 45.91C77.86 48.78 79.28 50.27 82.08 50.4C84.82 50.27 86.31 48.79 86.59 45.86C86.3 43.18 84.8 41.76 81.99 41.49L82 41.53Z" fill="black"/>
</svg>
