<svg width="300" height="246" viewBox="0 0 300 246" fill="none" xmlns="http://www.w3.org/2000/svg">
<path d="M288 0H12C8.8174 0 5.76509 1.26421 3.51465 3.51465C1.26421 5.76509 0 8.81741 0 12V234C0 235.576 0.310274 237.136 0.91333 238.592C1.51639 240.048 2.40035 241.371 3.51465 242.485C4.62895 243.6 5.95181 244.484 7.40771 245.087C8.86362 245.69 10.4241 246 12 246H288C291.183 246 294.235 244.736 296.485 242.485C298.736 240.235 300 237.183 300 234V12C300 8.81741 298.736 5.76509 296.485 3.51465C294.235 1.26421 291.183 0 288 0Z" fill="#61707E"/>
<path d="M166.29 12.2999H15C14.2485 12.3026 13.5287 12.6031 12.9983 13.1354C12.4678 13.6677 12.1699 14.3885 12.1699 15.14V159.8C12.1699 160.551 12.4681 161.27 12.9988 161.801C13.5295 162.332 14.2494 162.63 15 162.63H166.27C167.021 162.63 167.742 162.332 168.275 161.802C168.807 161.271 169.107 160.551 169.11 159.8V15.14C169.11 14.3903 168.813 13.6708 168.285 13.1388C167.757 12.6068 167.04 12.3052 166.29 12.2999Z" fill="#D3E2E2"/>
<path d="M181 12.2999H285C285.753 12.2999 286.476 12.5992 287.008 13.1318C287.541 13.6644 287.84 14.3868 287.84 15.14V162.63H181V12.2999Z" fill="#D63128"/>
<path d="M230.21 57.74V28.95H206.4V21.62H263.4V28.95H239.58V57.74H264.71V65.36H239.58V81.06H230.16V65.36H205.56V57.77L230.21 57.74Z" fill="white"/>
<path d="M240.13 81.5301H229.71V65.83H205.11V57.24H229.71V29.45H205.9V21.12H263.9V29.45H240.08V57.24H265.21V65.83H240.08L240.13 81.5301ZM230.71 80.5301H239.13V64.83H264.26V58.24H239.13V28.45H263V22.12H207V28.45H230.81V58.24H206.21V64.83H230.81L230.71 80.5301Z" fill="black"/>
<path d="M287.85 175.01V230.86C287.847 231.612 287.547 232.331 287.015 232.862C286.482 233.392 285.762 233.69 285.01 233.69H104.38V175.01H287.85Z" fill="#D63128"/>
<path d="M93 233.69H15C14.2485 233.687 13.5287 233.387 12.9983 232.855C12.4678 232.322 12.1699 231.602 12.1699 230.85V175.01H93V233.69Z" fill="#D63128"/>
<path d="M204.82 135.65V128.85H264V135.65H239.4V141.65H264.26V148.46H239.4V153.69H229.46V148.46H204.3V141.65H229.43V135.65H204.82ZM205.35 125.71V94.56H263.45V118.12C263.45 123.353 261.007 125.883 256.12 125.71H205.35ZM254.55 102.15H214.77V107.65H254.55V102.15ZM254.55 116.55V113.93H214.77V119.17H251.93C253.5 119.17 254.38 118.29 254.55 116.55Z" fill="white"/>
<path d="M239.87 154.21H228.92V148.98H203.8V141.17H228.92V136.17H204.32V128.36H264.47V136.16H239.87V141.16H264.73V148.97H239.87V154.21ZM229.92 153.21H238.87V147.98H263.73V142.17H238.87V135.17H263.47V129.36H205.32V135.16H229.92V142.16H204.8V147.97H229.92V153.21ZM256.58 126.21H204.85V94.06H264V118.12C264 120.95 263.29 123.12 261.89 124.43C261.167 125.064 260.325 125.548 259.414 125.856C258.502 126.163 257.539 126.287 256.58 126.22V126.21ZM205.85 125.21H256.12C257.012 125.311 257.914 125.231 258.774 124.973C259.633 124.715 260.432 124.285 261.12 123.71C262.32 122.55 262.93 120.71 262.93 118.12V95.06H205.83L205.85 125.21ZM251.93 119.67H214.27V113.43H255.05V116.6C254.79 119.13 253.21 119.67 251.93 119.67ZM215.27 118.67H251.93C253.24 118.67 253.93 118 254.05 116.52V114.43H215.27V118.67ZM255.05 108.15H214.27V101.65H255.05V108.15ZM215.27 107.15H254.05V102.65H215.27V107.15Z" fill="black"/>
<path d="M32.75 225.01V219.51H49.0901V225.01H32.75ZM32.9299 194.72L39.9299 183.89H47.0901L39 196.56H41.3899L44 192.36H51.52L40.6899 209.62H49.1399V215.31H32.98V210.17L38.8601 201.73H32.98L32.9299 194.72ZM58.8201 219.72V189.76H51.47V183.89H74.47V189.76H66V219.69H74.6299V225.56H51.3101V219.69L58.8201 219.72Z" fill="white"/>
<path d="M75.1101 226.07H50.79V219.19H58.3201V190.26H51V183.36H75V190.23H66.5601V219.16H75.1899L75.1101 226.07ZM51.79 225.07H74.1101V220.19H65.48V189.26H73.9199V184.36H51.9199V189.23H59.27V220.16H51.74L51.79 225.07ZM49.5901 225.52H32.25V219.01H49.5901V225.52ZM33.25 224.52H48.5901V220.01H33.25V224.52ZM49.5901 215.78H32.4299V209.99L37.8501 202.2H32.4299V194.57L32.51 194.45L39.6299 183.39H48L39.9199 196.06H41.1101L43.6899 191.83H52.3999L41.5601 209.09H49.6101L49.5901 215.78ZM33.4299 214.78H48.5901V210.09H39.74L50.5701 192.83H44.23L41.6599 197.06H38.0801L46.1599 184.39H40.1599L33.4099 194.87V201.2H39.74L33.4099 210.3L33.4299 214.78Z" fill="black"/>
<path d="M135.18 189.46C136.599 189.382 138.004 189.772 139.18 190.57C140.265 191.406 141.124 192.499 141.68 193.75C142.378 195.282 142.856 196.904 143.1 198.57C143.407 200.495 143.558 202.441 143.55 204.39C143.618 206.901 143.396 209.41 142.89 211.87C142.516 213.462 141.878 214.98 141 216.36C140.408 217.38 139.537 218.209 138.49 218.75C137.452 219.25 136.321 219.529 135.17 219.57H126.89V189.46H135.18ZM132.47 196.27V212.7H133.84C134.717 212.781 135.595 212.551 136.32 212.05C136.916 211.428 137.319 210.646 137.48 209.8C137.818 208.082 137.959 206.33 137.9 204.58C137.9 201.387 137.587 199.203 136.96 198.03C136.673 197.465 136.226 196.997 135.675 196.684C135.124 196.371 134.493 196.227 133.86 196.27H132.47Z" fill="white"/>
<path d="M135.18 220.03H126.4V188.96H135.18C136.69 188.894 138.181 189.318 139.43 190.17C140.58 191.051 141.491 192.206 142.08 193.53C142.803 195.119 143.298 196.803 143.55 198.53C143.852 200.482 144.002 202.455 144 204.43C144.066 206.981 143.838 209.531 143.32 212.03C142.95 213.658 142.311 215.212 141.43 216.63C140.786 217.731 139.838 218.623 138.7 219.2C137.598 219.722 136.399 220.005 135.18 220.03ZM127.4 219.03H135.18C136.263 218.991 137.326 218.725 138.3 218.25C139.259 217.748 140.054 216.981 140.59 216.04C141.413 214.719 142.008 213.269 142.35 211.75C142.848 209.33 143.066 206.86 143 204.39C143.006 202.468 142.859 200.549 142.56 198.65C142.322 197.029 141.854 195.449 141.17 193.96C140.655 192.782 139.854 191.751 138.84 190.96C137.757 190.246 136.475 189.896 135.18 189.96H127.4V219.03ZM133.84 213.2H132V195.77H133.89C134.611 195.721 135.33 195.885 135.959 196.24C136.588 196.596 137.1 197.128 137.43 197.77C138.1 199.03 138.43 201.25 138.43 204.55C138.495 206.341 138.348 208.134 137.99 209.89C137.817 210.84 137.36 211.715 136.68 212.4C135.863 213.005 134.853 213.289 133.84 213.2ZM132.97 212.2H133.84C134.595 212.274 135.352 212.09 135.99 211.68C136.504 211.12 136.85 210.427 136.99 209.68C137.31 208.003 137.444 206.296 137.39 204.59C137.39 201.5 137.09 199.38 136.51 198.28C136.266 197.794 135.882 197.392 135.408 197.125C134.935 196.858 134.392 196.738 133.85 196.78H133L132.97 212.2Z" fill="black"/>
<path d="M146.5 219.53V189.46H155.79C157.147 189.388 158.501 189.642 159.74 190.2C160.766 190.834 161.542 191.801 161.94 192.94C162.54 194.492 162.826 196.147 162.78 197.81C162.808 199.276 162.592 200.736 162.14 202.13C161.776 203.227 161.175 204.231 160.38 205.07C159.805 205.604 159.123 206.009 158.38 206.26C158.924 206.539 159.415 206.911 159.83 207.36C160.176 207.861 160.474 208.393 160.72 208.95C161.025 209.55 161.286 210.172 161.5 210.81L164.2 219.52H157.9L154.9 210.34C154.7 209.516 154.362 208.731 153.9 208.02C153.741 207.808 153.536 207.635 153.301 207.514C153.065 207.392 152.805 207.326 152.54 207.32H152.05V219.52H146.45L146.5 219.53ZM152.1 201.64H154.45C154.958 201.577 155.453 201.439 155.92 201.23C156.13 201.147 156.319 201.02 156.476 200.858C156.633 200.696 156.754 200.502 156.83 200.29C157.07 199.742 157.189 199.148 157.18 198.55C157.23 197.765 157.038 196.983 156.63 196.31C156.372 196.022 156.048 195.801 155.686 195.665C155.324 195.529 154.934 195.483 154.55 195.53H152.1V201.64Z" fill="white"/>
<path d="M164.92 220.03H157.58L154.49 210.49C154.299 209.729 153.989 209.003 153.57 208.34C153.451 208.186 153.3 208.06 153.127 207.97C152.955 207.88 152.765 207.829 152.57 207.82V220.03H146V188.96H155.79C157.231 188.881 158.669 189.156 159.98 189.76C161.108 190.451 161.963 191.511 162.4 192.76C163.022 194.373 163.322 196.092 163.28 197.82C163.308 199.34 163.082 200.854 162.61 202.3C162.226 203.471 161.584 204.541 160.73 205.43C160.359 205.796 159.934 206.103 159.47 206.34C159.764 206.544 160.03 206.786 160.26 207.06C160.633 207.586 160.951 208.149 161.21 208.74C161.53 209.365 161.801 210.013 162.02 210.68L164.92 220.03ZM147 189.96V219.03H151.6V206.82H152.6C152.936 206.828 153.267 206.91 153.567 207.06C153.868 207.211 154.132 207.426 154.34 207.69C154.851 208.453 155.226 209.299 155.45 210.19L158.32 219.03H163.57L161.07 210.96C160.869 210.341 160.618 209.739 160.32 209.16C160.098 208.638 159.82 208.141 159.49 207.68C159.118 207.27 158.674 206.931 158.18 206.68L157.25 206.16L158.25 205.78C158.912 205.552 159.518 205.187 160.03 204.71C160.775 203.922 161.339 202.98 161.68 201.95C162.111 200.61 162.317 199.208 162.29 197.8C162.332 196.203 162.061 194.613 161.49 193.12C161.129 192.085 160.422 191.206 159.49 190.63C158.325 190.111 157.053 189.878 155.78 189.95L147 189.96ZM154.45 202.14H151.6V195.03H154.6C155.064 194.982 155.532 195.048 155.964 195.222C156.396 195.397 156.779 195.674 157.08 196.03C157.551 196.787 157.778 197.67 157.73 198.56C157.75 199.248 157.614 199.932 157.33 200.56C157.225 200.834 157.063 201.083 156.857 201.291C156.65 201.499 156.403 201.662 156.13 201.77C155.595 201.99 155.027 202.115 154.45 202.14ZM152.6 201.14H154.45C154.899 201.079 155.337 200.955 155.75 200.77C156.042 200.631 156.268 200.383 156.38 200.08C156.589 199.597 156.691 199.076 156.68 198.55C156.734 197.852 156.573 197.154 156.22 196.55C156.004 196.334 155.741 196.17 155.451 196.071C155.162 195.972 154.853 195.941 154.55 195.98H152.55L152.6 201.14Z" fill="black"/>
<path d="M164.89 204.52C164.89 199.607 165.713 195.783 167.36 193.05C168.035 191.815 169.029 190.783 170.238 190.062C171.447 189.341 172.827 188.957 174.234 188.95C175.642 188.943 177.026 189.313 178.242 190.021C179.458 190.73 180.462 191.752 181.15 192.98C182.77 195.647 183.583 199.41 183.59 204.27C183.666 207.187 183.306 210.1 182.52 212.91C181.969 214.896 180.911 216.706 179.45 218.16C178.091 219.413 176.298 220.087 174.45 220.04C172.646 220.098 170.877 219.525 169.45 218.42C167.923 217.037 166.802 215.264 166.21 213.29C165.28 210.462 164.834 207.497 164.89 204.52ZM170.47 204.52C170.47 207.547 170.803 209.727 171.47 211.06C171.684 211.629 172.061 212.122 172.553 212.478C173.046 212.833 173.633 213.036 174.24 213.06C174.85 213.043 175.442 212.844 175.937 212.487C176.433 212.13 176.81 211.633 177.02 211.06C177.687 209.727 178.02 207.393 178.02 204.06C178.162 201.941 177.82 199.817 177.02 197.85C176.803 197.281 176.424 196.788 175.93 196.433C175.436 196.077 174.848 195.875 174.24 195.85C173.642 195.882 173.067 196.088 172.585 196.444C172.103 196.799 171.737 197.288 171.53 197.85C170.81 199.3 170.47 201.49 170.47 204.56V204.52Z" fill="white"/>
<path d="M174.43 220.54C172.493 220.608 170.593 219.996 169.06 218.81C167.464 217.369 166.291 215.519 165.67 213.46C164.744 210.573 164.312 207.551 164.39 204.52C164.39 199.52 165.25 195.59 166.93 192.79C167.649 191.48 168.706 190.387 169.99 189.623C171.275 188.859 172.74 188.453 174.234 188.445C175.729 188.438 177.198 188.831 178.489 189.582C179.781 190.334 180.848 191.417 181.58 192.72C183.24 195.47 184.08 199.36 184.08 204.27C184.158 207.237 183.794 210.2 183 213.06C182.418 215.129 181.312 217.013 179.79 218.53C178.332 219.871 176.41 220.592 174.43 220.54ZM174.21 189.45C172.885 189.429 171.58 189.78 170.444 190.462C169.307 191.144 168.385 192.131 167.78 193.31C166.2 195.95 165.39 199.72 165.39 204.52C165.313 207.438 165.726 210.348 166.61 213.13C167.176 215.011 168.24 216.704 169.69 218.03C171.046 219.071 172.722 219.605 174.43 219.54C176.154 219.591 177.829 218.966 179.1 217.8C180.494 216.414 181.507 214.692 182.04 212.8C182.797 210.036 183.134 207.174 183.04 204.31C183.04 199.58 182.25 195.87 180.68 193.31C180.068 192.128 179.138 191.141 177.995 190.459C176.852 189.777 175.541 189.427 174.21 189.45ZM174.21 213.59C173.515 213.575 172.84 213.355 172.269 212.958C171.698 212.562 171.257 212.006 171 211.36C170.28 209.95 169.93 207.73 169.93 204.59C169.93 201.45 170.28 199.19 171 197.78C171.249 197.135 171.68 196.577 172.241 196.174C172.803 195.77 173.469 195.54 174.16 195.51C174.857 195.527 175.534 195.747 176.108 196.143C176.682 196.539 177.127 197.094 177.39 197.74C178.12 199.13 178.47 201.24 178.47 204.18C178.47 207.65 178.13 210.01 177.47 211.39C177.211 212.034 176.767 212.587 176.194 212.978C175.62 213.37 174.944 213.583 174.25 213.59H174.21ZM174.16 196.48C173.656 196.516 173.173 196.698 172.77 197.003C172.367 197.308 172.061 197.724 171.89 198.2C171.25 199.45 170.89 201.59 170.89 204.56C170.89 207.53 171.21 209.62 171.89 210.87C172.063 211.354 172.376 211.776 172.789 212.082C173.202 212.388 173.697 212.565 174.21 212.59C174.722 212.575 175.217 212.407 175.633 212.108C176.048 211.808 176.364 211.391 176.54 210.91C177.16 209.69 177.47 207.41 177.47 204.15C177.591 202.1 177.249 200.05 176.47 198.15C176.289 197.685 175.98 197.281 175.578 196.985C175.176 196.69 174.698 196.514 174.2 196.48H174.16Z" fill="black"/>
<path d="M198.33 189.46H203.89V207.36C203.894 209.039 203.727 210.715 203.39 212.36C203.103 213.817 202.576 215.216 201.83 216.5C201.289 217.494 200.522 218.347 199.59 218.99C198.409 219.68 197.058 220.027 195.69 219.99C194.725 219.982 193.764 219.878 192.82 219.68C191.859 219.515 190.961 219.093 190.22 218.46C189.424 217.726 188.776 216.847 188.31 215.87C187.739 214.784 187.338 213.618 187.12 212.41C186.795 210.732 186.621 209.029 186.6 207.32V189.46H192.16V207.8C192.088 209.13 192.371 210.455 192.98 211.64C193.195 212.055 193.52 212.404 193.919 212.647C194.319 212.89 194.777 213.019 195.245 213.019C195.713 213.019 196.171 212.89 196.571 212.647C196.97 212.404 197.295 212.055 197.51 211.64C198.12 210.449 198.403 209.117 198.33 207.78V189.46Z" fill="white"/>
<path d="M195.69 220.54C194.682 220.531 193.677 220.423 192.69 220.22C191.646 220.035 190.669 219.576 189.86 218.89C189.03 218.109 188.351 217.179 187.86 216.15C187.27 215.015 186.852 213.798 186.62 212.54C186.3 210.835 186.126 209.105 186.1 207.37V188.96H192.66V207.8C192.592 209.042 192.85 210.28 193.41 211.39C193.58 211.731 193.842 212.018 194.166 212.219C194.49 212.42 194.864 212.526 195.245 212.526C195.626 212.526 196 212.42 196.324 212.219C196.648 212.018 196.91 211.731 197.08 211.39C197.644 210.274 197.903 209.029 197.83 207.78V188.96H204.39V207.36C204.399 209.086 204.228 210.809 203.88 212.5C203.582 214.01 203.035 215.46 202.26 216.79C201.652 217.989 200.705 218.982 199.537 219.647C198.369 220.312 197.031 220.619 195.69 220.53V220.54ZM187.1 189.96V207.36C187.123 209.038 187.294 210.712 187.61 212.36C187.819 213.518 188.204 214.638 188.75 215.68C189.191 216.602 189.802 217.434 190.55 218.13C191.23 218.698 192.047 219.077 192.92 219.23C195.61 219.76 197.74 219.58 199.33 218.6C200.193 218 200.902 217.206 201.4 216.28C202.12 215.04 202.627 213.688 202.9 212.28C203.232 210.658 203.396 209.006 203.39 207.35V189.96H198.83V207.8C198.905 209.228 198.597 210.65 197.94 211.92C197.68 212.41 197.292 212.819 196.818 213.105C196.343 213.391 195.799 213.542 195.245 213.542C194.691 213.542 194.147 213.391 193.672 213.105C193.198 212.819 192.81 212.41 192.55 211.92C191.898 210.655 191.591 209.241 191.66 207.82V189.96H187.1Z" fill="black"/>
<path d="M216.65 208.64V202.36H225.26V215.18C224.031 216.692 222.553 217.984 220.89 219C219.493 219.703 217.943 220.047 216.38 220C214.464 220.081 212.589 219.426 211.14 218.17C209.624 216.676 208.539 214.8 208 212.74C207.221 210.047 206.847 207.253 206.89 204.45C206.836 201.55 207.248 198.66 208.11 195.89C208.738 193.742 209.978 191.823 211.68 190.37C213.105 189.328 214.848 188.813 216.61 188.91C218.153 188.812 219.695 189.122 221.08 189.81C222.145 190.499 223 191.467 223.55 192.61C224.279 194.13 224.774 195.752 225.02 197.42L219.64 199.02C219.499 198.069 219.109 197.172 218.51 196.42C218.266 196.129 217.959 195.896 217.613 195.739C217.267 195.581 216.89 195.503 216.51 195.51C215.868 195.539 215.248 195.756 214.729 196.135C214.21 196.514 213.814 197.037 213.59 197.64C212.863 199.053 212.5 201.29 212.5 204.35C212.5 207.61 212.86 209.93 213.6 211.35C213.852 211.96 214.277 212.483 214.822 212.854C215.368 213.226 216.01 213.429 216.67 213.44C217.292 213.441 217.903 213.286 218.45 212.99C219.187 212.575 219.86 212.056 220.45 211.45V208.62L216.65 208.64Z" fill="white"/>
<path d="M216.38 220.54C214.336 220.61 212.343 219.894 210.81 218.54C209.226 216.984 208.093 215.028 207.53 212.88C206.731 210.139 206.346 207.294 206.39 204.44C206.338 201.486 206.756 198.542 207.63 195.72C208.296 193.485 209.591 191.489 211.36 189.97C212.88 188.864 214.732 188.31 216.61 188.4C218.248 188.306 219.881 188.651 221.34 189.4C222.485 190.134 223.402 191.173 223.99 192.4C224.744 193.981 225.256 195.667 225.51 197.4L225.58 197.83L219.25 199.72L219.15 199.18C219.021 198.318 218.678 197.503 218.15 196.81C217.949 196.57 217.696 196.378 217.41 196.25C217.124 196.122 216.813 196.06 216.5 196.07C215.949 196.101 215.42 196.295 214.979 196.626C214.538 196.956 214.204 197.41 214.02 197.93C213.218 199.991 212.877 202.203 213.02 204.41C213.02 207.57 213.37 209.84 214.02 211.15C214.23 211.68 214.592 212.136 215.059 212.461C215.527 212.787 216.08 212.967 216.65 212.98C217.191 212.98 217.723 212.846 218.2 212.59C218.815 212.229 219.38 211.788 219.88 211.28V209.16H216.15V201.9H225.76V215.36L225.63 215.5C224.363 217.062 222.838 218.394 221.12 219.44C219.655 220.191 218.026 220.569 216.38 220.54ZM216.61 189.45C214.961 189.358 213.33 189.835 211.99 190.8C210.37 192.2 209.186 194.036 208.58 196.09C207.738 198.809 207.336 201.644 207.39 204.49C207.35 207.242 207.717 209.985 208.48 212.63C208.993 214.605 210.029 216.405 211.48 217.84C212.835 219.013 214.589 219.622 216.38 219.54C217.864 219.566 219.332 219.223 220.65 218.54C222.209 217.588 223.599 216.381 224.76 214.97V202.84H217.15V208.1H220.88V211.64L220.73 211.78C220.123 212.418 219.43 212.966 218.67 213.41C218.055 213.741 217.368 213.916 216.67 213.92C215.919 213.911 215.186 213.683 214.563 213.264C213.939 212.844 213.452 212.252 213.16 211.56C212.38 210.08 212 207.72 212 204.35C212 201.18 212.37 198.91 213.14 197.41C213.405 196.724 213.866 196.131 214.465 195.705C215.064 195.278 215.775 195.037 216.51 195.01C216.965 195.002 217.416 195.094 217.831 195.281C218.246 195.468 218.614 195.744 218.91 196.09C219.457 196.759 219.84 197.547 220.03 198.39L224.46 197.07C224.222 195.602 223.77 194.177 223.12 192.84C222.617 191.778 221.827 190.877 220.84 190.24C219.523 189.612 218.065 189.339 216.61 189.45Z" fill="black"/>
<path d="M228.6 189.46H234.17V199.98H240.26V189.46H245.86V219.53H240.26V207.36H234.17V219.52H228.6V189.46Z" fill="white"/>
<path d="M246.36 220.03H239.76V207.87H234.67V220.03H228.09V188.96H234.67V199.48H239.76V188.96H246.36V220.03ZM240.76 219.03H245.36V189.96H240.76V200.48H233.67V189.96H229.09V219.03H233.67V206.87H240.76V219.03Z" fill="black"/>
<path d="M248.3 189.46H265.24V196.89H259.55V219.53H254V196.89H248.31V189.46H248.3Z" fill="white"/>
<path d="M260.05 220.03H253.48V197.36H247.79V188.93H265.74V197.36H260.05V220.03ZM254.48 219.03H259.05V196.36H264.74V189.93H248.79V196.36H254.48V219.03Z" fill="black"/>
<path d="M134.49 137.36L113.49 106.66L132 69.36C132.398 68.5611 132.594 67.6773 132.573 66.7851C132.553 65.893 132.314 65.0194 131.88 64.24L110.25 25.4499C109.905 24.8079 109.435 24.241 108.869 23.7821C108.303 23.3231 107.651 22.9814 106.951 22.7767C106.251 22.572 105.518 22.5083 104.793 22.5896C104.069 22.6708 103.368 22.8952 102.731 23.2498C102.094 23.6044 101.534 24.082 101.083 24.655C100.633 25.228 100.3 25.8848 100.106 26.5874C99.9111 27.2899 99.8582 28.0241 99.95 28.7473C100.042 29.4705 100.276 30.1682 100.64 30.7999L120.86 67.0699L102.23 104.65C101.798 105.525 101.606 106.499 101.674 107.473C101.743 108.446 102.069 109.384 102.62 110.19L121.16 137.35H104.16L83.1599 106.64L101.64 69.3499C102.038 68.551 102.235 67.6673 102.214 66.7751C102.193 65.883 101.955 65.0094 101.52 64.2299L80 25.4299C79.6547 24.7879 79.1853 24.221 78.6189 23.762C78.0525 23.3031 77.4006 22.9614 76.7009 22.7567C76.0013 22.5519 75.2679 22.4883 74.5435 22.5695C73.819 22.6508 73.1179 22.8752 72.481 23.2298C71.844 23.5844 71.2839 24.0621 70.8333 24.6351C70.3826 25.2081 70.0503 25.8648 69.8557 26.5673C69.6611 27.2699 69.6082 28.0041 69.7 28.7272C69.7917 29.4504 70.0261 30.1483 70.3899 30.78L90.6101 67.0499L72 104.63C71.5676 105.505 71.3758 106.479 71.4443 107.453C71.5129 108.426 71.8392 109.364 72.3899 110.17L90.8999 137.36H74.78L53.78 106.66L72.3 69.36C72.6977 68.5611 72.8944 67.6773 72.8735 66.7851C72.8526 65.893 72.6146 65.0194 72.1799 64.24L50.55 25.4499C50.2047 24.8079 49.7351 24.241 49.1687 23.7821C48.6023 23.3231 47.9504 22.9814 47.2507 22.7767C46.5511 22.572 45.8177 22.5083 45.0933 22.5896C44.3688 22.6708 43.6679 22.8952 43.031 23.2498C42.3941 23.6044 41.834 24.082 41.3833 24.655C40.9326 25.228 40.6003 25.8848 40.4058 26.5874C40.2112 27.2899 40.1583 28.0241 40.25 28.7473C40.3417 29.4705 40.5762 30.1682 40.9399 30.7999L61.1599 67.0699L42.54 104.64C42.1043 105.515 41.9098 106.491 41.9766 107.467C42.0434 108.442 42.3689 109.382 42.9199 110.19L61.47 137.36H36.47C34.4808 137.36 32.5733 138.15 31.1667 139.557C29.7602 140.963 28.97 142.871 28.97 144.86C28.97 146.849 29.7602 148.757 31.1667 150.163C32.5733 151.57 34.4808 152.36 36.47 152.36H149.42C151.409 152.36 153.317 151.57 154.723 150.163C156.13 148.757 156.92 146.849 156.92 144.86C156.92 142.871 156.13 140.963 154.723 139.557C153.317 138.15 151.409 137.36 149.42 137.36H134.48" fill="#D63128"/>
<path d="M149.43 152.83H36.48C34.3582 152.83 32.3235 151.987 30.8232 150.487C29.323 148.987 28.48 146.952 28.48 144.83C28.48 142.708 29.323 140.673 30.8232 139.173C32.3235 137.673 34.3582 136.83 36.48 136.83H60.48L42.48 110.45C41.8881 109.575 41.5376 108.56 41.4639 107.506C41.3901 106.453 41.5958 105.399 42.0601 104.45L60.5701 67.12L40.48 31.12C39.7042 29.7302 39.5124 28.0892 39.9465 26.5579C40.3807 25.0267 41.4052 23.7307 42.7949 22.9549C44.1847 22.1792 45.8257 21.9873 47.3569 22.4215C48.8882 22.8556 50.1842 23.8802 50.96 25.27L72.5901 64.0699C73.0639 64.9211 73.3233 65.8749 73.3459 66.8489C73.3686 67.8228 73.1537 68.7877 72.72 69.66L54.3701 106.66L75.02 136.9H90L72 110.52C71.4081 109.645 71.0576 108.63 70.9839 107.576C70.9101 106.523 71.1158 105.469 71.5801 104.52L90.0901 67.1899L69.99 31.1899C69.2142 29.8002 69.0224 28.1593 69.4565 26.628C69.8907 25.0968 70.9152 23.8007 72.3049 23.025C73.6947 22.2492 75.3357 22.0573 76.8669 22.4914C78.3982 22.9256 79.6942 23.9502 80.47 25.3399L102.1 64.14C102.576 64.9904 102.837 65.9438 102.861 66.9177C102.885 67.8917 102.672 68.8569 102.24 69.73L83.8899 106.73L104.53 136.97H120.27L102.27 110.59C101.678 109.715 101.328 108.7 101.254 107.646C101.18 106.593 101.386 105.539 101.85 104.59L120.36 67.26L100.27 31.26C99.8859 30.5718 99.6411 29.8148 99.5496 29.0321C99.458 28.2493 99.5216 27.4562 99.7366 26.698C99.9515 25.9398 100.314 25.2313 100.802 24.6131C101.291 23.9949 101.897 23.479 102.585 23.0949C103.273 22.7108 104.03 22.466 104.813 22.3745C105.596 22.2829 106.389 22.3464 107.147 22.5614C107.905 22.7763 108.613 23.1385 109.232 23.6273C109.85 24.116 110.366 24.7219 110.75 25.41L132.38 64.2099C132.855 65.0603 133.117 66.0137 133.141 66.9877C133.166 67.9616 132.952 68.9268 132.52 69.7999L114.17 106.8L134.81 137.04H149.49C151.612 137.04 153.647 137.883 155.147 139.383C156.647 140.883 157.49 142.918 157.49 145.04C157.49 147.162 156.647 149.197 155.147 150.697C153.647 152.197 151.612 153.04 149.49 153.04L149.43 152.83ZM36.48 137.83C34.6235 137.83 32.843 138.568 31.5303 139.88C30.2175 141.193 29.48 142.973 29.48 144.83C29.48 146.686 30.2175 148.467 31.5303 149.78C32.843 151.093 34.6235 151.83 36.48 151.83H149.43C151.286 151.83 153.067 151.093 154.38 149.78C155.692 148.467 156.43 146.686 156.43 144.83C156.43 142.973 155.692 141.193 154.38 139.88C153.067 138.568 151.286 137.83 149.43 137.83H134.49V137.33L134.07 137.61L113 106.67L131.61 69.12C131.972 68.3927 132.151 67.5883 132.131 66.7764C132.112 65.9644 131.895 65.1693 131.5 64.4599L109.87 25.67C109.224 24.5127 108.145 23.6592 106.87 23.2973C105.595 22.9354 104.228 23.0946 103.07 23.74C101.913 24.3861 101.059 25.4653 100.697 26.7404C100.335 28.0156 100.495 29.3822 101.14 30.54L121.48 67.04L121.37 67.27L102.74 104.85C102.353 105.64 102.182 106.519 102.243 107.397C102.305 108.275 102.597 109.121 103.09 109.85L122.17 137.79H104.77V138.91L103.86 137.58L82.73 106.58L101.34 69.03C101.7 68.304 101.878 67.5014 101.859 66.6914C101.839 65.8814 101.624 65.0882 101.23 64.38L79.6001 25.5799C79.2904 24.9883 78.8652 24.4648 78.3499 24.0402C77.8345 23.6156 77.2393 23.2986 76.5994 23.1077C75.9594 22.9169 75.2878 22.8562 74.624 22.9292C73.9603 23.0021 73.3178 23.2074 72.7346 23.5327C72.1515 23.858 71.6393 24.2969 71.2285 24.8233C70.8177 25.3498 70.5166 25.9531 70.3428 26.5979C70.169 27.2426 70.126 27.9156 70.2166 28.5772C70.3071 29.2388 70.5295 29.8756 70.8701 30.4499L91.21 66.9499L91.1001 67.1799L72.47 104.76C72.0831 105.55 71.9117 106.429 71.9731 107.307C72.0346 108.185 72.3269 109.031 72.8201 109.76L91.8999 137.7H74.5701L53.29 106.54L71.9099 68.99C72.2682 68.2632 72.4445 67.4602 72.4236 66.6501C72.4027 65.8401 72.1853 65.0473 71.79 64.34L50.1599 25.54C49.5138 24.3827 48.4345 23.5292 47.1594 23.1673C45.8843 22.8054 44.5179 22.9646 43.3601 23.6099C42.2028 24.2561 41.3492 25.3353 40.9873 26.6104C40.6254 27.8855 40.7846 29.2522 41.4299 30.41L61.78 66.91L61.6599 67.14L43 104.85C42.6131 105.64 42.4417 106.519 42.5032 107.397C42.5646 108.275 42.8569 109.121 43.3501 109.85L61.75 136.79H61.99V138.91L61.22 137.79L36.48 137.83Z" fill="black"/>
</svg>
