<svg width="300" height="246" viewBox="0 0 300 246" fill="none" xmlns="http://www.w3.org/2000/svg">
<path d="M288 0H12C8.8174 0 5.76509 1.26421 3.51465 3.51465C1.26421 5.76509 0 8.8174 0 12V234C0 237.183 1.26421 240.235 3.51465 242.485C5.76509 244.736 8.8174 246 12 246H288C291.183 246 294.235 244.736 296.485 242.485C298.736 240.235 300 237.183 300 234V12C300 8.8174 298.736 5.76509 296.485 3.51465C294.235 1.26421 291.183 0 288 0Z" fill="#61707E"/>
<path d="M166.29 12.3199H15C14.2494 12.3199 13.5295 12.6181 12.9988 13.1488C12.4681 13.6795 12.1699 14.3993 12.1699 15.1499V159.81C12.1699 160.561 12.4678 161.282 12.9983 161.815C13.5287 162.347 14.2485 162.647 15 162.65H166.27C167.023 162.65 167.745 162.351 168.278 161.818C168.811 161.286 169.11 160.563 169.11 159.81V15.1399C169.105 14.3936 168.806 13.6795 168.278 13.1517C167.751 12.624 167.036 12.3252 166.29 12.3199Z" fill="#D3E2E2"/>
<path d="M181 12.3199H285C285.751 12.3199 286.472 12.6178 287.005 13.1482C287.537 13.6786 287.837 14.3984 287.84 15.1499V162.65H181V12.3199Z" fill="#F78C21"/>
<path d="M230.21 57.74V28.95H206.4V21.62H263.4V28.95H239.58V57.74H264.71V65.3199H239.58V81.0199H230.16V65.3199H205.56V57.73L230.21 57.74Z" fill="white"/>
<path d="M240.13 81.5299H229.71V65.83H205.11V57.24H229.71V29.45H205.9V21.12H263.9V29.45H240.08V57.24H265.21V65.83H240.08L240.13 81.5299ZM230.71 80.5299H239.13V64.83H264.26V58.24H239.13V28.45H263V22.12H207V28.45H230.81V58.24H206.21V64.83H230.81L230.71 80.5299Z" fill="black"/>
<path d="M287.85 175.01V230.86C287.847 231.611 287.547 232.331 287.015 232.862C286.482 233.392 285.762 233.69 285.01 233.69H104.38V175.02H287.85V175.01Z" fill="#F78C21"/>
<path d="M93 233.69H15C14.2494 233.69 13.5295 233.392 12.9988 232.861C12.4681 232.33 12.1699 231.611 12.1699 230.86V175.01H93V233.69Z" fill="#F78C21"/>
<path d="M204.82 135.66V128.85H264V135.66H239.4V141.66H264.26V148.46H239.4V153.7H229.46V148.46H204.3V141.66H229.43V135.66H204.82ZM205.35 125.71V94.5699H263.45V118.12C263.45 123.36 261.007 125.89 256.12 125.71H205.35ZM254.55 102.16H214.77V107.65H254.55V102.16ZM254.55 116.55V113.93H214.77V119.17H251.93C253.5 119.17 254.38 118.32 254.55 116.55Z" fill="white"/>
<path d="M239.87 154.22H228.92V148.98H203.8V141.18H228.92V136.18H204.32V128.32H264.47V136.13H239.87V141.13H264.73V148.93H239.87V154.22ZM229.92 153.22H238.87V147.98H263.73V142.18H238.87V135.18H263.47V129.32H205.32V135.13H229.92V142.13H204.8V147.93H229.92V153.22ZM256.58 126.22H204.85V94.08H264V118.08C264 120.92 263.29 123.08 261.88 124.39C261.162 125.032 260.324 125.524 259.414 125.838C258.504 126.152 257.541 126.282 256.58 126.22ZM205.85 125.22H256.12C257.012 125.326 257.916 125.248 258.776 124.99C259.636 124.732 260.434 124.299 261.12 123.72C262.32 122.57 262.93 120.72 262.93 118.13V95.13H205.83L205.85 125.22ZM251.93 119.68H214.27V113.45H255.05V116.61C254.79 119.14 253.21 119.67 251.93 119.67V119.68ZM215.27 118.68H251.93C253.24 118.68 253.93 118.02 254.05 116.54V114.45H215.27V118.68ZM255.05 108.16H214.27V101.67H255.05V108.16ZM215.27 107.16H254.05V102.67H215.27V107.16Z" fill="black"/>
<path d="M31.6499 188.32H39.1699V183.91H45.23V188.32H46.7V193.46H45.23V195.11H46.3301V200.44H45.23V225.44H39V200.44H38.27L37.53 220.08C37.53 222.527 36.3667 223.75 34.04 223.75H31.47V219.32C31.96 219.44 32.21 219.2 32.21 218.58L32.9399 195.08H39V193.61H31.6599V188.32H31.6499ZM47.4299 208.7H73.3201V215.49C73.4401 218.18 72.32 219.41 70.02 219.16L69.6499 221.16H73.3201V224.83H46.52V221.16H50.3701L49.8201 219.16H47.4299V208.7ZM47.25 207.23V202.82H73.3201V207.23H47.25ZM54.04 188.87H47.8V184.28H60.29L59.55 195.48C59.55 200.147 57.4099 202.227 53.1299 201.72H48V197.13H52.23C52.84 197.25 53.2301 196.89 53.3301 196.03L53.51 195.48H50.5801C48.7401 195.36 47.8201 194.19 47.8201 191.99V190.32H51.6799C51.5499 190.93 51.7999 191.18 52.4099 191.05H53.8799L54.04 188.87ZM53.3101 213.29V214.76H66.3101C66.8001 214.88 67.05 214.64 67.05 214.02V213.32L53.3101 213.29ZM63.5901 219.16H56.5901V221.16H63.5901V219.16ZM61.75 197.16L60.8401 184.31H73.3201V189.45H67.6299L68 191.29H68.9099C69.5299 191.41 69.8301 191.17 69.8301 190.55H73.5L73.3201 192.76C73.2001 194.84 72.3201 195.69 70.5701 195.33H68.1799L68.3601 196.06C68.2401 196.92 68.6699 197.29 69.6499 197.16H73.1399V201.57H66.53C63.47 201.777 61.8767 200.29 61.75 197.11V197.16Z" fill="white"/>
<path d="M45.73 225.89H38.49V207.54L38.02 220.08C38.02 222.79 36.64 224.23 34.02 224.23H31V218.69L31.6201 218.84H31.72C31.7254 218.75 31.7254 218.66 31.72 218.57L32.47 194.57H38.47V194.1H31.1299V187.78H38.6499V183.37H45.71V187.78H47.1799V193.92H45.71V194.57H46.8101V200.9H45.71L45.73 225.89ZM39.49 224.89H44.73V199.89H45.8301V195.56H44.73V192.91H46.2V188.77H44.73V184.36H39.6699V188.77H32.1499V193.09H39.49V195.56H33.4199L32.7 218.56C32.7103 218.748 32.678 218.935 32.6052 219.108C32.5325 219.282 32.4212 219.436 32.28 219.56C32.1856 219.635 32.0766 219.689 31.96 219.72V223.13H34C36 223.13 37 222.13 37 219.96L37.75 199.82H39.47L39.49 224.89ZM73.8201 225.33H46V220.66H49.7L49.4199 219.66H46.9099V208.2H73.8V215.49C73.889 216.1 73.8456 216.722 73.6731 217.314C73.5006 217.906 73.2029 218.453 72.8 218.92C72.4766 219.203 72.0987 219.418 71.6895 219.55C71.2802 219.683 70.8482 219.73 70.4199 219.69L70.24 220.69H73.8101L73.8201 225.33ZM47.02 224.33H72.8201V221.66H69.05L69.6101 218.6H70.0701C70.4185 218.663 70.7763 218.653 71.1206 218.571C71.4649 218.488 71.7883 218.334 72.0701 218.12C72.3683 217.747 72.5847 217.316 72.7053 216.854C72.8259 216.393 72.848 215.911 72.77 215.44V209.13H47.8799V218.59H50.1499L50.98 221.59H46.98L47.02 224.33ZM64.0901 221.66H56.0901V218.66H64.0901V221.66ZM57.0901 220.66H63.0901V219.66H57.0901V220.66ZM66.55 215.27H52.79V212.8H67.5601V214.03C67.5799 214.229 67.552 214.43 67.479 214.616C67.406 214.802 67.2897 214.968 67.1399 215.1C66.9814 215.238 66.7799 215.315 66.5701 215.32L66.55 215.27ZM53.79 214.27H66.54C66.5455 214.18 66.5455 214.09 66.54 214V213.77H53.77L53.79 214.27ZM73.79 207.74H46.72V202.32H73.79V207.74ZM47.72 206.74H72.79V203.32H47.72V206.74ZM54.25 202.3C53.8456 202.3 53.4416 202.277 53.04 202.23H47.45V196.64H52.1799C52.4499 196.64 52.51 196.64 52.53 196.64C52.55 196.64 52.71 196.46 52.78 196H50.52C49.02 195.9 47.27 195.13 47.27 192V189.85H52.27L52.1499 190.45C52.1499 190.52 52.1499 190.58 52.1499 190.61C52.2063 190.618 52.2637 190.618 52.3201 190.61H53.4299L53.53 189.4H47.3301V183.81H73.8501V189.95H68.27L68.4399 190.79H68.9399C69.2399 190.79 69.3201 190.79 69.3201 190.79C69.3201 190.79 69.3201 190.79 69.3201 190.54V190.04H74.04L73.8101 192.79C73.8271 193.286 73.7376 193.78 73.5479 194.239C73.3581 194.698 73.0724 195.111 72.71 195.45C72.391 195.669 72.0278 195.816 71.646 195.88C71.2642 195.944 70.873 195.923 70.5 195.82H68.8101V196.12C68.8101 196.34 68.8101 196.52 68.8101 196.58C68.8101 196.64 69.09 196.71 69.49 196.66H73.49V202.07H66.3799C65.7149 202.169 65.0369 202.132 64.387 201.96C63.737 201.788 63.129 201.485 62.6001 201.07C62.1008 200.558 61.7104 199.95 61.4526 199.284C61.1948 198.617 61.0749 197.904 61.1001 197.19L60.4199 187.61L59.8999 195.54C59.8999 198.06 59.26 199.92 58 201.05C56.9515 201.904 55.6319 202.355 54.28 202.32L54.25 202.3ZM48.45 201.23H53.0901C55.0901 201.45 56.5 201.13 57.46 200.23C58.42 199.33 59.02 197.69 59.02 195.44L59.72 184.74H48.3V188.32H54.5901L54.3201 191.52H52.3899C52.2171 191.574 52.0328 191.581 51.8567 191.538C51.6806 191.496 51.5192 191.407 51.3899 191.28C51.2585 191.146 51.1713 190.975 51.1399 190.79H48.3V191.94C48.3 194.48 49.6101 194.86 50.5901 194.94H54.1899L53.78 196.15C53.7648 196.392 53.6991 196.628 53.5872 196.844C53.4752 197.059 53.3194 197.248 53.1299 197.4C52.9848 197.498 52.8211 197.564 52.6489 197.595C52.4768 197.626 52.2999 197.621 52.1299 197.58H48.5L48.45 201.23ZM61.3401 184.79L62.22 197.12C62.1918 197.701 62.2809 198.283 62.4819 198.829C62.6829 199.375 62.9916 199.875 63.3899 200.3C63.8238 200.627 64.3201 200.862 64.8479 200.991C65.3757 201.12 65.9241 201.14 66.46 201.05H72.6101V197.64H69.6101C69.3548 197.698 69.0894 197.694 68.8357 197.63C68.582 197.566 68.3469 197.442 68.1499 197.27C68.0074 197.108 67.9036 196.916 67.8464 196.708C67.7893 196.5 67.7803 196.282 67.8201 196.07L67.5 194.81H70.6299C70.868 194.887 71.1201 194.911 71.3687 194.882C71.6172 194.853 71.8564 194.77 72.0701 194.64C72.3142 194.382 72.5029 194.077 72.625 193.743C72.7471 193.41 72.7999 193.055 72.78 192.7L72.9199 191.02H70.22C70.1667 191.229 70.0473 191.414 69.8799 191.55C69.7236 191.664 69.5436 191.742 69.353 191.776C69.1625 191.811 68.9666 191.802 68.78 191.75H67.55L66.98 188.91H72.78V184.77L61.3401 184.79Z" fill="black"/>
<path d="M135.18 189.47C136.598 189.389 138.003 189.776 139.18 190.57C140.265 191.406 141.124 192.499 141.68 193.75C142.378 195.282 142.856 196.904 143.1 198.57C143.407 200.495 143.558 202.441 143.55 204.39C143.618 206.9 143.397 209.41 142.89 211.87C142.512 213.448 141.873 214.952 141 216.32C140.412 217.342 139.54 218.172 138.49 218.71C137.453 219.214 136.322 219.494 135.17 219.53H126.89V189.47H135.18ZM132.47 196.27V212.7H133.84C134.718 212.785 135.597 212.554 136.32 212.05C136.916 211.428 137.319 210.646 137.48 209.8C137.819 208.082 137.96 206.33 137.9 204.58C137.9 201.387 137.587 199.207 136.96 198.04C136.675 197.472 136.229 197.001 135.678 196.686C135.126 196.371 134.494 196.226 133.86 196.27H132.47Z" fill="white"/>
<path d="M135.18 220.03H126.4V188.97H135.18C136.689 188.901 138.18 189.322 139.43 190.17C140.58 191.055 141.491 192.213 142.08 193.54C142.805 195.128 143.3 196.812 143.55 198.54C143.852 200.495 144.002 202.471 144 204.45C144.066 206.998 143.838 209.545 143.32 212.04C142.953 213.669 142.314 215.224 141.43 216.64C140.786 217.744 139.838 218.639 138.7 219.22C137.595 219.731 136.397 220.007 135.18 220.03ZM127.4 219.03H135.18C136.263 218.991 137.326 218.725 138.3 218.25C139.259 217.752 140.054 216.988 140.59 216.05C141.412 214.725 142.007 213.271 142.35 211.75C142.848 209.333 143.066 206.867 143 204.4C143.006 202.475 142.859 200.552 142.56 198.65C142.322 197.032 141.854 195.456 141.17 193.97C140.658 192.79 139.857 191.758 138.84 190.97C137.757 190.256 136.475 189.906 135.18 189.97H127.4V219.03ZM133.84 213.2H132V195.77H133.89C134.61 195.724 135.329 195.888 135.958 196.244C136.586 196.599 137.098 197.129 137.43 197.77C138.1 199.03 138.43 201.25 138.43 204.55C138.495 206.341 138.348 208.134 137.99 209.89C137.819 210.84 137.362 211.716 136.68 212.4C135.863 213.005 134.853 213.289 133.84 213.2ZM132.97 212.2H133.84C134.595 212.278 135.354 212.095 135.99 211.68C136.507 211.122 136.854 210.428 136.99 209.68C137.311 208.003 137.445 206.296 137.39 204.59C137.39 201.5 137.09 199.38 136.51 198.28C136.266 197.794 135.882 197.392 135.408 197.125C134.935 196.858 134.392 196.738 133.85 196.78H133L132.97 212.2Z" fill="black"/>
<path d="M146.5 219.53V189.47H155.79C157.146 189.395 158.5 189.645 159.74 190.2C160.764 190.837 161.54 191.803 161.94 192.94C162.538 194.492 162.824 196.147 162.78 197.81C162.808 199.276 162.592 200.736 162.14 202.13C161.776 203.227 161.175 204.231 160.38 205.07C159.808 205.607 159.125 206.013 158.38 206.26C158.927 206.539 159.418 206.915 159.83 207.37C160.179 207.866 160.477 208.395 160.72 208.95C161.026 209.553 161.287 210.178 161.5 210.82L164.2 219.53H157.9L154.9 210.34C154.698 209.516 154.36 208.732 153.9 208.02C153.739 207.811 153.533 207.64 153.298 207.521C153.063 207.402 152.804 207.336 152.54 207.33H152.05V219.53H146.5ZM152.1 201.65H154.45C154.957 201.582 155.451 201.444 155.92 201.24C156.134 201.148 156.326 201.011 156.483 200.838C156.64 200.666 156.758 200.462 156.83 200.24C157.072 199.692 157.191 199.099 157.18 198.5C157.232 197.718 157.039 196.939 156.63 196.27C156.372 195.982 156.048 195.761 155.686 195.625C155.324 195.489 154.934 195.443 154.55 195.49H152.1V201.65Z" fill="white"/>
<path d="M164.92 220.03H157.58L154.49 210.49C154.299 209.729 153.989 209.003 153.57 208.34C153.453 208.185 153.302 208.059 153.128 207.97C152.955 207.882 152.764 207.834 152.57 207.83V220.03H146V188.97H155.79C157.23 188.894 158.667 189.165 159.98 189.76C161.108 190.451 161.963 191.511 162.4 192.76C163.022 194.372 163.322 196.092 163.28 197.82C163.308 199.343 163.082 200.861 162.61 202.31C162.224 203.477 161.582 204.543 160.73 205.43C160.362 205.799 159.936 206.106 159.47 206.34C159.762 206.547 160.027 206.788 160.26 207.06C160.633 207.586 160.951 208.149 161.21 208.74C161.53 209.365 161.801 210.013 162.02 210.68L164.92 220.03ZM147 189.97V219.03H151.6V206.83H152.6C152.937 206.835 153.268 206.916 153.569 207.066C153.871 207.217 154.134 207.433 154.34 207.7C154.853 208.458 155.229 209.301 155.45 210.19L158.32 219.03H163.57L161.07 210.97C160.87 210.35 160.62 209.748 160.32 209.17C160.104 208.645 159.826 208.148 159.49 207.69C159.122 207.279 158.681 206.94 158.19 206.69L157.25 206.16L158.25 205.78C158.912 205.552 159.518 205.187 160.03 204.71C160.778 203.923 161.341 202.981 161.68 201.95C162.111 200.61 162.317 199.207 162.29 197.8C162.332 196.203 162.06 194.613 161.49 193.12C161.123 192.088 160.418 191.211 159.49 190.63C158.324 190.116 157.052 189.886 155.78 189.96L147 189.97ZM154.45 202.15H151.6V195.04H154.6C155.064 194.989 155.533 195.054 155.966 195.229C156.398 195.403 156.781 195.682 157.08 196.04C157.552 196.792 157.779 197.673 157.73 198.56C157.751 199.248 157.615 199.933 157.33 200.56C157.226 200.835 157.066 201.084 156.859 201.293C156.652 201.501 156.404 201.664 156.13 201.77C155.597 201.995 155.028 202.123 154.45 202.15ZM152.6 201.15H154.45C154.899 201.085 155.337 200.957 155.75 200.77C155.897 200.704 156.029 200.609 156.137 200.491C156.245 200.372 156.328 200.232 156.38 200.08C156.59 199.598 156.692 199.076 156.68 198.55C156.723 197.872 156.563 197.196 156.22 196.61C156.004 196.394 155.741 196.23 155.451 196.131C155.162 196.032 154.853 196.001 154.55 196.04H152.55L152.6 201.15Z" fill="black"/>
<path d="M164.89 204.52C164.89 199.607 165.713 195.783 167.36 193.05C168.035 191.815 169.029 190.783 170.238 190.062C171.447 189.341 172.827 188.957 174.234 188.95C175.642 188.943 177.026 189.313 178.242 190.021C179.458 190.73 180.462 191.752 181.15 192.98C182.77 195.647 183.583 199.41 183.59 204.27C183.667 207.19 183.306 210.106 182.52 212.92C181.969 214.906 180.911 216.715 179.45 218.17C178.09 219.42 176.296 220.091 174.45 220.04C172.646 220.098 170.877 219.525 169.45 218.42C167.925 217.039 166.805 215.269 166.21 213.3C165.28 210.468 164.834 207.5 164.89 204.52ZM170.47 204.52C170.47 207.52 170.81 209.74 171.47 211.06C171.671 211.635 172.047 212.134 172.544 212.487C173.041 212.839 173.636 213.029 174.245 213.029C174.855 213.029 175.449 212.839 175.946 212.487C176.443 212.134 176.819 211.635 177.02 211.06C177.687 209.727 178.02 207.393 178.02 204.06C178.163 201.944 177.821 199.824 177.02 197.86C176.805 197.29 176.427 196.795 175.932 196.44C175.438 196.084 174.849 195.882 174.24 195.86C173.64 195.884 173.061 196.087 172.578 196.444C172.095 196.8 171.73 197.294 171.53 197.86C170.81 199.32 170.47 201.5 170.47 204.56V204.52Z" fill="white"/>
<path d="M174.43 220.54C172.493 220.608 170.593 219.996 169.06 218.81C167.459 217.373 166.286 215.521 165.67 213.46C164.744 210.573 164.312 207.551 164.39 204.52C164.39 199.52 165.25 195.6 166.93 192.8C167.625 191.474 168.672 190.367 169.957 189.599C171.242 188.831 172.713 188.434 174.21 188.45C175.711 188.42 177.192 188.802 178.492 189.554C179.791 190.307 180.86 191.402 181.58 192.72C183.24 195.48 184.08 199.36 184.08 204.27C184.157 207.24 183.793 210.206 183 213.07C182.418 215.136 181.312 217.016 179.79 218.53C178.335 219.876 176.411 220.597 174.43 220.54ZM174.21 189.45C172.885 189.431 171.581 189.783 170.446 190.465C169.31 191.147 168.387 192.132 167.78 193.31C166.2 195.95 165.39 199.72 165.39 204.52C165.312 207.438 165.725 210.348 166.61 213.13C167.171 215.014 168.236 216.708 169.69 218.03C171.046 219.07 172.722 219.605 174.43 219.54C176.155 219.596 177.832 218.971 179.1 217.8C180.496 216.415 181.509 214.693 182.04 212.8C182.796 210.033 183.134 207.167 183.04 204.3C183.04 199.58 182.25 195.87 180.68 193.3C180.066 192.12 179.136 191.134 177.993 190.454C176.85 189.774 175.54 189.426 174.21 189.45ZM174.21 213.59C173.51 213.571 172.832 213.346 172.261 212.942C171.69 212.537 171.251 211.973 171 211.32C170.28 209.91 169.93 207.69 169.93 204.55C169.93 201.41 170.28 199.15 171 197.74C171.249 197.096 171.681 196.539 172.242 196.138C172.804 195.736 173.47 195.508 174.16 195.48C174.855 195.498 175.53 195.718 176.103 196.112C176.677 196.506 177.123 197.057 177.39 197.7C178.12 199.1 178.47 201.2 178.47 204.14C178.47 207.61 178.13 209.98 177.47 211.36C177.214 212.009 176.772 212.567 176.199 212.964C175.625 213.361 174.947 213.579 174.25 213.59H174.21ZM174.16 196.49C173.655 196.523 173.171 196.704 172.767 197.01C172.364 197.316 172.059 197.733 171.89 198.21C171.25 199.45 170.89 201.59 170.89 204.56C170.89 207.53 171.21 209.63 171.89 210.87C172.063 211.354 172.376 211.776 172.789 212.082C173.202 212.388 173.697 212.565 174.21 212.59C174.72 212.575 175.214 212.407 175.629 212.11C176.044 211.813 176.361 211.398 176.54 210.92C177.16 209.7 177.47 207.42 177.47 204.15C177.589 202.1 177.247 200.05 176.47 198.15C176.288 197.686 175.979 197.284 175.577 196.99C175.175 196.696 174.697 196.522 174.2 196.49H174.16Z" fill="black"/>
<path d="M198.33 189.47H203.89V207.38C203.894 209.059 203.727 210.735 203.39 212.38C203.106 213.838 202.579 215.237 201.83 216.52C201.265 217.642 200.38 218.573 199.288 219.194C198.195 219.815 196.944 220.099 195.69 220.01C194.726 220 193.765 219.9 192.82 219.71C191.861 219.54 190.964 219.119 190.22 218.49C189.424 217.752 188.776 216.87 188.31 215.89C187.739 214.804 187.338 213.637 187.12 212.43C186.796 210.756 186.621 209.055 186.6 207.35V189.43H192.16V207.77C192.089 209.103 192.372 210.431 192.98 211.62C193.197 212.033 193.523 212.378 193.922 212.619C194.321 212.86 194.779 212.987 195.245 212.987C195.711 212.987 196.169 212.86 196.568 212.619C196.967 212.378 197.293 212.033 197.51 211.62C198.119 210.425 198.402 209.09 198.33 207.75V189.42V189.47Z" fill="white"/>
<path d="M195.69 220.54C194.682 220.534 193.678 220.43 192.69 220.23C191.645 220.042 190.668 219.579 189.86 218.89C189.03 218.108 188.351 217.179 187.86 216.15C187.268 215.019 186.85 213.805 186.62 212.55C186.301 210.844 186.127 209.115 186.1 207.38V188.96H192.66V207.8C192.59 209.042 192.849 210.28 193.41 211.39C193.58 211.731 193.842 212.018 194.166 212.219C194.49 212.42 194.864 212.526 195.245 212.526C195.626 212.526 196 212.42 196.324 212.219C196.648 212.018 196.91 211.731 197.08 211.39C197.643 210.277 197.902 209.035 197.83 207.79V188.95H204.39V207.36C204.399 209.083 204.228 210.802 203.88 212.49C203.58 214.003 203.033 215.456 202.26 216.79C201.652 217.988 200.705 218.981 199.537 219.644C198.368 220.308 197.03 220.612 195.69 220.52V220.54ZM187.1 189.96V207.38C187.123 209.058 187.294 210.732 187.61 212.38C187.822 213.537 188.206 214.656 188.75 215.7C189.191 216.622 189.802 217.453 190.55 218.15C191.227 218.724 192.045 219.107 192.92 219.26C195.61 219.79 197.74 219.6 199.33 218.62C200.193 218.02 200.902 217.225 201.4 216.3C202.119 215.059 202.626 213.708 202.9 212.3C203.231 210.678 203.395 209.026 203.39 207.37V189.96H198.83V207.8C198.905 209.225 198.598 210.644 197.94 211.91C197.68 212.4 197.292 212.809 196.818 213.095C196.343 213.381 195.799 213.532 195.245 213.532C194.691 213.532 194.147 213.381 193.672 213.095C193.198 212.809 192.81 212.4 192.55 211.91C191.894 210.647 191.587 209.231 191.66 207.81V189.97L187.1 189.96Z" fill="black"/>
<path d="M216.65 208.64V202.39H225.26V215.2C224.031 216.715 222.553 218.01 220.89 219.03C219.491 219.728 217.942 220.072 216.38 220.03C214.466 220.109 212.593 219.459 211.14 218.21C209.626 216.71 208.541 214.831 208 212.77C207.221 210.08 206.846 207.29 206.89 204.49C206.835 201.59 207.247 198.699 208.11 195.93C208.738 193.779 209.978 191.858 211.68 190.4C213.107 189.363 214.848 188.847 216.61 188.94C218.155 188.839 219.698 189.154 221.08 189.85C222.147 190.536 223.002 191.506 223.55 192.65C224.28 194.166 224.776 195.785 225.02 197.45L219.64 199.05C219.499 198.099 219.109 197.202 218.51 196.45C218.264 196.162 217.957 195.932 217.611 195.776C217.265 195.62 216.889 195.543 216.51 195.55C215.869 195.578 215.25 195.794 214.731 196.171C214.212 196.548 213.815 197.069 213.59 197.67C212.86 199.09 212.5 201.32 212.5 204.39C212.5 207.64 212.86 209.97 213.6 211.39C213.851 212.001 214.275 212.524 214.821 212.896C215.367 213.268 216.01 213.471 216.67 213.48C217.291 213.481 217.903 213.326 218.45 213.03C219.189 212.618 219.863 212.099 220.45 211.49V208.66L216.65 208.64Z" fill="white"/>
<path d="M216.38 220.54C214.336 220.61 212.343 219.894 210.81 218.54C209.226 216.984 208.093 215.028 207.53 212.88C206.731 210.143 206.346 207.301 206.39 204.45C206.337 201.496 206.756 198.552 207.63 195.73C208.293 193.491 209.588 191.491 211.36 189.97C212.88 188.864 214.732 188.31 216.61 188.4C218.248 188.3 219.883 188.646 221.34 189.4C222.487 190.132 223.405 191.171 223.99 192.4C224.746 193.98 225.259 195.666 225.51 197.4L225.58 197.84L219.25 199.72L219.15 199.18C219.022 198.318 218.678 197.503 218.15 196.81C217.947 196.573 217.693 196.384 217.408 196.258C217.122 196.131 216.812 196.071 216.5 196.08C215.95 196.109 215.421 196.3 214.98 196.63C214.539 196.959 214.205 197.411 214.02 197.93C213.219 199.995 212.878 202.21 213.02 204.42C213.02 207.58 213.37 209.84 214.02 211.16C214.233 211.687 214.595 212.14 215.063 212.464C215.53 212.787 216.082 212.967 216.65 212.98C217.191 212.98 217.724 212.846 218.2 212.59C218.815 212.229 219.38 211.788 219.88 211.28V209.16H216.15V201.91H225.76V215.41L225.63 215.55C224.366 217.114 222.84 218.447 221.12 219.49C219.65 220.224 218.022 220.585 216.38 220.54ZM216.61 189.45C214.962 189.363 213.332 189.839 211.99 190.8C210.368 192.202 209.184 194.042 208.58 196.1C207.737 198.818 207.335 201.654 207.39 204.5C207.35 207.252 207.718 209.995 208.48 212.64C208.996 214.614 210.032 216.413 211.48 217.85C212.84 219.014 214.591 219.618 216.38 219.54C217.864 219.561 219.33 219.218 220.65 218.54C222.212 217.586 223.601 216.376 224.76 214.96V202.84H217.15V208.09H220.88V211.63L220.73 211.78C220.124 212.415 219.43 212.96 218.67 213.4C218.055 213.731 217.368 213.906 216.67 213.91C215.918 213.903 215.185 213.676 214.561 213.257C213.937 212.837 213.45 212.244 213.16 211.55C212.38 210.07 212 207.72 212 204.35C212 201.17 212.37 198.9 213.14 197.4C213.406 196.715 213.867 196.124 214.466 195.699C215.065 195.274 215.776 195.034 216.51 195.01C216.964 194.999 217.415 195.09 217.83 195.275C218.245 195.46 218.614 195.735 218.91 196.08C219.455 196.75 219.839 197.537 220.03 198.38L224.46 197.06C224.222 195.592 223.77 194.167 223.12 192.83C222.617 191.768 221.827 190.867 220.84 190.23C219.522 189.605 218.064 189.336 216.61 189.45Z" fill="black"/>
<path d="M228.6 189.47H234.17V199.99H240.26V189.47H245.86V219.53H240.26V207.37H234.17V219.53H228.6V189.47Z" fill="white"/>
<path d="M246.36 220.03H239.76V207.87H234.67V220.03H228.09V188.97H234.67V199.49H239.76V188.97H246.36V220.03ZM240.76 219.03H245.36V189.97H240.76V200.49H233.67V189.97H229.09V219.03H233.67V206.87H240.76V219.03Z" fill="black"/>
<path d="M248.3 189.47H265.24V196.89H259.55V219.53H254V196.89H248.31V189.47H248.3Z" fill="white"/>
<path d="M260.05 220.03H253.48V197.39H247.79V188.97H265.74V197.39H260.05V220.03ZM254.48 219.03H259.05V196.39H264.74V189.97H248.79V196.39H254.48V219.03Z" fill="black"/>
<path d="M134.49 137.32L113.49 106.62L132 69.3199C132.398 68.5192 132.595 67.6338 132.574 66.7401C132.553 65.8463 132.315 64.9711 131.88 64.1899L110.25 25.3999C109.898 24.7689 109.425 24.2134 108.859 23.7651C108.292 23.3168 107.643 22.9845 106.948 22.7872C106.252 22.5899 105.526 22.5314 104.808 22.6151C104.09 22.6987 103.396 22.9229 102.765 23.2749C102.134 23.6268 101.578 24.0996 101.13 24.6662C100.682 25.2328 100.35 25.8823 100.152 26.5773C99.955 27.2724 99.8965 27.9995 99.9802 28.7171C100.064 29.4348 100.288 30.1288 100.64 30.7598L120.86 67.0198L102.23 104.6C101.798 105.475 101.606 106.449 101.674 107.423C101.743 108.396 102.069 109.334 102.62 110.14L121.16 137.31H104.16L83.1599 106.6L101.64 69.3199C102.038 68.521 102.235 67.6372 102.214 66.7451C102.193 65.8529 101.955 64.9793 101.52 64.1999L79.8899 25.3999C79.1791 24.1255 77.9914 23.1857 76.5876 22.7872C75.1839 22.3887 73.6794 22.5641 72.405 23.2749C71.1307 23.9856 70.1908 25.1736 69.7922 26.5773C69.3937 27.9811 69.5693 29.4855 70.28 30.7598L90.5 67.0198L72 104.63C71.5676 105.505 71.3758 106.479 71.4443 107.453C71.5129 108.426 71.8392 109.364 72.3899 110.17L90.8999 137.32H74.78L53.78 106.61L72.3 69.3199C72.6977 68.521 72.8944 67.6372 72.8735 66.7451C72.8526 65.8529 72.6146 64.9793 72.1799 64.1999L50.55 25.3999C49.8393 24.1255 48.6513 23.1857 47.2476 22.7872C45.8438 22.3887 44.3393 22.5641 43.0649 23.2749C41.7906 23.9856 40.8509 25.1736 40.4524 26.5773C40.0539 27.9811 40.2292 29.4855 40.9399 30.7598L61.1599 67.0198L42.54 104.6C42.1042 105.473 41.9095 106.448 41.9763 107.422C42.0431 108.396 42.3688 109.334 42.9199 110.14L61.47 137.31H36.47C34.4808 137.31 32.5733 138.1 31.1667 139.507C29.7602 140.913 28.97 142.821 28.97 144.81C28.97 146.799 29.7602 148.707 31.1667 150.113C32.5733 151.52 34.4808 152.31 36.47 152.31H149.42C151.409 152.31 153.317 151.52 154.723 150.113C156.13 148.707 156.92 146.799 156.92 144.81C156.92 142.821 156.13 140.913 154.723 139.507C153.317 138.1 151.409 137.31 149.42 137.31H134.48" fill="#F78C21"/>
<path d="M149.43 152.83H36.48C34.3582 152.83 32.3235 151.987 30.8232 150.487C29.323 148.986 28.48 146.952 28.48 144.83C28.48 142.708 29.323 140.673 30.8232 139.173C32.3235 137.673 34.3582 136.83 36.48 136.83H60.48L42.48 110.45C41.8881 109.575 41.5376 108.56 41.4639 107.506C41.3901 106.453 41.5958 105.399 42.0601 104.45L60.5701 67.1099L40.48 31.1099C39.7451 29.7232 39.5828 28.1038 40.0278 26.5988C40.4729 25.0939 41.4899 23.8232 42.8608 23.0593C44.2317 22.2953 45.8476 22.0989 47.3616 22.5122C48.8756 22.9254 50.1673 23.9154 50.96 25.2699L72.5901 64.0599C73.0639 64.9111 73.3233 65.8649 73.3459 66.8388C73.3686 67.8128 73.1537 68.7776 72.72 69.6499L54.3701 106.65L75.02 136.9H90L72 110.51C71.4081 109.635 71.0576 108.62 70.9839 107.566C70.9101 106.513 71.1158 105.458 71.5801 104.51L90.0901 67.1699L69.99 31.1699C69.2551 29.7832 69.0928 28.1637 69.5378 26.6588C69.9829 25.1538 70.9999 23.8832 72.3708 23.1192C73.7418 22.3553 75.3576 22.1588 76.8716 22.5721C78.3856 22.9854 79.6773 23.9754 80.47 25.3299L102.1 64.12C102.576 64.9703 102.837 65.9236 102.861 66.8975C102.885 67.8715 102.672 68.8368 102.24 69.7099L83.8899 106.71L104.53 136.96H120.27L102.27 110.57C101.678 109.695 101.328 108.68 101.254 107.626C101.18 106.573 101.386 105.519 101.85 104.57L120.36 67.2299L100.27 31.2299C99.5351 29.8432 99.3728 28.2238 99.8179 26.7188C100.263 25.2139 101.28 23.9432 102.651 23.1793C104.022 22.4153 105.638 22.2189 107.152 22.6322C108.666 23.0454 109.957 24.0354 110.75 25.3899L132.38 64.1799C132.855 65.0303 133.117 65.9837 133.141 66.9576C133.166 67.9316 132.952 68.8967 132.52 69.7699L114.17 106.77L134.81 137.01H149.49C151.612 137.01 153.647 137.853 155.147 139.353C156.647 140.853 157.49 142.888 157.49 145.01C157.49 147.132 156.647 149.166 155.147 150.667C153.647 152.167 151.612 153.01 149.49 153.01L149.43 152.83ZM36.48 137.83C34.6235 137.83 32.843 138.567 31.5303 139.88C30.2175 141.193 29.48 142.973 29.48 144.83C29.48 146.686 30.2175 148.467 31.5303 149.78C32.843 151.092 34.6235 151.83 36.48 151.83H149.43C151.286 151.83 153.067 151.092 154.38 149.78C155.692 148.467 156.43 146.686 156.43 144.83C156.43 142.973 155.692 141.193 154.38 139.88C153.067 138.567 151.286 137.83 149.43 137.83H134.49V137.33L134.07 137.61L113 106.67L131.61 69.12C131.97 68.394 132.148 67.5914 132.129 66.7813C132.109 65.9713 131.894 65.1781 131.5 64.4699L109.87 25.6699C109.56 25.0783 109.135 24.5548 108.62 24.1302C108.104 23.7056 107.509 23.3885 106.869 23.1977C106.229 23.0069 105.558 22.9461 104.894 23.0191C104.23 23.0921 103.588 23.2973 103.005 23.6226C102.421 23.948 101.909 24.3868 101.499 24.9133C101.088 25.4397 100.787 26.0431 100.613 26.6878C100.439 27.3326 100.396 28.0056 100.487 28.6672C100.577 29.3288 100.799 29.9655 101.14 30.5399L121.48 67.0399L121.37 67.2799L102.74 104.85C102.353 105.64 102.182 106.519 102.243 107.397C102.305 108.275 102.597 109.121 103.09 109.85L122.17 137.85H104.77V138.96L103.86 137.64L82.73 106.64L101.34 69.0999C101.702 68.3727 101.88 67.5683 101.861 66.7563C101.842 65.9444 101.625 65.1493 101.23 64.4399L79.6001 25.6399C78.9353 24.519 77.8591 23.702 76.6008 23.3629C75.3426 23.0237 74.0018 23.1892 72.8638 23.8241C71.7257 24.4589 70.8804 25.513 70.5081 26.7618C70.1357 28.0106 70.2656 29.3554 70.8701 30.5098L91.21 67.0098L91.1001 67.25L72.47 104.82C72.0831 105.61 71.9117 106.489 71.9731 107.367C72.0346 108.245 72.3269 109.091 72.8201 109.82L91.8999 137.82H74.5701L53.29 106.6L71.9099 69.0599C72.2699 68.3318 72.4472 67.527 72.4263 66.715C72.4054 65.9031 72.187 65.1085 71.79 64.3999L50.1599 25.5999C49.4951 24.4791 48.4191 23.6621 47.1609 23.323C45.9027 22.9838 44.5616 23.1492 43.4236 23.784C42.2855 24.4189 41.4405 25.473 41.0681 26.7218C40.6957 27.9706 40.8255 29.3155 41.4299 30.4699L61.78 66.9699L61.6599 67.2099L43 104.85C42.6131 105.64 42.4417 106.519 42.5032 107.397C42.5646 108.275 42.8569 109.121 43.3501 109.85L61.75 136.79H61.99V138.91L61.22 137.79L36.48 137.83Z" fill="black"/>
</svg>
