<svg width="300" height="246" viewBox="0 0 300 246" fill="none" xmlns="http://www.w3.org/2000/svg">
<path d="M288 0H12C8.8174 0 5.76515 1.26427 3.51471 3.51471C1.26427 5.76515 0 8.8174 0 12V234C0 237.183 1.26427 240.235 3.51471 242.485C5.76515 244.736 8.8174 246 12 246H288C291.183 246 294.235 244.736 296.485 242.485C298.736 240.235 300 237.183 300 234V12C300 8.8174 298.736 5.76515 296.485 3.51471C294.235 1.26427 291.183 0 288 0Z" fill="#61707E"/>
<path d="M166.28 12.34H15.01C14.2568 12.34 13.5344 12.6392 13.0018 13.1718C12.4692 13.7044 12.17 14.4268 12.17 15.18V159.8C12.1727 160.551 12.473 161.271 13.0053 161.802C13.5377 162.332 14.2585 162.63 15.01 162.63H166.28C167.032 162.63 167.752 162.332 168.285 161.802C168.817 161.271 169.117 160.551 169.12 159.8V15.14C169.109 14.3937 168.806 13.6816 168.274 13.1576C167.743 12.6336 167.026 12.3399 166.28 12.34Z" fill="#D3E2E2"/>
<path d="M181.02 12.34H285.02C285.77 12.3347 286.491 12.626 287.027 13.1506C287.563 13.6751 287.869 14.3903 287.88 15.14V162.63H181.02V12.34Z" fill="#3265FE"/>
<path d="M217.37 80.51H203.5V75.27H211.36C212.062 75.2601 212.749 75.0607 213.348 74.6928C213.946 74.325 214.434 73.8023 214.76 73.18H223.66C223.322 73.6624 223.056 74.1912 222.87 74.75C221.47 78.58 219.64 80.51 217.37 80.51ZM205.07 41.25V21.62H262.39V35.75C261.87 39.0833 260.473 40.9167 258.2 41.25H256.11V43.08H263.17V48.08H256.11V50.44H263.17V55.15H249.56C249.91 56.72 250.61 57.5 251.66 57.5H263.17V63H245.38C242.927 63 239.787 60.3833 235.96 55.15H231.24L228.63 58.29L227.32 59.6C225.22 62.22 223.3 63.44 221.56 63.26H203.76V57.74H215.76C216.63 57.91 217.5 57.04 218.38 55.12H203.76V50.41H210.88V48.05H203.81V43.34H210.88V41.25H205.07ZM204.81 64.8H214.5C214.824 65.4248 215.311 65.9502 215.91 66.32C216.508 66.6898 217.196 66.8902 217.9 66.9H224.7V72.39H211.35C209.263 72.57 207.347 70.74 205.6 66.9C205.25 66.03 204.98 65.34 204.81 64.8ZM252.18 29.21V27.12H215.02V29.21H252.18ZM215.02 33.92V36.01H252.18V33.92H215.02ZM221.02 41.25V43.34H245.88V41.25H221.02ZM245.88 50.41V48.05H221.04V50.41H245.88ZM228.61 74.75V61.4H238.55V74.75C238.55 78.75 236.55 80.75 232.55 80.75H224.7V75.25H227.88C228.37 75.27 228.63 75.1 228.63 74.75H228.61ZM241.96 66.63H250.07C250.94 66.81 251.72 66.29 252.42 65.06H262.11C261.905 65.4849 261.728 65.9224 261.58 66.37C259.66 70.5633 257.567 72.5633 255.3 72.37H241.98V66.61L241.96 66.63ZM242.48 73.96H251.38L252.16 74.75C253.078 75.1071 254.055 75.2836 255.04 75.27H262.63V81.03H250.09C247.3 81.2 244.76 78.85 242.5 73.96H242.48Z" fill="white"/>
<path d="M249.78 81.54C246.92 81.54 244.31 79.06 242.05 74.17L241.72 73.46H251.61L251.76 73.61C251.91 73.78 252.15 74.01 252.46 74.32C253.292 74.6289 254.173 74.7814 255.06 74.77H263.15V81.53H249.78V81.54ZM243.29 74.46C245.36 78.64 247.63 80.68 250.06 80.53H262.15V75.77H255.06C254.01 75.7811 252.968 75.591 251.99 75.21L251.83 75.1L251.19 74.46H243.29ZM232.55 81.27H224.2V74.77H227.88C227.976 74.7821 228.074 74.7821 228.17 74.77V60.9H239.11V74.75C239.07 79.01 236.82 81.27 232.55 81.27ZM225.2 80.27H232.55C236.27 80.27 238.07 78.46 238.07 74.75V61.9H229.13V74.75C229.13 74.99 229.03 75.75 227.84 75.75H225.2V80.27ZM217.37 81.01H203V74.77H211.36C211.982 74.7643 212.591 74.5878 213.12 74.2598C213.649 73.9318 214.078 73.4649 214.36 72.91H211.36C209.09 73.1 206.98 71.16 205.15 67.12C204.79 66.23 204.52 65.52 204.35 64.98L204.13 64.32H214.78L214.93 64.56C215.212 65.1149 215.641 65.5818 216.17 65.9098C216.699 66.2378 217.308 66.4143 217.93 66.42H225.23V72.91H224.48L224.1 73.48C223.793 73.9235 223.551 74.4083 223.38 74.92C221.88 78.96 219.88 81.01 217.37 81.01ZM204 80.01H217.37C219.37 80.01 221.09 78.18 222.37 74.58C222.475 74.2714 222.602 73.9706 222.75 73.68H215C214.62 74.3147 214.082 74.8405 213.439 75.2066C212.796 75.5727 212.07 75.7668 211.33 75.77H203.97L204 80.01ZM205.52 65.34C205.66 65.75 205.85 66.22 206.06 66.75C207.69 70.34 209.46 72.08 211.31 71.93H224.2V67.44H217.88C217.138 67.4355 216.409 67.24 215.765 66.8721C215.12 66.5043 214.581 65.9766 214.2 65.34H205.52ZM255.59 72.94H241.48V66.18H250.09C250.42 66.24 251.09 66.39 252.01 64.87L252.15 64.61H262.94L262.57 65.34C262.378 65.7416 262.215 66.1559 262.08 66.58C260.133 70.8 257.97 72.9067 255.59 72.9V72.94ZM242.48 71.94H255.32C257.38 72.09 259.32 70.17 261.15 66.21C261.21 66.01 261.29 65.81 261.36 65.61H252.73C251.94 66.86 251.02 67.38 249.99 67.17H242.48V71.94ZM221.88 63.75H203.26V57.24H215.8C216.39 57.35 217 56.77 217.62 55.62H203.26V49.91H210.33V48.55H203.26V42.84H210.33V41.75H204.57V21.12H262.88V35.75C262.31 39.37 260.77 41.36 258.27 41.75H256.6V42.58H263.66V48.58H256.6V49.94H263.66V55.65H250.22C250.68 57 251.4 57 251.66 57H263.66V63.5H245.38C242.77 63.5 239.61 60.93 235.7 55.65H231.48L229.01 58.65L227.67 59.99C225.65 62.45 223.7 63.75 221.88 63.75ZM204.25 62.75H221.55C223.15 62.91 224.94 61.75 226.92 59.28L228.26 57.93L231 54.64H236.2L236.35 54.84C240.07 59.92 243.1 62.49 245.35 62.49H262.64V57.99H251.64C250.74 57.99 249.56 57.52 249.06 55.25L248.92 54.64H262.65V50.93H255.59V47.57H262.65V43.57H255.59V40.74H258.18C260.18 40.43 261.39 38.74 261.88 35.66V22.12H205.57V40.75H211.33V43.84H204.26V47.55H211.33V50.91H204.26V54.62H219.2L218.88 55.34C218.52 56.14 217.41 58.58 215.71 58.24H204.26L204.25 62.75ZM246.39 50.93H220.54V47.57H246.4L246.39 50.93ZM221.53 49.93H245.39V48.57H221.54L221.53 49.93ZM246.39 43.86H220.54V40.77H246.4L246.39 43.86ZM221.53 42.86H245.39V41.77H221.54L221.53 42.86ZM252.67 36.53H214.52V33.44H252.68L252.67 36.53ZM215.51 35.53H251.68V34.44H215.52L215.51 35.53ZM252.67 29.73H214.52V26.63H252.68L252.67 29.73ZM215.51 28.73H251.68V27.63H215.52L215.51 28.73Z" fill="black"/>
<path d="M287.88 175.01V230.86C287.877 231.611 287.577 232.331 287.045 232.862C286.512 233.392 285.791 233.69 285.04 233.69H104.37V175.01H287.88Z" fill="#3265FE"/>
<path d="M92.94 233.69H15.01C14.2585 233.69 13.5377 233.392 13.0053 232.862C12.473 232.331 12.1727 231.611 12.17 230.86V175.01H92.94V233.69Z" fill="#3265FE"/>
<path d="M204.81 100.85V94.34H264.48V100.89H239.62V103.5H264.48V126.8H255.88V109.48H239.62V126.23H230.46V109.48H213.46V126.76H204.82V103.46H230.47V100.85H204.81ZM255.59 135.65H206.38V128.85H264.22V147.69C264.567 152.577 262.213 154.847 257.16 154.5H206.16V147.69H254.84C255.36 147.69 255.63 147.35 255.63 146.69V145.34H205.07V138.53H255.59V135.65ZM215.02 126.76V122.05H218.42C218.633 122.08 218.85 122.06 219.055 121.992C219.259 121.923 219.444 121.809 219.596 121.656C219.749 121.504 219.863 121.319 219.932 121.115C220 120.91 220.02 120.693 219.99 120.48V120.21H227.88V122.34C227.88 125.48 226.397 126.963 223.43 126.79L215.02 126.76ZM215.54 113.67V111.84H223.66V112.89C223.48 113.41 224.35 113.67 226.27 113.67H228.63V118.12H219.73C216.943 118.12 215.547 116.637 215.54 113.67ZM254.01 126.76H246.42C242.76 126.93 241.01 125.71 241.19 123.09V119.95H249.3V120.74C249.13 121.74 249.74 122.31 251.14 122.31H254.01V126.76ZM241.19 118.12V113.67H244.33C245.2 113.67 245.64 113.15 245.64 112.1V111.58H253.49V114.72C253.66 117.16 252.01 118.3 248.49 118.12H241.19Z" fill="white"/>
<path d="M258.11 155.03H205.61V147.22H254.79C254.92 147.22 255.08 147.22 255.08 146.68V145.87H204.57V138.06H255.09V136.18H205.88V128.34H264.72V147.68C264.9 150.19 264.37 152.1 263.13 153.34C262.449 153.943 261.653 154.403 260.791 154.693C259.929 154.983 259.017 155.098 258.11 155.03ZM206.62 154.03H257.16C259.6 154.2 261.36 153.74 262.42 152.67C263.48 151.6 263.88 150 263.72 147.76V129.34H206.88V135.14H256.09V139.02H205.57V144.83H256.09V146.64C256.09 148.07 255.09 148.18 254.8 148.18H206.62V154.03ZM245.73 127.3C244.994 127.371 244.252 127.295 243.546 127.075C242.84 126.855 242.185 126.496 241.62 126.02C241.261 125.629 240.992 125.164 240.831 124.658C240.671 124.152 240.623 123.617 240.69 123.09V119.48H249.8V120.77C249.72 121.3 249.85 121.45 249.9 121.51C250.255 121.776 250.7 121.894 251.14 121.84H254.51V127.29H245.73V127.3ZM241.73 120.48V123.12C241.67 123.511 241.696 123.911 241.806 124.291C241.917 124.671 242.109 125.022 242.37 125.32C243.09 126.06 244.46 126.38 246.44 126.32H253.55V122.87H251.18C250.816 122.908 250.449 122.866 250.103 122.747C249.758 122.628 249.443 122.434 249.18 122.18C249.021 121.974 248.909 121.735 248.854 121.481C248.799 121.227 248.801 120.963 248.86 120.71V120.51L241.73 120.48ZM223.88 127.27H214.55V121.56H218.45C219.22 121.56 219.52 121.25 219.52 120.48V119.72H228.37V122.34C228.428 123.045 228.34 123.754 228.111 124.424C227.882 125.093 227.517 125.708 227.04 126.23C226.161 126.973 225.028 127.346 223.88 127.27ZM215.55 126.27H223.42C223.936 126.345 224.463 126.314 224.967 126.178C225.471 126.043 225.941 125.805 226.35 125.48C226.723 125.049 227.005 124.547 227.177 124.003C227.349 123.46 227.408 122.887 227.35 122.32V120.72H220.48C220.479 120.98 220.423 121.238 220.316 121.475C220.209 121.712 220.053 121.925 219.859 122.098C219.665 122.271 219.436 122.402 219.189 122.482C218.941 122.561 218.679 122.588 218.42 122.56H215.52L215.55 126.27ZM265.01 127.27H255.38V109.98H240.12V126.73H229.96V109.98H213.96V127.26H204.32V102.96H229.97V101.34H204.31V93.8H264.98V101.34H240.12V102.96H264.98L265.01 127.27ZM256.38 126.27H264.01V103.97H239.12V100.34H263.98V94.8H205.31V100.34H230.96V103.96H205.31V126.26H212.95V108.98H230.95V125.73H239.11V108.98H256.34L256.38 126.27ZM249.24 118.65H240.72V113.2H244.36C244.75 113.2 245.17 113.12 245.17 112.13V111.13H254.02V114.77C254.083 115.256 254.038 115.749 253.89 116.215C253.741 116.682 253.492 117.11 253.16 117.47C252.614 117.92 251.982 118.255 251.304 118.456C250.625 118.657 249.913 118.72 249.21 118.64L249.24 118.65ZM241.72 117.65H248.55C250.46 117.74 251.77 117.44 252.44 116.75C252.681 116.482 252.859 116.163 252.959 115.816C253.06 115.47 253.081 115.106 253.02 114.75V112.08H246.17C246.17 113.95 244.91 114.15 244.36 114.15H241.72V117.65ZM229.16 118.65H219.76C216.69 118.65 215.07 116.94 215.07 113.7V111.34H224.19V112.93C224.87 113.152 225.588 113.233 226.3 113.17H229.16V118.65ZM216.04 112.34V113.67C216.04 116.36 217.21 117.62 219.73 117.62H228.13V114.17H226.27C224.07 114.17 223.53 113.83 223.27 113.49C223.2 113.395 223.152 113.285 223.13 113.17C223.107 113.054 223.111 112.934 223.14 112.82V112.34H216.04Z" fill="black"/>
<path d="M73.49 225.75H31.63V220.75H32.88V208.45H71.88V220.75H73.53L73.49 225.75ZM31.82 186.09H36.04L35.3 183.89H43.38L44.3 186.09H61.19L61.93 183.89H70L69.27 186.09H73.49V191.42H31.82V186.09ZM32.73 206.84V193.25H38.98V206.84H32.73ZM38.98 220.84H44.3V213.84H38.98V220.84ZM42.46 206.84V193.25H48.16V206.84H42.46ZM49.81 195.46H52.56C52.9496 195.534 53.3528 195.462 53.6923 195.257C54.0318 195.052 54.2838 194.729 54.4 194.35L55.32 192.52H61.56L61.37 193.07H73.49V197.66H60.09L59.54 198.76C59.4018 199.17 59.1288 199.52 58.7655 199.755C58.4022 199.989 57.9702 200.093 57.54 200.05H49.83V195.46H49.81ZM49.81 213.82V220.82H54.95V213.82H49.81ZM52.38 205.19L49.99 200.78H57.34L57.89 201.51C58.01 202.25 58.56 202.56 59.54 202.43H73.49V206.84H56.42C54.09 206.96 52.75 206.41 52.38 205.19ZM60.82 220.79H66.15V213.79H60.82V220.79Z" fill="white"/>
<path d="M73.99 226.25H31.13V220.25H32.42V207.95H72.34V220.34H73.99V226.25ZM32.13 225.25H72.99V221.25H71.34V208.95H33.42V221.34H32.13V225.25ZM66.65 221.25H60.32V213.25H66.65V221.25ZM61.32 220.25H65.65V214.25H61.32V220.25ZM55.45 221.25H49.31V213.25H55.45V221.25ZM50.31 220.25H54.45V214.25H50.31V220.25ZM44.8 221.25H38.48V213.25H44.8V221.25ZM39.48 220.25H43.8V214.25H39.48V220.25ZM55.8 207.34C53.65 207.34 52.34 206.67 51.92 205.34L49.15 200.24H49.31V194.92H52.56C52.8487 194.988 53.1526 194.944 53.4093 194.795C53.666 194.646 53.8559 194.405 53.94 194.12L55.01 191.98H62.25L62.07 192.53H73.99V198.12H60.4L59.99 198.94C59.8226 199.392 59.5254 199.783 59.1357 200.066C58.7459 200.349 58.2812 200.511 57.8 200.53L58.36 201.27V201.39C58.36 201.61 58.46 202.03 59.46 201.9H73.97V207.34H55.8ZM50.8 201.26L52.8 205.02C53.09 206.02 54.27 206.43 56.33 206.32H72.93V202.91H59.54C58.03 203.11 57.54 202.29 57.42 201.7L57.09 201.26H50.8ZM50.28 199.53H57.49C57.96 199.59 58.55 199.53 59.06 198.53L59.75 197.15H72.96V193.56H60.68L60.86 193.01H55.63L54.85 194.57C54.6826 195.041 54.3535 195.437 53.9213 195.688C53.4891 195.939 52.9819 196.028 52.49 195.94H50.31L50.28 199.53ZM48.66 207.34H41.96V192.75H48.66V207.34ZM42.96 206.34H47.66V193.75H42.96V206.34ZM39.48 207.34H32.23V192.75H39.48V207.34ZM33.23 206.34H38.48V193.75H33.23V206.34ZM73.99 191.92H31.32V185.59H35.32L34.59 183.39H43.7L44.61 185.59H60.88L61.62 183.39H70.75L70.01 185.59H74.01L73.99 191.92ZM32.32 190.92H72.99V186.59H68.58L69.31 184.39H62.31L61.57 186.59H43.97L43.05 184.39H36L36.73 186.59H32.32V190.92Z" fill="black"/>
<path d="M108.79 210.53L113.59 210.03C113.63 211.059 113.847 212.074 114.23 213.03C114.388 213.498 114.686 213.907 115.082 214.202C115.479 214.496 115.956 214.663 116.45 214.68C116.778 214.695 117.104 214.624 117.397 214.475C117.69 214.326 117.939 214.104 118.12 213.83C118.523 213.243 118.726 212.542 118.7 211.83C118.713 211.154 118.517 210.491 118.14 209.93C117.45 209.168 116.554 208.623 115.56 208.36C113.68 207.77 112.028 206.614 110.83 205.05C109.827 203.488 109.331 201.655 109.41 199.8C109.396 198.433 109.641 197.076 110.13 195.8C110.564 194.631 111.328 193.613 112.33 192.87C113.516 192.099 114.917 191.724 116.33 191.8C117.22 191.742 118.112 191.886 118.938 192.222C119.764 192.558 120.503 193.077 121.1 193.74C122.2 195.027 122.867 197.083 123.1 199.91L118.34 200.37C118.304 199.428 118.033 198.51 117.55 197.7C117.359 197.435 117.106 197.221 116.813 197.076C116.52 196.931 116.197 196.861 115.87 196.87C115.615 196.852 115.36 196.899 115.129 197.007C114.898 197.116 114.698 197.282 114.55 197.49C114.241 197.932 114.083 198.461 114.1 199C114.098 199.419 114.227 199.828 114.47 200.17C114.922 200.664 115.51 201.012 116.16 201.17C117.863 201.7 119.465 202.511 120.9 203.57C121.843 204.372 122.56 205.406 122.98 206.57C123.424 207.856 123.644 209.209 123.63 210.57C123.648 212.217 123.353 213.853 122.76 215.39C122.287 216.716 121.444 217.879 120.33 218.74C119.177 219.534 117.799 219.934 116.4 219.88C113.633 219.88 111.713 218.99 110.64 217.21C109.492 215.166 108.858 212.873 108.79 210.53Z" fill="white"/>
<path d="M116.37 220.49C113.42 220.49 111.37 219.49 110.18 217.58C108.992 215.434 108.343 213.032 108.29 210.58V210.11L114.07 209.51V210.02C114.109 210.976 114.309 211.92 114.66 212.81C114.785 213.189 115.02 213.522 115.335 213.766C115.651 214.01 116.032 214.154 116.43 214.18C116.677 214.195 116.923 214.144 117.144 214.034C117.365 213.923 117.554 213.756 117.69 213.55C118.024 213.055 118.196 212.467 118.18 211.87C118.191 211.298 118.027 210.736 117.71 210.26C117.083 209.577 116.27 209.094 115.37 208.87C113.383 208.25 111.637 207.031 110.37 205.38C109.309 203.736 108.781 201.805 108.86 199.85C108.85 198.434 109.108 197.03 109.62 195.71C110.088 194.452 110.907 193.355 111.98 192.55C113.258 191.718 114.767 191.312 116.29 191.39C117.253 191.331 118.217 191.491 119.109 191.858C120.001 192.226 120.798 192.79 121.44 193.51C122.6 194.88 123.3 197.05 123.51 199.96V200.45L117.78 201.01L117.72 200.51C117.691 199.655 117.451 198.82 117.02 198.08C116.878 197.878 116.687 197.715 116.465 197.606C116.243 197.498 115.997 197.447 115.75 197.46C115.574 197.441 115.396 197.469 115.235 197.541C115.073 197.613 114.933 197.726 114.83 197.87C114.588 198.23 114.466 198.657 114.48 199.09C114.474 199.406 114.573 199.715 114.76 199.97C114.86 200.13 115.18 200.43 116.2 200.79C117.962 201.337 119.619 202.179 121.1 203.28C122.116 204.141 122.885 205.255 123.33 206.51C123.797 207.86 124.027 209.281 124.01 210.71C124.027 212.418 123.722 214.115 123.11 215.71C122.6 217.123 121.698 218.361 120.51 219.28C119.292 220.109 117.843 220.533 116.37 220.49ZM109.32 210.98C109.412 213.113 110.001 215.195 111.04 217.06C112.04 218.7 113.76 219.49 116.37 219.49C117.659 219.553 118.934 219.203 120.01 218.49C121.038 217.675 121.82 216.592 122.27 215.36C122.833 213.879 123.115 212.305 123.1 210.72C123.117 209.407 122.907 208.101 122.48 206.86C122.094 205.771 121.424 204.804 120.54 204.06C119.154 203.035 117.606 202.251 115.96 201.74C115.207 201.551 114.53 201.136 114.02 200.55C113.722 200.126 113.564 199.619 113.57 199.1C113.553 198.458 113.742 197.827 114.11 197.3C114.306 197.028 114.567 196.809 114.869 196.664C115.171 196.519 115.505 196.452 115.84 196.47C116.242 196.452 116.643 196.534 117.006 196.709C117.369 196.883 117.683 197.145 117.92 197.47C118.387 198.198 118.672 199.028 118.75 199.89L122.53 199.52C122.474 197.582 121.848 195.704 120.73 194.12C120.18 193.513 119.499 193.039 118.738 192.734C117.977 192.429 117.157 192.301 116.34 192.36C115.026 192.297 113.725 192.646 112.62 193.36C111.708 194.054 111.014 194.994 110.62 196.07C110.156 197.276 109.922 198.558 109.93 199.85C109.853 201.613 110.317 203.358 111.26 204.85C112.408 206.324 113.978 207.412 115.76 207.97C116.858 208.259 117.842 208.876 118.58 209.74C119.009 210.378 119.232 211.132 119.22 211.9C119.231 212.701 118.997 213.486 118.55 214.15C118.32 214.487 118.009 214.761 117.646 214.946C117.282 215.131 116.878 215.222 116.47 215.21C115.879 215.198 115.305 215.006 114.826 214.66C114.347 214.313 113.986 213.828 113.79 213.27C113.441 212.433 113.228 211.545 113.16 210.64L109.32 210.98Z" fill="black"/>
<path d="M130.88 192.34L137.02 207.34V192.34H141.78V219.54H137.02L130.88 204.59V219.53H126.14V192.34H130.88Z" fill="white"/>
<path d="M142.28 220.03H136.69L131.41 207.13V220.03H125.67V191.83H131.22L136.52 204.83V191.83H142.28V220.03ZM137.36 219.03H141.28V192.83H137.52V209.92L130.52 192.83H126.65V219.03H130.39V202.03L137.36 219.03Z" fill="black"/>
<path d="M144.5 205.95C144.5 201.51 145.24 198.05 146.72 195.57C147.331 194.452 148.23 193.518 149.325 192.866C150.419 192.213 151.668 191.866 152.942 191.859C154.216 191.853 155.469 192.189 156.569 192.831C157.67 193.473 158.578 194.398 159.2 195.51C160.667 197.943 161.403 201.347 161.41 205.72C161.473 208.362 161.136 210.999 160.41 213.54C159.912 215.338 158.954 216.975 157.63 218.29C156.4 219.433 154.768 220.044 153.09 219.99C151.441 220.054 149.822 219.533 148.52 218.52C147.139 217.273 146.126 215.672 145.59 213.89C144.784 211.323 144.416 208.639 144.5 205.95ZM149.5 205.95C149.374 207.967 149.688 209.987 150.42 211.87C150.602 212.388 150.94 212.836 151.388 213.153C151.836 213.471 152.371 213.641 152.92 213.641C153.469 213.641 154.004 213.471 154.452 213.153C154.9 212.836 155.238 212.388 155.42 211.87C156.02 210.69 156.31 208.58 156.31 205.54C156.429 203.624 156.111 201.706 155.38 199.93C155.178 199.422 154.832 198.983 154.384 198.669C153.936 198.355 153.407 198.178 152.86 198.16C152.321 198.19 151.802 198.376 151.367 198.695C150.932 199.015 150.6 199.454 150.41 199.96C149.682 201.879 149.385 203.934 149.54 205.98L149.5 205.95Z" fill="white"/>
<path d="M153.12 220.49C151.358 220.552 149.631 219.993 148.24 218.91C146.786 217.602 145.717 215.922 145.15 214.05C144.316 211.434 143.927 208.695 144 205.95C144 201.43 144.77 197.86 146.29 195.32C146.945 194.127 147.906 193.131 149.075 192.434C150.245 191.738 151.579 191.367 152.939 191.36C154.3 191.353 155.638 191.71 156.815 192.394C157.991 193.078 158.963 194.064 159.63 195.25C161.14 197.75 161.91 201.25 161.91 205.72C161.976 208.422 161.639 211.118 160.91 213.72C160.383 215.61 159.377 217.332 157.99 218.72C156.657 219.918 154.911 220.553 153.12 220.49ZM152.88 192.34C151.691 192.324 150.52 192.64 149.501 193.253C148.482 193.866 147.654 194.752 147.11 195.81C145.68 198.19 144.96 201.6 144.96 205.93C144.887 208.563 145.256 211.189 146.05 213.7C146.572 215.41 147.55 216.945 148.88 218.14C150.098 219.069 151.6 219.546 153.13 219.49C154.681 219.546 156.191 218.985 157.33 217.93C158.586 216.667 159.498 215.105 159.98 213.39C160.67 210.894 160.987 208.309 160.92 205.72C160.92 201.46 160.2 198.11 158.78 195.72C158.212 194.661 157.357 193.782 156.314 193.185C155.271 192.587 154.081 192.294 152.88 192.34ZM152.88 214.18C152.231 214.173 151.598 213.972 151.064 213.603C150.529 213.235 150.117 212.715 149.88 212.11C149.098 210.159 148.756 208.059 148.88 205.96C148.88 203.08 149.2 201.06 149.88 199.78C150.106 199.19 150.501 198.68 151.015 198.312C151.528 197.944 152.139 197.735 152.77 197.71C153.411 197.714 154.036 197.905 154.569 198.261C155.103 198.616 155.52 199.12 155.77 199.71C156.546 201.554 156.888 203.552 156.77 205.55C156.77 208.7 156.47 210.85 155.83 212.1C155.611 212.693 155.222 213.209 154.711 213.582C154.201 213.956 153.592 214.17 152.96 214.2L152.88 214.18ZM152.88 198.73C152.06 198.73 151.41 199.23 150.88 200.26C149.727 203.976 149.727 207.954 150.88 211.67C151.035 212.099 151.313 212.474 151.679 212.746C152.046 213.018 152.484 213.176 152.94 213.2C153.394 213.185 153.833 213.035 154.202 212.77C154.57 212.505 154.852 212.136 155.01 211.71C155.56 210.61 155.84 208.56 155.84 205.61C155.954 203.774 155.657 201.936 154.97 200.23C154.807 199.802 154.522 199.432 154.151 199.165C153.779 198.899 153.337 198.747 152.88 198.73Z" fill="black"/>
<path d="M162.05 192.34H166.88L168.61 207.57L171.09 192.34H175.88L178.41 207.54L180.14 192.34H184.88L181.28 219.54H176.33L173.47 202.41L170.62 219.54H165.62L162.05 192.34Z" fill="white"/>
<path d="M181.73 220.03H175.88L173.48 205.44L171.05 220.03H165.25L161.48 191.83H167.29L168.66 203.93L170.66 191.83H176.28L178.28 203.93L179.65 191.83H185.44L181.73 220.03ZM176.73 219.03H180.88L184.35 192.83H180.6L178.52 211.14L175.47 192.83H171.54L168.54 211.18L166.46 192.83H162.69L166.19 219.03H170.27L173.48 199.34L176.73 219.03Z" fill="black"/>
<path d="M193.26 210.53L198.06 210.03C198.093 211.059 198.307 212.074 198.69 213.03C198.849 213.5 199.148 213.91 199.546 214.204C199.945 214.499 200.424 214.665 200.92 214.68C201.247 214.694 201.571 214.623 201.862 214.474C202.153 214.325 202.4 214.103 202.58 213.83C202.986 213.244 203.193 212.543 203.17 211.83C203.178 211.155 202.983 210.493 202.61 209.93C201.92 209.168 201.024 208.623 200.03 208.36C198.149 207.773 196.496 206.616 195.3 205.05C194.293 203.489 193.794 201.656 193.87 199.8C193.855 198.432 194.102 197.074 194.6 195.8C195.033 194.633 195.794 193.616 196.79 192.87C197.978 192.102 199.377 191.727 200.79 191.8C201.68 191.743 202.571 191.888 203.397 192.224C204.223 192.56 204.962 193.078 205.56 193.74C206.647 195.027 207.297 197.083 207.51 199.91L202.76 200.37C202.722 199.427 202.447 198.509 201.96 197.7C201.774 197.432 201.524 197.215 201.232 197.07C200.94 196.925 200.616 196.856 200.29 196.87C200.034 196.853 199.778 196.9 199.545 197.009C199.313 197.117 199.111 197.283 198.96 197.49C198.655 197.933 198.5 198.462 198.52 199C198.515 199.418 198.641 199.827 198.88 200.17C199.332 200.664 199.92 201.012 200.57 201.17C202.275 201.696 203.877 202.507 205.31 203.57C206.254 204.371 206.971 205.405 207.39 206.57C207.839 207.855 208.059 209.209 208.04 210.57C208.055 212.216 207.764 213.851 207.18 215.39C206.707 216.716 205.864 217.879 204.75 218.74C203.597 219.534 202.219 219.934 200.82 219.88C198.04 219.88 196.117 218.99 195.05 217.21C193.923 215.16 193.309 212.868 193.26 210.53Z" fill="white"/>
<path d="M200.88 220.49C197.88 220.49 195.88 219.49 194.68 217.58C193.495 215.433 192.85 213.031 192.8 210.58V210.11L198.58 209.51V210.02C198.619 210.976 198.819 211.92 199.17 212.81C199.75 214.04 200.46 214.18 200.95 214.18C201.195 214.194 201.44 214.143 201.659 214.032C201.879 213.922 202.065 213.756 202.2 213.55C202.538 213.056 202.713 212.468 202.7 211.87C202.707 211.297 202.54 210.735 202.22 210.26C201.597 209.566 200.783 209.072 199.88 208.84C197.893 208.22 196.147 207.001 194.88 205.35C193.823 203.704 193.296 201.774 193.37 199.82C193.364 198.405 193.622 197.001 194.13 195.68C194.6 194.421 195.423 193.324 196.5 192.52C197.778 191.688 199.287 191.282 200.81 191.36C201.773 191.301 202.737 191.461 203.629 191.828C204.521 192.196 205.318 192.76 205.96 193.48C207.12 194.85 207.82 197.02 208.03 199.93V200.42L202.3 200.98L202.25 200.48C202.217 199.625 201.976 198.792 201.55 198.05C201.407 197.848 201.216 197.686 200.994 197.577C200.772 197.469 200.527 197.418 200.28 197.43C200.104 197.411 199.926 197.439 199.765 197.511C199.603 197.583 199.463 197.696 199.36 197.84C199.114 198.198 198.991 198.626 199.01 199.06C199.006 199.374 199.1 199.682 199.28 199.94C199.673 200.349 200.177 200.634 200.73 200.76C202.49 201.304 204.144 202.147 205.62 203.25C206.636 204.111 207.405 205.225 207.85 206.48C208.322 207.829 208.553 209.251 208.53 210.68C208.547 212.388 208.242 214.085 207.63 215.68C207.127 217.097 206.224 218.337 205.03 219.25C203.813 220.092 202.36 220.526 200.88 220.49ZM193.83 210.98C193.914 213.113 194.5 215.196 195.54 217.06C196.54 218.7 198.27 219.49 200.88 219.49C202.166 219.555 203.439 219.204 204.51 218.49C205.542 217.679 206.325 216.595 206.77 215.36C207.333 213.879 207.615 212.305 207.6 210.72C207.622 209.407 207.412 208.1 206.98 206.86C206.593 205.771 205.927 204.802 205.05 204.05C203.658 203.038 202.112 202.257 200.47 201.74C199.716 201.554 199.038 201.138 198.53 200.55C198.23 200.127 198.073 199.619 198.08 199.1C198.06 198.459 198.245 197.828 198.61 197.3C198.807 197.026 199.069 196.807 199.373 196.662C199.678 196.516 200.014 196.451 200.35 196.47C200.752 196.454 201.152 196.537 201.515 196.711C201.877 196.885 202.192 197.146 202.43 197.47C202.893 198.199 203.175 199.029 203.25 199.89L207.03 199.52C206.977 197.583 206.355 195.705 205.24 194.12C204.689 193.513 204.008 193.04 203.247 192.735C202.487 192.43 201.667 192.302 200.85 192.36C199.536 192.294 198.234 192.644 197.13 193.36C196.218 194.054 195.524 194.994 195.13 196.07C194.666 197.276 194.432 198.558 194.44 199.85C194.359 201.615 194.827 203.362 195.78 204.85C196.925 206.321 198.491 207.41 200.27 207.97C201.368 208.26 202.354 208.873 203.1 209.73C203.534 210.385 203.766 211.154 203.766 211.94C203.766 212.726 203.534 213.495 203.1 214.15C202.872 214.487 202.563 214.761 202.201 214.946C201.839 215.132 201.436 215.222 201.03 215.21C200.439 215.198 199.865 215.006 199.386 214.66C198.907 214.313 198.546 213.828 198.35 213.27C197.997 212.433 197.781 211.545 197.71 210.64L193.83 210.98Z" fill="black"/>
<path d="M209.46 192.34H224.79V199.05H219.64V219.54H214.64V199.04H209.5V192.34H209.46Z" fill="white"/>
<path d="M220.14 220.03H214.14V199.54H209V191.83H225.33V199.54H220.18L220.14 220.03ZM215.14 219.03H219.14V198.54H224.29V192.83H209.96V198.54H215.1L215.14 219.03Z" fill="black"/>
<path d="M225.65 205.95C225.65 201.51 226.393 198.05 227.88 195.57C228.491 194.452 229.39 193.518 230.485 192.866C231.579 192.213 232.828 191.866 234.102 191.859C235.376 191.853 236.629 192.189 237.729 192.831C238.83 193.473 239.738 194.398 240.36 195.51C241.833 197.943 242.567 201.347 242.56 205.72C242.618 208.362 242.28 210.998 241.56 213.54C241.062 215.338 240.104 216.975 238.78 218.29C237.549 219.432 235.918 220.043 234.24 219.99C232.591 220.054 230.972 219.533 229.67 218.52C228.289 217.273 227.276 215.672 226.74 213.89C225.934 211.323 225.566 208.639 225.65 205.95ZM230.7 205.95C230.569 207.967 230.883 209.988 231.62 211.87C231.802 212.388 232.14 212.836 232.588 213.153C233.036 213.471 233.571 213.641 234.12 213.641C234.669 213.641 235.204 213.471 235.652 213.153C236.1 212.836 236.438 212.388 236.62 211.87C237.22 210.69 237.51 208.58 237.51 205.54C237.629 203.624 237.311 201.706 236.58 199.93C236.378 199.422 236.032 198.983 235.584 198.669C235.136 198.355 234.607 198.178 234.06 198.16C233.521 198.188 233.001 198.374 232.566 198.694C232.131 199.014 231.798 199.454 231.61 199.96C230.865 201.875 230.554 203.931 230.7 205.98V205.95Z" fill="white"/>
<path d="M234.28 220.49C232.518 220.552 230.791 219.993 229.4 218.91C227.942 217.606 226.872 215.924 226.31 214.05C225.471 211.434 225.079 208.696 225.15 205.95C225.15 201.43 225.93 197.86 227.45 195.32C228.105 194.127 229.066 193.131 230.235 192.434C231.405 191.738 232.739 191.367 234.099 191.36C235.46 191.353 236.798 191.71 237.975 192.394C239.151 193.078 240.123 194.064 240.79 195.25C242.3 197.75 243.06 201.25 243.06 205.72C243.125 208.421 242.788 211.118 242.06 213.72C241.533 215.61 240.527 217.332 239.14 218.72C237.809 219.914 236.068 220.548 234.28 220.49ZM234.08 192.34C232.891 192.324 231.72 192.64 230.701 193.253C229.682 193.866 228.853 194.752 228.31 195.81C226.88 198.19 226.15 201.6 226.15 205.93C226.08 208.563 226.452 211.19 227.25 213.7C227.759 215.398 228.72 216.926 230.03 218.12C231.248 219.049 232.75 219.526 234.28 219.47C235.831 219.526 237.341 218.965 238.48 217.91C239.736 216.649 240.646 215.086 241.12 213.37C241.815 210.875 242.132 208.289 242.06 205.7C242.06 201.44 241.35 198.09 239.93 195.7C239.362 194.653 238.514 193.784 237.481 193.191C236.448 192.598 235.271 192.303 234.08 192.34ZM234.08 214.18C233.441 214.161 232.822 213.955 232.299 213.587C231.776 213.219 231.373 212.705 231.14 212.11C230.358 210.159 230.016 208.059 230.14 205.96C230.14 203.08 230.46 201.06 231.14 199.78C231.365 199.189 231.76 198.678 232.273 198.31C232.787 197.942 233.398 197.733 234.03 197.71C234.671 197.715 235.295 197.907 235.828 198.262C236.361 198.618 236.779 199.121 237.03 199.71C237.806 201.554 238.148 203.552 238.03 205.55C238.03 208.7 237.72 210.85 237.09 212.1C236.863 212.709 236.456 213.236 235.925 213.611C235.393 213.985 234.76 214.191 234.11 214.2L234.08 214.18ZM234.08 198.71C233.26 198.71 232.61 199.21 232.08 200.24C230.927 203.956 230.927 207.934 232.08 211.65C232.221 212.087 232.497 212.467 232.868 212.738C233.239 213.008 233.686 213.153 234.145 213.153C234.604 213.153 235.051 213.008 235.422 212.738C235.793 212.467 236.069 212.087 236.21 211.65C236.76 210.55 237.04 208.5 237.04 205.55C237.154 203.714 236.857 201.876 236.17 200.17C235.997 199.752 235.707 199.393 235.334 199.138C234.961 198.882 234.522 198.74 234.07 198.73L234.08 198.71Z" fill="black"/>
<path d="M245.35 219.53V192.34H253.75C254.979 192.274 256.206 192.5 257.33 193C258.258 193.577 258.963 194.451 259.33 195.48C259.869 196.886 260.127 198.384 260.09 199.89C260.115 201.213 259.919 202.531 259.51 203.79C259.184 204.789 258.637 205.701 257.91 206.46C257.403 206.939 256.8 207.304 256.14 207.53C256.636 207.783 257.083 208.121 257.46 208.53C257.775 208.978 258.043 209.457 258.26 209.96C258.536 210.506 258.773 211.071 258.97 211.65L261.41 219.53H255.71L253.02 211.21C252.83 210.468 252.519 209.762 252.1 209.12C251.956 208.929 251.77 208.773 251.557 208.664C251.344 208.555 251.109 208.496 250.87 208.49H250.42V219.49L245.35 219.53ZM250.41 203.34H252.54C253.001 203.278 253.452 203.153 253.88 202.97C254.067 202.89 254.236 202.773 254.375 202.625C254.515 202.477 254.622 202.302 254.69 202.11C254.915 201.618 255.024 201.081 255.01 200.54C255.047 199.838 254.873 199.142 254.51 198.54C254.277 198.28 253.984 198.08 253.656 197.959C253.329 197.837 252.977 197.796 252.63 197.84H250.41V203.34Z" fill="white"/>
<path d="M262.08 220.03H255.34L252.53 211.34C252.361 210.654 252.085 209.999 251.71 209.4C251.615 209.275 251.494 209.171 251.356 209.096C251.219 209.02 251.067 208.974 250.91 208.96V219.96H244.88V191.76H253.78C255.09 191.684 256.398 191.931 257.59 192.48C258.623 193.107 259.407 194.071 259.81 195.21C260.378 196.676 260.649 198.239 260.61 199.81C260.635 201.191 260.429 202.567 260 203.88C259.646 204.944 259.062 205.917 258.29 206.73C257.968 207.046 257.6 207.312 257.2 207.52C257.443 207.701 257.664 207.909 257.86 208.14C258.208 208.615 258.5 209.128 258.73 209.67C259.019 210.238 259.266 210.826 259.47 211.43L262.08 220.03ZM256.08 219.03H260.73L258.49 211.79C258.302 211.235 258.075 210.693 257.81 210.17C257.613 209.704 257.365 209.261 257.07 208.85C256.738 208.484 256.342 208.182 255.9 207.96L254.96 207.44L255.96 207.05C256.555 206.834 257.098 206.493 257.55 206.05C258.222 205.349 258.725 204.505 259.02 203.58C259.827 200.965 259.77 198.16 258.86 195.58C258.536 194.66 257.913 193.874 257.09 193.35C256.039 192.891 254.895 192.686 253.75 192.75H245.88V218.95H249.88V207.95H250.88C251.191 207.955 251.497 208.03 251.775 208.168C252.054 208.306 252.298 208.505 252.49 208.75C252.949 209.445 253.287 210.212 253.49 211.02L256.08 219.03ZM252.55 203.85H249.88V197.34H252.6C253.027 197.294 253.459 197.353 253.858 197.511C254.257 197.67 254.611 197.924 254.89 198.25C255.319 198.945 255.525 199.755 255.48 200.57C255.491 201.182 255.368 201.79 255.12 202.35C255.024 202.606 254.874 202.838 254.681 203.031C254.488 203.224 254.256 203.374 254 203.47C253.537 203.674 253.044 203.803 252.54 203.85H252.55ZM250.92 202.85H252.55C252.95 202.788 253.34 202.674 253.71 202.51C253.837 202.453 253.95 202.37 254.043 202.267C254.136 202.164 254.207 202.042 254.25 201.91C254.437 201.481 254.529 201.018 254.52 200.55C254.563 199.942 254.42 199.335 254.11 198.81C253.92 198.62 253.688 198.476 253.433 198.391C253.178 198.306 252.906 198.282 252.64 198.32H250.88L250.92 202.85Z" fill="black"/>
<path d="M262.96 192.34H269.59L272.15 208.89L274.69 192.34H281.32V219.54H277.19V198.78L274 219.53H270.27L267.09 198.78V219.53H262.96V192.34Z" fill="white"/>
<path d="M281.82 220.03H276.69V205.34L274.43 220.03H269.88L267.59 205.34V220.02H262.46V191.82H270.02L272.15 205.58L274.26 191.82H281.82V220.03ZM277.69 219.03H280.82V192.83H275.12L272.12 212.16L269.12 192.83H263.42V219.03H266.55V198.78L267.55 198.71L270.67 219.03H273.55L276.66 198.71L277.66 198.78L277.69 219.03Z" fill="black"/>
<path d="M90.94 68.47L72.88 37.16C71.6202 34.9773 69.545 33.3844 67.1107 32.7318C64.6765 32.0791 62.0827 32.4202 59.9 33.68C57.7173 34.9398 56.1244 37.0151 55.4718 39.4493C54.8191 41.8835 55.1602 44.4773 56.42 46.66L74.49 77.96H38.34C35.8204 77.96 33.4041 78.9609 31.6225 80.7425C29.8409 82.5241 28.84 84.9405 28.84 87.46C28.84 89.9796 29.8409 92.3959 31.6225 94.1775C33.4041 95.9591 35.8204 96.96 38.34 96.96H74.49L56.41 128.26C55.7841 129.342 55.3776 130.537 55.2138 131.776C55.05 133.015 55.132 134.274 55.4552 135.481C55.7784 136.689 56.3364 137.821 57.0974 138.812C57.8584 139.804 58.8073 140.636 59.89 141.26C61.3289 142.099 62.9646 142.54 64.63 142.54C66.3005 142.54 67.9417 142.1 69.3882 141.265C70.8347 140.429 72.0356 139.227 72.87 137.78L90.94 106.48L109.02 137.78C109.63 138.887 110.454 139.861 111.445 140.645C112.436 141.43 113.573 142.008 114.791 142.348C116.008 142.687 117.281 142.78 118.535 142.621C119.788 142.462 120.998 142.055 122.092 141.423C123.186 140.791 124.144 139.947 124.908 138.94C125.672 137.934 126.227 136.785 126.542 135.561C126.857 134.337 126.924 133.063 126.74 131.813C126.556 130.562 126.124 129.361 125.47 128.28L107.4 96.98H143.54C146.06 96.98 148.476 95.9791 150.258 94.1975C152.039 92.4159 153.04 89.9996 153.04 87.48C153.04 84.9605 152.039 82.5441 150.258 80.7625C148.476 78.9809 146.06 77.98 143.54 77.98H107.39L125.47 46.67C126.67 44.4922 126.968 41.931 126.3 39.536C125.633 37.1409 124.053 35.103 121.9 33.8596C119.747 32.6162 117.192 32.2664 114.784 32.8853C112.376 33.5042 110.307 35.0425 109.02 37.17L90.94 68.48" fill="#3265FE"/>
<path d="M117.25 143.03C115.493 143.032 113.767 142.57 112.244 141.693C110.722 140.815 109.459 139.552 108.58 138.03L90.88 107.41C90.04 108.98 87.88 112.79 82.31 122.41L73.31 138.06C71.9839 140.357 69.7997 142.033 67.238 142.719C64.6763 143.405 61.9468 143.046 59.65 141.72C57.3533 140.394 55.6774 138.21 54.991 135.648C54.3046 133.086 54.664 130.357 55.99 128.06L73.63 97.51H38.34C35.6878 97.51 33.1443 96.4564 31.269 94.5811C29.3936 92.7057 28.34 90.1622 28.34 87.51C28.34 84.8579 29.3936 82.3143 31.269 80.4389C33.1443 78.5636 35.6878 77.51 38.34 77.51H73.62L55.98 46.91C55.313 45.7723 54.8777 44.5139 54.699 43.2073C54.5204 41.9006 54.6019 40.5715 54.939 39.2966C55.2761 38.0216 55.8621 36.8258 56.6631 35.7782C57.4642 34.7306 58.4646 33.8518 59.6067 33.1924C60.7488 32.5329 62.0101 32.106 63.3179 31.936C64.6257 31.766 65.9542 31.8564 67.2269 32.2019C68.4997 32.5475 69.6915 33.1413 70.7337 33.9493C71.776 34.7573 72.6482 35.7636 73.3 36.91L90.94 67.47L108.58 36.91C109.232 35.7636 110.104 34.7573 111.146 33.9493C112.189 33.1413 113.38 32.5475 114.653 32.2019C115.926 31.8564 117.254 31.766 118.562 31.936C119.87 32.106 121.131 32.5329 122.273 33.1924C123.415 33.8518 124.416 34.7306 125.217 35.7782C126.018 36.8258 126.604 38.0216 126.941 39.2966C127.278 40.5715 127.36 41.9006 127.181 43.2073C127.002 44.5139 126.567 45.7723 125.9 46.91L108.26 77.47H143.54C146.192 77.47 148.736 78.5236 150.611 80.3989C152.486 82.2743 153.54 84.8178 153.54 87.47C153.54 90.1222 152.486 92.6657 150.611 94.5411C148.736 96.4165 146.192 97.47 143.54 97.47H108.26L125.88 128.02C126.757 129.539 127.219 131.263 127.22 133.017C127.22 134.772 126.759 136.496 125.883 138.016C125.006 139.535 123.745 140.798 122.226 141.676C120.708 142.555 118.985 143.018 117.23 143.02L117.25 143.03ZM90.94 105.46L109.45 137.52C110.643 139.587 112.609 141.096 114.915 141.714C117.221 142.332 119.678 142.008 121.745 140.815C123.812 139.622 125.321 137.656 125.939 135.35C126.557 133.044 126.233 130.587 125.04 128.52L106.53 96.47H143.53C145.917 96.47 148.206 95.5218 149.894 93.834C151.582 92.1461 152.53 89.857 152.53 87.47C152.53 85.0831 151.582 82.7939 149.894 81.1061C148.206 79.4182 145.917 78.47 143.53 78.47H106.53L125.04 46.41C126.233 44.3427 126.557 41.8858 125.939 39.5801C125.321 37.2743 123.812 35.3085 121.745 34.115C119.678 32.9215 117.221 32.5982 114.915 33.2161C112.609 33.8341 110.643 35.3427 109.45 37.41L91.37 68.72L90.94 68.47L90.51 68.72L72.43 37.41C71.858 36.3511 71.0794 35.4177 70.1403 34.6651C69.2012 33.9124 68.1207 33.3557 66.9627 33.0279C65.8047 32.7002 64.5927 32.608 63.3984 32.7568C62.2042 32.9057 61.0519 33.2925 60.0098 33.8945C58.9676 34.4965 58.0568 35.3014 57.3312 36.2616C56.6056 37.2218 56.08 38.3177 55.7854 39.4846C55.4908 40.6515 55.4332 41.8657 55.6161 43.0552C55.799 44.2447 56.2185 45.3855 56.85 46.41L74.98 77.83V78.46H38.34C35.953 78.46 33.6639 79.4082 31.976 81.0961C30.2882 82.7839 29.34 85.0731 29.34 87.46C29.34 89.847 30.2882 92.1361 31.976 93.824C33.6639 95.5118 35.953 96.46 38.34 96.46H75.34L56.88 128.52C56.288 129.544 55.9034 130.674 55.7484 131.846C55.5933 133.018 55.6708 134.209 55.9763 135.352C56.2819 136.494 56.8095 137.565 57.5291 138.503C58.2486 139.441 59.146 140.229 60.17 140.82C62.2375 142.012 64.6936 142.333 66.9983 141.715C69.3029 141.096 71.2675 139.587 72.46 137.52C72.64 137.21 90.46 106.4 90.54 106.22L90.94 105.46Z" fill="black"/>
</svg>
