<svg width="300" height="246" viewBox="0 0 300 246" fill="none" xmlns="http://www.w3.org/2000/svg">
<path d="M288 0H12C8.8174 0 5.76521 1.26433 3.51477 3.51477C1.26433 5.76521 0 8.8174 0 12V234C0 237.183 1.26433 240.235 3.51477 242.485C5.76521 244.736 8.8174 246 12 246H288C291.182 246 294.235 244.736 296.485 242.485C298.736 240.235 300 237.183 300 234V12C300 8.8174 298.736 5.76521 296.485 3.51477C294.235 1.26433 291.182 0 288 0Z" fill="#61707E"/>
<path d="M166.28 12.31H15C14.2494 12.31 13.5296 12.6082 12.9989 13.1389C12.4682 13.6696 12.17 14.3895 12.17 15.14V159.8C12.17 160.552 12.4678 161.272 12.9983 161.805C13.5287 162.337 14.2485 162.637 15 162.64H166.27C167.023 162.64 167.746 162.341 168.278 161.808C168.811 161.276 169.11 160.553 169.11 159.8V15.14C169.11 14.3895 168.812 13.6696 168.281 13.1389C167.75 12.6082 167.031 12.31 166.28 12.31Z" fill="#D3E2E2"/>
<path d="M181.01 12.31H285.01C285.761 12.31 286.482 12.6079 287.015 13.1383C287.547 13.6687 287.847 14.3885 287.85 15.14V162.64H181.01V12.31Z" fill="#3265FE"/>
<path d="M217.37 80.51H203.5V75.28H211.35C212.054 75.2703 212.741 75.0698 213.34 74.7C213.939 74.3302 214.426 73.8048 214.75 73.18H223.65C223.321 73.6661 223.059 74.1941 222.87 74.75C221.47 78.59 219.63 80.51 217.37 80.51ZM205.12 41.25V21.62H262.43V35.76C261.91 39.07 260.51 40.91 258.25 41.25H256.12V43.09H263.19V48.09H256.12V50.44H263.19V55.15H249.58C249.93 56.72 250.58 57.51 251.67 57.51H263.19V63H245.39C242.95 63 239.81 60.3834 235.97 55.15H231.26L228.64 58.29C228.12 58.82 227.64 59.29 227.33 59.6C225.237 62.22 223.32 63.4434 221.58 63.27H203.78V57.71H215.78C216.65 57.89 217.52 57.02 218.39 55.09H203.74V50.41H210.8V48.06H203.74V43.35H210.8V41.25H205.12ZM214.54 64.81C214.864 65.4337 215.352 65.9576 215.951 66.3257C216.549 66.6938 217.237 66.8923 217.94 66.9H224.75V72.4H211.4C209.31 72.57 207.4 70.74 205.64 66.9C205.24 66.03 204.98 65.33 204.81 64.81H214.54ZM252.23 29.21V27.12H215.06V29.21H252.23ZM215.06 33.93V36.02H252.23V33.93H215.06ZM221.06 41.25V43.35H245.93V41.25H221.06ZM245.93 50.41V48.06H221.06V50.41H245.93ZM228.62 74.71V61.41H238.57V74.71C238.57 78.71 236.57 80.71 232.57 80.71H224.71V75.22H227.86C228.36 75.28 228.62 75.1 228.62 74.71ZM241.97 66.6H250.12C250.99 66.78 251.78 66.25 252.48 65.03H262.12C261.916 65.4538 261.742 65.8916 261.6 66.34C259.68 70.5334 257.587 72.5334 255.32 72.34H241.97V66.58V66.6ZM242.49 73.93H251.39L252.18 74.71C253.096 75.0752 254.074 75.2554 255.06 75.2401H262.65V80.9901H250.12C247.307 81.1967 244.763 78.8567 242.49 73.97V73.93Z" fill="white"/>
<path d="M249.77 81.54C246.92 81.54 244.31 79.07 242.04 74.18L241.71 73.47H251.6L251.75 73.62C251.91 73.78 252.14 74.02 252.46 74.33C253.291 74.6398 254.173 74.7924 255.06 74.78H263.12V81.53H249.74L249.77 81.54ZM243.29 74.47C245.36 78.64 247.61 80.69 250.05 80.54H262.12V75.79H255.03C253.98 75.8021 252.938 75.612 251.96 75.23L251.8 75.12L251.15 74.48L243.29 74.47ZM232.55 81.27H224.19V74.78H227.84C227.932 74.8001 228.028 74.8001 228.12 74.78V60.91H239.12V74.71C239.12 79.02 236.81 81.27 232.55 81.27ZM225.19 80.27H232.55C236.26 80.27 238.07 78.47 238.07 74.75V61.91H229.12V74.71C229.12 74.95 229.03 75.71 227.84 75.71H225.19V80.27ZM217.37 81.01H203V74.78H211.35C211.972 74.7732 212.581 74.5962 213.109 74.2684C213.638 73.9405 214.067 73.4743 214.35 72.92H211.35C209.06 73.12 206.97 71.16 205.14 67.13C204.78 66.24 204.51 65.52 204.33 64.98L204.12 64.33H214.77L214.92 64.56C215.201 65.1156 215.63 65.5832 216.159 65.9113C216.688 66.2394 217.297 66.4154 217.92 66.42H225.23V72.92H224.48L224.1 73.48C223.79 73.9268 223.544 74.4149 223.37 74.93C221.86 78.96 219.86 81.01 217.37 81.01ZM204 80.01H217.37C219.37 80.01 221.08 78.18 222.37 74.58C222.469 74.2707 222.593 73.9697 222.74 73.68H214.99C214.611 74.3165 214.074 74.8444 213.431 75.2123C212.788 75.5802 212.061 75.7758 211.32 75.78H203.97L204 80.01ZM205.51 65.31C205.66 65.71 205.84 66.18 206.06 66.71C207.68 70.3 209.43 72.04 211.31 71.9H224.2V67.4H217.89C217.15 67.3978 216.423 67.2042 215.78 66.838C215.137 66.4717 214.6 65.9453 214.22 65.31H205.51ZM255.59 72.91H241.47V66.15H250.18C250.42 66.15 251.18 66.34 252 64.82L252.15 64.57H262.93L262.57 65.29C262.376 65.6905 262.212 66.105 262.08 66.53C260.12 70.78 257.95 72.91 255.59 72.91ZM242.47 71.91H255.32C257.4 72.07 259.32 70.14 261.15 66.18C261.21 65.9765 261.28 65.7762 261.36 65.58H252.72C251.95 66.8 251.05 67.33 250.04 67.15H242.47V71.91ZM221.88 63.71C221.757 63.72 221.633 63.72 221.51 63.71H203.26V57.21H215.8C216.38 57.32 216.99 56.75 217.61 55.59H203.26V49.91H210.32V48.56H203.26V42.85H210.32V41.71H204.57V21.12H262.89V35.76C262.32 39.38 260.77 41.36 258.27 41.76H256.6V42.6H263.67V48.6H256.6V49.95H263.67V55.66H250.22C250.68 57.02 251.4 57.02 251.65 57.02H263.65V63.51H245.35C242.75 63.51 239.58 60.95 235.68 55.66H231.45L228.99 58.66L227.65 60.01C225.65 62.46 223.69 63.71 221.88 63.71ZM204.26 62.71H221.56C223.17 62.87 224.95 61.71 226.92 59.23L228.27 57.88L231.01 54.59H236.2L236.35 54.8C240.07 59.87 243.11 62.44 245.35 62.44H262.65V57.95H251.65C250.75 57.95 249.57 57.47 249.07 55.2L248.94 54.59H262.67V50.91H255.6V47.56H262.67V43.56H255.6V40.71H258.2C260.2 40.4 261.4 38.71 261.89 35.64V22.12H205.57V40.71H211.32V43.81H204.26V47.52H211.32V50.87H204.26V54.58H219.19L218.87 55.29C218.5 56.09 217.39 58.54 215.7 58.19H204.26V62.71ZM246.4 50.88H220.53V47.53H246.4V50.88ZM221.53 49.88H245.4V48.53H221.53V49.88ZM246.4 43.82H220.53V40.71H246.4V43.82ZM221.53 42.82H245.4V41.71H221.53V42.82ZM252.68 36.4901H214.51V33.39H252.68V36.4901ZM215.51 35.4901H251.68V34.39H215.51V35.4901ZM252.68 29.68H214.51V26.59H252.68V29.68ZM215.51 28.68H251.68V27.59H215.51V28.68Z" fill="black"/>
<path d="M287.83 175.02V230.86C287.83 231.612 287.532 232.332 287.002 232.865C286.471 233.397 285.751 233.697 285 233.7H104.36V175.02H287.83Z" fill="#3265FE"/>
<path d="M92.9301 233.71H15C14.2494 233.71 13.5296 233.412 12.9989 232.881C12.4682 232.35 12.17 231.631 12.17 230.88V175.02H92.9399L92.9301 233.71Z" fill="#3265FE"/>
<path d="M204.02 102.16V94.57H263.43V102.16H238.57V105.82H262.12V147.44C262.467 151.44 260.467 153.27 256.12 152.93H244.61V145.34H250.89C251.58 145.34 251.94 144.91 251.94 144.03V113.41H238.59V152.93H228.38V113.41H215.03V152.93H205.12V105.82H228.41V102.16H204.02ZM219.99 144.56H216.06V137.49H217.37C218.24 137.67 218.68 137.06 218.68 135.66V132H226.79V138C227.31 143.073 225.043 145.26 219.99 144.56ZM216.32 123.36V116.82H224.7V120.48C224.52 121.88 224.87 122.48 225.7 122.31H227.01V129.12H221.26C217.267 129.82 215.62 127.9 216.32 123.36ZM243.8 129.64H239.88V122.57H241.19C241.88 122.75 242.32 122.14 242.49 120.74V117.08H250.61V122.83C251.12 128.25 248.86 130.51 243.8 129.64ZM240.4 138.28V132H248.51V135.71C248.34 137.11 248.69 137.63 249.56 137.28H250.56V144.35H245.32C241.34 145.017 239.7 142.993 240.4 138.28Z" fill="white"/>
<path d="M257.12 153.47C256.79 153.47 256.45 153.47 256.12 153.47H244.12V144.97C243.559 145.021 242.994 144.959 242.458 144.787C241.922 144.615 241.426 144.337 241 143.97C239.88 142.87 239.53 140.97 239.93 138.31V131.57H249.04V135.71C248.92 136.71 249.09 136.88 249.1 136.88C249.204 136.885 249.308 136.86 249.4 136.81H251.12V144.87H245.1H250.88C251.11 144.87 251.43 144.87 251.43 144.06V113.91H239.12V153.43H227.91V113.91H215.56V153.43H204.62V105.32H227.91V102.71H203.52V94.12H263.93V102.71H239.12V105.37H262.67V147.49C262.815 148.304 262.777 149.14 262.559 149.937C262.342 150.734 261.949 151.473 261.41 152.1C260.823 152.604 260.141 152.985 259.404 153.22C258.667 153.455 257.89 153.54 257.12 153.47ZM245.12 152.47H256.12C258.267 152.637 259.783 152.277 260.67 151.39C261.108 150.856 261.424 150.234 261.597 149.565C261.77 148.897 261.795 148.199 261.67 147.52V106.32H238.12V101.71H262.98V95.12H204.52V101.71H228.86V106.37H205.57V152.48H214.51V112.91H228.86V152.43H238.12V112.91H252.47V144.03C252.47 145.67 251.38 145.84 250.92 145.84H245.12V152.47ZM240.93 132.54V138.39C240.59 140.75 240.85 142.39 241.71 143.22C242.44 143.92 243.65 144.13 245.33 143.84H250.12V137.71H249.66C249.47 137.798 249.26 137.835 249.052 137.817C248.843 137.8 248.643 137.728 248.47 137.61C247.9 137.17 247.94 136.24 248.03 135.61V132.51L240.93 132.54ZM221.72 145.22C221.138 145.217 220.557 145.177 219.98 145.1H215.59V137.03H217.4C217.78 137.1 217.87 137.03 217.9 137.03C217.93 137.03 218.21 136.68 218.21 135.74V131.58H227.32V138.09C227.6 140.72 227.11 142.68 225.87 143.88C224.701 144.845 223.2 145.311 221.69 145.18L221.72 145.22ZM216.59 144.1H220.08C222.45 144.43 224.16 144.1 225.17 143.1C226.18 142.1 226.57 140.44 226.33 138.1V132.53H219.22V135.71C219.267 136.083 219.231 136.462 219.115 136.819C218.999 137.177 218.806 137.505 218.55 137.78C218.376 137.913 218.174 138.005 217.959 138.048C217.744 138.092 217.522 138.085 217.31 138.03H216.6L216.59 144.1ZM245.77 130.36C245.099 130.356 244.43 130.296 243.77 130.18H239.39V122.11H241.32C241.353 122.126 241.389 122.134 241.425 122.134C241.461 122.134 241.497 122.126 241.53 122.11C241.61 122.06 241.87 121.8 242.01 120.72V116.62H251.12V122.87C251.4 125.76 250.87 127.87 249.55 129.1C248.483 129.979 247.119 130.416 245.74 130.32L245.77 130.36ZM240.41 129.18H243.92C246.2 129.57 247.87 129.29 248.92 128.35C249.97 127.41 250.42 125.52 250.17 122.91V117.61H243.05V120.71C243.056 121.113 242.979 121.514 242.822 121.886C242.665 122.258 242.433 122.593 242.14 122.87C242.001 122.96 241.845 123.022 241.682 123.051C241.519 123.08 241.352 123.077 241.19 123.04H240.44L240.41 129.18ZM219.84 129.8C219.299 129.84 218.755 129.773 218.24 129.601C217.725 129.429 217.249 129.157 216.84 128.8C215.76 127.74 215.43 125.98 215.84 123.4V116.4H225.22V120.56C225.09 121.56 225.28 121.84 225.32 121.87C225.432 121.915 225.558 121.915 225.67 121.87H227.57V129.68H221.32C220.82 129.749 220.315 129.776 219.81 129.76L219.84 129.8ZM216.84 117.36V123.47C216.49 125.7 216.74 127.24 217.57 128.05C218.4 128.86 219.57 128.96 221.23 128.66H226.57V122.81H225.76C225.565 122.859 225.36 122.86 225.165 122.811C224.969 122.762 224.789 122.666 224.64 122.53C224.411 122.235 224.254 121.891 224.182 121.524C224.109 121.158 224.122 120.78 224.22 120.42V117.32L216.84 117.36Z" fill="black"/>
<path d="M73.49 225.76H31.63V220.76H32.91V208.46H71.83V220.76H73.48V225.76H73.49ZM31.8099 186.1H36.03L35.3 183.89H43.38L44.3 186.1H61.1899L61.92 183.89H70L69.26 186.1H73.49V191.42H31.8099V186.1ZM32.73 206.85V193.26H38.97V206.85H32.73ZM38.97 220.85H44.29V213.85H38.97V220.85ZM42.46 206.85V193.26H48.12V206.85H42.46ZM49.8 195.46H52.5599C52.9469 195.534 53.3476 195.463 53.6853 195.26C54.023 195.057 54.2739 194.737 54.39 194.36L55.3099 192.52H61.55L61.37 193.07H73.48V197.71H60.12L59.5699 198.82C59.4331 199.23 59.1601 199.58 58.7961 199.813C58.4322 200.046 57.9994 200.147 57.5699 200.1H49.86V195.51L49.8 195.46ZM49.8 213.82V220.82H54.9399V213.82H49.8ZM52.37 205.19L49.98 200.78H57.33L57.88 201.52C58 202.25 58.55 202.52 59.53 202.44H73.48V206.84H56.41C54.12 206.97 52.74 206.42 52.37 205.19ZM60.8199 220.8H66.12V213.8H60.8L60.8199 220.8Z" fill="white"/>
<path d="M73.98 226.25H31.12V220.3H32.4V208H72.3199V220.3H73.97L73.98 226.25ZM32.13 225.25H72.99V221.3H71.34V209H33.42V221.3H32.12L32.13 225.25ZM66.64 221.3H60.3199V213.3H66.64V221.3ZM61.3199 220.3H65.64V214.3H61.3199V220.3ZM55.4399 221.3H49.3V213.3H55.4399V221.3ZM50.3 220.3H54.4399V214.3H50.3V220.3ZM44.79 221.3H38.47V213.3H44.79V221.3ZM39.47 220.3H43.79V214.3H39.47V220.3ZM55.78 207.36C53.64 207.36 52.33 206.7 51.91 205.36L49.15 200.26H49.3V194.93H52.5599C52.8476 195.003 53.1526 194.961 53.4089 194.811C53.6653 194.661 53.8526 194.417 53.9301 194.13L55 191.99H62.25L62.0599 192.54H73.98V198.13H60.39L59.98 198.96C59.8144 199.412 59.5174 199.804 59.1271 200.086C58.7368 200.367 58.2711 200.525 57.79 200.54L58.35 201.28V201.41C58.35 201.63 58.4599 202.03 59.45 201.91H73.96V207.31H56.39L55.78 207.36ZM50.78 201.29L52.78 205.05C53.07 206.05 54.2599 206.44 56.3099 206.34H72.91V202.94H59.46C57.9 203.14 57.46 202.24 57.34 201.73L57.01 201.29H50.78ZM50.26 199.55H57.47C57.94 199.61 58.53 199.55 59.04 198.55L59.73 197.17H72.9399V193.58H60.63L60.8199 193.03H55.58L54.8 194.59C54.6382 195.063 54.312 195.462 53.8809 195.716C53.4497 195.969 52.942 196.059 52.45 195.97H50.26V199.55ZM48.61 207.34H41.92V192.76H48.61V207.34ZM42.92 206.34H47.61V193.76H42.92V206.34ZM39.4301 207.34H32.1899V192.76H39.4301V207.34ZM33.1899 206.34H38.4301V193.76H33.1899V206.34ZM73.95 191.92H31.27V185.6H35.27L34.54 183.39H43.64L44.5599 185.6H60.76L61.49 183.39H70.62L69.89 185.6H73.89L73.95 191.92ZM32.27 190.92H72.95V186.6H68.53L69.27 184.39H62.27L61.54 186.6H43.95L43.03 184.39H35.98L36.72 186.6H32.3L32.27 190.92Z" fill="black"/>
<path d="M109.34 219.53V189.47H118.63C120.004 189.384 121.378 189.638 122.63 190.21C123.658 190.839 124.439 191.803 124.84 192.94C125.878 195.905 125.944 199.124 125.03 202.13C124.674 203.231 124.073 204.237 123.27 205.07C122.698 205.607 122.015 206.013 121.27 206.26C121.819 206.536 122.31 206.913 122.72 207.37C123.077 207.862 123.379 208.392 123.62 208.95C123.926 209.553 124.187 210.178 124.4 210.82L127.1 219.53H120.8L117.8 210.34C117.589 209.519 117.252 208.737 116.8 208.02C116.637 207.811 116.43 207.64 116.193 207.521C115.956 207.402 115.695 207.336 115.43 207.33H114.94V219.53H109.34ZM114.94 201.65H117.29C117.8 201.584 118.298 201.446 118.77 201.24C118.978 201.155 119.165 201.028 119.32 200.866C119.475 200.704 119.594 200.511 119.67 200.3C119.919 199.751 120.042 199.153 120.03 198.55C120.078 197.767 119.882 196.988 119.47 196.32C119.212 196.031 118.888 195.81 118.526 195.674C118.164 195.538 117.774 195.492 117.39 195.54H114.94V201.65Z" fill="white"/>
<path d="M115.44 220.03H108.84V188.97H118.63C120.071 188.889 121.51 189.164 122.82 189.77C123.953 190.459 124.811 191.519 125.25 192.77C125.869 194.383 126.164 196.103 126.12 197.83C126.153 199.354 125.926 200.872 125.45 202.32C125.063 203.485 124.425 204.55 123.58 205.44C123.208 205.805 122.783 206.111 122.32 206.35C122.607 206.559 122.869 206.801 123.1 207.07C123.495 207.591 123.83 208.155 124.1 208.75C124.413 209.378 124.684 210.026 124.91 210.69L127.8 220.05H120.46L117.37 210.51C117.189 209.746 116.878 209.019 116.45 208.36C116.334 208.204 116.183 208.076 116.01 207.988C115.836 207.899 115.645 207.852 115.45 207.85L115.44 220.03ZM109.84 219.03H114.44V206.83H115.44C115.778 206.835 116.111 206.916 116.414 207.066C116.717 207.217 116.982 207.433 117.19 207.7C117.699 208.46 118.071 209.302 118.29 210.19L121.16 219.03H126.42L123.92 210.97C123.711 210.354 123.461 209.752 123.17 209.17C122.942 208.651 122.664 208.155 122.34 207.69C121.966 207.282 121.523 206.943 121.03 206.69L120.09 206.16L121.09 205.78C121.753 205.554 122.359 205.189 122.87 204.71C123.614 203.923 124.174 202.98 124.51 201.95C124.947 200.611 125.153 199.208 125.12 197.8C125.163 196.206 124.892 194.619 124.32 193.13C123.965 192.092 123.257 191.21 122.32 190.64C121.155 190.121 119.883 189.888 118.61 189.96H109.82L109.84 219.03ZM117.29 202.15H114.44V195.04H117.44C117.905 194.99 118.375 195.056 118.81 195.23C119.244 195.404 119.628 195.682 119.93 196.04C120.402 196.792 120.629 197.673 120.58 198.56C120.588 199.231 120.452 199.896 120.18 200.51C120.076 200.785 119.916 201.034 119.709 201.243C119.502 201.451 119.254 201.614 118.98 201.72C118.446 201.961 117.874 202.107 117.29 202.15ZM115.44 201.15H117.29C117.739 201.085 118.176 200.957 118.59 200.77C118.736 200.707 118.868 200.613 118.977 200.496C119.085 200.379 119.168 200.241 119.22 200.09C119.432 199.605 119.538 199.08 119.53 198.55C119.576 197.87 119.412 197.193 119.06 196.61C118.846 196.39 118.584 196.223 118.294 196.124C118.003 196.025 117.694 195.996 117.39 196.04H115.39L115.44 201.15Z" fill="black"/>
<path d="M139.96 214.57H133.63L132.75 219.57H127.06L133.84 189.51H139.92L146.7 219.57H140.86L139.96 214.57ZM138.8 208.07L136.8 197.26L134.8 208.07H138.8Z" fill="white"/>
<path d="M147.33 220.03H140.45L139.54 215.03H134.05L133.17 220.03H126.44L133.44 188.97H140.32L147.33 220.03ZM141.33 219.03H146.13L139.57 189.97H134.29L127.74 219.03H132.38L133.26 214.03H140.43L141.33 219.03ZM139.46 208.57H134.29L136.86 194.49L139.46 208.57ZM135.46 207.57H138.22L136.84 200.03L135.46 207.57Z" fill="black"/>
<path d="M148.69 189.47H154.28V219.53H148.69V189.47Z" fill="white"/>
<path d="M154.78 220.03H148.19V188.97H154.78V220.03ZM149.19 219.03H153.78V189.97H149.19V219.03Z" fill="black"/>
<path d="M158.32 189.47H163.52L170.31 206.1V189.47H175.57V219.53H170.31L163.56 203.02V219.53H158.32V189.47Z" fill="white"/>
<path d="M176.12 220.03H170.03L164.11 205.57V220.03H157.87V188.97H163.87L169.87 203.56V188.97H176.12V220.03ZM170.7 219.03H175.12V189.97H170.86V208.65L163.23 189.97H158.87V219.03H163.11V200.48L170.7 219.03Z" fill="black"/>
<path d="M186.7 209.59L192.01 209.03C192.053 210.156 192.29 211.265 192.71 212.31C192.884 212.83 193.213 213.284 193.652 213.612C194.092 213.939 194.622 214.123 195.17 214.14C195.532 214.156 195.892 214.078 196.214 213.913C196.537 213.749 196.811 213.503 197.01 213.2C197.425 212.569 197.646 211.83 197.646 211.075C197.646 210.32 197.425 209.581 197.01 208.95C196.251 208.103 195.26 207.498 194.16 207.21C192.085 206.556 190.26 205.282 188.93 203.56C187.819 201.832 187.267 199.803 187.35 197.75C187.342 196.252 187.617 194.766 188.16 193.37C188.641 192.081 189.48 190.957 190.58 190.13C191.899 189.279 193.453 188.866 195.02 188.95C196.004 188.886 196.99 189.046 197.902 189.419C198.815 189.791 199.632 190.366 200.29 191.1C201.497 192.533 202.217 194.807 202.45 197.92L197.2 198.43C197.166 197.372 196.863 196.339 196.32 195.43C196.113 195.132 195.834 194.89 195.509 194.728C195.184 194.565 194.823 194.487 194.46 194.5C194.178 194.484 193.897 194.539 193.642 194.659C193.387 194.78 193.166 194.962 193 195.19C192.663 195.68 192.491 196.265 192.51 196.86C192.503 197.322 192.643 197.773 192.91 198.15C193.41 198.697 194.061 199.083 194.78 199.26C196.664 199.845 198.436 200.744 200.02 201.92C201.069 202.806 201.863 203.955 202.32 205.25C202.846 206.678 203.116 208.188 203.12 209.71C203.127 211.534 202.787 213.343 202.12 215.04C201.601 216.505 200.671 217.79 199.44 218.74C198.164 219.618 196.638 220.06 195.09 220C192.03 220 189.9 219 188.72 217C187.459 214.729 186.766 212.187 186.7 209.59Z" fill="white"/>
<path d="M195.12 220.54C191.88 220.54 189.59 219.47 188.32 217.35C187.004 214.979 186.29 212.321 186.24 209.61V209.14L192.52 208.48V208.99C192.563 210.057 192.786 211.108 193.18 212.1C193.318 212.529 193.583 212.907 193.94 213.182C194.297 213.457 194.73 213.617 195.18 213.64C195.461 213.655 195.74 213.597 195.991 213.47C196.242 213.344 196.455 213.154 196.61 212.92C196.987 212.367 197.183 211.71 197.17 211.04C197.181 210.395 196.993 209.763 196.63 209.23C195.932 208.465 195.024 207.923 194.02 207.67C191.85 206.978 189.942 205.642 188.55 203.84C187.388 202.027 186.808 199.902 186.89 197.75C186.886 196.191 187.171 194.645 187.73 193.19C188.244 191.81 189.147 190.608 190.33 189.73C191.73 188.811 193.387 188.362 195.06 188.45C196.117 188.386 197.174 188.562 198.153 188.966C199.131 189.369 200.006 189.99 200.71 190.78C201.99 192.28 202.76 194.67 202.99 197.88V198.37L196.75 198.97L196.7 198.48C196.663 197.526 196.392 196.595 195.91 195.77C195.749 195.538 195.531 195.35 195.277 195.224C195.024 195.098 194.743 195.038 194.46 195.05C194.267 195.044 194.075 195.084 193.901 195.168C193.727 195.251 193.576 195.375 193.46 195.53C193.183 195.936 193.042 196.419 193.06 196.91C193.055 197.268 193.164 197.618 193.37 197.91C193.49 198.09 193.85 198.43 195 198.83C196.941 199.432 198.764 200.362 200.39 201.58C201.506 202.522 202.351 203.744 202.84 205.12C203.356 206.605 203.61 208.168 203.59 209.74C203.605 211.623 203.266 213.492 202.59 215.25C202.026 216.803 201.035 218.166 199.73 219.18C198.378 220.115 196.763 220.592 195.12 220.54ZM187.27 210.03C187.364 212.415 188.018 214.745 189.18 216.83C190.27 218.66 192.18 219.54 195.12 219.54C196.543 219.587 197.943 219.18 199.12 218.38C200.273 217.483 201.147 216.276 201.64 214.9C202.266 213.256 202.578 211.509 202.56 209.75C202.58 208.294 202.346 206.846 201.87 205.47C201.442 204.256 200.696 203.178 199.71 202.35C198.176 201.215 196.462 200.346 194.64 199.78C193.814 199.58 193.073 199.125 192.52 198.48C192.196 198.021 192.025 197.472 192.03 196.91C192.005 196.199 192.208 195.498 192.61 194.91C192.823 194.617 193.105 194.381 193.432 194.224C193.758 194.067 194.118 193.994 194.48 194.01C194.921 193.994 195.359 194.09 195.754 194.287C196.149 194.484 196.488 194.778 196.74 195.14C197.259 195.953 197.575 196.879 197.66 197.84L201.93 197.42C201.68 194.68 201 192.65 199.93 191.42C199.322 190.736 198.565 190.199 197.717 189.853C196.869 189.506 195.954 189.358 195.04 189.42C193.58 189.342 192.132 189.723 190.9 190.51C189.875 191.271 189.093 192.313 188.65 193.51C188.127 194.848 187.863 196.273 187.87 197.71C187.787 199.659 188.308 201.587 189.36 203.23C190.635 204.868 192.379 206.079 194.36 206.7C195.562 207.022 196.641 207.694 197.46 208.63C197.93 209.346 198.181 210.184 198.181 211.04C198.181 211.896 197.93 212.734 197.46 213.45C197.214 213.817 196.878 214.115 196.484 214.317C196.09 214.518 195.652 214.615 195.21 214.6C194.568 214.586 193.946 214.376 193.426 213.999C192.906 213.622 192.513 213.096 192.3 212.49C191.903 211.535 191.667 210.522 191.6 209.49L187.27 210.03Z" fill="black"/>
<path d="M221.55 189.47V196.89H215.86V219.53H210.29V196.89H204.6V189.47H221.55Z" fill="white"/>
<path d="M216.36 220.03H209.79V197.39H204.12V188.97H222.06V197.39H216.37L216.36 220.03ZM210.79 219.03H215.36V196.39H221.05V189.97H205.12V196.39H210.81L210.79 219.03Z" fill="black"/>
<path d="M222.51 204.52C222.51 199.607 223.33 195.787 224.97 193.06C225.644 191.824 226.637 190.792 227.846 190.07C229.054 189.348 230.434 188.963 231.842 188.955C233.249 188.947 234.633 189.316 235.85 190.024C237.067 190.731 238.071 191.752 238.76 192.98C240.393 195.647 241.207 199.41 241.2 204.27C241.28 207.19 240.922 210.106 240.14 212.92C239.585 214.907 238.524 216.716 237.06 218.17C235.702 219.424 233.907 220.095 232.06 220.04C230.236 220.11 228.445 219.536 227 218.42C225.472 217.041 224.352 215.271 223.76 213.3C222.855 210.464 222.432 207.496 222.51 204.52ZM228.08 204.52C228.08 207.56 228.413 209.74 229.08 211.06C229.292 211.628 229.667 212.121 230.158 212.477C230.649 212.832 231.234 213.035 231.84 213.06C232.452 213.05 233.046 212.853 233.543 212.496C234.04 212.138 234.416 211.637 234.62 211.06C235.287 209.76 235.62 207.427 235.62 204.06C235.757 201.944 235.415 199.825 234.62 197.86C234.403 197.29 234.022 196.796 233.526 196.44C233.03 196.085 232.44 195.883 231.83 195.86C231.233 195.893 230.658 196.1 230.176 196.455C229.695 196.811 229.328 197.299 229.12 197.86C228.42 199.3 228.12 201.5 228.12 204.56L228.08 204.52Z" fill="white"/>
<path d="M232.05 220.54C230.112 220.61 228.212 219.998 226.68 218.81C225.079 217.37 223.903 215.52 223.28 213.46C222.363 210.571 221.933 207.55 222.01 204.52C222.01 199.52 222.86 195.59 224.54 192.8C225.258 191.49 226.315 190.396 227.598 189.631C228.882 188.866 230.347 188.459 231.841 188.45C233.336 188.442 234.805 188.834 236.097 189.584C237.389 190.335 238.457 191.418 239.19 192.72C240.86 195.48 241.7 199.36 241.7 204.27C241.779 207.241 241.412 210.208 240.61 213.07C240.032 215.138 238.926 217.019 237.4 218.53C235.949 219.875 234.028 220.597 232.05 220.54ZM231.82 189.45C230.497 189.433 229.195 189.786 228.061 190.467C226.927 191.149 226.006 192.134 225.4 193.31C223.81 195.95 223.01 199.72 223.01 204.52C222.934 207.437 223.343 210.347 224.22 213.13C224.787 215.016 225.854 216.713 227.31 218.04C228.666 219.078 230.343 219.609 232.05 219.54C233.774 219.594 235.451 218.969 236.72 217.8C238.113 216.413 239.125 214.691 239.66 212.8C240.412 210.032 240.749 207.167 240.66 204.3C240.66 199.58 239.86 195.87 238.3 193.3C237.684 192.119 236.752 191.133 235.607 190.453C234.463 189.773 233.151 189.426 231.82 189.45ZM231.82 213.59C231.122 213.57 230.446 213.344 229.875 212.943C229.305 212.541 228.864 211.98 228.61 211.33C227.89 209.92 227.54 207.71 227.54 204.56C227.54 201.41 227.89 199.16 228.62 197.75C228.866 197.106 229.296 196.549 229.856 196.147C230.416 195.746 231.081 195.517 231.77 195.49C232.467 195.506 233.145 195.725 233.719 196.121C234.293 196.518 234.738 197.073 235 197.72C235.852 199.751 236.226 201.951 236.09 204.15C236.09 207.63 235.75 209.99 235.09 211.37C234.831 212.018 234.386 212.574 233.811 212.969C233.236 213.365 232.557 213.581 231.86 213.59H231.82ZM231.82 196.49C231.316 196.523 230.833 196.704 230.431 197.009C230.029 197.315 229.726 197.733 229.56 198.21C228.92 199.45 228.56 201.59 228.56 204.56C228.56 207.53 228.89 209.63 229.56 210.88C229.72 211.372 230.031 211.801 230.45 212.105C230.868 212.409 231.373 212.573 231.89 212.573C232.407 212.573 232.911 212.409 233.33 212.105C233.748 211.801 234.06 211.372 234.22 210.88C234.83 209.66 235.15 207.38 235.15 204.11C235.269 202.06 234.927 200.01 234.15 198.11C233.956 197.644 233.633 197.243 233.218 196.956C232.803 196.669 232.314 196.507 231.81 196.49H231.82Z" fill="black"/>
<path d="M244.28 219.53V189.47H253.57C254.944 189.384 256.318 189.639 257.57 190.21C258.596 190.84 259.373 191.804 259.77 192.94C260.368 194.492 260.654 196.147 260.61 197.81C260.64 199.276 260.42 200.737 259.96 202.13C259.605 203.231 259.003 204.237 258.2 205.07C257.629 205.609 256.946 206.015 256.2 206.26C256.745 206.542 257.236 206.917 257.65 207.37C257.999 207.866 258.297 208.395 258.54 208.95C258.846 209.553 259.107 210.178 259.32 210.82L262.02 219.53H255.72L252.72 210.34C252.514 209.518 252.176 208.734 251.72 208.02C251.559 207.811 251.353 207.64 251.118 207.521C250.883 207.402 250.624 207.336 250.36 207.33H249.87V219.53H244.28ZM249.88 201.65H252.23C252.737 201.582 253.231 201.444 253.7 201.24C253.908 201.154 254.096 201.026 254.252 200.864C254.409 200.702 254.53 200.51 254.61 200.3C254.851 199.749 254.97 199.152 254.96 198.55C255.008 197.767 254.812 196.988 254.4 196.32C254.142 196.031 253.818 195.81 253.456 195.674C253.094 195.538 252.704 195.492 252.32 195.54H249.88V201.65Z" fill="white"/>
<path d="M250.38 220.03H243.78V188.97H253.57C255.011 188.891 256.449 189.166 257.76 189.77C258.887 190.462 259.742 191.522 260.18 192.77C260.803 194.383 261.102 196.102 261.06 197.83C261.088 199.354 260.862 200.871 260.39 202.32C260 203.485 259.358 204.551 258.51 205.44C258.141 205.809 257.716 206.116 257.25 206.35C257.537 206.559 257.798 206.801 258.03 207.07C258.425 207.591 258.76 208.155 259.03 208.75C259.342 209.378 259.613 210.026 259.84 210.69L262.74 220.05H255.4L252.3 210.51C252.115 209.749 251.808 209.023 251.39 208.36C251.273 208.205 251.122 208.079 250.948 207.991C250.775 207.902 250.584 207.854 250.39 207.85L250.38 220.03ZM244.78 219.03H249.38V206.83H250.38C250.717 206.835 251.048 206.916 251.349 207.066C251.651 207.217 251.914 207.434 252.12 207.7C252.633 208.458 253.009 209.301 253.23 210.19L256.09 219.03H261.35L258.85 210.97C258.642 210.353 258.392 209.752 258.1 209.17C257.88 208.647 257.601 208.151 257.27 207.69C256.898 207.28 256.454 206.941 255.96 206.69L255.02 206.16L256.02 205.78C256.685 205.559 257.293 205.193 257.8 204.71C258.544 203.923 259.104 202.98 259.44 201.95C259.881 200.612 260.091 199.209 260.06 197.8C260.102 196.206 259.83 194.619 259.26 193.13C258.898 192.095 258.192 191.216 257.26 190.64C256.095 190.121 254.823 189.888 253.55 189.96H244.76L244.78 219.03ZM252.23 202.15H249.38V195.04H252.32C252.785 194.989 253.256 195.054 253.69 195.229C254.124 195.403 254.509 195.682 254.81 196.04C255.282 196.792 255.51 197.673 255.46 198.56C255.475 199.248 255.338 199.931 255.06 200.56C254.956 200.833 254.795 201.081 254.588 201.288C254.381 201.495 254.133 201.656 253.86 201.76C253.342 201.981 252.792 202.113 252.23 202.15ZM250.38 201.15H252.23C252.678 201.082 253.115 200.954 253.53 200.77C253.675 200.706 253.805 200.612 253.912 200.495C254.018 200.378 254.1 200.24 254.15 200.09C254.367 199.606 254.473 199.08 254.46 198.55C254.503 197.872 254.343 197.196 254 196.61C253.783 196.392 253.518 196.227 253.227 196.129C252.935 196.03 252.625 195.999 252.32 196.04H250.38V201.15Z" fill="black"/>
<path d="M263.74 189.47H271.12L273.95 207.76L276.76 189.47H284.08V219.53H279.52V196.6L276 219.53H271.87L268.36 196.6V219.53H263.79V189.47H263.74Z" fill="white"/>
<path d="M284.53 220.03H278.97V203.16L276.38 220.03H271.38L268.8 203.17V220.03H263.23V188.97H271.49L273.89 204.48L276.27 188.97H284.52L284.53 220.03ZM279.97 219.03H283.53V189.97H277.12L273.88 211.05L270.62 189.97H264.22V219.03H267.79V196.6L268.79 196.53L272.24 219.03H275.51L278.97 196.53L279.97 196.6V219.03Z" fill="black"/>
<path d="M79.56 51.59C80.38 37.34 85.0401 24.46 105.04 24.18C125.04 23.9 129.43 41.45 129.7 51.59C135.215 52.0195 140.469 54.1116 144.77 57.59C148.232 60.5916 150.637 64.6269 151.63 69.1001C151.63 69.1001 165.05 71.8301 161.24 84.9801C157.38 98.3301 140.12 94.8601 140.12 94.8601C138.072 96.5098 135.601 97.5495 132.99 97.8601C129.754 98.0812 126.504 97.7118 123.4 96.77C120.943 98.2579 118.23 99.2753 115.4 99.77C110.2 100.87 102.53 99.77 102.53 99.77C98.8192 102.993 94.0093 104.661 89.1 104.43C81.1 103.88 72.38 98.68 72.38 98.68C72.38 98.68 61.97 103.83 54.57 102.08C47.17 100.33 42.51 92.65 42.51 92.65C42.51 92.65 32.37 100.58 23.88 92.1001C17.44 85.66 18.67 78.1001 22.24 72.9201C25.81 67.7401 35.12 65.2501 41.69 70.7301C41.69 70.7301 45.8 62.78 51.56 61.14C57.32 59.5 66.63 60.31 66.63 60.31C68.6016 58.3407 70.7066 56.5097 72.9301 54.83C75.0116 53.5049 77.2355 52.4181 79.56 51.59Z" fill="#3265FE"/>
<path d="M90.34 105.01C89.94 105.01 89.53 105.01 89.11 105.01C81.77 104.5 73.8901 100.17 72.4101 99.32C70.7601 100.11 61.41 104.32 54.51 102.64C47.96 101.09 43.5801 95.15 42.4301 93.44C40.6422 94.6645 38.6563 95.5711 36.56 96.12C34.272 96.7678 31.8502 96.7757 29.558 96.1427C27.2659 95.5097 25.1913 94.2602 23.56 92.5301C16.87 85.8601 18.29 77.9201 21.85 72.7201C22.9465 71.2393 24.3348 69.999 25.9291 69.0754C27.5234 68.1518 29.2901 67.5646 31.12 67.3501C32.9532 67.0809 34.8218 67.1802 36.6161 67.6421C38.4105 68.104 40.0946 68.9192 41.57 70.0401C42.57 68.2001 46.37 62.1901 51.45 60.7401C56.79 59.2101 64.96 59.74 66.45 59.88C68.3876 57.9432 70.4595 56.1454 72.6501 54.5C74.6541 53.1904 76.7972 52.1072 79.0401 51.27C79.8201 38.53 83.5601 24.0201 105.04 23.7201C122.87 23.5201 129.69 37.6501 130.2 51.1601C135.667 51.6701 140.857 53.7972 145.11 57.27C148.598 60.2604 151.049 64.2795 152.11 68.75C153.44 69.08 158.36 70.57 160.93 74.82C162.66 77.68 162.93 81.17 161.78 85.18C158.09 97.94 142.46 95.81 140.32 95.45C138.231 97.0818 135.74 98.1184 133.11 98.45C129.886 98.7092 126.641 98.3702 123.54 97.45C121.092 98.8977 118.413 99.9125 115.62 100.45C110.83 101.45 104.15 100.67 102.8 100.45C99.3015 103.369 94.8966 104.981 90.34 105.01ZM72.46 98.15L72.69 98.2901C72.78 98.2901 81.4501 103.44 89.1801 103.97C93.9308 104.173 98.58 102.556 102.18 99.45L102.36 99.2801H102.6C102.67 99.2801 110.24 100.35 115.3 99.2801C118.045 98.7776 120.677 97.7851 123.07 96.3501L123.27 96.21L123.5 96.2801C126.537 97.1991 129.714 97.5649 132.88 97.3601C135.386 97.0455 137.756 96.0455 139.73 94.4701L139.92 94.3001H140.16C140.33 94.3001 157.02 97.5201 160.71 84.7801C161.79 81.0401 161.54 77.7801 159.97 75.2201C157.27 70.7501 151.53 69.53 151.48 69.52L151.14 69.45L151.08 69.12C150.102 64.7652 147.762 60.8351 144.4 57.9C140.181 54.495 135.034 52.4391 129.63 52H129.17V51.5301C128.49 26.2601 110.51 24.5301 105.02 24.6101C84.2301 24.9001 80.7401 39.1601 80.0201 51.5401V51.87L79.71 51.9901C77.4429 52.8182 75.2761 53.8983 73.25 55.21C71.0463 56.8727 68.9612 58.6871 67.01 60.64L66.85 60.8001H66.61C66.52 60.8001 57.32 60.0101 51.72 61.6101C46.12 63.2101 42.2101 70.87 42.1701 70.95L41.88 71.5L41.4001 71.1001C40.0037 69.9381 38.3779 69.0838 36.6289 68.5927C34.88 68.1016 33.0472 67.9848 31.25 68.25C29.5603 68.4459 27.9285 68.9852 26.4548 69.8347C24.981 70.6842 23.6965 71.826 22.6801 73.19C21.0601 75.56 16.4 83.8801 24.26 91.7401C25.7575 93.3493 27.6715 94.5123 29.7897 95.1001C31.9079 95.6879 34.1474 95.6775 36.26 95.07C38.4176 94.5053 40.4519 93.5458 42.26 92.2401L42.7 91.9L42.99 92.38C43.04 92.45 47.63 99.89 54.74 101.58C61.85 103.27 72.11 98.2701 72.21 98.2201L72.46 98.15Z" fill="black"/>
<path d="M77.64 110.49C78.46 110.49 90.64 131.59 90.64 136.79C90.64 141.99 86.64 150.79 77.64 150.79C68.64 150.79 64.49 142.69 64.49 136.79C64.49 130.89 77.64 110.49 77.64 110.49Z" fill="#3265FE"/>
<path d="M77.64 151.27C68.22 151.27 63.99 142.76 63.99 136.72C63.99 130.68 76.68 111.05 77.22 110.21L77.37 109.99H77.64C78.77 109.99 84.27 120.28 84.89 121.45C87.22 125.85 91.14 133.68 91.14 136.79C91.12 141.84 87.18 151.27 77.64 151.27ZM77.73 111.27C75.73 114.44 64.99 131.49 64.99 136.72C64.99 142.34 68.91 150.27 77.64 150.27C86.37 150.27 90.14 141.49 90.14 136.79C90.14 132.09 79.95 114.12 77.73 111.27Z" fill="black"/>
<path d="M108.12 110.49C108.94 110.49 121.12 131.59 121.12 136.79C121.12 141.99 117.12 150.79 108.12 150.79C99.12 150.79 94.96 142.69 94.96 136.79C94.96 130.89 108.12 110.49 108.12 110.49Z" fill="#3265FE"/>
<path d="M108.12 151.27C98.7 151.27 94.46 142.76 94.46 136.72C94.46 130.68 107.16 111.05 107.7 110.21L107.84 109.99H108.12C109.24 109.99 114.74 120.28 115.36 121.45C117.7 125.85 121.61 133.68 121.61 136.79C121.63 141.84 117.67 151.27 108.12 151.27ZM108.21 111.27C106.21 114.44 95.46 131.49 95.46 136.72C95.46 142.34 99.39 150.27 108.12 150.27C116.85 150.27 120.61 141.49 120.61 136.79C120.61 132.09 110.45 114.12 108.23 111.27H108.21Z" fill="black"/>
<path d="M138.32 110.49C139.14 110.49 151.32 131.59 151.32 136.79C151.32 141.99 147.32 150.79 138.32 150.79C129.32 150.79 125.17 142.69 125.17 136.79C125.17 130.89 138.32 110.49 138.32 110.49Z" fill="#3265FE"/>
<path d="M138.32 151.27C128.9 151.27 124.67 142.76 124.67 136.72C124.67 130.68 137.36 111.05 137.9 110.21L138.05 109.99H138.32C139.45 109.99 144.95 120.28 145.57 121.45C147.9 125.85 151.82 133.68 151.82 136.79C151.82 141.84 147.86 151.27 138.32 151.27ZM138.41 111.27C136.41 114.44 125.67 131.49 125.67 136.72C125.67 142.34 129.59 150.27 138.32 150.27C147.05 150.27 150.82 141.49 150.82 136.79C150.82 132.09 140.63 114.12 138.41 111.27Z" fill="black"/>
<path d="M47.35 110.49C48.17 110.49 60.35 131.59 60.35 136.79C60.35 141.99 56.35 150.79 47.35 150.79C38.35 150.79 34.1899 142.69 34.1899 136.79C34.1899 130.89 47.35 110.49 47.35 110.49Z" fill="#3265FE"/>
<path d="M47.35 151.27C37.93 151.27 33.6899 142.76 33.6899 136.72C33.6899 130.68 46.3901 111.05 46.9301 110.21L47.0699 109.99H47.35C48.47 109.99 53.97 120.28 54.6 121.45C56.93 125.85 60.85 133.68 60.85 136.79C60.85 141.84 56.89 151.27 47.35 151.27ZM47.4399 111.27C45.4399 114.44 34.6899 131.49 34.6899 136.72C34.6899 142.34 38.62 150.27 47.35 150.27C56.08 150.27 59.85 141.49 59.85 136.79C59.85 132.09 49.6599 114.12 47.4399 111.27Z" fill="black"/>
</svg>
