<svg width="300" height="246" viewBox="0 0 300 246" fill="none" xmlns="http://www.w3.org/2000/svg">
<path d="M288 0H12C8.8174 0 5.76521 1.26427 3.51477 3.51471C1.26433 5.76515 0 8.8174 0 12V234C0 237.183 1.26433 240.235 3.51477 242.485C5.76521 244.736 8.8174 246 12 246H288C291.183 246 294.235 244.736 296.485 242.485C298.736 240.235 300 237.183 300 234V12C300 8.8174 298.736 5.76515 296.485 3.51471C294.235 1.26427 291.183 0 288 0Z" fill="#61707E"/>
<path d="M166.27 12.31H15C14.2494 12.31 13.5296 12.6082 12.9989 13.1389C12.4682 13.6696 12.17 14.3894 12.17 15.14V159.8C12.17 160.551 12.4678 161.272 12.9983 161.805C13.5287 162.337 14.2485 162.637 15 162.64H166.28C167.032 162.637 167.751 162.337 168.282 161.805C168.812 161.272 169.11 160.551 169.11 159.8V15.18C169.115 14.8042 169.046 14.431 168.905 14.0824C168.765 13.7337 168.556 13.4166 168.292 13.1494C168.027 12.8822 167.713 12.6704 167.365 12.5263C167.018 12.3822 166.646 12.3086 166.27 12.31Z" fill="#D3E2E2"/>
<path d="M181 12.31H285C285.751 12.31 286.472 12.6078 287.005 13.1383C287.537 13.6687 287.837 14.3885 287.84 15.14V162.64H181V12.31Z" fill="#FAED26"/>
<path d="M217.36 80.51H203.49V75.28H211.34C212.044 75.2702 212.732 75.0698 213.33 74.7C213.929 74.3302 214.416 73.8048 214.74 73.18H223.64C223.309 73.6649 223.047 74.1933 222.86 74.75C221.46 78.59 219.62 80.51 217.36 80.51ZM205.06 41.25V21.62H262.37V35.76C261.85 39.07 260.45 40.9 258.19 41.25H256.09V43.08H263.16V48.08H256.09V50.43H263.16V55.14H249.55C249.9 56.71 250.55 57.5 251.64 57.5H263.16V62.99H245.36C242.92 62.99 239.78 60.3733 235.94 55.14H231.23L228.61 58.28L227.3 59.59C225.213 62.21 223.297 63.4333 221.55 63.26H203.75V57.76H215.75C216.62 57.94 217.49 57.06 218.36 55.14H203.71V50.43H210.77V48.08H203.71V43.37H210.77V41.27L205.06 41.25ZM204.8 64.81H214.48C214.806 65.4323 215.294 65.955 215.892 66.3228C216.491 66.6907 217.178 66.8901 217.88 66.9H224.69V72.4H211.34C209.25 72.57 207.34 70.74 205.58 66.9C205.23 66.03 205 65.33 204.8 64.81ZM252.17 29.21V27.12H215V29.18L252.17 29.21ZM215 33.92V36.02H252.17V33.92H215ZM221 41.25V43.35H245.87V41.25H221ZM245.87 50.41V48.06H221V50.41H245.87ZM228.59 74.75V61.4H238.59V74.75C238.59 78.75 236.59 80.75 232.59 80.75H224.74V75.28H227.88C228.35 75.27 228.61 75.1 228.61 74.75H228.59ZM241.94 66.64H250.05C250.92 66.81 251.71 66.29 252.41 65.07H262.09C261.886 65.4938 261.712 65.9315 261.57 66.38C259.65 70.56 257.557 72.56 255.29 72.38H242V66.62L241.94 66.64ZM242.46 73.97H251.36L252.15 74.75C253.068 75.1071 254.046 75.2836 255.03 75.27H262.62V81.03H250.05C247.277 81.2033 244.753 78.85 242.48 73.97H242.46Z" fill="white"/>
<path d="M249.77 81.54C246.91 81.54 244.3 79.07 242.03 74.18L241.7 73.47H251.59L251.74 73.62C251.9 73.78 252.13 74.02 252.45 74.32C253.281 74.6298 254.163 74.7824 255.05 74.77H263.14V81.53H249.77V81.54ZM243.28 74.47C245.35 78.64 247.59 80.68 250.04 80.53H262.14V75.77H255.05C254.005 75.77 252.97 75.5697 252 75.18L251.84 75.07L251.19 74.43L243.28 74.47ZM232.54 81.27H224.19V74.78H227.83C227.923 74.7946 228.017 74.7946 228.11 74.78V60.9H239.11V74.75C239.06 79.02 236.8 81.27 232.54 81.27ZM225.19 80.27H232.54C236.25 80.27 238.06 78.47 238.06 74.75V61.9H229.06V74.75C229.06 74.99 228.97 75.75 227.78 75.75H225.14L225.19 80.27ZM217.36 81.01H203V74.78H211.35C211.972 74.7732 212.581 74.5962 213.109 74.2684C213.638 73.9405 214.067 73.4742 214.35 72.92H211.35C209.06 73.11 206.97 71.16 205.14 67.13C204.78 66.24 204.51 65.52 204.33 64.98L204.12 64.33H214.77L214.92 64.56C215.201 65.1156 215.63 65.5832 216.159 65.9113C216.688 66.2394 217.297 66.4154 217.92 66.42H225.23V72.92H224.48L224.1 73.48C223.79 73.9268 223.544 74.4149 223.37 74.93C221.85 78.96 219.85 81.01 217.36 81.01ZM203.99 80.01H217.36C219.36 80.01 221.07 78.18 222.36 74.58C222.457 74.27 222.581 73.9689 222.73 73.68H215C214.621 74.3165 214.084 74.8443 213.441 75.2122C212.798 75.5802 212.071 75.7758 211.33 75.78H204L203.99 80.01ZM205.5 65.31C205.65 65.71 205.83 66.18 206.05 66.71C207.67 70.3 209.46 72.05 211.3 71.9H224.19V67.4H217.88C217.14 67.3978 216.413 67.2041 215.77 66.8379C215.127 66.4717 214.589 65.9453 214.21 65.31H205.5ZM255.58 72.91H241.46V66.18H250.07C250.41 66.24 251.07 66.38 252 64.86L252.14 64.61H262.92L262.56 65.33C262.366 65.7305 262.202 66.145 262.07 66.57C260.12 70.78 257.94 72.91 255.58 72.91ZM242.46 71.91H255.31C257.31 72.06 259.31 70.14 261.14 66.18C261.198 65.976 261.268 65.7756 261.35 65.58H252.71C251.93 66.82 251 67.35 249.98 67.14H242.46V71.91ZM221.87 63.76C221.747 63.7699 221.623 63.7699 221.5 63.76H203.25V57.26H215.79C216.38 57.37 216.98 56.8 217.6 55.64H203.25V49.93H210.31V48.58H203.25V42.87H210.31V41.77H204.56V21.12H262.88V35.76C262.31 39.37 260.76 41.36 258.26 41.76H256.59V42.59H263.66V48.59H256.59V49.94H263.66V55.65H250.21C250.67 57.01 251.39 57.01 251.64 57.01H263.64V63.5H245.34C242.74 63.5 239.57 60.94 235.67 55.65H231.44L228.98 58.65L227.64 60C225.64 62.46 223.68 63.75 221.87 63.75V63.76ZM204.25 62.76H221.55C223.16 62.92 224.94 61.76 226.91 59.28L228.26 57.93L231 54.64H236.19L236.34 54.85C240.06 59.92 243.1 62.49 245.34 62.49H262.64V57.98H251.64C250.74 57.98 249.56 57.5 249.06 55.23L248.93 54.62H262.66V50.91H255.59V47.56H262.66V43.56H255.59V40.73H258.19C260.19 40.42 261.39 38.73 261.88 35.66V22.12H205.56V40.75H211.31V43.85H204.25V47.56H211.31V50.91H204.25V54.62H219.18L218.86 55.33C218.49 56.13 217.38 58.57 215.69 58.23H204.25V62.76ZM246.39 50.93H220.52V47.58H246.39V50.93ZM221.52 49.93H245.39V48.58H221.52V49.93ZM246.39 43.87H220.52V40.77H246.39V43.87ZM221.52 42.87H245.39V41.77H221.52V42.87ZM252.67 36.54H214.5V33.44H252.67V36.54ZM215.5 35.54H251.67V34.44H215.5V35.54ZM252.67 29.73H214.5V26.64H252.67V29.73ZM215.5 28.73H251.67V27.64H215.5V28.73Z" fill="black"/>
<path d="M287.82 175.01V230.86C287.82 231.611 287.522 232.33 286.991 232.861C286.46 233.392 285.741 233.69 284.99 233.69H104.35V175.01H287.82Z" fill="#FAED26"/>
<path d="M92.92 233.69H15C14.2494 233.69 13.5296 233.392 12.9989 232.861C12.4682 232.33 12.17 231.611 12.17 230.86V175.01H92.9399L92.92 233.69Z" fill="#FAED26"/>
<path d="M228.35 102.18H204V94.59H263.41V102.18H238.55V105.84H262.1V147.45C262.453 151.45 260.453 153.283 256.1 152.95H244.59V145.36H250.87C251.56 145.36 251.92 144.93 251.92 144.05V113.41H238.57V152.93H228.36V113.41H215V152.93H205.06V105.82H228.35V102.18ZM219.98 144.58H216.05V137.51H217.36C218.23 137.69 218.67 137.08 218.67 135.68V132.01H226.78V138.01C227.3 143.077 225.04 145.26 220 144.56L219.98 144.58ZM216.31 123.38V116.83H224.69V120.5C224.51 121.9 224.86 122.5 225.69 122.33H227V129.13H221.25C217.257 129.83 215.61 127.907 216.31 123.36V123.38ZM243.79 129.66H239.87V122.59H241.18C241.87 122.77 242.31 122.16 242.48 120.76V117.08H250.6V122.83C251.12 128.243 248.85 130.513 243.79 129.64V129.66ZM240.39 138.29V132.01H248.5V135.68C248.33 137.08 248.68 137.6 249.5 137.25H250.5V144.31H245.26C241.313 144.997 239.69 142.983 240.39 138.27V138.29Z" fill="white"/>
<path d="M257.08 153.47C256.75 153.47 256.41 153.47 256.08 153.47H244.08V144.97C243.519 145.023 242.954 144.961 242.418 144.789C241.882 144.617 241.386 144.339 240.96 143.97C239.84 142.88 239.49 141.03 239.89 138.32V131.57H249V135.74C248.88 136.74 249 136.91 249.06 136.91C249.165 136.915 249.268 136.89 249.36 136.84H251.1V144.9H245.36L245.08 144.95H250.86C251.09 144.95 251.41 144.95 251.41 144.14V113.91H239.06V153.43H227.85V113.91H215.5V153.43H204.56V105.32H227.85V102.66H203.51V94.07H263.92V102.66H239.06V105.32H262.61V147.43C262.755 148.245 262.718 149.083 262.5 149.882C262.282 150.681 261.889 151.421 261.35 152.05C260.769 152.56 260.092 152.949 259.359 153.193C258.625 153.437 257.85 153.531 257.08 153.47ZM245.08 152.47H256.08C258.233 152.637 259.75 152.277 260.63 151.39C261.068 150.856 261.384 150.234 261.557 149.565C261.73 148.897 261.755 148.199 261.63 147.52V106.32H238.08V101.66H262.94V95.07H204.53V101.66H228.87V106.32H205.58V152.43H214.52V112.91H228.87V152.43H238.08V112.91H252.43V144.03C252.43 145.66 251.34 145.84 250.88 145.84H245.1L245.08 152.47ZM240.89 132.53V138.39C240.55 140.75 240.81 142.39 241.67 143.22C242.4 143.92 243.62 144.13 245.29 143.84H250.11V137.78H249.65C249.46 137.868 249.25 137.905 249.042 137.887C248.833 137.869 248.633 137.798 248.46 137.68C247.89 137.24 247.93 136.31 248.02 135.68V132.57L240.89 132.53ZM221.68 145.18C221.098 145.177 220.517 145.137 219.94 145.06H215.55V136.99H217.36C217.73 137.06 217.83 136.99 217.86 136.99C217.89 136.99 218.17 136.64 218.17 135.7V131.53H227.28V138.05C227.56 140.68 227.07 142.64 225.83 143.84C224.675 144.811 223.185 145.292 221.68 145.18ZM216.55 144.06H220C222.37 144.39 224.08 144.06 225.09 143.06C226.1 142.06 226.49 140.4 226.25 138.06V132.48H219.14V135.65C219.187 136.022 219.151 136.399 219.036 136.755C218.92 137.111 218.727 137.437 218.47 137.71C218.297 137.846 218.095 137.94 217.88 137.985C217.665 138.03 217.443 138.025 217.23 137.97H216.52L216.55 144.06ZM245.73 130.32C245.059 130.316 244.39 130.256 243.73 130.14H239.35V122.07H241.28C241.313 122.086 241.349 122.094 241.385 122.094C241.421 122.094 241.457 122.086 241.49 122.07C241.57 122.01 241.83 121.76 241.97 120.68V116.58H251.09V122.83C251.37 125.72 250.84 127.83 249.52 129.05C248.468 129.947 247.11 130.402 245.73 130.32ZM240.37 129.14H243.88C246.167 129.527 247.833 129.25 248.88 128.31C249.96 127.31 250.38 125.48 250.13 122.87V117.57H243V120.73C242.86 121.89 242.57 122.56 242.09 122.88C241.947 122.981 241.783 123.05 241.61 123.081C241.437 123.112 241.26 123.105 241.09 123.06H240.34L240.37 129.14ZM219.8 129.76C219.259 129.8 218.715 129.733 218.2 129.561C217.685 129.389 217.209 129.117 216.8 128.76C215.72 127.7 215.39 125.94 215.8 123.36V116.36H225.18V120.53C225.05 121.53 225.24 121.81 225.28 121.84C225.392 121.885 225.518 121.885 225.63 121.84H227.53V129.65H221.28C220.791 129.727 220.296 129.764 219.8 129.76ZM216.8 117.31V123.43C216.45 125.66 216.7 127.2 217.52 128.01C218.34 128.82 219.52 128.92 221.19 128.62H226.53V122.81H225.72C225.525 122.859 225.32 122.858 225.125 122.81C224.93 122.761 224.749 122.665 224.6 122.53C224.371 122.235 224.214 121.891 224.141 121.524C224.069 121.158 224.082 120.78 224.18 120.42V117.31H216.8Z" fill="black"/>
<path d="M32.9 190.18V185.18H37.49V183.34H43.92V185.18H62.46V183.18H68.7V185.18H73.84V190.18H68.7V192.39H74V197.53H56.5601V199.73H73.26V212.58C73.8733 217.247 71.54 219.267 66.26 218.64H64.05L64.79 219.56C64.7989 219.702 64.8635 219.835 64.97 219.93C65.2378 220.179 65.5528 220.372 65.8962 220.497C66.2397 220.623 66.6048 220.678 66.97 220.66H73.97V225.18H63.5C61.5 224.93 60.26 224.45 59.65 223.71L55.42 218.57H52L47 223.34C46.3452 224.095 45.5237 224.688 44.6005 225.072C43.6772 225.455 42.6774 225.619 41.6801 225.55H33.05V220.77H40.5699C40.9933 220.744 41.4072 220.634 41.7869 220.445C42.1665 220.256 42.5043 219.992 42.78 219.67L43.6899 218.57H33.6V199.68H50V197.48H32.9V192.34H37.49V190.18H32.9ZM49.79 206.71V204.71H40.0601V206.71H49.79ZM49.79 211.71H40.0601V213.91H49.79V211.71ZM43.92 192.43H62.28V190.18H43.92V192.43ZM56.59 206.75H67.05V204.75H56.59V206.75ZM67.23 211.75H56.77V213.95H66.6801C67.0501 213.95 67.23 213.7 67.23 213.21V211.75Z" fill="white"/>
<path d="M42.15 226.08H32.59V220.31H40.59C40.9491 220.274 41.2976 220.167 41.6151 219.995C41.9327 219.824 42.213 219.591 42.4399 219.31L42.65 219.06H33.12V199.18H49.46V197.98H32.4V191.84H37V190.63H32.41V184.68H37V182.84H44.4301V184.68H62V182.68H69.24V184.68H74.38V190.68H69.24V191.88H74.5699V198.02H57.13V199.18H73.83V212.53C74.14 214.8 73.72 216.53 72.61 217.7C71.5 218.87 69.23 219.43 66.3 219.09H65.1899L65.39 219.34V219.51C66.32 220.15 66.78 220.18 66.97 220.13H74.5699V225.72H63.5699C61.3999 225.45 60.03 224.91 59.33 224.07L55.26 219.07H52.26L47.45 223.7C46.7918 224.457 45.9771 225.062 45.0619 225.473C44.1467 225.884 43.1532 226.091 42.15 226.08ZM33.59 225.08H41.72C42.6557 225.153 43.5955 225.006 44.4639 224.65C45.3322 224.294 46.105 223.739 46.72 223.03L51.85 218.1H55.77L60.14 223.43C60.66 224.05 61.85 224.49 63.67 224.72H73.58V221.13H67.16C66.7294 221.159 66.2973 221.101 65.8899 220.958C65.4825 220.815 65.1084 220.591 64.79 220.3C64.6188 220.152 64.4938 219.957 64.4301 219.74L63.12 218.11H66.37C69.04 218.42 70.88 218.05 71.9 217.02C72.92 215.99 73.11 214.63 72.9 212.62V200.18H56.2V196.98H73.64V192.84H68.3101V189.64H73.45V185.64H68.3101V183.64H63V185.64H43.46V183.8H38V185.64H33.41V189.64H38V192.85H33.41V196.99H50.49V200.18H34.15V218.09H44.8101L43.21 220.01C42.8878 220.389 42.4923 220.699 42.0471 220.92C41.602 221.142 41.1165 221.271 40.62 221.3H33.62L33.59 225.08ZM66.6801 214.33H56.27V211.13H67.73V213.13C67.73 213.99 67.1901 214.32 66.6801 214.32V214.33ZM57.27 213.33H66.6801C66.6801 213.33 66.6801 213.33 66.6801 213.09V212.09H57.22L57.27 213.33ZM50.27 214.33H39.54V211.13H50.27V214.33ZM40.54 213.33H49.27V212.13H40.54V213.33ZM67.54 207.17H56.08V204.17H67.54V207.17ZM57.08 206.17H66.54V205.17H57.08V206.17ZM50.28 207.17H39.55V204.17H50.28V207.17ZM40.55 206.17H49.28V205.17H40.55V206.17ZM62.77 192.85H43.41V189.65H62.77V192.85ZM44.41 191.85H61.77V190.65H44.41V191.85Z" fill="black"/>
<path d="M109.33 219.53V189.47H118.62C119.993 189.386 121.365 189.637 122.62 190.2C123.647 190.835 124.426 191.802 124.83 192.94C125.872 195.923 125.932 199.161 125 202.18C124.644 203.281 124.043 204.287 123.24 205.12C122.67 205.66 121.986 206.066 121.24 206.31C121.789 206.589 122.284 206.965 122.7 207.42C123.046 207.917 123.345 208.446 123.59 209C123.896 209.603 124.157 210.228 124.37 210.87L127.07 219.58H120.77L117.77 210.39C117.564 209.568 117.226 208.784 116.77 208.07C116.609 207.861 116.403 207.691 116.168 207.572C115.932 207.453 115.674 207.387 115.41 207.38H114.91V219.58L109.33 219.53ZM114.93 201.65H117.28C117.79 201.583 118.288 201.445 118.76 201.24C118.968 201.152 119.155 201.023 119.31 200.859C119.464 200.696 119.584 200.502 119.66 200.29C119.906 199.743 120.025 199.149 120.01 198.55C120.06 197.768 119.868 196.989 119.46 196.32C119.202 196.031 118.878 195.81 118.516 195.674C118.154 195.538 117.764 195.492 117.38 195.54H114.93V201.65Z" fill="white"/>
<path d="M115.43 220.03H108.83V188.97H118.62C120.06 188.892 121.498 189.163 122.81 189.76C123.942 190.45 124.8 191.51 125.24 192.76C125.859 194.373 126.154 196.093 126.11 197.82C126.141 199.343 125.918 200.86 125.45 202.31C125.06 203.475 124.418 204.541 123.57 205.43C123.199 205.799 122.775 206.109 122.31 206.35C122.599 206.553 122.861 206.792 123.09 207.06C123.485 207.581 123.82 208.145 124.09 208.74C124.402 209.368 124.673 210.016 124.9 210.68L127.8 220.04H120.46L117.37 210.5C117.177 209.74 116.866 209.015 116.45 208.35C116.332 208.195 116.182 208.069 116.008 207.981C115.835 207.892 115.644 207.844 115.45 207.84L115.43 220.03ZM109.83 219.03H114.43V206.83H115.43C115.767 206.836 116.097 206.918 116.398 207.068C116.699 207.219 116.963 207.435 117.17 207.7C117.681 208.459 118.057 209.302 118.28 210.19L121.14 219.03H126.4L123.9 210.97C123.694 210.353 123.443 209.751 123.15 209.17C122.925 208.649 122.647 208.153 122.32 207.69C121.95 207.277 121.506 206.938 121.01 206.69L120.07 206.16L121.07 205.78C121.734 205.556 122.341 205.191 122.85 204.71C123.594 203.923 124.154 202.98 124.49 201.95C124.927 200.611 125.133 199.208 125.1 197.8C125.141 196.207 124.873 194.621 124.31 193.13C123.946 192.094 123.24 191.213 122.31 190.63C121.139 190.121 119.865 189.892 118.59 189.96H109.8L109.83 219.03ZM117.28 202.15H114.43V195.04H117.43C117.895 194.99 118.365 195.055 118.8 195.23C119.234 195.404 119.618 195.682 119.92 196.04C120.389 196.794 120.613 197.674 120.56 198.56C120.571 199.23 120.438 199.895 120.17 200.51C120.065 200.784 119.903 201.033 119.697 201.241C119.49 201.449 119.243 201.612 118.97 201.72C118.439 201.973 117.866 202.129 117.28 202.18V202.15ZM115.43 201.15H117.28C117.729 201.085 118.166 200.957 118.58 200.77C118.728 200.706 118.86 200.611 118.969 200.492C119.078 200.374 119.16 200.233 119.21 200.08C119.42 199.598 119.522 199.076 119.51 198.55C119.558 197.872 119.398 197.194 119.05 196.61C118.837 196.39 118.574 196.223 118.284 196.124C117.993 196.025 117.684 195.996 117.38 196.04H115.38L115.43 201.15Z" fill="black"/>
<path d="M140 214.57H133.67L132.79 219.57H127.1L133.88 189.51H139.96L146.74 219.57H140.9L140 214.57ZM138.84 208.07L136.84 197.26L134.84 208.07H138.84Z" fill="white"/>
<path d="M147.32 220.03H140.44L139.53 215.03H134L133.12 220.03H126.39L133.39 188.97H140.27L147.32 220.03ZM141.32 219.03H146.12L139.56 189.97H134.28L127.73 219.03H132.38L133.25 214.03H140.42L141.32 219.03ZM139.45 208.57H134.28L136.85 194.49L139.45 208.57ZM135.45 207.57H138.21L136.83 200.03L135.45 207.57Z" fill="black"/>
<path d="M148.68 189.47H154.27V219.53H148.68V189.47Z" fill="white"/>
<path d="M154.77 220.03H148.18V188.97H154.77V220.03ZM149.18 219.03H153.77V189.97H149.18V219.03Z" fill="black"/>
<path d="M158.31 189.47H163.51L170.3 206.1V189.47H175.56V219.53H170.3L163.55 203.02V219.53H158.31V189.47Z" fill="white"/>
<path d="M176.06 220.03H170L164.08 205.57V220.03H157.84V188.97H163.84L169.84 203.55V188.97H176.1L176.06 220.03ZM170.64 219.03H175.06V189.97H170.8V208.65L163.17 189.97H158.81V219.03H163.05V200.48L170.64 219.03Z" fill="black"/>
<path d="M186.69 209.58L192 209.03C192.043 210.155 192.279 211.265 192.7 212.31C192.874 212.83 193.203 213.284 193.642 213.612C194.082 213.939 194.612 214.123 195.16 214.14C195.524 214.153 195.884 214.071 196.207 213.903C196.529 213.735 196.803 213.486 197 213.18C197.407 212.546 197.624 211.809 197.624 211.055C197.624 210.301 197.407 209.564 197 208.93C196.24 208.082 195.25 207.474 194.15 207.18C192.071 206.533 190.244 205.258 188.92 203.53C187.811 201.804 187.259 199.78 187.34 197.73C187.332 196.232 187.607 194.746 188.15 193.35C188.624 192.057 189.465 190.931 190.57 190.11C191.889 189.259 193.443 188.846 195.01 188.93C195.994 188.867 196.979 189.028 197.892 189.401C198.804 189.773 199.621 190.347 200.28 191.08C201.493 192.513 202.213 194.783 202.44 197.89L197.19 198.41C197.149 197.351 196.844 196.32 196.3 195.41C196.093 195.114 195.815 194.875 195.492 194.714C195.169 194.554 194.811 194.477 194.45 194.49C194.168 194.472 193.886 194.526 193.631 194.647C193.376 194.767 193.155 194.951 192.99 195.18C192.651 195.67 192.48 196.255 192.5 196.85C192.493 197.312 192.633 197.763 192.9 198.14C193.4 198.687 194.051 199.073 194.77 199.25C196.655 199.833 198.427 200.732 200.01 201.91C201.059 202.796 201.853 203.945 202.31 205.24C202.807 206.67 203.051 208.176 203.03 209.69C203.037 211.514 202.697 213.322 202.03 215.02C201.511 216.485 200.581 217.77 199.35 218.72C198.074 219.598 196.548 220.04 195 219.98C191.94 219.98 189.81 218.98 188.63 217.03C187.391 214.74 186.725 212.184 186.69 209.58Z" fill="white"/>
<path d="M195.07 220.54C191.83 220.54 189.54 219.47 188.27 217.35C186.956 214.978 186.242 212.321 186.19 209.61V209.14L192.48 208.48V208.99C192.514 210.057 192.734 211.109 193.13 212.1C193.269 212.529 193.534 212.905 193.891 213.18C194.248 213.455 194.68 213.615 195.13 213.64C195.41 213.655 195.69 213.597 195.941 213.47C196.192 213.344 196.405 213.154 196.56 212.92C196.934 212.365 197.126 211.708 197.11 211.04C197.125 210.396 196.94 209.764 196.58 209.23C195.882 208.465 194.974 207.923 193.97 207.67C191.8 206.978 189.892 205.642 188.5 203.84C187.338 202.027 186.758 199.902 186.84 197.75C186.831 196.191 187.116 194.644 187.68 193.19C188.194 191.81 189.097 190.608 190.28 189.73C191.68 188.811 193.337 188.362 195.01 188.45C196.066 188.385 197.123 188.559 198.101 188.961C199.08 189.363 199.955 189.981 200.66 190.77C201.93 192.28 202.66 194.67 202.94 197.88V198.37L196.71 198.97V198.48C196.673 197.526 196.402 196.595 195.92 195.77C195.761 195.535 195.544 195.345 195.29 195.219C195.036 195.092 194.753 195.034 194.47 195.05C194.277 195.041 194.084 195.08 193.91 195.164C193.735 195.248 193.584 195.374 193.47 195.53C193.193 195.935 193.052 196.419 193.07 196.91C193.068 197.267 193.176 197.616 193.38 197.91C193.5 198.09 193.86 198.43 195.01 198.83C196.947 199.436 198.769 200.362 200.4 201.57C201.514 202.518 202.359 203.742 202.85 205.12C203.367 206.605 203.621 208.168 203.6 209.74C203.615 211.623 203.276 213.492 202.6 215.25C202.045 216.803 201.056 218.164 199.75 219.17C198.382 220.127 196.738 220.608 195.07 220.54ZM187.22 210.03C187.318 212.414 187.972 214.743 189.13 216.83C190.22 218.66 192.13 219.54 195.07 219.54C196.492 219.587 197.893 219.181 199.07 218.38C200.223 217.485 201.094 216.277 201.58 214.9C202.213 213.258 202.529 211.51 202.51 209.75C202.531 208.294 202.298 206.845 201.82 205.47C201.391 204.256 200.646 203.178 199.66 202.35C198.124 201.212 196.406 200.343 194.58 199.78C193.757 199.581 193.018 199.126 192.47 198.48C192.144 198.022 191.972 197.472 191.98 196.91C191.95 196.198 192.154 195.496 192.56 194.91C192.773 194.617 193.055 194.382 193.382 194.224C193.708 194.067 194.068 193.994 194.43 194.01C194.871 193.994 195.309 194.09 195.704 194.287C196.099 194.484 196.438 194.778 196.69 195.14C197.203 195.955 197.515 196.881 197.6 197.84L201.88 197.43C201.62 194.68 200.95 192.64 199.88 191.38C199.272 190.696 198.515 190.159 197.667 189.813C196.819 189.466 195.904 189.318 194.99 189.38C193.53 189.297 192.08 189.679 190.85 190.47C189.821 191.229 189.036 192.272 188.59 193.47C188.073 194.806 187.812 196.227 187.82 197.66C187.737 199.609 188.258 201.537 189.31 203.18C190.585 204.818 192.329 206.029 194.31 206.65C195.512 206.972 196.591 207.644 197.41 208.58C197.873 209.299 198.119 210.135 198.119 210.99C198.119 211.845 197.873 212.681 197.41 213.4C197.164 213.767 196.828 214.065 196.434 214.267C196.04 214.468 195.602 214.565 195.16 214.55C194.518 214.536 193.896 214.326 193.376 213.949C192.856 213.572 192.463 213.046 192.25 212.44C191.853 211.485 191.617 210.472 191.55 209.44L187.22 210.03Z" fill="black"/>
<path d="M204.6 189.47H221.54V196.89H215.85V219.53H210.28V196.89H204.6V189.47Z" fill="white"/>
<path d="M216.35 220.03H209.78V197.39H204.1V188.97H222V197.39H216.31L216.35 220.03ZM210.78 219.03H215.35V196.39H221V189.97H205.1V196.39H210.78V219.03Z" fill="black"/>
<path d="M222.5 204.52C222.5 199.613 223.32 195.79 224.96 193.05C225.635 191.815 226.629 190.783 227.838 190.062C229.047 189.341 230.427 188.957 231.834 188.95C233.242 188.943 234.626 189.313 235.842 190.021C237.058 190.73 238.062 191.752 238.75 192.98C240.383 195.647 241.197 199.41 241.19 204.27C241.269 207.19 240.912 210.106 240.13 212.92C239.575 214.907 238.514 216.716 237.05 218.17C235.692 219.424 233.897 220.095 232.05 220.04C230.226 220.11 228.435 219.536 226.99 218.42C225.465 217.039 224.345 215.269 223.75 213.3C222.845 210.464 222.422 207.496 222.5 204.52ZM228.07 204.52C228.07 207.52 228.41 209.74 229.07 211.06C229.282 211.628 229.657 212.121 230.148 212.477C230.639 212.832 231.224 213.035 231.83 213.06C232.442 213.05 233.036 212.853 233.533 212.496C234.03 212.138 234.406 211.637 234.61 211.06C235.277 209.76 235.61 207.427 235.61 204.06C235.748 201.944 235.406 199.825 234.61 197.86C234.393 197.29 234.012 196.796 233.516 196.44C233.02 196.085 232.43 195.883 231.82 195.86C231.222 195.893 230.648 196.1 230.166 196.455C229.685 196.811 229.318 197.299 229.11 197.86C228.41 199.3 228.07 201.5 228.07 204.56V204.52Z" fill="white"/>
<path d="M232 220.54C230.063 220.61 228.162 219.998 226.63 218.81C225.03 217.37 223.854 215.52 223.23 213.46C222.313 210.571 221.884 207.55 221.96 204.52C221.96 199.52 222.81 195.6 224.49 192.8C225.209 191.49 226.265 190.396 227.548 189.631C228.832 188.866 230.297 188.459 231.792 188.45C233.286 188.442 234.755 188.834 236.047 189.584C237.339 190.335 238.407 191.418 239.14 192.72C240.81 195.48 241.65 199.36 241.65 204.27C241.729 207.241 241.362 210.208 240.56 213.07C239.982 215.138 238.876 217.019 237.35 218.53C235.899 219.875 233.978 220.597 232 220.54ZM231.77 189.45C230.447 189.433 229.145 189.786 228.011 190.467C226.877 191.149 225.956 192.134 225.35 193.31C223.76 195.95 222.96 199.72 222.96 204.52C222.884 207.437 223.293 210.347 224.17 213.13C224.734 215.014 225.803 216.709 227.26 218.03C228.613 219.076 230.291 219.611 232 219.54C233.725 219.598 235.403 218.973 236.67 217.8C238.063 216.413 239.075 214.691 239.61 212.8C240.362 210.032 240.699 207.167 240.61 204.3C240.61 199.58 239.81 195.87 238.25 193.3C237.637 192.126 236.711 191.145 235.574 190.465C234.437 189.786 233.134 189.434 231.81 189.45H231.77ZM231.77 213.59C231.072 213.569 230.396 213.344 229.825 212.942C229.255 212.541 228.815 211.98 228.56 211.33C227.84 209.92 227.49 207.7 227.49 204.56C227.49 201.42 227.84 199.16 228.57 197.75C228.816 197.106 229.246 196.549 229.806 196.147C230.366 195.745 231.031 195.517 231.72 195.49C232.416 195.506 233.092 195.724 233.666 196.119C234.239 196.513 234.686 197.066 234.95 197.71C235.802 199.745 236.175 201.948 236.04 204.15C236.04 207.63 235.7 209.99 235.04 211.37C234.784 212.012 234.345 212.564 233.778 212.959C233.211 213.353 232.541 213.573 231.85 213.59H231.77ZM231.77 196.49C231.266 196.523 230.783 196.704 230.381 197.009C229.979 197.315 229.676 197.733 229.51 198.21C228.87 199.46 228.51 201.59 228.51 204.56C228.51 207.53 228.84 209.62 229.51 210.87C229.665 211.364 229.972 211.796 230.387 212.105C230.802 212.413 231.304 212.582 231.822 212.588C232.339 212.594 232.845 212.435 233.267 212.135C233.689 211.836 234.005 211.41 234.17 210.92C234.78 209.7 235.1 207.42 235.1 204.15C235.219 202.1 234.877 200.05 234.1 198.15C233.915 197.682 233.601 197.278 233.193 196.983C232.785 196.689 232.302 196.518 231.8 196.49H231.77Z" fill="black"/>
<path d="M244.27 219.53V189.47H253.56C254.933 189.387 256.305 189.637 257.56 190.2C258.584 190.837 259.36 191.803 259.76 192.94C260.358 194.492 260.644 196.147 260.6 197.81C260.628 199.276 260.412 200.736 259.96 202.13C259.597 203.23 258.992 204.235 258.19 205.07C257.62 205.611 256.937 206.017 256.19 206.26C256.735 206.542 257.226 206.917 257.64 207.37C257.987 207.867 258.285 208.396 258.53 208.95C258.836 209.553 259.097 210.178 259.31 210.82L262.01 219.53H255.71L252.71 210.34C252.504 209.518 252.166 208.734 251.71 208.02C251.549 207.811 251.343 207.64 251.108 207.521C250.873 207.402 250.614 207.336 250.35 207.33H249.86V219.53H244.27ZM249.87 201.65H252.22C252.727 201.582 253.221 201.444 253.69 201.24C253.898 201.151 254.086 201.022 254.242 200.858C254.399 200.695 254.521 200.502 254.6 200.29C254.842 199.742 254.961 199.149 254.95 198.55C254.998 197.767 254.802 196.988 254.39 196.32C254.132 196.031 253.808 195.809 253.446 195.674C253.084 195.538 252.694 195.492 252.31 195.54H249.87V201.65Z" fill="white"/>
<path d="M250.37 220.03H243.77V188.97H253.56C255 188.894 256.437 189.165 257.75 189.76C258.876 190.454 259.73 191.513 260.17 192.76C260.793 194.373 261.092 196.092 261.05 197.82C261.078 199.344 260.852 200.861 260.38 202.31C259.994 203.477 259.352 204.543 258.5 205.43C258.132 205.799 257.706 206.106 257.24 206.34C257.527 206.549 257.789 206.791 258.02 207.06C258.415 207.581 258.75 208.145 259.02 208.74C259.337 209.366 259.608 210.014 259.83 210.68L262.73 220.04H255.39L252.3 210.5C252.109 209.739 251.799 209.013 251.38 208.35C251.263 208.195 251.112 208.069 250.938 207.981C250.765 207.892 250.574 207.844 250.38 207.84L250.37 220.03ZM244.77 219.03H249.37V206.83H250.37C250.707 206.835 251.038 206.916 251.339 207.066C251.641 207.217 251.904 207.433 252.11 207.7C252.62 208.46 252.995 209.303 253.22 210.19L256.08 219.03H261.34L258.84 210.97C258.638 210.351 258.387 209.749 258.09 209.17C257.87 208.647 257.591 208.151 257.26 207.69C256.888 207.28 256.444 206.941 255.95 206.69L255 206.18L256 205.8C256.663 205.575 257.27 205.21 257.78 204.73C258.524 203.943 259.084 203 259.42 201.97C259.861 200.632 260.07 199.228 260.04 197.82C260.083 196.226 259.812 194.639 259.24 193.15C258.876 192.114 258.17 191.233 257.24 190.65C256.072 190.141 254.802 189.912 253.53 189.98H244.74L244.77 219.03ZM252.22 202.15H249.37V195.04H252.31C252.775 194.989 253.246 195.054 253.68 195.229C254.114 195.403 254.499 195.682 254.8 196.04C255.272 196.792 255.499 197.673 255.45 198.56C255.46 199.231 255.323 199.897 255.05 200.51C254.946 200.785 254.786 201.034 254.579 201.243C254.372 201.451 254.124 201.614 253.85 201.72C253.337 201.965 252.786 202.12 252.22 202.18V202.15ZM250.37 201.15H252.22C252.668 201.082 253.106 200.954 253.52 200.77C253.665 200.706 253.795 200.612 253.902 200.495C254.008 200.378 254.09 200.24 254.14 200.09C254.352 199.605 254.458 199.08 254.45 198.55C254.493 197.872 254.333 197.196 253.99 196.61C253.773 196.392 253.508 196.227 253.217 196.129C252.925 196.03 252.615 195.999 252.31 196.04H250.37V201.15Z" fill="black"/>
<path d="M271.06 189.47L273.89 207.76L276.7 189.47H284V219.53H279.44V196.6L275.92 219.53H271.79L268.28 196.6V219.53H263.71V189.47H271.06Z" fill="white"/>
<path d="M284.52 220.03H279V203.18L276.41 220.05H271.41L268.8 203.18V220.04H263.23V188.97H271.49L273.89 204.47L276.27 188.97H284.52V220.03ZM279.96 219.03H283.52V189.97H277.12L273.89 211.05L270.63 189.97H264.23V219.03H267.8V196.6L268.8 196.53L272.25 219.03H275.52L278.97 196.53L279.97 196.6L279.96 219.03Z" fill="black"/>
<path d="M79.55 51.58C80.37 37.33 85.03 24.46 105.03 24.18C125.03 23.9 129.42 41.45 129.69 51.58C135.207 52.0137 140.463 54.1052 144.77 57.58C148.229 60.5826 150.63 64.6179 151.62 69.09C151.62 69.09 165.04 71.82 161.23 84.97C157.37 98.32 140.11 94.85 140.11 94.85C138.059 96.4947 135.59 97.5337 132.98 97.85C129.744 98.0711 126.494 97.7018 123.39 96.76C120.948 98.2358 118.257 99.2526 115.45 99.76C110.24 100.86 102.57 99.76 102.57 99.76C98.8591 102.983 94.0493 104.651 89.14 104.42C81.14 103.87 72.42 98.66 72.42 98.66C72.42 98.66 62.01 103.82 54.61 102.07C47.21 100.32 42.61 92.64 42.61 92.64C42.61 92.64 32.47 100.57 23.97 92.09C17.53 85.65 18.7699 78.09 22.3299 72.91C25.8899 67.73 35.21 65.24 41.78 70.72C41.78 70.72 45.89 62.72 51.65 61.12C57.41 59.52 66.72 60.3 66.72 60.3C68.6915 58.3307 70.7965 56.4997 73.02 54.82C75.0687 53.4993 77.2591 52.4125 79.55 51.58Z" fill="#FAED26"/>
<path d="M90.33 105.01C89.93 105.01 89.52 105.01 89.11 105.01C81.76 104.5 73.88 100.17 72.4 99.32C70.75 100.11 61.4 104.32 54.5 102.64C47.95 101.09 43.57 95.15 42.42 93.44C40.6276 94.6564 38.6432 95.5624 36.55 96.12C34.2621 96.7678 31.8402 96.7756 29.5481 96.1426C27.256 95.5097 25.1814 94.2601 23.55 92.53C16.86 85.86 18.29 77.92 21.85 72.72C22.9445 71.2396 24.331 69.9993 25.9237 69.0757C27.5164 68.152 29.2814 67.5647 31.11 67.35C32.9432 67.078 34.8123 67.1759 36.6071 67.6379C38.4018 68.0999 40.086 68.9167 41.5601 70.04C42.6101 68.2 46.3599 62.18 51.4399 60.73C56.7799 59.21 64.9499 59.73 66.4399 59.88C68.3776 57.9431 70.4494 56.1454 72.64 54.5C74.6441 53.1904 76.7872 52.1071 79.03 51.27C79.81 38.52 83.55 24.02 105.03 23.72H105.48C122.94 23.72 129.68 37.72 130.18 51.16C135.648 51.6652 140.84 53.7929 145.09 57.27C148.572 60.2653 151.022 64.2824 152.09 68.75C153.41 69.08 158.33 70.57 160.9 74.82C162.63 77.68 162.9 81.16 161.75 85.18C158.06 97.94 142.43 95.81 140.29 95.45C138.201 97.0817 135.71 98.1183 133.08 98.45C129.856 98.7032 126.612 98.3643 123.51 97.45C121.062 98.8976 118.383 99.9125 115.59 100.45C110.8 101.45 104.12 100.66 102.77 100.45C99.2767 103.365 94.8796 104.977 90.33 105.01ZM72.45 98.18L72.6801 98.31C72.7701 98.37 81.44 103.47 89.17 104C93.9203 104.2 98.5684 102.584 102.17 99.48L102.35 99.31H102.59C102.66 99.31 110.24 100.38 115.29 99.31C118.033 98.8021 120.664 97.81 123.06 96.38L123.26 96.24L123.49 96.31C123.49 96.31 128.65 97.91 132.87 97.39C135.377 97.0785 137.748 96.0781 139.72 94.5L139.91 94.33H140.16C140.33 94.33 157.01 97.55 160.7 84.8C161.78 81.07 161.53 77.8 159.96 75.24C157.25 70.77 151.53 69.56 151.47 69.55L151.13 69.48L151.07 69.14C150.09 64.7888 147.751 60.8625 144.39 57.93C140.168 54.5278 135.023 52.4692 129.62 52.02H129.16V51.56C128.48 26.29 110.49 24.56 105.01 24.64C84.22 24.93 80.73 39.18 80.01 51.57V51.9L79.7 52.01C77.4355 52.8483 75.2693 53.9314 73.24 55.24C71.0385 56.9055 68.9537 58.7198 67 60.67L66.84 60.83H66.61C66.51 60.83 57.31 60.04 51.72 61.64C46.13 63.24 42.2 70.9 42.16 70.98L41.87 71.53L41.39 71.13C39.9951 69.9689 38.3711 69.1149 36.6239 68.6239C34.8767 68.1328 33.0455 68.0156 31.25 68.28C29.559 68.4763 27.9259 69.0157 26.4506 69.8651C24.9752 70.7145 23.6888 71.8561 22.67 73.22C21.05 75.58 16.39 83.91 24.26 91.76C32.34 99.84 42.13 92.35 42.26 92.27L42.7 91.93L42.99 92.41C42.99 92.48 47.63 99.92 54.74 101.61C61.85 103.3 72.11 98.3 72.21 98.25L72.45 98.18Z" fill="black"/>
<path d="M77.63 110.48C78.45 110.48 90.63 131.58 90.63 136.79C90.63 142 86.63 150.79 77.63 150.79C68.63 150.79 64.48 142.69 64.48 136.79C64.48 130.89 77.63 110.48 77.63 110.48Z" fill="#FAED26"/>
<path d="M77.63 151.27C68.21 151.27 63.98 142.76 63.98 136.72C63.98 130.68 76.67 111.04 77.21 110.21L77.36 109.98H77.63C78.76 109.98 84.26 120.28 84.88 121.45C87.21 125.85 91.13 133.68 91.13 136.79C91.13 141.84 87.17 151.27 77.63 151.27ZM77.72 111.27C75.72 114.44 64.98 131.49 64.98 136.72C64.98 142.34 68.9 150.27 77.63 150.27C86.36 150.27 90.13 141.49 90.13 136.79C90.13 132.09 79.94 114.12 77.72 111.27Z" fill="black"/>
<path d="M108.13 110.48C108.95 110.48 121.13 131.58 121.13 136.79C121.13 142 117.18 150.79 108.13 150.79C99.08 150.79 94.97 142.69 94.97 136.79C94.97 130.89 108.13 110.48 108.13 110.48Z" fill="#FAED26"/>
<path d="M108.13 151.27C98.71 151.27 94.47 142.76 94.47 136.72C94.47 130.68 107.17 111.04 107.71 110.21L107.85 109.98H108.13C109.25 109.98 114.75 120.28 115.38 121.45C117.71 125.85 121.62 133.68 121.62 136.79C121.62 141.84 117.67 151.27 108.13 151.27ZM108.22 111.27C106.22 114.44 95.47 131.49 95.47 136.72C95.47 142.34 99.4 150.27 108.13 150.27C116.86 150.27 120.62 141.49 120.62 136.79C120.62 132.09 110.44 114.12 108.22 111.27Z" fill="black"/>
<path d="M138.31 110.48C139.13 110.48 151.31 131.58 151.31 136.79C151.31 142 147.31 150.79 138.31 150.79C129.31 150.79 125.16 142.69 125.16 136.79C125.16 130.89 138.31 110.48 138.31 110.48Z" fill="#FAED26"/>
<path d="M138.31 151.27C128.89 151.27 124.66 142.76 124.66 136.72C124.66 130.68 137.35 111.04 137.89 110.21L138.04 109.98H138.31C139.44 109.98 144.94 120.28 145.56 121.45C147.89 125.85 151.81 133.68 151.81 136.79C151.81 141.84 147.85 151.27 138.31 151.27ZM138.4 111.27C136.4 114.44 125.66 131.49 125.66 136.72C125.66 142.34 129.58 150.27 138.31 150.27C147.04 150.27 150.81 141.49 150.81 136.79C150.81 132.09 140.62 114.12 138.4 111.27Z" fill="black"/>
<path d="M47.34 110.48C48.16 110.48 60.34 131.58 60.34 136.79C60.34 142 56.34 150.79 47.34 150.79C38.34 150.79 34.1801 142.69 34.1801 136.79C34.1801 130.89 47.34 110.48 47.34 110.48Z" fill="#FAED26"/>
<path d="M47.34 151.27C37.92 151.27 33.6801 142.76 33.6801 136.72C33.6801 130.68 46.38 111.04 46.92 110.21L47.0699 109.98H47.34C48.46 109.98 53.96 120.28 54.59 121.45C56.92 125.85 60.84 133.68 60.84 136.79C60.84 141.84 56.88 151.27 47.34 151.27ZM47.4301 111.27C45.4301 114.44 34.6801 131.49 34.6801 136.72C34.6801 142.34 38.61 150.27 47.34 150.27C56.07 150.27 59.84 141.49 59.84 136.79C59.84 132.09 49.6501 114.12 47.4301 111.27Z" fill="black"/>
</svg>
