<svg width="300" height="246" viewBox="0 0 300 246" fill="none" xmlns="http://www.w3.org/2000/svg">
<path d="M288 0H12C8.8174 0 5.76521 1.26427 3.51477 3.51471C1.26433 5.76515 0 8.8174 0 12V234C0 237.183 1.26433 240.235 3.51477 242.485C5.76521 244.736 8.8174 246 12 246H288C291.183 246 294.235 244.736 296.485 242.485C298.736 240.235 300 237.183 300 234V12C300 8.8174 298.736 5.76515 296.485 3.51471C294.235 1.26427 291.183 0 288 0Z" fill="#61707E"/>
<path d="M166.31 12.3H15C14.2468 12.3 13.5244 12.5992 12.9918 13.1318C12.4592 13.6644 12.16 14.3867 12.16 15.14V159.8C12.1627 160.551 12.463 161.271 12.9954 161.802C13.5277 162.332 14.2485 162.63 15 162.63H166.27C167.021 162.63 167.74 162.332 168.271 161.801C168.802 161.27 169.1 160.551 169.1 159.8V15.14C169.103 14.3945 168.811 13.6782 168.289 13.1464C167.766 12.6147 167.055 12.3105 166.31 12.3Z" fill="#D3E2E2"/>
<path d="M181.05 12.3H285.05C285.802 12.3026 286.521 12.603 287.052 13.1353C287.582 13.6676 287.88 14.3885 287.88 15.14V162.63H181.05V12.3Z" fill="#F68C20"/>
<path d="M217.4 80.5H203.53V75.27H211.38C212.084 75.2598 212.772 75.0603 213.372 74.6926C213.972 74.3248 214.462 73.8024 214.79 73.18H223.68C223.347 73.6638 223.084 74.1924 222.9 74.75C221.5 78.5833 219.667 80.5 217.4 80.5ZM205.1 41.25V21.62H262.42V35.72C261.89 39.04 260.5 40.87 258.23 41.22H256.14V43.05H263.2V48.05H256.14V50.41H263.2V55.12H249.59C249.94 56.69 250.64 57.47 251.69 57.47H263.2V62.97H245.41C242.963 62.97 239.82 60.3533 235.98 55.12H231.27L228.66 58.2599L227.35 59.5699C225.25 62.1799 223.35 63.41 221.59 63.23H203.79V57.72H215.79C216.66 57.9 217.53 57.03 218.41 55.11H203.75V50.4H210.82V48.04H203.75V43.33H210.82V41.24L205.1 41.25ZM204.84 64.8H214.52C214.846 65.4245 215.335 65.9487 215.936 66.3168C216.536 66.6849 217.226 66.883 217.93 66.89H224.73V72.39H211.38C209.29 72.57 207.38 70.7299 205.62 66.89C205.27 66.02 205 65.32 204.84 64.8ZM252.21 29.21V27.11H215.05V29.21H252.21ZM215.05 33.92V36.0099H252.21V33.92H215.05ZM221.05 41.25V43.34H245.91V41.25H221.05ZM245.91 50.41V48.05H221.05V50.41H245.91ZM228.66 74.72V61.4H238.6V74.72C238.6 78.72 236.6 80.72 232.6 80.72H224.75V75.22H227.89C228.39 75.27 228.66 75.1 228.66 74.72ZM242 66.6H250.12C250.99 66.78 251.77 66.25 252.47 65.03H262.16C261.95 65.4522 261.772 65.8902 261.63 66.34C259.71 70.5333 257.617 72.5333 255.35 72.34H242V66.58V66.6ZM242.53 73.93H251.43L252.21 74.72C253.128 75.077 254.105 75.2536 255.09 75.24H262.68V81H250.12C247.32 81.1933 244.79 78.8466 242.53 73.96V73.93Z" fill="white"/>
<path d="M249.81 81.54C246.95 81.54 244.34 79.06 242.08 74.17L241.75 73.46H251.64L251.78 73.61L252.49 74.3199C253.322 74.6288 254.203 74.7814 255.09 74.77H263.18V81.53H249.81V81.54ZM243.32 74.46C245.39 78.64 247.67 80.68 250.09 80.53H262.18V75.77H255.09C254.04 75.782 252.998 75.5919 252.02 75.21L251.86 75.1L251.22 74.46H243.32ZM232.58 81.27H224.23V74.77H227.87C227.966 74.7894 228.064 74.7894 228.16 74.77V60.9H239.1V74.72C239.1 79.01 236.85 81.27 232.58 81.27ZM225.23 80.27H232.58C236.29 80.27 238.1 78.46 238.1 74.75V61.9H229.16V74.72C229.16 74.96 229.06 75.72 227.87 75.72H225.23V80.27ZM217.4 81H203V74.77H211.35C211.972 74.7642 212.581 74.5877 213.11 74.2598C213.639 73.9318 214.068 73.4649 214.35 72.91H211.35C209.09 73.09 206.97 71.16 205.14 67.12C204.78 66.23 204.51 65.51 204.33 64.98L204.12 64.3199H214.77L214.92 64.56C215.202 65.1138 215.632 65.5792 216.161 65.9055C216.69 66.2318 217.298 66.4063 217.92 66.41H225.22V72.91H224.47L224.09 73.48C223.782 73.9244 223.536 74.4089 223.36 74.92C221.9 78.96 219.89 81 217.4 81ZM204.03 80H217.4C219.4 80 221.12 78.18 222.4 74.58C222.501 74.2697 222.628 73.9687 222.78 73.68H215.03C214.648 74.3154 214.109 74.8416 213.464 75.2078C212.82 75.5739 212.091 75.7675 211.35 75.77H204L204.03 80ZM205.54 65.3C205.69 65.7 205.87 66.17 206.09 66.71C207.72 70.3 209.49 72.03 211.34 71.89H224.23V67.39H217.93C217.189 67.3875 216.46 67.1939 215.816 66.8278C215.171 66.4616 214.632 65.9354 214.25 65.3H205.54ZM255.62 72.9H241.5V66.14H250.12C250.45 66.2 251.17 66.3399 252.04 64.8199L252.18 64.5699H263L262.63 65.3C262.434 65.6997 262.27 66.1144 262.14 66.54C260.173 70.7733 258 72.8933 255.62 72.9ZM242.5 71.9H255.35C257.44 72.06 259.35 70.13 261.18 66.17C261.24 65.97 261.31 65.7699 261.39 65.5699H252.75C251.97 66.8233 251.06 67.3433 250.02 67.1299H242.5V71.9ZM221.91 63.72H203.29V57.22H215.83C216.41 57.33 217.02 56.76 217.64 55.61H203.29V49.9H210.36V48.54H203.29V42.83H210.36V41.72H204.6V21.12H262.92V35.72C262.35 39.34 260.8 41.33 258.31 41.72H256.64V42.55H263.7V48.55H256.64V49.91H263.7V55.62H250.25C250.71 56.97 251.43 56.97 251.69 56.97H263.69V63.47H245.4C242.79 63.47 239.62 60.9 235.72 55.62H231.5L229.03 58.62L227.69 59.96C225.68 62.45 223.73 63.72 221.91 63.72ZM204.29 62.72H221.59C223.2 62.88 224.99 61.72 226.96 59.24L228.3 57.89L231.04 54.61H236.24L236.39 54.81C240.11 59.88 243.14 62.46 245.39 62.46H262.68V57.96H251.68C250.78 57.96 249.6 57.49 249.09 55.22L248.96 54.61H262.69V50.9H255.63V47.54H262.69V43.54H255.63V40.72H258.22C260.22 40.41 261.42 38.72 261.91 35.64V22.12H205.6V40.72H211.36V43.81H204.29V47.52H211.36V50.8799H204.29V54.59H219.23L218.9 55.29C218.54 56.1 217.43 58.5399 215.73 58.1899H204.29V62.72ZM246.43 50.9H220.57V47.54H246.43V50.9ZM221.57 49.9H245.43V48.54H221.57V49.9ZM246.43 43.83H220.57V40.72H246.43V43.83ZM221.57 42.83H245.43V41.72H221.57V42.83ZM252.71 36.5H214.55V33.42H252.71V36.5ZM215.55 35.5H251.71V34.42H215.55V35.5ZM252.71 29.7H214.55V26.6H252.71V29.7ZM215.55 28.7H251.71V27.6H215.55V28.7Z" fill="black"/>
<path d="M287.86 175.01V230.85C287.864 231.227 287.793 231.601 287.651 231.951C287.508 232.3 287.298 232.618 287.032 232.885C286.766 233.152 286.449 233.363 286.1 233.507C285.751 233.65 285.377 233.723 285 233.72H104.39V175.01H287.86Z" fill="#F68C20"/>
<path d="M93 233.72H15C14.2468 233.72 13.5244 233.421 12.9918 232.888C12.4592 232.356 12.16 231.633 12.16 230.88V175.01H93V233.72Z" fill="#F68C20"/>
<path d="M228.39 102.15H204.05V94.56H263.46V102.15H238.6V105.82H262.16V147.43C262.5 151.43 260.5 153.26 256.16 152.92H244.64V145.33H250.92C251.62 145.33 251.92 144.9 251.92 144.03V113.4H238.6V152.92H228.39V113.4H215.05V152.92H205.05V105.82H228.34V102.15H228.39ZM220.02 144.55H216.09V137.48H217.4C218.27 137.66 218.71 137.05 218.71 135.65V131.99H226.82V137.99C227.347 143.063 225.073 145.25 220 144.55H220.02ZM216.36 123.35V116.81H224.73V120.47C224.55 121.87 224.883 122.48 225.73 122.3H227.04V129.11H221.28C217.293 129.81 215.653 127.89 216.36 123.35ZM243.84 129.63H239.91V122.57H241.22C241.91 122.74 242.35 122.13 242.53 120.73V117.07H250.64V122.83C251.16 128.237 248.893 130.503 243.84 129.63ZM240.43 138.27V131.99H248.55V135.65C248.37 137.05 248.72 137.57 249.55 137.22H250.6V144.29H245.37C241.377 144.99 239.73 142.983 240.43 138.27Z" fill="white"/>
<path d="M257.12 153.47C256.79 153.47 256.45 153.47 256.12 153.47H244.12V144.92C243.561 144.969 242.998 144.906 242.464 144.735C241.93 144.563 241.435 144.286 241.01 143.92C239.89 142.83 239.54 140.98 239.93 138.26V131.52H249.05V135.68C248.93 136.68 249.05 136.85 249.05 136.86C249.157 136.858 249.263 136.834 249.36 136.79H251.09V144.86H245.07H250.85C251.08 144.86 251.4 144.86 251.4 144.05V113.9H239.1V153.43H227.89V113.9H215.55V153.43H204.55V105.32H227.84V102.65H203.5V94.06H264V102.65H239.1V105.32H262.66V147.43C262.8 148.246 262.76 149.083 262.54 149.882C262.321 150.68 261.928 151.42 261.39 152.05C260.808 152.558 260.131 152.946 259.398 153.189C258.665 153.433 257.89 153.529 257.12 153.47ZM245.12 152.47H256.12C258.26 152.64 259.78 152.27 260.66 151.38C261.098 150.846 261.414 150.224 261.587 149.555C261.76 148.887 261.785 148.189 261.66 147.51V106.32H238.1V101.65H263V95.06H204.59V101.65H228.93V106.32H205.6V152.43H214.6V112.9H228.94V152.43H238.15V112.9H252.5V144.03C252.5 145.66 251.42 145.84 250.95 145.84H245.17L245.12 152.47ZM240.93 132.53V138.38C240.58 140.74 240.84 142.38 241.71 143.21C242.43 143.92 243.65 144.13 245.32 143.84H250.14V137.72H249.68C249.49 137.81 249.281 137.848 249.072 137.83C248.863 137.813 248.662 137.74 248.49 137.62C247.92 137.18 247.97 136.25 248.05 135.62V132.52L240.93 132.53ZM221.72 145.22C221.141 145.214 220.563 145.17 219.99 145.09H215.59V137.02H217.5C217.78 137.08 217.88 137.02 217.91 137.02C217.94 137.02 218.21 136.66 218.21 135.72V131.56H227.33V138.08C227.6 140.7 227.11 142.67 225.87 143.86C224.713 144.827 223.223 145.301 221.72 145.18V145.22ZM216.59 144.09H220.09C222.45 144.42 224.16 144.09 225.17 143.09C226.18 142.09 226.57 140.43 226.33 138.09V132.52H219.21V135.68C219.256 136.053 219.221 136.432 219.105 136.789C218.989 137.147 218.796 137.475 218.54 137.75C218.376 137.879 218.184 137.97 217.98 138.015C217.775 138.06 217.564 138.058 217.36 138.01H216.59V144.09ZM245.77 130.35C245.099 130.346 244.43 130.286 243.77 130.17H239.39V122.11H241.32C241.45 122.11 241.51 122.11 241.53 122.11C241.55 122.11 241.88 121.8 242.01 120.72V116.62H251.12V122.88C251.4 125.76 250.88 127.88 249.55 129.1C248.49 129.97 247.138 130.403 245.77 130.31V130.35ZM240.41 129.17H243.92C246.21 129.57 247.92 129.29 248.92 128.35C249.92 127.41 250.43 125.51 250.17 122.91V117.6H243V120.72C243.009 121.124 242.932 121.525 242.776 121.897C242.619 122.269 242.385 122.604 242.09 122.88C241.946 122.979 241.782 123.047 241.609 123.078C241.437 123.109 241.26 123.103 241.09 123.06H240.34L240.41 129.17ZM219.84 129.79C219.299 129.83 218.755 129.762 218.24 129.591C217.725 129.419 217.249 129.147 216.84 128.79C215.76 127.73 215.42 125.96 215.84 123.38V116.38H225.21V120.54C225.08 121.54 225.28 121.82 225.32 121.86C225.36 121.9 225.56 121.86 225.66 121.86H227.57V129.67H221.31C220.822 129.727 220.331 129.743 219.84 129.72V129.79ZM216.84 117.35V123.47C216.5 125.69 216.74 127.23 217.57 128.04C218.4 128.85 219.57 128.95 221.23 128.66H226.58V122.85H225.77C225.575 122.899 225.37 122.9 225.175 122.851C224.979 122.802 224.799 122.705 224.65 122.57C224.417 122.277 224.256 121.933 224.182 121.567C224.107 121.2 224.12 120.821 224.22 120.46V117.36L216.84 117.35Z" fill="black"/>
<path d="M39.1899 188.29V183.89H45.25V188.29H46.72V193.44H45.25V195.09H46.35V200.41H45.25V225.41H39V200.41H38.27L37.54 220.06C37.54 222.5 36.37 223.73 34.05 223.73H31.48V219.32C31.97 219.44 32.21 219.2 32.21 218.59L32.95 195.09H39V193.62H31.65V188.29H39.1899ZM47.45 208.72H73.34V215.52C73.46 218.187 72.3567 219.41 70.03 219.19L69.66 221.19H73.34V224.86H46.53V221.19H50.39L49.84 219.19H47.45V208.72ZM47.27 207.25V202.85H73.34V207.25H47.27ZM54.0601 188.89H47.8199V184.3H60.3L59.5699 195.5C59.5699 200.167 57.4267 202.25 53.14 201.75H48V197.16H52.22C52.83 197.28 53.2199 196.91 53.3199 196.05L53.51 195.5H50.5699C48.7299 195.38 47.8199 194.22 47.8199 192.01V190.36H51.67C51.55 190.98 51.79 191.22 52.41 191.1H53.87L54.0601 188.89ZM53.3199 213.31V214.72H66.3199C66.8099 214.84 67.05 214.6 67.05 213.99V213.25L53.3199 213.31ZM63.61 219.19H56.61V221.19H63.61V219.19ZM61.77 197.19L60.85 184.33H73.34V189.47H67.64L68.01 191.31H68.9301C69.5401 191.43 69.85 191.19 69.85 190.58H73.52L73.34 192.78C73.2133 194.86 72.2933 195.717 70.58 195.35H68.1899L68.38 196.08C68.25 196.94 68.68 197.31 69.66 197.19H73.15V201.59H66.54C63.5134 201.79 61.9234 200.297 61.77 197.11V197.19Z" fill="white"/>
<path d="M45.75 225.88H38.5V207.54L38.04 220.07C38.04 222.79 36.66 224.23 34.04 224.23H31V218.72L31.62 218.88H31.72C31.72 218.88 31.72 218.78 31.72 218.62L32.47 194.62H38.47V194.15H31.12V187.82H38.65V183.42H45.71V187.82H47.1801V193.96H45.71V194.62H46.8101V200.94H45.71L45.75 225.88ZM39.5 224.88H44.75V199.88H45.85V195.56H44.75V192.9H46.22V188.76H44.75V184.36H39.6899V188.76H32.16V193.09H39.51V195.56H33.4301L32.71 218.56C32.7263 218.756 32.698 218.954 32.627 219.137C32.5559 219.321 32.4442 219.486 32.3 219.62C32.2039 219.692 32.0954 219.746 31.98 219.78V223.19H34.05C36.05 223.19 37.05 222.19 37.05 220.02L37.8 199.87H39.51L39.5 224.88ZM73.84 225.33H46V220.66H49.7L49.42 219.66H47V208.17H73.89V215.47C73.9808 216.078 73.9384 216.699 73.7657 217.29C73.5931 217.88 73.2943 218.426 72.89 218.89C72.5677 219.176 72.1902 219.393 71.7809 219.527C71.3715 219.661 70.939 219.71 70.51 219.67L70.33 220.67H73.91L73.84 225.33ZM47.03 224.33H72.84V221.66H69.0699L69.62 218.59H70.08C70.4375 218.666 70.8074 218.663 71.1635 218.58C71.5195 218.497 71.8529 218.336 72.14 218.11C72.4374 217.739 72.6535 217.309 72.774 216.849C72.8946 216.389 72.9171 215.909 72.84 215.44V209.12H48V218.59H50.27L51.09 221.59H47.09L47.03 224.33ZM64.11 221.66H56.11V218.66H64.11V221.66ZM57.11 220.66H63.11V219.66H57.11V220.66ZM52.8101 215.26V212.72H67.5699V213.96C67.5871 214.158 67.5592 214.357 67.4882 214.542C67.4171 214.728 67.305 214.894 67.16 215.03C66.9962 215.167 66.7929 215.247 66.58 215.26H52.8101ZM53.8101 214.26H66.5601C66.5601 214.26 66.5601 214.16 66.5601 214V213.72H53.8L53.8101 214.26ZM73.8101 207.73H46.74V202.33H73.8101V207.73ZM47.74 206.73H72.8101V203.33H47.74V206.73ZM54.27 202.29C53.8623 202.29 53.455 202.267 53.05 202.22H47.47V196.63H52.1899C52.4599 196.63 52.52 196.63 52.54 196.63C52.56 196.63 52.73 196.46 52.8 195.99H50.54C49.04 195.89 47.29 195.12 47.29 191.99V189.84H52.29L52.17 190.44C52.17 190.52 52.17 190.57 52.17 190.61H53.45L53.55 189.4H47.35V183.72H73.87V189.86H68.28L68.45 190.7H68.96C69.0853 190.726 69.2146 190.726 69.34 190.7C69.3611 190.618 69.3611 190.532 69.34 190.45V189.95H74.05L73.8199 192.69C73.8424 193.188 73.7557 193.686 73.5657 194.147C73.3756 194.608 73.087 195.022 72.72 195.36C72.4009 195.575 72.0391 195.718 71.6594 195.781C71.2797 195.843 70.891 195.822 70.52 195.72H68.83L68.88 195.93V196.03C68.8393 196.181 68.8573 196.342 68.9301 196.48C69.0001 196.55 69.21 196.61 69.61 196.56H73.66V201.96H66.55C65.8867 202.06 65.2098 202.022 64.5614 201.85C63.913 201.678 63.3068 201.375 62.78 200.96C62.2784 200.45 61.8865 199.842 61.6285 199.175C61.3706 198.508 61.2519 197.795 61.28 197.08L60.6 187.5L60.08 195.44C60.08 197.95 59.4401 199.82 58.1801 200.94C57.0995 201.854 55.7136 202.325 54.3 202.26L54.27 202.29ZM48.47 201.22H53.11C55.11 201.44 56.52 201.13 57.47 200.22C58.42 199.31 59.04 197.69 59.04 195.43L59.74 184.73H48.29V188.32H54.5699L54.3 191.53H52.38C52.2067 191.578 52.0239 191.581 51.849 191.539C51.6741 191.497 51.5126 191.412 51.38 191.29C51.2445 191.155 51.1568 190.979 51.13 190.79H48.29V191.94C48.29 194.49 49.5899 194.87 50.5699 194.94H54.17L53.77 196.15C53.7561 196.392 53.6909 196.629 53.5789 196.845C53.4668 197.06 53.3104 197.249 53.12 197.4C52.825 197.593 52.4653 197.662 52.12 197.59H48.5L48.47 201.22ZM61.39 184.72L62.27 197.06C62.2413 197.639 62.3291 198.218 62.5283 198.763C62.7276 199.307 63.0343 199.806 63.4301 200.23C63.864 200.557 64.36 200.792 64.8878 200.921C65.4156 201.05 65.9642 201.07 66.5 200.98H72.65V197.58H69.65C69.3955 197.635 69.1315 197.629 68.8796 197.563C68.6277 197.497 68.3949 197.373 68.2 197.2C68.0565 197.041 67.9514 196.85 67.8925 196.644C67.8335 196.438 67.8224 196.221 67.86 196.01L67.54 194.74H70.6801C70.9179 194.819 71.1701 194.845 71.4189 194.815C71.6678 194.786 71.9071 194.702 72.12 194.57C72.3651 194.313 72.5546 194.008 72.6768 193.674C72.7989 193.34 72.8511 192.985 72.83 192.63L72.97 190.96H70.27C70.2112 191.163 70.0928 191.344 69.9301 191.48C69.774 191.599 69.592 191.679 69.399 191.714C69.2061 191.748 69.0076 191.737 68.8199 191.68H67.59L67.02 188.84H72.83V184.72H61.39Z" fill="black"/>
<path d="M109.38 219.53V189.46H118.67C120.027 189.388 121.381 189.641 122.62 190.2C123.648 190.832 124.425 191.8 124.82 192.94C125.42 194.491 125.706 196.147 125.66 197.81C125.688 199.272 125.472 200.729 125.02 202.12C124.66 203.237 124.06 204.261 123.26 205.12C122.685 205.654 122.003 206.059 121.26 206.31C121.804 206.588 122.295 206.961 122.71 207.41C123.054 207.908 123.352 208.437 123.6 208.99C123.906 209.593 124.167 210.218 124.38 210.86L127.08 219.57H120.78L117.78 210.38C117.579 209.559 117.241 208.778 116.78 208.07C116.621 207.858 116.416 207.685 116.181 207.564C115.945 207.442 115.685 207.376 115.42 207.37H115V219.58L109.38 219.53ZM114.97 201.64H117.32C117.831 201.578 118.33 201.44 118.8 201.23C119.008 201.144 119.196 201.016 119.352 200.854C119.509 200.692 119.63 200.5 119.71 200.29C119.95 199.742 120.069 199.148 120.06 198.55C120.108 197.764 119.912 196.982 119.5 196.31C119.242 196.021 118.918 195.799 118.556 195.664C118.194 195.528 117.804 195.482 117.42 195.53H115L114.97 201.64Z" fill="white"/>
<path d="M115.48 220.02H108.88V188.96H118.67C120.111 188.881 121.549 189.156 122.86 189.76C123.987 190.452 124.842 191.512 125.28 192.76C125.902 194.376 126.201 196.099 126.16 197.83C126.188 199.35 125.962 200.865 125.49 202.31C125.104 203.48 124.462 204.55 123.61 205.44C123.236 205.803 122.812 206.109 122.35 206.35C122.639 206.553 122.901 206.792 123.13 207.06C123.522 207.587 123.857 208.153 124.13 208.75C124.447 209.376 124.718 210.024 124.94 210.69L127.84 220.04H120.5L117.41 210.51C117.219 209.749 116.909 209.023 116.49 208.36C116.375 208.202 116.224 208.073 116.051 207.983C115.877 207.893 115.685 207.844 115.49 207.84L115.48 220.02ZM109.88 219.02H114.48V206.82H115.48C115.817 206.825 116.148 206.906 116.449 207.056C116.751 207.207 117.014 207.423 117.22 207.69C117.73 208.45 118.105 209.293 118.33 210.18L121.2 219.02H126.45L123.95 210.96C123.749 210.341 123.498 209.739 123.2 209.16C122.977 208.639 122.698 208.143 122.37 207.68C121.998 207.27 121.554 206.931 121.06 206.68L120.13 206.16L121.13 205.78C121.794 205.551 122.401 205.183 122.91 204.7C123.658 203.919 124.218 202.979 124.55 201.95C124.99 200.612 125.199 199.208 125.17 197.8C125.212 196.203 124.941 194.613 124.37 193.12C124.009 192.085 123.302 191.206 122.37 190.63C121.205 190.111 119.933 189.878 118.66 189.95H109.87L109.88 219.02ZM117.33 202.14H114.47V195.03H117.47C117.935 194.979 118.406 195.044 118.84 195.219C119.274 195.393 119.659 195.672 119.96 196.03C120.434 196.786 120.661 197.67 120.61 198.56C120.618 199.231 120.482 199.896 120.21 200.51C120.103 200.785 119.941 201.034 119.733 201.243C119.524 201.451 119.275 201.613 119 201.72C118.472 201.957 117.907 202.1 117.33 202.14ZM115.47 201.14H117.33C117.779 201.073 118.216 200.945 118.63 200.76C118.775 200.696 118.905 200.602 119.012 200.485C119.118 200.368 119.2 200.23 119.25 200.08C119.466 199.599 119.572 199.077 119.56 198.55C119.614 197.852 119.453 197.154 119.1 196.55C118.883 196.332 118.618 196.167 118.327 196.068C118.035 195.97 117.725 195.939 117.42 195.98H115.42L115.47 201.14Z" fill="black"/>
<path d="M140 214.56H133.68L132.8 219.56H127.11L133.89 189.49H140L146.77 219.56H140.94L140 214.56ZM138.85 208.06L136.85 197.25L134.85 208.06H138.85Z" fill="white"/>
<path d="M147.36 220.02H140.48L139.58 215.02H134.08L133.21 220.02H126.47L133.47 188.96H140.35L147.36 220.02ZM141.36 219.02H146.16L139.61 189.96H134.33L127.77 219.02H132.42L133.3 214.02H140.46L141.36 219.02ZM139.49 208.56H134.33L136.89 194.48L139.49 208.56ZM135.49 207.56H138.25L136.86 200.03L135.49 207.56Z" fill="black"/>
<path d="M148.73 189.46H154.31V219.53H148.73V189.46Z" fill="white"/>
<path d="M154.81 220.02H148.23V188.96H154.81V220.02ZM149.23 219.02H153.81V189.96H149.23V219.02Z" fill="black"/>
<path d="M158.35 189.46H163.55L170.35 206.1V189.46H175.6V219.53H170.35L163.59 203.02V219.53H158.35V189.46Z" fill="white"/>
<path d="M176.1 220.02H170L164.08 205.56V220.02H157.84V188.96H163.84L169.84 203.55V188.96H176.09L176.1 220.02ZM170.68 219.02H175.1V189.96H170.85V208.64L163.22 189.96H158.85V219.02H163.09V200.48L170.68 219.02Z" fill="black"/>
<path d="M186.74 209.58L192.04 209.03C192.085 210.155 192.322 211.264 192.74 212.31C192.918 212.827 193.248 213.277 193.687 213.602C194.126 213.927 194.654 214.111 195.2 214.13C195.561 214.146 195.92 214.069 196.242 213.906C196.564 213.743 196.839 213.5 197.04 213.2C197.476 212.561 197.703 211.803 197.69 211.03C197.698 210.287 197.482 209.558 197.07 208.94C196.306 208.099 195.317 207.495 194.22 207.2C192.143 206.55 190.317 205.275 188.99 203.55C187.881 201.824 187.329 199.8 187.41 197.75C187.4 196.252 187.675 194.766 188.22 193.37C188.696 192.078 189.536 190.953 190.64 190.13C191.957 189.274 193.512 188.861 195.08 188.95C196.063 188.885 197.048 189.043 197.961 189.414C198.874 189.785 199.691 190.358 200.35 191.09C201.563 192.517 202.283 194.79 202.51 197.91L197.26 198.42C197.224 197.362 196.922 196.33 196.38 195.42C196.173 195.124 195.895 194.885 195.572 194.724C195.249 194.564 194.891 194.487 194.53 194.5C194.248 194.483 193.966 194.536 193.709 194.655C193.453 194.774 193.23 194.954 193.06 195.18C192.721 195.673 192.55 196.262 192.57 196.86C192.569 197.322 192.712 197.773 192.98 198.15C193.48 198.694 194.131 199.077 194.85 199.25C196.729 199.841 198.496 200.74 200.08 201.91C201.124 202.8 201.918 203.948 202.38 205.24C202.877 206.67 203.121 208.176 203.1 209.69C203.107 211.514 202.768 213.323 202.1 215.02C201.581 216.488 200.651 217.776 199.42 218.73C198.147 219.607 196.625 220.049 195.08 219.99C192.007 219.99 189.88 218.99 188.7 216.99C187.456 214.715 186.783 212.172 186.74 209.58Z" fill="white"/>
<path d="M195.12 220.54C191.88 220.54 189.59 219.46 188.31 217.34C186.998 214.968 186.287 212.31 186.24 209.6V209.13L192.53 208.47V208.98C192.573 210.046 192.793 211.096 193.18 212.09C193.316 212.52 193.581 212.898 193.938 213.174C194.296 213.449 194.729 213.608 195.18 213.63C195.461 213.646 195.741 213.588 195.992 213.462C196.243 213.335 196.456 213.145 196.61 212.91C196.965 212.36 197.154 211.719 197.154 211.065C197.154 210.41 196.965 209.77 196.61 209.22C195.91 208.459 195.003 207.92 194 207.67C191.825 206.984 189.915 205.642 188.53 203.83C187.363 202.023 186.783 199.899 186.87 197.75C186.862 196.188 187.144 194.639 187.7 193.18C188.22 191.803 189.122 190.603 190.3 189.72C191.704 188.809 193.359 188.364 195.03 188.45C196.086 188.385 197.143 188.559 198.121 188.961C199.1 189.363 199.975 189.981 200.68 190.77C201.96 192.27 202.68 194.66 202.96 197.87V198.36L196.72 198.97V198.47C196.716 197.507 196.468 196.561 196 195.72C195.839 195.49 195.623 195.305 195.371 195.181C195.119 195.056 194.84 194.998 194.56 195.01C194.358 194.992 194.155 195.026 193.969 195.108C193.784 195.191 193.623 195.318 193.5 195.48C193.223 195.885 193.083 196.369 193.1 196.86C193.096 197.218 193.204 197.568 193.41 197.86C193.848 198.324 194.416 198.644 195.04 198.78C196.981 199.388 198.806 200.318 200.44 201.53C201.548 202.477 202.389 203.697 202.88 205.07C203.396 206.555 203.65 208.118 203.63 209.69C203.647 211.576 203.308 213.449 202.63 215.21C202.072 216.764 201.079 218.124 199.77 219.13C198.414 220.091 196.782 220.586 195.12 220.54ZM187.26 210.03C187.36 212.414 188.014 214.742 189.17 216.83C190.27 218.65 192.17 219.54 195.12 219.54C196.545 219.591 197.947 219.18 199.12 218.37C200.276 217.475 201.151 216.267 201.64 214.89C202.266 213.246 202.578 211.499 202.56 209.74C202.58 208.284 202.346 206.836 201.87 205.46C201.436 204.251 200.695 203.176 199.72 202.34C198.179 201.21 196.463 200.342 194.64 199.77C193.813 199.573 193.071 199.118 192.52 198.47C192.196 198.011 192.025 197.462 192.03 196.9C192.008 196.189 192.211 195.489 192.61 194.9C192.826 194.609 193.111 194.375 193.439 194.22C193.767 194.065 194.128 193.993 194.49 194.01C194.93 193.995 195.366 194.091 195.759 194.288C196.152 194.486 196.489 194.778 196.74 195.14C197.263 195.951 197.578 196.878 197.66 197.84L201.93 197.42C201.68 194.67 201 192.64 199.93 191.42C199.322 190.736 198.565 190.199 197.717 189.853C196.869 189.506 195.954 189.358 195.04 189.42C193.581 189.339 192.133 189.717 190.9 190.5C189.876 191.262 189.095 192.304 188.65 193.5C188.129 194.838 187.868 196.264 187.88 197.7C187.801 199.644 188.317 201.567 189.36 203.21C190.632 204.851 192.378 206.062 194.36 206.68C195.562 207.002 196.641 207.674 197.46 208.61C197.923 209.313 198.167 210.138 198.16 210.98C198.176 211.854 197.917 212.711 197.42 213.43C197.174 213.798 196.839 214.097 196.445 214.298C196.051 214.499 195.612 214.596 195.17 214.58C194.528 214.566 193.906 214.356 193.386 213.979C192.866 213.602 192.473 213.076 192.26 212.47C191.866 211.532 191.63 210.535 191.56 209.52L187.26 210.03Z" fill="black"/>
<path d="M204.64 189.46H221.58V196.89H215.9V219.53H210.32V196.88H204.64V189.46Z" fill="white"/>
<path d="M216.4 220.02H209.82V197.38H204.14V188.96H222.08V197.39H216.4V220.02ZM210.82 219.02H215.4V196.39H221.08V189.96H205.14V196.38H210.82V219.02Z" fill="black"/>
<path d="M222.54 204.51C222.54 199.61 223.36 195.78 225 193.05C225.677 191.815 226.671 190.784 227.881 190.063C229.091 189.342 230.471 188.958 231.879 188.951C233.287 188.944 234.672 189.314 235.889 190.022C237.106 190.731 238.111 191.752 238.8 192.98C240.42 195.647 241.23 199.41 241.23 204.27C241.309 207.187 240.952 210.099 240.17 212.91C239.619 214.899 238.557 216.709 237.09 218.16C235.733 219.416 233.938 220.091 232.09 220.04C230.285 220.099 228.517 219.526 227.09 218.42C225.556 217.043 224.435 215.267 223.85 213.29C222.923 210.458 222.48 207.489 222.54 204.51ZM228.12 204.51C228.12 207.51 228.45 209.73 229.12 211.06C229.333 211.627 229.709 212.119 230.199 212.475C230.69 212.831 231.275 213.034 231.88 213.06C232.492 213.044 233.085 212.845 233.582 212.488C234.079 212.132 234.458 211.634 234.67 211.06C235.337 209.76 235.67 207.427 235.67 204.06C235.811 201.944 235.469 199.824 234.67 197.86C234.453 197.29 234.072 196.796 233.576 196.44C233.08 196.085 232.49 195.883 231.88 195.86C231.284 195.894 230.711 196.101 230.231 196.456C229.751 196.812 229.386 197.3 229.18 197.86C228.473 199.267 228.12 201.497 228.12 204.55V204.51Z" fill="white"/>
<path d="M232.08 220.54C230.143 220.604 228.245 219.992 226.71 218.81C225.114 217.367 223.939 215.518 223.31 213.46C222.387 210.552 221.958 207.51 222.04 204.46C222.04 199.46 222.89 195.54 224.58 192.74C225.3 191.433 226.357 190.342 227.64 189.579C228.923 188.817 230.387 188.411 231.879 188.404C233.372 188.397 234.839 188.789 236.13 189.539C237.42 190.289 238.487 191.37 239.22 192.67C240.89 195.42 241.73 199.31 241.73 204.22C241.808 207.187 241.444 210.15 240.65 213.01C240.066 215.08 238.957 216.965 237.43 218.48C235.985 219.84 234.064 220.579 232.08 220.54ZM231.86 189.45C230.535 189.429 229.23 189.78 228.094 190.462C226.957 191.144 226.035 192.131 225.43 193.31C223.85 195.95 223.04 199.72 223.04 204.51C222.962 207.428 223.374 210.339 224.26 213.12C224.823 215.005 225.888 216.702 227.34 218.03C228.696 219.07 230.372 219.605 232.08 219.54C233.806 219.601 235.485 218.975 236.75 217.8C238.141 216.412 239.153 214.69 239.69 212.8C240.441 210.035 240.778 207.174 240.69 204.31C240.69 199.58 239.9 195.87 238.33 193.31C237.718 192.128 236.788 191.141 235.645 190.459C234.502 189.777 233.191 189.427 231.86 189.45ZM231.86 213.59C231.163 213.568 230.487 213.341 229.918 212.937C229.349 212.533 228.911 211.971 228.66 211.32C227.94 209.91 227.59 207.7 227.59 204.55C227.59 201.4 227.94 199.15 228.66 197.74C228.906 197.096 229.336 196.539 229.896 196.137C230.456 195.735 231.121 195.507 231.81 195.48C232.508 195.497 233.186 195.717 233.761 196.113C234.337 196.509 234.784 197.064 235.05 197.71C235.894 199.743 236.263 201.942 236.13 204.14C236.13 207.62 235.79 209.98 235.13 211.36C234.874 212.013 234.429 212.574 233.852 212.971C233.274 213.369 232.591 213.584 231.89 213.59H231.86ZM231.81 196.48C230.89 196.48 230.15 197.04 229.55 198.2C228.95 199.36 228.55 201.59 228.55 204.55C228.55 207.51 228.87 209.62 229.55 210.87C229.723 211.352 230.034 211.773 230.445 212.079C230.856 212.385 231.348 212.563 231.86 212.59C232.374 212.577 232.871 212.41 233.289 212.11C233.706 211.811 234.023 211.392 234.2 210.91C234.82 209.69 235.13 207.41 235.13 204.14C235.249 202.09 234.907 200.04 234.13 198.14C233.945 197.675 233.632 197.271 233.226 196.977C232.821 196.683 232.34 196.511 231.84 196.48H231.81Z" fill="black"/>
<path d="M244.31 219.53V189.46H253.6C254.974 189.38 256.346 189.634 257.6 190.2C258.628 190.832 259.405 191.8 259.8 192.94C260.4 194.491 260.686 196.147 260.64 197.81C260.673 199.273 260.457 200.73 260 202.12C259.64 203.237 259.04 204.261 258.24 205.12C257.665 205.654 256.983 206.059 256.24 206.31C256.787 206.585 257.278 206.958 257.69 207.41C258.038 207.906 258.336 208.435 258.58 208.99C258.886 209.593 259.147 210.218 259.36 210.86L262.06 219.57H255.76L252.76 210.38C252.553 209.561 252.216 208.781 251.76 208.07C251.599 207.858 251.392 207.685 251.155 207.564C250.917 207.443 250.656 207.377 250.39 207.37H249.9V219.58L244.31 219.53ZM249.91 201.64H252.26C252.771 201.576 253.269 201.438 253.74 201.23C253.947 201.143 254.133 201.015 254.288 200.854C254.443 200.692 254.563 200.5 254.64 200.29C254.88 199.742 254.999 199.148 254.99 198.55C255.041 197.765 254.848 196.983 254.44 196.31C254.182 196.022 253.858 195.801 253.496 195.665C253.134 195.529 252.744 195.483 252.36 195.53H249.91V201.64Z" fill="white"/>
<path d="M250.41 220.02H243.81V188.96H253.6C255.041 188.881 256.479 189.156 257.79 189.76C258.92 190.449 259.775 191.51 260.21 192.76C260.832 194.376 261.131 196.099 261.09 197.83C261.117 199.35 260.891 200.864 260.42 202.31C260.034 203.48 259.392 204.55 258.54 205.44C258.166 205.803 257.742 206.109 257.28 206.35C257.577 206.551 257.843 206.793 258.07 207.07C258.465 207.591 258.8 208.155 259.07 208.75C259.389 209.375 259.66 210.024 259.88 210.69L262.78 220.04H255.44L252.35 210.51C252.159 209.749 251.849 209.023 251.43 208.36C251.316 208.2 251.166 208.07 250.993 207.98C250.819 207.889 250.626 207.841 250.43 207.84L250.41 220.02ZM244.81 219.02H249.41V206.82H250.41C250.747 206.824 251.079 206.905 251.38 207.055C251.681 207.206 251.945 207.423 252.15 207.69C252.663 208.448 253.039 209.291 253.26 210.18L256.13 219.02H261.38L258.89 210.96C258.68 210.343 258.426 209.741 258.13 209.16C257.904 208.642 257.629 208.146 257.31 207.68C256.933 207.275 256.49 206.936 256 206.68L255.06 206.16L256.06 205.78C256.724 205.551 257.331 205.183 257.84 204.7C258.587 203.917 259.151 202.978 259.49 201.95C259.921 200.61 260.127 199.208 260.1 197.8C260.143 196.203 259.872 194.612 259.3 193.12C258.942 192.083 258.235 191.203 257.3 190.63C256.135 190.111 254.863 189.878 253.59 189.95H244.8L244.81 219.02ZM252.26 202.14H249.41V195.03H252.36C252.824 194.979 253.293 195.044 253.726 195.219C254.158 195.393 254.541 195.672 254.84 196.03C255.313 196.786 255.54 197.67 255.49 198.56C255.503 199.232 255.366 199.898 255.09 200.51C254.986 200.784 254.825 201.034 254.618 201.242C254.412 201.451 254.163 201.613 253.89 201.72C253.374 201.951 252.823 202.093 252.26 202.14ZM250.41 201.14H252.26C252.709 201.075 253.147 200.947 253.56 200.76C253.706 200.695 253.836 200.601 253.945 200.484C254.053 200.368 254.136 200.23 254.19 200.08C254.399 199.597 254.501 199.076 254.49 198.55C254.549 197.852 254.388 197.152 254.03 196.55C253.814 196.334 253.551 196.17 253.261 196.071C252.972 195.972 252.663 195.941 252.36 195.98H250.41V201.14Z" fill="black"/>
<path d="M263.78 189.46H271.11L273.93 207.75L276.74 189.46H284.07V219.53H279.5V196.6L276 219.53H271.87L268.36 196.6V219.53H263.8V189.46H263.78Z" fill="white"/>
<path d="M284.57 220.02H279V203.15L276.41 220.02H271.41L268.83 203.17V220.02H263.27V188.96H271.52L273.92 204.47L276.3 188.96H284.56L284.57 220.02ZM280 219.02H283.57V189.96H277.17L273.93 211.04L270.68 189.96H264.28V219.02H267.84V196.6L268.84 196.52L272.29 219.02H275.57L279.02 196.52L280.02 196.6L280 219.02Z" fill="black"/>
<path d="M79.59 51.5799C80.41 37.3299 85.07 24.45 105.08 24.18C125.09 23.91 129.46 41.4399 129.74 51.5799C135.255 52.0088 140.51 54.101 144.81 57.5799C148.269 60.5825 150.67 64.6178 151.66 69.0899C151.66 69.0899 165.09 71.8099 161.28 84.9699C157.41 98.3199 140.15 94.8399 140.15 94.8399C138.103 96.4847 135.637 97.5239 133.03 97.8399C129.793 98.0554 126.544 97.6827 123.44 96.74C120.981 98.2253 118.269 99.2425 115.44 99.74C110.23 100.84 102.56 99.74 102.56 99.74C98.8492 102.962 94.0394 104.631 89.13 104.4C81.19 103.85 72.4201 98.6499 72.4201 98.6499C72.4201 98.6499 62 103.81 54.61 102.05C47.22 100.29 42.6 92.7199 42.6 92.7199C42.6 92.7199 32.46 100.66 23.97 92.17C17.52 85.74 18.76 78.17 22.32 72.99C25.88 67.81 35.2001 65.32 41.78 70.8C41.78 70.8 45.89 62.8499 51.64 61.2099C57.39 59.5699 66.71 60.3899 66.71 60.3899C68.6815 58.4206 70.7865 56.5896 73.01 54.9099C75.0704 53.5547 77.2778 52.4375 79.59 51.5799Z" fill="#F68C20"/>
<path d="M90.37 105C89.97 105 89.5601 105 89.15 105C81.8 104.49 73.92 100.16 72.45 99.31C70.79 100.1 61.4501 104.31 54.5401 102.64C47.9901 101.08 43.61 95.15 42.46 93.43C40.6721 94.6544 38.6863 95.5611 36.59 96.11C34.3029 96.759 31.8817 96.7684 29.5896 96.1372C27.2975 95.506 25.2224 94.2583 23.59 92.53C16.91 85.85 18.33 77.91 21.89 72.71C22.9859 71.2308 24.3725 69.9914 25.965 69.0679C27.5574 68.1445 29.322 67.5564 31.15 67.34C32.9839 67.0694 34.8534 67.1689 36.6482 67.6326C38.443 68.0964 40.1267 68.9149 41.6 70.04C42.66 68.19 46.41 62.18 51.48 60.73C56.82 59.2 64.99 59.73 66.48 59.87C68.4247 57.94 70.4995 56.1458 72.69 54.5C74.6911 53.1888 76.8307 52.1022 79.07 51.2599C79.86 38.52 83.6 24.01 105.07 23.72H105.52C122.98 23.72 129.72 37.72 130.22 51.16C135.689 51.6687 140.881 53.7998 145.13 57.28C148.611 60.2722 151.061 64.2858 152.13 68.75C153.46 69.08 158.37 70.57 160.95 74.83C162.67 77.68 162.95 81.1699 161.8 85.1899C158.1 97.9399 142.48 95.81 140.33 95.46C138.243 97.0892 135.756 98.1256 133.13 98.46C129.902 98.7117 126.656 98.3728 123.55 97.46C121.102 98.9079 118.423 99.9228 115.63 100.46C110.85 101.46 104.17 100.68 102.81 100.46C99.3161 103.371 94.918 104.977 90.37 105ZM72.49 98.14L72.72 98.28C72.81 98.33 81.48 103.43 89.22 103.96C93.9702 104.16 98.6183 102.544 102.22 99.4399L102.39 99.28H102.63C102.71 99.28 110.28 100.35 115.34 99.28C118.083 98.7762 120.712 97.7802 123.1 96.34L123.3 96.2L123.54 96.27C126.572 97.1958 129.747 97.5618 132.91 97.35C135.419 97.0372 137.793 96.0371 139.77 94.46L139.95 94.29H140.2C140.37 94.29 157.05 97.52 160.75 84.77C161.83 81.03 161.58 77.82 160 75.21C157.31 70.75 151.57 69.5299 151.51 69.5099L151.17 69.45V69.11C150.188 64.7575 147.844 60.831 144.48 57.9C140.265 54.4932 135.122 52.4339 129.72 51.99H129.25V51.52C128.56 26.25 110.57 24.52 105.09 24.61C84.3 24.89 80.82 39.15 80.09 51.54V51.87L79.78 51.98C77.5115 52.8089 75.3442 53.8925 73.32 55.21C71.1222 56.8726 69.0407 58.6834 67.09 60.6299L66.9201 60.8H66.69C66.6 60.8 57.4001 60.01 51.8001 61.61C46.2001 63.21 42.28 70.8699 42.24 70.95L41.96 71.5L41.48 71.1C40.0851 69.936 38.4592 69.081 36.7096 68.5914C34.96 68.1019 33.1264 67.9889 31.33 68.2599C29.6405 68.4529 28.0086 68.9899 26.5347 69.8378C25.0608 70.6857 23.7761 71.8265 22.76 73.1899C21.14 75.5599 16.47 83.88 24.34 91.74C25.8348 93.353 27.7487 94.5187 29.8678 95.1068C31.9869 95.6948 34.2277 95.682 36.34 95.0699C38.4973 94.5095 40.5318 93.5534 42.34 92.25L42.78 91.9L43.08 92.3799C43.08 92.4599 47.72 99.9 54.82 101.58C61.92 103.26 72.1901 98.27 72.3001 98.22L72.49 98.14Z" fill="black"/>
<path d="M77.67 110.48C78.5 110.48 90.67 131.58 90.67 136.78C90.67 141.98 86.67 150.78 77.67 150.78C68.67 150.78 64.52 142.68 64.52 136.78C64.52 130.88 77.67 110.48 77.67 110.48Z" fill="#F68C20"/>
<path d="M77.67 151.26C68.26 151.26 64.02 142.75 64.02 136.71C64.02 130.67 76.71 111.04 77.25 110.21L77.4 109.98H77.67C78.8 109.98 84.3 120.27 84.92 121.44C87.26 125.84 91.17 133.68 91.17 136.78C91.17 141.83 87.21 151.26 77.67 151.26ZM77.77 111.26C75.77 114.44 65.02 131.49 65.02 136.71C65.02 142.34 68.95 150.26 77.67 150.26C86.39 150.26 90.17 141.48 90.17 136.78C90.17 132.08 80 114.11 77.77 111.26Z" fill="black"/>
<path d="M108.17 110.48C108.99 110.48 121.17 131.58 121.17 136.78C121.17 141.98 117.17 150.78 108.17 150.78C99.17 150.78 95.02 142.68 95.02 136.78C95.02 130.88 108.17 110.48 108.17 110.48Z" fill="#F68C20"/>
<path d="M108.17 151.26C98.75 151.26 94.52 142.75 94.52 136.71C94.52 130.67 107.21 111.04 107.75 110.21L107.9 109.98H108.17C109.3 109.98 114.79 120.27 115.42 121.44C117.75 125.84 121.67 133.68 121.67 136.78C121.67 141.83 117.71 151.26 108.17 151.26ZM108.26 111.26C106.26 114.44 95.52 131.49 95.52 136.71C95.52 142.34 99.44 150.26 108.17 150.26C116.9 150.26 120.67 141.48 120.67 136.78C120.67 132.08 110.48 114.11 108.26 111.26Z" fill="black"/>
<path d="M138.35 110.48C139.18 110.48 151.35 131.58 151.35 136.78C151.35 141.98 147.4 150.78 138.35 150.78C129.3 150.78 125.2 142.68 125.2 136.78C125.2 130.88 138.35 110.48 138.35 110.48Z" fill="#F68C20"/>
<path d="M138.35 151.26C128.94 151.26 124.7 142.75 124.7 136.71C124.7 130.67 137.39 111.04 137.93 110.21L138.08 109.98H138.35C139.48 109.98 144.98 120.27 145.6 121.44C147.94 125.84 151.85 133.68 151.85 136.78C151.85 141.83 147.89 151.26 138.35 151.26ZM138.45 111.26C136.45 114.44 125.7 131.49 125.7 136.71C125.7 142.34 129.63 150.26 138.35 150.26C147.07 150.26 150.85 141.48 150.85 136.78C150.85 132.08 140.67 114.11 138.45 111.26Z" fill="black"/>
<path d="M47.38 110.48C48.2 110.48 60.38 131.58 60.38 136.78C60.38 141.98 56.38 150.78 47.38 150.78C38.38 150.78 34.23 142.68 34.23 136.78C34.23 130.88 47.38 110.48 47.38 110.48Z" fill="#F68C20"/>
<path d="M47.38 151.26C37.96 151.26 33.73 142.75 33.73 136.71C33.73 130.67 46.42 111.04 46.96 110.21L47.11 109.98H47.38C48.51 109.98 54.01 120.27 54.63 121.44C56.96 125.84 60.88 133.68 60.88 136.78C60.88 141.83 56.92 151.26 47.38 151.26ZM47.47 111.26C45.47 114.44 34.73 131.49 34.73 136.71C34.73 142.34 38.65 150.26 47.38 150.26C56.11 150.26 59.88 141.48 59.88 136.78C59.88 132.08 49.69 114.11 47.47 111.26Z" fill="black"/>
</svg>
