<svg width="300" height="246" viewBox="0 0 300 246" fill="none" xmlns="http://www.w3.org/2000/svg">
<path d="M288 0H12C8.8174 0 5.76515 1.26433 3.51471 3.51477C1.26427 5.76521 0 8.8174 0 12V234C0 237.183 1.26427 240.235 3.51471 242.485C5.76515 244.736 8.8174 246 12 246H288C291.183 246 294.235 244.736 296.485 242.485C298.736 240.235 300 237.183 300 234V12C300 8.8174 298.736 5.76521 296.485 3.51477C294.235 1.26433 291.183 0 288 0Z" fill="#61707E"/>
<path d="M166.28 12.3H15.01C14.2568 12.3 13.5344 12.5992 13.0018 13.1318C12.4692 13.6644 12.17 14.3868 12.17 15.14V159.8C12.1727 160.552 12.473 161.271 13.0053 161.802C13.5377 162.332 14.2585 162.63 15.01 162.63H166.28C167.032 162.63 167.752 162.332 168.285 161.802C168.817 161.271 169.117 160.552 169.12 159.8V15.14C169.12 14.7671 169.047 14.3978 168.904 14.0532C168.761 13.7087 168.552 13.3956 168.288 13.1318C168.024 12.8681 167.711 12.659 167.367 12.5162C167.022 12.3735 166.653 12.3 166.28 12.3Z" fill="#D3E2E2"/>
<path d="M181.02 12.3H285.02C285.772 12.3027 286.491 12.6031 287.022 13.1354C287.552 13.6677 287.85 14.3885 287.85 15.14V162.63H181.02V12.3Z" fill="#FAED26"/>
<path d="M217.37 80.51H203.5V75.27H211.36C212.062 75.2602 212.749 75.0607 213.348 74.6929C213.946 74.325 214.434 73.8023 214.76 73.1801H223.66C223.322 73.6624 223.056 74.1912 222.87 74.75C221.47 78.58 219.64 80.51 217.37 80.51ZM205.07 41.25V21.62H262.39V35.75C261.87 39.0833 260.473 40.9167 258.2 41.25H256.11V43.08H263.17V48.08H256.11V50.44H263.17V55.15H249.56C249.91 56.72 250.61 57.5 251.66 57.5H263.17V63H245.38C242.927 63 239.787 60.3834 235.96 55.15H231.24L228.63 58.29L227.32 59.6C225.22 62.22 223.3 63.44 221.56 63.26H203.76V57.77H215.76C216.63 57.94 217.5 57.07 218.38 55.15H203.76V50.44H210.88V48.08H203.81V43.37H210.88V41.28L205.07 41.25ZM204.81 64.8H214.5C214.822 65.4219 215.306 65.9453 215.901 66.3149C216.496 66.6846 217.18 66.8867 217.88 66.9H224.68V72.39H211.35C209.263 72.57 207.347 70.74 205.6 66.9C205.25 66.03 204.98 65.33 204.81 64.8ZM252.18 29.21V27.12H215.02V29.21H252.18ZM215.02 33.9V35.9901H252.18V33.9H215.02ZM221.02 41.23V43.32H245.88V41.23H221.02ZM245.88 50.41V48.05H221.04V50.41H245.88ZM228.61 74.75V61.4H238.55V74.75C238.55 78.75 236.55 80.75 232.55 80.75H224.7V75.25H227.88C228.37 75.27 228.63 75.1 228.63 74.75H228.61ZM241.96 66.63H250.07C250.94 66.81 251.72 66.29 252.42 65.06H262.11C261.905 65.4849 261.728 65.9224 261.58 66.37C259.66 70.5567 257.567 72.5567 255.3 72.37H241.98V66.61L241.96 66.63ZM242.48 73.96H251.38L252.16 74.75C253.078 75.1071 254.055 75.2836 255.04 75.27H262.63V81.03H250.09C247.3 81.2 244.76 78.9 242.5 73.96H242.48Z" fill="white"/>
<path d="M249.78 81.54C246.92 81.54 244.31 79.06 242.05 74.17L241.72 73.46H251.61L251.76 73.61C251.91 73.78 252.15 74.01 252.46 74.32C253.292 74.6289 254.173 74.7815 255.06 74.77H263.15V81.53H249.78V81.54ZM243.29 74.46C245.36 78.64 247.63 80.68 250.06 80.53H262.15V75.77H255.06C254.01 75.7811 252.968 75.591 251.99 75.21L251.83 75.1L251.19 74.46H243.29ZM232.55 81.27H224.2V74.77H227.88C227.976 74.7822 228.074 74.7822 228.17 74.77V60.9H239.11V74.75C239.07 79.01 236.82 81.27 232.55 81.27ZM225.2 80.27H232.55C236.27 80.27 238.07 78.46 238.07 74.75V61.9H229.13V74.75C229.13 74.99 229.03 75.75 227.84 75.75H225.2V80.27ZM217.37 81.01H203V74.77H211.36C211.982 74.7643 212.591 74.5878 213.12 74.2598C213.649 73.9318 214.078 73.465 214.36 72.91H211.36C209.09 73.1 206.98 71.16 205.15 67.12C204.79 66.23 204.52 65.52 204.35 64.98L204.13 64.32H214.78L214.93 64.56C215.212 65.1149 215.641 65.5819 216.17 65.9099C216.699 66.2378 217.308 66.4143 217.93 66.42H225.23V72.9H224.48L224.1 73.47C223.791 73.9159 223.549 74.4044 223.38 74.92C221.88 78.96 219.88 81.01 217.37 81.01ZM204 80.01H217.37C219.37 80.01 221.09 78.18 222.37 74.58C222.475 74.2714 222.602 73.9707 222.75 73.6801H215C214.62 74.3147 214.082 74.8405 213.439 75.2067C212.796 75.5728 212.07 75.7668 211.33 75.77H203.97L204 80.01ZM205.52 65.3C205.66 65.7101 205.85 66.18 206.06 66.71C207.69 70.3 209.46 72.04 211.31 71.89H224.2V67.4H217.88C217.138 67.3956 216.409 67.2 215.765 66.8322C215.12 66.4643 214.581 65.9367 214.2 65.3H205.52ZM255.59 72.9H241.48V66.14H250.09C250.42 66.2 251.09 66.35 252.01 64.83L252.15 64.57H262.94L262.57 65.3C262.378 65.7017 262.215 66.116 262.08 66.54C260.133 70.78 257.97 72.9 255.59 72.9ZM242.48 71.9H255.32C257.38 72.06 259.32 70.13 261.15 66.17C261.21 65.97 261.29 65.77 261.36 65.57H252.73C251.94 66.82 251.02 67.34 249.99 67.13H242.48V71.9ZM221.88 63.75H203.26V57.26H215.8C216.39 57.37 217 56.79 217.62 55.64H203.26V49.9H210.33V48.54H203.26V42.83H210.33V41.7401H204.57V21.12H262.88V35.75C262.31 39.37 260.77 41.36 258.27 41.75H256.6V42.58H263.66V48.58H256.6V49.9H263.66V55.61H250.22C250.68 56.96 251.4 56.96 251.66 56.96H263.66V63.46H245.38C242.77 63.46 239.61 60.89 235.7 55.61H231.48L229.01 58.61L227.67 59.9C225.65 62.45 223.7 63.75 221.88 63.75ZM204.25 62.75H221.55C223.15 62.91 224.94 61.75 226.92 59.28L228.26 57.9301L231 54.64H236.2L236.35 54.84C240.07 59.92 243.1 62.4901 245.35 62.4901H262.64V57.9901H251.64C250.74 57.9901 249.56 57.52 249.06 55.25L248.92 54.64H262.65V50.9H255.59V47.54H262.65V43.54H255.59V40.71H258.18C260.18 40.4 261.39 38.71 261.88 35.63V22.12H205.57V40.75H211.33V43.84H204.26V47.55H211.33V50.9H204.26V54.61H219.2L218.87 55.32C218.51 56.12 217.4 58.56 215.7 58.22H204.26L204.25 62.75ZM246.4 50.9H220.54V47.54H246.4V50.9ZM221.54 49.9H245.4V48.54H221.54V49.9ZM246.4 43.83H220.54V40.7401H246.4V43.83ZM221.54 42.83H245.4V41.7401H221.54V42.83ZM252.68 36.5H214.52V33.41H252.68V36.5ZM215.52 35.5H251.68V34.41H215.52V35.5ZM252.68 29.7H214.52V26.61H252.68V29.7ZM215.52 28.7H251.68V27.61H215.52V28.7Z" fill="black"/>
<path d="M287.88 175.01V230.9C287.877 231.652 287.577 232.371 287.045 232.902C286.512 233.432 285.791 233.73 285.04 233.73H104.37V175.01H287.88Z" fill="#FAED26"/>
<path d="M92.94 233.69H15.01C14.2585 233.69 13.5377 233.392 13.0053 232.862C12.473 232.331 12.1727 231.612 12.17 230.86V175.01H92.94V233.69Z" fill="#FAED26"/>
<path d="M204.81 100.9V94.3H264.48V100.9H239.62V103.51H264.48V126.81H255.88V109.48H239.62V126.23H230.46V109.48H213.46V126.76H204.82V103.46H230.47V100.9H204.81ZM255.59 135.7H206.38V128.9H264.22V147.74C264.567 152.633 262.213 154.903 257.16 154.55H206.16V147.74H254.84C255.36 147.74 255.63 147.4 255.63 146.74V145.43H205.07V138.62H255.59V135.7ZM215.02 126.81V122.1H218.42C218.633 122.13 218.85 122.11 219.055 122.042C219.259 121.973 219.444 121.859 219.596 121.706C219.749 121.554 219.863 121.369 219.932 121.165C220 120.96 220.02 120.743 219.99 120.53V120.26H227.88V122.36C227.88 125.5 226.397 126.983 223.43 126.81H215.02ZM215.54 113.72V111.89H223.66V112.89C223.48 113.41 224.35 113.67 226.27 113.67H228.63V118.12H219.73C216.943 118.12 215.547 116.637 215.54 113.67V113.72ZM254.01 126.81H246.42C242.76 126.98 241.01 125.76 241.19 123.14V120H249.3V120.79C249.13 121.79 249.74 122.36 251.14 122.36H254.01V126.81ZM241.19 118.17V113.72H244.33C245.2 113.72 245.64 113.2 245.64 112.15V111.63H253.49V114.77C253.66 117.21 252.01 118.35 248.49 118.17H241.19Z" fill="white"/>
<path d="M258.11 155.03H205.61V147.22H254.79C254.92 147.22 255.08 147.22 255.08 146.68V145.87H204.57V138.06H255.09V136.18H205.88V128.38H264.72V147.72C264.9 150.23 264.37 152.14 263.13 153.38C262.445 153.976 261.649 154.428 260.787 154.712C259.924 154.995 259.014 155.103 258.11 155.03ZM206.62 154.03H257.16C259.6 154.2 261.36 153.74 262.42 152.67C263.48 151.6 263.88 150 263.72 147.76V129.35H206.88V135.15H256.09V139.03H205.57V144.84H256.09V146.65C256.09 148.08 255.09 148.19 254.8 148.19H206.62V154.03ZM245.73 127.3C244.994 127.371 244.252 127.295 243.546 127.075C242.84 126.855 242.185 126.496 241.62 126.02C241.261 125.629 240.992 125.164 240.831 124.658C240.671 124.152 240.623 123.617 240.69 123.09V119.48H249.8V120.77C249.72 121.3 249.85 121.46 249.9 121.51C250.255 121.776 250.7 121.894 251.14 121.84H254.51V127.29H245.73V127.3ZM241.73 120.48V123.12C241.67 123.511 241.696 123.911 241.806 124.291C241.917 124.671 242.109 125.022 242.37 125.32C243.09 126.06 244.46 126.38 246.44 126.32H253.55V122.87H251.18C250.816 122.908 250.449 122.866 250.103 122.747C249.758 122.628 249.443 122.434 249.18 122.18C249.021 121.974 248.909 121.735 248.854 121.481C248.799 121.227 248.801 120.963 248.86 120.71V120.51L241.73 120.48ZM223.88 127.27H214.55V121.56H218.45C219.22 121.56 219.52 121.26 219.52 120.49V119.72H228.37V122.32C228.428 123.025 228.34 123.734 228.111 124.404C227.882 125.073 227.517 125.688 227.04 126.21C226.164 126.96 225.031 127.34 223.88 127.27ZM215.55 126.27H223.42C223.936 126.345 224.463 126.314 224.967 126.178C225.471 126.043 225.941 125.805 226.35 125.48C226.723 125.049 227.005 124.547 227.177 124.003C227.349 123.46 227.408 122.887 227.35 122.32V120.72H220.48C220.479 120.98 220.423 121.238 220.316 121.475C220.209 121.712 220.053 121.925 219.859 122.098C219.665 122.271 219.436 122.402 219.189 122.482C218.941 122.561 218.679 122.588 218.42 122.56H215.52L215.55 126.27ZM265.01 127.27H255.38V109.98H240.12V126.73H229.96V109.98H213.96V127.26H204.32V102.96H229.97V101.35H204.31V93.8H264.98V101.35H240.12V102.96H264.98L265.01 127.27ZM256.38 126.27H264.01V103.97H239.12V100.36H263.98V94.8H205.31V100.35H230.96V103.96H205.31V126.26H212.95V108.98H230.95V125.73H239.11V108.98H256.34L256.38 126.27ZM249.24 118.65H240.72V113.2H244.36C244.75 113.2 245.17 113.12 245.17 112.13V111.13H254.02V114.77C254.083 115.256 254.038 115.749 253.89 116.215C253.741 116.682 253.492 117.11 253.16 117.47C252.614 117.92 251.982 118.255 251.304 118.456C250.625 118.657 249.913 118.72 249.21 118.64L249.24 118.65ZM241.72 117.65H248.55C250.46 117.74 251.77 117.44 252.44 116.75C252.681 116.482 252.859 116.163 252.959 115.817C253.06 115.47 253.081 115.106 253.02 114.75V112.08H246.17C246.17 113.95 244.91 114.15 244.36 114.15H241.72V117.65ZM229.16 118.65H219.76C216.69 118.65 215.07 116.94 215.07 113.65V111.32H224.19V112.9C224.873 113.109 225.588 113.187 226.3 113.13H229.16V118.65ZM216.07 112.37V113.7C216.07 116.39 217.24 117.7 219.76 117.7H228.16V114.25H226.3C224.1 114.25 223.56 113.91 223.3 113.57C223.23 113.475 223.182 113.365 223.16 113.25C223.137 113.134 223.141 113.014 223.17 112.9V112.42L216.07 112.37Z" fill="black"/>
<path d="M32.88 190.13V185.13H37.47V183.3H43.89V185.13H62.48V183.13H68.72V185.13H73.88V190.13H68.74V192.33H74.06V197.48H56.6V199.68H73.31V212.53C73.9233 217.197 71.59 219.217 66.31 218.59H64.11L64.84 219.51C64.8447 219.58 64.864 219.648 64.8967 219.71C64.9294 219.772 64.9749 219.827 65.03 219.87C65.2957 220.123 65.61 220.319 65.9539 220.446C66.2977 220.573 66.6639 220.629 67.03 220.61H74.03V225.2H63.58C61.58 224.95 60.33 224.46 59.72 223.73L55.5 218.59H52.01L47.01 223.36C46.3557 224.116 45.534 224.708 44.6104 225.09C43.6868 225.472 42.6868 225.633 41.69 225.56H33.06V220.79H40.59C41.0114 220.762 41.4229 220.65 41.8007 220.461C42.1784 220.273 42.5147 220.01 42.79 219.69L43.71 218.59H33.61V199.68H49.95V197.47H32.88V192.33H37.47V190.13H32.88ZM49.77 206.66V204.66H40.08V206.66H49.77ZM49.77 211.66H40.08V213.87H49.81L49.77 211.66ZM43.89 192.39H62.25V190.18H43.93L43.89 192.39ZM56.56 206.71H67.03V204.71H56.6L56.56 206.71ZM67.21 211.71H56.78V213.92H66.7C67.07 213.92 67.25 213.67 67.25 213.18L67.21 211.71Z" fill="white"/>
<path d="M42.16 226.08H32.6V220.31H40.6C41.3173 220.248 41.9815 219.907 42.45 219.36L42.65 219.11H33.12V199.18H49.46V197.97H32.42V191.83H37.01V190.63H32.42V184.63H37.01V182.8H44.43V184.63H61.98V182.63H69.22V184.63H74.36V190.63H69.22V191.83H74.54V197.98H57.1V199.18H73.81V212.53C74.11 214.8 73.7 216.53 72.58 217.69C71.46 218.85 69.21 219.43 66.27 219.09H65.17L65.36 219.33V219.51C66.29 220.15 66.75 220.17 66.94 220.12H74.54V225.71H63.54C61.36 225.44 60 224.9 59.3 224.06L55.22 219.06H52.17L47.36 223.69C46.7139 224.436 45.9155 225.036 45.0186 225.448C44.1218 225.86 43.1471 226.076 42.16 226.08ZM33.6 225.08H41.73C42.6622 225.166 43.6014 225.029 44.4706 224.681C45.3397 224.334 46.1141 223.785 46.73 223.08L51.85 218.15H55.78L60.15 223.47C60.67 224.1 61.86 224.53 63.68 224.76H73.58V221.17H67.16C66.7309 221.199 66.3004 221.14 65.8947 220.998C65.4889 220.855 65.1165 220.631 64.8 220.34C64.6233 220.195 64.4943 220 64.43 219.78L63.13 218.15H66.37C69.0367 218.457 70.8833 218.09 71.91 217.05C72.8 216.15 73.12 214.67 72.85 212.66V200.18H56.1V196.98H73.54V192.83H68.22V189.63H73.36V185.63H68.22V183.63H62.98V185.63H43.43V183.8H38.01V185.63H33.42V189.63H38.01V192.83H33.42V196.97H50.49V200.18H34.15V218.09H44.82L43.22 220.01C42.8962 220.386 42.5 220.693 42.0551 220.913C41.6101 221.133 41.1255 221.261 40.63 221.29H33.63L33.6 225.08ZM66.7 214.34H56.28V211.13H67.75V213.13C67.75 213.99 67.21 214.32 66.7 214.32V214.34ZM57.28 213.34H66.7C66.7 213.34 66.75 213.34 66.75 213.1V212.1H57.28V213.34ZM50.28 214.34H39.58V211.13H50.31L50.28 214.34ZM40.55 213.34H49.28V212.13H40.58L40.55 213.34ZM67.55 207.18H56.1V204.18H67.57L67.55 207.18ZM57.08 206.18H66.55V205.18H57.08V206.18ZM50.29 207.18H39.58V204.18H50.31L50.29 207.18ZM40.56 206.18H49.29V205.18H40.58L40.56 206.18ZM62.77 192.86H43.43V189.65H62.79L62.77 192.86ZM44.41 191.86H61.77V190.65H44.43L44.41 191.86Z" fill="black"/>
<path d="M108.79 210.53L113.59 210.03C113.63 211.059 113.847 212.074 114.23 213.03C114.388 213.498 114.686 213.907 115.082 214.202C115.479 214.497 115.956 214.663 116.45 214.68C116.778 214.695 117.104 214.624 117.397 214.475C117.69 214.326 117.939 214.104 118.12 213.83C118.513 213.257 118.715 212.575 118.7 211.88C118.713 211.204 118.517 210.541 118.14 209.98C117.45 209.218 116.554 208.673 115.56 208.41C113.68 207.82 112.028 206.664 110.83 205.1C109.827 203.538 109.331 201.705 109.41 199.85C109.396 198.483 109.641 197.126 110.13 195.85C110.564 194.681 111.328 193.663 112.33 192.92C113.516 192.149 114.917 191.774 116.33 191.85C117.22 191.792 118.112 191.936 118.938 192.272C119.764 192.608 120.503 193.127 121.1 193.79C122.2 195.083 122.867 197.14 123.1 199.96L118.34 200.42C118.304 199.478 118.033 198.56 117.55 197.75C117.362 197.483 117.112 197.265 116.821 197.117C116.53 196.969 116.207 196.895 115.88 196.9C115.625 196.882 115.37 196.929 115.139 197.037C114.908 197.146 114.708 197.312 114.56 197.52C114.251 197.962 114.093 198.491 114.11 199.03C114.108 199.449 114.237 199.858 114.48 200.2C114.932 200.694 115.52 201.042 116.17 201.2C117.873 201.73 119.475 202.541 120.91 203.6C121.853 204.402 122.57 205.436 122.99 206.6C123.434 207.886 123.654 209.239 123.64 210.6C123.658 212.247 123.363 213.883 122.77 215.42C122.297 216.746 121.454 217.909 120.34 218.77C119.187 219.564 117.809 219.964 116.41 219.91C113.643 219.91 111.723 219.02 110.65 217.24C109.494 215.188 108.856 212.885 108.79 210.53Z" fill="white"/>
<path d="M116.37 220.49C113.42 220.49 111.37 219.49 110.18 217.58C108.992 215.434 108.343 213.032 108.29 210.58V210.11L114.07 209.51V210.02C114.109 210.976 114.309 211.92 114.66 212.81C114.785 213.189 115.02 213.522 115.335 213.766C115.651 214.01 116.032 214.154 116.43 214.18C116.677 214.195 116.923 214.144 117.144 214.034C117.365 213.923 117.554 213.756 117.69 213.55C118.023 213.058 118.194 212.474 118.18 211.88C118.192 211.305 118.028 210.739 117.71 210.26C117.084 209.578 116.27 209.097 115.37 208.88C113.387 208.253 111.642 207.036 110.37 205.39C109.308 203.743 108.781 201.808 108.86 199.85C108.85 198.434 109.108 197.03 109.62 195.71C110.088 194.452 110.907 193.355 111.98 192.55C113.258 191.718 114.767 191.312 116.29 191.39C117.253 191.331 118.217 191.491 119.109 191.858C120.001 192.226 120.798 192.79 121.44 193.51C122.6 194.88 123.3 197.05 123.51 199.96V200.45L117.78 201.01L117.72 200.51C117.69 199.655 117.449 198.82 117.02 198.08C116.878 197.878 116.687 197.715 116.465 197.606C116.243 197.498 115.997 197.447 115.75 197.46C115.574 197.441 115.396 197.469 115.235 197.541C115.073 197.613 114.933 197.726 114.83 197.87C114.588 198.23 114.466 198.657 114.48 199.09C114.474 199.406 114.573 199.715 114.76 199.97C114.86 200.13 115.18 200.43 116.2 200.79C117.962 201.337 119.619 202.179 121.1 203.28C122.116 204.141 122.885 205.255 123.33 206.51C123.797 207.86 124.027 209.281 124.01 210.71C124.027 212.418 123.722 214.115 123.11 215.71C122.6 217.123 121.698 218.361 120.51 219.28C119.292 220.109 117.843 220.533 116.37 220.49ZM109.32 210.98C109.412 213.113 110.001 215.195 111.04 217.06C112.04 218.7 113.76 219.49 116.37 219.49C117.659 219.553 118.934 219.203 120.01 218.49C121.042 217.679 121.825 216.595 122.27 215.36C122.833 213.879 123.115 212.305 123.1 210.72C123.117 209.407 122.907 208.101 122.48 206.86C122.094 205.771 121.424 204.804 120.54 204.06C119.154 203.036 117.606 202.251 115.96 201.74C115.207 201.552 114.53 201.136 114.02 200.55C113.72 200.127 113.563 199.619 113.57 199.1C113.553 198.458 113.742 197.827 114.11 197.3C114.306 197.028 114.567 196.809 114.869 196.664C115.171 196.519 115.505 196.452 115.84 196.47C116.242 196.452 116.643 196.534 117.006 196.709C117.369 196.883 117.683 197.145 117.92 197.47C118.387 198.198 118.672 199.028 118.75 199.89L122.53 199.52C122.474 197.582 121.848 195.704 120.73 194.12C120.18 193.513 119.499 193.039 118.738 192.734C117.977 192.429 117.157 192.301 116.34 192.36C115.026 192.297 113.725 192.647 112.62 193.36C111.708 194.054 111.014 194.994 110.62 196.07C110.156 197.276 109.922 198.558 109.93 199.85C109.852 201.614 110.316 203.359 111.26 204.85C112.408 206.324 113.978 207.412 115.76 207.97C116.858 208.259 117.842 208.876 118.58 209.74C119.01 210.381 119.234 211.138 119.22 211.91C119.23 212.707 118.996 213.489 118.55 214.15C118.32 214.487 118.009 214.761 117.646 214.946C117.282 215.131 116.878 215.222 116.47 215.21C115.879 215.198 115.305 215.006 114.826 214.66C114.347 214.313 113.986 213.828 113.79 213.27C113.441 212.433 113.228 211.545 113.16 210.64L109.32 210.98Z" fill="black"/>
<path d="M130.88 192.33L137.02 207.38V192.33H141.78V219.53H137.02L130.88 204.59V219.53H126.14V192.33H130.88Z" fill="white"/>
<path d="M142.28 220.03H136.69L131.41 207.13V220.03H125.67V191.83H131.22L136.52 204.83V191.83H142.28V220.03ZM137.36 219.03H141.28V192.83H137.52V209.9L130.52 192.81H126.65V219.01H130.39V202.01L137.36 219.03Z" fill="black"/>
<path d="M144.5 205.95C144.5 201.51 145.24 198.05 146.72 195.57C147.331 194.452 148.23 193.518 149.325 192.866C150.419 192.213 151.668 191.866 152.942 191.86C154.216 191.853 155.469 192.189 156.569 192.831C157.67 193.473 158.578 194.398 159.2 195.51C160.667 197.937 161.403 201.34 161.41 205.72C161.473 208.362 161.136 210.999 160.41 213.54C159.912 215.338 158.954 216.975 157.63 218.29C156.4 219.433 154.768 220.044 153.09 219.99C151.441 220.054 149.822 219.533 148.52 218.52C147.139 217.273 146.126 215.672 145.59 213.89C144.784 211.323 144.416 208.639 144.5 205.95ZM149.5 205.95C149.374 207.967 149.688 209.987 150.42 211.87C150.602 212.388 150.94 212.836 151.388 213.153C151.836 213.471 152.371 213.641 152.92 213.641C153.469 213.641 154.004 213.471 154.452 213.153C154.9 212.836 155.238 212.388 155.42 211.87C156.02 210.69 156.31 208.58 156.31 205.54C156.429 203.624 156.111 201.706 155.38 199.93C155.178 199.422 154.832 198.983 154.384 198.669C153.936 198.355 153.407 198.178 152.86 198.16C152.321 198.19 151.802 198.376 151.367 198.695C150.932 199.015 150.6 199.455 150.41 199.96C149.682 201.879 149.385 203.934 149.54 205.98L149.5 205.95Z" fill="white"/>
<path d="M153.12 220.49C151.358 220.552 149.631 219.993 148.24 218.91C146.786 217.602 145.717 215.922 145.15 214.05C144.316 211.434 143.927 208.695 144 205.95C144 201.43 144.77 197.86 146.29 195.32C146.945 194.127 147.906 193.131 149.075 192.434C150.245 191.738 151.579 191.367 152.939 191.36C154.3 191.353 155.638 191.71 156.815 192.394C157.991 193.078 158.963 194.064 159.63 195.25C161.14 197.75 161.91 201.25 161.91 205.72C161.976 208.422 161.639 211.118 160.91 213.72C160.383 215.61 159.377 217.332 157.99 218.72C156.657 219.918 154.911 220.553 153.12 220.49ZM152.92 192.36C151.731 192.344 150.56 192.66 149.541 193.273C148.522 193.886 147.693 194.772 147.15 195.83C145.72 198.22 145 201.62 145 205.95C144.927 208.583 145.295 211.209 146.09 213.72C146.601 215.417 147.561 216.945 148.87 218.14C150.088 219.069 151.59 219.546 153.12 219.49C154.671 219.546 156.181 218.985 157.32 217.93C158.576 216.667 159.488 215.105 159.97 213.39C160.66 210.894 160.977 208.309 160.91 205.72C160.91 201.46 160.19 198.11 158.77 195.72C158.2 194.666 157.346 193.793 156.305 193.199C155.264 192.605 154.078 192.315 152.88 192.36H152.92ZM152.92 214.2C152.271 214.193 151.638 213.992 151.104 213.623C150.569 213.255 150.157 212.735 149.92 212.13C149.138 210.179 148.796 208.079 148.92 205.98C148.92 203.1 149.24 201.08 149.92 199.8C150.146 199.21 150.541 198.7 151.055 198.332C151.568 197.964 152.179 197.755 152.81 197.73C153.451 197.734 154.076 197.925 154.609 198.281C155.143 198.636 155.56 199.14 155.81 199.73C156.586 201.574 156.928 203.572 156.81 205.57C156.81 208.72 156.51 210.87 155.87 212.12C155.645 212.716 155.248 213.231 154.73 213.601C154.212 213.971 153.596 214.18 152.96 214.2H152.92ZM152.88 198.73C152.06 198.73 151.41 199.23 150.88 200.26C149.727 203.976 149.727 207.954 150.88 211.67C151.035 212.099 151.313 212.474 151.679 212.746C152.046 213.018 152.484 213.176 152.94 213.2C153.394 213.185 153.833 213.035 154.202 212.77C154.57 212.505 154.852 212.136 155.01 211.71C155.56 210.61 155.84 208.56 155.84 205.61C155.954 203.774 155.657 201.936 154.97 200.23C154.807 199.802 154.522 199.432 154.151 199.165C153.779 198.899 153.337 198.747 152.88 198.73Z" fill="black"/>
<path d="M162.05 192.33H166.88L168.61 207.56L171.13 192.33H175.88L178.41 207.53L180.14 192.33H184.88L181.28 219.53H176.33L173.48 202.4L170.63 219.53H165.63L162.05 192.33Z" fill="white"/>
<path d="M181.73 220.03H175.88L173.44 205.44L171.01 220.03H165.21L161.44 191.83H167.25L168.66 203.9L170.66 191.79H176.28L178.28 203.89L179.65 191.79H185.44L181.73 220.03ZM176.73 219.03H180.88L184.35 192.83H180.6L178.52 211.14L175.47 192.83H171.54L168.54 211.18L166.46 192.83H162.69L166.19 219.03H170.27L173.55 199.36L176.73 219.03Z" fill="black"/>
<path d="M193.26 210.53L198.06 210.03C198.093 211.059 198.307 212.074 198.69 213.03C198.849 213.5 199.148 213.91 199.546 214.204C199.945 214.499 200.424 214.665 200.92 214.68C201.247 214.694 201.571 214.623 201.862 214.474C202.153 214.325 202.4 214.103 202.58 213.83C202.976 213.258 203.182 212.576 203.17 211.88C203.178 211.205 202.983 210.543 202.61 209.98C201.92 209.218 201.024 208.673 200.03 208.41C198.149 207.823 196.496 206.666 195.3 205.1C194.293 203.539 193.794 201.706 193.87 199.85C193.855 198.482 194.102 197.124 194.6 195.85C195.033 194.683 195.794 193.666 196.79 192.92C197.978 192.152 199.377 191.777 200.79 191.85C201.68 191.793 202.571 191.938 203.397 192.274C204.223 192.61 204.962 193.128 205.56 193.79C206.647 195.083 207.297 197.14 207.51 199.96L202.76 200.42C202.722 199.477 202.447 198.559 201.96 197.75C201.774 197.482 201.524 197.265 201.232 197.12C200.94 196.975 200.616 196.906 200.29 196.92C200.034 196.903 199.778 196.95 199.545 197.059C199.313 197.167 199.111 197.333 198.96 197.54C198.655 197.983 198.5 198.512 198.52 199.05C198.515 199.468 198.641 199.877 198.88 200.22C199.332 200.714 199.92 201.062 200.57 201.22C202.275 201.746 203.877 202.557 205.31 203.62C206.254 204.421 206.971 205.455 207.39 206.62C207.839 207.905 208.059 209.259 208.04 210.62C208.055 212.266 207.764 213.901 207.18 215.44C206.707 216.766 205.864 217.929 204.75 218.79C203.597 219.584 202.219 219.984 200.82 219.93C198.04 219.93 196.117 219.04 195.05 217.26C193.915 215.195 193.301 212.885 193.26 210.53Z" fill="white"/>
<path d="M200.88 220.49C197.88 220.49 195.88 219.49 194.68 217.58C193.495 215.433 192.85 213.031 192.8 210.58V210.11L198.58 209.51V210.02C198.619 210.976 198.819 211.92 199.17 212.81C199.75 214.04 200.46 214.18 200.95 214.18C201.195 214.194 201.44 214.143 201.659 214.032C201.879 213.922 202.065 213.756 202.2 213.55C202.536 213.059 202.711 212.475 202.7 211.88C202.709 211.304 202.541 210.739 202.22 210.26C201.592 209.585 200.777 209.112 199.88 208.9C197.897 208.273 196.152 207.056 194.88 205.41C193.823 203.761 193.296 201.827 193.37 199.87C193.365 198.455 193.623 197.051 194.13 195.73C194.6 194.471 195.423 193.374 196.5 192.57C197.778 191.738 199.287 191.332 200.81 191.41C201.773 191.351 202.737 191.511 203.629 191.878C204.521 192.246 205.318 192.81 205.96 193.53C207.12 194.9 207.82 197.07 208.03 199.98V200.47L202.3 201.03L202.25 200.54C202.218 199.682 201.978 198.845 201.55 198.1C201.407 197.898 201.216 197.736 200.994 197.627C200.772 197.519 200.527 197.468 200.28 197.48C200.104 197.461 199.926 197.489 199.765 197.561C199.603 197.633 199.463 197.746 199.36 197.89C199.114 198.248 198.991 198.676 199.01 199.11C199.006 199.424 199.1 199.732 199.28 199.99C199.673 200.399 200.177 200.684 200.73 200.81C202.49 201.354 204.144 202.197 205.62 203.3C206.636 204.161 207.405 205.275 207.85 206.53C208.322 207.879 208.553 209.301 208.53 210.73C208.547 212.438 208.242 214.135 207.63 215.73C207.127 217.147 206.224 218.387 205.03 219.3C203.807 220.124 202.354 220.541 200.88 220.49ZM193.83 210.98C193.914 213.113 194.5 215.196 195.54 217.06C196.54 218.7 198.27 219.49 200.88 219.49C202.166 219.555 203.439 219.204 204.51 218.49C205.542 217.679 206.325 216.595 206.77 215.36C207.333 213.879 207.615 212.305 207.6 210.72C207.622 209.407 207.412 208.1 206.98 206.86C206.595 205.773 205.929 204.807 205.05 204.06C203.662 203.04 202.114 202.256 200.47 201.74C199.716 201.554 199.038 201.138 198.53 200.55C198.23 200.127 198.073 199.619 198.08 199.1C198.064 198.459 198.249 197.83 198.61 197.3C198.807 197.026 199.069 196.807 199.373 196.662C199.678 196.516 200.014 196.451 200.35 196.47C200.752 196.454 201.152 196.537 201.515 196.711C201.877 196.885 202.192 197.146 202.43 197.47C202.893 198.199 203.175 199.029 203.25 199.89L207.03 199.52C206.977 197.583 206.355 195.705 205.24 194.12C204.689 193.513 204.008 193.04 203.247 192.735C202.487 192.43 201.667 192.302 200.85 192.36C199.536 192.294 198.234 192.644 197.13 193.36C196.218 194.054 195.524 194.994 195.13 196.07C194.666 197.276 194.432 198.558 194.44 199.85C194.359 201.615 194.827 203.362 195.78 204.85C196.925 206.322 198.491 207.41 200.27 207.97C201.371 208.259 202.359 208.876 203.1 209.74C203.532 210.394 203.763 211.161 203.763 211.945C203.763 212.729 203.532 213.496 203.1 214.15C202.872 214.487 202.563 214.761 202.201 214.946C201.839 215.132 201.436 215.222 201.03 215.21C200.439 215.198 199.865 215.006 199.386 214.66C198.907 214.313 198.546 213.828 198.35 213.27C197.997 212.433 197.781 211.545 197.71 210.64L193.83 210.98Z" fill="black"/>
<path d="M209.46 192.33H224.79V199.04H219.64V219.53H214.64V199.04H209.5V192.33H209.46Z" fill="white"/>
<path d="M220.14 220.03H214.14V199.54H209V191.83H225.33V199.54H220.18L220.14 220.03ZM215.14 219.03H219.14V198.54H224.29V192.83H209.96V198.54H215.1L215.14 219.03Z" fill="black"/>
<path d="M225.65 205.95C225.65 201.51 226.393 198.05 227.88 195.57C228.491 194.452 229.39 193.518 230.485 192.866C231.579 192.213 232.828 191.866 234.102 191.86C235.376 191.853 236.629 192.189 237.729 192.831C238.83 193.473 239.738 194.398 240.36 195.51C241.833 197.937 242.567 201.34 242.56 205.72C242.618 208.362 242.281 210.998 241.56 213.54C241.062 215.338 240.104 216.975 238.78 218.29C237.549 219.432 235.918 220.043 234.24 219.99C232.591 220.054 230.972 219.533 229.67 218.52C228.305 217.271 227.307 215.674 226.78 213.9C225.96 211.332 225.578 208.645 225.65 205.95ZM230.7 205.95C230.569 207.967 230.883 209.988 231.62 211.87C231.802 212.388 232.14 212.836 232.588 213.153C233.036 213.471 233.571 213.641 234.12 213.641C234.669 213.641 235.204 213.471 235.652 213.153C236.1 212.836 236.438 212.388 236.62 211.87C237.22 210.69 237.51 208.58 237.51 205.54C237.629 203.624 237.311 201.706 236.58 199.93C236.378 199.422 236.032 198.983 235.584 198.669C235.136 198.355 234.607 198.178 234.06 198.16C233.521 198.189 233.001 198.374 232.566 198.694C232.131 199.014 231.798 199.454 231.61 199.96C230.865 201.875 230.554 203.931 230.7 205.98V205.95Z" fill="white"/>
<path d="M234.28 220.49C232.518 220.552 230.791 219.993 229.4 218.91C227.942 217.606 226.872 215.924 226.31 214.05C225.471 211.434 225.079 208.696 225.15 205.95C225.15 201.43 225.93 197.86 227.45 195.32C228.105 194.127 229.066 193.131 230.235 192.434C231.405 191.738 232.739 191.367 234.099 191.36C235.46 191.353 236.798 191.71 237.975 192.394C239.151 193.078 240.123 194.064 240.79 195.25C242.3 197.75 243.06 201.25 243.06 205.72C243.125 208.422 242.788 211.118 242.06 213.72C241.533 215.61 240.527 217.332 239.14 218.72C237.809 219.914 236.068 220.548 234.28 220.49ZM234.08 192.36C232.891 192.344 231.72 192.66 230.701 193.273C229.682 193.886 228.853 194.772 228.31 195.83C226.88 198.21 226.15 201.62 226.15 205.95C226.08 208.583 226.452 211.21 227.25 213.72C227.757 215.419 228.718 216.947 230.03 218.14C231.248 219.069 232.75 219.546 234.28 219.49C235.831 219.546 237.341 218.985 238.48 217.93C239.736 216.669 240.646 215.105 241.12 213.39C241.815 210.895 242.132 208.309 242.06 205.72C242.06 201.46 241.35 198.11 239.93 195.72C239.362 194.673 238.514 193.804 237.481 193.211C236.448 192.618 235.271 192.323 234.08 192.36ZM234.08 214.2C233.441 214.181 232.822 213.975 232.299 213.607C231.776 213.239 231.373 212.725 231.14 212.13C230.358 210.179 230.016 208.079 230.14 205.98C230.14 203.1 230.46 201.08 231.14 199.8C231.365 199.209 231.76 198.698 232.273 198.33C232.787 197.962 233.398 197.753 234.03 197.73C234.671 197.735 235.295 197.927 235.828 198.282C236.361 198.638 236.779 199.141 237.03 199.73C237.806 201.574 238.148 203.572 238.03 205.57C238.03 208.72 237.72 210.87 237.09 212.12C236.859 212.726 236.452 213.248 235.92 213.619C235.389 213.99 234.758 214.192 234.11 214.2H234.08ZM234.08 198.73C233.26 198.73 232.61 199.23 232.08 200.26C230.927 203.976 230.927 207.954 232.08 211.67C232.221 212.107 232.497 212.488 232.868 212.758C233.239 213.028 233.686 213.173 234.145 213.173C234.604 213.173 235.051 213.028 235.422 212.758C235.793 212.488 236.069 212.107 236.21 211.67C236.76 210.57 237.04 208.52 237.04 205.57C237.154 203.734 236.857 201.896 236.17 200.19C236 199.768 235.711 199.406 235.338 199.146C234.965 198.887 234.524 198.742 234.07 198.73H234.08Z" fill="black"/>
<path d="M245.35 219.53V192.33H253.75C254.979 192.264 256.206 192.49 257.33 192.99C258.258 193.567 258.963 194.441 259.33 195.47C259.869 196.876 260.127 198.374 260.09 199.88C260.115 201.203 259.919 202.521 259.51 203.78C259.184 204.779 258.637 205.691 257.91 206.45C257.403 206.929 256.8 207.294 256.14 207.52C256.636 207.773 257.083 208.111 257.46 208.52C257.775 208.968 258.043 209.447 258.26 209.95C258.536 210.496 258.773 211.061 258.97 211.64L261.41 219.52H255.71L253.02 211.2C252.83 210.458 252.519 209.752 252.1 209.11C251.956 208.919 251.77 208.763 251.557 208.654C251.344 208.545 251.109 208.486 250.87 208.48H250.42V219.48L245.35 219.53ZM250.41 203.35H252.54C253.001 203.288 253.452 203.163 253.88 202.98C254.067 202.9 254.236 202.783 254.375 202.635C254.515 202.487 254.622 202.312 254.69 202.12C254.915 201.628 255.024 201.091 255.01 200.55C255.047 199.848 254.873 199.152 254.51 198.55C254.277 198.29 253.984 198.09 253.656 197.968C253.329 197.847 252.977 197.806 252.63 197.85H250.41V203.38V203.35Z" fill="white"/>
<path d="M262.08 220.03H255.34L252.53 211.37C252.366 210.686 252.088 210.033 251.71 209.44C251.616 209.312 251.497 209.206 251.359 209.128C251.221 209.051 251.068 209.004 250.91 208.99V219.99H244.88V191.79H253.78C255.09 191.714 256.398 191.961 257.59 192.51C258.623 193.137 259.407 194.101 259.81 195.24C260.378 196.706 260.649 198.269 260.61 199.84C260.635 201.221 260.429 202.597 260 203.91C259.646 204.974 259.062 205.947 258.29 206.76C257.966 207.076 257.599 207.345 257.2 207.56C257.445 207.735 257.666 207.94 257.86 208.17C258.208 208.645 258.5 209.158 258.73 209.7C259.019 210.268 259.266 210.856 259.47 211.46L262.08 220.03ZM256.08 219.03H260.73L258.49 211.79C258.302 211.235 258.075 210.693 257.81 210.17C257.613 209.704 257.365 209.261 257.07 208.85C256.738 208.484 256.342 208.182 255.9 207.96L254.96 207.44L255.96 207.05C256.555 206.834 257.098 206.493 257.55 206.05C258.222 205.349 258.725 204.505 259.02 203.58C259.418 202.374 259.607 201.109 259.58 199.84C259.617 198.403 259.373 196.973 258.86 195.63C258.539 194.705 257.916 193.916 257.09 193.39C256.039 192.931 254.895 192.726 253.75 192.79H245.88V218.99H249.88V207.99H250.88C251.191 207.995 251.497 208.07 251.775 208.208C252.054 208.346 252.298 208.545 252.49 208.79C252.949 209.485 253.287 210.252 253.49 211.06L256.08 219.03ZM252.54 203.9H249.88V197.37H252.6C253.027 197.324 253.459 197.383 253.858 197.541C254.257 197.7 254.611 197.954 254.89 198.28C255.319 198.975 255.525 199.785 255.48 200.6C255.491 201.212 255.368 201.82 255.12 202.38C255.024 202.636 254.874 202.868 254.681 203.061C254.488 203.254 254.256 203.404 254 203.5C253.54 203.717 253.046 203.852 252.54 203.9ZM250.88 202.9H252.51C252.91 202.838 253.3 202.724 253.67 202.56C253.797 202.503 253.91 202.42 254.003 202.317C254.096 202.214 254.167 202.092 254.21 201.96C254.398 201.532 254.49 201.068 254.48 200.6C254.523 199.992 254.38 199.385 254.07 198.86C253.879 198.672 253.647 198.529 253.392 198.445C253.137 198.36 252.866 198.334 252.6 198.37H250.88V202.9Z" fill="black"/>
<path d="M262.96 192.33H269.59L272.15 208.9L274.69 192.35H281.32V219.55H277.19V198.78L274 219.53H270.27L267.09 198.78V219.53H262.96V192.33Z" fill="white"/>
<path d="M281.82 220.03H276.69V205.34L274.43 220.03H269.88L267.63 205.35V220.03H262.5V191.83H270.06L272.19 205.59L274.3 191.83H281.86L281.82 220.03ZM277.69 219.03H280.82V192.83H275.12L272.12 212.16L269.12 192.83H263.42V219.03H266.55V198.78L267.55 198.71L270.67 219.03H273.55L276.66 198.71L277.66 198.78L277.69 219.03Z" fill="black"/>
<path d="M90.94 68.47L72.88 37.16C71.6202 34.9773 69.545 33.3844 67.1107 32.7317C64.6765 32.0791 62.0827 32.4203 59.9 33.68C57.7173 34.9398 56.1244 37.0151 55.4718 39.4493C54.8191 41.8835 55.1602 44.4773 56.42 46.66L74.49 77.96H38.34C35.8204 77.96 33.4041 78.9609 31.6225 80.7425C29.8409 82.5241 28.84 84.9405 28.84 87.46C28.84 89.9796 29.8409 92.396 31.6225 94.1776C33.4041 95.9591 35.8204 96.96 38.34 96.96H74.49L56.41 128.26C55.7841 129.342 55.3776 130.537 55.2138 131.776C55.05 133.015 55.132 134.274 55.4552 135.481C55.7784 136.689 56.3364 137.821 57.0974 138.812C57.8584 139.804 58.8073 140.635 59.89 141.26C61.3289 142.099 62.9646 142.54 64.63 142.54C66.3005 142.54 67.9417 142.1 69.3882 141.265C70.8347 140.429 72.0356 139.227 72.87 137.78L90.94 106.48L109.02 137.78C109.63 138.887 110.454 139.861 111.445 140.645C112.436 141.43 113.573 142.008 114.791 142.348C116.008 142.687 117.281 142.78 118.535 142.621C119.788 142.462 120.998 142.055 122.092 141.423C123.186 140.791 124.144 139.947 124.908 138.94C125.672 137.934 126.227 136.785 126.542 135.561C126.857 134.337 126.924 133.063 126.74 131.813C126.556 130.562 126.124 129.361 125.47 128.28L107.4 96.98H143.54C146.06 96.98 148.476 95.9791 150.258 94.1975C152.039 92.4159 153.04 89.9996 153.04 87.48C153.04 84.9605 152.039 82.5441 150.258 80.7625C148.476 78.9809 146.06 77.98 143.54 77.98H107.39L125.47 46.67C126.67 44.4923 126.968 41.931 126.3 39.536C125.633 37.141 124.053 35.103 121.9 33.8596C119.747 32.6162 117.192 32.2665 114.784 32.8854C112.376 33.5043 110.307 35.0426 109.02 37.17L90.94 68.48" fill="#FAED26"/>
<path d="M117.25 143.03C115.493 143.032 113.767 142.57 112.244 141.693C110.722 140.815 109.459 139.552 108.58 138.03L90.88 107.41C90.04 108.98 87.88 112.79 82.31 122.41L73.31 138.06C71.9839 140.357 69.7997 142.033 67.238 142.719C64.6763 143.405 61.9468 143.046 59.65 141.72C57.3533 140.394 55.6774 138.21 54.991 135.648C54.3046 133.086 54.664 130.357 55.99 128.06L73.63 97.51H38.34C35.6878 97.51 33.1443 96.4565 31.269 94.5811C29.3936 92.7058 28.34 90.1622 28.34 87.51C28.34 84.8579 29.3936 82.3144 31.269 80.439C33.1443 78.5636 35.6878 77.51 38.34 77.51H73.62L55.98 46.9C55.313 45.7623 54.8777 44.5039 54.699 43.1973C54.5204 41.8906 54.6019 40.5616 54.939 39.2866C55.2761 38.0116 55.8621 36.8159 56.6631 35.7683C57.4642 34.7207 58.4646 33.8418 59.6067 33.1824C60.7488 32.523 62.0101 32.096 63.3179 31.926C64.6257 31.7561 65.9542 31.8464 67.2269 32.1919C68.4997 32.5375 69.6915 33.1313 70.7337 33.9394C71.776 34.7474 72.6482 35.7536 73.3 36.9L90.94 67.46L108.58 36.9C109.205 35.705 110.066 34.6488 111.11 33.7949C112.153 32.941 113.359 32.3071 114.655 31.9313C115.95 31.5555 117.308 31.4456 118.647 31.6082C119.986 31.7709 121.278 32.2026 122.445 32.8776C123.613 33.5525 124.632 34.4567 125.441 35.5357C126.25 36.6147 126.833 37.8462 127.154 39.1562C127.475 40.4662 127.527 41.8275 127.308 43.1583C127.089 44.4891 126.604 45.7619 125.88 46.9L108.24 77.46H143.52C146.172 77.46 148.716 78.5136 150.591 80.389C152.466 82.2644 153.52 84.8079 153.52 87.46C153.52 90.1122 152.466 92.6557 150.591 94.5311C148.716 96.4065 146.172 97.46 143.52 97.46H108.26L125.88 128.02C126.757 129.539 127.219 131.263 127.22 133.017C127.22 134.772 126.759 136.496 125.883 138.016C125.006 139.535 123.745 140.798 122.226 141.676C120.708 142.555 118.985 143.018 117.23 143.02L117.25 143.03ZM90.94 105.46L109.45 137.52C110.041 138.544 110.828 139.441 111.765 140.161C112.703 140.88 113.773 141.408 114.915 141.714C116.057 142.02 117.248 142.098 118.419 141.944C119.591 141.79 120.721 141.406 121.745 140.815C122.769 140.224 123.666 139.437 124.385 138.5C125.105 137.562 125.633 136.492 125.939 135.35C126.245 134.208 126.323 133.017 126.169 131.846C126.015 130.674 125.631 129.544 125.04 128.52L106.53 96.52H143.53C145.917 96.52 148.206 95.5718 149.894 93.884C151.582 92.1962 152.53 89.907 152.53 87.52C152.53 85.1331 151.582 82.8439 149.894 81.1561C148.206 79.4683 145.917 78.52 143.53 78.52H106.53L125.04 46.46C125.631 45.4364 126.015 44.3064 126.169 43.1345C126.323 41.9626 126.245 40.7718 125.939 39.6301C125.633 38.4885 125.105 37.4182 124.385 36.4805C123.666 35.5428 122.769 34.756 121.745 34.1651C119.678 32.9716 117.221 32.6483 114.915 33.2662C112.609 33.8841 110.643 35.3927 109.45 37.46L91.37 68.77L90.94 68.52L90.51 68.77L72.43 37.46C71.858 36.4012 71.0794 35.4678 70.1403 34.7151C69.2012 33.9624 68.1207 33.4057 66.9627 33.078C65.8047 32.7502 64.5927 32.658 63.3984 32.8068C62.2042 32.9557 61.0519 33.3426 60.0098 33.9446C58.9676 34.5466 58.0568 35.3515 57.3312 36.3117C56.6056 37.2718 56.08 38.3678 55.7854 39.5347C55.4908 40.7016 55.4332 41.9157 55.6161 43.1052C55.799 44.2947 56.2185 45.4355 56.85 46.46L74.98 77.88V78.51H38.34C35.953 78.51 33.6639 79.4583 31.976 81.1461C30.2882 82.8339 29.34 85.1231 29.34 87.51C29.34 89.897 30.2882 92.1862 31.976 93.874C33.6639 95.5618 35.953 96.51 38.34 96.51H75.34L56.84 128.51C56.248 129.534 55.8635 130.664 55.7084 131.836C55.5533 133.008 55.6308 134.199 55.9363 135.342C56.2418 136.484 56.7695 137.555 57.489 138.493C58.2086 139.431 59.106 140.219 60.13 140.81C62.1975 142.002 64.6536 142.324 66.9583 141.705C69.2629 141.086 71.2275 139.577 72.42 137.51C72.6 137.2 90.42 106.39 90.5 106.21L90.94 105.46Z" fill="black"/>
</svg>
