<svg width="300" height="246" viewBox="0 0 300 246" fill="none" xmlns="http://www.w3.org/2000/svg">
<path d="M288 0H12C8.8174 0 5.76515 1.26433 3.51471 3.51477C1.26427 5.76521 0 8.8174 0 12V234C0 237.183 1.26427 240.235 3.51471 242.485C5.76515 244.736 8.8174 246 12 246H288C291.183 246 294.235 244.736 296.485 242.485C298.736 240.235 300 237.183 300 234V12C300 8.8174 298.736 5.76521 296.485 3.51477C294.235 1.26433 291.183 0 288 0Z" fill="#61707E"/>
<path d="M166.28 12.3H15.01C14.2568 12.3 13.5344 12.5992 13.0018 13.1318C12.4692 13.6644 12.17 14.3868 12.17 15.14V159.8C12.1727 160.551 12.473 161.271 13.0053 161.802C13.5377 162.332 14.2585 162.63 15.01 162.63H166.28C167.032 162.63 167.752 162.332 168.285 161.802C168.817 161.271 169.117 160.551 169.12 159.8V15.14C169.12 14.3868 168.821 13.6644 168.288 13.1318C167.756 12.5992 167.033 12.3 166.28 12.3Z" fill="#D3E2E2"/>
<path d="M181.02 12.3H285.02C285.772 12.3027 286.491 12.6031 287.022 13.1354C287.552 13.6677 287.85 14.3885 287.85 15.14V162.63H181.02V12.3Z" fill="#D63128"/>
<path d="M217.37 80.51H203.5V75.27H211.36C212.062 75.2601 212.749 75.0607 213.348 74.6929C213.946 74.325 214.434 73.8023 214.76 73.18H223.66C223.322 73.6624 223.056 74.1912 222.87 74.75C221.47 78.59 219.637 80.51 217.37 80.51ZM205.07 41.25V21.62H262.39V35.75C261.87 39.0833 260.473 40.9167 258.2 41.25H256.11V43.08H263.17V48.08H256.11V50.46H263.17V55.17H249.56C249.91 56.74 250.61 57.53 251.66 57.53H263.17V63.02H245.38C242.927 63.02 239.787 60.4034 235.96 55.17H231.24L228.63 58.31L227.32 59.62C225.22 62.24 223.3 63.46 221.56 63.28H203.76V57.79H215.76C216.63 57.96 217.5 57.09 218.38 55.17H203.76V50.46H210.88V48.1H203.81V43.39H210.88V41.3L205.07 41.25ZM204.81 64.8H214.5C214.824 65.4249 215.311 65.9502 215.91 66.32C216.508 66.6898 217.196 66.8903 217.9 66.9H224.7V72.39H211.35C209.263 72.57 207.347 70.74 205.6 66.9C205.25 66.03 204.98 65.33 204.81 64.8ZM252.18 29.21V27.12H215.02V29.21H252.18ZM215.02 33.92V36.02H252.18V33.92H215.02ZM221.02 41.25V43.34H245.88V41.25H221.02ZM245.88 50.46V48.1H221.04V50.46H245.88ZM228.61 74.8V61.4H238.55V74.75C238.55 78.75 236.55 80.75 232.55 80.75H224.7V75.25H227.88C228.37 75.27 228.63 75.1 228.63 74.75L228.61 74.8ZM241.96 66.69H250.07C250.94 66.86 251.72 66.34 252.42 65.12H262.11C261.904 65.5406 261.727 65.975 261.58 66.42C259.66 70.6134 257.567 72.6134 255.3 72.42H241.98V66.67L241.96 66.69ZM242.48 74.01H251.38L252.16 74.8C253.078 75.1571 254.055 75.3336 255.04 75.32H262.63V81.08H250.09C247.3 81.2 244.76 78.85 242.5 73.96L242.48 74.01Z" fill="white"/>
<path d="M249.78 81.54C246.92 81.54 244.31 79.06 242.05 74.17L241.72 73.46H251.61L251.76 73.61C251.91 73.78 252.15 74.01 252.46 74.32C253.292 74.6289 254.173 74.7814 255.06 74.77H263.15V81.53H249.78V81.54ZM243.29 74.46C245.36 78.64 247.63 80.68 250.06 80.53H262.15V75.77H255.06C254.01 75.7811 252.968 75.591 251.99 75.21L251.83 75.1L251.19 74.46H243.29ZM232.55 81.27H224.2V74.77H227.88C227.976 74.7821 228.074 74.7821 228.17 74.77V60.9H239.11V74.75C239.07 79.01 236.82 81.27 232.55 81.27ZM225.2 80.27H232.55C236.27 80.27 238.07 78.46 238.07 74.75V61.9H229.13V74.75C229.13 74.99 229.03 75.75 227.84 75.75H225.2V80.27ZM217.37 81.01H203V74.77H211.36C211.982 74.7643 212.591 74.5878 213.12 74.2598C213.649 73.9318 214.078 73.465 214.36 72.91H211.36C209.09 73.1 206.98 71.16 205.15 67.12C204.79 66.23 204.52 65.52 204.35 64.98L204.13 64.32H214.78L214.93 64.56C215.212 65.1149 215.641 65.5819 216.17 65.9098C216.699 66.2378 217.308 66.4143 217.93 66.42H225.23V72.91H224.48L224.1 73.48C223.791 73.9259 223.549 74.4143 223.38 74.93C221.88 78.96 219.88 81.01 217.37 81.01ZM204 80.01H217.37C219.37 80.01 221.09 78.18 222.37 74.58C222.475 74.2714 222.602 73.9706 222.75 73.68H215C214.62 74.3146 214.082 74.8405 213.439 75.2066C212.796 75.5728 212.07 75.7668 211.33 75.77H203.97L204 80.01ZM205.52 65.3C205.66 65.71 205.85 66.18 206.06 66.71C207.69 70.3 209.46 72.04 211.31 71.89H224.2V67.4H217.88C217.138 67.3955 216.409 67.2 215.765 66.8321C215.12 66.4643 214.581 65.9367 214.2 65.3H205.52ZM255.59 72.9H241.48V66.15H250.09C250.42 66.2 251.09 66.35 252.01 64.83L252.15 64.58H262.94L262.57 65.3C262.378 65.7017 262.215 66.116 262.08 66.54C260.133 70.7867 257.97 72.9067 255.59 72.9ZM242.48 71.9H255.32C257.38 72.06 259.32 70.13 261.15 66.18C261.21 65.97 261.29 65.77 261.36 65.58H252.73C251.94 66.82 251.02 67.34 249.99 67.14H242.48V71.9ZM221.88 63.75H203.26V57.26H215.8C216.39 57.37 217 56.79 217.62 55.64H203.26V49.93H210.33V48.57H203.26V42.86H210.33V41.77H204.57V21.12H262.88V35.75C262.31 39.37 260.77 41.36 258.27 41.75H256.6V42.58H263.66V48.58H256.6V49.94H263.66V55.65H250.22C250.68 57 251.4 57 251.66 57H263.66V63.46H245.38C242.77 63.46 239.61 60.89 235.7 55.61H231.48L229.01 58.61L227.67 59.95C225.65 62.46 223.7 63.75 221.88 63.75ZM204.25 62.75H221.55C223.15 62.92 224.94 61.75 226.92 59.28L228.26 57.93L231 54.64H236.2L236.35 54.84C240.07 59.92 243.1 62.49 245.35 62.49H262.64V57.99H251.64C250.74 57.99 249.56 57.52 249.06 55.25L248.92 54.64H262.65V50.93H255.59V47.57H262.65V43.57H255.59V40.74H258.18C260.18 40.43 261.39 38.74 261.88 35.67V22.12H205.57V40.75H211.33V43.84H204.26V47.55H211.33V50.91H204.26V54.62H219.2L218.87 55.33C218.51 56.13 217.4 58.57 215.7 58.23H204.26L204.25 62.75ZM246.39 50.93H220.54V47.57H246.4L246.39 50.93ZM221.53 49.93H245.39V48.57H221.54L221.53 49.93ZM246.39 43.86H220.54V40.77H246.4L246.39 43.86ZM221.53 42.86H245.39V41.77H221.54L221.53 42.86ZM252.67 36.53H214.52V33.46H252.68L252.67 36.53ZM215.51 35.53H251.68V34.46H215.52L215.51 35.53ZM252.67 29.73H214.52V26.64H252.68L252.67 29.73ZM215.51 28.73H251.68V27.64H215.52L215.51 28.73Z" fill="black"/>
<path d="M287.88 175.01V230.86C287.877 231.611 287.577 232.331 287.045 232.862C286.512 233.392 285.791 233.69 285.04 233.69H104.37V175.01H287.88Z" fill="#D63128"/>
<path d="M92.94 233.69H15.01C14.2585 233.69 13.5377 233.392 13.0053 232.862C12.473 232.331 12.1727 231.611 12.17 230.86V175.01H92.94V233.69Z" fill="#D63128"/>
<path d="M204.81 100.85V94.3H264.48V100.85H239.62V103.46H264.48V126.76H255.88V109.46H239.62V126.21H230.46V109.46H213.46V126.74H204.82V103.46H230.47V100.85H204.81ZM255.59 135.66H206.38V128.85H264.22V147.69C264.567 152.577 262.213 154.847 257.16 154.5H206.16V147.69H254.84C255.36 147.69 255.63 147.35 255.63 146.69V145.38H205.07V138.57H255.59V135.66ZM215.02 126.76V122.05H218.42C218.633 122.08 218.85 122.06 219.055 121.992C219.259 121.923 219.444 121.809 219.596 121.656C219.749 121.504 219.863 121.319 219.932 121.115C220 120.91 220.02 120.693 219.99 120.48V120.21H227.88V122.31C227.88 125.45 226.397 126.933 223.43 126.76H215.02ZM215.54 113.67V111.84H223.66V112.84C223.48 113.36 224.35 113.62 226.27 113.62H228.63V118.07H219.73C216.943 118.103 215.547 116.637 215.54 113.67ZM254.01 126.76H246.42C242.76 126.93 241.01 125.76 241.19 123.09V119.95H249.3V120.74C249.13 121.74 249.74 122.31 251.14 122.31H254.01V126.76ZM241.19 118.12V113.67H244.33C245.2 113.67 245.64 113.15 245.64 112.1V111.58H253.49V114.72C253.66 117.16 252.01 118.3 248.49 118.12H241.19Z" fill="white"/>
<path d="M258.11 155.03H205.61V147.22H254.79C254.92 147.22 255.08 147.22 255.08 146.68V145.87H204.57V138.06H255.09V136.19H205.88V128.38H264.72V147.72C264.9 150.23 264.37 152.14 263.13 153.38C262.445 153.976 261.649 154.428 260.787 154.712C259.924 154.995 259.014 155.103 258.11 155.03ZM206.62 154.03H257.16C259.6 154.2 261.36 153.74 262.42 152.67C263.48 151.6 263.88 150 263.72 147.76V129.38H206.88V135.19H256.09V139.06H205.57V144.87H256.09V146.68C256.09 148.11 255.09 148.22 254.8 148.22H206.62V154.03ZM245.73 127.3C244.994 127.371 244.252 127.294 243.546 127.075C242.84 126.855 242.185 126.496 241.62 126.02C241.261 125.629 240.992 125.164 240.831 124.658C240.671 124.152 240.623 123.617 240.69 123.09V119.46H249.8V120.75C249.72 121.28 249.85 121.44 249.9 121.49C250.255 121.756 250.7 121.874 251.14 121.82H254.51V127.27H245.73V127.3ZM241.73 120.48V123.12C241.67 123.511 241.696 123.911 241.806 124.291C241.917 124.671 242.109 125.022 242.37 125.32C243.09 126.06 244.46 126.38 246.44 126.32H253.55V122.87H251.18C250.816 122.908 250.449 122.866 250.103 122.747C249.758 122.628 249.443 122.434 249.18 122.18C249.021 121.974 248.909 121.735 248.854 121.481C248.799 121.227 248.801 120.963 248.86 120.71V120.51L241.73 120.48ZM223.88 127.27H214.55V121.56H218.45C219.22 121.56 219.52 121.26 219.52 120.49V119.72H228.37V122.32C228.428 123.025 228.34 123.734 228.111 124.404C227.882 125.073 227.517 125.688 227.04 126.21C226.164 126.96 225.031 127.34 223.88 127.27ZM215.55 126.27H223.42C223.936 126.345 224.463 126.314 224.967 126.178C225.471 126.043 225.941 125.805 226.35 125.48C226.723 125.049 227.005 124.547 227.177 124.003C227.349 123.46 227.408 122.887 227.35 122.32V120.72H220.48C220.479 120.98 220.423 121.238 220.316 121.475C220.209 121.712 220.053 121.925 219.859 122.098C219.665 122.271 219.436 122.402 219.189 122.482C218.941 122.561 218.679 122.588 218.42 122.56H215.52L215.55 126.27ZM265.01 127.27H255.38V109.98H240.12V126.73H229.96V109.98H213.96V127.26H204.32V102.96H229.97V101.35H204.31V93.8H264.98V101.35H240.12V102.96H264.98L265.01 127.27ZM256.38 126.27H264.01V103.96H239.12V100.35H263.98V94.8H205.31V100.35H230.96V103.96H205.31V126.26H212.95V108.98H230.95V125.73H239.11V108.98H256.34L256.38 126.27ZM249.24 118.65H240.72V113.2H244.36C244.75 113.2 245.17 113.12 245.17 112.13V111.13H254.02V114.77C254.081 115.257 254.036 115.752 253.888 116.22C253.739 116.687 253.491 117.118 253.16 117.48C252.612 117.926 251.98 118.258 251.302 118.458C250.624 118.657 249.912 118.719 249.21 118.64L249.24 118.65ZM241.72 117.65H248.55C250.46 117.74 251.77 117.44 252.44 116.75C252.683 116.483 252.861 116.164 252.961 115.817C253.062 115.471 253.082 115.105 253.02 114.75V112.08H246.17C246.17 113.95 244.91 114.15 244.36 114.15H241.72V117.65ZM229.16 118.65H219.76C216.69 118.65 215.07 116.94 215.07 113.7V111.37H224.19V112.97C224.873 113.179 225.588 113.257 226.3 113.2H229.16V118.65ZM216.07 112.37V113.7C216.07 116.4 217.24 117.65 219.76 117.65H228.16V114.2H226.3C224.1 114.2 223.56 113.86 223.3 113.52C223.23 113.425 223.182 113.315 223.16 113.2C223.137 113.084 223.141 112.964 223.17 112.85V112.37H216.07Z" fill="black"/>
<path d="M32.73 225.02V219.51H49.07V225.02H32.73ZM32.92 194.72L39.92 183.89H47.08L39.01 196.56H41.39L43.96 192.34H51.49L40.66 209.59H49.1V215.28H32.88V210.14L38.75 201.7H32.88L32.92 194.72ZM58.8 219.72V189.8H51.46V183.92H74.41V189.8H65.96V219.72H74.59V225.6H51.28V219.72H58.8Z" fill="white"/>
<path d="M75.09 226.07H50.78V219.19H58.3V190.26H50.96V183.39H74.88V190.26H66.43V219.19H75.06L75.09 226.07ZM51.78 225.07H74.09V220.19H65.46V189.26H73.88V184.39H51.96V189.26H59.3V220.19H51.78V225.07ZM49.57 225.51H32.23V219.01H49.57V225.51ZM33.23 224.51H48.57V220.01H33.23V224.51ZM49.57 215.78H32.42V209.99L37.84 202.2H32.42V194.58L39.62 183.39H47.97L39.88 196.06H41.07L43.64 191.84H52.35L41.52 209.09H49.52L49.57 215.78ZM33.42 214.78H48.57V210.09H39.72L50.56 192.84H44.21L41.64 197.06H38.06L46.14 184.39H40.14L33.39 194.87V201.2H39.72L33.39 210.3L33.42 214.78Z" fill="black"/>
<path d="M108.79 210.53L113.59 210.03C113.63 211.059 113.847 212.074 114.23 213.03C114.388 213.498 114.686 213.907 115.082 214.202C115.479 214.496 115.956 214.663 116.45 214.68C116.778 214.695 117.104 214.624 117.397 214.475C117.69 214.326 117.939 214.104 118.12 213.83C118.513 213.257 118.715 212.575 118.7 211.88C118.713 211.204 118.517 210.541 118.14 209.98C117.45 209.218 116.554 208.673 115.56 208.41C113.68 207.82 112.028 206.664 110.83 205.1C109.827 203.538 109.331 201.705 109.41 199.85C109.397 198.483 109.642 197.126 110.13 195.85C110.564 194.681 111.328 193.663 112.33 192.92C113.516 192.149 114.917 191.774 116.33 191.85C117.22 191.792 118.112 191.936 118.938 192.272C119.764 192.608 120.503 193.127 121.1 193.79C122.2 195.083 122.867 197.14 123.1 199.96L118.34 200.42C118.304 199.478 118.033 198.56 117.55 197.75C117.359 197.485 117.106 197.271 116.813 197.126C116.52 196.981 116.197 196.911 115.87 196.92C115.616 196.903 115.361 196.952 115.13 197.06C114.899 197.169 114.7 197.334 114.55 197.54C114.241 197.982 114.083 198.511 114.1 199.05C114.093 199.47 114.223 199.88 114.47 200.22C114.922 200.714 115.51 201.062 116.16 201.22C117.863 201.753 119.465 202.568 120.9 203.63C121.844 204.431 122.561 205.465 122.98 206.63C123.424 207.916 123.644 209.269 123.63 210.63C123.648 212.277 123.353 213.913 122.76 215.45C122.287 216.776 121.444 217.939 120.33 218.8C119.177 219.594 117.799 219.994 116.4 219.94C113.633 219.94 111.713 219.05 110.64 217.27C109.482 215.208 108.847 212.894 108.79 210.53Z" fill="white"/>
<path d="M116.37 220.46C113.42 220.46 111.37 219.46 110.18 217.55C108.992 215.404 108.343 213.002 108.29 210.55V210.08L114.07 209.48V209.99C114.109 210.946 114.309 211.889 114.66 212.78C114.785 213.159 115.02 213.492 115.335 213.736C115.651 213.98 116.032 214.124 116.43 214.15C116.677 214.165 116.923 214.114 117.144 214.004C117.365 213.893 117.554 213.726 117.69 213.52C118.023 213.028 118.194 212.444 118.18 211.85C118.192 211.275 118.028 210.709 117.71 210.23C117.084 209.548 116.27 209.067 115.37 208.85C113.387 208.223 111.642 207.005 110.37 205.36C109.308 203.713 108.781 201.778 108.86 199.82C108.85 198.404 109.108 197 109.62 195.68C110.088 194.422 110.907 193.325 111.98 192.52C113.258 191.688 114.767 191.282 116.29 191.36C117.253 191.301 118.217 191.461 119.109 191.828C120.001 192.196 120.798 192.76 121.44 193.48C122.6 194.85 123.3 197.02 123.51 199.93V200.42L117.78 200.98L117.72 200.49C117.693 199.634 117.452 198.799 117.02 198.06C116.89 197.878 116.719 197.729 116.521 197.625C116.323 197.521 116.104 197.465 115.88 197.46C115.704 197.441 115.526 197.469 115.365 197.541C115.203 197.613 115.063 197.726 114.96 197.87C114.718 198.23 114.596 198.657 114.61 199.09C114.604 199.406 114.703 199.715 114.89 199.97C114.99 200.13 115.31 200.43 116.33 200.79C118.092 201.337 119.749 202.179 121.23 203.28C122.246 204.14 123.015 205.255 123.46 206.51C123.927 207.86 124.157 209.281 124.14 210.71C124.157 212.418 123.852 214.115 123.24 215.71C122.73 217.123 121.828 218.361 120.64 219.28C119.382 220.125 117.884 220.539 116.37 220.46ZM109.32 210.95C109.412 213.083 110.001 215.165 111.04 217.03C112.04 218.67 113.76 219.46 116.37 219.46C117.659 219.523 118.934 219.173 120.01 218.46C121.042 217.649 121.825 216.564 122.27 215.33C122.833 213.848 123.115 212.275 123.1 210.69C123.117 209.377 122.907 208.071 122.48 206.83C122.091 205.742 121.422 204.776 120.54 204.03C119.154 203.005 117.606 202.221 115.96 201.71C115.205 201.525 114.527 201.109 114.02 200.52C113.72 200.097 113.563 199.589 113.57 199.07C113.553 198.428 113.742 197.797 114.11 197.27C114.312 196.995 114.58 196.777 114.89 196.635C115.2 196.493 115.54 196.433 115.88 196.46C116.282 196.442 116.683 196.524 117.046 196.698C117.409 196.873 117.723 197.135 117.96 197.46C118.427 198.188 118.712 199.018 118.79 199.88L122.57 199.51C122.513 197.572 121.887 195.694 120.77 194.11C120.22 193.503 119.539 193.029 118.778 192.724C118.017 192.419 117.197 192.291 116.38 192.35C115.066 192.287 113.765 192.636 112.66 193.35C111.748 194.044 111.054 194.984 110.66 196.06C110.196 197.266 109.962 198.548 109.97 199.84C109.892 201.603 110.356 203.349 111.3 204.84C112.448 206.314 114.018 207.402 115.8 207.96C116.898 208.249 117.882 208.866 118.62 209.73C119.05 210.371 119.274 211.128 119.26 211.9C119.27 212.697 119.036 213.479 118.59 214.14C118.36 214.477 118.049 214.751 117.686 214.936C117.322 215.121 116.918 215.212 116.51 215.2C115.919 215.188 115.345 214.996 114.866 214.65C114.387 214.303 114.026 213.818 113.83 213.26C113.481 212.423 113.268 211.535 113.2 210.63L109.32 210.95Z" fill="black"/>
<path d="M130.88 192.33L137.02 207.38V192.33H141.78V219.53H137.02L130.88 204.59V219.53H126.14V192.33H130.88Z" fill="white"/>
<path d="M142.28 220.03H136.69L131.41 207.13V220.03H125.67V191.83H131.22L136.52 204.83V191.83H142.28V220.03ZM137.36 219.03H141.28V192.83H137.52V209.92L130.52 192.83H126.65V219.03H130.39V202.03L137.36 219.03Z" fill="black"/>
<path d="M144.5 205.95C144.5 201.51 145.24 198.05 146.72 195.57C147.331 194.452 148.23 193.518 149.325 192.865C150.419 192.213 151.668 191.865 152.942 191.859C154.216 191.853 155.469 192.189 156.569 192.831C157.67 193.473 158.578 194.398 159.2 195.51C160.667 197.943 161.403 201.347 161.41 205.72C161.473 208.362 161.136 210.999 160.41 213.54C159.912 215.338 158.954 216.975 157.63 218.29C156.4 219.433 154.768 220.044 153.09 219.99C151.443 220.051 149.827 219.534 148.52 218.53C147.141 217.277 146.129 215.673 145.59 213.89C144.784 211.323 144.416 208.639 144.5 205.95ZM149.5 205.95C149.374 207.967 149.688 209.987 150.42 211.87C150.613 212.383 150.953 212.828 151.398 213.148C151.843 213.468 152.372 213.65 152.92 213.67C153.466 213.66 153.997 213.487 154.444 213.174C154.891 212.86 155.235 212.42 155.43 211.91C156.03 210.73 156.32 208.63 156.32 205.58C156.439 203.664 156.121 201.745 155.39 199.97C155.223 199.438 154.891 198.972 154.441 198.642C153.991 198.312 153.448 198.134 152.89 198.134C152.332 198.134 151.789 198.312 151.339 198.642C150.889 198.972 150.557 199.438 150.39 199.97C149.671 201.887 149.38 203.939 149.54 205.98L149.5 205.95Z" fill="white"/>
<path d="M153.12 220.46C151.358 220.522 149.631 219.963 148.24 218.88C146.786 217.572 145.717 215.892 145.15 214.02C144.315 211.404 143.926 208.665 144 205.92C144 201.4 144.77 197.83 146.29 195.29C146.945 194.097 147.906 193.101 149.075 192.404C150.245 191.708 151.579 191.337 152.939 191.33C154.3 191.323 155.638 191.68 156.815 192.364C157.991 193.048 158.963 194.034 159.63 195.22C161.14 197.72 161.91 201.22 161.91 205.69C161.974 208.391 161.637 211.087 160.91 213.69C160.382 215.58 159.377 217.302 157.99 218.69C156.657 219.888 154.911 220.523 153.12 220.46ZM152.92 192.33C151.731 192.314 150.56 192.63 149.541 193.243C148.521 193.856 147.693 194.742 147.15 195.8C145.72 198.19 145 201.59 145 205.92C144.927 208.553 145.295 211.179 146.09 213.69C146.601 215.387 147.561 216.915 148.87 218.11C150.086 219.042 151.589 219.52 153.12 219.46C154.671 219.516 156.181 218.955 157.32 217.9C158.576 216.637 159.488 215.075 159.97 213.36C160.66 210.864 160.977 208.279 160.91 205.69C160.91 201.43 160.19 198.08 158.77 195.69C158.196 194.642 157.34 193.774 156.299 193.186C155.259 192.598 154.074 192.312 152.88 192.36L152.92 192.33ZM152.92 214.17C152.271 214.162 151.639 213.96 151.105 213.592C150.571 213.223 150.158 212.704 149.92 212.1C149.138 210.149 148.796 208.049 148.92 205.95C148.92 203.07 149.24 201.05 149.92 199.77C150.148 199.181 150.542 198.671 151.056 198.303C151.569 197.935 152.179 197.726 152.81 197.7C153.451 197.704 154.076 197.895 154.609 198.251C155.143 198.606 155.56 199.11 155.81 199.7C156.586 201.544 156.928 203.542 156.81 205.54C156.81 208.69 156.51 210.84 155.87 212.09C155.65 212.691 155.255 213.213 154.737 213.589C154.218 213.965 153.6 214.177 152.96 214.2L152.92 214.17ZM152.87 198.7C152.05 198.7 151.4 199.2 150.87 200.23C150.169 202.051 149.873 204.003 150 205.95C149.878 207.889 150.171 209.833 150.86 211.65C151.016 212.077 151.295 212.45 151.661 212.72C152.028 212.99 152.465 213.147 152.92 213.17C153.375 213.157 153.815 213.009 154.184 212.743C154.553 212.477 154.834 212.107 154.99 211.68C155.54 210.58 155.82 208.53 155.82 205.58C155.934 203.744 155.637 201.906 154.95 200.2C154.784 199.781 154.5 199.419 154.133 199.158C153.765 198.897 153.33 198.749 152.88 198.73L152.87 198.7Z" fill="black"/>
<path d="M162.05 192.33H166.88L168.61 207.56L171.13 192.33H175.88L178.41 207.54L180.14 192.33H184.88L181.28 219.53H176.33L173.47 202.4L170.62 219.53H165.62L162.05 192.33Z" fill="white"/>
<path d="M181.73 220.03H175.88L173.48 205.46L171.05 220.05H165.25L161.48 191.85H167.29L168.66 203.96L170.66 191.85H176.28L178.28 203.95L179.65 191.85H185.44L181.73 220.03ZM176.73 219.03H180.88L184.35 192.83H180.6L178.52 211.14L175.47 192.83H171.54L168.54 211.18L166.46 192.83H162.69L166.19 219.03H170.27L173.55 199.36L176.73 219.03Z" fill="black"/>
<path d="M193.26 210.53L198.06 210.03C198.093 211.059 198.307 212.074 198.69 213.03C198.849 213.5 199.148 213.91 199.546 214.205C199.945 214.499 200.424 214.665 200.92 214.68C201.247 214.694 201.571 214.623 201.862 214.474C202.153 214.325 202.4 214.103 202.58 213.83C202.976 213.258 203.182 212.576 203.17 211.88C203.178 211.205 202.983 210.543 202.61 209.98C201.92 209.218 201.024 208.673 200.03 208.41C198.149 207.823 196.496 206.666 195.3 205.1C194.293 203.539 193.794 201.706 193.87 199.85C193.856 198.482 194.103 197.125 194.6 195.85C195.033 194.683 195.794 193.666 196.79 192.92C197.978 192.152 199.377 191.777 200.79 191.85C201.68 191.793 202.571 191.938 203.397 192.274C204.223 192.61 204.962 193.128 205.56 193.79C206.647 195.083 207.297 197.14 207.51 199.96L202.76 200.42C202.717 199.478 202.442 198.561 201.96 197.75C201.769 197.485 201.516 197.271 201.223 197.126C200.93 196.981 200.607 196.911 200.28 196.92C200.026 196.906 199.772 196.956 199.542 197.064C199.312 197.172 199.112 197.336 198.96 197.54C198.655 197.983 198.5 198.512 198.52 199.05C198.515 199.468 198.641 199.877 198.88 200.22C199.332 200.714 199.92 201.062 200.57 201.22C202.275 201.749 203.878 202.564 205.31 203.63C206.256 204.428 206.974 205.464 207.39 206.63C207.839 207.915 208.059 209.269 208.04 210.63C208.058 212.277 207.763 213.913 207.17 215.45C206.704 216.777 205.864 217.941 204.75 218.8C203.597 219.594 202.219 219.994 200.82 219.94C198.04 219.94 196.117 219.05 195.05 217.27C193.913 215.203 193.298 212.889 193.26 210.53Z" fill="white"/>
<path d="M200.88 220.46C197.88 220.46 195.88 219.46 194.68 217.55C193.495 215.404 192.85 213.001 192.8 210.55V210.07L198.58 209.47V209.98C198.617 210.937 198.816 211.88 199.17 212.77C199.75 214 200.46 214.14 200.95 214.14C201.195 214.154 201.44 214.103 201.659 213.992C201.879 213.882 202.065 213.715 202.2 213.51C202.536 213.019 202.711 212.435 202.7 211.84C202.709 211.264 202.541 210.698 202.22 210.22C201.594 209.538 200.78 209.057 199.88 208.84C197.897 208.213 196.152 206.995 194.88 205.35C193.823 203.701 193.296 201.767 193.37 199.81C193.365 198.395 193.623 196.991 194.13 195.67C194.6 194.411 195.423 193.314 196.5 192.51C197.778 191.677 199.287 191.27 200.81 191.35C201.773 191.291 202.737 191.451 203.629 191.818C204.521 192.186 205.318 192.75 205.96 193.47C207.12 194.84 207.81 197.01 208.03 199.92V200.41L202.3 200.97L202.25 200.48C202.218 199.625 201.978 198.791 201.55 198.05C201.408 197.845 201.216 197.679 200.992 197.569C200.768 197.459 200.519 197.408 200.27 197.42C200.096 197.403 199.92 197.431 199.76 197.503C199.6 197.575 199.462 197.688 199.36 197.83C199.114 198.188 198.991 198.616 199.01 199.05C199.006 199.364 199.1 199.672 199.28 199.93C199.39 200.09 199.7 200.39 200.73 200.75C202.488 201.299 204.142 202.141 205.62 203.24C206.645 204.094 207.425 205.205 207.88 206.46C208.347 207.81 208.577 209.231 208.56 210.66C208.578 212.368 208.273 214.065 207.66 215.66C207.157 217.077 206.254 218.317 205.06 219.23C203.833 220.074 202.369 220.505 200.88 220.46ZM193.83 210.95C193.914 213.083 194.5 215.166 195.54 217.03C196.54 218.67 198.27 219.46 200.88 219.46C202.166 219.525 203.439 219.174 204.51 218.46C205.546 217.653 206.33 216.567 206.77 215.33C207.333 213.848 207.615 212.275 207.6 210.69C207.618 209.377 207.408 208.071 206.98 206.83C206.597 205.741 205.931 204.775 205.05 204.03C203.659 203.008 202.108 202.224 200.46 201.71C199.706 201.523 199.029 201.107 198.52 200.52C198.227 200.094 198.074 199.587 198.08 199.07C198.064 198.429 198.249 197.8 198.61 197.27C198.806 196.998 199.067 196.779 199.369 196.634C199.671 196.489 200.005 196.422 200.34 196.44C200.744 196.423 201.145 196.505 201.51 196.68C201.874 196.854 202.19 197.115 202.43 197.44C202.893 198.169 203.175 198.999 203.25 199.86L207.03 199.49C206.977 197.552 206.351 195.672 205.23 194.09C204.682 193.482 204.003 193.008 203.244 192.703C202.485 192.398 201.666 192.27 200.85 192.33C199.536 192.264 198.234 192.614 197.13 193.33C196.213 194.019 195.518 194.961 195.13 196.04C194.658 197.244 194.42 198.527 194.43 199.82C194.349 201.585 194.817 203.332 195.77 204.82C196.915 206.291 198.481 207.38 200.26 207.94C201.361 208.229 202.349 208.846 203.09 209.71C203.522 210.364 203.753 211.131 203.753 211.915C203.753 212.699 203.522 213.466 203.09 214.12C202.864 214.459 202.556 214.734 202.193 214.92C201.831 215.106 201.427 215.195 201.02 215.18C200.429 215.168 199.855 214.976 199.376 214.63C198.897 214.283 198.536 213.798 198.34 213.24C197.99 212.403 197.777 211.515 197.71 210.61L193.83 210.95Z" fill="black"/>
<path d="M209.46 192.33H224.79V199.04H219.64V219.53H214.64V199.04H209.5V192.33H209.46Z" fill="white"/>
<path d="M220.14 220.03H214.14V199.54H209V191.83H225.33V199.54H220.18L220.14 220.03ZM215.14 219.03H219.14V198.54H224.29V192.83H209.96V198.54H215.1L215.14 219.03Z" fill="black"/>
<path d="M225.65 205.95C225.65 201.51 226.393 198.05 227.88 195.57C228.491 194.452 229.39 193.518 230.485 192.865C231.579 192.213 232.828 191.865 234.102 191.859C235.376 191.853 236.629 192.189 237.729 192.831C238.83 193.473 239.738 194.398 240.36 195.51C241.833 197.943 242.567 201.347 242.56 205.72C242.618 208.362 242.28 210.997 241.56 213.54C241.062 215.338 240.104 216.975 238.78 218.29C237.549 219.432 235.918 220.043 234.24 219.99C232.593 220.051 230.977 219.534 229.67 218.53C228.291 217.277 227.279 215.673 226.74 213.89C225.934 211.323 225.566 208.639 225.65 205.95ZM230.7 205.95C230.569 207.967 230.883 209.988 231.62 211.87C231.811 212.382 232.149 212.827 232.593 213.147C233.036 213.467 233.564 213.649 234.11 213.67C234.658 213.662 235.191 213.49 235.64 213.177C236.089 212.863 236.434 212.422 236.63 211.91C237.23 210.73 237.52 208.63 237.52 205.58C237.639 203.664 237.321 201.745 236.59 199.97C236.388 199.462 236.042 199.023 235.594 198.709C235.146 198.395 234.617 198.218 234.07 198.2C233.531 198.228 233.011 198.414 232.576 198.734C232.141 199.054 231.808 199.494 231.62 200C230.877 201.901 230.563 203.943 230.7 205.98V205.95Z" fill="white"/>
<path d="M234.28 220.46C232.518 220.522 230.791 219.963 229.4 218.88C227.94 217.578 226.87 215.895 226.31 214.02C225.47 211.405 225.078 208.666 225.15 205.92C225.15 201.4 225.93 197.83 227.45 195.29C228.105 194.097 229.066 193.101 230.235 192.404C231.405 191.708 232.739 191.337 234.099 191.33C235.46 191.323 236.798 191.68 237.974 192.364C239.151 193.048 240.123 194.034 240.79 195.22C242.3 197.72 243.06 201.22 243.06 205.69C243.125 208.391 242.788 211.088 242.06 213.69C241.533 215.58 240.527 217.302 239.14 218.69C237.809 219.884 236.068 220.518 234.28 220.46ZM234.08 192.33C232.891 192.314 231.72 192.63 230.701 193.243C229.682 193.856 228.853 194.742 228.31 195.8C226.88 198.19 226.15 201.59 226.15 205.92C226.08 208.553 226.452 211.18 227.25 213.69C227.757 215.389 228.718 216.917 230.03 218.11C231.246 219.042 232.749 219.52 234.28 219.46C235.831 219.516 237.341 218.955 238.48 217.9C239.736 216.639 240.646 215.075 241.12 213.36C241.815 210.865 242.132 208.279 242.06 205.69C242.06 201.43 241.35 198.08 239.93 195.69C239.358 194.649 238.508 193.786 237.476 193.198C236.443 192.61 235.268 192.32 234.08 192.36V192.33ZM234.08 214.17C233.441 214.151 232.822 213.945 232.299 213.577C231.776 213.209 231.373 212.695 231.14 212.1C230.358 210.149 230.016 208.049 230.14 205.95C230.14 203.07 230.46 201.05 231.14 199.77C231.366 199.18 231.761 198.67 232.275 198.302C232.788 197.934 233.399 197.724 234.03 197.7C234.67 197.705 235.295 197.897 235.828 198.252C236.361 198.608 236.779 199.111 237.03 199.7C237.806 201.544 238.148 203.542 238.03 205.54C238.03 208.69 237.72 210.84 237.09 212.09C236.864 212.701 236.459 213.23 235.927 213.606C235.395 213.983 234.762 214.19 234.11 214.2L234.08 214.17ZM234.08 198.7C233.26 198.7 232.61 199.2 232.08 200.23C231.379 202.051 231.083 204.003 231.21 205.95C231.088 207.889 231.381 209.833 232.07 211.65C232.225 212.077 232.501 212.448 232.866 212.719C233.231 212.989 233.667 213.146 234.12 213.17C234.576 213.158 235.018 213.01 235.389 212.744C235.76 212.479 236.042 212.108 236.2 211.68C236.75 210.58 237.03 208.53 237.03 205.58C237.144 203.744 236.847 201.906 236.16 200.2C235.993 199.778 235.706 199.414 235.334 199.153C234.963 198.892 234.524 198.745 234.07 198.73L234.08 198.7Z" fill="black"/>
<path d="M245.35 219.53V192.33H253.75C254.98 192.262 256.208 192.492 257.33 193C258.259 193.571 258.965 194.442 259.33 195.47C259.869 196.876 260.127 198.375 260.09 199.88C260.114 201.206 259.918 202.528 259.51 203.79C259.173 204.791 258.616 205.703 257.88 206.46C257.373 206.939 256.77 207.304 256.11 207.53C256.606 207.783 257.052 208.121 257.43 208.53C257.743 208.979 258.011 209.458 258.23 209.96C258.506 210.506 258.743 211.071 258.94 211.65L261.38 219.53H255.68L252.99 211.22C252.802 210.474 252.491 209.764 252.07 209.12C251.933 208.929 251.755 208.77 251.549 208.656C251.343 208.542 251.115 208.475 250.88 208.46H250.43V219.46L245.35 219.53ZM250.41 203.35H252.54C253.002 203.293 253.454 203.168 253.88 202.98C254.067 202.9 254.236 202.783 254.375 202.635C254.515 202.487 254.622 202.312 254.69 202.12C254.915 201.628 255.024 201.091 255.01 200.55C255.047 199.848 254.873 199.152 254.51 198.55C254.277 198.29 253.984 198.09 253.656 197.969C253.329 197.847 252.977 197.806 252.63 197.85H250.41V203.38V203.35Z" fill="white"/>
<path d="M262.08 220.03H255.34L252.53 211.37C252.366 210.686 252.088 210.033 251.71 209.44C251.615 209.314 251.495 209.208 251.357 209.131C251.22 209.053 251.067 209.006 250.91 208.99V219.99H244.88V191.79H253.78C255.091 191.717 256.399 191.968 257.59 192.52C258.625 193.14 259.41 194.102 259.81 195.24C260.378 196.706 260.649 198.269 260.61 199.84C260.635 201.221 260.429 202.597 260 203.91C259.646 204.974 259.062 205.947 258.29 206.76C257.966 207.076 257.599 207.345 257.2 207.56C257.445 207.735 257.666 207.94 257.86 208.17C258.208 208.645 258.5 209.158 258.73 209.7C259.017 210.269 259.264 210.857 259.47 211.46L262.08 220.03ZM256.08 219.03H260.73L258.49 211.79C258.302 211.235 258.075 210.693 257.81 210.17C257.613 209.704 257.365 209.261 257.07 208.85C256.738 208.484 256.342 208.182 255.9 207.96L254.96 207.44L255.96 207.06C256.553 206.84 257.095 206.5 257.55 206.06C258.222 205.359 258.725 204.515 259.02 203.59C259.829 200.976 259.773 198.17 258.86 195.59C258.539 194.665 257.916 193.876 257.09 193.35C256.039 192.891 254.895 192.686 253.75 192.75H245.88V218.95H249.88V207.95H250.88C251.191 207.955 251.497 208.03 251.775 208.168C252.054 208.306 252.298 208.505 252.49 208.75C252.949 209.445 253.287 210.212 253.49 211.02L256.08 219.03ZM252.55 203.85H249.88V197.32H252.6C253.027 197.274 253.459 197.333 253.858 197.491C254.257 197.65 254.611 197.904 254.89 198.23C255.319 198.925 255.525 199.735 255.48 200.55C255.491 201.162 255.368 201.77 255.12 202.33C255.024 202.586 254.874 202.818 254.681 203.011C254.488 203.204 254.256 203.354 254 203.45C253.54 203.667 253.046 203.802 252.54 203.85H252.55ZM250.92 202.85H252.55C252.95 202.788 253.34 202.674 253.71 202.51C253.837 202.453 253.95 202.37 254.043 202.267C254.136 202.164 254.207 202.042 254.25 201.91C254.439 201.482 254.531 201.018 254.52 200.55C254.56 199.942 254.417 199.336 254.11 198.81C253.919 198.622 253.687 198.48 253.432 198.395C253.177 198.31 252.906 198.284 252.64 198.32H250.88L250.92 202.85Z" fill="black"/>
<path d="M262.96 192.33H269.59L272.15 208.88L274.69 192.33H281.32V219.53H277.19V198.78L274 219.53H270.27L267.09 198.78V219.53H262.96V192.33Z" fill="white"/>
<path d="M281.82 220.03H276.69V205.34L274.43 220.03H269.88L267.63 205.35V220.03H262.5V191.83H270.06L272.19 205.59L274.3 191.83H281.86L281.82 220.03ZM277.69 219.03H280.82V192.83H275.12L272.12 212.16L269.12 192.83H263.42V219.03H266.55V198.78L267.55 198.71L270.67 219.03H273.55L276.66 198.71L277.66 198.78L277.69 219.03Z" fill="black"/>
<path d="M90.94 68.46L72.88 37.16C71.6202 34.9773 69.545 33.3844 67.1107 32.7318C64.6765 32.0791 62.0827 32.4202 59.9 33.68C57.7173 34.9398 56.1244 37.0151 55.4718 39.4493C54.8191 41.8835 55.1602 44.4773 56.42 46.66L74.49 77.96H38.34C35.8204 77.96 33.4041 78.9609 31.6225 80.7425C29.8409 82.5241 28.84 84.9405 28.84 87.46C28.84 89.9796 29.8409 92.3959 31.6225 94.1775C33.4041 95.9591 35.8204 96.96 38.34 96.96H74.49L56.41 128.26C55.7841 129.342 55.3776 130.537 55.2138 131.776C55.05 133.015 55.132 134.274 55.4552 135.481C55.7784 136.689 56.3364 137.821 57.0974 138.812C57.8584 139.804 58.8073 140.635 59.89 141.26C61.3289 142.099 62.9646 142.54 64.63 142.54C66.3005 142.54 67.9417 142.1 69.3882 141.265C70.8347 140.429 72.0356 139.227 72.87 137.78L90.94 106.46L109.02 137.76C109.851 139.208 111.05 140.41 112.495 141.246C113.94 142.082 115.581 142.522 117.25 142.52C118.916 142.522 120.552 142.08 121.99 141.24C123.074 140.616 124.024 139.785 124.785 138.794C125.547 137.802 126.106 136.67 126.429 135.462C126.752 134.255 126.834 132.995 126.669 131.756C126.505 130.516 126.097 129.322 125.47 128.24L107.4 96.94H143.54C146.06 96.94 148.476 95.9391 150.258 94.1575C152.039 92.3759 153.04 89.9595 153.04 87.44C153.04 84.9204 152.039 82.5041 150.258 80.7225C148.476 78.9409 146.06 77.94 143.54 77.94H107.39L125.47 46.63C126.67 44.4523 126.968 41.891 126.3 39.496C125.633 37.1009 124.053 35.063 121.9 33.8196C119.747 32.5762 117.192 32.2264 114.784 32.8453C112.376 33.4643 110.307 35.0025 109.02 37.13L90.94 68.46Z" fill="#D63128"/>
<path d="M117.25 143.03C115.493 143.032 113.767 142.57 112.244 141.693C110.722 140.815 109.459 139.552 108.58 138.03L90.88 107.46C90.04 109.03 87.88 112.84 82.31 122.46L73.31 138.11C71.9839 140.407 69.7997 142.083 67.238 142.769C64.6763 143.455 61.9468 143.096 59.65 141.77C57.3533 140.444 55.6774 138.26 54.991 135.698C54.3046 133.136 54.664 130.407 55.99 128.11L73.62 97.46H38.34C35.6878 97.46 33.1443 96.4064 31.269 94.531C29.3936 92.6557 28.34 90.1121 28.34 87.46C28.34 84.8078 29.3936 82.2643 31.269 80.3889C33.1443 78.5136 35.6878 77.46 38.34 77.46H73.62L55.98 46.91C54.6748 44.6144 54.3306 41.8957 55.0225 39.3473C55.7144 36.7989 57.3862 34.6276 59.6731 33.3072C61.9599 31.9869 64.6762 31.6246 67.2292 32.2996C69.7821 32.9746 71.9645 34.6319 73.3 36.91L90.94 67.46L108.58 36.9C109.232 35.7535 110.104 34.7473 111.146 33.9393C112.189 33.1313 113.38 32.5374 114.653 32.1919C115.926 31.8463 117.254 31.756 118.562 31.9259C119.87 32.0959 121.131 32.5229 122.273 33.1823C123.415 33.8418 124.416 34.7206 125.217 35.7682C126.018 36.8158 126.604 38.0115 126.941 39.2865C127.278 40.5615 127.36 41.8906 127.181 43.1972C127.002 44.5039 126.567 45.7623 125.9 46.9L108.26 77.46H143.54C146.192 77.46 148.736 78.5136 150.611 80.3889C152.486 82.2643 153.54 84.8078 153.54 87.46C153.54 90.1121 152.486 92.6557 150.611 94.531C148.736 96.4064 146.192 97.46 143.54 97.46H108.26L125.88 128.02C126.757 129.539 127.219 131.263 127.22 133.017C127.22 134.772 126.759 136.496 125.883 138.016C125.006 139.535 123.745 140.798 122.226 141.676C120.708 142.555 118.985 143.018 117.23 143.02L117.25 143.03ZM90.94 105.46L109.45 137.52C110.643 139.587 112.609 141.096 114.915 141.714C117.221 142.332 119.678 142.008 121.745 140.815C123.812 139.621 125.321 137.656 125.939 135.35C126.557 133.044 126.233 130.587 125.04 128.52L106.53 96.52H143.53C145.917 96.52 148.206 95.5718 149.894 93.8839C151.582 92.1961 152.53 89.9069 152.53 87.52C152.53 85.133 151.582 82.8438 149.894 81.156C148.206 79.4682 145.917 78.52 143.53 78.52H106.53L125.04 46.46C126.233 44.3926 126.557 41.9359 125.939 39.6301C125.321 37.3243 123.812 35.3585 121.745 34.165C119.678 32.9715 117.221 32.6482 114.915 33.2661C112.609 33.8841 110.643 35.3926 109.45 37.46L91.37 68.77L90.94 68.52L90.51 68.77L72.43 37.46C71.8806 36.3618 71.1123 35.3876 70.1724 34.5974C69.2324 33.8072 68.1407 33.2177 66.9644 32.8652C65.7881 32.5127 64.5521 32.4046 63.3325 32.5477C62.1128 32.6908 60.9354 33.0819 59.8726 33.6971C58.8098 34.3122 57.8841 35.1383 57.1525 36.1245C56.4209 37.1108 55.8989 38.2364 55.6186 39.4319C55.3382 40.6275 55.3056 41.8677 55.5225 43.0764C55.7394 44.2851 56.2014 45.4366 56.88 46.46L75.01 77.88V78.46H38.34C35.953 78.46 33.6639 79.4082 31.976 81.096C30.2882 82.7839 29.34 85.073 29.34 87.46C29.34 89.8469 30.2882 92.1361 31.976 93.8239C33.6639 95.5118 35.953 96.46 38.34 96.46H75.34L56.84 128.46C56.248 129.484 55.8635 130.614 55.7084 131.786C55.5533 132.958 55.6308 134.149 55.9363 135.292C56.2418 136.434 56.7695 137.505 57.489 138.443C58.2086 139.381 59.106 140.169 60.13 140.76C62.1975 141.952 64.6536 142.273 66.9583 141.655C69.2629 141.036 71.2275 139.527 72.42 137.46C72.6 137.15 90.42 106.34 90.5 106.16L90.94 105.46Z" fill="black"/>
</svg>
