<svg width="300" height="246" viewBox="0 0 300 246" fill="none" xmlns="http://www.w3.org/2000/svg">
<path d="M288 0H12C8.8174 0 5.76515 1.26428 3.51471 3.51472C1.26427 5.76515 0 8.8174 0 12V234C0 237.183 1.26427 240.235 3.51471 242.485C5.76515 244.736 8.8174 246 12 246H288C291.183 246 294.235 244.736 296.485 242.485C298.736 240.235 300 237.183 300 234V12C300 10.4241 299.69 8.86371 299.087 7.4078C298.483 5.95189 297.6 4.62902 296.485 3.51472C295.371 2.40041 294.048 1.5165 292.592 0.913445C291.136 0.310388 289.576 0 288 0Z" fill="#61707E"/>
<path d="M166.28 12.3H15.01C14.2568 12.3 13.5344 12.5992 13.0018 13.1318C12.4692 13.6644 12.17 14.3868 12.17 15.14V159.78C12.1727 160.531 12.473 161.251 13.0053 161.782C13.5377 162.312 14.2585 162.61 15.01 162.61H166.28C167.032 162.61 167.752 162.312 168.285 161.782C168.817 161.251 169.117 160.531 169.12 159.78V15.14C169.12 14.767 169.047 14.3977 168.904 14.0532C168.761 13.7086 168.552 13.3955 168.288 13.1318C168.024 12.8681 167.711 12.6589 167.367 12.5162C167.022 12.3735 166.653 12.3 166.28 12.3Z" fill="#D3E2E2"/>
<path d="M181.02 12.3H285.02C285.395 12.2974 285.766 12.3689 286.113 12.5104C286.46 12.652 286.775 12.8607 287.041 13.1247C287.307 13.3887 287.518 13.7027 287.662 14.0485C287.806 14.3944 287.88 14.7654 287.88 15.14V162.63H181.02V12.3Z" fill="#F78C21"/>
<path d="M217.37 80.51H203.5V75.27H211.36C212.062 75.2601 212.749 75.0607 213.348 74.6929C213.946 74.325 214.434 73.8023 214.76 73.18H223.66C223.321 73.6711 223.058 74.2105 222.88 74.78C221.47 78.58 219.64 80.51 217.37 80.51ZM205.07 41.25V21.62H262.39V35.78C261.87 39.1133 260.473 40.9467 258.2 41.28H256.11V43.08H263.17V48.08H256.11V50.44H263.17V55.15H249.56C249.91 56.72 250.61 57.5 251.66 57.5H263.17V63H245.38C242.927 63 239.787 60.3833 235.96 55.15H231.24L228.63 58.29L227.32 59.6C225.22 62.21 223.32 63.44 221.56 63.26H203.76V57.78H215.76C216.63 57.95 217.5 57.08 218.38 55.16H203.76V50.41H210.88V48.05H203.81V43.34H210.88V41.25H205.07ZM204.81 64.78H214.5C214.824 65.4048 215.311 65.9302 215.91 66.3C216.508 66.6698 217.196 66.8702 217.9 66.88H224.7V72.37H211.35C209.263 72.55 207.347 70.72 205.6 66.88C205.25 66.02 204.98 65.33 204.81 64.78ZM252.18 29.21V27.11H215.02V29.21H252.18ZM215.02 33.92V36.01H252.18V33.92H215.02ZM221.02 41.25V43.34H245.88V41.25H221.02ZM245.88 50.41V48.05H221.04V50.41H245.88ZM228.63 74.78V61.4H238.57V74.78C238.57 78.78 236.57 80.78 232.57 80.78H224.72V75.28H227.88C228.37 75.27 228.63 75.1 228.63 74.78ZM241.98 66.66H250.09C250.96 66.84 251.74 66.32 252.44 65.09H262.13C261.925 65.5149 261.748 65.9524 261.6 66.4C259.68 70.5867 257.587 72.5867 255.32 72.4H241.98V66.64V66.66ZM242.5 73.99H251.4L252.18 74.78C253.098 75.1371 254.075 75.3136 255.06 75.3H262.65V81.06H250.09C247.3 81.2 244.76 78.84 242.5 73.96V73.99Z" fill="white"/>
<path d="M249.78 81.54C246.92 81.54 244.31 79.06 242.05 74.17L241.72 73.46H251.61L251.76 73.61C251.91 73.78 252.15 74.01 252.46 74.32C253.292 74.6289 254.173 74.7814 255.06 74.77H263.15V81.53H249.78V81.54ZM243.29 74.46C245.36 78.64 247.63 80.68 250.06 80.53H262.15V75.78H255.06C254.01 75.7911 252.968 75.601 251.99 75.22L251.83 75.11L251.19 74.47L243.29 74.46ZM232.55 81.27H224.2V74.78H227.88C227.976 74.7921 228.074 74.7921 228.17 74.78V60.9H239.11V74.78C239.07 79.01 236.82 81.27 232.55 81.27ZM225.2 80.27H232.55C236.27 80.27 238.07 78.46 238.07 74.75V61.9H229.13V74.78C229.13 75.02 229.03 75.78 227.84 75.78H225.2V80.27ZM217.37 81.01H203V74.78H211.36C211.982 74.7743 212.591 74.5978 213.12 74.2698C213.649 73.9418 214.078 73.4749 214.36 72.92H211.36C209.09 73.11 206.98 71.17 205.15 67.13C204.79 66.24 204.52 65.53 204.35 64.99L204.13 64.33H214.78L214.93 64.57C215.212 65.1249 215.641 65.5918 216.17 65.9198C216.699 66.2478 217.308 66.4243 217.93 66.43H225.23V72.92H224.48L224.1 73.49C223.793 73.9335 223.551 74.4184 223.38 74.93C221.88 78.96 219.88 81.01 217.37 81.01ZM204 80.01H217.37C219.37 80.01 221.09 78.18 222.37 74.58C222.475 74.2714 222.602 73.9707 222.75 73.68H215C214.62 74.3147 214.082 74.8405 213.439 75.2066C212.796 75.5727 212.07 75.7668 211.33 75.77H203.97L204 80.01ZM205.52 65.3C205.66 65.71 205.85 66.18 206.06 66.71C207.69 70.3 209.46 72.04 211.31 71.89H224.2V67.4H217.88C217.138 67.3955 216.409 67.2 215.765 66.8321C215.12 66.4643 214.581 65.9366 214.2 65.3H205.52ZM255.59 72.9H241.48V66.14H250.09C250.42 66.2 251.09 66.35 252.01 64.83L252.15 64.57H262.94L262.57 65.3C262.378 65.7016 262.215 66.1159 262.08 66.54C260.133 70.7867 257.97 72.9067 255.59 72.9ZM242.48 71.9H255.32C257.38 72.05 259.32 70.13 261.15 66.17C261.21 65.97 261.29 65.77 261.36 65.57H252.73C251.94 66.82 251.02 67.34 249.99 67.13H242.48V71.9ZM221.88 63.78H203.26V57.24H215.8C216.39 57.35 217 56.77 217.62 55.62H203.26V49.91H210.33V48.55H203.26V42.84H210.33V41.78H204.57V21.12H262.88V35.78C262.31 39.4 260.77 41.39 258.27 41.78H256.6V42.61H263.66V48.61H256.6V49.97H263.66V55.68H250.22C250.68 57.03 251.4 57.03 251.66 57.03H263.66V63.53H245.38C242.77 63.53 239.61 60.96 235.7 55.68H231.48L229.01 58.68L227.67 60.02C225.65 62.45 223.7 63.78 221.88 63.78ZM204.25 62.78H221.55C223.15 62.94 224.94 61.78 226.92 59.31L228.26 57.95L231 54.67H236.2L236.35 54.87C240.07 59.95 243.1 62.52 245.35 62.52H262.64V58.02H251.64C250.74 58.02 249.56 57.55 249.06 55.28L248.92 54.67H262.65V50.91H255.59V47.55H262.65V43.55H255.59V40.78H258.18C260.18 40.47 261.39 38.78 261.88 35.7V22.12H205.57V40.78H211.33V43.87H204.26V47.58H211.33V50.94H204.26V54.65H219.2L218.87 55.36C218.51 56.16 217.4 58.6 215.7 58.26H204.26L204.25 62.78ZM246.39 50.96H220.54V47.55H246.4L246.39 50.96ZM221.53 49.96H245.39V48.55H221.54L221.53 49.96ZM246.39 43.89H220.54V40.78H246.4L246.39 43.89ZM221.53 42.89H245.39V41.78H221.54L221.53 42.89ZM252.67 36.56H214.52V33.42H252.68L252.67 36.56ZM215.51 35.56H251.68V34.42H215.52L215.51 35.56ZM252.67 29.76H214.52V26.66H252.68L252.67 29.76ZM215.51 28.76H251.68V27.66H215.52L215.51 28.76Z" fill="black"/>
<path d="M287.88 175.01V230.85C287.88 231.603 287.581 232.326 287.048 232.858C286.516 233.391 285.793 233.69 285.04 233.69H104.37V175.01H287.88Z" fill="#F78C21"/>
<path d="M92.94 233.69H15.01C14.2568 233.69 13.5344 233.391 13.0018 232.858C12.4692 232.326 12.17 231.603 12.17 230.85V175.01H92.94V233.69Z" fill="#F78C21"/>
<path d="M204.81 100.84V94.3H264.48V100.84H239.62V103.46H264.48V126.78H255.88V109.48H239.62V126.23H230.46V109.48H213.46V126.78H204.82V103.46H230.47V100.84H204.81ZM255.59 135.65H206.38V128.85H264.22V147.69C264.57 152.58 262.22 154.84 257.16 154.5H206.16V147.69H254.84C255.36 147.69 255.63 147.34 255.63 146.69V145.38H205.07V138.57H255.59V135.65ZM215.02 126.78V122.06H218.42C218.633 122.09 218.85 122.07 219.055 122.002C219.259 121.933 219.444 121.819 219.596 121.666C219.749 121.514 219.863 121.329 219.932 121.125C220 120.92 220.02 120.703 219.99 120.49V120.23H227.88V122.33C227.88 125.47 226.397 126.953 223.43 126.78H215.02ZM215.54 113.69V111.86H223.66V112.86C223.48 113.39 224.35 113.65 226.27 113.65H228.63V118.1H219.73C216.943 118.113 215.547 116.637 215.54 113.67V113.69ZM254.01 126.78H246.42C242.76 126.95 241.01 125.78 241.19 123.11V119.97H249.3V120.78C249.13 121.78 249.74 122.35 251.14 122.35H254.01V126.78ZM241.19 118.14V113.69H244.33C245.2 113.69 245.64 113.17 245.64 112.12V111.6H253.49V114.74C253.66 117.18 252.01 118.32 248.49 118.14H241.19Z" fill="white"/>
<path d="M258.11 155.03H205.61V147.22H254.79C254.92 147.22 255.08 147.22 255.08 146.68V145.87H204.57V138.06H255.09V136.18H205.88V128.38H264.72V147.72C264.9 150.23 264.37 152.14 263.13 153.38C262.445 153.976 261.649 154.428 260.787 154.712C259.924 154.995 259.014 155.103 258.11 155.03ZM206.62 154.03H257.16C259.6 154.2 261.36 153.74 262.42 152.67C263.48 151.6 263.88 149.99 263.72 147.76V129.35H206.88V135.15H256.09V139.03H205.57V144.84H256.09V146.65C256.09 148.08 255.09 148.19 254.8 148.19H206.62V154.03ZM245.73 127.3C244.994 127.371 244.252 127.295 243.546 127.075C242.84 126.855 242.185 126.496 241.62 126.02C241.261 125.629 240.992 125.164 240.831 124.658C240.671 124.152 240.623 123.617 240.69 123.09V119.48H249.8V120.78C249.72 121.31 249.85 121.46 249.9 121.52C250.255 121.786 250.7 121.904 251.14 121.85H254.51V127.3H245.73ZM241.73 120.48V123.12C241.67 123.511 241.696 123.911 241.806 124.291C241.917 124.671 242.109 125.022 242.37 125.32C243.09 126.06 244.46 126.38 246.44 126.32H253.55V122.78H251.18C250.816 122.818 250.449 122.776 250.103 122.657C249.758 122.538 249.443 122.344 249.18 122.09C249.021 121.884 248.91 121.645 248.855 121.391C248.8 121.137 248.801 120.873 248.86 120.62V120.42L241.73 120.48ZM223.88 127.27H214.55V121.55H218.45C219.22 121.55 219.52 121.25 219.52 120.48V119.72H228.37V122.32C228.428 123.025 228.34 123.734 228.111 124.404C227.882 125.073 227.517 125.688 227.04 126.21C226.164 126.96 225.031 127.34 223.88 127.27ZM215.55 126.27H223.42C223.936 126.345 224.463 126.314 224.967 126.178C225.471 126.043 225.941 125.805 226.35 125.48C226.723 125.049 227.005 124.547 227.177 124.003C227.349 123.46 227.408 122.887 227.35 122.32V120.72H220.48C220.477 120.98 220.42 121.236 220.313 121.472C220.205 121.708 220.049 121.919 219.855 122.091C219.661 122.264 219.433 122.394 219.186 122.473C218.939 122.552 218.678 122.578 218.42 122.55H215.52L215.55 126.27ZM265.01 127.27H255.38V109.98H240.12V126.78H229.96V109.98H213.96V127.25H204.32V102.96H229.97V101.34H204.31V93.78H264.98V101.32H240.12V102.94H264.98L265.01 127.27ZM256.38 126.27H264.01V103.96H239.12V100.34H263.98V94.78H205.31V100.32H230.96V103.94H205.31V126.23H212.95V108.98H230.95V125.78H239.11V108.98H256.34L256.38 126.27ZM249.24 118.66H240.72V113.21H244.36C244.75 113.21 245.17 113.13 245.17 112.14V111.14H254.02V114.78C254.083 115.266 254.038 115.759 253.89 116.225C253.741 116.692 253.492 117.12 253.16 117.48C252.613 117.928 251.981 118.262 251.303 118.461C250.624 118.66 249.913 118.721 249.21 118.64L249.24 118.66ZM241.72 117.66H248.55C250.46 117.75 251.77 117.45 252.44 116.76C252.681 116.492 252.859 116.173 252.959 115.826C253.06 115.48 253.081 115.116 253.02 114.76V112.08H246.17C246.17 113.95 244.91 114.15 244.36 114.15H241.72V117.66ZM229.16 118.66H219.76C216.69 118.66 215.07 116.95 215.07 113.66V111.33H224.19V112.92C224.87 113.142 225.588 113.223 226.3 113.16H229.16V118.66ZM216.07 112.38V113.71C216.07 116.4 217.24 117.71 219.76 117.71H228.16V114.26H226.3C224.1 114.26 223.56 113.91 223.3 113.58C223.23 113.485 223.182 113.375 223.16 113.26C223.137 113.144 223.141 113.024 223.17 112.91V112.43L216.07 112.38Z" fill="black"/>
<path d="M31.63 188.3H39.16V183.89H45.22V188.3H46.69V193.44H45.22V195.09H46.32V200.41H45.22V225.41H38.98V200.41H38.24L37.51 220.06C37.51 222.5 36.34 223.73 34.02 223.73H31.45V219.32C31.94 219.45 32.18 219.2 32.18 218.59L32.92 195.09H38.98V193.62H31.63V188.3ZM47.42 208.67H73.31V215.47C73.43 218.137 72.3267 219.36 70 219.14L69.64 221.14H73.31V224.81H46.5V221.14H50.36L49.81 219.14H47.42V208.67ZM47.24 207.21V202.78H73.31V207.19L47.24 207.21ZM54.03 188.85H47.79V184.26H60.27L59.54 195.45C59.54 200.117 57.3967 202.2 53.11 201.7H47.97V197.11H52.19C52.81 197.23 53.19 196.86 53.3 196L53.48 195.45H50.54C48.7067 195.33 47.79 194.17 47.79 191.97V190.31H51.64C51.52 190.93 51.76 191.17 52.38 191.05H53.88L54.03 188.85ZM53.3 213.26V214.78H66.3C66.79 214.91 67.04 214.66 67.04 214.05V213.31L53.3 213.26ZM63.58 219.14H56.58V221.14H63.58V219.14ZM61.74 197.14L60.82 184.29H73.31V189.43H67.62L67.98 191.26H68.88C69.49 191.39 69.8 191.14 69.8 190.53H73.47L73.29 192.73C73.16 194.81 72.29 195.67 70.53 195.3H68.15L68.33 196.04C68.21 196.89 68.63 197.26 69.62 197.14H73.1V201.54H66.49C63.4167 201.773 61.8333 200.297 61.74 197.11V197.14Z" fill="white"/>
<path d="M45.72 225.88H38.48V207.55L38.01 220.08C38.01 222.79 36.63 224.23 34.01 224.23H30.94V218.68L31.56 218.84H31.66C31.66 218.84 31.66 218.74 31.66 218.58L32.41 194.58H38.46V194.11H31.11V187.78H38.64V183.37H45.7V187.78H47.17V193.92H45.7V194.57H46.8V200.89H45.7L45.72 225.88ZM39.48 224.88H44.72V199.88H45.82V195.56H44.72V192.91H46.19V188.78H44.72V184.37H39.66V188.78H32.13V193.1H39.48V195.57H33.4L32.68 218.57C32.6995 218.765 32.6725 218.962 32.6012 219.144C32.5299 219.327 32.4165 219.49 32.27 219.62C32.1738 219.692 32.0654 219.746 31.95 219.78V223.19H34.02C36.02 223.19 37.02 222.19 37.02 220.02L37.77 199.87H39.49L39.48 224.88ZM73.81 225.33H46V220.66H49.7L49.43 219.66H46.88V208.17H73.77V215.47C73.8608 216.078 73.8184 216.699 73.6457 217.29C73.4731 217.88 73.1743 218.426 72.77 218.89C72.4467 219.171 72.0706 219.385 71.6636 219.519C71.2567 219.653 70.8271 219.704 70.4 219.67L70.22 220.67H73.79L73.81 225.33ZM47 224.33H72.81V221.66H69.04L69.59 218.59L70.06 218.64C70.4154 218.714 70.7826 218.71 71.1364 218.629C71.4902 218.548 71.8223 218.391 72.11 218.17C72.4066 217.797 72.622 217.365 72.7426 216.904C72.8631 216.442 72.8861 215.961 72.81 215.49V209.17H47.88V218.64H50.15L50.97 221.64H46.97L47 224.33ZM64.08 221.66H56.08V218.66H64.08V221.66ZM57.08 220.66H63.08V219.66H57.08V220.66ZM52.8 215.26V212.78H67.57V214.02C67.5883 214.219 67.5598 214.419 67.4869 214.605C67.414 214.791 67.2986 214.957 67.15 215.09C66.9786 215.213 66.7703 215.273 66.56 215.26H52.8ZM53.78 214.26H66.53C66.53 214.26 66.53 214.16 66.53 214V213.78H53.8L53.78 214.26ZM73.78 207.74H46.74V202.33H73.81L73.78 207.74ZM47.71 206.74H72.78V203.33H47.74L47.71 206.74ZM54.24 202.3C53.8354 202.297 53.4314 202.271 53.03 202.22H47.44V196.63H52.16C52.44 196.63 52.5 196.63 52.52 196.63C52.54 196.63 52.7 196.46 52.77 195.99H50.51C49.01 195.9 47.26 195.13 47.26 191.99V189.78H52.26L52.14 190.38C52.14 190.46 52.14 190.51 52.14 190.55H53.42L53.52 189.35H47.32V183.78H73.84V189.92H68.26L68.42 190.75H68.88C69.0053 190.777 69.1348 190.777 69.26 190.75C69.2812 190.668 69.2812 190.582 69.26 190.5V190H73.97L73.75 192.74C73.7685 193.239 73.6789 193.736 73.4873 194.197C73.2957 194.657 73.0067 195.071 72.64 195.41C72.3215 195.626 71.9596 195.77 71.5797 195.833C71.1998 195.895 70.8108 195.873 70.44 195.77H68.75L68.8 195.98V196.08C68.779 196.157 68.7735 196.237 68.7838 196.316C68.7941 196.395 68.82 196.471 68.86 196.54C69.0685 196.64 69.3053 196.665 69.53 196.61H73.58V202.01H66.47C65.8066 202.115 65.1287 202.08 64.4796 201.907C63.8305 201.735 63.2244 201.43 62.7 201.01C62.1974 200.501 61.8049 199.893 61.5468 199.226C61.2888 198.558 61.1707 197.845 61.2 197.13L60.52 187.55L60 195.49C60 198.01 59.36 199.87 58.1 200.99C57.0265 201.877 55.6613 202.334 54.27 202.27L54.24 202.3ZM48.44 201.23H53.08C55.08 201.45 56.49 201.13 57.44 200.28C58.39 199.43 59.01 197.74 59.01 195.48L59.71 184.79H48.29V188.38H54.57L54.31 191.58H52.38C52.2066 191.627 52.024 191.63 51.8493 191.588C51.6745 191.546 51.5131 191.461 51.38 191.34C51.2508 191.2 51.1641 191.027 51.13 190.84H48.29V192C48.29 194.54 49.59 194.92 50.58 195H54.17L53.77 196.21C53.7561 196.452 53.6909 196.689 53.5789 196.905C53.4668 197.12 53.3104 197.309 53.12 197.46C52.9757 197.559 52.8122 197.628 52.64 197.66C52.4679 197.693 52.2907 197.69 52.12 197.65H48.49L48.44 201.23ZM61.36 184.78L62.24 197.11C62.2112 197.689 62.2991 198.268 62.4984 198.813C62.6976 199.357 63.0042 199.856 63.4 200.28C63.8339 200.607 64.33 200.842 64.8578 200.971C65.3856 201.1 65.9342 201.12 66.47 201.03H72.62V197.63H69.62C69.3646 197.686 69.0997 197.682 68.8462 197.618C68.5928 197.554 68.3578 197.431 68.16 197.26C68.017 197.098 67.9122 196.906 67.8533 196.699C67.7945 196.491 67.7831 196.273 67.82 196.06L67.51 194.79H70.64C70.8779 194.868 71.1301 194.894 71.3788 194.864C71.6275 194.835 71.8668 194.751 72.08 194.62C72.3261 194.363 72.5163 194.058 72.6385 193.724C72.7607 193.391 72.8123 193.035 72.79 192.68L72.93 191.01H70.23C70.1748 191.215 70.0557 191.397 69.89 191.53C69.734 191.649 69.552 191.729 69.3591 191.764C69.1661 191.798 68.9677 191.787 68.78 191.73H67.55L66.99 188.9H72.79V184.78H61.36Z" fill="black"/>
<path d="M108.79 210.53L113.59 210.03C113.63 211.059 113.847 212.074 114.23 213.03C114.388 213.498 114.686 213.907 115.082 214.202C115.479 214.496 115.956 214.663 116.45 214.68C116.778 214.695 117.104 214.624 117.397 214.475C117.69 214.326 117.939 214.104 118.12 213.83C118.522 213.242 118.725 212.542 118.7 211.83C118.712 211.157 118.516 210.498 118.14 209.94C117.451 209.175 116.555 208.626 115.56 208.36C113.681 207.774 112.029 206.621 110.83 205.06C109.827 203.498 109.331 201.665 109.41 199.81C109.396 198.443 109.641 197.086 110.13 195.81C110.564 194.641 111.328 193.623 112.33 192.88C113.516 192.109 114.917 191.734 116.33 191.81C117.22 191.752 118.112 191.896 118.938 192.232C119.764 192.568 120.503 193.087 121.1 193.75C122.2 195.037 122.867 197.093 123.1 199.92L118.34 200.38C118.304 199.438 118.033 198.52 117.55 197.71C117.359 197.445 117.106 197.231 116.813 197.086C116.52 196.941 116.197 196.871 115.87 196.88C115.615 196.862 115.36 196.909 115.129 197.017C114.898 197.126 114.698 197.292 114.55 197.5C114.241 197.942 114.083 198.471 114.1 199.01C114.098 199.429 114.227 199.838 114.47 200.18C114.922 200.674 115.51 201.022 116.16 201.18C117.863 201.71 119.465 202.521 120.9 203.58C121.843 204.382 122.56 205.416 122.98 206.58C123.425 207.866 123.645 209.219 123.63 210.58C123.649 212.231 123.354 213.87 122.76 215.41C122.287 216.736 121.444 217.899 120.33 218.76C119.177 219.554 117.799 219.954 116.4 219.9C113.633 219.9 111.713 219.01 110.64 217.23C109.489 215.18 108.854 212.88 108.79 210.53Z" fill="white"/>
<path d="M116.37 220.49C113.42 220.49 111.37 219.49 110.18 217.57C108.989 215.426 108.34 213.022 108.29 210.57V210.1L114.07 209.5V210.01C114.109 210.966 114.309 211.91 114.66 212.8C114.785 213.179 115.02 213.512 115.335 213.756C115.651 214 116.032 214.144 116.43 214.17C116.677 214.185 116.923 214.134 117.144 214.024C117.365 213.913 117.554 213.746 117.69 213.54C118.024 213.045 118.196 212.457 118.18 211.86C118.191 211.288 118.027 210.726 117.71 210.25C117.083 209.567 116.27 209.084 115.37 208.86C113.383 208.24 111.637 207.021 110.37 205.37C109.304 203.707 108.783 201.753 108.88 199.78C108.87 198.364 109.128 196.96 109.64 195.64C110.108 194.382 110.927 193.285 112 192.48C113.278 191.648 114.787 191.242 116.31 191.32C117.273 191.261 118.237 191.421 119.129 191.788C120.021 192.156 120.818 192.72 121.46 193.44C122.62 194.81 123.32 196.98 123.53 199.89V200.38L117.8 200.94L117.74 200.44C117.711 199.585 117.471 198.75 117.04 198.01C116.898 197.808 116.707 197.645 116.485 197.536C116.263 197.428 116.017 197.377 115.77 197.39C115.594 197.371 115.416 197.399 115.255 197.471C115.093 197.543 114.953 197.656 114.85 197.8C114.608 198.16 114.486 198.587 114.5 199.02C114.494 199.336 114.593 199.645 114.78 199.9C114.88 200.06 115.2 200.36 116.22 200.72C117.982 201.267 119.639 202.109 121.12 203.21C122.136 204.071 122.905 205.185 123.35 206.44C123.817 207.787 124.047 209.205 124.03 210.63C124.046 212.338 123.741 214.035 123.13 215.63C122.62 217.043 121.718 218.281 120.53 219.2C119.316 220.061 117.859 220.513 116.37 220.49ZM109.32 210.98C109.412 213.113 110.001 215.195 111.04 217.06C112.04 218.7 113.76 219.49 116.37 219.49C117.659 219.553 118.934 219.203 120.01 218.49C121.038 217.675 121.82 216.592 122.27 215.36C122.834 213.875 123.116 212.298 123.1 210.71C123.116 209.401 122.906 208.098 122.48 206.86C122.091 205.769 121.422 204.8 120.54 204.05C119.151 203.033 117.603 202.253 115.96 201.74C115.207 201.551 114.53 201.136 114.02 200.55C113.723 200.125 113.565 199.618 113.57 199.1C113.553 198.458 113.742 197.827 114.11 197.3C114.306 197.028 114.567 196.809 114.869 196.664C115.171 196.519 115.505 196.452 115.84 196.47C116.242 196.452 116.643 196.534 117.006 196.709C117.369 196.883 117.683 197.145 117.92 197.47C118.387 198.198 118.672 199.028 118.75 199.89L122.53 199.52C122.474 197.582 121.848 195.704 120.73 194.12C120.18 193.513 119.499 193.039 118.738 192.734C117.977 192.429 117.157 192.301 116.34 192.36C115.026 192.297 113.725 192.646 112.62 193.36C111.708 194.054 111.014 194.994 110.62 196.07C110.147 197.251 109.897 198.508 109.88 199.78C109.803 201.543 110.267 203.288 111.21 204.78C112.358 206.254 113.928 207.342 115.71 207.9C116.806 208.189 117.789 208.803 118.53 209.66C118.958 210.302 119.181 211.059 119.17 211.83C119.181 212.631 118.947 213.416 118.5 214.08C118.27 214.417 117.959 214.691 117.596 214.876C117.232 215.061 116.828 215.152 116.42 215.14C115.829 215.126 115.257 214.933 114.779 214.586C114.3 214.24 113.938 213.756 113.74 213.2C113.391 212.363 113.178 211.475 113.11 210.57L109.32 210.98Z" fill="black"/>
<path d="M130.88 192.33L137.02 207.33V192.33H141.78V219.53H137.02L130.88 204.59V219.53H126.14V192.33H130.88Z" fill="white"/>
<path d="M142.28 220.03H136.69L131.41 207.13V220.03H125.67V191.83H131.22L136.52 204.83V191.83H142.28V220.03ZM137.36 219.03H141.28V192.83H137.52V209.92L130.52 192.83H126.65V219.03H130.39V202.03L137.36 219.03Z" fill="black"/>
<path d="M144.5 205.94C144.5 201.5 145.24 198.043 146.72 195.57C147.331 194.452 148.23 193.518 149.325 192.866C150.419 192.213 151.668 191.866 152.942 191.859C154.216 191.853 155.469 192.189 156.569 192.831C157.67 193.473 158.578 194.398 159.2 195.51C160.667 197.943 161.403 201.347 161.41 205.72C161.473 208.362 161.136 210.999 160.41 213.54C159.912 215.338 158.954 216.975 157.63 218.29C156.398 219.429 154.768 220.04 153.09 219.99C151.441 220.054 149.822 219.533 148.52 218.52C147.137 217.271 146.124 215.666 145.59 213.88C144.784 211.313 144.416 208.629 144.5 205.94ZM149.5 205.94C149.374 207.957 149.688 209.977 150.42 211.86C150.602 212.378 150.94 212.826 151.388 213.143C151.836 213.461 152.371 213.631 152.92 213.631C153.469 213.631 154.004 213.461 154.452 213.143C154.9 212.826 155.238 212.378 155.42 211.86C156.02 210.68 156.31 208.57 156.31 205.53C156.429 203.614 156.111 201.695 155.38 199.92C155.178 199.412 154.832 198.973 154.384 198.659C153.936 198.345 153.407 198.168 152.86 198.15C152.321 198.18 151.802 198.366 151.367 198.685C150.932 199.005 150.6 199.444 150.41 199.95C149.681 201.872 149.384 203.93 149.54 205.98L149.5 205.94Z" fill="white"/>
<path d="M153.12 220.49C151.358 220.552 149.631 219.993 148.24 218.91C146.786 217.602 145.717 215.922 145.15 214.05C144.315 211.43 143.926 208.689 144 205.94C144 201.43 144.77 197.86 146.29 195.32C146.945 194.127 147.906 193.131 149.075 192.434C150.245 191.738 151.579 191.367 152.939 191.36C154.3 191.353 155.638 191.71 156.815 192.394C157.991 193.078 158.963 194.064 159.63 195.25C161.14 197.75 161.91 201.25 161.91 205.72C161.976 208.422 161.639 211.118 160.91 213.72C160.383 215.61 159.377 217.332 157.99 218.72C156.657 219.918 154.911 220.553 153.12 220.49ZM152.92 192.36C151.731 192.344 150.56 192.66 149.541 193.273C148.522 193.886 147.693 194.772 147.15 195.83C145.72 198.21 145 201.62 145 205.94C144.927 208.576 145.296 211.206 146.09 213.72C146.598 215.415 147.559 216.94 148.87 218.13C150.084 219.066 151.588 219.547 153.12 219.49C154.671 219.546 156.181 218.985 157.32 217.93C158.576 216.667 159.488 215.105 159.97 213.39C160.66 210.894 160.977 208.309 160.91 205.72C160.91 201.46 160.19 198.11 158.77 195.77C158.207 194.707 157.355 193.823 156.314 193.22C155.273 192.617 154.083 192.319 152.88 192.36H152.92ZM152.92 214.2C152.271 214.193 151.638 213.992 151.104 213.623C150.569 213.255 150.157 212.735 149.92 212.13C149.14 210.178 148.799 208.079 148.92 205.98C148.92 203.1 149.24 201.08 149.92 199.8C150.159 199.209 150.567 198.701 151.094 198.342C151.621 197.982 152.242 197.787 152.88 197.78C153.521 197.784 154.146 197.975 154.679 198.331C155.213 198.686 155.63 199.19 155.88 199.78C156.656 201.624 156.998 203.622 156.88 205.62C156.88 208.77 156.58 210.92 155.94 212.17C155.701 212.766 155.29 213.278 154.76 213.64C154.229 214.001 153.602 214.196 152.96 214.2H152.92ZM152.88 198.78C152.06 198.78 151.41 199.28 150.88 200.31C149.727 204.026 149.727 208.004 150.88 211.72C151.035 212.149 151.313 212.524 151.679 212.796C152.046 213.068 152.484 213.226 152.94 213.25C153.394 213.235 153.833 213.085 154.202 212.82C154.57 212.555 154.852 212.186 155.01 211.76C155.56 210.66 155.84 208.61 155.84 205.66C155.954 203.824 155.657 201.986 154.97 200.28C154.807 199.852 154.522 199.482 154.151 199.215C153.779 198.949 153.337 198.797 152.88 198.78Z" fill="black"/>
<path d="M162.05 192.33H166.88L168.61 207.55L171.13 192.33H175.88L178.41 207.53L180.14 192.33H184.88L181.28 219.53H176.33L173.47 202.4L170.62 219.53H165.62L162.05 192.33Z" fill="white"/>
<path d="M181.73 220.03H175.88L173.44 205.44L171.01 220.03H165.21L161.44 191.83H167.25L168.62 203.93L170.62 191.83H176.24L178.24 203.93L179.61 191.83H185.4L181.73 220.03ZM176.73 219.03H180.88L184.35 192.83H180.6L178.52 211.14L175.47 192.83H171.54L168.54 211.17L166.46 192.83H162.69L166.19 219.03H170.27L173.55 199.36L176.73 219.03Z" fill="black"/>
<path d="M193.26 210.53L198.06 210.03C198.093 211.059 198.307 212.074 198.69 213.03C198.849 213.5 199.148 213.91 199.546 214.204C199.945 214.499 200.424 214.665 200.92 214.68C201.247 214.694 201.571 214.623 201.862 214.474C202.153 214.325 202.4 214.103 202.58 213.83C202.955 213.258 203.155 212.589 203.155 211.905C203.155 211.221 202.955 210.552 202.58 209.98C201.891 209.215 200.995 208.666 200 208.4C198.12 207.816 196.467 206.663 195.27 205.1C194.263 203.515 193.777 201.655 193.88 199.78C193.865 198.412 194.113 197.054 194.61 195.78C195.043 194.613 195.804 193.596 196.8 192.85C197.988 192.082 199.387 191.707 200.8 191.78C201.696 191.729 202.592 191.883 203.42 192.229C204.249 192.576 204.987 193.106 205.58 193.78C206.667 195.067 207.317 197.123 207.53 199.95L202.78 200.41C202.742 199.467 202.467 198.549 201.98 197.74C201.794 197.472 201.544 197.255 201.252 197.11C200.96 196.965 200.636 196.896 200.31 196.91C200.054 196.893 199.798 196.94 199.565 197.049C199.333 197.157 199.131 197.323 198.98 197.53C198.675 197.973 198.52 198.502 198.54 199.04C198.535 199.458 198.661 199.867 198.9 200.21C199.352 200.704 199.94 201.052 200.59 201.21C202.295 201.736 203.897 202.547 205.33 203.61C206.276 204.408 206.994 205.444 207.41 206.61C207.86 207.895 208.079 209.249 208.06 210.61C208.076 212.259 207.785 213.898 207.2 215.44C206.727 216.766 205.884 217.929 204.77 218.79C203.617 219.584 202.239 219.984 200.84 219.93C198.06 219.93 196.137 219.04 195.07 217.26C193.929 215.197 193.307 212.887 193.26 210.53Z" fill="white"/>
<path d="M200.88 220.49C197.88 220.49 195.88 219.49 194.68 217.57C193.493 215.425 192.847 213.022 192.8 210.57V210.1L198.58 209.5V210.01C198.619 210.966 198.819 211.91 199.17 212.8C199.75 214.03 200.46 214.17 200.95 214.17C201.195 214.184 201.44 214.133 201.659 214.022C201.879 213.912 202.065 213.745 202.2 213.54C202.538 213.046 202.713 212.458 202.7 211.86C202.707 211.287 202.54 210.725 202.22 210.25C201.593 209.567 200.78 209.084 199.88 208.86C197.893 208.24 196.147 207.021 194.88 205.37C193.823 203.724 193.296 201.794 193.37 199.84C193.364 198.425 193.622 197.021 194.13 195.7C194.6 194.441 195.423 193.344 196.5 192.54C197.778 191.708 199.287 191.302 200.81 191.38C201.773 191.321 202.737 191.481 203.629 191.848C204.521 192.216 205.318 192.78 205.96 193.5C207.12 194.87 207.82 197.04 208.03 199.95V200.44L202.3 201L202.25 200.5C202.217 199.645 201.976 198.811 201.55 198.07C201.407 197.868 201.216 197.706 200.994 197.597C200.772 197.489 200.527 197.438 200.28 197.45C200.104 197.431 199.926 197.459 199.765 197.531C199.603 197.603 199.463 197.716 199.36 197.86C199.114 198.218 198.991 198.646 199.01 199.08C199.006 199.394 199.1 199.702 199.28 199.96C199.673 200.369 200.177 200.654 200.73 200.78C202.49 201.324 204.144 202.167 205.62 203.27C206.644 204.121 207.424 205.229 207.88 206.48C208.351 207.826 208.582 209.244 208.56 210.67C208.576 212.378 208.271 214.075 207.66 215.67C207.157 217.087 206.254 218.327 205.06 219.24C203.835 220.091 202.371 220.529 200.88 220.49ZM193.83 210.98C193.914 213.113 194.5 215.196 195.54 217.06C196.54 218.7 198.27 219.49 200.88 219.49C202.166 219.555 203.439 219.204 204.51 218.49C205.542 217.679 206.325 216.595 206.77 215.36C207.334 213.875 207.616 212.298 207.6 210.71C207.621 209.4 207.411 208.097 206.98 206.86C206.595 205.77 205.929 204.801 205.05 204.05C203.658 203.037 202.112 202.257 200.47 201.74C199.716 201.554 199.038 201.138 198.53 200.55C198.232 200.126 198.074 199.619 198.08 199.1C198.06 198.459 198.245 197.828 198.61 197.3C198.807 197.026 199.069 196.807 199.373 196.662C199.678 196.516 200.014 196.451 200.35 196.47C200.752 196.454 201.152 196.537 201.515 196.711C201.877 196.885 202.192 197.146 202.43 197.47C202.893 198.199 203.175 199.029 203.25 199.89L207.03 199.52C206.977 197.583 206.355 195.705 205.24 194.12C204.689 193.513 204.008 193.04 203.247 192.735C202.487 192.43 201.667 192.302 200.85 192.36C199.536 192.294 198.234 192.644 197.13 193.36C196.218 194.054 195.524 194.994 195.13 196.07C194.666 197.276 194.432 198.558 194.44 199.85C194.361 201.615 194.829 203.361 195.78 204.85C196.925 206.321 198.491 207.41 200.27 207.97C201.368 208.26 202.354 208.873 203.1 209.73C203.534 210.385 203.766 211.154 203.766 211.94C203.766 212.726 203.534 213.495 203.1 214.15C202.872 214.487 202.563 214.761 202.201 214.946C201.839 215.132 201.436 215.222 201.03 215.21C200.44 215.196 199.867 215.003 199.389 214.656C198.91 214.31 198.548 213.826 198.35 213.27C197.997 212.433 197.781 211.545 197.71 210.64L193.83 210.98Z" fill="black"/>
<path d="M209.46 192.33H224.79V199.04H219.64V219.53H214.64V199.04H209.5V192.33H209.46Z" fill="white"/>
<path d="M220.14 220.03H214.14V199.54H209V191.83H225.33V199.54H220.18L220.14 220.03ZM215.14 219.03H219.14V198.54H224.29V192.83H209.96V198.54H215.1L215.14 219.03Z" fill="black"/>
<path d="M225.65 205.94C225.65 201.5 226.393 198.043 227.88 195.57C228.491 194.452 229.39 193.518 230.485 192.866C231.579 192.213 232.828 191.866 234.102 191.859C235.376 191.853 236.629 192.189 237.729 192.831C238.83 193.473 239.738 194.398 240.36 195.51C241.833 197.943 242.567 201.347 242.56 205.72C242.618 208.362 242.28 210.998 241.56 213.54C241.062 215.338 240.104 216.975 238.78 218.29C237.546 219.427 235.917 220.037 234.24 219.99C232.591 220.054 230.972 219.533 229.67 218.52C228.287 217.271 227.274 215.666 226.74 213.88C225.934 211.313 225.566 208.629 225.65 205.94ZM230.7 205.94C230.569 207.957 230.883 209.978 231.62 211.86C231.802 212.378 232.14 212.826 232.588 213.143C233.036 213.461 233.571 213.631 234.12 213.631C234.669 213.631 235.204 213.461 235.652 213.143C236.1 212.826 236.438 212.378 236.62 211.86C237.22 210.68 237.51 208.57 237.51 205.53C237.629 203.614 237.311 201.695 236.58 199.92C236.378 199.412 236.032 198.973 235.584 198.659C235.136 198.345 234.607 198.168 234.06 198.15C233.521 198.178 233.001 198.364 232.566 198.684C232.131 199.004 231.798 199.444 231.61 199.95C230.863 201.868 230.553 203.927 230.7 205.98V205.94Z" fill="white"/>
<path d="M234.28 220.49C232.518 220.552 230.791 219.993 229.4 218.91C227.942 217.606 226.872 215.924 226.31 214.05C225.47 211.431 225.078 208.689 225.15 205.94C225.15 201.43 225.93 197.86 227.45 195.32C228.105 194.127 229.066 193.131 230.235 192.434C231.404 191.738 232.739 191.367 234.099 191.36C235.46 191.353 236.798 191.71 237.974 192.394C239.151 193.078 240.123 194.064 240.79 195.25C242.3 197.75 243.06 201.25 243.06 205.72C243.125 208.422 242.788 211.118 242.06 213.72C241.533 215.61 240.527 217.332 239.14 218.72C237.809 219.914 236.068 220.548 234.28 220.49ZM234.08 192.36C232.891 192.344 231.72 192.66 230.701 193.273C229.682 193.886 228.853 194.772 228.31 195.83C226.88 198.21 226.15 201.62 226.15 205.94C226.079 208.577 226.451 211.206 227.25 213.72C227.757 215.416 228.718 216.941 230.03 218.13C231.244 219.066 232.748 219.547 234.28 219.49C235.831 219.546 237.341 218.985 238.48 217.93C239.736 216.669 240.646 215.105 241.12 213.39C241.814 210.894 242.13 208.309 242.06 205.72C242.06 201.46 241.35 198.11 239.93 195.77C239.369 194.714 238.524 193.835 237.49 193.233C236.457 192.63 235.276 192.328 234.08 192.36ZM234.08 214.2C233.441 214.181 232.822 213.975 232.299 213.607C231.776 213.239 231.373 212.725 231.14 212.13C230.36 210.178 230.019 208.079 230.14 205.98C230.14 203.1 230.46 201.08 231.14 199.8C231.365 199.209 231.76 198.698 232.273 198.33C232.787 197.962 233.398 197.753 234.03 197.73C234.67 197.735 235.295 197.927 235.828 198.282C236.361 198.638 236.779 199.141 237.03 199.73C237.806 201.574 238.148 203.572 238.03 205.57C238.03 208.72 237.72 210.86 237.09 212.12C236.858 212.725 236.45 213.246 235.919 213.617C235.388 213.988 234.758 214.191 234.11 214.2H234.08ZM234.08 198.73C233.26 198.73 232.61 199.23 232.08 200.26C230.927 203.976 230.927 207.954 232.08 211.67C232.221 212.107 232.497 212.487 232.868 212.758C233.239 213.028 233.686 213.173 234.145 213.173C234.604 213.173 235.051 213.028 235.422 212.758C235.793 212.487 236.069 212.107 236.21 211.67C236.76 210.57 237.04 208.52 237.04 205.57C237.154 203.734 236.857 201.896 236.17 200.19C235.993 199.778 235.701 199.425 235.328 199.175C234.955 198.925 234.519 198.788 234.07 198.78L234.08 198.73Z" fill="black"/>
<path d="M245.35 219.53V192.33H253.75C254.979 192.264 256.206 192.49 257.33 192.99C258.26 193.564 258.966 194.439 259.33 195.47C259.869 196.876 260.127 198.374 260.09 199.88C260.115 201.203 259.919 202.521 259.51 203.78C259.184 204.779 258.637 205.691 257.91 206.45C257.403 206.929 256.8 207.294 256.14 207.52C256.634 207.776 257.08 208.114 257.46 208.52C257.772 208.973 258.04 209.456 258.26 209.96C258.534 210.503 258.771 211.065 258.97 211.64L261.41 219.53H255.71L253.02 211.21C252.83 210.468 252.519 209.762 252.1 209.12C251.956 208.929 251.77 208.773 251.557 208.664C251.344 208.555 251.109 208.496 250.87 208.49H250.42V219.49L245.35 219.53ZM250.41 203.35H252.54C253.001 203.288 253.452 203.163 253.88 202.98C254.066 202.899 254.234 202.781 254.373 202.633C254.512 202.485 254.62 202.311 254.69 202.12C254.915 201.624 255.024 201.084 255.01 200.54C255.048 199.838 254.874 199.141 254.51 198.54C254.277 198.28 253.984 198.08 253.656 197.959C253.329 197.837 252.977 197.796 252.63 197.84H250.41V203.37V203.35Z" fill="white"/>
<path d="M262.08 220.03H255.34L252.53 211.37C252.364 210.683 252.087 210.028 251.71 209.43C251.615 209.305 251.494 209.201 251.356 209.126C251.219 209.05 251.067 209.004 250.91 208.99V219.99H244.88V191.79H253.78C255.09 191.714 256.398 191.961 257.59 192.51C258.623 193.137 259.407 194.101 259.81 195.24C260.378 196.706 260.649 198.269 260.61 199.84C260.635 201.221 260.429 202.597 260 203.91C259.646 204.974 259.062 205.947 258.29 206.76C257.968 207.076 257.6 207.342 257.2 207.55C257.443 207.731 257.664 207.939 257.86 208.17C258.208 208.645 258.5 209.158 258.73 209.7C259.019 210.268 259.266 210.856 259.47 211.46L262.08 220.03ZM256.08 219.03H260.73L258.48 211.78C258.292 211.225 258.065 210.683 257.8 210.16C257.606 209.693 257.357 209.25 257.06 208.84C256.728 208.474 256.332 208.172 255.89 207.95L254.95 207.43L255.95 207.04C256.545 206.824 257.088 206.483 257.54 206.04C258.212 205.339 258.715 204.495 259.01 203.57C259.816 200.955 259.76 198.15 258.85 195.57C258.526 194.65 257.903 193.864 257.08 193.34C256.029 192.881 254.885 192.676 253.74 192.74H245.88V218.94H249.88V207.94H250.88C251.191 207.945 251.497 208.02 251.775 208.158C252.054 208.296 252.298 208.495 252.49 208.74C252.949 209.435 253.287 210.202 253.49 211.01L256.08 219.03ZM252.55 203.85H249.88V197.32H252.6C253.027 197.274 253.459 197.333 253.858 197.491C254.257 197.65 254.611 197.904 254.89 198.23C255.317 198.922 255.523 199.728 255.48 200.54C255.491 201.156 255.369 201.767 255.12 202.33C255.019 202.583 254.868 202.813 254.676 203.006C254.483 203.198 254.253 203.349 254 203.45C253.538 203.661 253.045 203.796 252.54 203.85H252.55ZM250.92 202.85H252.55C252.95 202.788 253.34 202.674 253.71 202.51C253.837 202.453 253.95 202.37 254.043 202.267C254.136 202.164 254.207 202.042 254.25 201.91C254.438 201.478 254.53 201.011 254.52 200.54C254.561 199.935 254.418 199.332 254.11 198.81C253.92 198.62 253.688 198.476 253.433 198.391C253.178 198.306 252.906 198.282 252.64 198.32H250.88L250.92 202.85Z" fill="black"/>
<path d="M262.96 192.33H269.59L272.15 208.88L274.69 192.33H281.32V219.53H277.19V198.78L274 219.53H270.27L267.09 198.78V219.53H262.96V192.33Z" fill="white"/>
<path d="M281.82 220.03H276.69V205.34L274.43 220.03H269.88L267.63 205.35V220.03H262.5V191.83H270.06L272.19 205.59L274.3 191.83H281.86L281.82 220.03ZM277.69 219.03H280.82V192.83H275.12L272.12 212.16L269.12 192.83H263.42V219.03H266.55V198.78L267.55 198.71L270.67 219.03H273.55L276.66 198.71L277.66 198.78L277.69 219.03Z" fill="black"/>
<path d="M90.94 68.46L72.88 37.16C71.6202 34.9773 69.545 33.3844 67.1107 32.7317C64.6765 32.0791 62.0827 32.4202 59.9 33.68C57.7173 34.9398 56.1244 37.015 55.4718 39.4493C54.8191 41.8835 55.1602 44.4773 56.42 46.66L74.49 77.96H38.34C35.8204 77.96 33.4041 78.9609 31.6225 80.7425C29.8409 82.5241 28.84 84.9404 28.84 87.46C28.84 89.9795 29.8409 92.3959 31.6225 94.1775C33.4041 95.9591 35.8204 96.96 38.34 96.96H74.49L56.41 128.26C55.1476 130.444 54.8045 133.04 55.4561 135.477C56.1078 137.914 57.701 139.993 59.885 141.255C62.0691 142.517 64.6652 142.861 67.1022 142.209C69.5392 141.557 71.6176 139.964 72.88 137.78L90.95 106.48L109.02 137.78C109.63 138.887 110.454 139.861 111.445 140.645C112.436 141.43 113.573 142.008 114.791 142.348C116.008 142.687 117.281 142.78 118.535 142.621C119.788 142.462 120.998 142.055 122.092 141.423C123.186 140.791 124.144 139.947 124.908 138.94C125.672 137.934 126.227 136.785 126.542 135.561C126.857 134.337 126.924 133.063 126.74 131.813C126.556 130.562 126.124 129.361 125.47 128.28L107.4 96.98H143.54C146.06 96.98 148.476 95.9791 150.258 94.1975C152.039 92.4159 153.04 89.9995 153.04 87.48C153.04 84.9604 152.039 82.5441 150.258 80.7625C148.476 78.9809 146.06 77.98 143.54 77.98H107.39L125.47 46.67C126.124 45.5887 126.556 44.3877 126.74 43.1375C126.924 41.8872 126.857 40.6128 126.542 39.3889C126.227 38.1649 125.672 37.0161 124.908 36.0095C124.144 35.003 123.186 34.159 122.092 33.527C120.998 32.895 119.788 32.4877 118.535 32.329C117.281 32.1702 116.008 32.2632 114.791 32.6024C113.573 32.9417 112.436 33.5204 111.445 34.3047C110.454 35.089 109.63 36.0631 109.02 37.17L90.94 68.48" fill="#F78C21"/>
<path d="M117.25 143.02C115.493 143.022 113.767 142.56 112.244 141.683C110.722 140.805 109.459 139.542 108.58 138.02L90.88 107.41C90.04 108.98 87.88 112.79 82.31 122.41L73.31 138.06C72.6582 139.206 71.786 140.213 70.7437 141.021C69.7015 141.829 68.5097 142.423 67.2369 142.768C65.9642 143.114 64.6357 143.204 63.3279 143.034C62.0201 142.864 60.7588 142.437 59.6167 141.778C58.4746 141.118 57.4742 140.239 56.6732 139.192C55.8721 138.144 55.2861 136.948 54.949 135.673C54.6119 134.398 54.5304 133.069 54.709 131.763C54.8877 130.456 55.323 129.198 55.99 128.06L73.63 97.51H38.34C35.6878 97.51 33.1443 96.4564 31.269 94.5811C29.3936 92.7057 28.34 90.1622 28.34 87.51C28.34 84.8578 29.3936 82.3143 31.269 80.4389C33.1443 78.5636 35.6878 77.51 38.34 77.51H73.62L55.98 46.91C55.313 45.7723 54.8777 44.5139 54.699 43.2073C54.5204 41.9006 54.6019 40.5715 54.939 39.2965C55.2761 38.0215 55.8621 36.8258 56.6631 35.7782C57.4642 34.7306 58.4646 33.8518 59.6067 33.1924C60.7488 32.5329 62.0101 32.106 63.3179 31.936C64.6257 31.766 65.9542 31.8564 67.2269 32.2019C68.4997 32.5474 69.6915 33.1413 70.7337 33.9493C71.776 34.7573 72.6482 35.7635 73.3 36.91L90.94 67.47L108.58 36.91C109.232 35.7635 110.104 34.7573 111.146 33.9493C112.189 33.1413 113.38 32.5474 114.653 32.2019C115.926 31.8564 117.254 31.766 118.562 31.936C119.87 32.106 121.131 32.5329 122.273 33.1924C123.415 33.8518 124.416 34.7306 125.217 35.7782C126.018 36.8258 126.604 38.0215 126.941 39.2965C127.278 40.5715 127.36 41.9006 127.181 43.2073C127.002 44.5139 126.567 45.7723 125.9 46.91L108.26 77.47H143.54C146.192 77.47 148.736 78.5236 150.611 80.3989C152.486 82.2743 153.54 84.8178 153.54 87.47C153.54 90.1222 152.486 92.6657 150.611 94.5411C148.736 96.4164 146.192 97.47 143.54 97.47H108.26L125.88 128.02C126.757 129.539 127.219 131.263 127.22 133.017C127.22 134.772 126.759 136.496 125.883 138.016C125.006 139.535 123.745 140.798 122.226 141.676C120.708 142.555 118.985 143.018 117.23 143.02H117.25ZM90.94 105.46L109.45 137.52C110.643 139.587 112.609 141.096 114.915 141.714C117.221 142.332 119.678 142.008 121.745 140.815C123.812 139.622 125.321 137.656 125.939 135.35C126.557 133.044 126.233 130.587 125.04 128.52L106.53 96.47H143.53C145.917 96.47 148.206 95.5218 149.894 93.834C151.582 92.1461 152.53 89.8569 152.53 87.47C152.53 85.0831 151.582 82.7939 149.894 81.106C148.206 79.4182 145.917 78.47 143.53 78.47H106.53L125.04 46.41C126.232 44.3425 126.553 41.8864 125.935 39.5817C125.316 37.2771 123.807 35.3125 121.74 34.12C119.674 32.9275 117.219 32.6042 114.914 33.2211C112.609 33.838 110.644 35.3447 109.45 37.41L91.37 68.72L90.94 68.47L90.51 68.71L72.43 37.41C71.858 36.3511 71.0794 35.4177 70.1403 34.6651C69.2012 33.9124 68.1207 33.3557 66.9627 33.0279C65.8047 32.7001 64.5927 32.608 63.3984 32.7568C62.2042 32.9057 61.0519 33.2925 60.0098 33.8945C58.9676 34.4965 58.0568 35.3014 57.3312 36.2616C56.6056 37.2218 56.08 38.3177 55.7854 39.4846C55.4908 40.6515 55.4332 41.8656 55.6161 43.0552C55.799 44.2447 56.2185 45.3855 56.85 46.41L74.98 77.83V78.46H38.34C35.953 78.46 33.6639 79.4082 31.976 81.096C30.2882 82.7839 29.34 85.0731 29.34 87.46C29.34 89.8469 30.2882 92.1361 31.976 93.824C33.6639 95.5118 35.953 96.46 38.34 96.46H75.34L56.88 128.52C56.2821 129.541 55.8944 130.671 55.7398 131.844C55.5853 133.017 55.6669 134.209 55.98 135.35C56.4421 137.067 57.4026 138.609 58.7403 139.781C60.0779 140.953 61.7327 141.702 63.4959 141.934C65.259 142.166 67.0514 141.871 68.6468 141.085C70.2422 140.3 71.5691 139.059 72.46 137.52C72.64 137.21 90.46 106.4 90.54 106.22L90.94 105.46Z" fill="black"/>
</svg>
