<svg width="300" height="246" viewBox="0 0 300 246" fill="none" xmlns="http://www.w3.org/2000/svg">
<path d="M288 0H12C8.8174 0 5.76521 1.26427 3.51477 3.51471C1.26433 5.76515 0 8.8174 0 12V234C0 237.183 1.26433 240.235 3.51477 242.485C5.76521 244.736 8.8174 246 12 246H288C291.183 246 294.235 244.736 296.485 242.485C298.736 240.235 300 237.183 300 234V12C300 8.8174 298.736 5.76515 296.485 3.51471C294.235 1.26427 291.183 0 288 0Z" fill="#61707E"/>
<path d="M166.28 12.3H15C14.2485 12.3026 13.5287 12.603 12.9983 13.1353C12.4678 13.6677 12.17 14.3885 12.17 15.14V159.8C12.17 160.551 12.4682 161.27 12.9989 161.801C13.5296 162.332 14.2494 162.63 15 162.63H166.28C167.031 162.63 167.75 162.332 168.281 161.801C168.812 161.27 169.11 160.551 169.11 159.8V15.14C169.11 14.3885 168.812 13.6677 168.282 13.1353C167.751 12.603 167.032 12.3026 166.28 12.3Z" fill="#D2E1E1"/>
<path d="M181.02 12.3H285.02C285.772 12.3026 286.491 12.603 287.022 13.1353C287.552 13.6677 287.85 14.3885 287.85 15.14V162.63H181.02V12.3Z" fill="#D52F27"/>
<path d="M217.37 80.53H203.5V75.29H211.35C212.053 75.2823 212.741 75.0838 213.339 74.7157C213.938 74.3476 214.426 73.8237 214.75 73.2H223.65C223.319 73.685 223.057 74.2133 222.87 74.77C221.49 78.61 219.657 80.53 217.37 80.53ZM205.07 41.27V21.62H262.39V35.75C261.863 39.0833 260.467 40.9167 258.2 41.25H256.1V43.08H263.17V48.08H256.1V50.44H263.17V55.15H249.56C249.91 56.72 250.56 57.51 251.65 57.51H263.17V63H245.37C242.93 63 239.79 60.3833 235.95 55.15H231.24L228.62 58.29L227.31 59.6C225.223 62.22 223.307 63.44 221.56 63.26H203.8V57.77H215.8C216.67 57.94 217.54 57.07 218.42 55.15H203.8V50.44H210.8V48.08H203.8V43.37H210.8V41.28L205.07 41.27ZM204.81 64.82H214.49C214.815 65.4442 215.302 65.9689 215.901 66.3386C216.499 66.7083 217.187 66.9092 217.89 66.92H224.7V72.41H211.35C209.26 72.59 207.35 70.76 205.59 66.92C205.243 66.04 204.98 65.3333 204.8 64.8L204.81 64.82ZM252.18 29.23V27.14H215.01V29.23H252.18ZM215.01 33.94V36.04H252.18V33.94H215.01ZM221.01 41.27V43.36H245.88V41.27H221.01ZM245.88 50.43V48.07H221.01V50.43H245.88ZM228.6 74.77V61.4H238.6V74.75C238.6 78.75 236.6 80.75 232.6 80.75H224.75V75.25H227.8C228.36 75.27 228.62 75.1 228.62 74.75L228.6 74.77ZM241.95 66.66H250.06C250.94 66.83 251.72 66.31 252.42 65.09H262.1C261.897 65.511 261.724 65.9454 261.58 66.39C259.66 70.5833 257.567 72.5833 255.3 72.39H241.95V66.64V66.66ZM242.48 73.98H251.37L252.16 74.77C253.078 75.127 254.056 75.3036 255.04 75.29H262.63V81.05H250.06C247.287 81.21 244.767 78.8467 242.5 73.96L242.48 73.98Z" fill="white"/>
<path d="M249.8 81.53C246.94 81.53 244.33 79.06 242.06 74.16L241.73 73.45H251.62L251.77 73.61L252.48 74.31C253.311 74.6198 254.193 74.7724 255.08 74.76H263.17V81.53H249.8ZM243.31 74.45C245.38 78.63 247.62 80.66 250.07 80.52H262.17V75.76H255.08C254.03 75.7721 252.988 75.582 252.01 75.2L251.85 75.1L251.2 74.45H243.31ZM232.57 81.26H224.22V74.76H227.8C227.893 74.7731 227.987 74.7731 228.08 74.76V60.9H239.08V74.75C239.07 79.02 236.8 81.27 232.55 81.27L232.57 81.26ZM225.22 80.26H232.57C236.28 80.26 238.09 78.45 238.09 74.74V61.9H229.09V74.75C229.09 74.99 229 75.75 227.81 75.75H225.17L225.22 80.26ZM217.39 81H203V74.76H211.35C211.973 74.7554 212.582 74.5794 213.111 74.2513C213.64 73.9231 214.069 73.4556 214.35 72.9H211.35C209.09 73.1 206.97 71.15 205.14 67.12C204.77 66.2 204.51 65.5 204.33 64.97L204.12 64.31H214.8L214.95 64.55C215.232 65.1049 215.661 65.5718 216.19 65.8998C216.719 66.2278 217.328 66.4043 217.95 66.41H225.26V72.9H224.51L224.13 73.47C223.82 73.9168 223.574 74.4049 223.4 74.92C221.86 78.96 219.86 81.01 217.37 81.01L217.39 81ZM204.02 80H217.39C219.39 80 221.1 78.17 222.39 74.57C222.491 74.2598 222.618 73.9587 222.77 73.67H215.01C214.631 74.3053 214.093 74.8317 213.45 75.1979C212.807 75.5641 212.08 75.7578 211.34 75.76H203.99L204.02 80ZM205.53 65.29C205.68 65.69 205.86 66.16 206.08 66.7C207.71 70.29 209.48 72.03 211.33 71.89H224.22V67.4H217.91C217.169 67.3948 216.443 67.1988 215.8 66.831C215.157 66.4631 214.62 65.9359 214.24 65.3L205.53 65.29ZM255.61 72.9H241.49V66.14H250.11C250.44 66.2 251.11 66.34 252.03 64.82L252.17 64.57H262.95L262.59 65.29C262.394 65.6898 262.23 66.1044 262.1 66.53C260.14 70.7833 257.97 72.91 255.59 72.91L255.61 72.9ZM242.49 71.9H255.34C257.43 72.06 259.34 70.12 261.17 66.17C261.228 65.966 261.298 65.7656 261.38 65.57H252.74C251.96 66.81 251.04 67.33 250.01 67.13H242.49V71.9ZM221.9 63.75H203.28V57.26H215.8C216.38 57.36 216.99 56.79 217.61 55.64H203.26V49.93H210.33V48.53H203.26V42.82H210.33V41.73H204.57V21.12H262.89V35.75C262.32 39.37 260.77 41.36 258.27 41.75H256.6V42.58H263.67V48.58H256.6V49.94H263.67V55.65H250.22C250.68 57.01 251.4 57.01 251.65 57.01H263.65V63.5H245.35C242.75 63.5 239.58 60.93 235.68 55.65H231.46L228.99 58.65L227.65 59.99C225.65 62.45 223.69 63.75 221.88 63.75H221.9ZM204.28 62.75H221.58C223.19 62.92 224.97 61.75 226.94 59.28L228.29 57.93L231.03 54.64H236.23L236.38 54.84C240.09 59.92 243.13 62.49 245.38 62.49H262.68V58H251.68C250.79 58 249.61 57.52 249.1 55.25L248.97 54.64H262.7V50.93H255.63V47.53H262.7V43.53H255.63V40.7H258.23C260.23 40.39 261.43 38.7 261.92 35.63V22.12H205.6V40.75H211.36V43.84H204.29V47.53H211.36V50.89H204.29V54.6H219.22L218.9 55.31C218.54 56.11 217.4 58.55 215.73 58.21H204.29L204.28 62.75ZM246.42 50.93H220.56V47.53H246.42V50.93ZM221.56 49.93H245.42V48.53H221.56V49.93ZM246.42 43.86H220.56V40.77H246.42V43.86ZM221.56 42.86H245.42V41.77H221.56V42.86ZM252.7 36.54H214.53V33.44H252.7V36.54ZM215.53 35.54H251.7V34.44H215.53V35.54ZM252.7 29.73H214.53V26.64H252.7V29.73ZM215.53 28.73H251.7V27.64H215.53V28.73Z" fill="black"/>
<path d="M287.8 175.01V230.86C287.8 231.611 287.502 232.33 286.971 232.861C286.44 233.392 285.721 233.69 284.97 233.69H104.36V175.01H287.8Z" fill="#D52F27"/>
<path d="M92.9401 233.69H15C14.6284 233.69 14.2605 233.617 13.9171 233.475C13.5738 233.332 13.2617 233.124 12.9989 232.861C12.7361 232.598 12.5277 232.286 12.3855 231.943C12.2433 231.6 12.17 231.232 12.17 230.86V175.01H92.9401V233.69Z" fill="#D52F27"/>
<path d="M228.36 102.16H204.02V94.53H263.43V102.12H238.57V105.78H262.12V147.43C262.473 151.43 260.473 153.263 256.12 152.93H244.61V145.34H250.89C251.58 145.34 251.89 144.9 251.89 144.03V113.41H238.54V152.93H228.33V113.41H214.98V152.93H205.04V105.82H228.33V102.16H228.36ZM219.99 144.53H216.06V137.53H217.37C218.24 137.7 218.68 137.09 218.68 135.7V132.03H226.8V138.03C227.327 143.077 225.057 145.243 219.99 144.53ZM216.32 116.79H224.7V120.53C224.52 121.917 224.853 122.527 225.7 122.36H227V129.16H221.25C217.263 129.827 215.62 127.89 216.32 123.35V116.79ZM243.8 129.62H239.88V122.53H241.19C241.88 122.71 242.32 122.1 242.5 120.7V117.03H250.61V122.79C251.13 128.23 248.86 130.513 243.8 129.64V129.62ZM240.4 131.97H248.51V135.64C248.34 137.03 248.69 137.56 249.51 137.21H250.51V144.27H245.27C241.323 144.983 239.7 142.983 240.4 138.27V131.97Z" fill="white"/>
<path d="M257.09 153.47C256.76 153.47 256.42 153.47 256.09 153.47H244.09V144.97C243.531 145.032 242.964 144.974 242.428 144.802C241.892 144.63 241.399 144.346 240.98 143.97C239.86 142.88 239.51 141.03 239.9 138.32V131.53H249.01V135.7C248.9 136.7 249.01 136.86 249.07 136.87C249.178 136.875 249.285 136.851 249.38 136.8H251.11V144.86H245.09H250.87C251.1 144.86 251.42 144.86 251.42 144.05V113.91H239.07V153.43H227.86V113.91H215.51V153.43H204.57V105.32H227.86V102.66H203.52V94.07H263.93V102.66H239.07V105.32H262.63V147.43C262.772 148.246 262.732 149.083 262.512 149.882C262.293 150.681 261.899 151.421 261.36 152.05C260.778 152.558 260.101 152.946 259.368 153.189C258.635 153.433 257.86 153.529 257.09 153.47ZM245.09 152.47H256.09C258.24 152.64 259.76 152.27 260.64 151.39C261.078 150.856 261.394 150.234 261.567 149.565C261.74 148.897 261.765 148.199 261.64 147.52V106.32H238.08V101.66H262.94V95.07H204.53V101.66H228.87V106.32H205.58V152.43H214.52V112.91H228.87V152.43H238.08V112.91H252.43V144.03C252.43 145.66 251.35 145.84 250.88 145.84H245.1L245.09 152.47ZM240.9 132.53V138.39C240.55 140.75 240.81 142.39 241.67 143.22C242.53 144.05 243.67 144.13 245.29 143.84H250.11V137.73H249.65C249.46 137.818 249.249 137.855 249.04 137.835C248.831 137.816 248.631 137.742 248.46 137.62C247.89 137.19 247.94 136.26 248.02 135.62V132.53H240.9ZM221.69 145.22C221.108 145.219 220.526 145.175 219.95 145.09H215.56V137.03H217.37C217.75 137.09 217.84 137.03 217.87 137.03C217.9 137.03 218.18 136.68 218.18 135.74V131.53H227.29V138.05C227.57 140.67 227.08 142.64 225.84 143.84C224.685 144.811 223.195 145.292 221.69 145.18V145.22ZM216.56 144.09H220.06C222.42 144.41 224.13 144.09 225.14 143.09C226.15 142.09 226.54 140.43 226.3 138.09V132.53H219.19V135.7C219.237 136.072 219.202 136.449 219.086 136.805C218.97 137.161 218.777 137.487 218.52 137.76C218.347 137.896 218.145 137.99 217.93 138.035C217.715 138.08 217.493 138.075 217.28 138.02H216.57L216.56 144.09ZM245.74 130.36C245.069 130.356 244.4 130.296 243.74 130.18H239.36V122.11H241.29C241.357 122.137 241.433 122.137 241.5 122.11C241.58 122.05 241.84 121.8 241.98 120.72V116.53H251.09V122.79C251.37 125.68 250.84 127.79 249.52 129.01C248.474 129.915 247.121 130.383 245.74 130.32V130.36ZM240.38 129.18H243.89C246.17 129.58 247.89 129.3 248.89 128.36C249.89 127.42 250.39 125.53 250.14 122.92V117.53H243.03V120.7C243.034 121.103 242.955 121.502 242.796 121.872C242.638 122.242 242.404 122.575 242.11 122.85C241.967 122.951 241.803 123.02 241.63 123.051C241.457 123.082 241.28 123.075 241.11 123.03H240.36L240.38 129.18ZM219.81 129.79C219.269 129.832 218.724 129.766 218.209 129.594C217.693 129.422 217.218 129.149 216.81 128.79C215.73 127.73 215.39 125.96 215.81 123.39V116.39H225.19V120.53C225.06 121.53 225.26 121.8 225.3 121.84C225.34 121.88 225.54 121.89 225.64 121.84H227.54V129.64H221.29C220.798 129.723 220.299 129.76 219.8 129.75L219.81 129.79ZM216.81 117.35V123.47C216.46 125.7 216.71 127.24 217.54 128.05C218.37 128.86 219.54 128.96 221.2 128.66H226.54V122.86H225.74C225.544 122.909 225.339 122.908 225.143 122.858C224.948 122.807 224.768 122.708 224.62 122.57C224.386 122.278 224.225 121.934 224.15 121.567C224.076 121.2 224.089 120.821 224.19 120.46V117.36L216.81 117.35Z" fill="black"/>
<path d="M32.7301 225.02V219.53H49.0701V225.04L32.7301 225.02ZM32.91 194.72L39.91 183.89H47.0701L38.9701 196.53H41.3601L43.9301 192.31H51.4601L40.62 209.56H49.0701V215.25H32.91V210.11L38.79 201.67H32.91V194.72ZM58.8 219.72V189.77H51.4601V183.89H74.41V189.77H65.9601V219.69H74.5901V225.53H51.27V219.65L58.8 219.72Z" fill="white"/>
<path d="M75.0901 226.07H50.8V219.19H58.3301V190.27H50.99V183.39H74.9401V190.27H66.49V219.19H75.12L75.0901 226.07ZM51.77 225.07H74.0901V220.19H65.4601V189.27H73.91V184.39H51.9601V189.27H59.3V220.19H51.8L51.77 225.07ZM49.5701 225.52H32.2301V219.01H49.5701V225.52ZM33.2301 224.52H48.5701V220.01H33.2301V224.52ZM49.5701 215.78H32.41V209.99L37.8301 202.2H32.41V194.58L32.49 194.45L39.62 183.39H47.9601L39.88 196.06H41.0801L43.65 191.84H52.3601L41.53 209.09H49.53L49.5701 215.78ZM33.41 214.78H48.5701V210.09H39.7201L50.55 192.84H44.2101L41.64 197.06H38.0601L46.14 184.39H40.14L33.39 194.87V201.2H39.8L33.4601 210.3L33.41 214.78Z" fill="black"/>
<path d="M109.34 219.53V189.46H118.63C120.004 189.378 121.376 189.632 122.63 190.2C123.661 190.831 124.442 191.799 124.84 192.94C125.436 194.492 125.718 196.148 125.67 197.81C125.703 199.276 125.487 200.737 125.03 202.13C124.674 203.231 124.073 204.237 123.27 205.07C122.698 205.607 122.015 206.013 121.27 206.26C121.815 206.542 122.306 206.917 122.72 207.37C123.069 207.866 123.367 208.395 123.61 208.95C123.916 209.553 124.177 210.178 124.39 210.82L127.09 219.53H120.8L117.8 210.34C117.594 209.518 117.256 208.734 116.8 208.02C116.64 207.81 116.434 207.638 116.199 207.516C115.964 207.395 115.705 207.328 115.44 207.32H114.94V219.53H109.34ZM114.94 201.65H117.29C117.8 201.583 118.298 201.445 118.77 201.24C118.983 201.147 119.173 201.01 119.328 200.837C119.483 200.665 119.6 200.461 119.67 200.24C119.919 199.694 120.042 199.1 120.03 198.5C120.078 197.714 119.882 196.932 119.47 196.26C119.21 195.975 118.885 195.757 118.523 195.623C118.162 195.489 117.773 195.443 117.39 195.49H114.94V201.65Z" fill="white"/>
<path d="M115.44 220.03H108.8V188.96H118.59C120.031 188.884 121.468 189.159 122.78 189.76C123.912 190.45 124.77 191.51 125.21 192.76C125.833 194.373 126.132 196.092 126.09 197.82C126.119 199.34 125.892 200.855 125.42 202.3C125.036 203.471 124.394 204.541 123.54 205.43C123.169 205.796 122.744 206.103 122.28 206.34C122.567 206.549 122.829 206.791 123.06 207.06C123.455 207.581 123.79 208.145 124.06 208.74C124.376 209.367 124.646 210.015 124.87 210.68L127.77 220.04H120.43L117.34 210.5C117.149 209.739 116.839 209.013 116.42 208.35C116.301 208.196 116.15 208.07 115.977 207.98C115.805 207.89 115.614 207.839 115.42 207.83L115.44 220.03ZM109.84 219.03H114.44V206.82H115.44C115.777 206.828 116.108 206.911 116.409 207.064C116.71 207.216 116.974 207.433 117.18 207.7C117.693 208.458 118.069 209.301 118.29 210.19L121.15 219.03H126.41L123.91 210.96C123.704 210.346 123.453 209.748 123.16 209.17C122.942 208.646 122.664 208.149 122.33 207.69C121.96 207.277 121.516 206.938 121.02 206.69L120.08 206.16L121.08 205.78C121.742 205.552 122.348 205.187 122.86 204.71C123.602 203.921 124.162 202.979 124.5 201.95C124.941 200.612 125.15 199.208 125.12 197.8C125.162 196.203 124.891 194.613 124.32 193.12C123.956 192.087 123.25 191.209 122.32 190.63C121.151 190.112 119.876 189.879 118.6 189.95H109.8L109.84 219.03ZM117.29 202.15H114.44V195.04H117.39C117.855 194.989 118.326 195.054 118.76 195.229C119.194 195.403 119.579 195.682 119.88 196.04C120.352 196.792 120.58 197.673 120.53 198.56C120.545 199.248 120.409 199.931 120.13 200.56C120.025 200.834 119.864 201.083 119.657 201.291C119.45 201.499 119.203 201.662 118.93 201.77C118.409 201.99 117.854 202.118 117.29 202.15ZM115.44 201.15H117.29C117.739 201.085 118.177 200.957 118.59 200.77C118.737 200.704 118.869 200.609 118.977 200.491C119.085 200.372 119.168 200.232 119.22 200.08C119.432 199.598 119.538 199.076 119.53 198.55C119.577 197.87 119.413 197.193 119.06 196.61C118.847 196.39 118.584 196.223 118.294 196.124C118.003 196.025 117.694 195.996 117.39 196.04H115.44V201.15Z" fill="black"/>
<path d="M139.96 214.53H133.63L132.75 219.53H127.06L133.84 189.46H139.92L146.7 219.53H140.86L139.96 214.53ZM138.81 208.02L136.81 197.22L134.81 208.02H138.81Z" fill="white"/>
<path d="M147.33 220.03H140.45L139.55 215.03H134.05L133.17 220.03H126.44L133.44 188.96H140.32L147.33 220.03ZM141.33 219.03H146.13L139.57 189.96H134.29L127.74 219.03H132.39L133.27 214.03H140.43L141.33 219.03ZM139.41 208.53H134.24L136.8 194.53L139.41 208.53ZM135.41 207.53H138.18L136.8 200.03L135.41 207.53Z" fill="black"/>
<path d="M148.69 189.46H154.28V219.53H148.69V189.46Z" fill="white"/>
<path d="M154.8 220.03H148.21V188.96H154.8V220.03ZM149.21 219.03H153.8V189.96H149.21V219.03Z" fill="black"/>
<path d="M158.32 189.46H163.52L170.31 206.1V189.46H175.57V219.53H170.31L163.56 203.02V219.53H158.32V189.46Z" fill="white"/>
<path d="M176.07 220.03H169.98L164.06 205.53V220.03H157.8V188.96H163.8L169.8 203.55V188.96H176.06L176.07 220.03ZM170.65 219.03H175.07V189.96H170.8V208.65L163.18 189.96H158.8V219.03H163.04V200.53L170.65 219.03Z" fill="black"/>
<path d="M186.7 209.58L192.01 209.03C192.054 210.155 192.291 211.265 192.71 212.31C192.884 212.829 193.213 213.282 193.653 213.607C194.093 213.933 194.623 214.115 195.17 214.13C195.531 214.146 195.89 214.069 196.212 213.906C196.534 213.743 196.809 213.5 197.01 213.2C197.425 212.569 197.646 211.83 197.646 211.075C197.646 210.32 197.425 209.581 197.01 208.95C196.25 208.102 195.26 207.494 194.16 207.2C192.081 206.553 190.254 205.278 188.93 203.55C187.821 201.824 187.269 199.8 187.35 197.75C187.341 196.252 187.615 194.766 188.16 193.37C188.637 192.079 189.478 190.954 190.58 190.13C191.897 189.274 193.452 188.861 195.02 188.95C196.003 188.888 196.987 189.048 197.899 189.418C198.812 189.789 199.629 190.36 200.29 191.09C201.5 192.52 202.22 194.8 202.45 197.91L197.2 198.43C197.162 197.372 196.86 196.341 196.32 195.43C196.11 195.135 195.831 194.896 195.506 194.736C195.181 194.575 194.822 194.498 194.46 194.51C194.178 194.494 193.897 194.549 193.642 194.669C193.387 194.79 193.166 194.972 193 195.2C192.661 195.69 192.49 196.275 192.51 196.87C192.503 197.332 192.643 197.783 192.91 198.16C193.41 198.707 194.061 199.093 194.78 199.27C196.663 199.852 198.435 200.748 200.02 201.92C201.067 202.812 201.86 203.964 202.32 205.26C202.817 206.69 203.061 208.196 203.04 209.71C203.046 211.534 202.706 213.342 202.04 215.04C201.519 216.504 200.589 217.788 199.36 218.74C198.084 219.618 196.558 220.06 195.01 220C191.95 220 189.82 219 188.64 217C187.406 214.719 186.74 212.173 186.7 209.58Z" fill="white"/>
<path d="M195.09 220.53C191.84 220.53 189.55 219.46 188.28 217.33C186.963 214.963 186.252 212.308 186.21 209.6V209.12L192.5 208.47V208.98C192.544 210.045 192.764 211.096 193.15 212.09C193.289 212.518 193.555 212.893 193.912 213.166C194.269 213.439 194.701 213.598 195.15 213.62C195.43 213.638 195.709 213.582 195.961 213.457C196.212 213.333 196.425 213.144 196.58 212.91C196.936 212.359 197.125 211.716 197.125 211.06C197.125 210.404 196.936 209.761 196.58 209.21C195.878 208.447 194.967 207.908 193.96 207.66C191.792 206.971 189.886 205.634 188.5 203.83C187.331 202.02 186.748 199.893 186.83 197.74C186.826 196.181 187.11 194.635 187.67 193.18C188.184 191.8 189.087 190.598 190.27 189.72C191.67 188.801 193.327 188.352 195 188.44C196.056 188.375 197.113 188.549 198.091 188.951C199.07 189.353 199.945 189.971 200.65 190.76C201.93 192.27 202.65 194.66 202.93 197.87V198.35L196.69 198.96V198.47C196.658 197.515 196.386 196.583 195.9 195.76C195.742 195.526 195.527 195.337 195.275 195.211C195.022 195.085 194.742 195.026 194.46 195.04C194.257 195.022 194.053 195.056 193.867 195.14C193.681 195.224 193.52 195.355 193.4 195.52C193.121 195.925 192.981 196.409 193 196.9C192.993 197.258 193.102 197.609 193.31 197.9C193.43 198.08 193.79 198.43 194.94 198.83C196.88 199.429 198.703 200.355 200.33 201.57C201.444 202.518 202.289 203.742 202.78 205.12C203.298 206.604 203.552 208.168 203.53 209.74C203.546 211.623 203.206 213.492 202.53 215.25C201.969 216.802 200.977 218.162 199.67 219.17C198.327 220.099 196.723 220.576 195.09 220.53ZM187.23 210.02C187.33 212.404 187.984 214.732 189.14 216.82C190.23 218.64 192.14 219.53 195.14 219.53C196.563 219.579 197.964 219.172 199.14 218.37C200.296 217.471 201.17 216.26 201.66 214.88C202.286 213.24 202.598 211.496 202.58 209.74C202.602 208.284 202.368 206.835 201.89 205.46C201.459 204.247 200.718 203.168 199.74 202.33C198.198 201.204 196.482 200.339 194.66 199.77C193.836 199.565 193.096 199.111 192.54 198.47C192.218 198.01 192.047 197.461 192.05 196.9C192.025 196.189 192.228 195.488 192.63 194.9C192.845 194.606 193.129 194.37 193.457 194.213C193.785 194.056 194.147 193.983 194.51 194C194.95 193.985 195.386 194.081 195.779 194.278C196.172 194.476 196.509 194.768 196.76 195.13C197.282 195.941 197.594 196.869 197.67 197.83L201.95 197.41C201.7 194.67 201.02 192.64 199.95 191.41C199.342 190.726 198.585 190.189 197.737 189.843C196.889 189.496 195.974 189.348 195.06 189.41C193.601 189.329 192.154 189.707 190.92 190.49C189.896 191.251 189.114 192.294 188.67 193.49C188.146 194.828 187.881 196.253 187.89 197.69C187.809 199.639 188.329 201.566 189.38 203.21C190.658 204.845 192.401 206.055 194.38 206.68C195.583 206.998 196.664 207.671 197.48 208.61C197.95 209.326 198.201 210.164 198.201 211.02C198.201 211.876 197.95 212.714 197.48 213.43C197.234 213.797 196.898 214.094 196.504 214.294C196.11 214.493 195.671 214.588 195.23 214.57C194.588 214.556 193.966 214.346 193.446 213.969C192.926 213.592 192.533 213.066 192.32 212.46C191.927 211.525 191.691 210.532 191.62 209.52L187.23 210.02Z" fill="black"/>
<path d="M204.61 189.46H221.55V196.89H215.86V219.53H210.29V196.89H204.61V189.46Z" fill="white"/>
<path d="M216.36 220.03H209.8V197.39H204.12V188.96H222.06V197.39H216.37L216.36 220.03ZM210.79 219.03H215.36V196.39H221.05V189.96H205.11V196.39H210.8L210.79 219.03Z" fill="black"/>
<path d="M222.51 204.53C222.51 199.617 223.33 195.793 224.97 193.06C225.645 191.825 226.639 190.793 227.848 190.072C229.057 189.351 230.437 188.967 231.844 188.96C233.252 188.953 234.636 189.323 235.852 190.031C237.068 190.74 238.072 191.762 238.76 192.99C240.387 195.657 241.2 199.42 241.2 204.28C241.28 207.197 240.922 210.109 240.14 212.92C239.585 214.907 238.524 216.716 237.06 218.17C235.707 219.433 233.91 220.109 232.06 220.05C230.256 220.109 228.487 219.536 227.06 218.43C225.526 217.051 224.402 215.276 223.81 213.3C222.892 210.469 222.452 207.505 222.51 204.53ZM228.08 204.53C228.08 207.557 228.413 209.737 229.08 211.07C229.292 211.638 229.667 212.131 230.158 212.487C230.649 212.842 231.234 213.045 231.84 213.07C232.446 213.064 233.036 212.874 233.532 212.526C234.029 212.178 234.408 211.688 234.62 211.12C235.287 209.787 235.62 207.453 235.62 204.12C235.757 202.001 235.415 199.879 234.62 197.91C234.395 197.349 234.011 196.866 233.516 196.519C233.02 196.173 232.434 195.979 231.83 195.96C231.232 195.986 230.655 196.19 230.174 196.547C229.693 196.903 229.329 197.395 229.13 197.96C228.43 199.293 228.08 201.483 228.08 204.53Z" fill="white"/>
<path d="M232.05 220.53C230.113 220.598 228.213 219.986 226.68 218.8C225.082 217.359 223.906 215.509 223.28 213.45C222.363 210.561 221.934 207.54 222.01 204.51C222.01 199.51 222.86 195.58 224.54 192.79C225.259 191.48 226.315 190.386 227.599 189.621C228.882 188.856 230.347 188.449 231.842 188.44C233.336 188.432 234.805 188.824 236.097 189.574C237.389 190.325 238.457 191.408 239.19 192.71C240.86 195.47 241.7 199.35 241.7 204.26C241.779 207.231 241.412 210.198 240.61 213.06C240.032 215.128 238.926 217.009 237.4 218.52C235.947 219.861 234.027 220.583 232.05 220.53ZM231.83 189.44C230.505 189.419 229.2 189.77 228.064 190.452C226.927 191.134 226.005 192.121 225.4 193.3C223.81 195.94 223.01 199.71 223.01 204.51C222.933 207.428 223.346 210.338 224.23 213.12C224.794 215.002 225.858 216.696 227.31 218.02C228.666 219.06 230.342 219.595 232.05 219.53C233.776 219.591 235.455 218.966 236.72 217.79C238.111 216.402 239.123 214.68 239.66 212.79C240.412 210.025 240.749 207.164 240.66 204.3C240.66 199.58 239.87 195.86 238.3 193.3C237.684 192.115 236.749 191.127 235.6 190.446C234.451 189.766 233.135 189.421 231.8 189.45L231.83 189.44ZM231.83 213.58C231.132 213.559 230.456 213.334 229.885 212.932C229.315 212.531 228.875 211.97 228.62 211.32C227.9 209.91 227.55 207.69 227.55 204.55C227.55 201.41 227.91 199.15 228.63 197.74C228.885 197.103 229.321 196.554 229.885 196.161C230.448 195.768 231.114 195.549 231.8 195.53C232.496 195.546 233.172 195.764 233.746 196.159C234.32 196.553 234.766 197.106 235.03 197.75C235.883 199.785 236.255 201.988 236.12 204.19C236.12 207.66 235.78 210.02 235.12 211.41C234.853 212.055 234.401 212.606 233.821 212.994C233.24 213.382 232.558 213.59 231.86 213.59L231.83 213.58ZM231.83 196.48C231.327 196.512 230.845 196.691 230.443 196.995C230.041 197.299 229.738 197.715 229.57 198.19C228.93 199.44 228.57 201.58 228.57 204.55C228.57 207.52 228.9 209.61 229.57 210.86C229.727 211.353 230.037 211.784 230.455 212.09C230.873 212.395 231.377 212.56 231.895 212.56C232.413 212.56 232.917 212.395 233.335 212.09C233.753 211.784 234.063 211.353 234.22 210.86C234.83 209.63 235.15 207.36 235.15 204.09C235.27 202.04 234.928 199.99 234.15 198.09C233.947 197.634 233.618 197.245 233.202 196.968C232.786 196.692 232.299 196.54 231.8 196.53L231.83 196.48Z" fill="black"/>
<path d="M244.28 219.53V189.46H253.57C254.944 189.38 256.316 189.634 257.57 190.2C258.596 190.834 259.372 191.801 259.77 192.94C260.37 194.492 260.655 196.147 260.61 197.81C260.638 199.276 260.422 200.735 259.97 202.13C259.606 203.227 259.006 204.231 258.21 205.07C257.635 205.604 256.953 206.009 256.21 206.26C256.757 206.539 257.248 206.915 257.66 207.37C258.009 207.866 258.307 208.395 258.55 208.95C258.856 209.553 259.117 210.178 259.33 210.82L262.03 219.53H255.73L252.73 210.34C252.528 209.516 252.19 208.732 251.73 208.02C251.57 207.81 251.364 207.638 251.129 207.516C250.894 207.395 250.634 207.328 250.37 207.32H249.88V219.53H244.28ZM249.88 201.65H252.23C252.737 201.582 253.231 201.444 253.7 201.24C253.913 201.146 254.104 201.008 254.261 200.836C254.417 200.664 254.537 200.461 254.61 200.24C254.852 199.692 254.971 199.098 254.96 198.5C255.008 197.714 254.812 196.932 254.4 196.26C254.142 195.975 253.819 195.757 253.459 195.623C253.099 195.489 252.712 195.443 252.33 195.49H249.88V201.65Z" fill="white"/>
<path d="M250.38 220.03H243.8V188.96H253.59C255.031 188.887 256.468 189.161 257.78 189.76C258.906 190.454 259.76 191.513 260.2 192.76C260.823 194.373 261.122 196.092 261.08 197.82C261.109 199.34 260.882 200.855 260.41 202.3C260.026 203.471 259.384 204.541 258.53 205.43C258.159 205.796 257.734 206.103 257.27 206.34C257.562 206.547 257.827 206.788 258.06 207.06C258.449 207.585 258.784 208.148 259.06 208.74C259.379 209.365 259.65 210.014 259.87 210.68L262.77 220.04H255.43L252.34 210.5C252.149 209.739 251.839 209.013 251.42 208.35C251.301 208.196 251.15 208.07 250.977 207.98C250.805 207.89 250.614 207.839 250.42 207.83L250.38 220.03ZM244.78 219.03H249.38V206.82H250.38C250.717 206.827 251.049 206.91 251.35 207.063C251.651 207.215 251.914 207.433 252.12 207.7C252.633 208.458 253.009 209.301 253.23 210.19L256.1 219.03H261.35L258.85 210.96C258.644 210.343 258.394 209.741 258.1 209.16C257.881 208.64 257.602 208.146 257.27 207.69C256.9 207.277 256.456 206.938 255.96 206.69L255.02 206.16L256.02 205.78C256.682 205.552 257.288 205.187 257.8 204.71C258.548 203.923 259.111 202.981 259.45 201.95C259.881 200.61 260.087 199.208 260.06 197.8C260.102 196.203 259.831 194.613 259.26 193.12C258.896 192.087 258.19 191.209 257.26 190.63C256.095 190.111 254.823 189.878 253.55 189.95H244.8L244.78 219.03ZM252.23 202.15H249.38V195.04H252.38C252.844 194.989 253.313 195.054 253.746 195.229C254.178 195.403 254.561 195.682 254.86 196.04C255.332 196.792 255.56 197.673 255.51 198.56C255.532 199.249 255.395 199.933 255.11 200.56C255.007 200.835 254.847 201.086 254.64 201.294C254.433 201.503 254.184 201.665 253.91 201.77C253.376 201.993 252.808 202.121 252.23 202.15ZM250.38 201.15H252.23C252.678 201.082 253.116 200.954 253.53 200.77C253.675 200.704 253.805 200.608 253.912 200.49C254.019 200.371 254.1 200.231 254.15 200.08C254.368 199.6 254.474 199.077 254.46 198.55C254.503 197.872 254.343 197.196 254 196.61C253.784 196.394 253.521 196.23 253.231 196.131C252.942 196.032 252.633 196.001 252.33 196.04H250.33L250.38 201.15Z" fill="black"/>
<path d="M271.07 189.46L273.9 207.76L276.71 189.46H284.03V219.53H279.47V196.6L275.95 219.53H271.8L268.29 196.6V219.53H263.72V189.46H271.07Z" fill="white"/>
<path d="M284.53 220.03H278.97V203.16L276.38 220.03H271.38L268.8 203.17V220.03H263.23V188.96H271.49L273.89 204.47L276.27 188.96H284.52L284.53 220.03ZM279.97 219.03H283.53V189.96H277.14L273.9 211.04L270.64 189.96H264.24V219.03H267.8V196.6L268.8 196.53L272.25 219.03H275.52L278.98 196.53L279.98 196.6L279.97 219.03Z" fill="black"/>
<path d="M79.56 51.58C80.38 37.33 85.04 24.45 105.04 24.18C125.04 23.91 129.43 41.44 129.71 51.58C135.225 52.0089 140.48 54.101 144.78 57.58C148.239 60.5826 150.64 64.6179 151.63 69.09C151.63 69.09 165.05 71.82 161.24 84.97C157.38 98.32 140.12 94.85 140.12 94.85C138.069 96.4947 135.6 97.5337 132.99 97.85C129.753 98.0702 126.503 97.6974 123.4 96.75C120.96 98.2287 118.268 99.2457 115.46 99.75C110.25 100.84 102.58 99.75 102.58 99.75C98.8692 102.973 94.0593 104.641 89.15 104.41C81.2 103.86 72.44 98.65 72.44 98.65C72.44 98.65 62.02 103.81 54.62 102.05C47.22 100.29 42.62 92.62 42.62 92.62C42.62 92.62 32.4801 100.56 23.9801 92.08C17.5401 85.64 18.7801 78.08 22.3401 72.9C25.9001 67.72 35.22 65.22 41.8 70.7C41.8 70.7 45.91 62.76 51.66 61.11C57.41 59.46 66.7301 60.29 66.7301 60.29C68.7016 58.3207 70.8065 56.4897 73.03 54.81C75.0792 53.4928 77.2696 52.4094 79.56 51.58Z" fill="#D63028"/>
<path d="M90.3401 105.01C89.9401 105.01 89.5301 105.01 89.1201 105.01C81.7701 104.5 73.8901 100.16 72.4101 99.32C70.7601 100.11 61.4101 104.32 54.5101 102.64C47.9601 101.09 43.5801 95.15 42.4301 93.44C40.6377 94.6564 38.6533 95.5624 36.5601 96.12C34.2721 96.7678 31.8503 96.7756 29.5582 96.1426C27.266 95.5097 25.1914 94.2601 23.5601 92.53C16.8701 85.85 18.3002 77.92 21.8602 72.71C22.9565 71.2323 24.3435 69.9945 25.936 69.0727C27.5284 68.1509 29.2926 67.5647 31.1201 67.35C32.9533 67.078 34.8225 67.1759 36.6172 67.6379C38.412 68.0999 40.0961 68.9167 41.5701 70.04C42.5701 68.19 46.3701 62.18 51.4501 60.73C56.7901 59.21 64.9601 59.73 66.4501 59.87C68.3925 57.9375 70.4675 56.1432 72.6601 54.5C74.6586 53.187 76.7988 52.1034 79.0401 51.27C79.8201 38.52 83.5701 24.01 105.04 23.72H105.49C122.95 23.72 129.69 37.72 130.19 51.15C135.659 51.6587 140.851 53.7899 145.1 57.27C148.579 60.264 151.028 64.2768 152.1 68.74C153.42 69.08 158.34 70.57 160.91 74.82C162.64 77.68 162.91 81.16 161.76 85.18C158.07 97.94 142.44 95.81 140.3 95.45C138.214 97.0806 135.727 98.1171 133.1 98.45C129.87 98.6876 126.623 98.3317 123.52 97.4C121.072 98.8476 118.393 99.8625 115.6 100.4C110.82 101.4 104.13 100.61 102.78 100.4C99.2949 103.335 94.8965 104.965 90.3401 105.01ZM72.4601 98.14L72.6901 98.28C72.7801 98.33 81.4501 103.43 89.1801 103.97C93.9312 104.176 98.5816 102.559 102.18 99.45L102.36 99.28H102.6C102.67 99.28 110.24 100.35 115.3 99.28C118.046 98.7774 120.679 97.7813 123.07 96.34L123.27 96.2L123.5 96.28C123.56 96.28 128.66 97.88 132.88 97.35C135.404 97.0704 137.8 96.094 139.8 94.53L139.98 94.37L140.23 94.42C140.4 94.42 157.08 97.64 160.77 84.89C161.86 81.15 161.61 77.94 160.03 75.33C157.32 70.86 151.6 69.65 151.54 69.64L151.2 69.57L151.14 69.23C150.16 64.8788 147.821 60.9525 144.46 58.02C140.245 54.6132 135.102 52.5539 129.7 52.11H129.23V51.65C128.54 26.37 110.54 24.65 105.07 24.73C84.2801 25.02 80.7901 39.27 80.0701 51.66V51.99L79.7601 52.1C77.4935 52.9336 75.3269 54.0169 73.3001 55.33C71.1023 56.9964 69.0177 58.8071 67.0601 60.75L66.9001 60.92H66.6701C66.5701 60.92 57.3701 60.12 51.7801 61.72C46.1901 63.32 42.2602 70.99 42.2201 71.06L41.9301 71.62L41.4601 71.22C40.0654 70.0553 38.4398 69.1992 36.6904 68.708C34.9409 68.2168 33.1073 68.1016 31.3101 68.37C29.6191 68.5663 27.986 69.1057 26.5107 69.9551C25.0354 70.8045 23.7489 71.9461 22.7302 73.31C21.1202 75.67 16.4501 83.99 24.3201 91.85C25.8152 93.4629 27.7285 94.6291 29.8472 95.2188C31.9659 95.8085 34.2068 95.7986 36.3201 95.19C38.4777 94.6252 40.512 93.6657 42.3201 92.36L42.7601 92.02L43.0501 92.5C43.0501 92.57 47.7001 100.01 54.8001 101.7C61.9001 103.39 72.1701 98.39 72.2701 98.33L72.4601 98.14Z" fill="black"/>
<path d="M77.64 110.53C78.46 110.53 90.64 131.63 90.64 136.84C90.64 142.05 86.64 150.84 77.64 150.84C68.64 150.84 64.49 142.75 64.49 136.79C64.49 130.83 77.64 110.53 77.64 110.53Z" fill="#D63028"/>
<path d="M77.64 151.26C68.23 151.26 63.99 142.76 63.99 136.71C63.99 130.66 76.6801 111.04 77.2201 110.21L77.37 109.98H77.64C78.77 109.98 84.27 120.27 84.89 121.45C87.23 125.84 91.14 133.68 91.14 136.79C91.14 141.84 87.18 151.26 77.64 151.26ZM77.74 111.26C75.74 114.44 64.99 131.49 64.99 136.71C64.99 142.34 68.92 150.26 77.64 150.26C86.36 150.26 90.14 141.49 90.14 136.79C90.14 132.09 79.95 114.11 77.74 111.26Z" fill="black"/>
<path d="M108.14 110.53C108.96 110.53 121.14 131.63 121.14 136.84C121.14 142.05 117.14 150.84 108.14 150.84C99.14 150.84 94.9801 142.75 94.9801 136.79C94.9801 130.83 108.14 110.53 108.14 110.53Z" fill="#D63028"/>
<path d="M108.14 151.26C98.72 151.26 94.4801 142.76 94.4801 136.71C94.4801 130.66 107.18 111.04 107.72 110.21L107.87 109.98H108.14C109.26 109.98 114.76 120.27 115.39 121.45C117.72 125.84 121.64 133.68 121.64 136.79C121.64 141.84 117.68 151.26 108.14 151.26ZM108.23 111.26C106.23 114.44 95.4801 131.49 95.4801 136.71C95.4801 142.34 99.41 150.26 108.14 150.26C116.87 150.26 120.64 141.49 120.64 136.79C120.64 132.09 110.45 114.11 108.23 111.26Z" fill="black"/>
<path d="M138.32 110.53C139.14 110.53 151.32 131.63 151.32 136.84C151.32 142.05 147.32 150.84 138.32 150.84C129.32 150.84 125.17 142.75 125.17 136.79C125.17 130.83 138.32 110.53 138.32 110.53Z" fill="#D63028"/>
<path d="M138.32 151.26C128.9 151.26 124.67 142.76 124.67 136.71C124.67 130.66 137.36 111.04 137.9 110.21L138.05 109.98H138.32C139.45 109.98 144.95 120.27 145.57 121.45C147.9 125.84 151.82 133.68 151.82 136.79C151.8 141.84 147.86 151.26 138.32 151.26ZM138.41 111.26C136.41 114.44 125.67 131.49 125.67 136.71C125.67 142.34 129.59 150.26 138.32 150.26C147.05 150.26 150.8 141.53 150.8 136.79C150.8 132.05 140.63 114.11 138.41 111.26Z" fill="black"/>
<path d="M47.3501 110.53C48.1701 110.53 60.3501 131.63 60.3501 136.84C60.3501 142.05 56.3501 150.84 47.3501 150.84C38.3501 150.84 34.1901 142.75 34.1901 136.79C34.1901 130.83 47.3501 110.53 47.3501 110.53Z" fill="#D63028"/>
<path d="M47.3501 151.26C37.9301 151.26 33.6901 142.76 33.6901 136.71C33.6901 130.66 46.3901 111.04 46.9301 110.21L47.0801 109.98H47.3501C48.4801 109.98 53.9701 120.27 54.6001 121.45C56.9301 125.84 60.8501 133.68 60.8501 136.79C60.8501 141.84 56.8901 151.26 47.3501 151.26ZM47.4401 111.26C45.4401 114.44 34.6901 131.49 34.6901 136.71C34.6901 142.34 38.6201 150.26 47.3501 150.26C56.0801 150.26 59.8501 141.49 59.8501 136.79C59.8501 132.09 49.6601 114.11 47.4401 111.26Z" fill="black"/>
</svg>
