<svg width="300" height="246" viewBox="0 0 300 246" fill="none" xmlns="http://www.w3.org/2000/svg">
<path d="M288 0H12C8.8174 0 5.76509 1.26421 3.51465 3.51465C1.26421 5.76509 0 8.8174 0 12V234C0 237.183 1.26421 240.235 3.51465 242.485C5.76509 244.736 8.8174 246 12 246H288C291.183 246 294.235 244.736 296.485 242.485C298.736 240.235 300 237.183 300 234V12C300 8.8174 298.736 5.76509 296.485 3.51465C294.235 1.26421 291.183 0 288 0Z" fill="#61707E"/>
<path d="M166.29 12.3099H15C14.2494 12.3099 13.5295 12.6081 12.9988 13.1388C12.4681 13.6695 12.1699 14.3895 12.1699 15.14V159.84C12.1699 160.591 12.4681 161.31 12.9988 161.841C13.5295 162.372 14.2494 162.67 15 162.67H166.27C167.021 162.67 167.742 162.372 168.275 161.842C168.807 161.311 169.107 160.591 169.11 159.84V15.14C169.11 14.3912 168.813 13.6728 168.285 13.1423C167.756 12.6119 167.039 12.3126 166.29 12.3099Z" fill="#D3E2E2"/>
<path d="M181 12.31H285C285.372 12.3086 285.742 12.3808 286.086 12.5225C286.431 12.6641 286.744 12.8724 287.008 13.1353C287.271 13.3982 287.481 13.7107 287.624 14.0547C287.766 14.3987 287.84 14.7675 287.84 15.14V162.63H181V12.31Z" fill="#F78C21"/>
<path d="M204 27.9V21.62H263.67V27.9H238.55V30.52H263.41V53.84H254.77V36.5399H238.28V53.84H229.12V36.5399H212.12V53.84H204V30.5499H228.86V27.9299L204 27.9ZM204 80.51V56.4299H263.41V73.7C263.437 78.24 261.357 80.51 257.17 80.51H204ZM213.13 62.71V65.84H229.13V62.7L213.13 62.71ZM228.83 71.61H213.39V74.49H228.83V71.61ZM214.44 54.0699V48.0699H216.79C218.36 48.2499 219.06 47.81 218.89 46.76H226.48V49.64C226.48 52.78 224.82 54.27 221.48 54.09L214.44 54.0699ZM214.7 40.73V38.37H222.29C221.94 39.37 222.64 39.8599 224.38 39.6799H227V44.9099H219.67C216.6 44.7399 214.94 43.34 214.77 40.73H214.7ZM238.25 65.85H254.74V62.71H238.25V65.85ZM238.51 71.61V74.49H254C254.107 74.5054 254.216 74.4955 254.318 74.4611C254.421 74.4266 254.513 74.3686 254.589 74.2917C254.665 74.2149 254.722 74.1213 254.755 74.0186C254.788 73.9158 254.797 73.8066 254.78 73.7V71.61H238.51ZM239.82 50.15V46.75H247.68C247.85 47.75 248.89 48.2299 250.82 48.0499H252.65V54.0499H245.58C241.44 54.2433 239.543 52.9434 239.89 50.15H239.82ZM239.82 45.15V39.65H243C244 39.83 244.75 39.3 245.1 38.08H252.16V41.48C251.99 43.93 250.5 45.15 247.72 45.15H239.82Z" fill="white"/>
<path d="M257.17 81.01H203.54V55.9299H264V73.7C264 78.4799 261.6 81.01 257.17 81.01ZM204.54 80.01H257.17C261.06 80.01 262.95 77.9399 262.95 73.7V56.9299H204.54V80.01ZM254.03 75.01H238.03V71.13H255.26V73.72C255.273 73.8893 255.25 74.0595 255.192 74.219C255.133 74.3785 255.041 74.5235 254.921 74.644C254.802 74.7646 254.658 74.8579 254.499 74.9176C254.34 74.9773 254.169 75.002 254 74.99L254.03 75.01ZM239.03 74.01H254.03C254.27 74.01 254.31 74.01 254.31 73.72V72.13H239.08L239.03 74.01ZM229.35 75.01H213V71.13H229.44L229.35 75.01ZM213.91 74.01H228.35V72.13H214L213.91 74.01ZM255.26 66.37H237.77V62.23H255.26V66.37ZM238.77 65.37H254.26V63.23H238.77V65.37ZM229.61 66.37H212.61V62.23H229.61V66.37ZM213.61 65.37H228.61V63.23H213.61V65.37ZM244.82 54.61C242.56 54.61 241.01 54.13 240.11 53.15C239.76 52.7418 239.506 52.2606 239.366 51.7416C239.226 51.2225 239.203 50.6788 239.3 50.15V46.2799H248.08L248.15 46.6899C248.27 47.4299 249.15 47.69 250.75 47.59H253.13V54.59H245.56C245.4 54.59 245.15 54.59 244.91 54.59L244.82 54.61ZM240.3 47.27V50.27C240.218 50.6623 240.224 51.068 240.319 51.4574C240.415 51.8468 240.596 52.21 240.85 52.52C241.62 53.36 243.19 53.73 245.54 53.63H252.13V48.63H250.8C248.49 48.85 247.59 48.12 247.28 47.33L240.3 47.27ZM221.99 54.61H214V47.61H216.85C217.95 47.73 218.28 47.5199 218.37 47.4299C218.422 47.3514 218.457 47.2623 218.47 47.1689C218.484 47.0756 218.477 46.9804 218.45 46.89L218.36 46.2999H227V49.6799C227.05 50.366 226.957 51.0549 226.728 51.7036C226.499 52.3523 226.139 52.9468 225.67 53.45C224.665 54.2778 223.379 54.6861 222.08 54.59L221.99 54.61ZM221.48 53.61C222.086 53.7 222.704 53.6666 223.297 53.512C223.89 53.3573 224.445 53.0845 224.93 52.71C225.289 52.3025 225.563 51.827 225.735 51.3116C225.907 50.7963 225.973 50.2515 225.93 49.71V47.33H219.36C219.332 47.6369 219.201 47.9257 218.99 48.15C218.67 48.3997 218.298 48.5734 217.901 48.6583C217.505 48.7432 217.094 48.737 216.7 48.64H215V53.64L221.48 53.61ZM263.86 54.35H254.22V37.0399H238.73V54.3099H228.57V37.0399H212.57V54.3099H203.46V30.02H228.32V28.4H203.46V21.12H264.13V28.4H239V30.02H264L263.86 54.35ZM255.22 53.35H263V31.0599H238.13V27.4399H263.26V22.1599H204.59V27.4399H229.45V31.0599H204.59V53.35H211.7V36.0399H229.7V53.3099H237.86V36.0399H255.35L255.22 53.35ZM247.66 45.71H239.3V39.22H243C243.65 39.32 244.26 39.22 244.62 38.01L244.72 37.65H252.66V41.5499C252.56 43.4299 251.59 45.6699 247.75 45.6699L247.66 45.71ZM240.3 44.71H247.66C250.19 44.71 251.45 43.71 251.61 41.52V38.65H245.41C245.268 39.1866 244.925 39.6479 244.452 39.9384C243.979 40.2288 243.413 40.326 242.87 40.21H240.31L240.3 44.71ZM227.48 45.45H219.65C215.36 45.22 214.31 42.7899 214.18 40.7999V37.84H222.96L222.74 38.5C222.74 38.63 222.64 38.86 222.74 38.97C222.84 39.08 223.06 39.28 224.33 39.15H227.5L227.48 45.45ZM215.18 40.75C215.34 43.09 216.81 44.3 219.68 44.46H226.48V40.23H224.36C223.13 40.36 222.36 40.2299 221.94 39.6699C221.771 39.4563 221.68 39.192 221.68 38.9199H215.18V40.75Z" fill="black"/>
<path d="M287.85 175.01V230.84C287.847 231.591 287.547 232.311 287.015 232.842C286.482 233.372 285.762 233.67 285.01 233.67H104.38V174.99L287.85 175.01Z" fill="#F78C21"/>
<path d="M93 233.69H15C14.2494 233.69 13.5295 233.392 12.9988 232.861C12.4681 232.33 12.1699 231.611 12.1699 230.86V175.01H93V233.69Z" fill="#F78C21"/>
<path d="M229.16 95.84V94.01H239.16V95.84H263.76V135.36C263.933 140.6 262.013 142.957 258 142.43H239.16V145.05C239.16 146.05 239.59 146.53 240.47 146.36H265.33V153.42H236C230.93 153.77 228.67 151.85 229.19 147.66V142.43H204.85V95.84H229.16ZM229.16 114.95V104.22H214.77V114.95H229.16ZM229.16 134.06V123.33H214.77V134.06H229.16ZM253.76 104.22H239.11V114.95H253.76V104.22ZM239.11 123.32V134.05H252.72C253.24 134.05 253.59 133.53 253.72 132.48V123.32H239.11Z" fill="white"/>
<path d="M234.85 153.99C232.55 153.99 230.85 153.44 229.85 152.34C229.318 151.691 228.939 150.931 228.742 150.115C228.545 149.3 228.534 148.45 228.71 147.63V142.96H204.37V95.37H228.71V93.5399H239.71V95.37H264.31V135.37C264.41 138.45 263.78 140.64 262.44 141.86C261.824 142.358 261.106 142.713 260.336 142.9C259.567 143.087 258.765 143.1 257.99 142.94H239.71V145.06C239.689 145.195 239.696 145.333 239.73 145.466C239.765 145.598 239.826 145.722 239.91 145.83C240.073 145.897 240.257 145.897 240.42 145.83H265.88V153.89H236C235.58 153.98 235.21 153.99 234.85 153.99ZM205.32 141.99H229.66V147.72C229.497 148.41 229.491 149.128 229.644 149.82C229.796 150.513 230.102 151.162 230.54 151.72C231.54 152.72 233.34 153.2 235.93 153.02H264.78V146.96H240.42C240.205 147.013 239.982 147.017 239.766 146.972C239.549 146.927 239.346 146.834 239.17 146.7C238.968 146.499 238.813 146.256 238.716 145.988C238.619 145.72 238.583 145.434 238.61 145.15V142.03H258C258.643 142.175 259.31 142.176 259.953 142.032C260.596 141.889 261.2 141.605 261.72 141.2C262.83 140.2 263.35 138.27 263.26 135.48V96.48H238.66V94.65H229.66V96.48H205.32V141.99ZM229.66 134.62H214.27V122.84H229.66V134.62ZM215.27 133.62H228.66V123.84H215.27V133.62ZM252.72 134.62H238.61V122.84H254.26V132.5C254 133.92 253.52 134.58 252.72 134.58V134.62ZM239.61 133.62H252.72C252.94 133.62 253.15 133.18 253.27 132.47V123.84H239.62L239.61 133.62ZM254.26 115.52H238.61V103.79H254.26V115.52ZM239.61 114.52H253.26V104.79H239.61V114.52ZM229.61 115.52H214.22V103.79H229.61V115.52ZM215.22 114.52H228.61V104.79H215.22V114.52Z" fill="black"/>
<path d="M31.6399 188.3H39.1699V183.89H45.23V188.3H46.7V193.44H45.23V195.09H46.3301V200.41H45.23V225.41H39V200.41H38.26L37.53 220.06C37.53 222.507 36.3667 223.73 34.04 223.73H31.47V219.33C31.96 219.45 32.21 219.21 32.21 218.59L32.9399 195.09H39V193.62H31.6599V188.3H31.6399ZM47.4299 208.68H73.3201V215.47C73.4401 218.16 72.32 219.39 70.02 219.14L69.6499 221.14H73.3201V224.84H46.52V221.17H50.3701L49.8201 219.17H47.4299V208.68ZM47.25 207.21V202.84H73.3201V207.25L47.25 207.21ZM54 188.84H47.76V184.25H60.25L59.51 195.45C59.51 200.117 57.3701 202.197 53.0901 201.69H48V197.1H52.23C52.84 197.22 53.2301 196.86 53.3301 196L53.51 195.45H50.5801C48.7401 195.33 47.8201 194.16 47.8201 191.96V190.31H51.6799C51.5499 190.92 51.7999 191.16 52.4099 191.04H53.8799L54 188.84ZM53.27 213.26V214.73H66.27C66.76 214.85 67.01 214.61 67.01 213.99V213.26H53.27ZM63.55 219.13H56.55V221.13H63.55V219.13ZM61.71 197.13L60.8 184.28H73.28V189.42H67.5901L67.96 191.26H68.8701C69.4901 191.38 69.79 191.14 69.79 190.52H73.46L73.28 192.72C73.16 194.81 72.28 195.66 70.53 195.29H68.1399L68.3201 196.03C68.2001 196.89 68.6301 197.25 69.6101 197.13H73.1001V201.54H66.49C63.47 201.76 61.87 200.29 61.75 197.11L61.71 197.13Z" fill="white"/>
<path d="M45.73 225.84H38.49V207.54L38.02 220.08C38.02 222.79 36.64 224.23 34.02 224.23H31V218.68L31.6201 218.84H31.72C31.72 218.84 31.72 218.73 31.72 218.57L32.47 194.57H38.47V194.1H31.1299V187.84H38.6499V183.43H45.71V187.84H47.1799V193.98H45.71V194.63H46.8101V200.95H45.71L45.73 225.84ZM39.49 224.84H44.73V199.84H45.8301V195.52H44.73V192.87H46.2V188.84H44.73V184.43H39.6699V188.84H32.1399V193.16H39.48V195.63H33.3999L32.6899 218.63C32.7003 218.818 32.668 219.005 32.5952 219.178C32.5225 219.352 32.4112 219.506 32.27 219.63C32.1738 219.702 32.0654 219.756 31.95 219.79V223.2H34C36 223.2 37 222.2 37 220.03L37.75 199.88H39.47L39.49 224.84ZM73.8201 225.29H46V220.62H49.71L49.4299 219.62H46.9199V208.16H73.8101V215.45C73.9017 216.06 73.8597 216.683 73.687 217.275C73.5144 217.867 73.2151 218.415 72.8101 218.88C72.4869 219.161 72.1105 219.374 71.7034 219.506C71.2962 219.638 70.8664 219.687 70.4399 219.65L70.26 220.65H73.8301L73.8201 225.29ZM47.01 224.29H72.8201V221.62H69.05L69.6101 218.56H70.0701C70.4177 218.626 70.7755 218.619 71.1201 218.538C71.4647 218.457 71.7884 218.304 72.0701 218.09C72.3683 217.717 72.5847 217.286 72.7053 216.824C72.8259 216.363 72.848 215.881 72.77 215.41V209.1H47.8799V218.56H50.1499L50.97 221.56H46.97L47.01 224.29ZM64.0901 221.62H56.0901V218.62H64.0901V221.62ZM57.0901 220.62H63.0901V219.62H57.0901V220.62ZM66.55 215.23H52.79V212.76H67.5601V213.99C67.5799 214.189 67.552 214.39 67.479 214.576C67.406 214.762 67.2897 214.928 67.1399 215.06C66.9791 215.192 66.7784 215.267 66.5701 215.27L66.55 215.23ZM53.79 214.23H66.54C66.5455 214.14 66.5455 214.05 66.54 213.96V213.73H53.77L53.79 214.23ZM73.79 207.7H46.72V202.29H73.79V207.7ZM47.72 206.7H72.79V203.29H47.72V206.7ZM54.25 202.26C53.87 202.26 53.46 202.26 53.04 202.19H47.45V196.6H52.1799C52.4499 196.6 52.51 196.6 52.53 196.6C52.55 196.6 52.71 196.42 52.78 195.96H50.52C49.02 195.86 47.27 195.09 47.27 191.96V189.84H52.27L52.1499 190.44C52.1499 190.51 52.1499 190.56 52.1499 190.6H53.4299L53.53 189.4H47.3301V183.81H73.8501V189.95H68.27L68.4399 190.79H68.9399C69.2499 190.79 69.3201 190.79 69.3201 190.79C69.3201 190.79 69.3201 190.74 69.3201 190.54V190.04H74.04L73.8101 192.79C73.8271 193.286 73.7376 193.78 73.5479 194.239C73.3581 194.698 73.0724 195.111 72.71 195.45C72.3914 195.67 72.0278 195.817 71.6455 195.879C71.2633 195.941 70.872 195.918 70.5 195.81H68.8101V196.12C68.8101 196.34 68.8101 196.51 68.8101 196.58C68.8101 196.65 69.09 196.7 69.49 196.65H73.49V202.06H66.3799C65.7149 202.162 65.0363 202.125 64.386 201.953C63.7357 201.781 63.1278 201.477 62.6001 201.06C62.1002 200.551 61.7093 199.945 61.4514 199.28C61.1935 198.614 61.074 197.903 61.1001 197.19L60.4199 187.6L59.8999 195.54C59.8999 198.06 59.26 199.92 58 201.05C56.9454 201.888 55.6259 202.321 54.28 202.27L54.25 202.26ZM48.45 201.19H53.0901C55.0901 201.41 56.5 201.09 57.46 200.24C58.42 199.39 59.02 197.7 59.02 195.45L59.72 184.75H48.3V188.34H54.5901L54.3201 191.54H52.3899C52.2165 191.587 52.0341 191.59 51.8594 191.548C51.6846 191.506 51.523 191.421 51.3899 191.3C51.2624 191.163 51.1758 190.993 51.1399 190.81H48.3V191.96C48.3 194.5 49.6101 194.88 50.5901 194.96H54.1899L53.78 196.17C53.7648 196.412 53.6991 196.648 53.5872 196.864C53.4752 197.079 53.3194 197.268 53.1299 197.42C52.9838 197.516 52.82 197.581 52.6482 197.612C52.4764 197.643 52.3001 197.639 52.1299 197.6H48.5L48.45 201.19ZM61.3401 184.75L62.22 197.08C62.1921 197.661 62.2803 198.241 62.4795 198.787C62.6787 199.333 62.9848 199.834 63.3799 200.26C63.8167 200.585 64.3146 200.819 64.8438 200.948C65.3729 201.077 65.9225 201.098 66.46 201.01H72.6101V197.6H69.6101C69.3547 197.655 69.0898 197.651 68.8364 197.587C68.5831 197.522 68.3481 197.4 68.1499 197.23C68.0074 197.068 67.9036 196.876 67.8464 196.668C67.7893 196.46 67.7803 196.242 67.8201 196.03L67.5 194.76H70.6299C70.8685 194.834 71.1199 194.857 71.3679 194.827C71.6159 194.798 71.8552 194.717 72.0701 194.59C72.3219 194.325 72.5151 194.01 72.6375 193.665C72.7598 193.321 72.8084 192.954 72.78 192.59L72.9199 190.92H70.23C70.168 191.127 70.0461 191.312 69.8799 191.45C69.7236 191.564 69.5436 191.642 69.353 191.676C69.1625 191.711 68.9666 191.702 68.78 191.65H67.55L66.98 188.81H72.78V184.67L61.3401 184.75Z" fill="black"/>
<path d="M117.5 189.46H123.08V212.13H131.78V219.53H117.5V189.46Z" fill="white"/>
<path d="M134.53 189.46H140.12V219.53H134.53V189.46Z" fill="white"/>
<path d="M153.19 208.64V202.38H161.8V215.2C160.568 216.712 159.091 218.007 157.43 219.03C156.031 219.727 154.482 220.07 152.92 220.03C151.006 220.11 149.132 219.46 147.68 218.21C146.162 216.713 145.077 214.833 144.54 212.77C143.761 210.08 143.386 207.29 143.43 204.49C143.371 201.586 143.783 198.692 144.65 195.92C145.278 193.774 146.514 191.857 148.21 190.4C149.642 189.364 151.385 188.849 153.15 188.94C154.693 188.842 156.235 189.152 157.62 189.84C158.684 190.526 159.536 191.496 160.08 192.64C160.813 194.159 161.309 195.781 161.55 197.45L156.18 199.05C156.035 198.1 155.645 197.204 155.05 196.45C154.804 196.162 154.497 195.931 154.151 195.776C153.805 195.62 153.429 195.543 153.05 195.55C152.407 195.576 151.786 195.791 151.265 196.168C150.744 196.545 150.346 197.068 150.12 197.67C149.4 199.083 149.04 201.323 149.04 204.39C149.04 207.64 149.4 209.96 150.14 211.39C150.391 212.001 150.815 212.524 151.361 212.896C151.907 213.268 152.55 213.471 153.21 213.48C153.831 213.481 154.443 213.326 154.99 213.03C155.708 212.614 156.361 212.095 156.93 211.49V208.66L153.19 208.64Z" fill="white"/>
<path d="M165.13 189.46H170.71V199.99H176.8V189.46H182.4V219.53H176.8V207.37H170.71V219.53H165.13V189.46Z" fill="white"/>
<path d="M184.83 189.46H201.83V196.89H196.14V219.53H190.57V196.89H184.88V189.46H184.83Z" fill="white"/>
<path d="M204.34 189.46H209.54L216.34 206.1V189.46H221.59V219.53H216.34L209.58 203.02V219.53H204.34V189.46Z" fill="white"/>
<path d="M225.51 189.46H231.1V219.53H225.51V189.46Z" fill="white"/>
<path d="M235.14 189.46H240.34L247.13 206.1V189.46H252.39V219.53H247.13L240.38 203.02V219.53H235.14V189.46Z" fill="white"/>
<path d="M265.16 208.64V202.38H273.77V215.2C272.54 216.714 271.063 218.009 269.4 219.03C268.001 219.728 266.453 220.072 264.89 220.03C262.976 220.109 261.103 219.459 259.65 218.21C258.136 216.71 257.052 214.831 256.51 212.77C255.731 210.08 255.357 207.29 255.4 204.49C255.346 201.587 255.758 198.693 256.62 195.92C257.248 193.772 258.488 191.853 260.19 190.4C261.618 189.363 263.358 188.847 265.12 188.94C266.667 188.841 268.212 189.151 269.6 189.84C270.658 190.534 271.508 191.502 272.06 192.64C272.789 194.16 273.284 195.782 273.53 197.45L268.15 199.05C268.009 198.099 267.62 197.202 267.02 196.45C266.774 196.161 266.467 195.931 266.121 195.775C265.776 195.619 265.399 195.542 265.02 195.55C264.379 195.577 263.76 195.792 263.24 196.169C262.721 196.546 262.324 197.068 262.1 197.67C261.367 199.083 261.003 201.323 261.01 204.39C261.01 207.643 261.377 209.977 262.11 211.39C262.363 211.999 262.788 212.522 263.333 212.893C263.879 213.264 264.52 213.468 265.18 213.48C265.802 213.481 266.413 213.326 266.96 213.03C267.681 212.614 268.338 212.095 268.91 211.49V208.66L265.16 208.64Z" fill="white"/>
<path d="M132.28 220.03H117V188.96H123.58V211.63H132.28V220.03ZM118 219.03H131.28V212.63H122.58V189.96H118V219.03Z" fill="black"/>
<path d="M140.62 220.03H134V188.96H140.59L140.62 220.03ZM135.03 219.03H139.62V189.96H135L135.03 219.03Z" fill="black"/>
<path d="M152.92 220.54C150.874 220.603 148.88 219.889 147.34 218.54C145.763 216.978 144.631 215.025 144.06 212.88C143.269 210.141 142.888 207.3 142.93 204.45C142.877 201.496 143.296 198.552 144.17 195.73C144.833 193.491 146.128 191.491 147.9 189.97C149.42 188.864 151.272 188.31 153.15 188.4C154.788 188.302 156.422 188.647 157.88 189.4C159.023 190.136 159.94 191.175 160.53 192.4C161.284 193.981 161.796 195.667 162.05 197.4L162.12 197.84L155.79 199.72L155.69 199.18C155.566 198.317 155.222 197.501 154.69 196.81C154.489 196.573 154.237 196.384 153.953 196.258C153.67 196.132 153.361 196.071 153.05 196.08C152.5 196.109 151.971 196.301 151.53 196.63C151.089 196.959 150.755 197.411 150.57 197.93C149.88 199.26 149.57 201.45 149.57 204.42C149.57 207.57 149.93 209.84 150.57 211.15C150.778 211.681 151.139 212.139 151.607 212.464C152.075 212.79 152.63 212.97 153.2 212.98C153.738 212.981 154.268 212.847 154.74 212.59C155.357 212.231 155.922 211.79 156.42 211.28V209.16H152.7V201.84H162.31V215.35L162.18 215.49C160.914 217.052 159.388 218.385 157.67 219.43C156.203 220.186 154.571 220.568 152.92 220.54ZM153.15 189.45C151.498 189.36 149.865 189.836 148.52 190.8C146.903 192.201 145.723 194.037 145.12 196.09C144.279 198.812 143.877 201.651 143.93 204.5C143.885 207.249 144.252 209.99 145.02 212.63C145.537 214.603 146.573 216.402 148.02 217.84C149.378 219.016 151.136 219.624 152.93 219.54C154.414 219.566 155.882 219.223 157.2 218.54C158.764 217.593 160.154 216.386 161.31 214.97V202.84H153.7V208.1H157.42V211.64L157.28 211.79C156.67 212.425 155.973 212.971 155.21 213.41C154.596 213.744 153.909 213.919 153.21 213.92C152.457 213.913 151.723 213.686 151.097 213.266C150.472 212.847 149.983 212.254 149.69 211.56C148.91 210.08 148.53 207.72 148.53 204.36C148.53 201.18 148.91 198.91 149.68 197.36C149.945 196.675 150.406 196.082 151.005 195.657C151.605 195.232 152.316 194.993 153.05 194.97C153.504 194.96 153.955 195.05 154.37 195.235C154.785 195.42 155.154 195.695 155.45 196.04C155.995 196.71 156.379 197.497 156.57 198.34L161 197.02C160.762 195.552 160.31 194.127 159.66 192.79C159.153 191.73 158.364 190.831 157.38 190.19C156.059 189.579 154.6 189.324 153.15 189.45Z" fill="black"/>
<path d="M182.9 220.03H176.3V207.84H171.21V220H164.63V188.93H171.21V199.46H176.3V188.93H182.9V220.03ZM177.3 219.03H181.9V189.96H177.3V200.49H170.21V189.96H165.63V219.03H170.21V206.84H177.3V219.03Z" fill="black"/>
<path d="M196.59 220.03H190V197.39H184.31V188.96H202.31V197.39H196.62L196.59 220.03ZM191.02 219.03H195.59V196.39H201.28V189.96H185.28V196.39H191L191.02 219.03Z" fill="black"/>
<path d="M222.09 220.03H216L210.08 205.56V220.03H203.84V188.96H209.84L215.79 203.55V188.96H222.05L222.09 220.03ZM216.67 219.03H221.09V189.96H216.83V208.65L209.21 189.96H204.84V219.03H209.08V200.48L216.67 219.03Z" fill="black"/>
<path d="M231.6 220.03H225V188.96H231.59L231.6 220.03ZM226.01 219.03H230.6V189.96H226L226.01 219.03Z" fill="black"/>
<path d="M252.89 220.03H246.8L240.88 205.56V220.03H234.63V188.96H240.63L246.63 203.55V188.96H252.89V220.03ZM247.47 219.03H251.89V189.96H247.63V208.65L240 189.96H235.63V219.03H239.88V200.48L247.47 219.03Z" fill="black"/>
<path d="M264.89 220.54C262.846 220.61 260.853 219.894 259.32 218.54C257.74 216.981 256.607 215.026 256.04 212.88C255.241 210.143 254.857 207.301 254.9 204.45C254.845 201.492 255.267 198.544 256.15 195.72C256.812 193.483 258.108 191.486 259.88 189.97C261.395 188.862 263.245 188.308 265.12 188.4C266.758 188.299 268.393 188.645 269.85 189.4C270.998 190.131 271.917 191.171 272.5 192.4C273.258 193.98 273.771 195.666 274.02 197.4L274.09 197.83L267.77 199.72L267.66 199.18C267.532 198.318 267.188 197.503 266.66 196.81C266.457 196.572 266.204 196.383 265.918 196.257C265.633 196.13 265.322 196.07 265.01 196.08C264.46 196.109 263.931 196.301 263.49 196.63C263.049 196.959 262.715 197.411 262.53 197.93C261.85 199.26 261.53 201.44 261.53 204.42C261.53 207.57 261.88 209.84 262.53 211.15C262.74 211.68 263.102 212.136 263.569 212.461C264.037 212.787 264.59 212.967 265.16 212.98C265.701 212.98 266.234 212.846 266.71 212.59C267.325 212.229 267.89 211.788 268.39 211.28V209.16H264.66V201.84H274.27V215.35L274.15 215.49C272.88 217.053 271.351 218.385 269.63 219.43C268.166 220.185 266.537 220.566 264.89 220.54ZM265.12 189.45C263.471 189.358 261.84 189.835 260.5 190.8C258.88 192.2 257.696 194.036 257.09 196.09C256.248 198.812 255.846 201.651 255.9 204.5C255.86 207.249 256.227 209.989 256.99 212.63C257.503 214.605 258.54 216.405 259.99 217.84C261.345 219.013 263.099 219.622 264.89 219.54C266.374 219.567 267.842 219.223 269.16 218.54C270.724 217.593 272.114 216.386 273.27 214.97V202.84H265.66V208.1H269.39V211.64L269.24 211.79C268.634 212.425 267.94 212.97 267.18 213.41C266.566 213.742 265.879 213.917 265.18 213.92C264.428 213.913 263.695 213.686 263.071 213.267C262.447 212.847 261.96 212.254 261.67 211.56C260.89 210.08 260.51 207.72 260.51 204.36C260.51 201.18 260.88 198.91 261.65 197.36C261.916 196.675 262.377 196.084 262.976 195.659C263.575 195.234 264.286 194.995 265.02 194.97C265.474 194.96 265.925 195.05 266.34 195.235C266.755 195.42 267.124 195.695 267.42 196.04C267.965 196.71 268.349 197.497 268.54 198.34L272.98 197.02C272.734 195.553 272.279 194.128 271.63 192.79C271.126 191.728 270.337 190.828 269.35 190.19C268.029 189.579 266.571 189.324 265.12 189.45Z" fill="black"/>
<path d="M73.98 80.45L50.91 112.77H65.4L37.41 147.95L108.55 99.76H86.57L124.99 69.46H88.15L143.91 27H87.57L54.96 80.45H73.98Z" fill="#F78C21"/>
<path d="M35 150.19L64.3799 113.27H49.95L73.02 80.95H54.0801L87.3 26.49H145.41L89.6499 68.96H126.45L88.02 99.26H110.19L35 150.19ZM51.8899 112.27H66.45L39.8601 145.7L106.93 100.26H85.1399L123.57 69.96H86.6899L142.44 27.49H87.8601L55.8601 79.95H75L51.8899 112.27Z" fill="black"/>
</svg>
