<svg width="300" height="246" viewBox="0 0 300 246" fill="none" xmlns="http://www.w3.org/2000/svg">
<path d="M288 0H12C8.8174 0 5.76509 1.26421 3.51465 3.51465C1.26421 5.76509 0 8.8174 0 12V234C0 237.183 1.26421 240.235 3.51465 242.485C5.76509 244.736 8.8174 246 12 246H288C291.183 246 294.235 244.736 296.485 242.485C298.736 240.235 300 237.183 300 234V12C300 8.8174 298.736 5.76509 296.485 3.51465C294.235 1.26421 291.183 0 288 0Z" fill="#61707E"/>
<path d="M166.28 12.3101H15C14.2494 12.3101 13.5295 12.6084 12.9988 13.1392C12.4681 13.6699 12.1699 14.3896 12.1699 15.1401V159.8C12.1699 160.552 12.4678 161.272 12.9983 161.805C13.5287 162.337 14.2485 162.637 15 162.64H166.28C167.031 162.637 167.751 162.337 168.281 161.805C168.812 161.272 169.11 160.552 169.11 159.8V15.1001C169.099 14.3565 168.797 13.6471 168.267 13.125C167.738 12.6029 167.023 12.31 166.28 12.3101Z" fill="#D3E2E2"/>
<path d="M181.02 12.3101H285.02C285.77 12.3101 286.49 12.6084 287.021 13.1392C287.552 13.6699 287.85 14.3896 287.85 15.1401V162.64H181.02V12.3101Z" fill="#D63128"/>
<path d="M204.02 27.8999V21.6201H263.69V27.8999H238.57V30.52H263.43V53.8101H254.8V36.54H238.31V53.8101H229.15V36.54H212.15V53.8101H204.03V30.52H228.89V27.8999H204.02ZM257.15 80.5103H204.02V56.4302H263.43V73.7002C263.43 78.2402 261.337 80.5103 257.15 80.5103ZM213.15 62.71V65.8501H229.15V62.71H213.15ZM228.86 71.6099H213.41V74.4902H228.89L228.86 71.6099ZM214.49 54.1001V48.1001H216.89C218.46 48.2801 219.15 47.8403 218.98 46.8003H226.57V49.6699C226.57 52.8166 224.903 54.3001 221.57 54.1201L214.49 54.1001ZM214.75 40.7603V38.3999H222.34C221.99 39.3999 222.69 39.89 224.44 39.71H227.05V44.9502H219.73C216.583 44.7502 214.923 43.3433 214.75 40.73V40.7603ZM238.31 65.8799H254.8V62.7402H238.31V65.8799ZM254.8 71.6401H238.57V74.52H254.01C254.117 74.5354 254.226 74.5256 254.328 74.4912C254.43 74.4568 254.523 74.3986 254.599 74.3218C254.675 74.2449 254.732 74.1516 254.765 74.0488C254.798 73.946 254.807 73.8367 254.79 73.73V71.6401H254.8ZM239.89 50.1499V46.75H247.74C247.91 47.75 248.96 48.2301 250.88 48.0601H252.71V54.0601H245.65C241.457 54.2401 239.537 52.9366 239.89 50.1499ZM239.89 45.1499V39.6499H243.03C244.03 39.8299 244.77 39.3001 245.12 38.0801H252.19V41.48C252.01 43.9266 250.527 45.1499 247.74 45.1499H239.89Z" fill="white"/>
<path d="M257.15 81.0103H203.52V55.9302H263.89V73.7002C263.89 78.4802 261.59 81.0103 257.15 81.0103ZM204.52 80.0103H257.15C261.04 80.0103 262.93 77.9502 262.93 73.7002V56.9302H204.52V80.0103ZM254.01 75.0103H238.07V71.1001H255.3V73.6899C255.319 73.8644 255.298 74.041 255.24 74.2065C255.182 74.3721 255.088 74.5224 254.964 74.647C254.841 74.7715 254.691 74.8669 254.526 74.9263C254.361 74.9856 254.185 75.0076 254.01 74.9902V75.0103ZM239.07 74.0103H254.01C254.26 74.0103 254.29 74.0102 254.29 73.7202V72.1001H239.07V74.0103ZM229.39 75.0103H212.94V71.1001H229.39V75.0103ZM213.94 74.0103H228.39V72.1001H213.94V74.0103ZM255.3 66.3701H237.81V62.23H255.3V66.3701ZM238.81 65.3701H254.3V63.23H238.81V65.3701ZM229.65 66.3701H212.65V62.23H229.65V66.3701ZM213.65 65.3701H228.65V63.23H213.65V65.3701ZM244.87 54.6099C242.61 54.6099 241.06 54.1299 240.15 53.1499C239.803 52.7401 239.551 52.2585 239.413 51.7397C239.275 51.221 239.253 50.678 239.35 50.1499V46.2803H248.12L248.19 46.7002C248.31 47.4302 249.19 47.7003 250.8 47.5903H253.17V54.5903H244.89L244.87 54.6099ZM240.35 47.27V50.27C240.267 50.6623 240.274 51.0681 240.369 51.4575C240.465 51.8469 240.646 52.21 240.9 52.52C241.67 53.36 243.25 53.7401 245.6 53.6401H252.18V48.6401H250.89C248.95 48.8101 247.76 48.3701 247.37 47.3301L240.35 47.27ZM222.03 54.6099H213.96V47.6099H216.89C217.99 47.7299 218.31 47.5302 218.4 47.4302C218.455 47.3527 218.491 47.2639 218.507 47.1704C218.522 47.0769 218.517 46.9811 218.49 46.8901L218.39 46.3101H227.07V49.6802C227.119 50.3663 227.027 51.0549 226.798 51.7036C226.569 52.3523 226.209 52.9471 225.74 53.4502C224.71 54.2977 223.388 54.7072 222.06 54.5903L222.03 54.6099ZM221.53 53.6099C222.136 53.6999 222.754 53.6669 223.347 53.5122C223.94 53.3576 224.495 53.0845 224.98 52.71C225.342 52.3041 225.617 51.8288 225.789 51.313C225.961 50.7972 226.026 50.2517 225.98 49.71V47.3403H219.4C219.377 47.6438 219.25 47.9295 219.04 48.1499C218.719 48.4017 218.345 48.5772 217.947 48.6621C217.548 48.747 217.135 48.7394 216.74 48.6401H214.94V53.6401L221.53 53.6099ZM263.9 54.3501H254.27V37.0801H238.78V54.3501H228.62V37.0801H212.62V54.3501H203.5V30.0601H228.37V28.4399H203.5V21.1001H264.17V28.3799H239.05V30H263.89L263.9 54.3501ZM255.27 53.3501H262.89V31.0601H238.03V27.4399H263.15V22.1001H204.48V27.3799H229.35V31H204.48V53.29H211.6V36.02H229.6V53.29H237.76V36.02H255.25L255.27 53.3501ZM247.7 45.7202H239.35V39.2202H242.99C243.63 39.3202 244.24 39.2203 244.6 38.0103L244.7 37.6499H252.65V41.5503C252.54 43.4303 251.57 45.6802 247.73 45.6802L247.7 45.7202ZM240.35 44.7202H247.7C250.24 44.7202 251.49 43.72 251.65 41.52V38.6499H245.44C245.296 39.1851 244.953 39.645 244.48 39.9351C244.008 40.2251 243.442 40.3235 242.9 40.21H240.35V44.7202ZM227.52 45.46H219.69C215.4 45.22 214.35 42.7903 214.22 40.8003V37.9102H223.01L222.79 38.5703C222.79 38.7003 222.68 38.93 222.79 39.04C222.9 39.15 223.11 39.3502 224.38 39.2202H227.54L227.52 45.46ZM215.22 40.75C215.38 43.09 216.85 44.3 219.72 44.46H226.52V40.2202H224.41C223.17 40.3502 222.41 40.1702 221.98 39.6602C221.811 39.4476 221.722 39.1818 221.73 38.9102H215.22V40.75Z" fill="black"/>
<path d="M287.83 175.01V230.86C287.83 231.61 287.532 232.331 287.001 232.861C286.47 233.392 285.751 233.69 285 233.69H104.36V175.01H287.83Z" fill="#D63128"/>
<path d="M92.9399 233.69H15C14.2494 233.69 13.5295 233.392 12.9988 232.861C12.4681 232.331 12.1699 231.61 12.1699 230.86V175.01H92.9399V233.69Z" fill="#D63128"/>
<path d="M229.15 95.8799V94.04H239.09V95.8799H263.69V135.4C263.87 140.627 261.953 142.98 257.94 142.46H239.09V145.1C239.09 146.15 239.53 146.58 240.4 146.41H265.26V153.47H235.95C230.89 153.817 228.623 151.9 229.15 147.72V142.48H204.81V95.8999L229.15 95.8799ZM229.15 114.98V104.25H214.75V114.98H229.15ZM229.15 134.09V123.36H214.75V134.1L229.15 134.09ZM253.75 104.25H239.09V114.98H253.75V104.25ZM239.09 123.36V134.1H252.7C253.22 134.1 253.57 133.57 253.75 132.53V123.37L239.09 123.36Z" fill="white"/>
<path d="M234.89 153.99C232.59 153.99 230.89 153.44 229.89 152.34C229.354 151.694 228.971 150.934 228.772 150.118C228.573 149.302 228.562 148.451 228.74 147.63V142.96H204.4V95.3799H228.74V93.54H239.68V95.3799H264.28V135.38C264.39 138.46 263.76 140.65 262.41 141.87C261.794 142.368 261.076 142.723 260.306 142.91C259.537 143.097 258.735 143.111 257.96 142.95H239.59V145.1C239.569 145.235 239.576 145.373 239.61 145.506C239.645 145.638 239.706 145.762 239.79 145.87C239.947 145.953 240.13 145.97 240.3 145.92H265.76V153.98H235.95C235.57 153.98 235.2 153.99 234.89 153.99ZM205.36 141.99H229.7V147.72C229.48 149.53 229.77 150.84 230.57 151.72C231.57 152.72 233.37 153.2 235.97 153.02H264.81V146.96H240.45C240.237 147.013 240.015 147.018 239.8 146.973C239.585 146.928 239.383 146.835 239.21 146.7C239.004 146.501 238.846 146.259 238.748 145.99C238.649 145.722 238.612 145.434 238.64 145.15V142.03H257.99C258.631 142.177 259.295 142.179 259.937 142.037C260.579 141.895 261.181 141.613 261.7 141.21C262.82 140.21 263.34 138.27 263.24 135.48V96.48H238.64V94.6401H229.7V96.48H205.36V141.99ZM229.7 134.62H214.3V122.89H229.7V134.62ZM215.3 133.62H228.7V123.89H215.3V133.62ZM252.75 134.62H238.59V122.88H254.25V132.55C254.02 133.92 253.5 134.59 252.7 134.59L252.75 134.62ZM239.64 133.62H252.75C252.97 133.62 253.19 133.17 253.31 132.46V123.88H239.59L239.64 133.62ZM254.3 115.51H238.59V103.78H254.25L254.3 115.51ZM239.64 114.51H253.3V104.78H239.59L239.64 114.51ZM229.7 115.51H214.3V103.78H229.7V115.51ZM215.3 114.51H228.7V104.78H215.3V114.51Z" fill="black"/>
<path d="M32.73 225.02V219.51H49.0698V225.02H32.73ZM32.9099 194.72L39.9099 183.89H47.0698L38.99 196.56H41.3799L43.95 192.34H51.48L40.6399 209.6H49.0898V215.29H32.8899V210.15L38.7698 201.7H32.8899L32.9099 194.72ZM58.7998 219.72V189.8H51.46V183.92H74.4099V189.8H65.96V219.72H74.5898V225.6H51.2698V219.72H58.7998Z" fill="white"/>
<path d="M75.0898 226.1H50.7698V219.22H58.2998V190.3H50.96V183.42H74.8899V190.3H66.45V219.22H75.0798L75.0898 226.1ZM51.7698 225.1H74.0898V220.22H65.46V189.3H73.8899V184.42H51.95V189.3H59.2898V220.22H51.76L51.7698 225.1ZM49.5698 225.55H32.23V219.04H49.5698V225.55ZM33.23 224.55H48.5698V220.04H33.23V224.55ZM49.5698 215.82H32.4099V210.02L37.8298 202.23H32.4099V194.61L32.49 194.48L39.6199 183.42H47.96L39.8899 196.1H41.0898L43.6599 191.88H52.3699L41.5298 209.1H49.5298L49.5698 215.82ZM33.4099 214.82H48.5698V210.1H39.72L50.5498 192.84H44.21L41.6399 197.06H38.0598L46.1399 184.39H40.1399L33.3899 194.87V201.2H39.73L33.3899 210.3L33.4099 214.82Z" fill="black"/>
<path d="M117.49 189.47H123.06V212.1H131.76V219.5H117.49V189.47Z" fill="white"/>
<path d="M132.26 220.03H116.99V188.97H123.56V211.63H132.26V220.03ZM117.99 219.03H131.26V212.63H122.56V189.97H117.99V219.03Z" fill="black"/>
<path d="M134.52 189.47H140.1V219.53H134.52V189.47Z" fill="white"/>
<path d="M140.6 220.03H134.02V188.97H140.6V220.03ZM135.02 219.03H139.6V189.97H135.02V219.03Z" fill="black"/>
<path d="M153.17 208.64V202.39H161.78V215.2C160.553 216.717 159.075 218.013 157.41 219.03C156.011 219.728 154.462 220.072 152.9 220.03C150.986 220.11 149.113 219.459 147.66 218.21C146.146 216.71 145.061 214.832 144.52 212.77C143.74 210.081 143.366 207.29 143.41 204.49C143.355 201.59 143.767 198.7 144.63 195.93C145.258 193.779 146.498 191.858 148.2 190.4C149.627 189.363 151.368 188.847 153.13 188.94C154.673 188.841 156.215 189.152 157.6 189.84C158.661 190.533 159.515 191.5 160.07 192.64C160.798 194.161 161.294 195.782 161.54 197.45L156.16 199.05C156.019 198.099 155.629 197.202 155.03 196.45C154.783 196.162 154.476 195.932 154.131 195.776C153.785 195.62 153.409 195.544 153.03 195.55C152.389 195.578 151.77 195.794 151.251 196.171C150.732 196.548 150.335 197.069 150.11 197.67C149.38 199.09 149.02 201.32 149.02 204.39C149.02 207.644 149.386 209.977 150.12 211.39C150.372 212 150.796 212.523 151.342 212.895C151.888 213.266 152.53 213.469 153.19 213.48C153.811 213.481 154.423 213.326 154.97 213.03C155.709 212.619 156.383 212.1 156.97 211.49V208.66L153.17 208.64Z" fill="white"/>
<path d="M152.89 220.54C150.853 220.624 148.86 219.927 147.32 218.591C145.737 217.033 144.604 215.078 144.04 212.93C143.241 210.193 142.856 207.351 142.9 204.5C142.847 201.546 143.266 198.603 144.14 195.78C144.803 193.541 146.098 191.541 147.87 190.02C149.39 188.914 151.242 188.36 153.12 188.45C154.758 188.351 156.392 188.696 157.85 189.45C158.999 190.18 159.918 191.22 160.5 192.45C161.252 194.015 161.764 195.683 162.02 197.4L162.09 197.841L155.76 199.72L155.66 199.18C155.532 198.319 155.188 197.503 154.66 196.81C154.456 196.574 154.202 196.386 153.917 196.26C153.631 196.134 153.322 196.072 153.01 196.08C152.46 196.11 151.931 196.301 151.49 196.63C151.049 196.959 150.715 197.412 150.53 197.93C149.728 199.995 149.387 202.21 149.53 204.42C149.53 207.57 149.88 209.84 150.53 211.16C150.743 211.687 151.105 212.141 151.573 212.464C152.04 212.788 152.592 212.967 153.16 212.98C153.701 212.98 154.234 212.847 154.71 212.591C155.325 212.229 155.89 211.789 156.39 211.28V209.1H152.66V201.85H162.27V215.35L162.15 215.49C160.88 217.053 159.351 218.386 157.63 219.43C156.165 220.185 154.537 220.566 152.89 220.54ZM153.12 189.45C151.471 189.364 149.842 189.84 148.5 190.801C146.88 192.201 145.696 194.037 145.09 196.091C144.248 198.813 143.846 201.651 143.9 204.5C143.86 207.252 144.228 209.996 144.99 212.64C145.506 214.614 146.542 216.413 147.99 217.85C149.351 219.013 151.102 219.617 152.89 219.54C154.37 219.58 155.836 219.254 157.16 218.591C158.719 217.634 160.108 216.424 161.27 215.01V202.89H153.66V208.1H157.39V211.64L157.24 211.79C156.634 212.425 155.94 212.971 155.18 213.41C154.565 213.741 153.878 213.916 153.18 213.92C152.428 213.914 151.695 213.687 151.071 213.267C150.447 212.848 149.96 212.254 149.67 211.56C148.89 210.08 148.51 207.72 148.51 204.36C148.51 201.18 148.88 198.91 149.65 197.41C149.916 196.726 150.377 196.134 150.976 195.709C151.575 195.284 152.286 195.045 153.02 195.02C153.474 195.01 153.925 195.1 154.34 195.285C154.755 195.47 155.124 195.746 155.42 196.091C155.965 196.761 156.348 197.548 156.54 198.39L160.98 197.071C160.733 195.604 160.278 194.18 159.63 192.841C159.124 191.781 158.335 190.881 157.35 190.24C156.036 189.614 154.581 189.341 153.13 189.45H153.12Z" fill="black"/>
<path d="M165.12 189.47H170.69V199.99H176.78V189.47H182.38V219.53H176.78V207.37H170.69V219.53H165.12V189.47Z" fill="white"/>
<path d="M182.89 220.03H176.29V207.87H171.2V220.03H164.63V188.97H171.2V199.49H176.29V188.97H182.89V220.03ZM177.29 219.03H181.89V189.97H177.29V200.49H170.2V189.97H165.63V219.03H170.2V206.87H177.29V219.03Z" fill="black"/>
<path d="M184.82 189.47H201.76V196.89H196.08V219.53H190.5V196.89H184.82V189.47Z" fill="white"/>
<path d="M196.58 220.03H190V197.39H184.32V188.97H202.26V197.39H196.58V220.03ZM191 219.03H195.58V196.39H201.26V189.97H185.32V196.39H191V219.03Z" fill="black"/>
<path d="M204.32 189.47H209.53L216.32 206.1V189.47H221.57V219.53H216.32L209.56 203.02V219.53H204.32V189.47Z" fill="white"/>
<path d="M222.07 220.03H215.98L210.06 205.56V220.03H203.82V188.97H209.82L215.82 203.55V188.97H222.07V220.03ZM216.65 219.03H221.07V189.97H216.82V208.65L209.19 189.97H204.82V219.03H209.06V200.48L216.65 219.03Z" fill="black"/>
<path d="M225.5 189.47H231.08V219.53H225.5V189.47Z" fill="white"/>
<path d="M231.58 220.03H225V188.97H231.58V220.03ZM226 219.03H230.58V189.97H226V219.03Z" fill="black"/>
<path d="M235.12 189.47H240.32L247.12 206.1V189.47H252.37V219.53H247.12L240.36 203.02V219.53H235.12V189.47Z" fill="white"/>
<path d="M252.89 220.03H246.8L240.88 205.56V220.03H234.64V188.97H240.64L246.64 203.55V188.97H252.89V220.03ZM247.47 219.03H251.89V189.97H247.64V208.65L240.01 189.97H235.64V219.03H239.89V200.48L247.47 219.03Z" fill="black"/>
<path d="M265.14 208.64V202.39H273.75V215.2C272.525 216.72 271.047 218.016 269.38 219.03C267.981 219.729 266.432 220.072 264.87 220.03C262.958 220.111 261.088 219.46 259.64 218.21C258.122 216.713 257.037 214.833 256.5 212.77C255.717 210.081 255.339 207.291 255.38 204.49C255.325 201.59 255.737 198.7 256.6 195.93C257.231 193.781 258.471 191.86 260.17 190.4C261.601 189.363 263.345 188.848 265.11 188.94C266.653 188.842 268.195 189.153 269.58 189.84C270.642 190.53 271.493 191.498 272.04 192.64C272.768 194.161 273.264 195.782 273.51 197.45L268.13 199.05C267.992 198.1 267.606 197.203 267.01 196.45C266.763 196.163 266.455 195.933 266.11 195.778C265.764 195.622 265.389 195.545 265.01 195.55C264.369 195.58 263.751 195.796 263.232 196.172C262.713 196.549 262.316 197.07 262.09 197.67C261.36 199.09 261 201.32 261 204.39C261 207.644 261.366 209.977 262.1 211.39C262.353 212 262.778 212.522 263.323 212.893C263.868 213.264 264.51 213.468 265.17 213.48C265.795 213.481 266.41 213.326 266.96 213.03C267.676 212.611 268.329 212.093 268.9 211.49V208.66L265.14 208.64Z" fill="white"/>
<path d="M264.89 220.54C262.853 220.624 260.86 219.927 259.32 218.59C257.739 217.032 256.606 215.077 256.04 212.93C255.245 210.192 254.861 207.351 254.9 204.5C254.845 201.545 255.267 198.601 256.15 195.78C256.809 193.54 258.105 191.538 259.88 190.02C261.396 188.914 263.245 188.36 265.12 188.45C266.761 188.351 268.399 188.696 269.86 189.45C270.998 190.19 271.911 191.227 272.5 192.45C273.263 194.028 273.776 195.715 274.02 197.45L274.1 197.89L267.77 199.77L267.66 199.23C267.539 198.366 267.194 197.549 266.66 196.86C266.457 196.622 266.204 196.433 265.918 196.307C265.633 196.18 265.322 196.12 265.01 196.13C264.461 196.161 263.932 196.353 263.491 196.682C263.05 197.011 262.716 197.462 262.53 197.98C261.729 200.045 261.388 202.26 261.53 204.47C261.53 207.62 261.88 209.89 262.53 211.21C262.743 211.737 263.105 212.19 263.573 212.514C264.04 212.837 264.592 213.017 265.16 213.03C265.701 213.031 266.234 212.897 266.71 212.64C267.327 212.281 267.892 211.841 268.39 211.33V209.1H264.66V201.85H274.27V215.35L274.15 215.49C272.881 217.05 271.356 218.383 269.64 219.43C268.172 220.184 266.54 220.565 264.89 220.54ZM265.12 189.45C263.472 189.365 261.843 189.841 260.5 190.8C258.883 192.201 257.703 194.038 257.1 196.09C256.254 198.812 255.849 201.651 255.9 204.5C255.86 207.252 256.228 209.995 256.99 212.64C257.512 214.612 258.547 216.409 259.99 217.85C261.352 219.011 263.102 219.615 264.89 219.54C266.37 219.58 267.836 219.254 269.16 218.59C270.722 217.637 272.111 216.427 273.27 215.01V202.89H265.66V208.1H269.39V211.64L269.24 211.79C268.634 212.425 267.94 212.971 267.18 213.41C266.566 213.742 265.879 213.917 265.18 213.92C264.428 213.912 263.696 213.685 263.072 213.265C262.448 212.846 261.961 212.253 261.67 211.56C260.89 210.08 260.51 207.72 260.51 204.36C260.51 201.18 260.89 198.91 261.65 197.41C261.916 196.726 262.377 196.134 262.976 195.709C263.575 195.284 264.286 195.045 265.02 195.02C265.474 195.009 265.926 195.099 266.341 195.284C266.756 195.469 267.125 195.745 267.42 196.09C267.969 196.758 268.353 197.546 268.54 198.39L272.98 197.07C272.732 195.605 272.281 194.181 271.64 192.84C271.13 191.783 270.342 190.884 269.36 190.24C268.033 189.61 266.565 189.337 265.1 189.45H265.12Z" fill="black"/>
<path d="M73.9599 80.4501L50.8899 112.77H65.3799L37.3899 147.95L108.53 99.7601H86.5499L124.97 69.4601H88.1299L143.89 27.0001H87.5499L54.9399 80.4501H73.9599Z" fill="#D63128"/>
<path d="M34.97 150.19L64.3398 113.27H49.8899L72.97 80.9502H54.0198L87.24 26.4902H145.35L89.5898 68.96H126.39L87.97 99.2603H110.14L34.97 150.19ZM51.8599 112.27H66.4199L39.8198 145.7L106.9 100.26H85.0999L123.53 69.96H86.6499L142.41 27.4902H87.8198L55.8198 79.9502H74.8899L51.8599 112.27Z" fill="black"/>
</svg>
