<svg width="300" height="246" viewBox="0 0 300 246" fill="none" xmlns="http://www.w3.org/2000/svg">
<path d="M288 0H12C8.8174 0 5.76509 1.2643 3.51465 3.51474C1.26421 5.76518 0 8.8174 0 12V234C0 237.183 1.26421 240.235 3.51465 242.485C5.76509 244.736 8.8174 246 12 246H288C291.183 246 294.235 244.736 296.485 242.485C298.736 240.235 300 237.183 300 234V12C300 8.8174 298.736 5.76518 296.485 3.51474C294.235 1.2643 291.183 0 288 0Z" fill="#61707E"/>
<path d="M166.28 12.31H15C14.2494 12.31 13.5295 12.6082 12.9988 13.1389C12.4681 13.6696 12.1699 14.3895 12.1699 15.14V159.8C12.1699 160.551 12.4678 161.272 12.9983 161.805C13.5287 162.337 14.2485 162.637 15 162.64H166.28C167.032 162.637 167.751 162.337 168.282 161.805C168.812 161.272 169.11 160.551 169.11 159.8V15.14C169.11 14.3895 168.812 13.6696 168.281 13.1389C167.75 12.6082 167.031 12.31 166.28 12.31Z" fill="#D3E2E2"/>
<path d="M181.02 12.31H285.02C285.771 12.31 286.49 12.6082 287.021 13.1389C287.552 13.6696 287.85 14.3895 287.85 15.14V162.67H181.02V12.31Z" fill="#FAED26"/>
<path d="M204.02 27.9V21.67H263.69V27.95H238.57V30.57H263.41V53.86H254.78V36.59H238.31V53.86H229.15V36.59H212.15V53.86H204.03V30.57H228.9V27.96H204.03L204.02 27.9ZM257.15 80.51H204.02V56.43H263.41V73.67C263.41 78.2233 261.323 80.5033 257.15 80.51ZM213.15 62.71V65.85H229.15V62.67L213.15 62.71ZM228.86 71.61H213.41V74.49H228.86V71.61ZM214.46 54.08V48.08H216.82C218.39 48.25 219.08 47.81 218.91 46.77H226.5V49.67C226.5 52.81 224.833 54.2934 221.5 54.12L214.46 54.08ZM214.72 40.73V38.37H222.31C221.96 39.42 222.66 39.86 224.41 39.68H227.02V44.92H219.7C216.58 44.74 214.92 43.35 214.75 40.73H214.72ZM238.28 65.85H254.77V62.67H238.31L238.28 65.85ZM254.77 71.61H238.54V74.49H253.98C254.086 74.505 254.194 74.4952 254.295 74.4613C254.397 74.4274 254.489 74.3704 254.565 74.2947C254.64 74.2191 254.697 74.1269 254.731 74.0254C254.765 73.9239 254.775 73.8159 254.76 73.71V71.61H254.77ZM239.85 50.15V46.75H247.7C247.87 47.8 248.92 48.23 250.84 48.06H252.67V54.06H245.61C241.443 54.2467 239.533 52.9434 239.88 50.15H239.85ZM239.85 45.15V39.67H242.99C243.99 39.85 244.73 39.32 245.08 38.1H252.15V41.5C251.97 43.9533 250.487 45.1767 247.7 45.17L239.85 45.15Z" fill="white"/>
<path d="M257.15 81.01H203.52V55.93H263.93V73.67C263.93 78.48 261.59 81.01 257.15 81.01ZM204.52 80.01H257.15C261.04 80.01 262.93 77.95 262.93 73.71V56.93H204.52V80.01ZM254.01 75.01H238.07V71.13H255.3V73.73C255.312 73.9013 255.287 74.0732 255.226 74.2337C255.165 74.3943 255.07 74.5396 254.948 74.6596C254.825 74.7795 254.677 74.8713 254.515 74.9283C254.353 74.9854 254.181 75.0065 254.01 74.99V75.01ZM239.07 74.01H254.01C254.26 74.01 254.29 74.01 254.29 73.73V72.13H239.07V74.01ZM229.38 75.01H212.94V71.13H229.41L229.38 75.01ZM213.94 74.01H228.41V72.13H213.97L213.94 74.01ZM255.3 66.37H237.81V62.23H255.3V66.37ZM238.81 65.37H254.3V63.23H238.81V65.37ZM229.65 66.37H212.65V62.23H229.65V66.37ZM213.65 65.37H228.65V63.23H213.65V65.37ZM244.87 54.61C242.61 54.61 241.06 54.13 240.16 53.16C239.811 52.7511 239.558 52.2699 239.418 51.7511C239.278 51.2323 239.254 50.6888 239.35 50.16V46.29H248.12L248.19 46.71C248.31 47.44 249.19 47.71 250.8 47.6H253.17V54.6H244.87V54.61ZM240.35 47.27V50.27C240.267 50.6623 240.274 51.0681 240.369 51.4575C240.465 51.8469 240.646 52.21 240.9 52.52C241.67 53.36 243.24 53.74 245.6 53.64H252.18V48.64H250.85C248.54 48.85 247.64 48.12 247.33 47.33L240.35 47.27ZM222.03 54.61H213.96V47.61H216.82C217.92 47.73 218.24 47.52 218.33 47.42C218.385 47.3429 218.422 47.2541 218.438 47.1605C218.453 47.0669 218.447 46.9709 218.42 46.88L218.32 46.3H227V49.67C227.048 50.3545 226.955 51.0415 226.726 51.6884C226.497 52.3352 226.138 52.9281 225.67 53.43C224.661 54.2672 223.368 54.6827 222.06 54.59L222.03 54.61ZM221.53 53.61C222.137 53.6975 222.755 53.6619 223.347 53.5056C223.94 53.3493 224.495 53.0753 224.98 52.7C225.342 52.2942 225.617 51.8188 225.789 51.303C225.961 50.7872 226.026 50.2418 225.98 49.7V47.32H219.41C219.379 47.6235 219.249 47.9083 219.04 48.13C218.721 48.3845 218.347 48.5613 217.948 48.6464C217.549 48.7314 217.135 48.7224 216.74 48.62H214.94V53.62L221.53 53.61ZM263.9 54.34H254.27V37.07H238.81V54.34H228.65V37.07H212.65V54.34H203.53V30.05H228.41V28.44H203.54V21.15H264.21V28.43H239.09V30.05H263.95L263.9 54.34ZM255.27 53.34H262.9V31.05H238.04V27.43H263.16V22.15H204.49V27.43H229.41V31.04H204.54V53.33H211.66V36.06H229.66V53.33H237.82V36.06H255.31L255.27 53.34ZM247.7 45.71H239.41V39.21H243.05C243.69 39.31 244.31 39.21 244.66 38L244.77 37.64H252.71V41.54C252.54 43.43 251.57 45.67 247.73 45.67L247.7 45.71ZM240.35 44.71H247.7C250.24 44.71 251.49 43.71 251.65 41.51V38.64H245.44C245.298 39.175 244.957 39.6355 244.487 39.9274C244.016 40.2192 243.452 40.3204 242.91 40.21H240.41L240.35 44.71ZM227.52 45.45H219.7C215.4 45.21 214.35 42.79 214.22 40.79V37.9H223.01L222.79 38.56C222.79 38.69 222.68 38.93 222.79 39.03C222.9 39.13 223.1 39.34 224.38 39.22H227.54L227.52 45.45ZM215.22 40.74C215.38 43.08 216.85 44.29 219.72 44.45H226.52V40.21H224.41C223.18 40.34 222.41 40.16 221.98 39.66C221.813 39.4415 221.722 39.1748 221.72 38.9H215.22V40.74Z" fill="black"/>
<path d="M287.83 175.02V230.86C287.83 231.611 287.532 232.332 287.002 232.865C286.471 233.397 285.751 233.697 285 233.7H104.41V175.02H287.83Z" fill="#FAED26"/>
<path d="M92.9399 233.67H15C14.2494 233.67 13.5295 233.372 12.9988 232.841C12.4681 232.31 12.1699 231.591 12.1699 230.84V174.99H92.9399V233.67Z" fill="#FAED26"/>
<path d="M229.15 95.88V94.05H239.09V95.88H263.69V135.4C263.87 140.633 261.953 142.987 257.94 142.46H239.09V145.08C239.09 146.13 239.53 146.56 240.4 146.39H265.26V153.46H235.95C230.89 153.8 228.62 151.89 229.15 147.7V142.46H204.81V95.88H229.15ZM229.15 114.98V104.25H214.75V114.98H229.15ZM229.15 134.09V123.36H214.75V134.09H229.15ZM253.75 104.25H239.09V114.98H253.75V104.25ZM239.09 123.36V134.09H252.7C253.22 134.09 253.57 133.56 253.75 132.52V123.36H239.09Z" fill="white"/>
<path d="M234.84 154C232.54 154 230.84 153.44 229.84 152.34C229.304 151.695 228.922 150.937 228.722 150.123C228.523 149.308 228.512 148.459 228.69 147.64V142.96H204.31V95.38H228.65V93.55H239.59V95.38H264.19V135.38C264.3 138.45 263.67 140.64 262.32 141.86C261.705 142.36 260.987 142.716 260.217 142.903C259.447 143.09 258.645 143.103 257.87 142.94H239.59V145.06C239.555 145.336 239.626 145.615 239.79 145.84C239.954 145.901 240.135 145.901 240.3 145.84H265.76V153.91H235.95C235.57 153.98 235.19 154 234.84 154ZM205.31 142H229.65V147.67C229.43 149.47 229.72 150.78 230.52 151.67C231.52 152.67 233.33 153.15 235.92 152.97H264.76V146.9H240.41C240.197 146.956 239.974 146.961 239.759 146.916C239.544 146.871 239.342 146.776 239.17 146.64C238.964 146.441 238.806 146.199 238.708 145.93C238.609 145.662 238.572 145.375 238.6 145.09V141.97H257.95C258.59 142.119 259.256 142.123 259.898 141.981C260.54 141.839 261.142 141.555 261.66 141.15C262.78 140.15 263.3 138.21 263.2 135.42V96.42H238.6V94.59H229.66V96.42H205.31V142ZM229.65 134.63H214.25V122.9H229.65V134.63ZM215.25 133.63H228.65V123.9H215.25V133.63ZM252.7 134.63H238.59V122.9H254.25V132.56C254.02 133.92 253.5 134.59 252.7 134.59V134.63ZM239.59 133.63H252.7C252.92 133.63 253.14 133.19 253.26 132.47V123.9H239.6L239.59 133.63ZM254.25 115.52H238.59V103.79H254.25V115.52ZM239.59 114.52H253.25V104.79H239.59V114.52ZM229.65 115.52H214.25V103.79H229.65V115.52ZM215.25 114.52H228.65V104.79H215.25V114.52Z" fill="black"/>
<path d="M32.9099 190.14V185.14H37.5V183.3H43.9299V185.14H62.47V183.14H68.71V185.14H73.8599V190.14H68.71V192.34H74.0398V197.48H56.5999V199.68H73.2998V212.54C73.9198 217.207 71.5865 219.207 66.2998 218.54H64.0898L64.8298 219.46C64.8331 219.531 64.8509 219.6 64.8818 219.664C64.9128 219.727 64.9564 219.784 65.01 219.83C65.2765 220.081 65.591 220.275 65.9348 220.4C66.2786 220.526 66.6446 220.58 67.01 220.56H74.01V225.15H63.5398C61.5398 224.91 60.2999 224.42 59.6899 223.68L55.47 218.54H51.98L46.98 223.32C46.3252 224.075 45.5033 224.667 44.5798 225.049C43.6564 225.431 42.6566 225.592 41.6599 225.52H33.03V220.75H40.5498C40.9736 220.722 41.3878 220.609 41.7673 220.419C42.1469 220.228 42.4844 219.963 42.76 219.64L43.6799 218.54H33.5798V199.67H49.9199V197.47H32.9099V192.33H37.5V190.13L32.9099 190.14ZM49.7998 206.67V204.67H40.0698V206.67H49.7998ZM49.7998 211.67H40.0698V213.87H49.7998V211.67ZM43.9299 192.39H62.2898V190.19H43.9299V192.39ZM56.5999 206.67H67.0598V204.67H56.5999V206.67ZM67.25 211.67H56.78V213.87H66.6899C67.0599 213.87 67.25 213.63 67.25 213.14V211.67Z" fill="white"/>
<path d="M42.1599 226.08H32.5999V220.31H40.5999C40.959 220.274 41.3074 220.167 41.625 219.995C41.9426 219.824 42.223 219.591 42.45 219.31L42.6599 219.06H33.1299V199.15H49.47V197.95H32.4099V191.81H37V190.67H32.4099V184.67H37V182.83H44.4099V184.67H61.95V182.67H69.1899V184.67H74.4099V190.67H69.26V191.87H74.5898V198.01H57.1499V199.21H73.8599V212.57C74.1599 214.84 73.7499 216.57 72.6299 217.73C71.5099 218.89 69.2598 219.46 66.3198 219.12H65.21L65.4099 219.37V219.54C66.3299 220.19 66.8 220.2 66.99 220.16H74.5898V225.67H63.5898C61.4198 225.4 60.0499 224.86 59.3499 224.02L55.28 219.02H52.28L47.47 223.66C46.815 224.426 46.0003 225.04 45.083 225.458C44.1657 225.876 43.1679 226.088 42.1599 226.08ZM33.5999 225.08H41.73C42.6541 225.158 43.5837 225.018 44.4436 224.671C45.3035 224.323 46.0696 223.778 46.6799 223.08L51.8098 218.14H55.73L60.1099 223.47C60.6199 224.09 61.8099 224.53 63.6399 224.76H73.5398V221.17H67.1199C66.69 221.2 66.2586 221.143 65.8513 221.002C65.4441 220.861 65.0695 220.639 64.75 220.35C64.5801 220.197 64.4554 219.999 64.3899 219.78L63.0798 218.15H66.3298C68.9998 218.46 70.8399 218.09 71.8699 217.06C72.8999 216.03 73.0698 214.67 72.8098 212.66V200.24H56.0999V197.04H73.5398V192.9H68.21V189.67H73.4099V185.67H68.26V183.67H63.02V185.67H43.4099V183.83H37.98V185.67H33.4099V189.67H38V192.87H33.4099V197.01H50.49V200.21H34.1499V218.12H44.8098L43.21 220.04C42.8878 220.419 42.4923 220.729 42.0471 220.95C41.602 221.172 41.1163 221.301 40.6199 221.33H33.6199L33.5999 225.08ZM66.6899 214.33H56.28V211.13H67.75V213.13C67.75 214 67.1999 214.32 66.6899 214.32V214.33ZM57.28 213.33H66.6899C66.6899 213.33 66.75 213.33 66.75 213.1V212.1H57.28V213.33ZM50.28 214.33H39.5398V211.13H50.28V214.33ZM40.5398 213.33H49.28V212.13H40.5398V213.33ZM67.5398 207.17H56.0798V204.17H67.5398V207.17ZM57.0798 206.17H66.5398V205.17H57.0798V206.17ZM50.2898 207.17H39.5498V204.17H50.2898V207.17ZM40.5498 206.17H49.2898V205.17H40.5498V206.17ZM62.77 192.85H43.4099V189.67H62.77V192.85ZM44.4099 191.85H61.77V190.67H44.4099V191.85Z" fill="black"/>
<path d="M117.49 189.47H123.06V212.13H131.76V219.53H117.49V189.47Z" fill="white"/>
<path d="M134.52 189.47H140.1V219.53H134.52V189.47Z" fill="white"/>
<path d="M153.17 208.67V202.42H161.78V215.23C160.555 216.75 159.077 218.045 157.41 219.06C156.013 219.763 154.463 220.107 152.9 220.06C150.985 220.143 149.111 219.492 147.66 218.24C146.146 216.742 145.064 214.862 144.53 212.8C143.741 210.112 143.364 207.321 143.41 204.52C143.355 201.62 143.767 198.729 144.63 195.96C145.258 193.809 146.498 191.888 148.2 190.43C149.628 189.394 151.368 188.879 153.13 188.97C154.677 188.873 156.223 189.187 157.61 189.88C158.671 190.57 159.523 191.538 160.07 192.68C160.801 194.199 161.297 195.821 161.54 197.49L156.16 199.09C156.021 198.135 155.631 197.235 155.03 196.48C154.784 196.191 154.477 195.961 154.131 195.805C153.785 195.649 153.409 195.572 153.03 195.58C152.389 195.609 151.771 195.826 151.252 196.202C150.733 196.579 150.336 197.1 150.11 197.7C149.383 199.12 149.02 201.36 149.02 204.42C149.02 207.67 149.39 210 150.12 211.42C150.371 212.031 150.795 212.555 151.341 212.926C151.887 213.298 152.53 213.501 153.19 213.51C153.811 213.511 154.423 213.356 154.97 213.06C155.691 212.644 156.348 212.125 156.92 211.52V208.67H153.17Z" fill="white"/>
<path d="M165.12 189.47H170.69V199.99H176.78V189.47H182.38V219.53H176.78V207.37H170.69V219.53H165.12V189.47Z" fill="white"/>
<path d="M184.82 189.47H201.76V196.89H196.08V219.53H190.5V196.89H184.82V189.47Z" fill="white"/>
<path d="M204.32 189.47H209.53L216.32 206.1V189.47H221.57V219.53H216.32L209.56 203.02V219.53H204.32V189.47Z" fill="white"/>
<path d="M225.5 189.47H231.08V219.53H225.5V189.47Z" fill="white"/>
<path d="M235.12 189.47H240.33L247.12 206.1V189.47H252.41V219.53H247.16L240.41 203.02V219.53H235.17L235.12 189.47Z" fill="white"/>
<path d="M265.14 208.67V202.42H273.76V215.23C272.53 216.748 271.048 218.043 269.38 219.06C267.983 219.763 266.433 220.107 264.87 220.06C262.958 220.144 261.087 219.493 259.64 218.24C258.122 216.743 257.037 214.863 256.5 212.8C255.72 210.111 255.346 207.32 255.39 204.52C255.332 201.62 255.741 198.73 256.6 195.96C257.235 193.813 258.474 191.893 260.17 190.43C261.601 189.393 263.345 188.878 265.11 188.97C266.654 188.875 268.196 189.189 269.58 189.88C270.646 190.564 271.499 191.534 272.04 192.68C272.771 194.199 273.267 195.821 273.51 197.49L268.13 199.09C267.994 198.136 267.608 197.235 267.01 196.48C266.763 196.193 266.455 195.963 266.11 195.808C265.764 195.652 265.389 195.575 265.01 195.58C264.369 195.609 263.751 195.826 263.232 196.202C262.713 196.579 262.316 197.1 262.09 197.7C261.237 199.833 260.865 202.127 261 204.42C261 207.67 261.37 210 262.1 211.42C262.352 212.03 262.777 212.553 263.322 212.924C263.868 213.296 264.51 213.499 265.17 213.51C265.795 213.511 266.41 213.356 266.96 213.06C267.676 212.641 268.329 212.123 268.9 211.52V208.67H265.14Z" fill="white"/>
<path d="M132.26 220.03H116.99V188.97H123.56V211.67H132.26V220.03ZM117.99 219.03H131.26V212.67H122.56V189.97H117.99V219.03Z" fill="black"/>
<path d="M140.6 220.03H134.02V188.97H140.6V220.03ZM135.02 219.03H139.6V189.97H135.02V219.03Z" fill="black"/>
<path d="M152.9 220.54C150.856 220.61 148.863 219.894 147.33 218.54C145.747 216.983 144.614 215.027 144.05 212.88C143.25 210.143 142.866 207.301 142.91 204.45C142.856 201.495 143.278 198.551 144.16 195.73C144.819 193.489 146.115 191.488 147.89 189.97C149.405 188.862 151.255 188.308 153.13 188.4C154.771 188.3 156.409 188.646 157.87 189.4C159.014 190.133 159.928 191.172 160.51 192.4C161.271 193.978 161.784 195.665 162.03 197.4L162.1 197.84L155.78 199.72L155.67 199.18C155.549 198.316 155.204 197.499 154.67 196.81C154.467 196.572 154.214 196.383 153.928 196.257C153.643 196.13 153.332 196.07 153.02 196.08C152.47 196.109 151.941 196.301 151.5 196.63C151.059 196.959 150.724 197.411 150.54 197.93C149.739 199.995 149.398 202.21 149.54 204.42C149.54 207.57 149.89 209.84 150.54 211.16C150.75 211.689 151.112 212.143 151.58 212.467C152.048 212.791 152.601 212.969 153.17 212.98C153.711 212.98 154.243 212.846 154.72 212.59C155.335 212.229 155.9 211.788 156.4 211.28V209.16H152.67V201.91H162.28V215.41L162.16 215.55C160.89 217.113 159.361 218.446 157.64 219.49C156.17 220.224 154.542 220.585 152.9 220.54ZM153.13 189.45C151.481 189.363 149.852 189.839 148.51 190.8C146.89 192.2 145.706 194.036 145.1 196.09C144.258 198.812 143.857 201.651 143.91 204.5C143.87 207.252 144.238 209.995 145 212.64C145.52 214.612 146.555 216.41 148 217.85C149.357 219.02 151.11 219.624 152.9 219.54C154.384 219.564 155.851 219.22 157.17 218.54C158.734 217.589 160.124 216.378 161.28 214.96V202.84H153.67V208.09H157.41V211.67L157.26 211.82C156.654 212.456 155.96 213.001 155.2 213.44C154.585 213.771 153.898 213.946 153.2 213.95C152.448 213.943 151.715 213.716 151.091 213.297C150.467 212.877 149.98 212.284 149.69 211.59C148.91 210.11 148.53 207.76 148.53 204.39C148.53 201.22 148.9 198.94 149.67 197.44C149.936 196.755 150.397 196.164 150.996 195.739C151.595 195.314 152.306 195.075 153.04 195.05C153.494 195.039 153.945 195.129 154.361 195.314C154.776 195.499 155.144 195.775 155.44 196.12C155.989 196.788 156.372 197.576 156.56 198.42L161 197.1C160.754 195.633 160.299 194.208 159.65 192.87C159.144 191.813 158.359 190.914 157.38 190.27C156.059 189.631 154.594 189.348 153.13 189.45Z" fill="black"/>
<path d="M182.88 220.03H176.28V207.87H171.19V220.03H164.62V188.97H171.19V199.49H176.28V188.97H182.88V220.03ZM177.28 219.03H181.88V189.97H177.28V200.49H170.19V189.97H165.62V219.03H170.19V206.87H177.28V219.03Z" fill="black"/>
<path d="M196.58 220.03H190V197.39H184.32V188.97H202.26V197.39H196.58V220.03ZM191 219.03H195.58V196.39H201.26V189.97H185.32V196.39H191V219.03Z" fill="black"/>
<path d="M222.07 220.03H215.98L210.06 205.57V220.03H203.82V188.97H209.82L215.82 203.55V188.97H222.07V220.03ZM216.66 219.03H221.07V189.97H216.82V208.67L209.19 189.99H204.82V219.05H209.06V200.5L216.66 219.03Z" fill="black"/>
<path d="M231.58 220.03H225V188.97H231.58V220.03ZM226 219.03H230.58V189.97H226V219.03Z" fill="black"/>
<path d="M252.87 220.03H246.78L240.86 205.57V220.03H234.62V188.97H240.62L246.62 203.55V188.97H252.87V220.03ZM247.45 219.03H251.87V189.97H247.62V208.67L239.99 189.99H235.62V219.05H239.86V200.5L247.45 219.03Z" fill="black"/>
<path d="M264.87 220.54C262.826 220.61 260.832 219.894 259.3 218.54C257.721 216.98 256.588 215.026 256.02 212.88C255.229 210.141 254.848 207.3 254.89 204.45C254.832 201.496 255.251 198.551 256.13 195.73C256.789 193.489 258.085 191.488 259.86 189.97C261.379 188.862 263.232 188.308 265.11 188.4C266.748 188.302 268.382 188.647 269.84 189.4C270.981 190.135 271.896 191.174 272.48 192.4C273.245 193.978 273.761 195.664 274.01 197.4L274.08 197.84L267.75 199.72L267.64 199.18C267.519 198.316 267.174 197.499 266.64 196.81C266.437 196.572 266.184 196.383 265.898 196.257C265.612 196.13 265.302 196.07 264.99 196.08C264.442 196.111 263.915 196.303 263.476 196.632C263.036 196.961 262.704 197.413 262.52 197.93C261.83 199.27 261.52 201.45 261.52 204.42C261.52 207.58 261.87 209.84 262.57 211.16C262.777 211.689 263.137 212.144 263.604 212.468C264.07 212.792 264.622 212.97 265.19 212.98C265.731 212.98 266.263 212.846 266.74 212.59C267.356 212.231 267.922 211.791 268.42 211.28V209.16H264.69V201.91H274.31V215.41L274.18 215.55C272.911 217.11 271.386 218.442 269.67 219.49C268.182 220.234 266.532 220.595 264.87 220.54ZM265.11 189.45C263.458 189.363 261.826 189.839 260.48 190.8C258.863 192.201 257.683 194.037 257.08 196.09C256.238 198.812 255.837 201.651 255.89 204.5C255.845 207.253 256.213 209.996 256.98 212.64C257.499 214.612 258.535 216.411 259.98 217.85C261.342 219.011 263.092 219.614 264.88 219.54C266.367 219.563 267.837 219.219 269.16 218.54C270.72 217.584 272.109 216.374 273.27 214.96V202.84H265.65V208.09H269.41V211.67L269.26 211.82C268.656 212.458 267.962 213.003 267.2 213.44C266.586 213.773 265.899 213.949 265.2 213.95C264.449 213.941 263.716 213.713 263.093 213.294C262.469 212.874 261.982 212.282 261.69 211.59C260.91 210.11 260.53 207.76 260.53 204.39C260.53 201.21 260.91 198.94 261.68 197.44C261.943 196.755 262.402 196.164 263 195.739C263.597 195.313 264.307 195.074 265.04 195.05C265.494 195.039 265.945 195.129 266.361 195.314C266.776 195.499 267.144 195.775 267.44 196.12C267.993 196.785 268.377 197.574 268.56 198.42L273 197.1C272.754 195.634 272.303 194.21 271.66 192.87C271.15 191.812 270.362 190.913 269.38 190.27C268.054 189.625 266.58 189.342 265.11 189.45Z" fill="black"/>
<path d="M73.9599 80.45L50.8899 112.77H65.3799L37.3899 147.95L108.53 99.76H86.5499L124.97 69.46H88.1299L143.89 27H87.5499L54.9399 80.45H73.9599Z" fill="#FAED26"/>
<path d="M34.97 150.2L64.3398 113.27H49.9099L72.99 80.95H54.0498L87.26 26.5H145.41L89.6499 68.96H126.41L87.99 99.26H110.16L34.97 150.2ZM51.8599 112.27H66.4099L39.8198 145.67L106.9 100.23H85.0999L123.53 69.93H86.6499L142.41 27.5H87.8198L55.8198 79.95H74.9199L51.8599 112.27Z" fill="black"/>
</svg>
