<svg width="300" height="246" viewBox="0 0 300 246" fill="none" xmlns="http://www.w3.org/2000/svg">
<path d="M288 0H12C8.8174 0 5.76509 1.26421 3.51465 3.51465C1.26421 5.76509 0 8.8174 0 12V234C0 237.183 1.26421 240.235 3.51465 242.485C5.76509 244.736 8.8174 246 12 246H288C291.183 246 294.235 244.736 296.485 242.485C298.736 240.235 300 237.183 300 234V12C300 8.8174 298.736 5.76509 296.485 3.51465C294.235 1.26421 291.183 0 288 0Z" fill="#61707E"/>
<path d="M166.28 12.3101H15C14.2494 12.3101 13.5295 12.6082 12.9988 13.1389C12.4681 13.6696 12.1699 14.3893 12.1699 15.1399V159.8C12.1699 160.552 12.4678 161.272 12.9983 161.805C13.5287 162.337 14.2485 162.637 15 162.64H166.28C167.032 162.637 167.751 162.337 168.282 161.805C168.812 161.272 169.11 160.552 169.11 159.8V15.1399C169.11 14.3893 168.812 13.6696 168.281 13.1389C167.75 12.6082 167.031 12.3101 166.28 12.3101Z" fill="#D3E2E2"/>
<path d="M181.02 12.3101H285.02C285.771 12.3101 286.49 12.6082 287.021 13.1389C287.552 13.6696 287.85 14.3893 287.85 15.1399V162.64H181.02V12.3101Z" fill="#FAED26"/>
<path d="M205.07 27.3799V22.1499H264.74V27.3799H239.62V29.74H264.74V51.2H255.84V34.97H239.62V51.45H230.72V34.96H213.72V51.1899H205.08V29.73H230.73V27.3699L205.07 27.3799ZM216.07 55.3799V52.51H223.92V55.1199H233.87V60.6199H223.92V81.8201H216.07V60.8799H205.07V55.3799H216.07ZM205.07 76.8398H205.59C206.12 76.8398 206.38 76.41 206.38 75.54V62.71H214.49V75.8C214.84 79.9901 213.01 81.9001 209 81.5601H205.07V76.8398ZM215.8 39.1599V37.0601H223.65V37.8499C223.48 38.7199 223.82 39.0699 224.7 38.8499H228.1V43.03H219.2C216.59 43.45 215.41 42.1299 215.8 39.1599ZM223.91 51.1599H215.8V46.45H219.47C220.16 46.6199 220.47 46.3599 220.47 45.6599V44.8799H228.41V47.23C228.54 50.24 227.05 51.5499 223.91 51.2V51.1599ZM224.96 62.6699H232.29V75.24C232.11 76.11 232.46 76.54 233.29 76.54H234.07V81.54H230.14C226.41 81.73 224.61 80.2499 224.96 77.1099V62.6699ZM258.72 81.78H235.72V53.55H264.51V76.8398C264.843 80.3332 262.913 81.9934 258.72 81.8201V81.78ZM253.23 51.1599H245.11C241.97 51.5099 240.57 50.37 240.93 47.75V45.1399H248.25V45.6599C248.08 46.1799 248.43 46.45 249.25 46.45H253.18V51.1599H253.23ZM241.23 42.78V38.8599H243.84C244.54 38.8599 244.98 38.42 245.15 37.55V36.76H253.27V39.6399C253.44 42.0899 252.22 43.13 249.6 42.78H241.23ZM255.88 59.53H243.88V61.8899H255.88V59.53ZM243.88 69.53H255.88V66.9099H243.88V69.53ZM255.88 75.28V74.45H243.88V76.8H254.35C254.553 76.8158 254.757 76.7865 254.948 76.7146C255.138 76.6427 255.311 76.5298 255.453 76.3838C255.595 76.2378 255.704 76.0624 255.771 75.8699C255.837 75.6774 255.861 75.4727 255.84 75.27L255.88 75.28Z" fill="white"/>
<path d="M259.29 82.3298H235.19V53.05H264.98V76.8398C265.108 77.5442 265.078 78.2684 264.893 78.96C264.708 79.6515 264.372 80.2934 263.91 80.8398C262.96 81.8198 261.41 82.3298 259.29 82.3298ZM236.19 81.3298H258.74C260.88 81.4198 262.36 81.0099 263.18 80.1399C263.543 79.6916 263.803 79.1691 263.941 78.6091C264.079 78.0492 264.093 77.4656 263.98 76.8999V54.05H236.19V81.3298ZM224.41 82.3298H215.56V61.3899H204.56V54.8899H215.56V52.02H224.41V54.6299H234.41V61.1299H224.41V82.3298ZM216.56 81.3298H223.41V60.1299H233.41V55.6299H223.41V53.02H216.56V55.8899H205.56V60.3899H216.56V81.3298ZM209.87 82.1099C209.57 82.1099 209.27 82.1101 208.95 82.0601H204.57V76.3398H205.57C205.81 76.3398 205.86 75.9 205.86 75.53V62.21H214.97V75.8C215.16 78.04 214.72 79.73 213.65 80.8C213.138 81.2577 212.54 81.6083 211.891 81.8315C211.242 82.0548 210.555 82.146 209.87 82.0999V82.1099ZM205.57 81.1099H208.99C210.84 81.2599 212.16 80.9399 212.99 80.1099C213.82 79.2799 214.18 77.8399 213.99 75.8699V63.24H206.88V75.5601C206.88 77.1401 206.07 77.3699 205.59 77.3699L205.57 81.1099ZM229.62 82.1099C228.859 82.1819 228.091 82.0957 227.365 81.8564C226.638 81.6172 225.969 81.2303 225.4 80.72C224.986 80.2271 224.687 79.6485 224.525 79.0259C224.362 78.4032 224.34 77.7521 224.46 77.1199V62.25H232.79V75.3201C232.72 75.6901 232.73 75.9 232.79 75.99C232.942 76.095 233.126 76.1411 233.31 76.1199H234.6V82.1199H229.6L229.62 82.1099ZM225.46 63.25V77.2C225.357 77.6935 225.363 78.2038 225.479 78.6946C225.595 79.1854 225.817 79.6447 226.13 80.04C226.86 80.83 228.23 81.1898 230.13 81.0999H233.58V77.0999H233.29C233.051 77.1191 232.811 77.0841 232.588 76.9976C232.364 76.911 232.163 76.775 232 76.5999C231.856 76.4004 231.759 76.1704 231.717 75.9277C231.676 75.685 231.69 75.4361 231.76 75.2V63.2L225.46 63.25ZM254.27 77.3799H243.27V74.03H256.27V75.3101C256.292 75.5797 256.256 75.8509 256.164 76.1052C256.071 76.3596 255.925 76.591 255.735 76.7837C255.545 76.9764 255.316 77.1259 255.063 77.2219C254.811 77.3179 254.54 77.358 254.27 77.3398V77.3799ZM244.27 76.3799H254.27C255.04 76.3799 255.34 76.0801 255.34 75.3101V75.03H244.34L244.27 76.3799ZM256.27 70.0601H243.27V66.45H256.27V70.0601ZM244.27 69.0601H255.27V67.45H244.27V69.0601ZM256.27 62.47H243.27V59.1099H256.27V62.47ZM244.27 61.47H255.27V60.1099H244.27V61.47ZM240.09 52H230.19V35.45H214.19V51.6799H204.55V29.22H230.2V27.8599H204.55V21.6299H265.22V27.8599H240.1V29.22H265.22V51.6799H255.32V35.45H240.1L240.09 52ZM231.19 51H239.09V34.45H256.31V50.6799H264.21V30.22H239.09V26.8599H264.21V22.6299H205.54V26.8599H231.19V30.22H205.54V50.6799H213.18V34.45H231.18L231.19 51ZM244.01 51.8C243.49 51.8355 242.969 51.7649 242.477 51.593C241.986 51.4211 241.534 51.1515 241.15 50.8C240.794 50.3822 240.541 49.8868 240.411 49.3538C240.281 48.8207 240.277 48.2647 240.4 47.73V44.6799H248.73V45.8599C248.68 45.8599 248.8 45.99 249.3 45.99H253.73V51.7H245.11C244.754 51.7385 244.397 51.7586 244.04 51.76L244.01 51.8ZM241.39 45.72V47.8298C241.288 48.2253 241.277 48.6388 241.358 49.0391C241.44 49.4393 241.611 49.8158 241.86 50.1399C242.42 50.7099 243.48 50.91 245.03 50.74H252.7V47.03H249.27C249.01 47.0601 248.747 47.0296 248.5 46.9412C248.254 46.8527 248.031 46.7086 247.85 46.52C247.767 46.4063 247.711 46.2749 247.687 46.1362C247.662 45.9975 247.671 45.8551 247.71 45.72H241.39ZM224.82 51.79C224.51 51.79 224.19 51.79 223.82 51.74H215.23V46.03H219.52C219.637 46.0662 219.763 46.0662 219.88 46.03C219.932 45.9319 219.953 45.8202 219.94 45.71V44.45H228.79V47.3C228.881 47.9278 228.833 48.568 228.648 49.1748C228.463 49.7816 228.146 50.3402 227.72 50.8101C226.917 51.4763 225.891 51.8122 224.85 51.75L224.82 51.79ZM216.27 50.74H223.94C224.477 50.8636 225.034 50.8704 225.574 50.76C226.114 50.6496 226.624 50.4244 227.07 50.0999C227.39 49.7229 227.625 49.2809 227.758 48.8044C227.891 48.3279 227.919 47.8282 227.84 47.3398V45.45H220.99V45.73C221.018 45.9348 220.993 46.1435 220.916 46.3357C220.84 46.5279 220.715 46.6969 220.554 46.8267C220.393 46.9564 220.201 47.0426 219.997 47.0764C219.793 47.1103 219.584 47.0909 219.39 47.02H216.28L216.27 50.74ZM218.38 43.6799C217.969 43.7022 217.558 43.6429 217.17 43.5056C216.782 43.3683 216.425 43.1557 216.12 42.8799C215.36 42.1299 215.12 40.8799 215.27 39.1699V36.5999H224.12V37.8899C224.04 38.3499 224.12 38.45 224.12 38.45C224.12 38.45 224.22 38.52 224.58 38.45H228.58V43.6299H219.18C218.924 43.6513 218.666 43.6547 218.41 43.6399L218.38 43.6799ZM216.27 37.5999V39.26C216.1 40.66 216.27 41.6399 216.82 42.1599C217.139 42.4095 217.513 42.5818 217.91 42.6633C218.307 42.7449 218.718 42.7334 219.11 42.6299H227.57V39.45H224.67C224.452 39.5149 224.221 39.5234 223.999 39.4744C223.777 39.4254 223.57 39.3206 223.4 39.1699C223.243 38.9827 223.136 38.759 223.089 38.5195C223.042 38.28 223.056 38.0327 223.13 37.8V37.6099L216.27 37.5999ZM250.44 43.4299C250.106 43.4263 249.772 43.4028 249.44 43.3599H240.63V38.45H243.74C243.95 38.45 244.38 38.45 244.56 37.54V36.3499H253.68V39.73C253.762 40.2531 253.725 40.7878 253.573 41.2949C253.42 41.802 253.156 42.2684 252.8 42.6599C252.14 43.1825 251.31 43.4425 250.47 43.3899L250.44 43.4299ZM241.66 42.3599H249.53C249.97 42.4748 250.429 42.495 250.877 42.4192C251.325 42.3433 251.752 42.1732 252.13 41.9199C252.378 41.6241 252.558 41.2772 252.657 40.9038C252.755 40.5304 252.77 40.1398 252.7 39.76V37.3398H245.58V37.6299C245.27 39.2099 244.32 39.4399 243.77 39.4399H241.66V42.3599Z" fill="black"/>
<path d="M287.83 175.01V230.86C287.83 231.61 287.532 232.33 287.001 232.861C286.47 233.392 285.751 233.69 285 233.69H104.41V175.01H287.83Z" fill="#FAED26"/>
<path d="M92.9399 233.69H15C14.2494 233.69 13.5295 233.392 12.9988 232.861C12.4681 232.33 12.1699 231.61 12.1699 230.86V175.01H92.9399V233.69Z" fill="#FAED26"/>
<path d="M206.64 144.82L211.09 124.14H220.51L215.28 148.74C214.75 151.53 213.01 152.93 210.04 152.93H204.29V145.6H205.59C206.29 145.78 206.64 145.52 206.64 144.82ZM209.26 113.41L205.07 94.5701H213.71L216.85 107.92C216.67 108.61 217.11 108.92 218.16 108.7H220.25V116.55H214.25C210.91 116.9 209.26 115.86 209.26 113.45V113.41ZM225.48 144.03L227.84 130.68H237L233.6 148.48C233.247 151.1 231.327 152.41 227.84 152.41H222.08V145.08H223.91C224.96 145.26 225.48 144.91 225.48 144.03ZM222.61 106.08V97.71H228.89L229.89 94.5701H239.41L238.62 97.71H263.75V106.08H236.27L232.6 118.38H239.14V110.27H249.14V118.38H263.8V126.76H249.14V149.27C249.14 152.603 247.473 154.27 244.14 154.27H235.41V146.94H238.29C238.81 147.12 239.07 146.86 239.07 146.16V126.79H222.61V120.25L226.79 106.11L222.61 106.08ZM252.96 147.7L250.87 130.42H259.51L261.6 144.29C261.43 145.17 261.77 145.52 262.6 145.29H263.91V152.45H257.1C254.527 152.45 253.147 150.867 252.96 147.7Z" fill="white"/>
<path d="M244.07 154.74H234.93V146.45H238.57C238.576 146.34 238.576 146.23 238.57 146.12V127.25H222.11V120.07L226.11 106.57H222.11V97.2H228.53L229.53 94.0601H239.96L239.17 97.2H264.17V106.57H236.56L233.19 117.87H238.56V109.76H249.56V117.87H264.22V127.25H249.56V149.25C249.54 152.85 247.65 154.74 244.07 154.74ZM235.93 153.74H244.07C247.12 153.74 248.54 152.32 248.54 149.27V126.27H263.2V118.89H248.54V110.78H239.54V118.89H231.83L235.83 105.59H263.19V98.22H237.92L238.7 95.0798H230.28L229.28 98.22H223.14V105.59H227.49L223.14 120.3V126.3H239.62V146.17C239.645 146.387 239.617 146.607 239.539 146.81C239.461 147.014 239.334 147.196 239.17 147.34C239.038 147.429 238.887 147.486 238.728 147.505C238.57 147.525 238.409 147.505 238.26 147.45H235.96L235.93 153.74ZM210.04 153.43H203.79V145.1H205.72C205.837 145.136 205.963 145.136 206.08 145.1C206.13 145.001 206.151 144.89 206.14 144.78V144.67L210.67 123.6H221.12L215.76 148.81C215.2 151.84 213.22 153.45 210.04 153.45V153.43ZM204.79 152.43H210.04C212.76 152.43 214.31 151.2 214.79 148.65L219.89 124.65H211.49L207.14 144.88C207.151 145.079 207.117 145.279 207.039 145.462C206.961 145.646 206.841 145.81 206.69 145.94C206.523 146.053 206.333 146.127 206.134 146.156C205.935 146.186 205.732 146.17 205.54 146.11H204.79V152.43ZM264.46 152.91H257.15C255.15 152.91 252.71 152.01 252.47 147.74L250.31 129.92H259.94L262.11 144.31V144.39C262.04 144.76 262.11 144.86 262.11 144.86C262.11 144.86 262.22 144.92 262.58 144.86H264.49L264.46 152.91ZM251.46 130.91L253.46 147.66C253.62 150.55 254.79 151.9 257.15 151.9H263.46V145.83H262.65C262.432 145.894 262.203 145.903 261.981 145.856C261.759 145.809 261.552 145.707 261.38 145.56C261.231 145.387 261.126 145.179 261.076 144.956C261.025 144.733 261.03 144.501 261.09 144.28L259.09 130.91H251.46ZM227.87 152.91H221.61V144.58H223.94C224.43 144.66 224.73 144.58 224.87 144.51C224.926 144.445 224.968 144.368 224.992 144.285C225.016 144.202 225.023 144.115 225.01 144.03V143.95L227.44 130.18H237.62L234.11 148.57C233.7 151.45 231.6 152.91 227.84 152.91H227.87ZM222.61 151.91H227.87C231.09 151.91 232.87 150.76 233.13 148.41L236.42 131.18H228.29L226.01 144.08C226.021 144.304 225.983 144.527 225.898 144.734C225.814 144.942 225.685 145.128 225.52 145.28C225.281 145.446 225.009 145.558 224.722 145.608C224.435 145.658 224.141 145.645 223.86 145.57H222.61V151.91ZM213.06 117.12C211.899 117.2 210.751 116.843 209.84 116.12C209.484 115.776 209.206 115.36 209.025 114.899C208.844 114.438 208.764 113.944 208.79 113.45L204.48 94.05H214.13L217.39 107.9V108.02C217.379 108.08 217.379 108.14 217.39 108.2C217.64 108.258 217.9 108.258 218.15 108.2H220.83V117.05H214.31C213.885 117.1 213.458 117.124 213.03 117.12H213.06ZM205.72 95.0701L209.79 113.41C209.755 113.776 209.801 114.145 209.926 114.491C210.05 114.837 210.25 115.15 210.51 115.41C211.21 116.04 212.45 116.26 214.21 116.08H219.78V109.23H218.19C217.919 109.309 217.634 109.321 217.357 109.268C217.081 109.214 216.821 109.094 216.6 108.92C216.481 108.785 216.398 108.624 216.356 108.45C216.314 108.275 216.315 108.094 216.36 107.92L213.36 95.0701H205.72Z" fill="black"/>
<path d="M32.9099 190.13V185.18H37.5V183.34H43.9299V185.18H62.47V183.18H68.72V185.18H73.8599V190.13H68.72V192.34H74.0398V197.45H56.5999V199.65H73.3098V212.5C73.9231 217.167 71.5898 219.187 66.3098 218.56H64.1099L64.8398 219.48C64.8487 219.622 64.9135 219.755 65.02 219.85C65.2878 220.099 65.6026 220.292 65.946 220.417C66.2895 220.543 66.6548 220.598 67.02 220.58H74.02V225.17H63.5498C61.5998 224.92 60.31 224.44 59.7 223.7L55.48 218.56H51.99L46.99 223.33C46.3357 224.086 45.5142 224.679 44.5908 225.063C43.6674 225.447 42.6674 225.61 41.6699 225.54H33.0398V220.76H40.5698C40.9914 220.733 41.4034 220.622 41.7812 220.433C42.1591 220.244 42.4955 219.981 42.77 219.66L43.6899 218.56H33.5898V199.65H49.9299V197.45H32.9099V192.31H37.5V190.1L32.9099 190.13ZM49.8098 206.66V204.66H40.0798V206.66H49.8098ZM49.8098 211.66H40.0798V213.86H49.8098V211.66ZM43.9299 192.38H62.2898V190.18H43.9299V192.38ZM56.5999 206.7H67.0598V204.7H56.5999V206.7ZM67.25 211.7H56.78V213.9H66.7C67.06 213.9 67.25 213.65 67.25 213.16V211.7Z" fill="white"/>
<path d="M42.1599 226.08H32.5999V220.3H40.5999C40.9593 220.265 41.3083 220.159 41.626 219.987C41.9437 219.815 42.2238 219.582 42.45 219.3L42.6599 219.05H33.1299V199.14H49.47V197.94H32.4099V191.8H37V190.59H32.4099V184.64H37V182.8H44.4099V184.64H61.95V182.64H69.1899V184.64H74.4099V190.59H69.26V191.8H74.5898V197.94H57.1499V199.14H73.8599V212.49C74.1599 214.76 73.7499 216.49 72.6299 217.66C71.5099 218.83 69.2498 219.39 66.3198 219.05H65.21L65.4099 219.29V219.47C66.3399 220.11 66.8 220.13 66.99 220.09H74.5898V225.68H63.5898C61.4198 225.41 60.0499 224.87 59.3499 224.03L55.28 219.03H52.28L47.47 223.66C46.8145 224.426 45.9997 225.039 45.0825 225.457C44.1653 225.875 43.1678 226.088 42.1599 226.08ZM33.5999 225.08H41.73C42.6535 225.151 43.5809 225.008 44.4397 224.661C45.2985 224.314 46.0652 223.773 46.6799 223.08L51.8098 218.15H55.73L60.1099 223.47C60.6199 224.1 61.8099 224.54 63.6399 224.76H73.5398V221.17H67.1199C66.6892 221.199 66.2572 221.141 65.8499 220.998C65.4425 220.855 65.0683 220.631 64.75 220.34C64.5787 220.192 64.4537 219.997 64.3899 219.78L63.0798 218.15H66.3298C68.9998 218.46 70.8499 218.09 71.8699 217.06C72.8899 216.03 73.0698 214.67 72.8098 212.66V200.24H56.0999V197.04H73.5398V192.9H68.21V189.69H73.4099V185.74H68.26V183.74H63.02V185.74H43.4099V183.9H37.98V185.74H33.4099V189.69H38V192.9H33.4099V197.04H50.49V200.24H34.1499V218.15H44.8098L43.21 220.07C42.8869 220.447 42.4908 220.755 42.0457 220.975C41.6005 221.195 41.1156 221.322 40.6199 221.35H33.6199L33.5999 225.08ZM66.7 214.33H56.28V211.13H67.75V213.13C67.75 213.99 67.2 214.32 66.7 214.32V214.33ZM57.28 213.33H66.7C66.7 213.33 66.75 213.33 66.75 213.09V212.09H57.28V213.33ZM50.28 214.33H39.5498V211.13H50.28V214.33ZM40.5498 213.33H49.28V212.13H40.5498V213.33ZM67.5498 207.17H56.0898V204.17H67.5498V207.17ZM57.0898 206.17H66.5498V205.17H57.0898V206.17ZM50.2998 207.17H39.5698V204.17H50.2998V207.17ZM40.5698 206.17H49.2998V205.17H40.5698V206.17ZM62.78 192.85H43.4099V189.65H62.77L62.78 192.85ZM44.4199 191.85H61.78V190.65H44.4099L44.4199 191.85Z" fill="black"/>
<path d="M150.62 189.45H164.41V195.91H156.23V201.16H163.23V207.23H156.23V219.51H150.63V189.45H150.62Z" fill="white"/>
<path d="M156.71 220.03H150.12V188.97H164.9V196.45H156.71V200.7H163.71V207.77H156.71V220.03ZM151.12 219.03H155.71V206.75H162.71V201.68H155.71V195.45H163.9V189.99H151.12V219.03Z" fill="black"/>
<path d="M167.47 219.53V189.45H176.76C178.133 189.366 179.505 189.617 180.76 190.18C181.787 190.815 182.566 191.782 182.97 192.92C184.008 195.885 184.074 199.104 183.16 202.11C182.804 203.211 182.202 204.217 181.4 205.05C180.829 205.59 180.146 205.996 179.4 206.24C179.949 206.519 180.444 206.895 180.86 207.35C181.206 207.847 181.505 208.376 181.75 208.93C182.056 209.533 182.317 210.158 182.53 210.8L185.23 219.51H178.93L175.93 210.32C175.724 209.498 175.386 208.714 174.93 208C174.767 207.791 174.559 207.62 174.323 207.501C174.086 207.381 173.825 207.316 173.56 207.31H173.07V219.51L167.47 219.53ZM175.41 201.65C175.92 201.583 176.418 201.445 176.89 201.24C177.098 201.151 177.286 201.022 177.442 200.858C177.599 200.695 177.72 200.502 177.8 200.29C178.042 199.742 178.161 199.149 178.15 198.55C178.198 197.767 178.002 196.988 177.59 196.32C177.332 196.031 177.008 195.809 176.646 195.674C176.284 195.538 175.894 195.492 175.51 195.54H173.06V201.65H175.41Z" fill="white"/>
<path d="M173.57 220.03H166.97V188.97H176.76C178.2 188.892 179.637 189.163 180.95 189.76C182.081 190.45 182.94 191.51 183.38 192.76C183.999 194.373 184.294 196.093 184.25 197.82C184.283 199.344 184.056 200.862 183.58 202.31C183.193 203.475 182.555 204.54 181.71 205.43C181.341 205.799 180.916 206.106 180.45 206.34C180.737 206.549 180.999 206.791 181.23 207.06C181.62 207.584 181.955 208.147 182.23 208.74C182.544 209.367 182.814 210.016 183.04 210.68L185.93 220.04H178.59L175.5 210.5C175.319 209.736 175.008 209.008 174.58 208.35C174.464 208.193 174.313 208.066 174.14 207.978C173.966 207.889 173.775 207.842 173.58 207.84L173.57 220.03ZM167.97 219.03H172.57V206.83H173.57C173.908 206.835 174.241 206.915 174.544 207.066C174.847 207.217 175.112 207.433 175.32 207.7C175.83 208.46 176.205 209.303 176.43 210.19L179.29 219.03H184.55L182.05 210.96C181.842 210.347 181.591 209.749 181.3 209.17C181.076 208.649 180.798 208.153 180.47 207.69C180.1 207.277 179.656 206.938 179.16 206.69L178.22 206.16L179.22 205.78C179.882 205.552 180.488 205.187 181 204.71C181.744 203.923 182.304 202.98 182.64 201.95C183.076 200.611 183.282 199.208 183.25 197.8C183.293 196.206 183.022 194.619 182.45 193.13C182.09 192.092 181.384 191.209 180.45 190.63C179.28 190.116 178.005 189.887 176.73 189.96H167.94L167.97 219.03ZM175.42 202.15H172.57V195.04H175.57C176.035 194.99 176.506 195.054 176.94 195.229C177.374 195.403 177.759 195.682 178.06 196.04C178.532 196.793 178.759 197.673 178.71 198.56C178.725 199.248 178.589 199.931 178.31 200.56C178.206 200.835 178.046 201.084 177.839 201.293C177.632 201.501 177.384 201.664 177.11 201.77C176.57 201.997 175.995 202.125 175.41 202.15H175.42ZM173.57 201.15H175.41C175.862 201.084 176.303 200.956 176.72 200.77C176.865 200.704 176.995 200.608 177.102 200.49C177.208 200.371 177.29 200.231 177.34 200.08C177.553 199.598 177.659 199.077 177.65 198.55C177.693 197.872 177.533 197.196 177.19 196.61C176.973 196.392 176.708 196.227 176.417 196.128C176.125 196.03 175.815 195.999 175.51 196.04H173.51L173.57 201.15Z" fill="black"/>
<path d="M185.87 204.52C185.87 199.607 186.69 195.783 188.33 193.05C189.006 191.815 190.001 190.784 191.211 190.063C192.421 189.342 193.801 188.959 195.209 188.952C196.617 188.944 198.002 189.314 199.219 190.023C200.436 190.731 201.441 191.752 202.13 192.98C203.75 195.647 204.56 199.41 204.56 204.27C204.639 207.19 204.282 210.106 203.5 212.92C202.945 214.907 201.884 216.716 200.42 218.17C199.062 219.424 197.267 220.095 195.42 220.04C193.616 220.11 191.844 219.547 190.41 218.45C188.878 217.073 187.754 215.302 187.16 213.33C186.237 210.487 185.801 207.508 185.87 204.52ZM191.44 204.52C191.44 207.52 191.78 209.74 192.44 211.06C192.652 211.628 193.027 212.121 193.518 212.477C194.009 212.832 194.594 213.035 195.2 213.06C195.806 213.054 196.396 212.864 196.892 212.516C197.388 212.168 197.768 211.678 197.98 211.11C198.647 209.777 198.98 207.443 198.98 204.11C199.118 201.994 198.776 199.875 197.98 197.91C197.764 197.339 197.383 196.844 196.887 196.489C196.39 196.133 195.8 195.931 195.19 195.91C194.592 195.936 194.015 196.14 193.534 196.497C193.052 196.853 192.689 197.345 192.49 197.91C191.78 199.3 191.41 201.5 191.41 204.56L191.44 204.52Z" fill="white"/>
<path d="M195.41 220.54C193.473 220.61 191.572 219.997 190.04 218.81C188.439 217.37 187.264 215.52 186.64 213.46C185.722 210.571 185.293 207.55 185.37 204.52C185.37 199.52 186.22 195.6 187.9 192.8C188.619 191.49 189.674 190.396 190.958 189.631C192.242 188.866 193.707 188.458 195.201 188.45C196.696 188.442 198.165 188.834 199.457 189.584C200.749 190.335 201.817 191.418 202.55 192.72C204.22 195.48 205.06 199.36 205.06 204.27C205.139 207.241 204.772 210.208 203.97 213.07C203.392 215.138 202.286 217.019 200.76 218.53C199.309 219.875 197.388 220.597 195.41 220.54ZM195.19 189.45C193.865 189.429 192.56 189.779 191.424 190.462C190.287 191.144 189.365 192.13 188.76 193.31C187.17 195.96 186.37 199.73 186.37 204.52C186.294 207.437 186.703 210.347 187.58 213.13C188.148 215.013 189.216 216.706 190.67 218.03C192.026 219.07 193.702 219.605 195.41 219.54C197.135 219.598 198.813 218.973 200.08 217.8C201.472 216.413 202.485 214.691 203.02 212.8C203.772 210.032 204.109 207.167 204.02 204.3C204.02 199.58 203.23 195.87 201.66 193.3C201.044 192.121 200.114 191.137 198.971 190.457C197.828 189.778 196.519 189.429 195.19 189.45ZM195.19 213.59C194.492 213.569 193.816 213.344 193.245 212.942C192.674 212.54 192.235 211.98 191.98 211.33C191.26 209.92 190.91 207.7 190.91 204.56C190.91 201.42 191.27 199.16 191.99 197.75C192.236 197.106 192.666 196.549 193.226 196.147C193.786 195.745 194.451 195.517 195.14 195.49C195.836 195.506 196.512 195.724 197.086 196.119C197.659 196.513 198.106 197.066 198.37 197.71C199.222 199.744 199.595 201.948 199.46 204.15C199.46 207.62 199.12 209.99 198.46 211.37C198.201 212.019 197.754 212.577 197.177 212.972C196.6 213.367 195.919 213.582 195.22 213.59H195.19ZM195.19 196.49C194.687 196.522 194.205 196.701 193.803 197.005C193.401 197.309 193.098 197.725 192.93 198.2C192.29 199.45 191.93 201.59 191.93 204.56C191.93 207.53 192.26 209.63 192.93 210.87C193.09 211.362 193.402 211.791 193.82 212.095C194.239 212.399 194.743 212.562 195.26 212.562C195.777 212.562 196.281 212.399 196.7 212.095C197.119 211.791 197.43 211.362 197.59 210.87C198.2 209.65 198.52 207.37 198.52 204.1C198.639 202.05 198.297 200 197.52 198.1C197.33 197.627 197.007 197.219 196.59 196.926C196.173 196.633 195.679 196.468 195.17 196.45L195.19 196.49Z" fill="black"/>
<path d="M206.59 209.58L211.89 209.03C211.935 210.156 212.175 211.266 212.6 212.31C212.773 212.83 213.103 213.284 213.542 213.612C213.982 213.939 214.512 214.123 215.06 214.14C215.422 214.155 215.781 214.077 216.104 213.912C216.426 213.747 216.7 213.502 216.9 213.2C217.307 212.566 217.524 211.828 217.524 211.075C217.524 210.321 217.307 209.584 216.9 208.95C216.138 208.1 215.143 207.492 214.04 207.2C211.964 206.548 210.138 205.274 208.81 203.55C207.704 201.823 207.156 199.799 207.24 197.75C207.232 196.252 207.507 194.766 208.05 193.37C208.523 192.077 209.365 190.951 210.47 190.13C211.789 189.279 213.343 188.866 214.91 188.95C215.894 188.887 216.879 189.048 217.792 189.421C218.704 189.793 219.521 190.367 220.18 191.1C221.393 192.527 222.113 194.797 222.34 197.91L217.08 198.43C217.047 197.371 216.744 196.339 216.2 195.43C215.993 195.134 215.715 194.895 215.392 194.734C215.069 194.574 214.711 194.497 214.35 194.51C214.068 194.492 213.786 194.546 213.531 194.667C213.276 194.787 213.055 194.971 212.89 195.2C212.551 195.69 212.38 196.275 212.4 196.87C212.393 197.331 212.533 197.783 212.8 198.16C213.297 198.709 213.949 199.096 214.67 199.27C216.555 199.853 218.327 200.752 219.91 201.93C220.959 202.816 221.753 203.965 222.21 205.26C222.707 206.69 222.951 208.196 222.93 209.71C222.936 211.534 222.597 213.343 221.93 215.04C221.408 216.504 220.478 217.787 219.25 218.74C217.974 219.618 216.448 220.06 214.9 220C211.827 220 209.703 219 208.53 217C207.296 214.719 206.63 212.173 206.59 209.58Z" fill="white"/>
<path d="M214.97 220.54C211.73 220.54 209.44 219.47 208.17 217.35C206.856 214.978 206.141 212.321 206.09 209.61V209.14L212.37 208.48V208.99C212.411 210.057 212.635 211.108 213.03 212.1C213.168 212.529 213.433 212.907 213.79 213.182C214.147 213.457 214.58 213.617 215.03 213.64C215.31 213.655 215.59 213.596 215.841 213.47C216.092 213.344 216.305 213.154 216.46 212.92C216.829 212.363 217.021 211.708 217.01 211.04C217.024 210.393 216.839 209.758 216.48 209.22C215.775 208.466 214.869 207.928 213.87 207.67C211.7 206.978 209.792 205.642 208.4 203.84C207.239 202.027 206.659 199.902 206.74 197.75C206.732 196.191 207.016 194.644 207.58 193.19C208.09 191.808 208.994 190.605 210.18 189.73C211.58 188.811 213.237 188.362 214.91 188.45C215.966 188.385 217.023 188.559 218.001 188.961C218.98 189.363 219.855 189.981 220.56 190.77C221.83 192.28 222.56 194.67 222.84 197.88V198.37L216.61 198.97L216.56 198.48C216.523 197.525 216.252 196.595 215.77 195.77C215.609 195.537 215.392 195.348 215.138 195.222C214.884 195.096 214.603 195.037 214.32 195.05C214.117 195.033 213.913 195.068 213.727 195.152C213.542 195.236 213.381 195.366 213.26 195.53C212.987 195.938 212.847 196.42 212.86 196.91C212.857 197.269 212.969 197.619 213.18 197.91C213.3 198.1 213.66 198.44 214.81 198.84C216.75 199.438 218.573 200.365 220.2 201.58C221.316 202.526 222.162 203.751 222.65 205.13C223.162 206.616 223.416 208.178 223.4 209.75C223.415 211.633 223.076 213.502 222.4 215.26C221.845 216.813 220.856 218.173 219.55 219.18C218.208 220.112 216.603 220.589 214.97 220.54ZM207.12 210.03C207.209 212.416 207.864 214.746 209.03 216.83C210.12 218.66 212.03 219.54 214.97 219.54C216.409 219.596 217.829 219.189 219.02 218.38C220.17 217.481 221.04 216.274 221.53 214.9C222.164 213.258 222.479 211.51 222.46 209.75C222.477 208.294 222.243 206.847 221.77 205.47C221.338 204.258 220.592 203.181 219.61 202.35C218.074 201.212 216.357 200.343 214.53 199.78C213.707 199.573 212.967 199.119 212.41 198.48C212.088 198.02 211.917 197.471 211.92 196.91C211.893 196.197 212.1 195.494 212.51 194.91C212.723 194.617 213.005 194.381 213.332 194.224C213.658 194.067 214.018 193.994 214.38 194.01C214.821 193.996 215.258 194.092 215.653 194.289C216.047 194.487 216.386 194.779 216.64 195.14C217.153 195.955 217.465 196.88 217.55 197.84L221.83 197.42C221.57 194.68 220.9 192.65 219.83 191.42C219.221 190.735 218.465 190.199 217.617 189.853C216.769 189.506 215.854 189.358 214.94 189.42C213.477 189.34 212.025 189.721 210.79 190.51C209.768 191.273 208.986 192.315 208.54 193.51C208.024 194.85 207.763 196.274 207.77 197.71C207.691 199.658 208.207 201.583 209.25 203.23C210.525 204.868 212.269 206.079 214.25 206.7C215.45 207.019 216.527 207.691 217.34 208.63C217.808 209.33 218.053 210.157 218.04 211C218.051 211.872 217.796 212.726 217.31 213.45C217.064 213.817 216.728 214.115 216.334 214.317C215.94 214.518 215.502 214.615 215.06 214.6C214.415 214.588 213.789 214.379 213.266 213.999C212.744 213.62 212.351 213.09 212.14 212.48C211.752 211.543 211.515 210.551 211.44 209.54L207.12 210.03Z" fill="black"/>
<path d="M224.49 189.45H241.49V196.87H235.8V219.51H230.23V196.87H224.54V189.45H224.49Z" fill="white"/>
<path d="M236.25 220.03H229.68V197.39H223.99V188.97H241.99V197.39H236.3L236.25 220.03ZM230.68 219.03H235.25V196.39H240.94V189.97H224.94V196.39H230.63L230.68 219.03Z" fill="black"/>
<path d="M144.14 147.03H37.1399C34.8864 147.027 32.7258 146.131 31.1323 144.537C29.5388 142.944 28.6425 140.784 28.6399 138.53V34.53C28.6399 32.2757 29.5353 30.1136 31.1294 28.5195C32.7235 26.9255 34.8856 26.03 37.1399 26.03C39.3942 26.03 41.5563 26.9255 43.1504 28.5195C44.7444 30.1136 45.6399 32.2757 45.6399 34.53V130.03H135.64V34.53C135.64 32.2757 136.535 30.1136 138.129 28.5195C139.723 26.9255 141.886 26.03 144.14 26.03C146.394 26.03 148.556 26.9255 150.15 28.5195C151.744 30.1136 152.64 32.2757 152.64 34.53V138.53C152.64 140.784 151.744 142.946 150.15 144.54C148.556 146.134 146.394 147.03 144.14 147.03ZM90.6399 65.1499L80.28 47.21C79.7702 46.2711 79.0773 45.4439 78.2427 44.7771C77.408 44.1103 76.4484 43.6175 75.4202 43.3276C74.3919 43.0378 73.3161 42.9569 72.2561 43.0896C71.1961 43.2223 70.1731 43.5658 69.248 44.1001C68.323 44.6344 67.5145 45.3487 66.8699 46.2007C66.2253 47.0526 65.7578 48.025 65.4951 49.0605C65.2324 50.0961 65.1798 51.1736 65.3403 52.2297C65.5009 53.2859 65.8714 54.2993 66.4299 55.21L76.78 73.1499H56.0698C53.9481 73.1499 51.9134 73.9929 50.4131 75.4932C48.9128 76.9935 48.0698 79.0282 48.0698 81.1499C48.0698 83.2716 48.9128 85.3066 50.4131 86.8069C51.9134 88.3072 53.9481 89.1499 56.0698 89.1499H76.7898L66.4099 107.09C65.8844 108 65.5434 109.005 65.4062 110.046C65.2691 111.088 65.3385 112.147 65.6106 113.162C65.8827 114.177 66.3521 115.128 66.9919 115.962C67.6318 116.795 68.4296 117.495 69.3398 118.02C70.5547 118.725 71.9352 119.094 73.3398 119.09C74.7461 119.092 76.1283 118.723 77.3467 118.021C78.5651 117.319 79.5769 116.308 80.28 115.09L90.6299 97.1499L100.99 115.09C102.051 116.928 103.798 118.269 105.848 118.819C107.898 119.368 110.082 119.081 111.92 118.02C113.758 116.959 115.099 115.212 115.649 113.162C116.198 111.112 115.911 108.928 114.85 107.09L104.49 89.1499H125.2C127.322 89.1499 129.356 88.3072 130.857 86.8069C132.357 85.3066 133.2 83.2716 133.2 81.1499C133.2 79.0282 132.357 76.9935 130.857 75.4932C129.356 73.9929 127.322 73.1499 125.2 73.1499H104.49L114.85 55.21C115.375 54.2999 115.716 53.2952 115.853 52.2534C115.99 51.2116 115.921 50.1531 115.649 49.1382C115.377 48.1232 114.907 47.1717 114.267 46.3381C113.628 45.5046 112.83 44.8053 111.92 44.28C111.01 43.7547 110.005 43.4136 108.963 43.2766C107.922 43.1396 106.863 43.2091 105.848 43.4812C104.833 43.7533 103.882 44.2228 103.048 44.8625C102.215 45.5023 101.515 46.2999 100.99 47.21L90.6299 65.1499" fill="#FAED26"/>
<path d="M144.14 147.53H37.1399C34.7529 147.53 32.4637 146.582 30.7759 144.894C29.0881 143.206 28.1399 140.917 28.1399 138.53V34.53C28.1399 32.1431 29.0881 29.8538 30.7759 28.166C32.4637 26.4782 34.7529 25.53 37.1399 25.53C39.5268 25.53 41.8161 26.4782 43.5039 28.166C45.1917 29.8538 46.1399 32.1431 46.1399 34.53V129.53H135.14V34.53C135.14 32.1431 136.088 29.8538 137.776 28.166C139.464 26.4782 141.753 25.53 144.14 25.53C146.527 25.53 148.816 26.4782 150.504 28.166C152.192 29.8538 153.14 32.1431 153.14 34.53V138.53C153.14 140.917 152.192 143.206 150.504 144.894C148.816 146.582 146.527 147.53 144.14 147.53ZM37.1399 26.53C35.0182 26.53 32.9834 27.3728 31.4832 28.873C29.9829 30.3733 29.1399 32.4083 29.1399 34.53V138.53C29.1399 140.652 29.9829 142.686 31.4832 144.187C32.9834 145.687 35.0182 146.53 37.1399 146.53H144.14C146.262 146.53 148.297 145.687 149.797 144.187C151.297 142.686 152.14 140.652 152.14 138.53V34.53C152.14 32.4083 151.297 30.3733 149.797 28.873C148.297 27.3728 146.262 26.53 144.14 26.53C142.018 26.53 139.983 27.3728 138.483 28.873C136.983 30.3733 136.14 32.4083 136.14 34.53V130.53H45.1399V34.53C45.1399 32.4083 44.2972 30.3733 42.7969 28.873C41.2966 27.3728 39.2616 26.53 37.1399 26.53ZM73.3499 119.59C71.8587 119.588 70.3944 119.194 69.1038 118.447C67.8132 117.7 66.7418 116.627 65.9971 115.335C65.2524 114.043 64.8606 112.578 64.8611 111.087C64.8616 109.596 65.2544 108.131 66 106.84L75.9199 89.6499H56.0698C53.8155 89.6499 51.6536 88.7545 50.0596 87.1604C48.4655 85.5663 47.5698 83.4042 47.5698 81.1499C47.5698 78.8956 48.4655 76.7337 50.0596 75.1396C51.6536 73.5456 53.8155 72.6499 56.0698 72.6499H75.9199L66 55.46C64.8731 53.5079 64.5677 51.1882 65.1509 49.011C65.7341 46.8338 67.1581 44.9772 69.1099 43.8499C71.0632 42.7284 73.3812 42.426 75.5569 43.0088C77.7325 43.5916 79.5888 45.0122 80.72 46.96L90.6399 64.1499L100.57 46.96C101.118 45.9748 101.857 45.1087 102.744 44.4119C103.63 43.715 104.646 43.2014 105.733 42.9011C106.82 42.6008 107.955 42.5197 109.074 42.6626C110.192 42.8054 111.271 43.1693 112.247 43.7332C113.224 44.297 114.078 45.0495 114.761 45.9468C115.444 46.844 115.941 47.8681 116.224 48.9595C116.508 50.0508 116.571 51.1874 116.41 52.3035C116.25 53.4195 115.869 54.4926 115.29 55.46L105.41 72.6499H125.25C127.504 72.6499 129.666 73.5456 131.26 75.1396C132.854 76.7337 133.75 78.8956 133.75 81.1499C133.75 83.4042 132.854 85.5663 131.26 87.1604C129.666 88.7545 127.504 89.6499 125.25 89.6499H105.36C106.04 90.7499 107.36 93.0499 110.15 97.8699L115.33 106.87C115.909 107.837 116.29 108.91 116.45 110.026C116.611 111.142 116.548 112.279 116.264 113.371C115.981 114.462 115.484 115.486 114.801 116.383C114.118 117.281 113.264 118.033 112.287 118.597C111.311 119.16 110.232 119.524 109.114 119.667C107.995 119.81 106.86 119.729 105.773 119.429C104.686 119.128 103.67 118.615 102.784 117.918C101.897 117.221 101.158 116.355 100.61 115.37L90.6799 98.1699C90.4199 98.6399 90.04 99.3 89.5 100.23L80.76 115.37C80.0022 116.66 78.919 117.729 77.6187 118.47C76.3183 119.21 74.8463 119.596 73.3499 119.59ZM73.3499 43.71C72.0401 43.7082 70.7532 44.0533 69.6199 44.71C67.8978 45.7037 66.6409 47.3406 66.1252 49.2607C65.6096 51.1809 65.8774 53.2272 66.8699 54.95L77.6599 73.6399H56.0798C54.0907 73.6399 52.1831 74.4301 50.7766 75.8367C49.3701 77.2432 48.5798 79.1508 48.5798 81.1399C48.5798 83.129 49.3701 85.0368 50.7766 86.4434C52.1831 87.8499 54.0907 88.6399 56.0798 88.6399H77.6599L66.8699 107.33C66.3774 108.183 66.058 109.126 65.9297 110.103C65.8014 111.08 65.8667 112.073 66.1221 113.024C66.3774 113.976 66.8178 114.869 67.418 115.65C68.0181 116.432 68.7663 117.087 69.6199 117.58C70.4735 118.072 71.4157 118.392 72.3928 118.52C73.3699 118.649 74.3627 118.583 75.3145 118.328C76.2663 118.073 77.1586 117.632 77.9402 117.032C78.7218 116.432 79.3774 115.683 79.8699 114.83C79.8699 114.83 88.8698 99.2999 90.0798 97.1399L88.3298 94.1399L90.5498 96.3599L90.6599 96.1799L91.0598 96.8699C91.0973 96.9094 91.1248 96.9576 91.1399 97.01L101.45 114.87C102.445 116.594 104.083 117.852 106.005 118.368C107.928 118.883 109.976 118.614 111.7 117.62C113.424 116.625 114.682 114.987 115.198 113.064C115.713 111.142 115.445 109.094 114.45 107.37L104.07 89.45L103.63 88.7H125.21C127.199 88.7 129.107 87.9097 130.513 86.5032C131.92 85.0966 132.71 83.1891 132.71 81.2C132.71 79.2108 131.92 77.3033 130.513 75.8967C129.107 74.4902 127.199 73.7 125.21 73.7H103.63L114.42 55.01C115.413 53.2885 115.683 51.243 115.169 49.323C114.655 47.403 113.4 45.7654 111.68 44.77C109.962 43.7648 107.916 43.4824 105.99 43.9849C104.065 44.4874 102.417 45.7337 101.41 47.45L91.0698 65.45L90.6399 65.2L90.21 65.45L79.8499 47.45C79.1883 46.3102 78.2384 45.3645 77.0957 44.708C75.953 44.0515 74.6577 43.7074 73.3398 43.71H73.3499Z" fill="black"/>
</svg>
