<svg width="300" height="246" viewBox="0 0 300 246" fill="none" xmlns="http://www.w3.org/2000/svg">
<path d="M288 0H12C8.8174 0 5.76509 1.26433 3.51465 3.51477C1.26421 5.7652 0 8.81752 0 12.0001V234C0 237.183 1.26421 240.235 3.51465 242.485C5.76509 244.736 8.8174 246 12 246H288C291.183 246 294.235 244.736 296.485 242.485C298.736 240.235 300 237.183 300 234V12.0001C300 8.81752 298.736 5.7652 296.485 3.51477C294.235 1.26433 291.183 0 288 0Z" fill="#61707E"/>
<path d="M166.28 12.2999H15C14.2485 12.3026 13.5287 12.6031 12.9983 13.1354C12.4678 13.6677 12.1699 14.3885 12.1699 15.14V159.8C12.1699 160.55 12.4681 161.27 12.9988 161.801C13.5295 162.332 14.2494 162.63 15 162.63H166.28C167.031 162.63 167.75 162.332 168.281 161.801C168.812 161.27 169.11 160.55 169.11 159.8V15.14C169.11 14.3885 168.812 13.6677 168.282 13.1354C167.751 12.6031 167.032 12.3026 166.28 12.2999Z" fill="#D3E2E2"/>
<path d="M181.02 12.2999H285.02C285.772 12.3026 286.491 12.6031 287.022 13.1354C287.552 13.6677 287.85 14.3885 287.85 15.14V162.63H181.02V12.2999Z" fill="#3265FE"/>
<path d="M205.07 27.38V22.14H264.74V27.38H239.62V29.7301H264.74V51.19H255.84V34.9601H239.62V51.4501H230.72V34.9601H213.72V51.19H205.08V29.7301H230.73V27.38H205.07ZM216.07 55.38V52.5001H223.92V55.12H233.87V60.61H223.92V81.8099H216.07V60.88H205.07V55.38H216.07ZM205.07 76.8399H205.59C206.12 76.8399 206.38 76.3999 206.38 75.5299V62.7101H214.49V75.7899C214.837 79.9765 213.007 81.8966 209 81.5499H205.07V76.8399ZM215.8 39.15V37.0599H223.65V37.8399C223.48 38.7199 223.82 39.07 224.7 38.89H228.1V43.0799H219.2C216.59 43.4299 215.41 42.12 215.8 39.15ZM223.91 51.15H215.8V46.44H219.47C220.16 46.62 220.47 46.35 220.47 45.66V44.88H228.41V47.2401C228.54 50.2301 227.05 51.54 223.91 51.19V51.15ZM224.96 62.67H232.29V75.2301C232.11 76.1001 232.46 76.5399 233.29 76.5399H234.07V81.5399H230.14C226.41 81.7199 224.61 80.2399 224.96 77.0999V62.67ZM258.72 81.7699H235.72V53.5099H264.51V76.88C264.843 80.34 262.913 81.9832 258.72 81.8099V81.7699ZM253.23 51.15H245.11C241.97 51.5 240.57 50.3701 240.93 47.7501V45.13H248.25V45.66C248.077 46.18 248.41 46.44 249.25 46.44H253.18V51.15H253.23ZM241.23 42.7799V38.88H243.84C244.54 38.88 244.98 38.4499 245.15 37.5699V36.7899H253.27V39.67C253.437 42.11 252.213 43.1566 249.6 42.8099L241.23 42.7799ZM255.88 59.5299H243.88V61.88H255.88V59.5299ZM243.88 69.4701H255.88V66.88H243.88V69.5001V69.4701ZM255.88 75.2301V74.44H243.88V76.88H254.35C254.561 76.898 254.773 76.8677 254.97 76.7913C255.168 76.715 255.345 76.5943 255.489 76.439C255.632 76.2838 255.738 76.0977 255.799 75.8951C255.86 75.6925 255.874 75.4786 255.84 75.2699L255.88 75.2301Z" fill="white"/>
<path d="M259.29 82.3199H235.19V53.0599H264.98V76.88C265.107 77.5844 265.076 78.308 264.891 78.9994C264.706 79.6907 264.371 80.3328 263.91 80.88C262.96 81.82 261.41 82.3199 259.29 82.3199ZM236.19 81.3199H258.74C260.86 81.4199 262.35 81.01 263.18 80.13C263.543 79.6836 263.802 79.1627 263.941 78.6043C264.079 78.046 264.092 77.4641 263.98 76.9V54.0599H236.19V81.3199ZM224.41 82.3199H215.56V61.38H204.56V54.88H215.56V52.0001H224.41V54.62H234.41V61.11H224.41V82.3199ZM216.56 81.3199H223.41V60.12H233.41V55.63H223.41V53.0099H216.56V55.88H205.56V60.38H216.56V81.3199ZM209.87 82.0999C209.58 82.0999 209.27 82.0999 208.95 82.0999H204.57V76.39H205.57C205.81 76.39 205.86 75.9499 205.86 75.5799V62.2599H214.97V75.8399C215.16 78.0799 214.72 79.7799 213.65 80.8399C213.133 81.2868 212.533 81.6274 211.885 81.8419C211.236 82.0564 210.551 82.1406 209.87 82.0899V82.0999ZM205.57 81.0999H208.99C210.84 81.2599 212.16 80.9299 212.99 80.0999C213.82 79.2699 214.18 77.8299 213.99 75.8499V63.2301H206.88V75.5499C206.88 77.1199 206.07 77.3599 205.59 77.3599L205.57 81.0999ZM229.62 82.0999C228.859 82.1734 228.092 82.0886 227.366 81.8512C226.639 81.6137 225.97 81.2287 225.4 80.7201C224.987 80.225 224.688 79.6445 224.525 79.0203C224.363 78.3962 224.341 77.7438 224.46 77.1099V62.2501H232.79V75.3099C232.72 75.6799 232.73 75.8901 232.79 75.9801C232.863 76.0366 232.947 76.0779 233.036 76.1019C233.125 76.1259 233.218 76.1321 233.31 76.12H234.6V82.12H229.6L229.62 82.0999ZM225.46 63.2501V77.2501C225.357 77.7437 225.364 78.2536 225.48 78.7442C225.596 79.2349 225.817 79.6943 226.13 80.0899C226.86 80.8699 228.23 81.23 230.13 81.14H233.58V77.14H233.29C233.05 77.1602 232.809 77.1247 232.585 77.0362C232.361 76.9477 232.161 76.8087 232 76.63C231.855 76.4308 231.758 76.2009 231.716 75.9581C231.674 75.7153 231.69 75.4661 231.76 75.2301V63.2301L225.46 63.2501ZM254.27 77.38H243.27V74.0199H256.27V75.3099C256.292 75.5795 256.256 75.8507 256.164 76.1051C256.071 76.3594 255.925 76.5908 255.735 76.7835C255.545 76.9762 255.316 77.1258 255.063 77.2218C254.811 77.3178 254.54 77.3581 254.27 77.3399V77.38ZM244.27 76.38H254.27C255.04 76.38 255.34 76.0799 255.34 75.3099V75.0199H244.34L244.27 76.38ZM256.27 70.0499H243.27V66.43H256.27V70.0499ZM244.27 69.0499H255.27V67.43H244.27V69.0499ZM256.27 62.4601H243.27V59.11H256.27V62.4601ZM244.27 61.4601H255.27V60.11H244.27V61.4601ZM240.09 51.9901H230.19V35.5001H214.19V51.7301H204.55V29.2699H230.2V27.88H204.55V21.64H265.22V27.88H240.1V29.2301H265.22V51.69H255.32V35.4601H240.1L240.09 51.9901ZM231.19 50.9901H239.09V34.5001H256.31V50.7301H264.21V30.2699H239.09V26.88H264.21V22.64H205.54V26.88H231.19V30.2301H205.54V50.69H213.18V34.4601H231.18L231.19 50.9901ZM244.01 51.7999C243.49 51.8377 242.968 51.7685 242.476 51.5965C241.984 51.4245 241.533 51.1533 241.15 50.7999C240.794 50.3825 240.54 49.8873 240.41 49.3541C240.28 48.8209 240.276 48.2648 240.4 47.7301V44.68H248.73V45.86C248.68 45.86 248.8 45.9901 249.3 45.9901H253.73V51.7001H245.11C244.754 51.7387 244.397 51.7585 244.04 51.7599L244.01 51.7999ZM241.39 45.7101V47.8299C241.289 48.2238 241.278 48.6358 241.36 49.0343C241.441 49.4328 241.612 49.8074 241.86 50.13C242.42 50.71 243.49 50.9101 245.03 50.7301H252.7V47.0199H249.27C249.011 47.0519 248.748 47.0236 248.501 46.9369C248.255 46.8501 248.032 46.7073 247.85 46.5199C247.767 46.4043 247.711 46.2715 247.687 46.1312C247.663 45.9909 247.67 45.8469 247.71 45.7101H241.39ZM224.81 51.7899C224.492 51.7889 224.175 51.7691 223.86 51.7301H215.27V46.0199H219.56C219.677 46.0561 219.803 46.0561 219.92 46.0199C219.968 45.9205 219.989 45.8102 219.98 45.7001V44.41H228.83V47.2599C228.922 47.8892 228.873 48.531 228.688 49.1395C228.503 49.748 228.186 50.3081 227.76 50.7799C226.946 51.4645 225.901 51.8118 224.84 51.7501L224.81 51.7899ZM216.27 50.7301H223.94C224.477 50.8557 225.035 50.8633 225.575 50.7528C226.115 50.6423 226.625 50.4162 227.07 50.0899C227.39 49.713 227.625 49.271 227.758 48.7945C227.891 48.318 227.919 47.8183 227.84 47.3299V45.4501H220.99V45.7401C221.016 45.9442 220.989 46.1514 220.912 46.3421C220.835 46.5329 220.71 46.7007 220.549 46.8292C220.389 46.9577 220.198 47.0426 219.995 47.076C219.792 47.1095 219.583 47.0901 219.39 47.0199H216.28L216.27 50.7301ZM218.38 43.67C217.969 43.6945 217.557 43.6363 217.169 43.4989C216.781 43.3615 216.424 43.1476 216.12 42.87C215.36 42.13 215.12 40.87 215.27 39.16V36.6H224.12V37.88C224.04 38.34 224.12 38.4501 224.12 38.4501C224.12 38.4501 224.22 38.5101 224.58 38.4501H228.58V43.64H219.18C218.923 43.655 218.666 43.6516 218.41 43.63L218.38 43.67ZM216.27 37.6V39.2501C216.1 40.6601 216.27 41.64 216.82 42.16C217.142 42.4052 217.515 42.574 217.912 42.6537C218.309 42.7334 218.718 42.7218 219.11 42.62H227.57V39.43H224.67C224.452 39.495 224.221 39.5034 223.999 39.4544C223.777 39.4055 223.57 39.3007 223.4 39.15C223.242 38.9633 223.135 38.7395 223.088 38.4999C223.04 38.2602 223.055 38.0124 223.13 37.7799V37.6H216.27ZM250.44 43.42C250.105 43.4217 249.771 43.3982 249.44 43.35H240.63V38.42H243.74C243.95 38.42 244.38 38.4199 244.56 37.5099V36.3299H253.68V39.7001C253.762 40.2232 253.726 40.758 253.574 41.2652C253.421 41.7724 253.157 42.2389 252.8 42.63C252.145 43.1641 251.313 43.4318 250.47 43.38L250.44 43.42ZM241.66 42.36H249.53C249.97 42.4761 250.43 42.496 250.879 42.4183C251.328 42.3407 251.754 42.1673 252.13 41.91C252.379 41.6146 252.559 41.2677 252.658 40.8941C252.756 40.5206 252.771 40.1299 252.7 39.7501V37.3399H245.58V37.62C245.27 39.21 244.32 39.43 243.77 39.43H241.66V42.36Z" fill="black"/>
<path d="M287.83 175.01V230.88C287.83 231.631 287.532 232.352 287.002 232.885C286.471 233.417 285.751 233.717 285 233.72H104.41V175.04L287.83 175.01Z" fill="#3265FE"/>
<path d="M92.9399 233.69H15C14.2485 233.687 13.5287 233.387 12.9983 232.855C12.4678 232.322 12.1699 231.601 12.1699 230.85V175.01H92.9399V233.69Z" fill="#3265FE"/>
<path d="M206.64 144.81L211.09 124.14H220.51L215.28 148.74C214.75 151.53 213.01 152.93 210.04 152.93H204.29V145.6H205.59C206.29 145.77 206.64 145.51 206.64 144.81ZM209.26 113.41L205.07 94.5599H213.71L216.85 107.91C216.67 108.61 217.11 108.91 218.16 108.7H220.25V116.55H214.25C210.91 116.88 209.26 115.88 209.26 113.41ZM225.48 144.03L227.84 130.68H237L233.6 148.48C233.247 151.093 231.327 152.4 227.84 152.4H222.08V145.07H223.91C224.96 145.25 225.48 144.88 225.48 144.03ZM222.61 106.03V97.65H228.89L229.89 94.5098H239.41L238.62 97.65H263.75V106.03H236.27L232.6 118.33H239.14V110.22H249.14V118.33H263.8V126.7H249.14V149.21C249.14 152.543 247.473 154.21 244.14 154.21H235.41V146.88H238.29C238.81 147.05 239.07 146.79 239.07 146.09V126.73H222.61V120.18L226.79 106.05L222.61 106.03ZM252.96 147.64L250.87 130.37H259.51L261.6 144.24C261.43 145.11 261.77 145.46 262.6 145.29H263.91V152.35H257.1C254.527 152.383 253.147 150.83 252.96 147.69V147.64Z" fill="white"/>
<path d="M244.07 154.74H234.93V146.41H238.57C238.576 146.297 238.576 146.183 238.57 146.07V127.21H222.11V120.02L226.11 106.53H222.11V97.15H228.53L229.53 94.0098H239.96L239.17 97.15H264.17V106.53H236.56L233.19 117.83H238.56V109.72H249.56V117.88H264.22V127.25H249.56V149.25C249.54 152.88 247.65 154.74 244.07 154.74ZM235.93 153.74H244.07C247.12 153.74 248.54 152.31 248.54 149.26V126.26H263.2V118.88H248.54V110.77H239.54V118.88H231.83L235.83 105.58H263.19V98.2H237.92L238.7 95.0599H230.28L229.28 98.2H223.14V105.58H227.49L223.14 120.28V126.28H239.62V146.14C239.645 146.357 239.617 146.577 239.539 146.78C239.461 146.984 239.334 147.166 239.17 147.31C239.039 147.401 238.888 147.46 238.729 147.481C238.571 147.501 238.41 147.484 238.26 147.43H235.96L235.93 153.74ZM210.04 153.43H203.79V145.1H205.72C205.95 145.16 206.06 145.1 206.08 145.1C206.132 145.002 206.153 144.89 206.14 144.78V144.68L210.67 123.61H221.12L215.76 148.81C215.2 151.88 213.22 153.43 210.04 153.43ZM204.79 152.43H210.04C212.76 152.43 214.31 151.19 214.79 148.65L219.89 124.65H211.49L207.14 144.88C207.151 145.078 207.117 145.276 207.039 145.458C206.96 145.64 206.841 145.802 206.69 145.93C206.525 146.047 206.336 146.125 206.136 146.156C205.937 146.187 205.732 146.171 205.54 146.11H204.79V152.43ZM264.46 152.9H257.15C255.15 152.9 252.71 152.01 252.47 147.74L250.31 129.88H259.94L262.11 144.26V144.35C262.04 144.71 262.11 144.81 262.11 144.81C262.11 144.81 262.22 144.88 262.58 144.81H264.49L264.46 152.9ZM251.46 130.9L253.46 147.64C253.62 150.54 254.79 151.88 257.15 151.88H263.46V145.88H262.65C262.432 145.945 262.201 145.953 261.979 145.904C261.757 145.855 261.55 145.751 261.38 145.6C261.231 145.426 261.126 145.219 261.076 144.996C261.025 144.773 261.03 144.541 261.09 144.32L259.09 130.96L251.46 130.9ZM227.87 152.9H221.61V144.57H223.94C224.44 144.65 224.73 144.57 224.87 144.51C224.926 144.445 224.968 144.368 224.992 144.285C225.016 144.202 225.023 144.115 225.01 144.03V143.94L227.44 130.18H237.62L234.11 148.57C233.7 151.44 231.6 152.88 227.84 152.88L227.87 152.9ZM222.61 151.9H227.87C231.09 151.9 232.87 150.76 233.13 148.41L236.42 131.18H228.29L226.01 144.07C226.022 144.294 225.984 144.517 225.899 144.725C225.814 144.932 225.685 145.118 225.52 145.27C225.282 145.438 225.01 145.552 224.723 145.604C224.436 145.655 224.142 145.644 223.86 145.57H222.61V151.9ZM213.06 117.12C211.899 117.199 210.751 116.843 209.84 116.12C209.484 115.776 209.206 115.36 209.025 114.899C208.844 114.438 208.764 113.944 208.79 113.45L204.48 94.0499H214.13L217.41 107.88V108C217.399 108.063 217.399 108.127 217.41 108.19C217.66 108.25 217.92 108.25 218.17 108.19H220.85V117.04H214.33C213.8 117.09 213.41 117.12 213.03 117.12H213.06ZM205.72 95.0599L209.79 113.41C209.756 113.776 209.803 114.144 209.928 114.49C210.052 114.835 210.251 115.15 210.51 115.41C211.21 116.03 212.45 116.25 214.21 116.07H219.78V109.22H218.19C217.919 109.3 217.633 109.312 217.355 109.256C217.078 109.201 216.819 109.078 216.6 108.9C216.48 108.766 216.395 108.605 216.353 108.43C216.311 108.256 216.314 108.073 216.36 107.9L213.36 95.0399L205.72 95.0599Z" fill="black"/>
<path d="M73.49 225.75H31.6299V220.75H32.9099V208.45H71.8398V220.75H73.49V225.75ZM31.8098 186.09H36.0398L35.2998 183.89H43.4099L44.3298 186.09H61.22L61.95 183.89H70.03L69.2998 186.09H73.52V191.41H31.8098V186.09ZM32.73 206.84V193.25H38.97V206.88L32.73 206.84ZM38.97 220.79H44.2998V213.79H38.97V220.79ZM42.46 206.84V193.25H48.1499V206.88L42.46 206.84ZM49.8098 195.45H52.5598C52.9483 195.527 53.3515 195.457 53.6914 195.254C54.0313 195.051 54.2837 194.728 54.3999 194.35L55.3098 192.52H61.5598L61.3699 193.07H73.49V197.66H60.0898L59.5398 198.76C59.403 199.17 59.13 199.52 58.7661 199.753C58.4022 199.986 57.9693 200.087 57.5398 200.04H49.8198V195.45H49.8098ZM49.8098 213.81V220.81H54.95V213.81H49.8098ZM52.3799 205.18L49.99 200.78H57.3298L57.8799 201.51C57.9999 202.25 58.5498 202.51 59.5398 202.43H73.49V206.88H56.4099C54.0899 206.96 52.7399 206.41 52.4099 205.18H52.3799ZM60.8198 220.79H66.1399V213.79H60.8198V220.79Z" fill="white"/>
<path d="M73.99 226.25H31.1299V220.25H32.4099V207.95H72.3398V220.25H73.99V226.25ZM32.1299 225.25H72.99V221.25H71.3398V208.95H33.4099V221.25H32.1299V225.25ZM66.6399 221.25H60.3198V213.25H66.6399V221.25ZM61.3198 220.25H65.6399V214.25H61.3198V220.25ZM55.45 221.25H49.3098V213.25H55.4099L55.45 221.25ZM50.3098 220.25H54.4099V214.25H50.27L50.3098 220.25ZM44.7998 221.25H38.47V213.25H44.7998V221.25ZM39.47 220.25H43.7998V214.25H39.47V220.25ZM55.7898 207.31C53.6398 207.31 52.3299 206.65 51.9099 205.31L49.1499 200.21H49.2998V194.88H52.5598C52.8473 194.951 53.1514 194.909 53.4084 194.762C53.6655 194.615 53.8559 194.374 53.9399 194.09L55 191.95H62.25L62.0698 192.5H73.99V198.09H60.4099L60 198.91C59.8351 199.36 59.5395 199.751 59.1511 200.033C58.7628 200.314 58.2992 200.473 57.8198 200.49L58.3799 201.24V201.36C58.3799 201.58 58.48 201.99 59.47 201.86H73.99V207.27H55.7898V207.31ZM50.7898 201.24L52.7898 205C53.0798 206 54.2598 206.4 56.3298 206.3H72.9299V202.89H59.47C57.96 203.08 57.4699 202.27 57.3499 201.68L57.02 201.24H50.7898ZM50.26 199.5H57.48C57.95 199.57 58.4798 199.5 59.0498 198.5L59.74 197.12H72.95V193.53H60.6399L60.8198 192.98H55.5798L54.7998 194.54C54.6343 195.01 54.3072 195.406 53.8767 195.657C53.4462 195.908 52.9405 195.998 52.45 195.91H50.27L50.26 199.5ZM48.6099 207.3H41.9199V192.71H48.6099V207.3ZM42.9199 206.3H47.6099V193.71H42.9199V206.3ZM39.4299 207.3H32.1899V192.71H39.4299V207.3ZM33.1899 206.3H38.4299V193.71H33.1899V206.3ZM73.95 191.87H31.3098V185.55H35.3098L34.5798 183.35H43.6799L44.5999 185.55H60.7998L61.53 183.35H70.6599L69.9299 185.55H73.9299L73.95 191.87ZM32.27 190.87H72.95V186.55H68.53L69.27 184.35H62.27L61.5398 186.55H43.95L43.0398 184.35H35.98L36.72 186.55H32.2998L32.27 190.87Z" fill="black"/>
<path d="M150.62 189.46H164.41V195.88H156.23V201.13H163.23V207.2H156.23V219.49H150.63V189.42L150.62 189.46Z" fill="white"/>
<path d="M156.71 220.03H150.12V188.96H164.9V196.42H156.71V200.67H163.71V207.74H156.71V220.03ZM151.12 219.03H155.71V206.74H162.71V201.67H155.71V195.42H163.9V189.96H151.12V219.03Z" fill="black"/>
<path d="M167.47 219.53V189.46H176.76C178.134 189.378 179.506 189.632 180.76 190.2C181.791 190.831 182.572 191.799 182.97 192.94C183.562 194.494 183.844 196.148 183.8 197.81C183.833 199.272 183.617 200.73 183.16 202.12C182.809 203.241 182.207 204.267 181.4 205.12C180.827 205.656 180.144 206.062 179.4 206.31C179.949 206.586 180.443 206.959 180.86 207.41C181.204 207.908 181.502 208.437 181.75 208.99C182.056 209.593 182.317 210.218 182.53 210.86L185.23 219.57H178.93L175.93 210.39C175.726 209.567 175.388 208.783 174.93 208.07C174.769 207.858 174.562 207.684 174.325 207.563C174.088 207.442 173.826 207.376 173.56 207.37H173.07V219.58L167.47 219.53ZM175.41 201.64C175.921 201.578 176.42 201.44 176.89 201.23C177.098 201.144 177.286 201.016 177.442 200.854C177.599 200.692 177.72 200.5 177.8 200.29C178.039 199.741 178.159 199.148 178.15 198.55C178.197 197.763 178.002 196.981 177.59 196.31C177.332 196.021 177.008 195.799 176.646 195.664C176.284 195.528 175.894 195.482 175.51 195.53H173.06V201.64H175.41Z" fill="white"/>
<path d="M173.57 220.03H166.97V188.96H176.76C178.201 188.88 179.64 189.154 180.95 189.76C182.081 190.45 182.94 191.51 183.38 192.76C184 194.373 184.295 196.092 184.25 197.82C184.282 199.34 184.056 200.855 183.58 202.3C183.193 203.468 182.555 204.536 181.71 205.43C181.337 205.794 180.912 206.1 180.45 206.34C180.741 206.543 181.004 206.786 181.23 207.06C181.622 207.583 181.958 208.146 182.23 208.74C182.544 209.368 182.814 210.016 183.04 210.68L185.93 220.03H178.59L175.5 210.5C175.319 209.736 175.008 209.009 174.58 208.35C174.464 208.192 174.314 208.063 174.141 207.973C173.967 207.883 173.775 207.834 173.58 207.83L173.57 220.03ZM167.97 219.03H172.57V206.82H173.57C173.908 206.825 174.241 206.905 174.544 207.056C174.847 207.207 175.112 207.423 175.32 207.69C175.83 208.45 176.205 209.293 176.43 210.18L179.29 219.02H184.55L182.05 210.96C181.842 210.343 181.592 209.742 181.3 209.16C181.071 208.641 180.793 208.146 180.47 207.68C180.098 207.27 179.654 206.931 179.16 206.68L178.22 206.16L179.22 205.78C179.881 205.546 180.487 205.179 181 204.7C181.744 203.917 182.304 202.977 182.64 201.95C183.076 200.611 183.282 199.208 183.25 197.8C183.292 196.203 183.021 194.613 182.45 193.12C182.093 192.083 181.386 191.202 180.45 190.63C179.281 190.112 178.006 189.879 176.73 189.95H167.94L167.97 219.03ZM175.42 202.14H172.57V195.03H175.57C176.035 194.982 176.505 195.048 176.938 195.222C177.372 195.397 177.757 195.674 178.06 196.03C178.534 196.785 178.761 197.67 178.71 198.56C178.718 199.231 178.581 199.896 178.31 200.51C178.203 200.783 178.041 201.031 177.835 201.239C177.629 201.447 177.382 201.611 177.11 201.72C176.572 201.958 175.997 202.1 175.41 202.14H175.42ZM173.57 201.14H175.41C175.862 201.074 176.303 200.946 176.72 200.76C176.864 200.694 176.993 200.6 177.1 200.484C177.206 200.367 177.288 200.229 177.34 200.08C177.551 199.598 177.657 199.076 177.65 198.55C177.704 197.852 177.543 197.154 177.19 196.55C176.973 196.332 176.708 196.167 176.417 196.068C176.125 195.97 175.815 195.939 175.51 195.98H173.51L173.57 201.14Z" fill="black"/>
<path d="M185.87 204.51C185.87 199.61 186.69 195.78 188.33 193.05C189.006 191.815 190.001 190.784 191.211 190.063C192.421 189.342 193.801 188.958 195.209 188.951C196.617 188.944 198.002 189.314 199.219 190.023C200.436 190.731 201.441 191.752 202.13 192.98C203.75 195.647 204.56 199.41 204.56 204.27C204.639 207.187 204.282 210.099 203.5 212.91C202.945 214.897 201.884 216.706 200.42 218.16C199.063 219.416 197.268 220.091 195.42 220.04C193.598 220.111 191.81 219.537 190.37 218.42C188.836 217.041 187.712 215.266 187.12 213.29C186.214 210.454 185.791 207.486 185.87 204.51ZM191.44 204.51C191.44 207.55 191.773 209.733 192.44 211.06C192.653 211.627 193.029 212.119 193.519 212.475C194.01 212.831 194.594 213.034 195.2 213.06C195.806 213.054 196.396 212.864 196.892 212.516C197.389 212.168 197.768 211.678 197.98 211.11C198.647 209.777 198.98 207.443 198.98 204.11C199.117 201.994 198.775 199.875 197.98 197.91C197.761 197.34 197.381 196.847 196.885 196.492C196.389 196.136 195.8 195.934 195.19 195.91C194.594 195.944 194.021 196.151 193.541 196.506C193.061 196.862 192.696 197.35 192.49 197.91C191.77 199.283 191.41 201.497 191.41 204.55L191.44 204.51Z" fill="white"/>
<path d="M195.41 220.54C193.473 220.605 191.575 219.993 190.04 218.81C188.444 217.367 187.269 215.518 186.64 213.46C185.722 210.568 185.293 207.543 185.37 204.51C185.37 199.51 186.22 195.59 187.9 192.79C188.62 191.48 189.676 190.387 190.96 189.623C192.245 188.859 193.71 188.453 195.204 188.445C196.699 188.438 198.168 188.831 199.459 189.582C200.751 190.334 201.818 191.417 202.55 192.72C204.22 195.47 205.06 199.36 205.06 204.27C205.139 207.238 204.771 210.201 203.97 213.06C203.389 215.129 202.284 217.014 200.76 218.53C199.307 219.871 197.387 220.593 195.41 220.54ZM195.19 189.45C193.865 189.429 192.56 189.78 191.424 190.462C190.287 191.144 189.365 192.131 188.76 193.31C187.17 195.95 186.37 199.72 186.37 204.51C186.293 207.427 186.702 210.337 187.58 213.12C188.152 215.004 189.219 216.699 190.67 218.03C192.026 219.07 193.702 219.605 195.41 219.54C197.135 219.598 198.813 218.973 200.08 217.8C201.471 216.412 202.483 214.69 203.02 212.8C203.771 210.035 204.108 207.174 204.02 204.31C204.02 199.58 203.23 195.87 201.66 193.31C201.048 192.128 200.118 191.141 198.975 190.459C197.832 189.777 196.521 189.427 195.19 189.45ZM195.19 213.59C194.491 213.567 193.815 213.34 193.244 212.937C192.674 212.533 192.234 211.971 191.98 211.32C191.26 209.91 190.91 207.7 190.91 204.55C190.91 201.4 191.27 199.15 191.99 197.74C192.236 197.096 192.666 196.539 193.226 196.137C193.786 195.736 194.451 195.507 195.14 195.48C195.837 195.496 196.515 195.715 197.089 196.111C197.663 196.508 198.108 197.063 198.37 197.71C199.223 199.741 199.596 201.941 199.46 204.14C199.46 207.62 199.12 209.98 198.46 211.36C198.204 212.013 197.759 212.574 197.182 212.972C196.604 213.369 195.921 213.584 195.22 213.59H195.19ZM195.19 196.48C194.686 196.513 194.203 196.693 193.801 196.999C193.399 197.305 193.096 197.723 192.93 198.2C192.29 199.45 191.93 201.59 191.93 204.55C191.93 207.51 192.26 209.62 192.93 210.87C193.104 211.353 193.418 211.774 193.83 212.08C194.243 212.386 194.737 212.563 195.25 212.59C195.764 212.577 196.261 212.41 196.679 212.11C197.096 211.811 197.413 211.393 197.59 210.91C198.2 209.69 198.52 207.41 198.52 204.14C198.639 202.09 198.297 200.04 197.52 198.14C197.33 197.666 197.007 197.258 196.59 196.963C196.173 196.669 195.68 196.501 195.17 196.48H195.19Z" fill="black"/>
<path d="M206.59 209.58L211.89 209.03C211.938 210.156 212.178 211.265 212.6 212.31C212.775 212.828 213.105 213.28 213.545 213.605C213.984 213.931 214.513 214.114 215.06 214.13C215.42 214.145 215.779 214.068 216.101 213.905C216.423 213.742 216.698 213.499 216.9 213.2C217.308 212.564 217.525 211.825 217.525 211.07C217.525 210.314 217.308 209.575 216.9 208.94C216.133 208.097 215.14 207.493 214.04 207.2C211.965 206.544 210.141 205.271 208.81 203.55C207.704 201.823 207.156 199.798 207.24 197.75C207.23 196.252 207.505 194.765 208.05 193.37C208.52 192.075 209.362 190.948 210.47 190.13C211.787 189.274 213.342 188.861 214.91 188.95C215.893 188.885 216.878 189.044 217.791 189.415C218.703 189.785 219.52 190.358 220.18 191.09C221.393 192.516 222.113 194.79 222.34 197.91L217.08 198.42C217.04 197.378 216.738 196.363 216.2 195.47C215.995 195.172 215.718 194.931 215.394 194.77C215.07 194.609 214.711 194.534 214.35 194.55C214.069 194.533 213.789 194.586 213.534 194.705C213.279 194.824 213.057 195.004 212.89 195.23C212.551 195.723 212.38 196.312 212.4 196.91C212.395 197.371 212.535 197.822 212.8 198.2C213.302 198.742 213.952 199.125 214.67 199.3C216.552 199.891 218.322 200.79 219.91 201.96C220.954 202.85 221.748 203.998 222.21 205.29C222.707 206.72 222.951 208.226 222.93 209.74C222.937 211.564 222.598 213.372 221.93 215.07C221.408 216.536 220.478 217.823 219.25 218.78C217.974 219.658 216.448 220.1 214.9 220.04C211.827 220.04 209.703 219.04 208.53 217.04C207.288 214.747 206.622 212.187 206.59 209.58Z" fill="white"/>
<path d="M214.97 220.54C211.73 220.54 209.44 219.46 208.17 217.34C206.854 214.969 206.14 212.311 206.09 209.6V209.13L212.37 208.47V208.99C212.411 210.053 212.634 211.102 213.03 212.09C213.165 212.521 213.429 212.9 213.787 213.175C214.145 213.451 214.579 213.609 215.03 213.63C215.31 213.645 215.59 213.586 215.841 213.46C216.092 213.334 216.305 213.144 216.46 212.91C216.835 212.356 217.027 211.698 217.01 211.03C217.022 210.386 216.837 209.755 216.48 209.22C215.78 208.459 214.873 207.92 213.87 207.67C211.707 206.99 209.803 205.668 208.41 203.88C207.248 202.071 206.668 199.949 206.75 197.8C206.741 196.237 207.026 194.687 207.59 193.23C208.103 191.849 209.006 190.647 210.19 189.77C211.593 188.859 213.249 188.414 214.92 188.5C215.976 188.435 217.033 188.609 218.011 189.011C218.99 189.413 219.865 190.031 220.57 190.82C221.84 192.33 222.57 194.72 222.85 197.92V198.41L216.62 199.02L216.57 198.52C216.533 197.565 216.262 196.635 215.78 195.81C215.617 195.579 215.399 195.393 215.146 195.269C214.892 195.145 214.612 195.087 214.33 195.1C214.127 195.082 213.923 195.117 213.737 195.201C213.552 195.285 213.391 195.416 213.27 195.58C212.994 195.986 212.854 196.469 212.87 196.96C212.868 197.319 212.98 197.669 213.19 197.96C213.31 198.14 213.67 198.48 214.82 198.88C216.758 199.488 218.58 200.418 220.21 201.63C221.324 202.574 222.169 203.795 222.66 205.17C223.172 206.656 223.425 208.218 223.41 209.79C223.427 211.676 223.087 213.549 222.41 215.31C221.855 216.863 220.866 218.224 219.56 219.23C218.208 220.143 216.6 220.602 214.97 220.54ZM207.12 210.03C207.21 212.416 207.865 214.746 209.03 216.83C210.12 218.65 212.03 219.54 214.97 219.54C216.411 219.597 217.832 219.187 219.02 218.37C220.17 217.471 221.04 216.265 221.53 214.89C222.164 213.248 222.479 211.5 222.46 209.74C222.475 208.284 222.242 206.837 221.77 205.46C221.333 204.25 220.588 203.175 219.61 202.34C218.072 201.206 216.355 200.337 214.53 199.77C213.706 199.566 212.965 199.112 212.41 198.47C212.086 198.015 211.915 197.469 211.92 196.91C211.897 196.197 212.104 195.496 212.51 194.91C212.725 194.62 213.008 194.387 213.334 194.232C213.66 194.077 214.019 194.004 214.38 194.02C214.82 194.007 215.256 194.102 215.65 194.297C216.044 194.493 216.384 194.782 216.64 195.14C217.153 195.959 217.464 196.887 217.55 197.85L221.83 197.43C221.57 194.68 220.9 192.65 219.83 191.43C219.221 190.745 218.465 190.209 217.617 189.863C216.769 189.516 215.854 189.368 214.94 189.43C213.478 189.347 212.026 189.724 210.79 190.51C209.769 191.274 208.988 192.315 208.54 193.51C208.024 194.85 207.763 196.274 207.77 197.71C207.691 199.654 208.207 201.577 209.25 203.22C210.522 204.862 212.267 206.073 214.25 206.69C215.453 207.008 216.531 207.685 217.34 208.63C217.808 209.327 218.052 210.15 218.04 210.99C218.054 211.862 217.799 212.718 217.31 213.44C217.065 213.808 216.729 214.108 216.335 214.309C215.941 214.51 215.502 214.607 215.06 214.59C214.416 214.577 213.792 214.369 213.27 213.992C212.748 213.615 212.354 213.087 212.14 212.48C211.752 211.543 211.515 210.551 211.44 209.54L207.12 210.03Z" fill="black"/>
<path d="M224.49 189.46H241.49V196.88H235.8V219.52H230.23V196.88H224.54V189.46H224.49Z" fill="white"/>
<path d="M236.25 220.03H229.68V197.38H223.99V188.96H241.99V197.38H236.3L236.25 220.03ZM230.68 219.03H235.25V196.38H240.94V189.96H224.94V196.38H230.63L230.68 219.03Z" fill="black"/>
<path d="M144.14 147.03H37.1399C34.8864 147.027 32.7258 146.131 31.1323 144.537C29.5388 142.944 28.6425 140.783 28.6399 138.53V34.5299C28.6399 32.2756 29.5353 30.1137 31.1294 28.5196C32.7235 26.9256 34.8856 26.0299 37.1399 26.0299C39.3942 26.0299 41.5563 26.9256 43.1504 28.5196C44.7444 30.1137 45.6399 32.2756 45.6399 34.5299V130.03H135.64V34.5299C135.64 32.2756 136.535 30.1137 138.129 28.5196C139.723 26.9256 141.886 26.0299 144.14 26.0299C146.394 26.0299 148.556 26.9256 150.15 28.5196C151.744 30.1137 152.64 32.2756 152.64 34.5299V138.53C152.64 140.784 151.744 142.946 150.15 144.54C148.556 146.134 146.394 147.03 144.14 147.03ZM90.6399 65.15L80.28 47.2101C79.7702 46.2712 79.0773 45.444 78.2427 44.7772C77.408 44.1104 76.4484 43.6176 75.4202 43.3277C74.3919 43.0379 73.3161 42.9568 72.2561 43.0895C71.1961 43.2221 70.1731 43.5659 69.248 44.1002C68.323 44.6345 67.5145 45.3486 66.8699 46.2005C66.2253 47.0525 65.7578 48.0249 65.4951 49.0604C65.2324 50.0959 65.1798 51.1737 65.3403 52.2298C65.5009 53.286 65.8714 54.2994 66.4299 55.2101L76.78 73.14H56.0698C53.9481 73.14 51.9134 73.9827 50.4131 75.483C48.9128 76.9833 48.0698 79.0182 48.0698 81.14C48.0698 83.2617 48.9128 85.2964 50.4131 86.7967C51.9134 88.297 53.9481 89.14 56.0698 89.14H76.7898L66.4099 107.08C65.8846 107.99 65.5438 108.995 65.4067 110.036C65.2697 111.078 65.3392 112.137 65.6113 113.152C65.8834 114.167 66.3527 115.118 66.9924 115.952C67.6322 116.785 68.4298 117.485 69.3398 118.01C70.2499 118.535 71.2546 118.876 72.2964 119.013C73.3382 119.15 74.3967 119.081 75.4116 118.809C76.4266 118.537 77.3781 118.067 78.2117 117.428C79.0452 116.788 79.7447 115.99 80.27 115.08L90.6199 97.14L100.98 115.08C101.505 115.99 102.205 116.788 103.038 117.428C103.872 118.067 104.823 118.537 105.838 118.809C106.853 119.081 107.912 119.15 108.953 119.013C109.995 118.876 111 118.535 111.91 118.01C112.82 117.485 113.618 116.785 114.257 115.952C114.897 115.118 115.367 114.167 115.639 113.152C115.911 112.137 115.98 111.078 115.843 110.036C115.706 108.995 115.365 107.99 114.84 107.08L104.48 89.15H125.19C127.312 89.15 129.346 88.307 130.847 86.8067C132.347 85.3064 133.19 83.2717 133.19 81.15C133.19 79.0283 132.347 76.9933 130.847 75.493C129.346 73.9927 127.312 73.15 125.19 73.15H104.48L114.84 55.2101C115.365 54.3 115.706 53.2953 115.843 52.2535C115.98 51.2117 115.911 50.153 115.639 49.138C115.367 48.1231 114.897 47.1718 114.257 46.3382C113.618 45.5047 112.82 44.8052 111.91 44.2799C111 43.7546 109.995 43.4137 108.953 43.2767C107.912 43.1397 106.853 43.2092 105.838 43.4813C104.823 43.7534 103.872 44.2226 103.038 44.8624C102.205 45.5022 101.505 46.3 100.98 47.2101L90.6199 65.15" fill="#3265FE"/>
<path d="M144.14 147.53H37.1399C34.7529 147.53 32.4637 146.582 30.7759 144.894C29.0881 143.206 28.1399 140.917 28.1399 138.53V34.5299C28.1399 32.1429 29.0881 29.854 30.7759 28.1661C32.4637 26.4783 34.7529 25.5299 37.1399 25.5299C39.5268 25.5299 41.8161 26.4783 43.5039 28.1661C45.1917 29.854 46.1399 32.1429 46.1399 34.5299V129.53H135.14V34.5299C135.14 32.1429 136.088 29.854 137.776 28.1661C139.464 26.4783 141.753 25.5299 144.14 25.5299C146.527 25.5299 148.816 26.4783 150.504 28.1661C152.192 29.854 153.14 32.1429 153.14 34.5299V138.53C153.14 140.917 152.192 143.206 150.504 144.894C148.816 146.582 146.527 147.53 144.14 147.53ZM37.1399 26.5299C35.0182 26.5299 32.9834 27.3729 31.4832 28.8732C29.9829 30.3734 29.1399 32.4082 29.1399 34.5299V138.53C29.1399 140.652 29.9829 142.687 31.4832 144.187C32.9834 145.687 35.0182 146.53 37.1399 146.53H144.14C146.262 146.53 148.297 145.687 149.797 144.187C151.297 142.687 152.14 140.652 152.14 138.53V34.5299C152.14 32.4082 151.297 30.3734 149.797 28.8732C148.297 27.3729 146.262 26.5299 144.14 26.5299C142.018 26.5299 139.983 27.3729 138.483 28.8732C136.983 30.3734 136.14 32.4082 136.14 34.5299V130.53H45.1399V34.5299C45.1399 32.4082 44.2972 30.3734 42.7969 28.8732C41.2966 27.3729 39.2616 26.5299 37.1399 26.5299ZM73.3499 119.59C71.8585 119.586 70.3945 119.19 69.1042 118.442C67.814 117.694 66.7429 116.62 65.9985 115.328C65.2541 114.035 64.8623 112.57 64.8625 111.079C64.8628 109.587 65.2552 108.122 66 106.83L75.9199 89.65H56.0698C53.8155 89.65 51.6536 88.7545 50.0596 87.1605C48.4655 85.5664 47.5698 83.4043 47.5698 81.15C47.5698 78.8956 48.4655 76.7336 50.0596 75.1395C51.6536 73.5454 53.8155 72.65 56.0698 72.65H75.9199L66 55.4601C64.8731 53.508 64.5677 51.1883 65.1509 49.0111C65.7341 46.8339 67.1581 44.9773 69.1099 43.85C71.0619 42.7231 73.3816 42.4176 75.5588 43.0008C77.7361 43.584 79.5926 45.0083 80.72 46.9601L90.6399 64.15L100.57 46.9601C101.697 45.0083 103.554 43.584 105.731 43.0008C107.908 42.4176 110.228 42.7231 112.18 43.85C114.13 44.9792 115.552 46.8356 116.135 49.0121C116.718 51.1885 116.414 53.5074 115.29 55.4601L105.37 72.65H125.21C127.464 72.65 129.626 73.5454 131.22 75.1395C132.814 76.7336 133.71 78.8956 133.71 81.15C133.71 83.4043 132.814 85.5664 131.22 87.1605C129.626 88.7545 127.464 89.65 125.21 89.65H105.32C106 90.74 107.32 93.0399 110.11 97.8599L115.29 106.86C115.869 107.827 116.25 108.9 116.41 110.016C116.571 111.132 116.508 112.269 116.224 113.36C115.941 114.452 115.444 115.476 114.761 116.373C114.078 117.27 113.224 118.023 112.247 118.587C111.271 119.151 110.192 119.514 109.074 119.657C107.955 119.8 106.82 119.719 105.733 119.419C104.646 119.118 103.63 118.605 102.744 117.908C101.857 117.211 101.118 116.345 100.57 115.36L90.6399 98.16C90.3799 98.63 90 99.2901 89.46 100.23L80.72 115.36C79.9684 116.648 78.8923 117.716 77.5991 118.458C76.306 119.2 74.8409 119.59 73.3499 119.59ZM73.3499 43.7101C72.0346 43.7127 70.7433 44.0612 69.6052 44.7206C68.4672 45.3799 67.5227 46.327 66.8662 47.4667C66.2097 48.6063 65.8643 49.8985 65.865 51.2137C65.8657 52.529 66.2122 53.821 66.8699 54.9601L77.6599 73.64H56.0798C54.0907 73.64 52.1831 74.4302 50.7766 75.8368C49.3701 77.2433 48.5798 79.1509 48.5798 81.14C48.5798 83.1291 49.3701 85.0367 50.7766 86.4432C52.1831 87.8497 54.0907 88.64 56.0798 88.64H77.6599L66.8699 107.32C65.8753 109.044 65.6063 111.092 66.1221 113.014C66.6378 114.937 67.896 116.575 69.6199 117.57C71.3438 118.564 73.3922 118.833 75.3145 118.318C77.2367 117.802 78.8753 116.544 79.8699 114.82C79.8699 114.82 88.8698 99.29 90.0798 97.13L88.3298 94.13L90.5498 96.3499L90.6599 96.16L91.0598 96.8599C91.0989 96.8943 91.1268 96.9397 91.1399 96.9901L101.41 114.88C101.902 115.734 102.558 116.482 103.34 117.082C104.121 117.682 105.014 118.122 105.965 118.378C106.917 118.633 107.91 118.698 108.887 118.57C109.864 118.442 110.806 118.122 111.66 117.63C112.514 117.137 113.262 116.482 113.862 115.7C114.462 114.918 114.902 114.026 115.158 113.075C115.413 112.123 115.478 111.13 115.35 110.153C115.222 109.176 114.902 108.234 114.41 107.38L104.06 89.45L103.62 88.7H125.2C127.189 88.7 129.097 87.9098 130.503 86.5033C131.91 85.0967 132.7 83.1892 132.7 81.2C132.7 79.2109 131.91 77.3031 130.503 75.8966C129.097 74.4901 127.189 73.7 125.2 73.7H103.62L114.41 55.0099C114.902 54.1563 115.222 53.2142 115.35 52.2372C115.478 51.2601 115.413 50.2673 115.158 49.3155C114.902 48.3637 114.462 47.4714 113.862 46.6898C113.262 45.9082 112.514 45.2523 111.66 44.7599C110.806 44.2674 109.864 43.948 108.887 43.8197C107.91 43.6914 106.917 43.7567 105.965 44.0121C105.014 44.2674 104.121 44.7078 103.34 45.308C102.558 45.9081 101.902 46.6563 101.41 47.5099L91.0498 65.45L90.6199 65.2L90.1899 65.45L79.8298 47.5099C79.1792 46.3605 78.2362 45.4038 77.0964 44.7364C75.9567 44.0691 74.6606 43.715 73.3398 43.7101H73.3499Z" fill="black"/>
</svg>
