<svg width="300" height="246" viewBox="0 0 300 246" fill="none" xmlns="http://www.w3.org/2000/svg">
<path d="M288 0H12C8.8174 0 5.76509 1.26433 3.51465 3.51477C1.26421 5.76521 0 8.8174 0 12V234C0 237.183 1.26421 240.235 3.51465 242.485C5.76509 244.736 8.8174 246 12 246H288C291.183 246 294.235 244.736 296.485 242.485C298.736 240.235 300 237.183 300 234V12C300 8.8174 298.736 5.76521 296.485 3.51477C294.235 1.26433 291.183 0 288 0Z" fill="#61707E"/>
<path d="M166.29 12.28H15C14.2494 12.28 13.5295 12.5782 12.9988 13.1089C12.4681 13.6396 12.1699 14.3595 12.1699 15.11V159.8C12.1699 160.552 12.4678 161.272 12.9983 161.805C13.5287 162.337 14.2485 162.637 15 162.64H166.27C167.023 162.64 167.745 162.341 168.278 161.808C168.811 161.276 169.11 160.553 169.11 159.8V15.14C169.113 14.7671 169.042 14.3973 168.902 14.0517C168.761 13.7061 168.554 13.3916 168.292 13.126C168.03 12.8604 167.719 12.649 167.375 12.5038C167.032 12.3587 166.663 12.2826 166.29 12.28Z" fill="#D3E2E2"/>
<path d="M181 12.28H285C285.751 12.28 286.472 12.5779 287.005 13.1083C287.537 13.6388 287.837 14.3586 287.84 15.11V162.61H181V12.28Z" fill="#F78C21"/>
<path d="M205.09 27.38V22.15H264.76V27.38H239.63V29.7401H264.76V51.2H255.86V34.97H239.63V51.46H230.74V34.97H213.74V51.2H205.11V29.7401H230.75V27.38H205.09ZM216.09 55.38V52.5H223.94V55.1201H233.94V60.61H223.94V81.8101H216.09V60.88H205.09V55.39L216.09 55.38ZM205.09 76.84H205.61C206.13 76.84 206.39 76.4 206.39 75.53V62.72H214.51V75.8C214.857 79.9934 213.023 81.9134 209.01 81.5601H205.09V76.84ZM215.82 37.0601H223.67V37.84C223.49 38.72 223.84 39.06 224.67 38.84H228.07V43.03H219.17C216.6 43.44 215.46 42.13 215.82 39.16V37.0601ZM223.93 51.15H215.82V46.44H219.48C220.18 46.61 220.53 46.35 220.53 45.65V44.8701H228.38V47.28C228.553 50.2467 227.07 51.5533 223.93 51.2V51.15ZM224.98 77.0601V62.72H232.3V75.28C232.13 76.15 232.48 76.59 233.3 76.59H234.09V81.59H230.16C226.353 81.7434 224.633 80.25 225 77.11L224.98 77.0601ZM258.74 81.77H235.74V53.5601H264.53V76.85C264.84 80.34 262.93 81.99 258.74 81.82V81.77ZM253.24 51.15H245.13C241.99 51.5 240.59 50.36 240.94 47.75V45.1801H248.27V45.7C248.09 46.23 248.44 46.4901 249.32 46.4901H253.24V51.2V51.15ZM241.24 42.77V38.85H243.86C244.56 38.85 244.99 38.41 245.17 37.54V36.75H253.28V39.63C253.45 42.08 252.28 43.13 249.62 42.77H241.24ZM255.9 59.52H243.9V61.88H255.9V59.52ZM243.9 69.52H255.9V66.9H243.9V69.52ZM255.9 75.28V74.4901H243.9V76.85H254.37C254.577 76.8668 254.785 76.837 254.979 76.7628C255.173 76.6887 255.348 76.572 255.49 76.4214C255.633 76.2709 255.741 76.0902 255.805 75.8926C255.869 75.6951 255.888 75.4858 255.86 75.28H255.9Z" fill="white"/>
<path d="M259.3 82.33H235.21V53.0601H265V76.85C265.127 77.5551 265.096 78.2797 264.91 78.9714C264.723 79.6632 264.385 80.3048 263.92 80.85C263 81.82 261.42 82.33 259.3 82.33ZM236.21 81.33H258.76C260.89 81.42 262.37 81.02 263.2 80.14C263.557 79.6906 263.814 79.1695 263.952 78.6122C264.09 78.0548 264.106 77.4743 264 76.91V54.0601H236.21V81.33ZM224.43 82.33H215.58V61.38H204.58V54.89H215.58V52.01H224.43V54.6201H234.43V61.1201H224.43V82.33ZM216.58 81.33H223.43V60.13H233.43V55.63H223.43V53.02H216.58V55.9H205.58V60.39H216.58V81.33ZM209.88 82.11C209.59 82.11 209.28 82.11 208.97 82.11H204.58V76.4H205.58C205.81 76.4 205.86 75.96 205.86 75.59V62.22H215V75.8C215.19 78.04 214.74 79.73 213.68 80.8C213.165 81.2588 212.564 81.6101 211.911 81.8333C211.259 82.0565 210.568 82.1472 209.88 82.1V82.11ZM205.58 81.11H209C210.85 81.26 212.17 80.94 213 80.11C213.83 79.28 214.19 77.84 214 75.86V63.22H206.88V75.54C206.88 77.17 205.99 77.35 205.6 77.35L205.58 81.11ZM229.63 82.11C228.871 82.1803 228.106 82.094 227.382 81.8566C226.658 81.6193 225.99 81.2358 225.42 80.73C225.005 80.236 224.705 79.6557 224.542 79.0312C224.38 78.4067 224.358 77.7538 224.48 77.1201V62.22H232.8V75.28C232.74 75.65 232.75 75.86 232.8 75.95C232.873 76.0065 232.957 76.048 233.046 76.072C233.135 76.0961 233.228 76.1022 233.32 76.09H234.61V82.09H229.61L229.63 82.11ZM225.48 63.26V77.2C225.377 77.6943 225.385 78.2051 225.503 78.696C225.62 79.1869 225.845 79.6459 226.16 80.04C226.89 80.83 228.26 81.18 230.16 81.1H233.61V77.1H233.32C233.079 77.1203 232.836 77.0849 232.611 76.9965C232.385 76.908 232.183 76.769 232.02 76.59C231.876 76.3906 231.779 76.1606 231.737 75.9179C231.696 75.6752 231.71 75.4262 231.78 75.19V63.19L225.48 63.26ZM254.29 77.39H243.29V74.03H256.29V75.28C256.32 75.5592 256.287 75.8415 256.194 76.1063C256.1 76.3711 255.949 76.6116 255.75 76.8101C255.551 77.0087 255.311 77.1602 255.046 77.2537C254.782 77.3471 254.499 77.38 254.22 77.35L254.29 77.39ZM244.29 76.39H254.29C254.585 76.4155 254.879 76.3259 255.11 76.14C255.205 76.027 255.275 75.8962 255.318 75.7554C255.361 75.6145 255.375 75.4665 255.36 75.32V75.03H244.36L244.29 76.39ZM256.29 70.0601H243.29V66.44H256.29V70.0601ZM244.29 69.0601H255.29V67.44H244.29V69.0601ZM256.29 62.47H243.29V59.11H256.29V62.47ZM244.29 61.47H255.29V60.11H244.29V61.47ZM240.1 52H230.21V35.47H214.21V51.7H204.58V29.28H230.22V27.88H204.58V21.65H265.25V27.88H240.12V29.28H265.25V51.7401H255.35V35.47H240.12L240.1 52ZM231.21 51H239.1V34.47H256.33V50.7H264.23V30.28H239.1V26.88H264.23V22.65H205.56V26.88H231.2V30.28H205.56V50.7401H213.19V34.47H231.19L231.21 51ZM244.03 51.8C243.509 51.838 242.985 51.7688 242.491 51.5969C241.998 51.4249 241.545 51.1537 241.16 50.8C240.805 50.3817 240.554 49.8861 240.425 49.353C240.297 48.8198 240.295 48.264 240.42 47.73V44.6801H248.75V45.86C248.75 45.86 248.83 45.9901 249.33 45.9901H253.75V51.7H245.14C244.781 51.7389 244.421 51.7589 244.06 51.76L244.03 51.8ZM241.41 45.72V47.84C241.309 48.2339 241.298 48.6458 241.38 49.0443C241.461 49.4427 241.632 49.8174 241.88 50.14C242.44 50.71 243.5 50.91 245.04 50.7401H252.71V47.03H249.29C249.029 47.0614 248.765 47.0326 248.517 46.9459C248.269 46.8593 248.044 46.717 247.86 46.53C247.782 46.4119 247.73 46.2786 247.708 46.139C247.686 45.9994 247.693 45.8566 247.73 45.72H241.41ZM224.83 51.79C224.496 51.7939 224.162 51.7772 223.83 51.7401H215.25V46.03H219.53C219.77 46.09 219.88 46.03 219.89 46.03C219.9 46.03 219.96 45.94 219.96 45.71V44.4301H228.81V47.28C228.902 47.9101 228.853 48.5528 228.666 49.1615C228.479 49.7702 228.159 50.3299 227.73 50.8C226.928 51.4681 225.902 51.8074 224.86 51.75L224.83 51.79ZM216.29 50.7401H224C224.539 50.8625 225.097 50.8687 225.639 50.7584C226.18 50.648 226.692 50.4236 227.14 50.1C227.458 49.7222 227.692 49.2798 227.823 48.8033C227.954 48.3269 227.98 47.8277 227.9 47.34V45.46H221V45.7401C221.029 45.9461 221.004 46.1561 220.927 46.3495C220.85 46.5429 220.724 46.7129 220.562 46.843C220.4 46.9731 220.206 47.0588 220.001 47.0916C219.795 47.1243 219.585 47.1031 219.39 47.03H216.29V50.7401ZM218.39 43.6801C217.979 43.704 217.567 43.6455 217.179 43.5081C216.791 43.3707 216.434 43.1572 216.13 42.88C215.37 42.13 215.13 40.88 215.29 39.17V36.61H224.14V37.89C224.05 38.35 224.14 38.45 224.14 38.46C224.14 38.46 224.25 38.52 224.61 38.46H228.61V43.65H219.21C218.947 43.6606 218.683 43.6573 218.42 43.64L218.39 43.6801ZM216.29 37.61V39.26C216.13 40.67 216.29 41.64 216.84 42.17C217.161 42.4166 217.535 42.5862 217.932 42.666C218.329 42.7457 218.738 42.7334 219.13 42.63H227.6V39.44H224.69C224.472 39.504 224.241 39.512 224.019 39.463C223.797 39.4141 223.591 39.3099 223.42 39.16C223.265 38.9719 223.16 38.7478 223.115 38.5084C223.069 38.2689 223.085 38.0218 223.16 37.79V37.61H216.29ZM250.46 43.4301C250.125 43.4312 249.791 43.4078 249.46 43.36H240.65V38.44H243.77C243.98 38.44 244.41 38.44 244.59 37.53V36.28H253.7V39.66C253.784 40.1832 253.748 40.7185 253.596 41.226C253.444 41.7334 253.178 42.1997 252.82 42.59C252.174 43.1438 251.34 43.43 250.49 43.39L250.46 43.4301ZM241.7 42.28H249.58C250.019 42.3996 250.48 42.4222 250.928 42.3462C251.377 42.2702 251.804 42.0975 252.18 41.84C252.425 41.5424 252.602 41.1949 252.698 40.8218C252.795 40.4488 252.809 40.0592 252.74 39.6801V37.28H245.63V37.57C245.32 39.16 244.36 39.38 243.82 39.38H241.7V42.28Z" fill="black"/>
<path d="M287.85 175.02V230.86C287.85 231.613 287.551 232.336 287.018 232.868C286.485 233.401 285.763 233.7 285.01 233.7H104.38V175.02H287.85Z" fill="#F78C21"/>
<path d="M93 233.7H15C14.2485 233.697 13.5287 233.397 12.9983 232.865C12.4678 232.332 12.1699 231.611 12.1699 230.86V175.02H93V233.7Z" fill="#F78C21"/>
<path d="M206.66 144.82L211.11 124.14H220.53L215.29 148.75C214.77 151.54 213.02 152.93 210.06 152.93H204.3V145.61H205.61C206.3 145.78 206.66 145.52 206.66 144.82ZM209.27 113.41L205.09 94.57H213.72L216.86 107.92C216.69 108.62 217.13 108.92 218.17 108.7H220.27V116.56H214.27C210.937 116.913 209.27 115.863 209.27 113.41ZM225.5 144.04L227.86 130.69H237L233.59 148.48C233.237 151.1 231.32 152.41 227.84 152.41H222.08V145.08H223.91C225 145.28 225.5 144.91 225.5 144.04ZM222.62 106.04V97.66H228.9L229.9 94.52H239.32L238.54 97.66H263.66V106.04H236.18L232.52 118.34H239.06V110.28H249.01V118.4H263.66V126.77H249.01V149.28C249.01 152.613 247.343 154.28 244.01 154.28H235.38V146.96H238.25C238.78 147.13 239.04 146.87 239.04 146.17V126.76H222.55V120.22L226.74 106.09L222.62 106.04ZM253 147.7L250.91 130.43H259.54L261.64 144.3C261.46 145.17 261.81 145.52 262.64 145.3H264V152.37H257.2C254.56 152.397 253.16 150.84 253 147.7Z" fill="white"/>
<path d="M244.08 154.74H235V146.41H238.64C238.64 146.41 238.64 146.28 238.64 146.07V127.28H222.15V120.1L226.15 106.61H222.15V97.23H228.57L229.62 94.09H240L239.22 97.23H264.22V106.61H236.6L233.24 117.91H238.61V109.79H249.55V117.91H264.21V127.28H249.55V149.28C249.55 152.85 247.66 154.74 244.08 154.74ZM235.95 153.74H244.08C247.13 153.74 248.55 152.32 248.55 149.27V126.28H263.21V118.91H248.55V110.79H239.61V118.91H231.9L235.9 105.61H263.25V98.23H238L238.78 95.09H230.36L229.36 98.23H223.22V105.61H227.58L223.22 120.31V126.31H239.71V146.18C239.735 146.397 239.708 146.617 239.629 146.82C239.551 147.024 239.424 147.206 239.26 147.35C239.128 147.44 238.977 147.496 238.818 147.515C238.66 147.535 238.5 147.516 238.35 147.46H236L235.95 153.74ZM210.06 153.43H203.8V145.11H205.73C205.97 145.17 206.08 145.11 206.09 145.11C206.1 145.11 206.16 145.02 206.16 144.79V144.68L210.69 123.61H221.13L215.77 148.82C215.22 151.84 213.24 153.43 210.06 153.43ZM204.8 152.43H210.06C212.77 152.43 214.33 151.2 214.8 148.65L219.91 124.65H211.51L207.16 144.89C207.16 145.079 207.12 145.266 207.042 145.438C206.964 145.611 206.851 145.764 206.71 145.89C206.544 146.007 206.352 146.085 206.151 146.116C205.95 146.147 205.744 146.132 205.55 146.07H204.8V152.43ZM264.47 152.91H257.17C255.17 152.91 252.72 152.01 252.48 147.74L250.32 129.93H260L262.17 144.31V144.4C262.09 144.76 262.17 144.86 262.17 144.86C262.17 144.86 262.28 144.93 262.64 144.86H264.54L264.47 152.91ZM251.47 130.91L253.47 147.65C253.63 150.54 254.8 151.89 257.16 151.89H263.46V145.82H262.65C262.433 145.888 262.202 145.899 261.979 145.852C261.757 145.805 261.55 145.701 261.38 145.55C261.232 145.376 261.13 145.168 261.081 144.945C261.032 144.722 261.039 144.49 261.1 144.27L259.1 130.91H251.47ZM227.88 152.91H221.62V144.58H223.95C224.257 144.675 224.588 144.653 224.88 144.52C224.989 144.382 225.04 144.205 225.02 144.03V143.95L227.45 130.19H237.63L234.11 148.58C233.72 151.44 231.62 152.91 227.86 152.91H227.88ZM222.62 151.91H227.88C231.1 151.91 232.82 150.77 233.14 148.42L236.43 131.19H228.3L226 144.08C226.011 144.305 225.971 144.529 225.885 144.736C225.798 144.944 225.667 145.129 225.5 145.28C225.264 145.449 224.994 145.563 224.708 145.613C224.422 145.664 224.129 145.649 223.85 145.57H222.6L222.62 151.91ZM213.07 117.12C211.909 117.201 210.761 116.844 209.85 116.12C209.495 115.775 209.216 115.359 209.033 114.899C208.851 114.439 208.768 113.945 208.79 113.45L204.48 94.05H214.14L217.4 107.9V108.02C217.389 108.083 217.389 108.147 217.4 108.21C217.65 108.264 217.909 108.264 218.16 108.21H220.84V117.07H214.32C213.847 117.103 213.423 117.12 213.05 117.12H213.07ZM205.73 95.07L209.79 113.41C209.758 113.776 209.807 114.145 209.933 114.491C210.059 114.836 210.26 115.15 210.52 115.41C211.21 116.03 212.45 116.25 214.21 116.07H219.79V109.21H218.19C217.92 109.291 217.634 109.305 217.357 109.251C217.08 109.197 216.82 109.077 216.6 108.9C216.481 108.766 216.398 108.604 216.357 108.429C216.317 108.255 216.322 108.073 216.37 107.9L213.37 95.05L205.73 95.07Z" fill="black"/>
<path d="M31.6499 188.28H39.1699V183.88H45.23V188.28H46.7V193.42H45.23V195.08H46.3301V200.4H45.23V225.4H39V200.4H38.27L37.53 220.04C37.53 222.487 36.3667 223.713 34.04 223.72H31.47V219.31C31.96 219.43 32.21 219.19 32.21 218.58L32.9399 195.08H39V193.61H31.6599V188.28H31.6499ZM47.4299 208.66H73.3201V215.45C73.4401 218.15 72.32 219.37 70.02 219.13L69.6499 221.13H73.3201V224.8H46.52V221.13H50.3701L49.8201 219.13H47.4299V208.66ZM47.25 207.19V202.79H73.3201V207.19H47.25ZM54.04 188.83H47.8V184.28H60.29L59.55 195.48C59.55 200.147 57.4099 202.227 53.1299 201.72H48V197.13H52.23C52.84 197.26 53.2301 196.89 53.3301 196.03L53.51 195.48H50.5801C48.7401 195.36 47.8201 194.197 47.8201 191.99V190.28H51.6799C51.5499 190.89 51.7999 191.14 52.4099 191.02H53.8799L54.04 188.83ZM53.3101 213.25V214.72H66.3101C66.8001 214.84 67.05 214.6 67.05 213.99V213.28L53.3101 213.25ZM63.5901 219.13H56.5901V221.13H63.5901V219.13ZM61.75 197.13L60.8401 184.28H73.3201V189.42H67.6299L68 191.26H68.9099C69.5299 191.38 69.8301 191.14 69.8301 190.53H73.5L73.3201 192.73C73.2001 194.81 72.2834 195.667 70.5701 195.3H68.1799L68.3601 196.03C68.2401 196.89 68.6699 197.26 69.6499 197.14H73.1399V201.54H66.53C63.47 201.78 61.8767 200.303 61.75 197.11V197.13Z" fill="white"/>
<path d="M45.73 225.89H38.49V207.54L38.02 220.08C38.02 222.79 36.64 224.24 34.02 224.24H31V218.69L31.6201 218.85H31.72C31.7263 218.763 31.7263 218.677 31.72 218.59L32.47 194.59H38.47V194.12H31.1299V187.79H38.6499V183.39H45.71V187.79H47.1799V193.93H45.71V194.59H46.8101V200.91H45.71L45.73 225.89ZM39.49 224.89H44.73V199.89H45.8301V195.57H44.73V192.91H46.2V188.77H44.73V184.37H39.6699V188.77H32.1499V193.1H39.49V195.57H33.4199L32.7 218.57C32.7174 218.767 32.6886 218.966 32.6157 219.15C32.5428 219.334 32.4278 219.498 32.28 219.63C32.1873 219.705 32.0773 219.757 31.96 219.78V223.28H34C36 223.28 37 222.28 37 220.1L37.75 199.96H39.47L39.49 224.89ZM73.8201 225.34H46V220.67H49.7L49.4199 219.67H46.9099V208.18H73.8V215.47C73.889 216.08 73.8456 216.702 73.6731 217.294C73.5006 217.886 73.2029 218.433 72.8 218.9C72.4779 219.186 72.1 219.401 71.6904 219.534C71.2808 219.666 70.8483 219.713 70.4199 219.67L70.24 220.67H73.8101L73.8201 225.34ZM47.02 224.34H72.8201V221.67H69.05L69.6101 218.6H70.0701C70.4184 218.668 70.777 218.66 71.1221 218.577C71.4671 218.494 71.7904 218.338 72.0701 218.12C72.3675 217.749 72.5835 217.319 72.7041 216.859C72.8247 216.4 72.8471 215.919 72.77 215.45V209.13H47.8799V218.6H50.1499L50.98 221.6H46.98L47.02 224.34ZM64.0901 221.67H56.0901V218.67H64.0901V221.67ZM57.0901 220.67H63.0901V219.67H57.0901V220.67ZM66.55 215.27H52.79V212.8H67.5601V214.04C67.5783 214.239 67.5497 214.439 67.4768 214.625C67.4039 214.811 67.2885 214.977 67.1399 215.11C66.9715 215.223 66.7729 215.282 66.5701 215.28L66.55 215.27ZM53.79 214.27H66.54C66.5464 214.183 66.5464 214.097 66.54 214.01V213.77H53.77L53.79 214.27ZM73.79 207.74H46.72V202.28H73.79V207.74ZM47.72 206.74H72.79V203.28H47.72V206.74ZM54.25 202.3C53.8456 202.301 53.4416 202.277 53.04 202.23H47.45V196.64H52.1799C52.4499 196.69 52.51 196.64 52.53 196.64C52.55 196.64 52.71 196.47 52.78 196H50.52C49.02 195.9 47.27 195.13 47.27 192V189.85H52.27L52.1499 190.45C52.1499 190.52 52.1499 190.58 52.1499 190.62H53.4299L53.53 189.41H47.3301V183.82H73.8501V189.96H68.27L68.4399 190.8H68.9399C69.0652 190.826 69.1948 190.826 69.3201 190.8C69.3412 190.718 69.3412 190.632 69.3201 190.55V190.05H74.04L73.8101 192.79C73.8279 193.288 73.7388 193.784 73.5491 194.244C73.3593 194.705 73.0732 195.119 72.71 195.46C72.3893 195.676 72.0257 195.82 71.6443 195.882C71.2628 195.944 70.8725 195.923 70.5 195.82H68.8101V196.12C68.8101 196.35 68.8101 196.52 68.8101 196.58C68.8101 196.64 69.09 196.71 69.49 196.66H73.49V202.07H66.3799C65.7149 202.172 65.0363 202.135 64.386 201.963C63.7357 201.791 63.1278 201.487 62.6001 201.07C62.1004 200.559 61.7098 199.951 61.4519 199.284C61.1941 198.617 61.0744 197.905 61.1001 197.19L60.4199 187.61L59.8999 195.55C59.8999 198.06 59.26 199.93 58 201.05C56.9481 201.894 55.6276 202.33 54.28 202.28L54.25 202.3ZM48.45 201.23H53.0901C55.0901 201.45 56.5 201.13 57.46 200.23C58.42 199.33 59.02 197.7 59.02 195.44L59.72 184.74H48.3V188.33H54.5901L54.3201 191.54H52.3899C52.2165 191.588 52.0338 191.591 51.8589 191.549C51.6839 191.507 51.5225 191.422 51.3899 191.3C51.2607 191.161 51.174 190.987 51.1399 190.8H48.3V191.95C48.3 194.5 49.6101 194.88 50.5901 194.95H54.1899L53.78 196.16C53.7661 196.402 53.7009 196.639 53.5889 196.855C53.4768 197.07 53.3203 197.259 53.1299 197.41C52.9848 197.508 52.8211 197.574 52.6489 197.605C52.4768 197.636 52.2999 197.631 52.1299 197.59H48.5L48.45 201.23ZM61.3401 184.79L62.22 197.13C62.1912 197.709 62.279 198.288 62.4783 198.833C62.6775 199.377 62.9841 199.876 63.3799 200.3C63.8151 200.628 64.3129 200.864 64.8425 200.993C65.3722 201.122 65.9226 201.142 66.46 201.05H72.6101V197.64H69.6101C69.3548 197.698 69.0894 197.694 68.8357 197.63C68.582 197.566 68.3469 197.442 68.1499 197.27C68.0067 197.109 67.9027 196.916 67.8455 196.708C67.7882 196.5 67.7796 196.282 67.8201 196.07L67.5 194.81H70.6299C70.8677 194.889 71.1201 194.915 71.3689 194.885C71.6177 194.856 71.8572 194.772 72.0701 194.64C72.3152 194.383 72.5046 194.078 72.6267 193.744C72.7489 193.41 72.8011 193.055 72.78 192.7L72.9199 191.03H70.22C70.1647 191.235 70.0456 191.417 69.8799 191.55C69.7257 191.669 69.5456 191.749 69.3542 191.783C69.1629 191.818 68.966 191.807 68.78 191.75H67.55L66.98 188.91H72.78V184.77L61.3401 184.79Z" fill="black"/>
<path d="M150.63 189.47H164.41V195.93H156.23V201.18H163.23V207.28H156.23V219.56H150.63V189.47Z" fill="white"/>
<path d="M156.73 220.03H150.13V188.97H164.91V196.43H156.73V200.68H163.73V207.75H156.73V220.03ZM151.13 219.03H155.73V206.75H162.73V201.68H155.73V195.43H163.91V189.97H151.13V219.03Z" fill="black"/>
<path d="M167.49 219.53V189.47H176.78C178.137 189.398 179.491 189.652 180.73 190.21C181.761 190.838 182.539 191.808 182.93 192.95C183.53 194.502 183.816 196.157 183.77 197.82C183.802 199.283 183.586 200.74 183.13 202.13C182.766 203.227 182.166 204.231 181.37 205.07C180.798 205.607 180.115 206.013 179.37 206.26C179.917 206.539 180.408 206.915 180.82 207.37C181.17 207.865 181.469 208.394 181.71 208.95C182.016 209.553 182.277 210.178 182.49 210.82L185.19 219.53H178.89L175.89 210.34C175.682 209.522 175.344 208.742 174.89 208.03C174.728 207.818 174.522 207.646 174.284 207.524C174.047 207.403 173.786 207.337 173.52 207.33H173.03V219.53H167.49ZM173.09 201.65H175.44C175.95 201.582 176.448 201.444 176.92 201.24C177.127 201.155 177.315 201.028 177.47 200.866C177.625 200.704 177.744 200.511 177.82 200.3C178.061 199.749 178.18 199.152 178.17 198.55C178.22 197.768 178.028 196.989 177.62 196.32C177.362 196.031 177.038 195.81 176.676 195.674C176.314 195.538 175.924 195.492 175.54 195.54H173.09V201.65Z" fill="white"/>
<path d="M185.91 220.03H178.57L175.48 210.5C175.292 209.738 174.981 209.012 174.56 208.35C174.445 208.192 174.294 208.063 174.121 207.973C173.947 207.883 173.756 207.834 173.56 207.83V220.03H167V188.97H176.79C178.231 188.891 179.669 189.166 180.98 189.77C182.11 190.459 182.965 191.52 183.4 192.77C184.022 194.386 184.321 196.109 184.28 197.84C184.307 199.36 184.081 200.874 183.61 202.32C183.222 203.489 182.58 204.558 181.73 205.45C181.356 205.813 180.932 206.119 180.47 206.36C180.762 206.563 181.027 206.802 181.26 207.07C181.63 207.602 181.948 208.168 182.21 208.76C182.532 209.384 182.803 210.033 183.02 210.7L185.91 220.03ZM168 189.97V219.03H172.6V206.83H173.6C173.937 206.834 174.268 206.915 174.57 207.065C174.871 207.216 175.135 207.433 175.34 207.7C175.85 208.46 176.225 209.303 176.45 210.19L179.32 219.03H184.57L182.08 210.97C181.87 210.353 181.616 209.751 181.32 209.17C181.098 208.65 180.823 208.154 180.5 207.69C180.123 207.285 179.68 206.947 179.19 206.69L178.25 206.17L179.25 205.79C179.914 205.561 180.521 205.193 181.03 204.71C181.777 203.927 182.341 202.988 182.68 201.96C183.11 200.62 183.316 199.218 183.29 197.81C183.332 196.213 183.061 194.623 182.49 193.13C182.132 192.093 181.425 191.213 180.49 190.64C179.325 190.121 178.053 189.888 176.78 189.96L168 189.97ZM175.45 202.15H172.6V195.04H175.55C176.015 194.99 176.485 195.056 176.919 195.23C177.354 195.404 177.738 195.682 178.04 196.04C178.504 196.796 178.727 197.675 178.68 198.56C178.697 199.247 178.564 199.93 178.29 200.56C178.184 200.834 178.021 201.082 177.813 201.289C177.604 201.496 177.355 201.656 177.08 201.76C176.56 201.985 176.005 202.117 175.44 202.15H175.45ZM173.6 201.15H175.45C175.899 201.085 176.337 200.957 176.75 200.77C176.895 200.705 177.026 200.611 177.135 200.495C177.243 200.378 177.326 200.24 177.38 200.09C177.589 199.604 177.691 199.079 177.68 198.55C177.728 197.872 177.568 197.195 177.22 196.61C177.004 196.394 176.741 196.23 176.451 196.131C176.162 196.032 175.853 196.001 175.55 196.04H173.6V201.15Z" fill="black"/>
<path d="M185.89 204.52C185.89 199.607 186.71 195.787 188.35 193.06C189.025 191.825 190.019 190.793 191.228 190.072C192.437 189.351 193.817 188.967 195.224 188.96C196.632 188.953 198.016 189.323 199.232 190.031C200.448 190.74 201.452 191.762 202.14 192.99C203.76 195.657 204.573 199.42 204.58 204.28C204.656 207.197 204.296 210.109 203.51 212.92C202.959 214.906 201.901 216.715 200.44 218.17C199.082 219.425 197.288 220.099 195.44 220.05C193.619 220.12 191.831 219.546 190.39 218.43C188.862 217.047 187.742 215.273 187.15 213.3C186.24 210.465 185.814 207.497 185.89 204.52ZM191.46 204.52C191.46 207.56 191.793 209.743 192.46 211.07C192.663 211.642 193.039 212.137 193.535 212.487C194.031 212.837 194.623 213.025 195.23 213.025C195.837 213.025 196.429 212.837 196.925 212.487C197.421 212.137 197.797 211.642 198 211.07C198.66 209.77 199 207.44 199 204.07C199.136 201.955 198.794 199.835 198 197.87C197.783 197.3 197.402 196.806 196.906 196.45C196.41 196.095 195.82 195.893 195.21 195.87C194.612 195.902 194.037 196.108 193.555 196.464C193.073 196.819 192.707 197.308 192.5 197.87C191.807 199.277 191.46 201.507 191.46 204.56V204.52Z" fill="white"/>
<path d="M195.42 220.55C193.486 220.615 191.591 220.003 190.06 218.82C188.46 217.38 187.285 215.53 186.66 213.47C185.728 210.564 185.295 207.521 185.38 204.47C185.38 199.47 186.24 195.55 187.92 192.75C188.639 191.44 189.696 190.347 190.98 189.583C192.265 188.819 193.73 188.413 195.224 188.405C196.719 188.398 198.188 188.791 199.479 189.542C200.771 190.294 201.838 191.377 202.57 192.68C204.23 195.43 205.08 199.32 205.08 204.23C205.154 207.198 204.786 210.16 203.99 213.02C203.409 215.09 202.304 216.974 200.78 218.49C199.33 219.849 197.407 220.589 195.42 220.55ZM195.2 189.46C193.875 189.439 192.57 189.79 191.434 190.472C190.297 191.154 189.375 192.141 188.77 193.32C187.19 195.96 186.38 199.73 186.38 204.52C186.301 207.438 186.714 210.349 187.6 213.13C188.163 215.018 189.231 216.716 190.69 218.04C192.041 219.081 193.715 219.616 195.42 219.55C196.277 219.58 197.131 219.441 197.934 219.141C198.737 218.841 199.473 218.385 200.1 217.8C201.495 216.415 202.508 214.692 203.04 212.8C203.791 210.035 204.128 207.174 204.04 204.31C204.04 199.58 203.24 195.87 201.67 193.31C201.055 192.131 200.125 191.146 198.982 190.466C197.839 189.786 196.53 189.438 195.2 189.46ZM195.2 213.59C194.502 213.57 193.826 213.344 193.255 212.942C192.685 212.541 192.245 211.98 191.99 211.33C191.27 209.92 190.92 207.71 190.92 204.56C190.92 201.41 191.27 199.16 192 197.75C192.246 197.106 192.676 196.549 193.236 196.147C193.796 195.746 194.461 195.517 195.15 195.49C195.847 195.507 196.524 195.727 197.098 196.123C197.672 196.519 198.117 197.074 198.38 197.72C199.11 199.11 199.46 201.22 199.46 204.15C199.46 207.63 199.12 209.99 198.46 211.37C198.203 212.017 197.76 212.573 197.187 212.968C196.614 213.364 195.936 213.58 195.24 213.59H195.2ZM195.2 196.49C194.696 196.523 194.213 196.704 193.811 197.009C193.409 197.315 193.106 197.733 192.94 198.21C192.3 199.45 191.94 201.59 191.94 204.56C191.94 207.53 192.26 209.63 192.94 210.88C193.115 211.362 193.428 211.782 193.841 212.086C194.254 212.39 194.748 212.566 195.26 212.59C195.771 212.577 196.266 212.411 196.682 212.113C197.097 211.816 197.414 211.4 197.59 210.92C198.21 209.7 198.52 207.42 198.52 204.15C198.644 202.1 198.302 200.049 197.52 198.15C197.335 197.676 197.017 197.267 196.603 196.972C196.189 196.678 195.698 196.51 195.19 196.49H195.2Z" fill="black"/>
<path d="M206.61 209.59L211.91 209.03C211.953 210.156 212.19 211.265 212.61 212.31C212.786 212.829 213.116 213.281 213.555 213.608C213.994 213.935 214.523 214.12 215.07 214.14C215.431 214.156 215.79 214.079 216.112 213.916C216.434 213.753 216.709 213.51 216.91 213.21C217.345 212.571 217.572 211.813 217.56 211.04C217.569 210.297 217.352 209.568 216.94 208.95C216.179 208.106 215.189 207.501 214.09 207.21C212.016 206.553 210.192 205.28 208.86 203.56C207.753 201.831 207.204 199.802 207.29 197.75C207.278 196.256 207.549 194.773 208.09 193.38C208.563 192.084 209.408 190.957 210.52 190.14C211.833 189.283 213.385 188.87 214.95 188.96C215.933 188.893 216.919 189.051 217.832 189.422C218.745 189.793 219.562 190.367 220.22 191.1C221.433 192.527 222.153 194.8 222.38 197.92L217.13 198.43C217.099 197.371 216.796 196.338 216.25 195.43C216.045 195.132 215.768 194.89 215.444 194.728C215.121 194.565 214.762 194.487 214.4 194.5C214.117 194.482 213.834 194.536 213.577 194.657C213.32 194.777 213.097 194.961 212.93 195.19C212.597 195.682 212.426 196.266 212.44 196.86C212.438 197.325 212.581 197.78 212.85 198.16C213.35 198.704 214.001 199.087 214.72 199.26C216.6 199.847 218.368 200.746 219.95 201.92C221.002 202.803 221.797 203.953 222.25 205.25C222.747 206.68 222.991 208.186 222.97 209.7C222.977 211.524 222.638 213.333 221.97 215.03C221.451 216.495 220.521 217.78 219.29 218.73C218.02 219.614 216.496 220.06 214.95 220C211.88 220 209.76 219 208.57 217C207.326 214.725 206.653 212.182 206.61 209.59Z" fill="white"/>
<path d="M215 220.55C211.76 220.55 209.47 219.47 208.19 217.35C206.878 214.978 206.167 212.32 206.12 209.61V209.14L212.41 208.48V208.99C212.453 210.056 212.673 211.107 213.06 212.1C213.196 212.53 213.461 212.908 213.819 213.184C214.176 213.459 214.609 213.618 215.06 213.64C215.341 213.656 215.621 213.598 215.872 213.472C216.123 213.345 216.336 213.155 216.49 212.92C216.873 212.369 217.069 211.71 217.05 211.04C217.059 210.397 216.874 209.767 216.52 209.23C215.82 208.469 214.913 207.93 213.91 207.68C211.735 206.994 209.825 205.653 208.44 203.84C207.273 202.029 206.693 199.903 206.78 197.75C206.772 196.191 207.057 194.644 207.62 193.19C208.133 191.812 209.032 190.61 210.21 189.73C211.61 188.811 213.267 188.362 214.94 188.45C215.998 188.384 217.058 188.56 218.038 188.964C219.019 189.367 219.895 189.988 220.6 190.78C221.87 192.28 222.6 194.67 222.87 197.88V198.37L216.63 198.98V198.48C216.598 197.525 216.326 196.593 215.84 195.77C215.682 195.536 215.467 195.347 215.214 195.221C214.962 195.095 214.682 195.036 214.4 195.05C214.197 195.034 213.993 195.069 213.808 195.153C213.622 195.237 213.462 195.367 213.34 195.53C213.063 195.936 212.922 196.419 212.94 196.91C212.936 197.268 213.044 197.618 213.25 197.91C213.694 198.367 214.259 198.687 214.88 198.83C216.825 199.428 218.653 200.358 220.28 201.58C221.391 202.524 222.233 203.746 222.72 205.12C223.237 206.605 223.491 208.168 223.47 209.74C223.487 211.627 223.147 213.499 222.47 215.26C221.915 216.813 220.926 218.174 219.62 219.18C218.266 220.118 216.647 220.598 215 220.55ZM207.14 210.03C207.238 212.415 207.892 214.743 209.05 216.83C210.15 218.66 212.05 219.55 215 219.55C216.44 219.603 217.86 219.193 219.05 218.38C220.2 217.482 221.071 216.275 221.56 214.9C222.186 213.256 222.498 211.509 222.48 209.75C222.501 208.294 222.268 206.845 221.79 205.47C221.365 204.256 220.623 203.179 219.64 202.35C218.102 201.216 216.385 200.348 214.56 199.78C213.735 199.58 212.993 199.125 212.44 198.48C212.116 198.021 211.945 197.472 211.95 196.91C211.927 196.197 212.134 195.496 212.54 194.91C212.752 194.616 213.035 194.38 213.361 194.223C213.688 194.066 214.048 193.993 214.41 194.01C214.85 193.995 215.286 194.091 215.679 194.288C216.072 194.486 216.409 194.779 216.66 195.14C217.181 195.956 217.496 196.886 217.58 197.85L221.85 197.43C221.6 194.68 220.93 192.65 219.85 191.38C219.242 190.696 218.485 190.16 217.637 189.813C216.789 189.466 215.874 189.318 214.96 189.38C213.5 189.302 212.052 189.683 210.82 190.47C209.796 191.232 209.015 192.274 208.57 193.47C208.05 194.805 207.789 196.227 207.8 197.66C207.72 199.608 208.236 201.534 209.28 203.18C210.555 204.818 212.299 206.029 214.28 206.65C215.482 206.972 216.561 207.644 217.38 208.58C217.85 209.296 218.101 210.134 218.101 210.99C218.101 211.846 217.85 212.684 217.38 213.4C217.134 213.768 216.799 214.067 216.405 214.268C216.011 214.469 215.572 214.566 215.13 214.55C214.488 214.536 213.866 214.326 213.346 213.949C212.826 213.572 212.433 213.046 212.22 212.44C211.821 211.486 211.584 210.472 211.52 209.44L207.14 210.03Z" fill="black"/>
<path d="M224.51 189.47H241.45V196.89H235.77V219.53H230.19V196.89H224.51V189.47Z" fill="white"/>
<path d="M236.27 220.03H229.69V197.39H224V188.97H242V197.39H236.32L236.27 220.03ZM230.69 219.03H235.27V196.39H241V189.97H225V196.39H230.68L230.69 219.03Z" fill="black"/>
<path d="M144.16 147.03H37.1599C36.0433 147.031 34.9374 146.812 33.9055 146.386C32.8737 145.959 31.9363 145.333 31.1467 144.543C30.3572 143.754 29.7311 142.816 29.3044 141.784C28.8778 140.753 28.6586 139.647 28.6599 138.53V34.53C28.6599 32.2757 29.5556 30.1137 31.1497 28.5196C32.7437 26.9255 34.9056 26.03 37.1599 26.03C39.4143 26.03 41.5764 26.9255 43.1704 28.5196C44.7645 30.1137 45.6599 32.2757 45.6599 34.53V130.03H135.66V34.53C135.66 32.2757 136.556 30.1137 138.15 28.5196C139.744 26.9255 141.906 26.03 144.16 26.03C146.414 26.03 148.576 26.9255 150.17 28.5196C151.764 30.1137 152.66 32.2757 152.66 34.53V138.53C152.66 140.784 151.764 142.946 150.17 144.54C148.576 146.135 146.414 147.03 144.16 147.03ZM90.6599 65.16L80.3001 47.22C79.7748 46.31 79.0753 45.5123 78.2417 44.8725C77.4081 44.2327 76.4568 43.7634 75.4419 43.4913C74.427 43.2193 73.3682 43.1498 72.3264 43.2868C71.2846 43.4238 70.2802 43.7648 69.3701 44.29C68.4601 44.8153 67.6622 45.5147 67.0225 46.3483C66.3827 47.1818 65.9134 48.1332 65.6414 49.1482C65.3693 50.1631 65.2997 51.2217 65.4368 52.2635C65.5738 53.3054 65.9147 54.31 66.4399 55.22L76.8001 73.15H56.0901C53.9684 73.15 51.9334 73.9929 50.4331 75.4932C48.9328 76.9935 48.0901 79.0283 48.0901 81.15C48.0901 83.2718 48.9328 85.3066 50.4331 86.8069C51.9334 88.3072 53.9684 89.15 56.0901 89.15H76.8001L66.4399 107.09C65.3791 108.928 65.0919 111.112 65.6414 113.162C66.1908 115.212 67.5322 116.959 69.3701 118.02C71.2081 119.081 73.3921 119.368 75.4419 118.819C77.4917 118.269 79.2392 116.928 80.3001 115.09L90.6599 97.15L101 115.09C101.51 116.029 102.202 116.856 103.037 117.523C103.872 118.19 104.832 118.682 105.86 118.972C106.888 119.262 107.964 119.343 109.024 119.211C110.084 119.078 111.107 118.734 112.032 118.2C112.957 117.665 113.766 116.951 114.41 116.099C115.055 115.247 115.522 114.275 115.785 113.24C116.047 112.204 116.1 111.126 115.939 110.07C115.779 109.014 115.409 108.001 114.85 107.09L104.5 89.15H125.21C127.332 89.15 129.367 88.3072 130.867 86.8069C132.367 85.3066 133.21 83.2718 133.21 81.15C133.21 79.0283 132.367 76.9935 130.867 75.4932C129.367 73.9929 127.332 73.15 125.21 73.15H104.5L114.85 55.22C115.409 54.3093 115.779 53.296 115.939 52.2399C116.1 51.1837 116.047 50.1061 115.785 49.0706C115.522 48.035 115.055 47.0626 114.41 46.2107C113.766 45.3588 112.957 44.6446 112.032 44.1102C111.107 43.5759 110.084 43.2322 109.024 43.0995C107.964 42.9669 106.888 43.0479 105.86 43.3377C104.832 43.6276 103.872 44.1204 103.037 44.7872C102.202 45.454 101.51 46.2812 101 47.22L90.6399 65.15" fill="#F78C21"/>
<path d="M144.16 147.53H37.1599C34.773 147.53 32.484 146.582 30.7961 144.894C29.1083 143.206 28.1599 140.917 28.1599 138.53V34.53C28.1599 32.1431 29.1083 29.8539 30.7961 28.1661C32.484 26.4782 34.773 25.53 37.1599 25.53C39.5469 25.53 41.8361 26.4782 43.5239 28.1661C45.2118 29.8539 46.1599 32.1431 46.1599 34.53V129.53H135.16V34.53C135.16 32.1431 136.108 29.8539 137.796 28.1661C139.484 26.4782 141.773 25.53 144.16 25.53C146.547 25.53 148.836 26.4782 150.524 28.1661C152.212 29.8539 153.16 32.1431 153.16 34.53V138.53C153.16 140.917 152.212 143.206 150.524 144.894C148.836 146.582 146.547 147.53 144.16 147.53ZM37.1599 26.53C35.0382 26.53 33.0035 27.3729 31.5032 28.8732C30.0029 30.3735 29.1599 32.4083 29.1599 34.53V138.53C29.1599 140.652 30.0029 142.687 31.5032 144.187C33.0035 145.687 35.0382 146.53 37.1599 146.53H144.16C146.282 146.53 148.317 145.687 149.817 144.187C151.317 142.687 152.16 140.652 152.16 138.53V34.53C152.16 32.4083 151.317 30.3735 149.817 28.8732C148.317 27.3729 146.282 26.53 144.16 26.53C142.038 26.53 140.003 27.3729 138.503 28.8732C137.003 30.3735 136.16 32.4083 136.16 34.53V130.53H45.1599V34.53C45.1599 32.4083 44.3172 30.3735 42.8169 28.8732C41.3166 27.3729 39.2816 26.53 37.1599 26.53ZM73.3701 119.59C71.8782 119.59 70.4124 119.197 69.1204 118.451C67.8284 117.705 66.7557 116.632 66.0098 115.339C65.2639 114.047 64.8713 112.582 64.8713 111.09C64.8714 109.598 65.264 108.132 66.01 106.84L75.9299 89.65H56.0901C53.8357 89.65 51.6736 88.7545 50.0796 87.1605C48.4855 85.5664 47.5901 83.4044 47.5901 81.15C47.5901 78.8957 48.4855 76.7337 50.0796 75.1396C51.6736 73.5456 53.8357 72.65 56.0901 72.65H75.9299L66 55.47C65.4209 54.5026 65.0401 53.4297 64.8796 52.3137C64.7192 51.1976 64.7823 50.0608 65.0654 48.9695C65.3486 47.8781 65.846 46.854 66.5288 45.9567C67.2116 45.0595 68.0661 44.3071 69.0425 43.7433C70.0189 43.1795 71.0979 42.8155 72.2163 42.6727C73.3347 42.5298 74.4704 42.6109 75.5571 42.9112C76.6439 43.2115 77.66 43.7251 78.5464 44.4219C79.4328 45.1187 80.1716 45.9849 80.72 46.97L90.6499 64.15L100.57 46.97C101.118 45.9849 101.857 45.1187 102.744 44.4219C103.63 43.7251 104.646 43.2115 105.733 42.9112C106.82 42.6109 107.955 42.5298 109.074 42.6727C110.192 42.8155 111.271 43.1795 112.247 43.7433C113.224 44.3071 114.078 45.0595 114.761 45.9567C115.444 46.854 115.941 47.8781 116.224 48.9695C116.508 50.0608 116.571 51.1976 116.41 52.3137C116.25 53.4297 115.869 54.5026 115.29 55.47L105.37 72.65H125.22C127.474 72.65 129.636 73.5456 131.23 75.1396C132.825 76.7337 133.72 78.8957 133.72 81.15C133.72 83.4044 132.825 85.5664 131.23 87.1605C129.636 88.7545 127.474 89.65 125.22 89.65H105.33C106 90.75 107.33 93.0501 110.12 97.8701L115.29 106.87C116.036 108.161 116.428 109.626 116.429 111.117C116.429 112.608 116.037 114.073 115.293 115.365C114.548 116.657 113.477 117.73 112.186 118.477C110.895 119.224 109.431 119.618 107.94 119.62C106.447 119.617 104.982 119.222 103.689 118.477C102.396 117.731 101.321 116.66 100.57 115.37L90.6399 98.17C90.3799 98.64 90 99.3 89.46 100.24L80.72 115.37C79.9696 116.654 78.8963 117.718 77.6069 118.459C76.3175 119.199 74.8569 119.589 73.3701 119.59ZM73.3701 43.72C72.0549 43.7227 70.7633 44.0712 69.6252 44.7305C68.4872 45.3899 67.5427 46.3369 66.8862 47.4766C66.2298 48.6163 65.8846 49.9086 65.8853 51.2238C65.8859 52.5391 66.2323 53.831 66.8899 54.97L77.6799 73.65H56.1001C54.111 73.65 52.2032 74.4402 50.7966 75.8467C49.3901 77.2533 48.6001 79.1609 48.6001 81.15C48.6001 83.1391 49.3901 85.0468 50.7966 86.4533C52.2032 87.8598 54.111 88.65 56.1001 88.65H77.6799L66.8899 107.34C66.3974 108.194 66.078 109.136 65.9497 110.113C65.8214 111.09 65.8867 112.083 66.1421 113.035C66.3975 113.986 66.8378 114.879 67.438 115.66C68.0381 116.442 68.7863 117.098 69.6399 117.59C70.4935 118.082 71.4358 118.402 72.4128 118.53C73.3899 118.659 74.3827 118.593 75.3345 118.338C76.2863 118.083 77.1786 117.642 77.9602 117.042C78.7418 116.442 79.3974 115.694 79.8899 114.84C79.8899 114.84 88.8901 99.31 90.1001 97.15L88.3501 94.15L90.5701 96.3701L90.6699 96.19L91.0801 96.89C91.116 96.9269 91.1431 96.9713 91.1599 97.02L101.47 114.88C101.962 115.734 102.618 116.482 103.4 117.082C104.182 117.682 105.074 118.123 106.025 118.378C106.977 118.633 107.97 118.699 108.947 118.57C109.924 118.442 110.866 118.122 111.72 117.63C112.574 117.138 113.322 116.482 113.922 115.7C114.522 114.919 114.962 114.026 115.218 113.075C115.473 112.123 115.539 111.13 115.41 110.153C115.282 109.176 114.962 108.234 114.47 107.38L104.11 89.45L103.67 88.69H125.26C127.249 88.69 129.157 87.8999 130.563 86.4933C131.97 85.0868 132.76 83.1791 132.76 81.19C132.76 79.2009 131.97 77.2932 130.563 75.8867C129.157 74.4802 127.249 73.69 125.26 73.69H103.68L114.47 55.01C114.962 54.1564 115.282 53.2142 115.41 52.2371C115.539 51.2601 115.473 50.2673 115.218 49.3155C114.962 48.3637 114.522 47.4715 113.922 46.6899C113.322 45.9083 112.574 45.2525 111.72 44.76C110.866 44.2676 109.924 43.9481 108.947 43.8198C107.97 43.6914 106.977 43.7568 106.025 44.0122C105.074 44.2676 104.182 44.7079 103.4 45.308C102.618 45.9082 101.962 46.6564 101.47 47.51L91.1101 65.44L90.6799 65.19L90.24 65.44L79.8899 47.51C79.2338 46.3573 78.2839 45.3992 77.1367 44.7334C75.9896 44.0676 74.6865 43.7179 73.3601 43.72H73.3701Z" fill="black"/>
</svg>
