<svg width="300" height="246" viewBox="0 0 300 246" fill="none" xmlns="http://www.w3.org/2000/svg">
<path d="M288 0H12C8.8174 0 5.76509 1.26421 3.51465 3.51465C1.26421 5.76509 0 8.8174 0 12V234C0 237.183 1.26421 240.235 3.51465 242.485C5.76509 244.736 8.8174 246 12 246H288C291.183 246 294.235 244.736 296.485 242.485C298.736 240.235 300 237.183 300 234V12C300 8.8174 298.736 5.76509 296.485 3.51465C294.235 1.26421 291.183 0 288 0Z" fill="#61707E"/>
<path d="M166.28 12.3101H15C14.2494 12.3101 13.5295 12.6082 12.9988 13.1389C12.4681 13.6696 12.1699 14.3896 12.1699 15.1401V159.8C12.1699 160.552 12.4678 161.272 12.9983 161.805C13.5287 162.337 14.2485 162.637 15 162.64H166.28C167.032 162.637 167.751 162.337 168.282 161.805C168.812 161.272 169.11 160.552 169.11 159.8V15.1401C169.11 14.3896 168.812 13.6696 168.281 13.1389C167.75 12.6082 167.031 12.3101 166.28 12.3101Z" fill="#D3E2E2"/>
<path d="M91.4299 17.58L153.45 91.73H140.56V154.9H42.2999V91.73H29.3999L91.4299 17.58Z" fill="#F78C21"/>
<path d="M141.06 155.4H41.7998V92.23H28.3298L91.4299 16.8L91.8098 17.26L154.52 92.26H141.06V155.4ZM42.7998 154.4H140.06V91.23H152.41L91.4099 18.3601L30.4099 91.23H42.74L42.7998 154.4Z" fill="black"/>
<path d="M181.02 12.3101H285.02C285.771 12.3101 286.49 12.6082 287.021 13.1389C287.552 13.6696 287.85 14.3896 287.85 15.1401V162.64H181.02V12.3101Z" fill="#F78C21"/>
<path d="M204.29 24.24H229.67V21.8901H238.83V24.24H263.7V31.54H204.29V24.21V24.24ZM264.22 52.77V72.9199C264.573 78.8466 262.827 81.4634 258.98 80.77H251.92V74.23H252.92C253.92 74.41 254.49 73.8802 254.49 72.6602V60.1001H214.18V81.04H204.24V52.77H264.22ZM205.86 33.6602H263.17V43.0901C263.34 48.3201 261.34 50.7702 257.17 50.4102H205.87V33.6602H205.86ZM252.7 41.78V40.78H215.54V43.4001H251.13C252.18 43.5401 252.7 43 252.7 41.78ZM245.64 78.6799H216.85V62.1899H251.66V73.45C252 77.11 249.993 78.8533 245.64 78.6799ZM226.79 68.73V71.8801H239.62C241.01 72.0501 241.71 71.5301 241.71 70.3101V68.74H226.79V68.73Z" fill="white"/>
<path d="M214.73 81.54H203.79V52.27H264.72V72.9199C264.94 76.6699 264.34 79.1302 262.89 80.4102C262.337 80.8573 261.687 81.168 260.992 81.3174C260.298 81.4668 259.577 81.4505 258.89 81.27H251.41V77.1101C251.29 77.2872 251.156 77.4544 251.01 77.6101C249.93 78.7501 248.12 79.2699 245.62 79.1799H216.34V61.6899H252.15V73.45C252.145 73.5432 252.145 73.6367 252.15 73.73H252.93C253.35 73.79 253.59 73.7301 253.73 73.6401C253.841 73.5009 253.922 73.3402 253.969 73.1682C254.015 72.9962 254.026 72.8164 254 72.6401V60.5801H214.7L214.73 81.54ZM204.79 80.54H213.73V59.6001H255.03V72.6602C255.059 72.9793 255.019 73.3009 254.912 73.603C254.805 73.9051 254.633 74.1805 254.41 74.4102C254.194 74.5715 253.944 74.6827 253.68 74.7363C253.415 74.7899 253.142 74.7843 252.88 74.72H252.41V80.26H258.97C259.521 80.423 260.103 80.4527 260.668 80.3467C261.233 80.2406 261.765 80.0019 262.22 79.6501C263.41 78.6501 263.91 76.3399 263.71 72.9399V53.26H204.78L204.79 80.54ZM217.35 78.1799H245.66C247.86 78.2799 249.42 77.8399 250.29 76.9199C250.673 76.4446 250.95 75.892 251.1 75.3C251.25 74.7081 251.27 74.0906 251.16 73.49V62.6899H217.35V78.1799ZM240.1 72.4102C239.917 72.424 239.733 72.424 239.55 72.4102H226.29V68.27H242.21V70.3401C242.231 70.639 242.186 70.9387 242.079 71.2185C241.972 71.4983 241.805 71.7513 241.59 71.96C241.166 72.289 240.635 72.4496 240.1 72.4102ZM227.29 71.4102H239.62C240.066 71.5115 240.534 71.4398 240.93 71.21C241.034 71.0918 241.112 70.9536 241.16 70.804C241.208 70.6543 241.225 70.4965 241.21 70.3401V69.27H227.29V71.4102ZM257.91 50.98C257.643 50.9947 257.376 50.9947 257.11 50.98H205.35V33.22H263.67V43.1501C263.77 46.1501 263.14 48.3701 261.79 49.6501C260.715 50.5719 259.323 51.0381 257.91 50.95V50.98ZM206.35 49.98H257.15C257.854 50.1058 258.576 50.0762 259.267 49.8931C259.958 49.71 260.601 49.3777 261.15 48.9199C262.28 47.8499 262.81 45.9202 262.72 43.1602V34.22H206.41L206.35 49.98ZM251.5 43.98C251.35 43.994 251.199 43.994 251.05 43.98H215.05V40.3601H253.21V41.9102C253.24 42.2278 253.199 42.5481 253.092 42.8486C252.985 43.1492 252.814 43.4228 252.59 43.6501C252.264 43.8516 251.879 43.933 251.5 43.8801V43.98ZM216.04 42.98H251.13C251.55 43.04 251.79 42.9801 251.93 42.8901C252.041 42.7509 252.122 42.5902 252.169 42.4182C252.215 42.2462 252.226 42.0664 252.2 41.8901V41.3401H216.04V42.98ZM264.2 32.2H203.79V23.8701H229.17V21.52H239.33V23.8701H264.2V32.2ZM204.79 31.2H263.2V24.8701H238.33V22.52H230.17V24.8701H204.79V31.2Z" fill="black"/>
<path d="M287.83 175.02V230.86C287.83 231.612 287.532 232.332 287.002 232.865C286.471 233.397 285.751 233.697 285 233.7H104.41V175.02H287.83Z" fill="#F78C21"/>
<path d="M92.9399 233.7H15C14.2485 233.697 13.5287 233.397 12.9983 232.865C12.4678 232.332 12.1699 231.612 12.1699 230.86V175.02H92.9399V233.7Z" fill="#F78C21"/>
<path d="M206.9 105.54L203.5 93.54H212.4L214.75 100.87C215.45 102.97 216.15 103.87 216.85 103.49H218.94V111.08H211.88C209.26 111.587 207.6 109.74 206.9 105.54ZM206.64 123.6L203.5 113.66H212.92L214.75 119.41C215.097 121.863 216.057 122.823 217.63 122.29H219.2V129.62H214.49C209.95 130.513 207.333 128.513 206.64 123.62V123.6ZM203.76 146.11H206.64C207.51 146.29 208.21 145.32 208.73 143.23L210.83 132.23H219.99L217.11 147.67C216.763 151.33 214.147 153.073 209.26 152.9H203.76V146.1V146.11ZM218.68 145.59H220.51V126.24H261.34V145.61H262.41V153.2H218.7V145.61L218.68 145.59ZM220.51 123.08V93.54H261.34V113.7C262.007 121.033 259.563 124.173 254.01 123.12L220.51 123.08ZM231.77 133.28H228.41V145.59H231.82L231.77 133.28ZM229.67 101.36V105.02H251.92V101.36H229.67ZM252.18 112.09H229.67V116.01H250.35C251.57 116.203 252.18 115.6 252.18 114.2V112.09ZM239.09 145.59H242.23V133.28H239.09V145.59ZM250.09 145.59H252.96V133.28H250.09V145.59Z" fill="white"/>
<path d="M262.89 153.7H218.18V145.11H220.01V134.86L217.6 147.79C217.23 151.7 214.41 153.62 209.24 153.43H203.24V145.63H206.62C207.27 145.76 207.8 144.83 208.23 143.13L210.39 131.76H219.99V125.76H261.82V145.13H262.87L262.89 153.7ZM219.18 152.7H261.89V146.11H260.84V126.74H221.01V146.11H219.18V152.7ZM204.26 152.43H209.26C213.88 152.61 216.26 151.03 216.61 147.65L219.39 132.76H211.24L209.24 143.34C209 144.26 208.31 146.98 206.55 146.62H204.27L204.26 152.43ZM253.46 146.11H249.58V132.8H253.46V146.11ZM250.58 145.11H252.46V133.8H250.58V145.11ZM242.73 146.11H238.59V132.8H242.73V146.11ZM239.59 145.11H241.73V133.8H239.59V145.11ZM232.27 146.11H227.86V132.8H232.27V146.11ZM228.86 145.11H231.27V133.8H228.86V145.11ZM212.55 130.34C211.278 130.387 210.024 130.038 208.96 129.34C207.48 128.28 206.53 126.4 206.15 123.77L202.82 113.22H213.29L215.23 119.32C215.43 120.69 215.79 121.53 216.3 121.84C216.482 121.929 216.682 121.974 216.885 121.974C217.088 121.974 217.288 121.929 217.47 121.84H219.7V130.17H214.49C213.851 130.292 213.201 130.349 212.55 130.34ZM204.18 114.18L207.18 123.55C207.51 125.92 208.32 127.55 209.58 128.48C210.301 128.917 211.105 129.202 211.941 129.317C212.776 129.432 213.627 129.376 214.44 129.15H218.74V122.82H217.74C217.425 122.939 217.087 122.986 216.752 122.958C216.416 122.931 216.091 122.829 215.8 122.66C215.02 122.18 214.52 121.15 214.29 119.51L212.59 114.19L204.18 114.18ZM255.95 123.79C255.279 123.782 254.61 123.715 253.95 123.59H220.01V93.01H261.84V113.67C262.25 117.96 261.6 120.85 259.84 122.44C258.764 123.371 257.372 123.854 255.95 123.79ZM221.01 122.6H254.01C256.36 123.03 258.07 122.73 259.18 121.71C260.66 120.37 261.18 117.71 260.84 113.71V94.01H221.01V122.6ZM250.73 116.6H229.17V111.68H252.68V114.27C252.713 114.624 252.668 114.981 252.549 115.316C252.429 115.651 252.239 115.956 251.99 116.21C251.623 116.467 251.176 116.584 250.73 116.54V116.6ZM230.17 115.6H250.35C250.517 115.652 250.694 115.666 250.867 115.64C251.04 115.614 251.205 115.549 251.35 115.45C251.617 115.118 251.743 114.694 251.7 114.27V112.68H230.19L230.17 115.6ZM211.02 111.72C210.305 111.719 209.607 111.499 209.02 111.09C207.74 110.21 206.9 108.46 206.44 105.74L202.87 93.0901H212.79L215.26 100.77C215.91 102.77 216.39 103.05 216.52 103.1C216.539 103.113 216.562 103.119 216.585 103.119C216.608 103.119 216.631 103.113 216.65 103.1L216.76 103.05H219.41V111.54H211.84C211.571 111.604 211.296 111.641 211.02 111.65V111.72ZM204.16 94.0901L207.4 105.55C207.8 107.97 208.52 109.55 209.55 110.27C209.875 110.483 210.242 110.626 210.626 110.69C211.01 110.754 211.403 110.737 211.78 110.64H218.41V104.05H216.92C216.65 104.155 216.35 104.155 216.08 104.05C215.4 103.77 214.82 102.83 214.25 101.05L212 94.05L204.16 94.0901ZM252.41 105.54H229.16V100.88H252.41V105.54ZM230.16 104.54H251.41V101.88H230.16V104.54Z" fill="black"/>
<path d="M39.1599 188.3V183.9H45.22V188.3H46.6799V193.44H45.22V195.1H46.3198V200.42H45.22V225.42H38.97V200.42H38.24L37.51 220.06C37.51 222.51 36.34 223.74 34.02 223.74H31.4099V219.33C31.8999 219.45 32.1399 219.21 32.1399 218.6L32.8799 195.1H38.8799V193.63H31.5398V188.3H39.1599ZM73.3098 208.68V215.47C73.4298 218.17 72.31 219.39 70 219.15L69.6299 221.15H73.3098V224.82H46.5V221.15H50.4099L49.8499 219.15H47.4099V208.68H73.3098ZM47.23 207.21V202.81H73.2998V207.21H47.23ZM54.03 188.85H47.7898V184.26H60.27L59.5398 195.46C59.5398 200.127 57.3965 202.207 53.1099 201.7H47.97V197.11H52.1899C52.7999 197.24 53.1898 196.87 53.2898 196.01L53.48 195.46H50.5398C48.6998 195.34 47.7898 194.18 47.7898 191.97V190.32H51.6399C51.5199 190.93 51.7599 191.18 52.3699 191.05H53.8398L54.03 188.85ZM53.2898 213.27V214.74H66.2898C66.7798 214.86 67.02 214.62 67.02 214.01V213.27H53.2898ZM63.5698 219.15H56.5698V221.15H63.5698V219.15ZM61.74 197.15L60.8198 184.3H73.2998V189.44H67.6099L67.98 191.28H68.8999C69.5099 191.4 69.8198 191.16 69.8198 190.55H73.49L73.2998 192.75C73.1798 194.83 72.2631 195.687 70.5498 195.32H68.1599L68.3499 196.05C68.2199 196.91 68.6499 197.28 69.6299 197.15H73.1199V201.54H66.51C63.45 201.78 61.86 200.303 61.74 197.11V197.15Z" fill="white"/>
<path d="M45.71 225.89H38.47V207.54L38 220.08C38 222.79 36.63 224.24 34 224.24H30.9299V218.69L31.5498 218.85H31.6399C31.6463 218.764 31.6463 218.677 31.6399 218.59L32.3899 194.59H38.3899V194.12H31.0498V187.79H38.5798V183.39H45.6299V187.79H47.0999V193.93H45.6299V194.59H46.74V200.91H45.6299L45.71 225.89ZM39.47 224.89H44.71V199.89H45.8198V195.57H44.71V192.91H46.1799V188.77H44.71V184.37H39.6599V188.77H32.1299V193.1H39.47V195.57H33.4099L32.6899 218.57C32.7063 218.766 32.678 218.964 32.6069 219.147C32.5359 219.331 32.4242 219.496 32.28 219.63C32.1832 219.701 32.0749 219.755 31.96 219.79V223.2H34.03C36.03 223.2 37.03 222.2 37.03 220.03L37.7898 199.88H39.5L39.47 224.89ZM73.8098 225.34H46V220.67H49.7L49.4199 219.67H46.9199V208.2H73.8098V215.49C73.8987 216.1 73.8556 216.722 73.6831 217.314C73.5106 217.906 73.2126 218.453 72.8098 218.92C72.4833 219.199 72.1052 219.41 71.6968 219.542C71.2884 219.675 70.8578 219.725 70.4299 219.69L70.25 220.69H73.8298L73.8098 225.34ZM47 224.34H72.8098V221.67H69.03L69.5898 218.6L70.0498 218.65C70.4059 218.723 70.7736 218.717 71.1274 218.634C71.4813 218.551 71.813 218.393 72.0999 218.17C72.399 217.8 72.6169 217.371 72.7393 216.911C72.8616 216.451 72.8856 215.97 72.8098 215.5V209.18H47.9199V218.65H50.1899L51.01 221.65H47.01L47 224.34ZM64.0698 221.67H56.0698V218.67H64.0698V221.67ZM57.0698 220.67H63.0698V219.67H57.0698V220.67ZM52.76 215.27V212.8H67.53V214.04C67.5472 214.238 67.519 214.437 67.448 214.622C67.377 214.808 67.2648 214.974 67.1199 215.11C66.9504 215.22 66.7516 215.275 66.5498 215.27H52.76ZM53.76 214.27H66.51C66.5164 214.183 66.5164 214.097 66.51 214.01V213.77H53.74L53.76 214.27ZM73.76 207.74H46.6899V202.34H73.76V207.74ZM47.6899 206.74H72.76V203.34H47.6899V206.74ZM54.23 202.3C53.8223 202.301 53.415 202.277 53.01 202.23H47.4299V196.64H52.1499C52.4199 196.64 52.48 196.64 52.5 196.64C52.52 196.64 52.68 196.47 52.75 196H50.5C49 195.9 47.25 195.13 47.25 192V189.85H52.25L52.1299 190.45C52.1299 190.53 52.1299 190.58 52.1299 190.61C52.1863 190.618 52.2434 190.618 52.2998 190.61H53.3999L53.5 189.4H47.3098V183.81H73.8198V189.95H68.24L68.4099 190.79H68.9199C69.0452 190.816 69.1745 190.816 69.2998 190.79C69.3142 190.707 69.3142 190.623 69.2998 190.54V190.04H74.01L73.78 192.78C73.8025 193.278 73.7157 193.776 73.5256 194.237C73.3356 194.698 73.0469 195.112 72.6799 195.45C72.3608 195.665 71.9991 195.808 71.6194 195.871C71.2397 195.933 70.851 195.912 70.48 195.81H68.78L68.8398 196.02V196.11C68.7986 196.264 68.8164 196.428 68.8899 196.57C68.9599 196.64 69.1698 196.7 69.5698 196.65H73.6199V202.05H66.51C65.8451 202.146 65.1675 202.107 64.5181 201.935C63.8686 201.763 63.2606 201.462 62.73 201.05C62.2316 200.538 61.8423 199.93 61.5862 199.263C61.33 198.596 61.2124 197.884 61.24 197.17L60.5498 187.59L60.03 195.53C60.03 198.04 59.3999 199.91 58.1399 201.03C57.0502 201.912 55.6697 202.355 54.27 202.27L54.23 202.3ZM48.4299 201.23H53.0698C55.0698 201.45 56.4799 201.13 57.4299 200.28C58.3799 199.43 58.99 197.75 58.99 195.49L59.7 184.79H48.25V188.38H54.53L54.26 191.58H52.4099C52.238 191.636 52.0542 191.644 51.8782 191.603C51.7021 191.563 51.5403 191.475 51.4099 191.35C51.2744 191.215 51.1867 191.04 51.1599 190.85H48.3198V192C48.3198 194.55 49.6199 194.93 50.5999 195H54.2L53.7998 196.21C53.784 196.452 53.7181 196.688 53.6062 196.903C53.4943 197.118 53.339 197.308 53.1499 197.46C53.0043 197.557 52.8404 197.623 52.6685 197.654C52.4965 197.685 52.32 197.68 52.1499 197.64H48.53L48.4299 201.23ZM61.3198 184.79L62.2 197.13C62.1665 197.71 62.2522 198.29 62.4517 198.835C62.6512 199.38 62.9602 199.879 63.3599 200.3C63.7938 200.627 64.2898 200.862 64.8176 200.991C65.3455 201.12 65.8941 201.14 66.4299 201.05H72.5798V197.65H69.5798C69.3253 197.706 69.0614 197.7 68.8093 197.634C68.5573 197.568 68.3244 197.443 68.1299 197.27C67.9856 197.109 67.88 196.917 67.821 196.709C67.7621 196.502 67.7514 196.283 67.7898 196.07L67.47 194.81H70.6099C70.8482 194.886 71.0998 194.909 71.3481 194.88C71.5964 194.851 71.8356 194.769 72.0498 194.64C72.2949 194.383 72.4845 194.078 72.6067 193.744C72.7288 193.41 72.7811 193.055 72.76 192.7L72.8999 191.03H70.2C70.1389 191.232 70.0208 191.413 69.8599 191.55C69.7035 191.668 69.5217 191.747 69.3289 191.782C69.136 191.817 68.9378 191.806 68.75 191.75H67.52L66.95 188.91H72.75V184.77L61.3198 184.79Z" fill="black"/>
<path d="M116.3 189.47H121.87V199.99H127.96V189.47H133.56V219.54H127.96V207.38H121.87V219.54H116.3V189.47Z" fill="white"/>
<path d="M134.06 220.03H127.46V207.87H122.41V220.03H115.83V188.97H122.41V199.54H127.5V189.02H134.1L134.06 220.03ZM128.46 219.03H133.06V189.97H128.46V200.54H121.41V190.02H116.83V219.08H121.41V206.92H128.5L128.46 219.03Z" fill="black"/>
<path d="M137.25 189.47H152.19V195.89H142.84V200.67H151.51V206.8H142.84V212.73H152.46V219.53H137.25V189.47Z" fill="white"/>
<path d="M152.96 220.03H136.75V188.97H152.69V196.39H143.34V200.17H152.01V207.3H143.34V212.23H152.96V220.03ZM137.75 219.03H151.96V213.23H142.34V206.3H151.01V201.17H142.34V195.39H151.69V189.97H137.75V219.03Z" fill="black"/>
<path d="M166.55 214.54H160.22L159.34 219.54H153.65L160.43 189.48H166.51L173.29 219.54H167.41L166.55 214.54ZM165.4 208.04L163.4 197.23L161.4 208.04H165.4Z" fill="white"/>
<path d="M173.92 220.03H167.04L166.13 215.03H160.64L159.76 220.03H153.03L160.03 188.97H166.91L173.92 220.03ZM167.87 219.03H172.67L166.11 189.97H160.83L154.28 219.03H158.93L159.8 214.03H166.97L167.87 219.03ZM166 208.57H160.83L163.41 194.54L166 208.57ZM162 207.57H164.76L163.38 200.04L162 207.57Z" fill="black"/>
<path d="M172.06 189.47H189V196.89H183.32V219.54H177.74V196.9H172.06V189.47Z" fill="white"/>
<path d="M183.82 220.03H177.24V197.39H171.56V188.97H189.5V197.39H183.82V220.03ZM178.24 219.03H182.82V196.39H188.5V189.97H172.56V196.39H178.24V219.03Z" fill="black"/>
<path d="M198.07 189.47H203.37L205.27 206.3L208.06 189.47H213.34L216.14 206.28L218.04 189.47H223.31L219.31 219.53H213.85L210.68 200.6L207.53 219.53H202.07L198.07 189.47Z" fill="white"/>
<path d="M219.77 220.03H213.41L210.67 203.64L207.94 220.03H201.62L197.47 188.97H203.78L205.34 202.68L207.61 188.97H213.73L216.01 202.67L217.57 188.97H223.85L219.77 220.03ZM214.29 219.03H218.89L222.74 189.97H218.49L216.23 209.89L212.91 189.97H208.49L205.18 209.97L202.92 189.97H198.64L202.52 219.03H207.13L210.7 197.57L214.29 219.03Z" fill="black"/>
<path d="M236.22 214.54H229.89L229.01 219.54H223.32L230.1 189.48H236.18L242.96 219.54H237.12L236.22 214.54ZM235.06 208.04L233.06 197.23L231.06 208.04H235.06Z" fill="white"/>
<path d="M243.58 220.03H236.71L235.8 215.03H230.31L229.43 220.03H222.7L229.7 188.97H236.58L243.58 220.03ZM237.58 219.03H242.37L235.82 189.97H230.54L223.99 219.03H228.63L229.51 214.03H236.68L237.58 219.03ZM235.7 208.57H230.54L233.11 194.49L235.7 208.57ZM231.7 207.57H234.46L233.08 200.04L231.7 207.57Z" fill="black"/>
<path d="M241.57 189.47H247.41L251.47 211.11L255.47 189.47H261.12L254.41 219.54H248.41L241.57 189.47Z" fill="white"/>
<path d="M254.82 220.03H247.98L240.98 188.97H247.85L251.49 208.38L255.09 188.97H261.79L254.82 220.03ZM248.82 219.03H254.06L260.54 189.97H255.92L251.5 213.83L247.02 189.97H242.24L248.82 219.03Z" fill="black"/>
<path d="M262.93 189.47H277.87V195.89H268.52V200.67H277.19V206.8H268.52V212.73H278.14V219.53H262.93V189.47Z" fill="white"/>
<path d="M278.64 220.03H262.41V188.97H278.41V196.39H269.06V200.17H277.73V207.3H269.06V212.23H278.68L278.64 220.03ZM263.43 219.03H277.64V213.23H268.02V206.3H276.69V201.17H268.02V195.39H277.41V189.97H263.41L263.43 219.03Z" fill="black"/>
<path d="M86.75 96.54C86.1567 101.66 83.3033 104.44 78.1899 104.88C73.0699 104.44 70.2932 101.66 69.8599 96.54C70.2999 91.54 73.0699 88.79 78.1899 88.21C83.3099 88.79 86.1633 91.5667 86.75 96.54ZM83.24 96.54C82.94 93.62 81.2733 92.0133 78.24 91.72C76.9631 91.7278 75.7405 92.2379 74.8367 93.1399C73.9328 94.0418 73.4204 95.2632 73.4099 96.54C73.5499 99.76 75.1566 101.443 78.23 101.59C81.26 101.43 82.94 99.74 83.24 96.54ZM110.65 106.2H105.83C105.676 100.2 103.19 97.1266 98.3699 96.98C92.5232 96.98 89.7465 102.683 90.0398 114.09C89.4465 126.37 92.2232 132.51 98.3699 132.51C102.61 132.663 105.023 129.593 105.61 123.3C105.759 122.357 105.832 121.404 105.83 120.45H110.65C110.363 121.296 110.291 122.2 110.44 123.08C110.317 123.51 110.243 123.953 110.22 124.4C109.92 127.76 109.12 130.32 107.8 132.07C106.697 133.382 105.319 134.436 103.764 135.157C102.209 135.878 100.514 136.247 98.7998 136.24C88.9998 136.387 84.4666 129.003 85.2 114.09C84.9133 99.9101 89.3732 92.8201 98.5798 92.8201C106.34 93.2401 110.363 97.6933 110.65 106.18V106.2Z" fill="white"/>
<path d="M98.5398 136.72C96.8369 136.805 95.135 136.536 93.5413 135.93C91.9475 135.324 90.4966 134.395 89.28 133.2C85.8 129.59 84.28 123.2 84.71 114.05C84.53 105.38 86.1598 99.21 89.5598 95.75C90.7439 94.5895 92.1538 93.6845 93.7019 93.0911C95.25 92.4976 96.9034 92.2284 98.5598 92.3C106.56 92.75 110.82 97.4202 111.12 106.16V106.68H105.29V106.19C105.15 100.46 102.87 97.6 98.2898 97.46C97.451 97.4303 96.6155 97.5771 95.8369 97.8906C95.0583 98.2041 94.3542 98.6774 93.77 99.28C91.39 101.72 90.28 106.7 90.47 114.06C90.09 122.11 91.1499 127.49 93.6499 130.11C94.2458 130.738 94.9688 131.231 95.7708 131.557C96.5727 131.883 97.4349 132.034 98.2998 132C102.3 132.15 104.48 129.27 105.04 123.24C105.191 122.311 105.265 121.371 105.26 120.43V119.93H111.26L111.04 120.59C110.771 121.357 110.702 122.179 110.84 122.98V123.19C110.727 123.577 110.66 123.977 110.64 124.38C110.33 127.87 109.49 130.54 108.12 132.38C106.973 133.75 105.539 134.851 103.92 135.606C102.301 136.361 100.536 136.751 98.75 136.75L98.5398 136.72ZM98.5398 93.3C97.0174 93.2291 95.4967 93.4723 94.0723 94.0142C92.6478 94.5561 91.3503 95.3851 90.26 96.45C87.05 99.7199 85.5199 105.64 85.6899 114.06C85.2599 122.91 86.69 129.06 89.98 132.5C91.1023 133.597 92.4396 134.449 93.9077 135.003C95.3758 135.558 96.9429 135.801 98.51 135.72H98.78C100.422 135.722 102.043 135.365 103.532 134.674C105.021 133.983 106.342 132.975 107.4 131.72C108.63 130.08 109.4 127.58 109.7 124.32C109.938 123.203 110.033 122.061 109.98 120.92H106.3C106.285 121.734 106.212 122.546 106.08 123.35C105.49 129.74 102.98 132.99 98.6399 132.99H98.3298C97.3324 133.018 96.3401 132.836 95.417 132.457C94.4939 132.078 93.6604 131.51 92.97 130.79C90.25 127.93 89.12 122.45 89.52 114.04C89.32 106.32 90.5199 101.25 93.0999 98.5701C93.782 97.8745 94.6003 97.3272 95.5037 96.9624C96.407 96.5976 97.376 96.4231 98.3499 96.45C103.35 96.61 106.01 99.6999 106.29 105.67H110.11C109.71 97.7599 105.92 93.7101 98.5598 93.3H98.5398ZM78.22 105.36C72.76 104.9 69.7998 101.94 69.3398 96.5701C69.7998 91.2601 72.7499 88.3099 78.1199 87.6899H78.23C83.58 88.3099 86.61 91.26 87.23 96.47V96.5801C86.63 101.95 83.6 104.9 78.24 105.36H78.22ZM78.22 88.6899C73.37 89.2699 70.7999 91.8401 70.3899 96.5701C70.8099 101.37 73.39 103.94 78.27 104.36C83.05 103.94 85.7 101.36 86.27 96.53C85.67 91.83 83.0399 89.2699 78.1899 88.6899H78.22ZM78.22 102.07C74.86 101.91 73.0299 100 72.8699 96.55C73.1899 93.3 74.9599 91.5499 78.1399 91.2C81.5699 91.52 83.41 93.3 83.74 96.48V96.5701C83.41 100.06 81.56 101.91 78.22 102.07ZM78.1499 92.2C77.004 92.221 75.9126 92.6925 75.1116 93.5122C74.3106 94.3319 73.8644 95.434 73.8699 96.5801C73.9999 99.4401 75.42 100.94 78.22 101.07C80.96 100.94 82.45 99.45 82.74 96.53C82.41 93.88 80.9499 92.4699 78.1499 92.2Z" fill="black"/>
</svg>
