<svg width="300" height="246" viewBox="0 0 300 246" fill="none" xmlns="http://www.w3.org/2000/svg">
<path d="M288 0H12C8.8174 0 5.76509 1.26421 3.51465 3.51465C1.26421 5.76509 0 8.8174 0 12V234C0 237.183 1.26421 240.235 3.51465 242.485C5.76509 244.736 8.8174 246 12 246H288C291.183 246 294.235 244.736 296.485 242.485C298.736 240.235 300 237.183 300 234V12C300 8.8174 298.736 5.76509 296.485 3.51465C294.235 1.26421 291.183 0 288 0Z" fill="#61707E"/>
<path d="M166.28 12.3101H15C14.2494 12.3101 13.5295 12.6084 12.9988 13.1392C12.4681 13.6699 12.1699 14.3896 12.1699 15.1401V159.8C12.1699 160.552 12.4678 161.272 12.9983 161.805C13.5287 162.337 14.2485 162.637 15 162.64H166.28C167.032 162.637 167.751 162.337 168.282 161.805C168.812 161.272 169.11 160.552 169.11 159.8V15.1401C169.11 14.7685 169.037 14.4005 168.895 14.0571C168.752 13.7138 168.544 13.4019 168.281 13.1392C168.018 12.8764 167.706 12.6676 167.363 12.5254C167.019 12.3832 166.652 12.3101 166.28 12.3101Z" fill="#D3E2E2"/>
<path d="M91.4299 17.5801L153.45 91.7301H140.56V154.9H42.2999V91.7301H29.3999L91.4299 17.5801Z" fill="#FAED26"/>
<path d="M141.06 155.4H41.7998V92.23H28.3298L91.4299 16.8003L154.52 92.23H141.06V155.4ZM42.7998 154.4H140.06V91.23H152.41L91.4099 18.3599L30.4099 91.23H42.74L42.7998 154.4Z" fill="black"/>
<path d="M181.02 12.3101H285.02C285.771 12.3101 286.49 12.6084 287.021 13.1392C287.552 13.6699 287.85 14.3896 287.85 15.1401V162.64H181.02V12.3101Z" fill="#FAED26"/>
<path d="M204.29 24.2402H229.67V21.8799H238.83V24.2402H263.7V31.5801H204.29V24.2402ZM264.22 52.77V72.9199C264.573 78.8533 262.827 81.47 258.98 80.77H251.92V74.23H252.92C253.92 74.4 254.49 73.8802 254.49 72.6602V60.0898H214.18V81.0303H204.24V52.77H264.22ZM205.86 33.6602H263.17V43.0801C263.337 48.3201 261.337 50.7635 257.17 50.4102H205.87V33.6602H205.86ZM252.7 41.77V40.77H215.54V43.3799H251.13C252.18 43.5199 252.7 43 252.7 41.77ZM245.64 78.6802H216.85V62.1899H251.66V73.4399C252 77.1133 249.993 78.8602 245.64 78.6802ZM226.79 68.6802V71.8203H239.62C241.01 72.0003 241.71 71.47 241.71 70.25V68.6802H226.79Z" fill="white"/>
<path d="M214.73 81.5801H203.79V52.3203H264.72V72.9702C264.94 76.7102 264.34 79.17 262.89 80.46C262.338 80.9082 261.688 81.2189 260.992 81.3667C260.297 81.5145 259.576 81.4952 258.89 81.3101H251.41V77.1499C251.288 77.3252 251.154 77.4922 251.01 77.6499C249.93 78.7899 248.11 79.3102 245.62 79.2202H216.34V61.73H252.15V73.48C252.145 73.5766 252.145 73.6734 252.15 73.77H252.93C253.35 73.83 253.59 73.7702 253.73 73.6802C253.841 73.5409 253.922 73.38 253.969 73.208C254.015 73.036 254.026 72.8565 254 72.6802V60.5801H214.7L214.73 81.5801ZM204.79 80.5801H213.73V59.5801H255.03V72.6499C255.06 72.9676 255.019 73.2883 254.912 73.5889C254.805 73.8894 254.634 74.1628 254.41 74.3901C254.194 74.5525 253.945 74.6654 253.681 74.7207C253.416 74.776 253.143 74.7722 252.88 74.71H252.41V80.2603H258.97C259.522 80.4208 260.103 80.4492 260.668 80.3433C261.232 80.2373 261.764 79.9995 262.22 79.6499C263.41 78.5999 263.91 76.3399 263.71 72.9399V53.2603H204.78L204.79 80.5801ZM217.35 78.23H245.66C247.87 78.33 249.42 77.8902 250.29 76.9702C250.673 76.4949 250.95 75.9421 251.1 75.3501C251.25 74.7581 251.27 74.1407 251.16 73.54V62.7402H217.35V78.23ZM240.1 72.46C239.93 72.46 239.75 72.46 239.55 72.46H226.29V68.3203H242.21V70.3901C242.231 70.6906 242.187 70.9919 242.08 71.2734C241.973 71.555 241.806 71.8098 241.59 72.02C241.158 72.3278 240.628 72.4667 240.1 72.4102V72.46ZM227.29 71.46H239.62C240.065 71.5684 240.534 71.5004 240.93 71.27C241.034 71.15 241.112 71.0102 241.16 70.8589C241.209 70.7076 241.225 70.5481 241.21 70.3901V69.3203H227.29V71.46ZM257.91 51.04C257.65 51.04 257.38 51.04 257.11 51.04H205.35V33.29H263.67V43.21C263.77 46.21 263.14 48.43 261.79 49.71C260.707 50.613 259.315 51.0581 257.91 50.9502V51.04ZM206.35 50.04H257.15C257.853 50.1672 258.575 50.1389 259.266 49.9575C259.957 49.7761 260.6 49.4463 261.15 48.9902C262.28 47.9102 262.81 45.99 262.72 43.23V34.29H206.41L206.35 50.04ZM251.5 44.04C251.35 44.049 251.2 44.049 251.05 44.04H215.05V40.4302H253.21V41.9702C253.24 42.2895 253.201 42.6113 253.094 42.9136C252.986 43.2159 252.814 43.4913 252.59 43.7202C252.256 43.8976 251.871 43.9538 251.5 43.8799V44.04ZM216.04 43.04H251.13C251.55 43.11 251.79 43.0402 251.93 42.9502C252.042 42.8112 252.123 42.6506 252.17 42.4785C252.216 42.3064 252.226 42.1265 252.2 41.9502V41.4102H216.04V43.04ZM264.2 32.27H203.79V23.9399H229.17V21.5801H239.33V23.9399H264.2V32.27ZM204.79 31.27H263.2V24.9399H238.33V22.5801H230.17V24.9399H204.79V31.27Z" fill="black"/>
<path d="M287.83 175.01V230.86C287.83 231.61 287.532 232.331 287.001 232.861C286.47 233.392 285.751 233.69 285 233.69H104.41V175.01H287.83Z" fill="#FAED26"/>
<path d="M92.9399 233.69H15C14.2494 233.69 13.5295 233.392 12.9988 232.861C12.4681 232.331 12.1699 231.61 12.1699 230.86V175.01H92.9399V233.69Z" fill="#FAED26"/>
<path d="M206.9 105.58L203.5 93.5801H212.4L214.75 100.91C215.45 103 216.15 103.91 216.85 103.53H218.94V111.12H211.88C209.26 111.6 207.6 109.753 206.9 105.58ZM206.64 123.64L203.5 113.69H212.92L214.75 119.45C215.1 121.9 216.06 122.85 217.63 122.33H219.2V129.66H214.49C209.95 130.52 207.333 128.493 206.64 123.58V123.64ZM203.76 146.15H206.64C207.51 146.32 208.21 145.36 208.73 143.27L210.83 132.27H219.99L217.11 147.71C216.763 151.37 214.147 153.113 209.26 152.94H203.76V146.14V146.15ZM218.68 145.62H220.51V126.26H261.34V145.58H262.41V153.17H218.7V145.58L218.68 145.62ZM220.51 123.11V93.54H261.34V113.69C262.007 121.023 259.563 124.163 254.01 123.11H220.51ZM231.77 133.32H228.41V145.58H231.82L231.77 133.32ZM229.67 101.39V105.06H251.92V101.39H229.67ZM252.18 114.22V112.12H229.67V116.05H250.35C251.57 116.21 252.18 115.594 252.18 114.2V114.22ZM239.09 145.62H242.23V133.32H239.09V145.62ZM250.09 145.62H252.96V133.32H250.09V145.62Z" fill="white"/>
<path d="M262.89 153.69H218.18V145.1H220.01V134.86L217.6 147.79C217.23 151.7 214.41 153.6 209.24 153.43H203.24V145.63H206.62C207.27 145.76 207.8 144.83 208.23 143.13L210.39 131.76H219.99V125.76H261.82V145.12H262.87L262.89 153.69ZM219.18 152.69H261.89V146.1H260.84V126.74H221.01V146.1H219.18V152.69ZM204.26 152.43H209.26C213.88 152.59 216.26 151.03 216.61 147.65L219.39 132.76H211.24L209.24 143.34C209 144.26 208.31 146.97 206.55 146.62H204.27L204.26 152.43ZM253.46 146.1H249.58V132.8H253.46V146.1ZM250.58 145.1H252.46V133.8H250.58V145.1ZM242.73 146.1H238.59V132.8H242.73V146.1ZM239.59 145.1H241.73V133.8H239.59V145.1ZM232.27 146.1H227.86V132.8H232.27V146.1ZM228.86 145.1H231.27V133.8H228.86V145.1ZM212.55 130.34C211.272 130.377 210.016 130.01 208.96 129.29C207.48 128.23 206.53 126.36 206.15 123.73L202.82 113.17H213.29L215.23 119.28C215.43 120.64 215.79 121.49 216.3 121.8C216.482 121.889 216.682 121.936 216.885 121.936C217.088 121.936 217.288 121.889 217.47 121.8H219.7V130.13H214.49C213.851 130.261 213.202 130.331 212.55 130.34ZM204.18 114.17L207.18 123.55C207.51 125.92 208.32 127.55 209.58 128.48C210.301 128.917 211.105 129.202 211.941 129.317C212.776 129.432 213.627 129.375 214.44 129.15H218.74V122.82H217.74C217.425 122.939 217.087 122.986 216.752 122.958C216.416 122.931 216.091 122.829 215.8 122.66C215.02 122.17 214.52 121.14 214.29 119.51L212.59 114.18L204.18 114.17ZM255.95 123.79C255.279 123.782 254.61 123.715 253.95 123.59H220.01V93.02H261.84V113.67C262.25 117.97 261.6 120.86 259.84 122.45C258.762 123.378 257.37 123.857 255.95 123.79ZM221.01 122.59H254.01C256.36 123.03 258.07 122.73 259.18 121.71C260.66 120.36 261.18 117.71 260.84 113.71V94.0103H221.01V122.59ZM250.73 116.59C250.58 116.604 250.43 116.604 250.28 116.59H229.17V111.58H252.68V114.18C252.713 114.534 252.668 114.891 252.549 115.226C252.429 115.561 252.239 115.866 251.99 116.12C251.641 116.423 251.192 116.587 250.73 116.58V116.59ZM230.17 115.59H250.35C250.517 115.639 250.694 115.651 250.866 115.625C251.039 115.6 251.204 115.536 251.35 115.44C251.616 115.107 251.742 114.684 251.7 114.26V112.58H230.19L230.17 115.59ZM211.02 111.71C210.305 111.709 209.607 111.489 209.02 111.08C207.74 110.2 206.9 108.45 206.44 105.73L202.87 93.0801H212.79L215.26 100.76C215.91 102.7 216.39 103.03 216.52 103.09C216.54 103.1 216.562 103.105 216.585 103.105C216.607 103.105 216.63 103.1 216.65 103.09H219.41V111.58H211.84C211.57 111.631 211.295 111.654 211.02 111.65V111.71ZM204.16 94.0801L207.4 105.54C207.8 107.96 208.52 109.54 209.55 110.26C209.876 110.471 210.243 110.613 210.626 110.676C211.01 110.74 211.403 110.724 211.78 110.63H218.41V104.04H216.92C216.651 104.15 216.349 104.15 216.08 104.04C215.4 103.76 214.82 102.83 214.25 101.1L212 94.1001L204.16 94.0801ZM252.41 105.58H229.16V100.91H252.41V105.58ZM230.16 104.58H251.41V101.91H230.16V104.58Z" fill="black"/>
<path d="M32.9099 190.13V185.18H37.5V183.34H43.9299V185.18H62.47V183.18H68.72V185.18H73.8599V190.13H68.72V192.34H74.0398V197.48H56.5999V199.68H73.3098V212.58C73.9231 217.247 71.5898 219.267 66.3098 218.64H64.1099L64.8398 219.56C64.8487 219.702 64.9135 219.835 65.02 219.93C65.2878 220.179 65.6026 220.372 65.946 220.497C66.2895 220.622 66.6548 220.678 67.02 220.66H74.02V225.25H63.5498C61.5998 225 60.31 224.52 59.7 223.78L55.48 218.64H51.99L46.99 223.41C46.3357 224.166 45.5142 224.759 44.5908 225.143C43.6674 225.527 42.6674 225.69 41.6699 225.62H33.0398V220.84H40.5698C40.9914 220.813 41.4034 220.702 41.7812 220.513C42.1591 220.324 42.4955 220.061 42.77 219.74L43.6899 218.64H33.5898V199.68H49.9299V197.48H32.9099V192.34H37.5V190.13H32.9099ZM49.8098 206.66V204.66H40.0798V206.66H49.8098ZM49.8098 211.66H40.0798V213.86H49.8098V211.66ZM43.9299 192.38H62.2898V190.18H43.9299V192.38ZM56.5999 206.7H67.0598V204.7H56.5999V206.7ZM67.25 211.7H56.78V213.9H66.7C67.06 213.9 67.25 213.65 67.25 213.16V211.7Z" fill="white"/>
<path d="M42.1599 226.08H32.5999V220.3H40.5999C40.9556 220.272 41.3022 220.173 41.6196 220.01C41.9371 219.847 42.2193 219.622 42.45 219.35L42.6599 219.1H33.1299V199.18H49.47V197.98H32.4099V191.84H37V190.63H32.4099V184.68H37V182.84H44.4099V184.68H61.95V182.68H69.1899V184.68H74.4099V190.63H69.26V191.84H74.5898V197.98H57.1499V199.18H73.8599V212.58C74.1599 214.85 73.7499 216.58 72.6299 217.75C71.5099 218.92 69.2498 219.48 66.3198 219.14H65.21L65.4099 219.38V219.56C66.3299 220.2 66.79 220.23 66.99 220.18H74.5898V225.77H63.5898C61.4198 225.5 60.0499 224.96 59.3499 224.12L55.28 219.12H52.28L47.47 223.76C46.8018 224.504 45.9821 225.095 45.0662 225.495C44.1502 225.895 43.1593 226.095 42.1599 226.08ZM33.5999 225.08H41.73C42.654 225.157 43.583 225.016 44.4426 224.668C45.3023 224.321 46.0686 223.777 46.6799 223.08L51.8098 218.14H55.73L60.1099 223.46C60.6199 224.09 61.8099 224.53 63.6399 224.76H73.5398V221.17H67.1199C66.6892 221.199 66.2572 221.141 65.8499 220.998C65.4425 220.855 65.0683 220.631 64.75 220.34C64.5787 220.192 64.4537 219.998 64.3899 219.78L63.0798 218.15H66.3298C68.9998 218.46 70.8499 218.09 71.8699 217.06C72.8899 216.03 73.0698 214.67 72.8098 212.66V200.18H56.0999V196.98H73.5398V192.84H68.21V189.63H73.4099V185.68H68.26V183.68H63.02V185.68H43.4099V183.84H37.98V185.68H33.4099V189.63H38V192.84H33.4099V196.98H50.49V200.18H34.1499V218.09H44.8098L43.21 220.01C42.8869 220.387 42.4908 220.695 42.0457 220.915C41.6005 221.135 41.1156 221.262 40.6199 221.29H33.6199L33.5999 225.08ZM66.7 214.33H56.28V211.13H67.75V213.13C67.75 214 67.2 214.32 66.7 214.32V214.33ZM57.28 213.33H66.7C66.7 213.33 66.75 213.33 66.75 213.09V212.09H57.28V213.33ZM50.28 214.33H39.5498V211.13H50.28V214.33ZM40.5498 213.33H49.28V212.13H40.5498V213.33ZM67.5498 207.17H56.0898V204.17H67.5498V207.17ZM57.0898 206.17H66.5498V205.17H57.0898V206.17ZM50.2998 207.17H39.5698V204.17H50.2998V207.17ZM40.5698 206.17H49.2998V205.17H40.5698V206.17ZM62.78 192.85H43.4099V189.65H62.77L62.78 192.85ZM44.4199 191.85H61.78V190.65H44.4099L44.4199 191.85Z" fill="black"/>
<path d="M116.3 189.47H121.87V199.99H127.96V189.47H133.56V219.58H127.96V207.42H121.87V219.58H116.3V189.47Z" fill="white"/>
<path d="M134.06 220.03H127.46V207.87H122.41V220.03H115.83V188.97H122.41V199.49H127.5V188.97H134.1L134.06 220.03ZM128.46 219.03H133.06V189.97H128.46V200.49H121.41V189.97H116.83V219.03H121.41V206.87H128.5L128.46 219.03Z" fill="black"/>
<path d="M137.25 189.47H152.19V195.89H142.84V200.66H151.51V206.8H142.84V212.72H152.46V219.58H137.25V189.47Z" fill="white"/>
<path d="M152.96 220.03H136.75V188.97H152.69V196.39H143.34V200.16H152.01V207.3H143.34V212.22H152.96V220.03ZM137.75 219.03H151.96V213.22H142.34V206.3H151.01V201.16H142.34V195.39H151.69V189.97H137.75V219.03Z" fill="black"/>
<path d="M166.55 214.58H160.22L159.34 219.58H153.65L160.43 189.52H166.51L173.29 219.58H167.41L166.55 214.58ZM165.4 208.08L163.4 197.27L161.4 208.08H165.4Z" fill="white"/>
<path d="M173.92 220.03H167.04L166.13 215.03H160.64L159.76 220.03H153.03L160.03 188.97H166.91L173.92 220.03ZM167.87 219.03H172.67L166.11 189.97H160.83L154.28 219.03H158.93L159.8 214.03H166.97L167.87 219.03ZM166 208.57H160.83L163.4 194.48L166 208.57ZM162 207.57H164.76L163.38 200.03L162 207.57Z" fill="black"/>
<path d="M172.06 189.47H189V196.89H183.32V219.58H177.75V196.94H172.06V189.47Z" fill="white"/>
<path d="M183.82 220.03H177.24V197.39H171.56V188.97H189.5V197.39H183.82V220.03ZM178.24 219.03H182.82V196.39H188.5V189.97H172.56V196.39H178.24V219.03Z" fill="black"/>
<path d="M198.07 189.47H203.37L205.27 206.3L208.06 189.47H213.34L216.14 206.28L218.04 189.47H223.31L219.31 219.53H213.85L210.68 200.6L207.53 219.53H202.07L198.07 189.47Z" fill="white"/>
<path d="M219.77 220.03H213.41L210.67 203.64L207.95 220.03H201.62L197.47 188.97H203.78L205.34 202.68L207.61 188.97H213.73L216.01 202.67L217.57 188.97H223.85L219.77 220.03ZM214.29 219.03H218.89L222.74 189.97H218.49L216.23 209.88L212.91 189.97H208.49L205.18 209.92L202.92 189.97H198.64L202.52 219.03H207.13L210.7 197.56L214.29 219.03Z" fill="black"/>
<path d="M236.22 214.58H229.89L229.01 219.58H223.32L230.1 189.52H236.18L242.96 219.58H237.12L236.22 214.58ZM235.06 208.08L233.06 197.27L231.06 208.08H235.06Z" fill="white"/>
<path d="M243.58 220.03H236.71L235.8 215.03H230.31L229.43 220.03H222.7L229.7 188.97H236.58L243.58 220.03ZM237.58 219.03H242.37L235.82 189.97H230.54L223.99 219.03H228.63L229.51 214.03H236.68L237.58 219.03ZM235.7 208.57H230.54L233.11 194.48L235.7 208.57ZM231.7 207.57H234.46L233.08 200.03L231.7 207.57Z" fill="black"/>
<path d="M241.57 189.47H247.41L251.47 211.1L255.47 189.47H261.12L254.41 219.58H248.41L241.57 189.47Z" fill="white"/>
<path d="M254.82 220.03H247.98L240.98 188.97H247.85L251.49 208.37L255.09 188.97H261.79L254.82 220.03ZM248.82 219.03H254.06L260.54 189.97H255.92L251.5 213.83L247.02 189.97H242.24L248.82 219.03Z" fill="black"/>
<path d="M262.93 189.47H277.87V195.89H268.52V200.66H277.19V206.8H268.52V212.72H278.14V219.58H262.93V189.47Z" fill="white"/>
<path d="M278.64 220.03H262.41V188.97H278.41V196.39H269.06V200.16H277.73V207.3H269.06V212.22H278.68L278.64 220.03ZM263.43 219.03H277.64V213.22H268.02V206.3H276.69V201.16H268.02V195.39H277.41V189.97H263.41L263.43 219.03Z" fill="black"/>
<path d="M86.75 96.52C86.1567 101.64 83.3033 104.42 78.1899 104.86C73.0699 104.42 70.2932 101.64 69.8599 96.52C70.2999 91.5534 73.0766 88.7766 78.1899 88.1899C83.3099 88.7699 86.1633 91.5467 86.75 96.52ZM83.24 96.52C82.94 93.6 81.2733 91.9935 78.24 91.7002C76.9649 91.7106 75.7449 92.2219 74.8433 93.1235C73.9416 94.0252 73.4304 95.2449 73.4199 96.52C73.5599 99.74 75.1667 101.424 78.24 101.57C81.28 101.424 82.9467 99.74 83.24 96.52ZM110.65 106.17H105.83C105.676 100.17 103.19 97.1 98.3699 96.96C92.5232 96.96 89.7465 102.664 90.0398 114.07C89.4465 126.35 92.2232 132.49 98.3699 132.49C102.61 132.644 105.023 129.574 105.61 123.28C105.758 122.338 105.832 121.384 105.83 120.43H110.65C110.362 121.276 110.29 122.18 110.44 123.06C110.315 123.49 110.241 123.933 110.22 124.38C109.92 127.74 109.12 130.3 107.8 132.05C106.696 133.361 105.318 134.414 103.763 135.134C102.208 135.855 100.514 136.225 98.7998 136.22C88.9998 136.36 84.4666 128.977 85.2 114.07C84.9133 99.8903 89.3732 92.7967 98.5798 92.79C106.34 93.23 110.363 97.6899 110.65 106.17Z" fill="white"/>
<path d="M98.5398 136.72C96.836 136.806 95.1331 136.536 93.5391 135.928C91.945 135.321 90.4947 134.388 89.28 133.19C85.8 129.59 84.28 123.19 84.71 114.04C84.53 105.38 86.1598 99.2102 89.5598 95.7402C90.7439 94.5797 92.1538 93.6745 93.7019 93.0811C95.25 92.4876 96.9034 92.2184 98.5598 92.29C106.56 92.75 110.82 97.4102 111.12 106.16V106.67H105.29V106.19C105.15 100.45 102.87 97.6 98.2898 97.46C97.451 97.4303 96.6155 97.5771 95.8369 97.8906C95.0583 98.2041 94.3542 98.6776 93.77 99.2803C91.39 101.72 90.28 106.69 90.47 114.05C90.09 122.1 91.1499 127.49 93.6499 130.1C94.2458 130.728 94.9688 131.221 95.7708 131.547C96.5727 131.873 97.4349 132.024 98.2998 131.99C102.3 132.11 104.48 129.26 105.04 123.23C105.191 122.304 105.265 121.368 105.26 120.43V119.93H111.26L111.04 120.59C110.77 121.356 110.701 122.179 110.84 122.98V123.18C110.726 123.571 110.659 123.973 110.64 124.38C110.33 127.86 109.49 130.53 108.12 132.38C106.971 133.747 105.537 134.847 103.918 135.602C102.3 136.357 100.536 136.749 98.75 136.75L98.5398 136.72ZM98.5398 93.29C97.0174 93.2191 95.4967 93.462 94.0723 94.0039C92.6478 94.5458 91.3503 95.375 90.26 96.4399C87.05 99.7099 85.5199 105.64 85.6899 114.06C85.2599 122.91 86.69 129.06 89.98 132.5C92.1 134.69 95.08 135.73 98.78 135.72C100.422 135.722 102.043 135.365 103.532 134.674C105.021 133.983 106.342 132.975 107.4 131.72C108.63 130.07 109.4 127.58 109.7 124.32C109.938 123.204 110.033 122.061 109.98 120.92H106.3C106.285 121.734 106.212 122.546 106.08 123.35C105.49 129.74 102.98 132.99 98.6399 132.99H98.3298C97.3321 133.02 96.3394 132.839 95.416 132.46C94.4926 132.081 93.6593 131.512 92.97 130.79C90.25 127.93 89.12 122.46 89.52 114.04C89.32 106.33 90.5199 101.26 93.0999 98.5801C93.779 97.8806 94.5969 97.3309 95.501 96.9658C96.405 96.6007 97.3754 96.4282 98.3499 96.46C103.35 96.61 106.01 99.7099 106.29 105.67H110.11C109.71 97.7599 105.92 93.71 98.5598 93.29H98.5398ZM78.22 105.35C72.76 104.89 69.7998 101.94 69.3398 96.5601C69.7998 91.2601 72.7499 88.2999 78.1199 87.6899H78.23C83.58 88.2999 86.61 91.25 87.23 96.46V96.5801C86.63 101.94 83.6 104.9 78.24 105.35H78.22ZM78.22 88.6899C73.37 89.2599 70.7999 91.8403 70.3899 96.5703C70.8099 101.36 73.39 103.94 78.27 104.36C83.05 103.94 85.7 101.36 86.27 96.52C85.67 91.82 83.0399 89.2599 78.1899 88.6899H78.22ZM78.22 102.06C74.86 101.91 73.0299 100 72.8699 96.54C73.1899 93.29 74.9599 91.5402 78.1399 91.2002C81.5699 91.5202 83.41 93.2902 83.74 96.4702V96.5703C83.41 100.06 81.56 101.91 78.22 102.06ZM78.1499 92.2002C75.5599 92.4602 74.1499 93.9003 73.8699 96.5703C73.9999 99.4403 75.42 100.94 78.22 101.07C80.96 100.94 82.45 99.45 82.74 96.52C82.41 93.88 80.9499 92.4602 78.1499 92.2002Z" fill="black"/>
</svg>
