<svg width="300" height="246" viewBox="0 0 300 246" fill="none" xmlns="http://www.w3.org/2000/svg">
<path d="M288 0H12C8.8174 0 5.76509 1.26446 3.51465 3.51489C1.26421 5.76533 0 8.8174 0 12V234C0 237.183 1.26421 240.235 3.51465 242.485C5.76509 244.736 8.8174 246 12 246H288C291.183 246 294.235 244.736 296.485 242.485C298.736 240.235 300 237.183 300 234V12C300 8.8174 298.736 5.76533 296.485 3.51489C294.235 1.26446 291.183 0 288 0Z" fill="#61707E"/>
<path d="M166.28 12.3101H15C14.2494 12.3101 13.5295 12.6082 12.9988 13.1389C12.4681 13.6696 12.1699 14.3896 12.1699 15.1401V159.8C12.1699 160.552 12.4678 161.272 12.9983 161.805C13.5287 162.337 14.2485 162.637 15 162.64H166.28C167.032 162.637 167.751 162.337 168.282 161.805C168.812 161.272 169.11 160.552 169.11 159.8V15.1401C169.11 14.3896 168.812 13.6696 168.281 13.1389C167.75 12.6082 167.031 12.3101 166.28 12.3101Z" fill="#D3E2E2"/>
<path d="M91.4299 17.5801L153.45 91.7301H140.56V154.9H42.2999V91.7301H29.3999L91.4299 17.5801Z" fill="#D63128"/>
<path d="M141.06 155.4H41.7998V92.23H28.3298L91.4299 16.8L154.52 92.23H141.06V155.4ZM42.7998 154.4H140.06V91.23H152.41L91.4099 18.3601L30.4099 91.23H42.74L42.7998 154.4Z" fill="black"/>
<path d="M181.02 12.3101H285.02C285.771 12.3101 286.49 12.6082 287.021 13.1389C287.552 13.6696 287.85 14.3896 287.85 15.1401V162.64H181.02V12.3101Z" fill="#D63128"/>
<path d="M204.29 24.24H229.67V21.8901H238.83V24.24H263.7V31.5701H204.29V24.24ZM264.22 52.77V72.9202C264.573 78.8468 262.827 81.4634 258.98 80.77H251.92V74.23H252.92C253.92 74.41 254.49 73.8802 254.49 72.6602V60.0601H214.18V81.0601H204.24V52.8L264.22 52.77ZM205.86 33.6602H263.17V43.0601C263.34 48.2901 261.34 50.7401 257.17 50.3801H205.87V33.6602H205.86ZM252.7 41.78V40.78H215.54V43.4001H251.13C252.18 43.5201 252.7 43 252.7 41.78ZM245.64 78.6802H216.85V62.1899H251.66V73.4399C252 77.1133 249.993 78.8602 245.64 78.6802ZM226.79 68.73V71.8701H239.62C241.01 72.0501 241.71 71.5301 241.71 70.3V68.73H226.79Z" fill="white"/>
<path d="M214.73 81.53H203.79V52.27H264.72V72.9202C264.94 76.6702 264.34 79.1302 262.89 80.4102C262.337 80.8562 261.686 81.1656 260.991 81.3132C260.296 81.4609 259.577 81.4427 258.89 81.26H251.41V77.1001C251.288 77.2754 251.154 77.4424 251.01 77.6001C249.93 78.7401 248.12 79.2702 245.62 79.1702H216.34V61.6802H252.15V73.4302C252.145 73.5268 252.145 73.6234 252.15 73.72H252.93C253.35 73.78 253.59 73.7201 253.73 73.6301C253.841 73.4908 253.922 73.3302 253.969 73.1582C254.015 72.9862 254.026 72.8064 254 72.6301V60.5701H214.7L214.73 81.53ZM204.79 80.53H213.73V59.6001H255.03V72.6602C255.06 72.9779 255.02 73.2982 254.913 73.5989C254.806 73.8995 254.634 74.1732 254.41 74.4001C254.194 74.5625 253.945 74.6754 253.681 74.7307C253.416 74.786 253.143 74.7822 252.88 74.72H252.41V80.26H258.97C259.521 80.423 260.103 80.4527 260.668 80.3467C261.233 80.2406 261.765 80.0019 262.22 79.6501C263.41 78.6501 263.91 76.3399 263.71 72.9399V53.26H204.78L204.79 80.53ZM217.35 78.1802H245.66C247.86 78.2702 249.42 77.8402 250.29 76.9202C250.673 76.4448 250.95 75.892 251.1 75.3C251.25 74.7081 251.27 74.0906 251.16 73.49V62.6899H217.35V78.1802ZM240.1 72.4102C239.93 72.4102 239.75 72.4102 239.55 72.4102H226.29V68.27H242.21V70.3401C242.231 70.6405 242.187 70.9421 242.08 71.2236C241.973 71.5052 241.806 71.7597 241.59 71.97C241.165 72.2955 240.634 72.4524 240.1 72.4102ZM227.29 71.4102H239.62C240.065 71.5197 240.535 71.4514 240.93 71.22C241.034 71.1003 241.113 70.9605 241.161 70.8091C241.21 70.6577 241.226 70.4981 241.21 70.3401V69.27H227.29V71.4102ZM257.91 50.99C257.643 51.0047 257.376 51.0047 257.11 50.99H205.35V33.1602H263.67V43.0601C263.77 46.0601 263.14 48.2701 261.79 49.5601C260.729 50.5144 259.336 51.0134 257.91 50.95V50.99ZM206.35 49.99H257.15C257.849 50.124 258.569 50.1039 259.26 49.9312C259.951 49.7584 260.596 49.4373 261.15 48.99C262.28 47.91 262.81 45.99 262.72 43.23V34.29H206.41L206.35 49.99ZM251.5 43.99C251.35 44.004 251.199 44.004 251.05 43.99H215.05V40.3701H253.21V41.9202C253.24 42.2379 253.199 42.5581 253.092 42.8586C252.985 43.1592 252.814 43.4328 252.59 43.6602C252.263 43.8582 251.878 43.936 251.5 43.8801V43.99ZM216.04 42.99H251.13C251.54 43.05 251.79 42.9901 251.93 42.9001C252.041 42.7609 252.122 42.6003 252.169 42.4282C252.215 42.2562 252.226 42.0764 252.2 41.9001V41.3501H216.04V42.99ZM264.2 32.21H203.79V23.8801H229.17V21.53H239.33V23.8801H264.2V32.21ZM204.79 31.21H263.2V24.8801H238.33V22.53H230.17V24.8801H204.79V31.21Z" fill="black"/>
<path d="M287.83 175.06V230.9C287.83 231.651 287.532 232.372 287.002 232.905C286.471 233.437 285.751 233.738 285 233.74H104.41V175.06H287.83Z" fill="#D63128"/>
<path d="M92.9399 233.7H15C14.2485 233.698 13.5287 233.397 12.9983 232.865C12.4678 232.332 12.1699 231.611 12.1699 230.86V175.06H92.9399V233.7Z" fill="#D63128"/>
<path d="M206.9 105.56L203.5 93.5601H212.4L214.75 100.89C215.45 102.98 216.15 103.89 216.85 103.51H218.94V111.06H211.88C209.26 111.58 207.6 109.747 206.9 105.56ZM206.64 123.62L203.5 113.68H212.92L214.75 119.43C215.097 121.884 216.057 122.843 217.63 122.31H219.2V129.64H214.49C209.95 130.513 207.333 128.507 206.64 123.62ZM203.76 146.13H206.64C207.51 146.3 208.21 145.34 208.73 143.25L210.83 132.25H219.99L217.11 147.69C216.763 151.35 214.147 153.093 209.26 152.92H203.76V146.12V146.13ZM218.68 145.6H220.51V126.24H261.34V145.6H262.41V153.19H218.7V145.6H218.68ZM220.51 123.1V93.52H261.34V113.67C262.007 121.003 259.563 124.147 254.01 123.1H220.51ZM231.77 133.3H228.41V145.6H231.82L231.77 133.3ZM229.67 101.37V105.06H251.92V101.39L229.67 101.37ZM252.18 114.2V112.06H229.67V116.06H250.35C251.57 116.22 252.18 115.6 252.18 114.2ZM239.09 145.6H242.23V133.3H239.09V145.6ZM250.09 145.6H252.96V133.3H250.09V145.6Z" fill="white"/>
<path d="M262.89 153.69H218.18V145.06H220.01V134.86L217.6 147.79C217.23 151.7 214.41 153.62 209.24 153.43H203.24V145.63H206.62C207.27 145.75 207.8 144.83 208.23 143.13L210.39 131.76H219.99V125.76H261.82V145.06H262.87L262.89 153.69ZM219.18 152.69H261.89V146.06H260.84V126.7H221.01V146.06H219.18V152.69ZM204.26 152.43H209.26C213.89 152.59 216.26 151.03 216.61 147.65L219.39 132.76H211.24L209.24 143.34C209 144.26 208.31 146.97 206.55 146.62H204.27L204.26 152.43ZM253.46 146.1H249.58V132.8H253.46V146.1ZM250.58 145.1H252.46V133.8H250.58V145.1ZM242.73 146.1H238.59V132.8H242.73V146.1ZM239.59 145.1H241.73V133.8H239.59V145.1ZM232.27 146.1H227.86V132.8H232.27V146.1ZM228.86 145.1H231.27V133.8H228.86V145.1ZM212.55 130.34C211.272 130.377 210.016 130.01 208.96 129.29C207.48 128.23 206.53 126.36 206.15 123.73L202.82 113.18H213.29L215.23 119.28C215.43 120.65 215.79 121.49 216.3 121.8C216.482 121.889 216.682 121.936 216.885 121.936C217.088 121.936 217.288 121.889 217.47 121.8H219.7V130.13H214.49C213.851 130.261 213.202 130.331 212.55 130.34ZM204.18 114.18L207.18 123.55C207.51 125.92 208.32 127.55 209.58 128.48C210.301 128.917 211.105 129.202 211.941 129.317C212.776 129.432 213.627 129.375 214.44 129.15H218.74V122.82H217.74C217.425 122.939 217.087 122.986 216.752 122.958C216.416 122.931 216.091 122.829 215.8 122.66C215.02 122.17 214.52 121.15 214.29 119.51L212.59 114.19L204.18 114.18ZM255.95 123.79C255.279 123.782 254.61 123.715 253.95 123.59H220.01V93.0601H261.84V113.71C262.25 118.01 261.6 120.9 259.84 122.49C258.756 123.403 257.365 123.868 255.95 123.79ZM221.01 122.6H254.01C256.36 123.03 258.07 122.73 259.18 121.71C260.66 120.36 261.18 117.71 260.84 113.71V94.0601H221.01V122.6ZM250.73 116.6H229.17V111.67H252.68V114.27C252.713 114.624 252.668 114.981 252.549 115.316C252.429 115.651 252.239 115.956 251.99 116.21C251.625 116.474 251.178 116.598 250.73 116.56V116.6ZM230.17 115.6H250.35C250.517 115.652 250.694 115.666 250.867 115.64C251.04 115.614 251.205 115.549 251.35 115.45C251.616 115.118 251.742 114.694 251.7 114.27V112.67H230.19L230.17 115.6ZM211.02 111.72C210.305 111.719 209.607 111.499 209.02 111.09C207.74 110.21 206.9 108.46 206.44 105.74L202.87 93.0901H212.79L215.26 100.77C215.91 102.71 216.39 103.05 216.52 103.1C216.539 103.113 216.562 103.119 216.585 103.119C216.608 103.119 216.631 103.113 216.65 103.1L216.76 103.05H219.41V111.64H211.84C211.568 111.671 211.293 111.674 211.02 111.65V111.72ZM204.16 94.0901L207.4 105.55C207.8 107.97 208.52 109.55 209.55 110.27C209.876 110.481 210.243 110.623 210.626 110.687C211.01 110.75 211.403 110.734 211.78 110.64H218.41V104.05H216.92C216.651 104.16 216.349 104.16 216.08 104.05C215.4 103.78 214.82 102.84 214.25 101.11L212 94.1101L204.16 94.0901ZM252.42 105.61H229.17V100.94H252.41L252.42 105.61ZM230.17 104.61H251.41V101.94H230.16L230.17 104.61Z" fill="black"/>
<path d="M32.73 225.06V219.55H49.0698V225.06H32.73ZM32.9099 194.77L39.9099 183.93H47.0698L38.99 196.6H41.4099L43.98 192.38H51.51L40.6799 209.64H49.1199V215.33H32.9099V210.19L38.7898 201.74H32.9099V194.77ZM58.7998 219.77V189.84H51.46V183.96H74.4099V189.84H65.96V219.77H74.5898V225.64H51.27V219.77H58.7998Z" fill="white"/>
<path d="M75.0898 226.06H50.77V219.19H58.2998V190.26H50.96V183.38H74.9099V190.26H66.46V219.19H75.0898V226.06ZM51.77 225.06H74.0898V220.19H65.46V189.26H73.9099V184.38H51.96V189.26H59.2998V220.19H51.77V225.06ZM49.5698 225.51H32.23V219.06H49.5698V225.51ZM33.23 224.51H48.5698V220.06H33.23V224.51ZM49.5698 215.78H32.4099V209.98L37.8298 202.19H32.4099V194.57L32.49 194.45L39.6199 183.38H47.96L39.8899 196.05H41.0798L43.6499 191.83H52.4099L41.53 209.06H49.53L49.5698 215.78ZM33.4099 214.78H48.5698V210.06H39.72L50.5498 192.8H44.21L41.6399 197.02H38.0598L46.1399 184.35H40.1399L33.3899 194.83V201.16H39.73L33.3899 210.26L33.4099 214.78Z" fill="black"/>
<path d="M116.3 189.47H121.87V199.99H127.96V189.47H133.56V219.53H127.96V207.37H121.87V219.53H116.3V189.47Z" fill="white"/>
<path d="M134.06 220.06H127.46V207.9H122.41V220.06H115.83V189H122.41V199.52H127.5V189H134.1L134.06 220.06ZM128.46 219.06H133.06V190H128.46V200.52H121.41V190H116.83V219.06H121.41V206.9H128.5L128.46 219.06Z" fill="black"/>
<path d="M137.25 189.47H152.19V195.89H142.84V200.67H151.51V206.8H142.84V212.72H152.46V219.53H137.25V189.47Z" fill="white"/>
<path d="M152.96 220.06H136.75V189H152.69V196.42H143.34V200.2H152.01V207.33H143.34V212.25H152.96V220.06ZM137.75 219.06H151.96V213.25H142.34V206.33H151.01V201.2H142.34V195.42H151.69V190H137.75V219.06Z" fill="black"/>
<path d="M166.55 214.57H160.22L159.34 219.57H153.65L160.43 189.51H166.51L173.29 219.57H167.41L166.55 214.57ZM165.41 208.06L163.41 197.25L161.41 208.06H165.41Z" fill="white"/>
<path d="M173.92 220.06H167.04L166.13 215.06H160.64L159.76 220.06H153.03L160.03 189H166.91L173.92 220.06ZM167.87 219.06H172.67L166.11 190H160.83L154.28 219.06H158.93L159.8 214.06H166.97L167.87 219.06ZM166 208.6H160.83L163.4 194.52L166 208.6ZM162 207.6H164.76L163.41 200.06L162 207.6Z" fill="black"/>
<path d="M172.06 189.47H189V196.89H183.32V219.53H177.75V196.89H172.06V189.47Z" fill="white"/>
<path d="M183.82 220.06H177.24V197.42H171.56V189H189.5V197.42H183.82V220.06ZM178.24 219.06H182.82V196.42H188.5V190H172.56V196.42H178.24V219.06Z" fill="black"/>
<path d="M198.07 189.47H203.37L205.27 206.3L208.06 189.47H213.34L216.14 206.28L218.04 189.47H223.31L219.31 219.53H213.85L210.68 200.6L207.53 219.53H202.07L198.07 189.47Z" fill="white"/>
<path d="M219.77 220.06H213.41L210.67 203.67L207.95 220.06H201.62L197.47 189H203.78L205.34 202.71L207.61 189H213.73L216.01 202.7L217.57 189H223.85L219.77 220.06ZM214.29 219.06H218.89L222.74 190H218.49L216.23 209.92L212.91 190H208.49L205.18 209.95L202.92 190H198.64L202.52 219.06H207.13L210.7 197.59L214.29 219.06Z" fill="black"/>
<path d="M236.22 214.57H229.89L229.01 219.57H223.32L230.1 189.51H236.18L242.96 219.57H237.12L236.22 214.57ZM235.06 208.07L233.06 197.26L231.06 208.07H235.06Z" fill="white"/>
<path d="M243.58 220.06H236.71L235.8 215.06H230.31L229.43 220.06H222.7L229.7 189H236.58L243.58 220.06ZM237.58 219.06H242.37L235.82 190H230.54L223.99 219.06H228.63L229.51 214.06H236.68L237.58 219.06ZM235.7 208.6H230.54L233.11 194.52L235.7 208.6ZM231.7 207.6H234.46L233.08 200.06L231.7 207.6Z" fill="black"/>
<path d="M241.57 189.47H247.41L251.47 211.1L255.47 189.47H261.12L254.42 219.53H248.42L241.57 189.47Z" fill="white"/>
<path d="M254.82 220.06H247.98L240.98 189H247.85L251.49 208.41L255.09 189H261.79L254.82 220.06ZM248.82 219.06H254.06L260.54 190H255.92L251.5 213.86L247.02 190H242.24L248.82 219.06Z" fill="black"/>
<path d="M262.93 189.47H277.87V195.89H268.52V200.67H277.19V206.8H268.52V212.72H278.14V219.53H262.93V189.47Z" fill="white"/>
<path d="M278.64 220.06H262.41V189H278.41V196.42H269.06V200.2H277.73V207.33H269.06V212.25H278.68L278.64 220.06ZM263.43 219.06H277.64V213.25H268.02V206.33H276.69V201.2H268.02V195.42H277.41V190H263.41L263.43 219.06Z" fill="black"/>
<path d="M86.75 96.52C86.1567 101.64 83.3033 104.42 78.1899 104.86C73.0699 104.42 70.2932 101.64 69.8599 96.52C70.2999 91.5467 73.0766 88.7699 78.1899 88.1899C83.3099 88.7699 86.1633 91.5467 86.75 96.52ZM83.24 96.52C82.94 93.6 81.2733 91.9933 78.24 91.7C76.9649 91.7104 75.7449 92.2216 74.8433 93.1233C73.9416 94.025 73.4304 95.2449 73.4199 96.52C73.5599 99.74 75.1667 101.423 78.24 101.57C81.28 101.423 82.9467 99.74 83.24 96.52ZM110.65 106.17H105.83C105.676 100.17 103.19 97.1 98.3699 96.96C92.5232 96.96 89.7465 102.663 90.0398 114.07C89.4465 126.35 92.2232 132.49 98.3699 132.49C102.61 132.637 105.023 129.567 105.61 123.28C105.758 122.338 105.832 121.384 105.83 120.43H110.65C110.362 121.276 110.29 122.18 110.44 123.06C110.316 123.49 110.242 123.933 110.22 124.38C109.92 127.74 109.12 130.3 107.8 132.05C106.697 133.363 105.319 134.416 103.764 135.137C102.209 135.857 100.514 136.228 98.7998 136.22C88.9998 136.374 84.4666 128.99 85.2 114.07C84.9133 99.8898 89.3732 92.8 98.5798 92.8C106.34 93.2334 110.363 97.6899 110.65 106.17Z" fill="white"/>
<path d="M98.5398 136.72C96.836 136.806 95.1331 136.536 93.5391 135.928C91.945 135.321 90.4947 134.388 89.28 133.19C85.8 129.59 84.28 123.19 84.71 114.05C84.53 105.38 86.1598 99.21 89.5598 95.74C90.7458 94.5827 92.1563 93.6805 93.7041 93.0889C95.2519 92.4973 96.9043 92.2289 98.5598 92.3C106.56 92.75 110.82 97.4102 111.12 106.16V106.67H105.29V106.19C105.15 100.45 102.87 97.6 98.2898 97.46C97.451 97.4303 96.6155 97.5771 95.8369 97.8906C95.0583 98.2041 94.3542 98.6774 93.77 99.28C91.39 101.72 90.28 106.69 90.47 114.06C90.09 122.06 91.1499 127.49 93.6499 130.06C94.2425 130.692 94.9651 131.188 95.7678 131.515C96.5705 131.841 97.4342 131.99 98.2998 131.95C102.3 132.09 104.48 129.23 105.04 123.19C105.191 122.264 105.265 121.328 105.26 120.39V119.89H111.26L111.04 120.55C110.77 121.317 110.701 122.139 110.84 122.94V123.14C110.726 123.531 110.659 123.933 110.64 124.34C110.333 127.833 109.493 130.5 108.12 132.34C106.973 133.709 105.539 134.811 103.92 135.566C102.301 136.321 100.536 136.711 98.75 136.71L98.5398 136.72ZM98.5398 93.29C97.0177 93.2215 95.4978 93.4655 94.0737 94.0073C92.6496 94.5491 91.3517 95.377 90.26 96.4399C87.05 99.7099 85.5199 105.64 85.6899 114.06C85.2599 122.91 86.69 129.06 89.98 132.5C92.1 134.69 95.11 135.77 98.78 135.72C100.422 135.722 102.043 135.365 103.532 134.674C105.021 133.983 106.342 132.975 107.4 131.72C108.63 130.08 109.4 127.58 109.7 124.32C109.938 123.203 110.033 122.061 109.98 120.92H106.3C106.285 121.734 106.212 122.546 106.08 123.35C105.48 129.89 102.91 133.11 98.3298 132.98C97.3321 133.009 96.3394 132.829 95.416 132.45C94.4926 132.071 93.6593 131.502 92.97 130.78C90.25 127.93 89.12 122.45 89.52 114.04C89.32 106.32 90.5199 101.25 93.0999 98.5701C93.779 97.8706 94.5969 97.3206 95.501 96.9556C96.405 96.5905 97.3754 96.4182 98.3499 96.45C103.35 96.6 106.01 99.7002 106.29 105.66H110.11C109.71 97.7602 105.92 93.71 98.5598 93.29H98.5398ZM78.22 105.36C72.76 104.89 69.7998 101.94 69.3398 96.5701C69.7998 91.2601 72.7499 88.2999 78.1199 87.6899H78.23C83.58 88.3099 86.61 91.26 87.23 96.46V96.5801C86.63 101.94 83.6 104.9 78.24 105.36H78.22ZM78.22 88.6899C73.37 89.2599 70.7999 91.8401 70.3899 96.5701C70.8099 101.36 73.39 103.94 78.27 104.36C83.05 103.94 85.7 101.36 86.27 96.52C85.67 91.83 83.0399 89.2599 78.1899 88.6899H78.22ZM78.22 102.07C74.86 101.91 73.0299 100 72.8699 96.55C73.1899 93.3 74.9599 91.5499 78.1399 91.2C81.5699 91.52 83.41 93.29 83.74 96.47V96.5701C83.41 100.06 81.56 101.91 78.22 102.06V102.07ZM78.1499 92.2C77.0057 92.2209 75.9157 92.691 75.115 93.5085C74.3143 94.3261 73.8671 95.4257 73.8699 96.5701C73.9999 99.4401 75.42 100.94 78.22 101.07C80.96 100.94 82.45 99.45 82.74 96.53C82.41 93.88 80.9499 92.4699 78.1499 92.2Z" fill="black"/>
</svg>
